<svg width="18" height="19" viewBox="0 0 18 19" fill="none" xmlns="http://www.w3.org/2000/svg">
<path fill-rule="evenodd" clip-rule="evenodd" d="M17.48 8.96667C17.4533 8.99334 17.4267 9.02 17.4 9.04H17.4267L11 14.7667H11.4533C11.82 14.7667 12.12 15.0667 12.12 15.4333V18.2667C12.12 18.6333 11.82 18.9333 11.4533 18.9333H6.54C6.17333 18.9333 5.87333 18.6333 5.87333 18.2667V15.4333C5.87333 15.0667 6.17333 14.7667 6.54 14.7667H6.98L0.553333 9.04667H0.573333C0.546667 9.02667 0.52 9 0.493333 8.97334C0.126667 8.57334 0.0933334 7.10667 0.326667 6.00667C0.56 4.90667 1.96 1.87334 6.92667 1.30667C5.78 2.15334 4.38 3.6 5.56667 8.46667C4 6.24 1.12 6.74667 1.15333 8.48667C1.16 8.50667 1.16667 8.52667 1.17333 8.56C1.28667 9.00667 1.28667 8.98 1.62 9.31334C1.68 9.37334 1.70667 9.41334 1.71333 9.44L7.68667 14.76L7.58 14.7733H7.90667L5.8 8.98C5.8 8.98 5.64667 8.64667 5.98 8.64667C6.31333 8.64667 6.38 8.98 6.38 8.98L8.48667 14.7667H9.5L11.6067 8.98C11.6067 8.98 11.6733 8.64667 12.0067 8.64667C12.34 8.64667 12.1867 8.98 12.1867 8.98L10.08 14.7667H10.4067L10.3 14.7533L16.3 9.41334C16.3133 9.38667 16.34 9.35334 16.3867 9.30667C16.7133 8.98 16.72 8.99334 16.82 8.58667C16.9733 6.76667 14.0133 6.2 12.42 8.46667C13.6 3.6 12.2 2.15334 11.0467 1.3C16.0133 1.86667 17.4133 4.9 17.6467 6C17.88 7.1 17.8467 8.56667 17.48 8.96667ZM11.68 8.4C11.2133 7 10.0133 6.53334 8.98667 6.53334C7.96 6.53334 6.76 7 6.29333 8.4C5.59333 5.93334 5.42667 4.3 6.29333 2.6C7.16 0.900003 7.94667 0.933336 8.98667 0.933336C10.0267 0.933336 10.8133 0.900003 11.68 2.6C12.5467 4.3 12.3867 5.93334 11.68 8.4Z" fill="url(#paint0_linear_419_160)"/>
<defs>
<linearGradient id="paint0_linear_419_160" x1="17.7946" y1="9.93332" x2="0.178711" y2="9.93332" gradientUnits="userSpaceOnUse">
<stop stop-color="#2682EE"/>
<stop offset="1" stop-color="#1CD691"/>
</linearGradient>
</defs>
</svg>
