<svg width="179" height="71" viewBox="0 0 179 71" fill="none" xmlns="http://www.w3.org/2000/svg">
<g clip-path="url(#clip0_323_186)">
<path d="M84.1235 46.7706C84.1235 53.6317 78.5679 59.1817 71.7219 59.1817H12.3838C5.55567 59.1996 0 53.6317 0 46.7706C0 39.9095 5.55567 34.3595 12.3838 34.3595H92.1345C98.9805 34.3595 84.1235 39.9095 84.1235 46.7706Z" fill="url(#paint0_linear_323_186)"/>
<path d="M179.001 46.7706C179.001 53.6317 173.445 59.1817 166.617 59.1817H80.8627C74.0167 59.1817 83.3717 53.6137 83.3717 46.7706C83.3717 39.9095 88.9274 34.3595 95.7554 34.3595H166.617C173.445 34.3595 179.001 39.9095 179.001 46.7706Z" fill="white"/>
<path fill-rule="evenodd" clip-rule="evenodd" d="M112.386 0L110.11 7.13053L112.96 6.8252L106.401 16.4344L108.945 9.0344L106.186 9.33974L112.386 0Z" fill="white"/>
<path fill-rule="evenodd" clip-rule="evenodd" d="M125.111 12.1776L120.075 17.7096L122.799 18.6077L112.816 24.5887L118.211 18.9489L115.594 18.0509L125.111 12.1776Z" fill="white"/>
<path fill-rule="evenodd" clip-rule="evenodd" d="M136.364 28.7736L129.088 30.426L130.791 32.725L119.178 31.9168L126.83 30.3721L125.199 28.145L136.364 28.7736Z" fill="white"/>
<path opacity="0.15" d="M95.702 16.3446C95.2539 16.7577 94.6625 17.5121 94.4475 18.7514C93.7485 22.5232 90.8811 34.8804 82.8702 42.5498C82.7985 42.4599 82.673 42.2803 82.673 42.2803L72.9058 51.1711C71.5796 52.3924 70.9524 54.1526 71.1316 55.7691C71.2212 56.6312 71.5259 57.4395 72.0814 58.122C72.0814 58.122 72.2069 58.2836 72.2606 58.3375C71.7051 58.8584 71.4721 59.5768 71.5438 60.2414C71.5796 60.6365 71.7409 61.0137 71.9918 61.319L72.6549 62.1632C72.6728 62.1991 74.1066 62.9176 74.1066 62.9176C74.1066 62.9176 75.2715 62.5224 75.5403 62.4147C76.293 63.3307 77.3324 63.8875 78.5332 63.9952C79.4113 64.0671 80.2895 63.8515 81.1139 63.4384C81.777 64.4622 82.5476 65.6477 82.5476 65.6477C83.8738 67.5874 85.6838 66.5457 86.2932 66.2044L86.8308 65.935C88.7305 67.1205 91.9564 68.3238 93.6768 68.9704L94.4833 69.2758C94.3758 69.2219 94.8238 69.6709 94.8238 69.6709C95.3973 70.2996 96.1142 71.0898 97.1895 70.9641C97.5479 70.9282 98.1931 70.7306 98.6232 69.9224C99.34 68.5753 100.021 64.4263 100.111 63.6719C100.2 62.8996 99.9314 62.2351 99.3759 61.8399C98.5515 61.2292 97.5479 61.4987 96.9206 61.7501C96.5622 61.6244 95.8095 61.2472 95.2539 60.9598L93.8919 60.2773C93.4976 60.0797 93.3722 59.9899 93.3363 59.7385C93.3184 59.6127 93.3363 59.4511 93.3543 59.2176L93.3722 58.9123C93.3722 58.7686 93.3722 58.6249 93.3543 58.5171C93.2467 57.6011 92.7449 57.17 92.4044 56.9904C91.813 56.6492 91.1141 56.739 90.451 57.0982C90.451 57.0802 90.451 57.0443 90.451 57.0264C90.3972 56.5594 90.2538 56.0744 90.0209 55.6254C90.451 55.2302 91.9026 53.9011 91.9026 53.9011C91.9026 53.9011 91.7772 53.7395 91.7055 53.6497C92.1894 53.2366 92.6912 52.8055 92.6912 52.8055C97.2611 49.1055 102.243 46.6449 107.566 45.4235C107.656 45.4056 109.071 45.1182 109.071 45.1182L110.469 44.9026L111.706 44.759L112.799 44.6692C112.817 44.6692 115.129 44.6332 115.129 44.6332C116.115 44.6512 117.011 44.3279 117.745 43.6633C118.229 43.2143 118.839 42.424 119 41.1847C119.609 36.7124 113.265 28.3605 111.312 25.9178C111.294 25.8999 111.114 25.6843 111.114 25.6843C108.695 22.6669 102.44 15.4286 98.2647 15.3747C97.0461 15.3747 96.1859 15.8956 95.702 16.3446Z" fill="black"/>
<path d="M94.8946 15.2849C94.4466 15.698 93.8552 16.4523 93.6401 17.6917C92.9412 21.4635 90.0738 33.8207 82.0808 41.49C82.0091 41.4002 81.8836 41.2386 81.8836 41.2386L72.1343 50.1293C70.8081 51.3506 70.1809 53.1108 70.3601 54.7273C70.4497 55.5895 70.7544 56.3977 71.3099 57.0802C71.3099 57.0802 71.4354 57.2419 71.4892 57.2958C70.9515 57.8166 70.7006 58.5351 70.7723 59.1996C70.8081 59.5948 70.9515 59.9719 71.2203 60.2773L71.9013 61.1214C71.9193 61.1574 73.353 61.8758 73.353 61.8758C73.353 61.8758 74.5179 61.4807 74.8046 61.3729C75.5394 62.2889 76.5968 62.8457 77.7975 62.9355C78.6757 63.0074 79.5538 62.7918 80.3782 62.3787C81.0413 63.4025 81.8299 64.5879 81.8299 64.5879C83.1381 66.5098 84.9661 65.486 85.5755 65.1447L86.1131 64.8753C88.0128 66.0428 91.2387 67.2462 92.9591 67.8928L93.7656 68.1981C93.6581 68.1442 94.1061 68.5932 94.1061 68.5932C94.6796 69.2219 95.3964 70.0122 96.4717 69.8864C96.8302 69.8326 97.4753 69.653 97.9234 68.8447C98.6402 67.4976 99.3213 63.3307 99.3929 62.5943C99.4825 61.8399 99.2137 61.1574 98.6582 60.7622C97.8158 60.1516 96.8302 60.4389 96.2029 60.6724C95.8445 60.5467 95.0918 60.1695 94.5362 59.8642L93.1921 59.1817C92.7978 58.9841 92.6724 58.8943 92.6365 58.6428C92.6186 58.5171 92.6365 58.3555 92.6545 58.122L92.6724 57.8166C92.6724 57.6729 92.6724 57.5472 92.6545 57.4035C92.5648 56.4875 92.0451 56.0564 91.7225 55.8768C91.1311 55.5535 90.4322 55.6254 89.7691 56.0026C89.7691 55.9846 89.7691 55.9487 89.7691 55.9307C89.7153 55.4637 89.572 54.9967 89.339 54.5298C89.787 54.1346 91.2387 52.8055 91.2387 52.8055C91.2387 52.8055 91.1132 52.6438 91.0415 52.554C91.5254 52.1409 92.0272 51.7099 92.0272 51.7099C96.5972 48.0099 101.579 45.5492 106.902 44.3279C106.974 44.3099 108.407 44.0225 108.407 44.0225L109.787 43.807L111.042 43.6633L112.135 43.5735L114.465 43.5376C115.451 43.5735 116.347 43.2323 117.081 42.5677C117.565 42.1187 118.175 41.3284 118.336 40.0891C118.945 35.6168 112.601 27.2649 110.648 24.8222C110.648 24.8042 110.451 24.5887 110.451 24.5887C108.031 21.5712 101.776 14.3509 97.6008 14.2791C96.2388 14.297 95.3785 14.8358 94.8946 15.2849Z" fill="white"/>
<path d="M87.0632 53.9909C87.0632 53.9909 88.5507 55.4817 88.1564 56.8108C87.7621 58.1579 88.8912 58.3375 88.8912 58.3375C88.8912 58.3375 90.0202 57.5292 90.2891 57.3496C90.5758 57.17 91.1134 56.9545 91.0955 57.7986C91.0597 58.6428 90.7909 59.7564 92.4396 60.5467C94.0705 61.337 95.8447 62.4326 96.3107 62.2171C96.7946 62.0015 97.9236 61.5345 97.834 62.4685C97.7265 63.4025 97.0634 67.1743 96.5257 68.1801C95.9881 69.1859 94.9666 67.1743 94.2318 66.869C93.497 66.5636 89.0166 65.019 86.6868 63.6539C85.2173 62.6661 84.0165 65.3423 82.9412 63.7797C81.8839 62.235 80.5039 60.0258 80.5039 60.0258L87.0632 53.9909Z" fill="url(#paint1_linear_323_186)"/>
<path d="M75.6296 58.6787L73.9271 60.2593C73.6224 60.5287 73.2102 60.5108 72.9772 60.2413L72.2962 59.3792C72.0812 59.1098 72.1349 58.6608 72.4396 58.3913L74.1601 56.8287L75.6296 58.6787Z" fill="#F3F3F3"/>
<path d="M88.6586 52.6259L81.7051 43.9327C91.8845 35.491 94.6802 20.1343 95.0745 17.979C95.2179 17.1708 95.5763 16.6679 95.8631 16.3984C96.1677 16.129 96.6875 15.8057 97.4402 15.8057C100.361 15.8596 105.684 21.212 109.358 25.81C113.032 30.4081 117.154 36.8561 116.724 39.9633C116.616 40.7716 116.24 41.2745 115.935 41.5439C115.63 41.8133 115.111 42.1546 114.34 42.1366C111.58 42.0288 99.8596 42.0827 88.6586 52.6259Z" fill="white"/>
<path d="M108.371 26.7081C113.497 33.1202 116.561 39.3526 115.217 40.592C113.855 41.8313 108.586 37.6284 103.46 31.1983C98.317 24.7683 95.2524 18.5538 96.6145 17.3144C97.9765 16.0751 103.245 20.278 108.371 26.7081Z" fill="#CDCDCD"/>
<path d="M101.238 27.4445C102.027 28.594 102.887 29.7615 103.801 30.893C104.715 32.0605 105.683 33.1561 106.633 34.1978C108.174 32.761 108.532 30.2823 107.421 28.3246C106.812 27.2828 105.916 26.5644 104.841 26.295C103.801 26.0256 102.726 26.2231 101.83 26.8697C101.615 27.0134 101.417 27.229 101.238 27.4445Z" fill="white"/>
<path d="M89.1057 52.6798L80.5213 60.5108C79.0338 61.8578 76.937 61.8399 75.8438 60.4389L72.4208 56.1642C71.3096 54.7812 71.6143 52.554 73.1018 51.2069L81.7041 43.358L89.1057 52.6798Z" fill="url(#paint2_linear_323_186)"/>
<path opacity="0.15" d="M116.759 39.9274C117.19 36.8202 113.05 30.3721 109.394 25.7741C109.358 25.7202 109.322 25.6843 109.268 25.6304L72.6367 59.7923L72.9772 60.2414C73.2102 60.5108 73.6224 60.5287 73.9271 60.2593L74.9307 59.3253L75.8268 60.4569C76.9379 61.8579 79.0347 61.8758 80.5043 60.5287L89.0887 52.6977L88.8736 52.4103C100.003 42.1007 111.58 42.0289 114.358 42.1187C115.129 42.1366 115.648 41.7954 115.953 41.526C116.276 41.2386 116.652 40.7536 116.759 39.9274Z" fill="black"/>
<path d="M11.0764 48.9079H7.85057L6.82905 50.9196H5.25195L9.89362 42.2983H11.2019L12.8686 50.9196H11.417L11.0764 48.9079ZM8.47782 47.7046H10.8972L10.3058 44.1303L8.47782 47.7046Z" fill="white"/>
<path d="M20.2169 43.5017H17.6183L16.3279 50.9196H14.8763L16.1666 43.5017H13.5859L13.801 42.2983H20.432L20.2169 43.5017Z" fill="white"/>
<path d="M28.2638 43.5017H25.6652L24.3748 50.9196H22.9232L24.2135 43.5017H21.6328L21.8479 42.2983H28.4788L28.2638 43.5017Z" fill="white"/>
<path d="M33.8545 47.058H30.4315L29.9655 49.7162H33.9799L33.7649 50.9196H28.2988L29.7863 42.2983H35.2165L35.0015 43.5017H31.0408L30.6286 45.8905H34.0516L33.8545 47.058Z" fill="white"/>
<path d="M41.6329 50.9196H40.2171L37.5289 44.741L36.4536 50.9196H35.002L36.4894 42.2983H37.9052L40.5935 48.4948L41.6688 42.2983H43.1204L41.6329 50.9196Z" fill="white"/>
<path d="M50.7188 43.5017H48.1202L46.8299 50.9196H45.3782L46.6686 43.5017H44.0879L44.3029 42.2983H50.9339L50.7188 43.5017Z" fill="white"/>
<path d="M52.1177 50.9196H50.666L52.1535 42.2983H53.6051L52.1177 50.9196Z" fill="white"/>
<path d="M61.3453 46.8245C61.2737 47.3633 61.1303 47.9021 60.9152 48.405C60.7002 48.9079 60.4313 49.3749 60.0908 49.7521C59.7503 50.1473 59.3381 50.4705 58.8722 50.6861C58.4062 50.9196 57.8686 51.0273 57.2592 51.0273C56.865 51.0273 56.5245 50.9555 56.2198 50.8477C55.9151 50.722 55.6642 50.5783 55.4312 50.3807C55.1983 50.1832 55.019 49.9497 54.8757 49.6803C54.7323 49.4108 54.6069 49.1235 54.5352 48.8181C54.4456 48.5128 54.4097 48.1895 54.3918 47.8482C54.3739 47.507 54.3918 47.1837 54.4276 46.8424L54.4814 46.3934C54.5352 46.0342 54.6069 45.6749 54.7144 45.3337C54.8219 44.9745 54.9653 44.6512 55.1445 44.3279C55.3237 44.0046 55.5209 43.7172 55.7359 43.4478C55.9689 43.1784 56.2198 42.9449 56.5065 42.7653C56.7933 42.5677 57.1159 42.424 57.4564 42.3162C57.7969 42.2085 58.1732 42.1725 58.5675 42.1725C58.9618 42.1725 59.3023 42.2444 59.607 42.3701C59.9116 42.4958 60.1804 42.6575 60.3955 42.8551C60.6106 43.0526 60.8077 43.2861 60.9511 43.5555C61.0944 43.825 61.2199 44.1123 61.2916 44.4177C61.3633 44.723 61.417 45.0463 61.4349 45.3876C61.4529 45.7288 61.4349 46.0701 61.3991 46.3934L61.3453 46.8245ZM59.9475 46.3754C59.9654 46.1779 59.9833 45.9623 60.0012 45.7468C60.0191 45.5313 60.0012 45.2978 59.9833 45.0822C59.9654 44.8667 59.9295 44.6512 59.8579 44.4536C59.8041 44.256 59.7145 44.0764 59.589 43.9327C59.4815 43.7711 59.3202 43.6454 59.141 43.5555C58.9618 43.4657 58.7467 43.4119 58.4779 43.3939C58.2091 43.3939 57.9582 43.4298 57.7431 43.5017C57.5281 43.5735 57.313 43.6992 57.1338 43.825C56.9546 43.9687 56.7933 44.1303 56.6678 44.3279C56.5245 44.5254 56.4169 44.741 56.3094 44.9565C56.2019 45.172 56.1302 45.4055 56.0585 45.657C55.9868 45.8905 55.951 46.124 55.9151 46.3575L55.8614 46.8065C55.8434 47.0041 55.8255 47.2016 55.8076 47.4351C55.7897 47.6507 55.8076 47.8842 55.8255 48.0997C55.8434 48.3152 55.8972 48.5308 55.951 48.7283C56.0047 48.9259 56.0943 49.1055 56.2198 49.2672C56.3452 49.4288 56.4886 49.5545 56.6678 49.6443C56.847 49.7341 57.0621 49.788 57.313 49.806C57.5818 49.806 57.8327 49.7701 58.0657 49.6982C58.2808 49.6264 58.4958 49.5007 58.675 49.3749C58.8543 49.2312 59.0155 49.0696 59.141 48.872C59.2844 48.6744 59.3919 48.4589 59.4815 48.2434C59.5711 48.0278 59.6607 47.7944 59.7145 47.5429C59.7862 47.3094 59.822 47.0759 59.8579 46.8424L59.9475 46.3754Z" fill="white"/>
<path d="M68.7657 50.9196H67.3499L64.6617 44.741L63.5864 50.9196H62.1348L63.6223 42.2983H65.0381L67.7263 48.4948L68.8016 42.2983H70.2532L68.7657 50.9196Z" fill="white"/>
<path d="M127.243 43.8609L126.867 45.5672C126.401 47.6686 125.129 48.8002 123.014 48.8002H122.01L120.935 53.7215H118.82L121.688 40.6099H124.788C126.903 40.6099 127.691 41.7594 127.243 43.8609ZM123.39 42.4779L122.423 46.9143H123.426C124.107 46.9143 124.519 46.6089 124.734 45.6749L125.165 43.6992C125.362 42.7652 125.075 42.4599 124.394 42.4599H123.39V42.4779Z" fill="black"/>
<path d="M129.413 40.6099H131.527L129.072 51.8356H132.549L132.137 53.7035H126.527L129.413 40.6099Z" fill="black"/>
<path d="M137.297 46.1419H140.2L139.788 48.0099H136.885L136.043 51.8535H139.681L139.268 53.7215H133.516L136.383 40.6099H142.136L141.724 42.4779H138.086L137.297 46.1419Z" fill="black"/>
<path d="M147.89 53.7215H145.757L145.918 51.3506H143.32L142.441 53.7215H140.506L145.524 40.6099H148.606L147.89 53.7215ZM143.983 49.5725H146.008L146.438 42.9449L143.983 49.5725Z" fill="black"/>
<path d="M155.094 40.4662C157.155 40.4662 157.944 41.6696 157.478 43.7531L157.388 44.1662H155.399L155.524 43.6274C155.722 42.6934 155.417 42.3342 154.754 42.3342C154.091 42.3342 153.625 42.6934 153.41 43.6274C152.818 46.3215 156.833 46.8245 156.008 50.5783C155.542 52.6798 154.216 53.8652 152.137 53.8652C150.058 53.8652 149.252 52.6618 149.718 50.5783L149.897 49.7701H151.886L151.671 50.704C151.474 51.638 151.815 51.9793 152.496 51.9793C153.159 51.9793 153.661 51.638 153.876 50.704C154.467 48.0099 150.453 47.507 151.277 43.7531C151.725 41.6696 153.033 40.4662 155.094 40.4662Z" fill="black"/>
<path d="M160.774 46.1419H163.677L163.265 48.0099H160.361L159.519 51.8535H163.157L162.745 53.7215H156.992L159.86 40.6099H165.612L165.2 42.4779H161.562L160.774 46.1419Z" fill="black"/>
<path d="M167.065 51.7278L166.635 53.7035H164.609L165.039 51.7278H167.065ZM165.452 50.8118L166.222 46.0701L167.423 40.6099H169.538L168.337 46.0701L167.029 50.8118H165.452Z" fill="black"/>
</g>
<defs>
<linearGradient id="paint0_linear_323_186" x1="93.9374" y1="46.7706" x2="2.41999e-07" y2="46.7706" gradientUnits="userSpaceOnUse">
<stop stop-color="#2682EE"/>
<stop offset="1" stop-color="#1CD691"/>
</linearGradient>
<linearGradient id="paint1_linear_323_186" x1="97.839" y1="61.2251" x2="80.5039" y2="61.2251" gradientUnits="userSpaceOnUse">
<stop stop-color="#2682EE"/>
<stop offset="1" stop-color="#1CD691"/>
</linearGradient>
<linearGradient id="paint2_linear_323_186" x1="89.1057" y1="52.4318" x2="71.752" y2="52.4318" gradientUnits="userSpaceOnUse">
<stop stop-color="#2682EE"/>
<stop offset="1" stop-color="#1CD691"/>
</linearGradient>
<clipPath id="clip0_323_186">
<rect width="179" height="71" fill="white"/>
</clipPath>
</defs>
</svg>
