<svg width="18" height="18" viewBox="0 0 18 18" fill="none" xmlns="http://www.w3.org/2000/svg">
<path d="M16.7096 0.930481H10.5394C10.1165 0.930481 9.76953 1.27749 9.76953 1.7004V7.87059C9.76953 8.29712 10.1165 8.64051 10.5394 8.64051H16.7096C17.1362 8.64051 17.4796 8.2935 17.4796 7.87059V1.7004C17.4796 1.27749 17.1362 0.930481 16.7096 0.930481Z" fill="url(#paint0_linear_419_128)"/>
<path d="M13.6264 10.1839C11.4973 10.1839 9.76953 11.9117 9.76953 14.0407C9.76953 16.1697 11.4973 17.8975 13.6264 17.8975C15.7554 17.8939 17.4796 16.1697 17.4832 14.0407C17.4796 11.9117 15.7554 10.1839 13.6264 10.1839Z" fill="url(#paint1_linear_419_128)"/>
<path d="M7.45671 10.184H1.28652C0.863607 10.184 0.516602 10.531 0.516602 10.9539V17.1241C0.516602 17.5506 0.863607 17.894 1.28652 17.894H7.45671C7.88324 17.894 8.22663 17.547 8.22663 17.1241V10.9539C8.22663 10.531 7.88324 10.184 7.45671 10.184Z" fill="url(#paint2_linear_419_128)"/>
<path d="M7.45671 0.930481H1.28652C0.863607 0.930481 0.516602 1.27749 0.516602 1.7004V7.87059C0.516602 8.29712 0.863607 8.64051 1.28652 8.64051H7.45671C7.88324 8.64051 8.22663 8.2935 8.22663 7.87059V1.7004C8.22663 1.27749 7.88324 0.930481 7.45671 0.930481Z" fill="url(#paint3_linear_419_128)"/>
<defs>
<linearGradient id="paint0_linear_419_128" x1="17.4796" y1="4.7855" x2="9.76953" y2="4.7855" gradientUnits="userSpaceOnUse">
<stop stop-color="#2682EE"/>
<stop offset="1" stop-color="#1CD691"/>
</linearGradient>
<linearGradient id="paint1_linear_419_128" x1="17.4832" y1="14.0407" x2="9.76953" y2="14.0407" gradientUnits="userSpaceOnUse">
<stop stop-color="#2682EE"/>
<stop offset="1" stop-color="#1CD691"/>
</linearGradient>
<linearGradient id="paint2_linear_419_128" x1="8.22663" y1="14.039" x2="0.516602" y2="14.039" gradientUnits="userSpaceOnUse">
<stop stop-color="#2682EE"/>
<stop offset="1" stop-color="#1CD691"/>
</linearGradient>
<linearGradient id="paint3_linear_419_128" x1="8.22663" y1="4.7855" x2="0.516602" y2="4.7855" gradientUnits="userSpaceOnUse">
<stop stop-color="#2682EE"/>
<stop offset="1" stop-color="#1CD691"/>
</linearGradient>
</defs>
</svg>
