<svg width="20" height="21" viewBox="0 0 20 21" fill="none" xmlns="http://www.w3.org/2000/svg">
<path d="M17.4998 4.89514H2.49984C2.27882 4.89514 2.06686 4.98294 1.91058 5.13922C1.7543 5.2955 1.6665 5.50746 1.6665 5.72848C1.6665 5.94949 1.7543 6.16145 1.91058 6.31773C2.06686 6.47401 2.27882 6.56181 2.49984 6.56181H4.1665V16.5618C4.1667 17.2248 4.43016 17.8606 4.89896 18.3294C5.36775 18.7982 6.00352 19.0616 6.6665 19.0618H13.3332C13.9962 19.0616 14.6319 18.7982 15.1007 18.3294C15.5695 17.8606 15.833 17.2248 15.8332 16.5618V6.56181H17.4998C17.7209 6.56181 17.9328 6.47401 18.0891 6.31773C18.2454 6.16145 18.3332 5.94949 18.3332 5.72848C18.3332 5.50746 18.2454 5.2955 18.0891 5.13922C17.9328 4.98294 17.7209 4.89514 17.4998 4.89514ZM9.1665 14.0618C9.1665 14.2828 9.07871 14.4948 8.92243 14.6511C8.76615 14.8073 8.55418 14.8951 8.33317 14.8951C8.11216 14.8951 7.9002 14.8073 7.74392 14.6511C7.58764 14.4948 7.49984 14.2828 7.49984 14.0618V9.89514C7.49984 9.67413 7.58764 9.46217 7.74392 9.30589C7.9002 9.14961 8.11216 9.06181 8.33317 9.06181C8.55418 9.06181 8.76615 9.14961 8.92243 9.30589C9.07871 9.46217 9.1665 9.67413 9.1665 9.89514V14.0618ZM12.4998 14.0618C12.4998 14.2828 12.412 14.4948 12.2558 14.6511C12.0995 14.8073 11.8875 14.8951 11.6665 14.8951C11.4455 14.8951 11.2335 14.8073 11.0772 14.6511C10.921 14.4948 10.8332 14.2828 10.8332 14.0618V9.89514C10.8332 9.67413 10.921 9.46217 11.0772 9.30589C11.2335 9.14961 11.4455 9.06181 11.6665 9.06181C11.8875 9.06181 12.0995 9.14961 12.2558 9.30589C12.412 9.46217 12.4998 9.67413 12.4998 9.89514V14.0618Z" fill="url(#paint0_linear_419_40)"/>
<path d="M8.33333 4.06181H11.6667C11.8877 4.06181 12.0996 3.97401 12.2559 3.81773C12.4122 3.66145 12.5 3.44949 12.5 3.22847C12.5 3.00746 12.4122 2.7955 12.2559 2.63922C12.0996 2.48294 11.8877 2.39514 11.6667 2.39514H8.33333C8.11232 2.39514 7.90036 2.48294 7.74408 2.63922C7.5878 2.7955 7.5 3.00746 7.5 3.22847C7.5 3.44949 7.5878 3.66145 7.74408 3.81773C7.90036 3.97401 8.11232 4.06181 8.33333 4.06181Z" fill="url(#paint1_linear_419_40)"/>
<defs>
<linearGradient id="paint0_linear_419_40" x1="18.3332" y1="11.9785" x2="1.6665" y2="11.9785" gradientUnits="userSpaceOnUse">
<stop stop-color="#2682EE"/>
<stop offset="1" stop-color="#1CD691"/>
</linearGradient>
<linearGradient id="paint1_linear_419_40" x1="12.5" y1="3.22848" x2="7.5" y2="3.22848" gradientUnits="userSpaceOnUse">
<stop stop-color="#2682EE"/>
<stop offset="1" stop-color="#1CD691"/>
</linearGradient>
</defs>
</svg>
