<svg width="16" height="13" viewBox="0 0 16 13" fill="none" xmlns="http://www.w3.org/2000/svg">
<path d="M15.9079 6.4665L14.2206 4.77922C14.1954 4.75403 14.1666 4.73404 14.1357 4.7191C14.1358 4.71904 14.1358 4.719 14.1359 4.71894L11.486 3.43544C11.559 3.2371 11.5956 3.04785 11.5956 2.86813C11.5956 1.62023 10.6023 0.60498 9.38136 0.60498C8.87867 0.60498 8.38974 0.782512 7.9998 1.09992C7.60986 0.782512 7.12093 0.60498 6.61824 0.60498C5.39727 0.60498 4.40396 1.62023 4.40396 2.86813C4.40396 3.04785 4.44059 3.23707 4.51356 3.43538L1.86356 4.71897C1.86359 4.71904 1.86359 4.71907 1.86362 4.71913C1.83278 4.73407 1.804 4.75407 1.77881 4.77925L0.0915341 6.4665C0.020628 6.53744 -0.0119657 6.63803 0.00397181 6.73703C0.019878 6.83603 0.0823154 6.92137 0.171846 6.96653L1.68728 7.73031V9.78131C1.68728 9.90109 1.75575 10.0103 1.86356 10.0626L3.78181 10.9917C3.82568 11.0129 3.87212 11.023 3.91784 11.023C4.03387 11.023 4.14531 10.9581 4.19931 10.8466C4.27453 10.6913 4.20962 10.5044 4.05428 10.4292L2.31231 9.58543V8.04525L6.09343 9.95096C6.13812 9.97349 6.18624 9.9844 6.23399 9.9844C6.31505 9.9844 6.39502 9.95287 6.45505 9.89287L7.68736 8.66056V12.189L6.08896 11.4148C5.93371 11.3397 5.74677 11.4045 5.67149 11.5598C5.59627 11.7151 5.66118 11.902 5.81652 11.9773L7.86346 12.9688C7.90593 12.9893 7.95268 13 7.99986 13C8.04705 13 8.09361 12.9893 8.13608 12.9688L14.1359 10.0626C14.2437 10.0104 14.3122 9.90112 14.3122 9.78134V7.73031L15.8276 6.96653C15.9172 6.92141 15.9796 6.83603 15.9955 6.73703C16.0114 6.63803 15.9788 6.53744 15.9079 6.4665ZM6.61824 1.22998C7.05786 1.22998 7.46693 1.41098 7.77011 1.7396C7.82927 1.80373 7.91255 1.8402 7.9998 1.8402C8.08705 1.8402 8.17033 1.80373 8.22949 1.7396C8.53267 1.41095 8.94174 1.22998 9.38136 1.22998C10.2577 1.22998 10.9707 1.96485 10.9707 2.86816C10.9707 3.3831 10.428 4.13544 9.44264 4.98663C8.86408 5.48641 8.27833 5.89481 7.99977 6.08172C7.72233 5.89566 7.14011 5.48978 6.56224 4.99122C5.57346 4.13807 5.02893 3.38407 5.02893 2.86816C5.02893 1.96482 5.7419 1.22998 6.61824 1.22998ZM6.17287 9.29121L0.839001 6.60291L2.06359 5.37831L7.46799 7.99609L6.17287 9.29121ZM8.3123 12.1889V8.66081L9.54442 9.89293C9.60445 9.95293 9.68442 9.98446 9.76548 9.98446C9.81323 9.98446 9.86139 9.97353 9.90605 9.95103L13.6872 8.04531V9.58546L8.3123 12.1889ZM9.82655 9.29121L8.53146 7.99612L10.1642 7.20528C10.3195 7.13003 10.3844 6.94312 10.3092 6.78781C10.234 6.6325 10.047 6.56769 9.89173 6.64278L7.99974 7.55919L2.71665 5.00019L4.79828 3.99191C5.08993 4.44479 5.54246 4.93672 6.15402 5.46438C6.98277 6.1795 7.79839 6.69797 7.83271 6.71969C7.88374 6.752 7.9418 6.76816 7.99986 6.76816C8.05793 6.76816 8.11599 6.752 8.16702 6.71969C8.20133 6.69797 9.01689 6.1795 9.8457 5.46438C10.4572 4.93675 10.9098 4.44482 11.2014 3.99197L13.2829 5.00019L12.0871 5.57941C11.9317 5.65466 11.8668 5.84156 11.942 5.99688C12.0173 6.15225 12.2043 6.21709 12.3595 6.14191L13.9359 5.37835L15.1605 6.60294L9.82655 9.29121Z" fill="white"/>
</svg>
