<svg width="20" height="21" viewBox="0 0 20 21" fill="none" xmlns="http://www.w3.org/2000/svg">
<g clip-path="url(#clip0_419_94)">
<path d="M8.01962 16.8727L7.19044 17.3702C6.75794 17.6302 6.26377 17.7669 5.76295 17.7669C4.83295 17.7669 3.97046 17.3044 3.45378 16.5303C3.32378 16.3353 3.22378 16.1278 3.14711 15.9136C2.66543 16.4394 2.38379 17.1344 2.38379 17.8802C2.38379 19.4886 3.6921 20.7969 5.30045 20.7969C6.9088 20.7969 8.21711 19.4886 8.21711 17.8802C8.21711 17.5327 8.14129 17.1944 8.01962 16.8727Z" fill="url(#paint0_linear_419_94)"/>
<path d="M17.9646 3.33032L12.1313 0.83033C11.9596 0.75701 11.7596 0.80701 11.6421 0.95283L9.97546 3.03614C9.89715 3.13446 9.86715 3.26282 9.89379 3.38614C9.92047 3.50946 10.0013 3.61281 10.1146 3.66945L16.4087 6.81612C16.5854 6.90444 16.7737 6.94944 16.9671 6.94944C17.2879 6.94944 17.6046 6.82112 17.8371 6.59694C18.0821 6.36026 18.2179 6.04112 18.2179 5.69862V3.71363C18.2171 3.54613 18.1179 3.39614 17.9646 3.33032Z" fill="url(#paint1_linear_419_94)"/>
<path d="M4.88379 17.6061V18.7136C4.88379 18.9436 5.07047 19.1303 5.30047 19.1303C5.53046 19.1303 5.71714 18.9436 5.71714 18.7136V17.7619C5.42797 17.7569 5.15129 17.6961 4.88379 17.6061Z" fill="url(#paint2_linear_419_94)"/>
<path d="M16.0354 7.56198L9.02798 4.05786L4.86632 5.61867C4.42714 5.78285 4.05215 6.09535 3.81051 6.49785L2.08052 9.38115C1.7122 9.99533 1.68302 10.7445 2.00384 11.3845L3.23133 13.8394C3.45551 13.3253 3.81715 12.9078 4.28714 12.6386C4.90714 12.2828 5.37882 11.9986 5.74132 11.7686C5.72299 11.7578 5.70964 11.7386 5.69049 11.7295C5.6155 11.2745 5.39382 10.8728 5.18382 10.5786C5.82131 10.3045 6.67381 9.81033 7.10631 9.30615C7.43881 9.50115 7.96212 9.75197 8.6163 9.88033C8.12962 10.4828 7.6338 11.2286 7.45381 11.7253C7.30131 11.7945 7.07381 11.9128 6.72299 12.1161C6.28299 12.4245 5.64632 12.8186 4.70132 13.3619C4.27464 13.6069 3.97633 14.0428 3.86051 14.5886C3.83551 14.7061 3.82551 14.8236 3.82219 14.9411C3.82137 14.9786 3.82469 15.0153 3.82551 15.0528C3.82801 15.1345 3.83469 15.2153 3.84801 15.2961C3.85469 15.3361 3.86219 15.3753 3.87051 15.4153C3.88883 15.4953 3.91301 15.5745 3.94133 15.652C3.95383 15.6862 3.96465 15.7203 3.97883 15.7545C4.0255 15.8628 4.07965 15.9695 4.14714 16.0695C4.22632 16.1887 4.32214 16.2903 4.42046 16.3861C4.48046 16.442 4.54464 16.4928 4.61046 16.5403C4.64296 16.5645 4.67628 16.587 4.70964 16.6095C5.08382 16.8445 5.53382 16.9487 5.97463 16.907C6.02881 16.9012 6.08381 16.8962 6.13795 16.8853C6.20963 16.872 6.28045 16.8553 6.35045 16.8336C6.49045 16.7886 6.62963 16.737 6.76127 16.6578L9.62457 14.9403C10.0729 14.8312 12.3004 14.1645 13.9879 11.4345C14.9737 9.84037 15.637 8.47873 16.0387 7.56538C16.0379 7.56284 16.0371 7.56198 16.0354 7.56198Z" fill="url(#paint3_linear_419_94)"/>
</g>
<defs>
<linearGradient id="paint0_linear_419_94" x1="8.21711" y1="18.3552" x2="2.38379" y2="18.3552" gradientUnits="userSpaceOnUse">
<stop stop-color="#2682EE"/>
<stop offset="1" stop-color="#1CD691"/>
</linearGradient>
<linearGradient id="paint1_linear_419_94" x1="18.2179" y1="3.87316" x2="9.88428" y2="3.87316" gradientUnits="userSpaceOnUse">
<stop stop-color="#2682EE"/>
<stop offset="1" stop-color="#1CD691"/>
</linearGradient>
<linearGradient id="paint2_linear_419_94" x1="5.71714" y1="18.3682" x2="4.88379" y2="18.3682" gradientUnits="userSpaceOnUse">
<stop stop-color="#2682EE"/>
<stop offset="1" stop-color="#1CD691"/>
</linearGradient>
<linearGradient id="paint3_linear_419_94" x1="16.0387" y1="10.4869" x2="1.78223" y2="10.4869" gradientUnits="userSpaceOnUse">
<stop stop-color="#2682EE"/>
<stop offset="1" stop-color="#1CD691"/>
</linearGradient>
<clipPath id="clip0_419_94">
<rect width="20" height="20" fill="white" transform="translate(0 0.796875)"/>
</clipPath>
</defs>
</svg>
