<svg width="16" height="16" viewBox="0 0 16 16" fill="none" xmlns="http://www.w3.org/2000/svg">
<g clip-path="url(#clip0_695_1939)">
<path d="M15.6086 10.2575C15.3767 10.043 15.0782 9.92709 14.7741 9.90912C15.0158 9.26631 15.1386 8.58953 15.1386 7.88972C15.1386 6.65331 14.7534 5.47528 14.0246 4.48303C13.9216 4.34272 13.7243 4.31253 13.584 4.41559C13.4437 4.51865 13.4136 4.71587 13.5166 4.85615C14.1654 5.73947 14.5083 6.78847 14.5083 7.88972C14.5083 8.65722 14.343 9.3934 14.0176 10.0799C13.9304 10.1287 13.8481 10.1877 13.7728 10.2573L11.6412 12.2259C11.6095 12.2552 11.4652 12.3503 10.9328 12.3503C10.9295 12.3503 10.9261 12.3503 10.9227 12.3503C10.0859 12.348 8.81238 12.3457 7.85034 12.344L7.39659 12.3432C7.15241 12.3432 6.95375 12.1706 6.95375 11.9585C6.95375 11.7495 7.15656 11.5729 7.39659 11.5729H9.41647C10.0609 11.5729 10.5852 11.0779 10.5852 10.4694C10.5852 10.4127 10.5807 10.357 10.5719 10.3025C11.0741 10.0768 11.4114 9.57534 11.4114 9.0015C11.4114 8.21472 10.7755 7.57459 9.99381 7.57459H8.778C8.33897 7.57459 7.98184 7.21684 7.98184 6.77706C7.98184 6.33781 8.339 5.98044 8.778 5.98044H9.3785H9.37928H11.0963C11.2703 5.98044 11.4114 5.83934 11.4114 5.66528C11.4114 5.49125 11.2703 5.35015 11.0963 5.35015H9.69522L9.69709 4.59153C9.69753 4.41744 9.55678 4.27603 9.38272 4.27559C9.38247 4.27559 9.38219 4.27559 9.38194 4.27559C9.20825 4.27559 9.06725 4.41619 9.06678 4.58994L9.06491 5.35015H8.77803C7.99147 5.35015 7.35156 5.99025 7.35156 6.77706C7.35156 7.56437 7.9915 8.20487 8.77803 8.20487H9.99384C10.4206 8.20487 10.7812 8.56969 10.7812 9.0015C10.7812 9.32447 10.5787 9.61412 10.2892 9.73637C10.075 9.50925 9.76319 9.36581 9.4165 9.36581H4.47072C4.32741 8.88781 4.25475 8.3924 4.25475 7.88975C4.25475 7.48987 4.30047 7.09569 4.39053 6.71275C4.42828 6.73753 4.46631 6.7614 4.50466 6.78434C4.67812 6.88825 4.81241 6.94022 4.94688 6.94022C5.08125 6.94022 5.21575 6.88831 5.38972 6.7845C6.01262 6.41222 6.55903 5.79372 7.01381 4.94612C7.34513 4.32828 7.55069 3.68925 7.62031 3.07203C8.18341 2.86534 8.77506 2.76034 9.382 2.76034C10.1064 2.76034 10.806 2.90828 11.4614 3.2C11.5031 3.21853 11.5466 3.22731 11.5894 3.22731C11.7101 3.22731 11.8252 3.15759 11.8775 3.04022C11.9482 2.88122 11.8767 2.69494 11.7177 2.62415C10.9811 2.29631 10.1952 2.13009 9.38197 2.13009C8.78362 2.13009 8.19834 2.22109 7.63613 2.40044C7.59166 2.05797 7.41472 1.94419 7.14819 1.80075L5.09697 0.693811C5.00356 0.643404 4.89103 0.643404 4.79763 0.693811L2.74525 1.80128C2.43862 1.96631 2.25053 2.09181 2.24656 2.57181C2.24 3.34022 2.45903 4.16125 2.87994 4.94615C3.16847 5.4839 3.49428 5.92915 3.85328 6.27828C3.70147 6.7985 3.62441 7.33956 3.62441 7.88972C3.62441 8.41822 3.69591 8.93972 3.83725 9.44475C3.56709 9.51462 3.31128 9.62941 3.08241 9.7829C2.98131 9.29587 2.52669 8.92728 1.98256 8.92728H1.12097C0.502875 8.92728 0 9.40284 0 9.98744V14.1909C0 14.775 0.502875 15.2502 1.12097 15.2502H1.98256C2.60066 15.2502 3.10353 14.775 3.10353 14.1909V14.1842L5.10078 15.0799C5.10747 15.0829 5.11428 15.0857 5.12116 15.0882C5.74006 15.3154 6.53006 15.3309 8.72456 15.3422C10.386 15.344 10.603 15.344 10.9183 15.344C11.7118 15.344 12.1175 15.2721 12.5696 14.8272C13.5103 13.9577 14.4509 13.0889 15.3923 12.2195L15.6083 12.02C15.8609 11.787 16 11.4739 16 11.1386C16 10.8033 15.8609 10.4902 15.6086 10.2575ZM2.47325 14.1909C2.47325 14.4274 2.25316 14.6199 1.98259 14.6199H1.12097C0.850406 14.6199 0.630313 14.4274 0.630313 14.1909V9.98744C0.630313 9.7544 0.855 9.55756 1.12097 9.55756H1.98256C2.24853 9.55756 2.47322 9.75444 2.47322 9.98744L2.47325 14.1909ZM3.43541 4.64819C3.06434 3.95628 2.87119 3.24012 2.87687 2.57706C2.87753 2.49662 2.8835 2.46106 2.88675 2.4475C2.91197 2.42734 2.98178 2.38975 3.044 2.35625L4.94731 1.32919L6.84169 2.35147L6.84947 2.35565C6.91175 2.38919 6.98166 2.42681 7.007 2.44706C7.01025 2.46072 7.01619 2.49653 7.01684 2.57756C7.02331 3.23875 6.83016 3.95475 6.45831 4.64812C6.05828 5.39372 5.58994 5.93044 5.0665 6.24331C4.99672 6.28497 4.96294 6.30106 4.94703 6.30725C4.93122 6.30103 4.89766 6.28497 4.82853 6.24359C4.82844 6.24353 4.82838 6.24347 4.82828 6.24344C4.31116 5.93437 3.8295 5.38272 3.43541 4.64819ZM15.1808 11.5569L14.9647 11.7565C14.022 12.6272 13.0801 13.4971 12.1381 14.3678C12.1355 14.3702 12.133 14.3726 12.1305 14.3751C11.865 14.6375 11.6737 14.7137 10.9184 14.7137C10.6032 14.7137 10.3863 14.7137 8.72659 14.712C6.71803 14.7016 5.87484 14.6897 5.34831 14.5001L3.10359 13.4933V10.5937C3.4365 10.2178 3.93456 9.99606 4.45675 9.99606H9.41653C9.62303 9.99606 9.8025 10.0989 9.89281 10.2492C9.89453 10.2524 9.89616 10.2556 9.89797 10.2587C9.93412 10.3222 9.955 10.3936 9.955 10.4694C9.955 10.7303 9.71344 10.9426 9.41653 10.9426H7.39666C6.80491 10.9426 6.3235 11.3983 6.3235 11.9585C6.3235 12.5182 6.80494 12.9735 7.39609 12.9735L7.84928 12.9743C8.81109 12.976 10.0844 12.9783 10.9212 12.9805C10.9251 12.9806 10.9288 12.9806 10.9326 12.9806C11.4926 12.9805 11.854 12.8877 12.0691 12.6887L14.2007 10.7202C14.4663 10.4745 14.9151 10.4745 15.181 10.7205C15.3027 10.8328 15.3698 10.9813 15.3698 11.1386C15.3697 11.296 15.3027 11.4445 15.1808 11.5569Z" fill="white"/>
<path d="M12.8027 3.9704C12.8833 3.9704 12.964 3.93965 13.0255 3.87812C13.1486 3.75503 13.1486 3.5555 13.0255 3.4324L13.0246 3.43153C12.9016 3.30853 12.7025 3.3089 12.5794 3.432C12.4563 3.55506 12.4568 3.75503 12.5798 3.87815C12.6414 3.93965 12.722 3.9704 12.8027 3.9704Z" fill="white"/>
<path d="M4.80875 4.53998C4.89085 4.53998 4.97278 4.5081 5.03447 4.44482L6.14669 3.30382C6.26816 3.17917 6.26563 2.97964 6.14097 2.85817C6.01635 2.73667 5.81681 2.7392 5.69531 2.86385L4.79872 3.7837L4.48756 3.49245C4.3605 3.37351 4.1611 3.38004 4.0421 3.5072C3.92316 3.63426 3.92975 3.8337 4.05681 3.95264L4.59344 4.45495C4.65416 4.51176 4.73153 4.53998 4.80875 4.53998Z" fill="white"/>
</g>
<defs>
<clipPath id="clip0_695_1939">
<rect width="16" height="16" fill="white"/>
</clipPath>
</defs>
</svg>
