<svg width="20" height="20" viewBox="0 0 20 20" fill="none" xmlns="http://www.w3.org/2000/svg">
<path d="M19.4141 7.07037H18.8281V6.48444C18.8281 6.16057 18.5661 5.8985 18.2422 5.8985C17.9183 5.8985 17.6562 6.16057 17.6562 6.48444V7.07037H17.0703C16.7464 7.07037 16.4844 7.33244 16.4844 7.65631C16.4844 7.98018 16.7464 8.24225 17.0703 8.24225H17.6562V8.82819C17.6562 9.15205 17.9183 9.41412 18.2422 9.41412C18.5661 9.41412 18.8281 9.15205 18.8281 8.82819V8.24225H19.4141C19.7379 8.24225 20 7.98018 20 7.65631C20 7.33244 19.7379 7.07037 19.4141 7.07037Z" fill="url(#paint0_linear_419_166)"/>
<path d="M17.0312 4.72662C17.3549 4.72662 17.6172 4.46429 17.6172 4.14069C17.6172 3.81708 17.3549 3.55475 17.0312 3.55475C16.7076 3.55475 16.4453 3.81708 16.4453 4.14069C16.4453 4.46429 16.7076 4.72662 17.0312 4.72662Z" fill="url(#paint1_linear_419_166)"/>
<path d="M14.6875 8.24225C15.0111 8.24225 15.2734 7.97992 15.2734 7.65631C15.2734 7.33271 15.0111 7.07037 14.6875 7.07037C14.3639 7.07037 14.1016 7.33271 14.1016 7.65631C14.1016 7.97992 14.3639 8.24225 14.6875 8.24225Z" fill="url(#paint2_linear_419_166)"/>
<path d="M9.5857 14.2733C9.81457 14.0444 10.1854 14.0444 10.4143 14.2733L10.5859 14.4449V9.41412H9.41406V14.4449L9.5857 14.2733Z" fill="url(#paint3_linear_419_166)"/>
<path d="M15.8593 9.41412H11.7578V15.8594C11.7578 16.0963 11.6153 16.3103 11.3961 16.4007C11.3235 16.431 11.2473 16.4453 11.1718 16.4453C11.0196 16.4453 10.8697 16.3858 10.7576 16.2737L9.99996 15.516L9.24235 16.2737C9.07411 16.4419 8.82348 16.4917 8.60376 16.4007C8.38462 16.3103 8.24212 16.0963 8.24212 15.8594V9.41412H7.91361L3.55469 11.9308V19.4141C3.55469 19.7379 3.81676 20 4.14062 20H15.8593C16.1832 20 16.4452 19.7379 16.4452 19.4141V10.0001C16.4452 9.67619 16.1832 9.41412 15.8593 9.41412Z" fill="url(#paint4_linear_419_166)"/>
<path d="M14.4825 3.59144L13.3107 1.56177C13.2329 1.42731 13.1047 1.32888 12.9548 1.28884C12.8054 1.24935 12.6447 1.26997 12.5102 1.3472L10.7075 2.38797C10.709 1.97915 10.6121 1.53583 10.4022 1.17255C10.0892 0.630092 9.58394 0.242164 8.9791 0.0802123C8.37543 -0.0805681 7.74313 0.00181428 7.20071 0.314234C6.44943 0.748529 6.00025 1.55704 6.02997 2.4245L6.034 2.54809C6.034 2.55266 6.034 2.55668 6.03458 2.56125L6.09181 4.29195L4.64701 3.39168C4.64643 3.39109 4.6453 3.39054 4.64471 3.38996L4.53944 3.32414C3.80245 2.86582 2.8789 2.84863 2.12648 3.28293C1.58402 3.59593 1.1961 4.10117 1.03414 4.70601C0.872193 5.31085 0.9552 5.94252 1.26817 6.48498C1.48203 6.8547 1.78309 7.14216 2.12926 7.3408L0.293094 8.37841C0.0127834 8.54028 -0.0831926 8.8986 0.0786034 9.17891L1.28934 11.2087C1.45113 11.489 1.80945 11.585 2.08976 11.4232L14.2681 4.39187C14.5483 4.23011 14.6443 3.87175 14.4825 3.59144ZM3.88358 6.32787C3.32347 6.65002 2.60578 6.4585 2.2832 5.89909C1.95992 5.33948 2.15273 4.62077 2.71234 4.29808C3.08827 4.08007 3.5512 4.08921 3.91913 4.31866L5.57545 5.35104L3.88358 6.32787ZM9.50441 2.68672C9.42378 2.98855 9.22996 3.24125 8.9591 3.39746L7.26673 4.37456L7.20071 2.38442C7.18641 1.95012 7.4113 1.54614 7.78664 1.32927C8.05672 1.17192 8.37258 1.1313 8.67586 1.21196C8.97797 1.29321 9.23089 1.4872 9.3871 1.75841C9.5439 2.02969 9.58566 2.38403 9.50441 2.68672Z" fill="url(#paint5_linear_419_166)"/>
<defs>
<linearGradient id="paint0_linear_419_166" x1="20" y1="7.65631" x2="16.4844" y2="7.65631" gradientUnits="userSpaceOnUse">
<stop stop-color="#2682EE"/>
<stop offset="1" stop-color="#1CD691"/>
</linearGradient>
<linearGradient id="paint1_linear_419_166" x1="17.6172" y1="4.14069" x2="16.4453" y2="4.14069" gradientUnits="userSpaceOnUse">
<stop stop-color="#2682EE"/>
<stop offset="1" stop-color="#1CD691"/>
</linearGradient>
<linearGradient id="paint2_linear_419_166" x1="15.2734" y1="7.65631" x2="14.1016" y2="7.65631" gradientUnits="userSpaceOnUse">
<stop stop-color="#2682EE"/>
<stop offset="1" stop-color="#1CD691"/>
</linearGradient>
<linearGradient id="paint3_linear_419_166" x1="10.5859" y1="11.9295" x2="9.41406" y2="11.9295" gradientUnits="userSpaceOnUse">
<stop stop-color="#2682EE"/>
<stop offset="1" stop-color="#1CD691"/>
</linearGradient>
<linearGradient id="paint4_linear_419_166" x1="16.4452" y1="14.7071" x2="3.55469" y2="14.7071" gradientUnits="userSpaceOnUse">
<stop stop-color="#2682EE"/>
<stop offset="1" stop-color="#1CD691"/>
</linearGradient>
<linearGradient id="paint5_linear_419_166" x1="14.5611" y1="5.75091" x2="3.75119e-08" y2="5.75091" gradientUnits="userSpaceOnUse">
<stop stop-color="#2682EE"/>
<stop offset="1" stop-color="#1CD691"/>
</linearGradient>
</defs>
</svg>
