<svg width="52" height="52" viewBox="0 0 52 52" fill="none" xmlns="http://www.w3.org/2000/svg">
<circle cx="26" cy="26" r="26" fill="white"/>
<path d="M35.7554 14.1848C34.0031 12.4267 31.8796 11.1728 29.5648 10.4997C28.7325 10.2568 27.8748 10.0902 27.001 10V12.5886V15.7347C26.5122 15.6514 26.0118 15.6075 25.5 15.6075C24.9882 15.6075 24.4878 15.6514 23.999 15.7347V12.5886V10C23.1252 10.0902 22.2698 10.2568 21.4375 10.4997C19.1204 11.1752 16.9992 12.4267 15.2469 14.1848C12.5079 16.933 11 20.5857 11 24.4721C11 28.3584 12.5079 32.0111 15.2469 34.7593C16.9992 36.5175 19.1227 37.7713 21.4375 38.4444V42H23.999V38.9441V36.3555V33.2094C24.4878 33.2927 24.9882 33.3367 25.5 33.3367C26.0118 33.3367 26.5122 33.2927 27.001 33.2094V36.3555V38.9441V42H29.5625V38.4444C31.8796 37.769 34.0008 36.5175 35.7531 34.7593C38.4921 32.0111 40 28.3584 40 24.4721C40.0023 20.5857 38.4944 16.933 35.7554 14.1848ZM21.4398 35.7379C16.8493 34.0677 13.5615 29.6469 13.5615 24.4721C13.5615 19.2972 16.8493 14.8765 21.4398 13.2062V16.5976C18.6039 18.0758 16.6649 21.0507 16.6649 24.4721C16.6649 27.8934 18.6062 30.8684 21.4398 32.3466V35.7379ZM25.5 30.7712C24.9835 30.7712 24.4809 30.7087 23.999 30.5884C23.0399 30.3525 22.1661 29.8945 21.4375 29.2699C20.0818 28.1155 19.2218 26.3921 19.2218 24.4744C19.2218 22.5566 20.0818 20.8332 21.4375 19.6789C22.1661 19.0543 23.0399 18.5963 23.999 18.3603C24.4809 18.24 24.9835 18.1775 25.5 18.1775C26.0165 18.1775 26.5191 18.24 27.001 18.3603C27.9601 18.5963 28.8339 19.0543 29.5625 19.6789C30.9182 20.8332 31.7782 22.5566 31.7782 24.4744C31.7782 26.3921 30.9182 28.1132 29.5625 29.2699C28.8339 29.8945 27.9601 30.3525 27.001 30.5884C26.5214 30.7087 26.0188 30.7712 25.5 30.7712ZM29.5625 35.7379V32.3466C32.3984 30.8684 34.3374 27.8934 34.3374 24.4721C34.3374 21.0507 32.3961 18.0758 29.5625 16.5976V13.2062C34.153 14.8765 37.4408 19.2972 37.4408 24.4721C37.4408 29.6492 34.153 34.0677 29.5625 35.7379Z" fill="url(#paint0_linear_695_1048)"/>
<defs>
<linearGradient id="paint0_linear_695_1048" x1="11" y1="26.0015" x2="40.0023" y2="26.0015" gradientUnits="userSpaceOnUse">
<stop stop-color="#277BF5"/>
<stop offset="1" stop-color="#1CD691"/>
</linearGradient>
</defs>
</svg>
