<svg width="20" height="20" viewBox="0 0 20 20" fill="none" xmlns="http://www.w3.org/2000/svg">
<path d="M4.84236 4.05172C6.0867 2.97136 7.67205 2.27422 9.41307 2.14539V0.00238037C7.14408 0.132615 5.01771 1.01656 3.32471 2.53402L4.84236 4.05172Z" fill="url(#paint0_linear_419_144)"/>
<path d="M2.14293 9.45229C2.26281 7.71553 2.94809 6.13198 4.01574 4.88475L2.4973 3.36627C0.99375 5.06229 0.121289 7.18705 0 9.45229H2.14293Z" fill="url(#paint1_linear_419_144)"/>
<path d="M10.5869 0.00238037V2.14539C12.3279 2.27422 13.9133 2.9714 15.1576 4.05172L16.6753 2.53402C14.9823 1.01656 12.8559 0.132615 10.5869 0.00238037Z" fill="url(#paint2_linear_419_144)"/>
<path d="M10.0002 3.29718C6.30424 3.29718 3.29736 6.30406 3.29736 9.99999C3.29736 13.6959 6.30424 16.7028 10.0002 16.7028C13.6961 16.7028 16.703 13.6959 16.703 9.99999C16.703 6.30406 13.6961 3.29718 10.0002 3.29718ZM5.97068 12.2761H4.79705V7.72386H5.97068V12.2761ZM9.03498 12.499C7.66229 12.499 6.54553 11.3822 6.54553 10.0096C6.54553 8.63691 7.66229 7.52011 9.03498 7.52011C9.54033 7.52011 10.0273 7.67109 10.4431 7.95675L9.77857 8.92413C9.55916 8.77343 9.30205 8.69374 9.03498 8.69374C8.30943 8.69374 7.71916 9.28402 7.71916 10.0096C7.71916 10.7351 8.30943 11.3254 9.03498 11.3254C9.30201 11.3254 9.55916 11.2457 9.77854 11.095L10.4431 12.0624C10.0272 12.348 9.54033 12.499 9.03498 12.499ZM13.0399 12.499C11.6672 12.499 10.5505 11.3822 10.5505 10.0096C10.5505 8.63691 11.6672 7.52011 13.0399 7.52011C14.4126 7.52011 15.5294 8.63687 15.5294 10.0096C15.5294 11.3823 14.4126 12.499 13.0399 12.499Z" fill="url(#paint3_linear_419_144)"/>
<path d="M17.8516 10.6259C17.7152 12.3515 17.0205 13.9225 15.9482 15.1575L17.4659 16.6752C18.9747 14.9919 19.8571 12.8802 19.9952 10.6259H17.8516Z" fill="url(#paint4_linear_419_144)"/>
<path d="M15.9844 4.88475C17.0521 6.13201 17.7373 7.71553 17.8572 9.45229H20.0001C19.8788 7.18705 19.0064 5.06229 17.5028 3.36627L15.9844 4.88475Z" fill="url(#paint5_linear_419_144)"/>
<path d="M4.05184 15.1575C2.97961 13.9225 2.28484 12.3515 2.14852 10.6259H0.00488281C0.143008 12.8802 1.02539 14.9919 2.53414 16.6752L4.05184 15.1575Z" fill="url(#paint6_linear_419_144)"/>
<path d="M13.0399 11.3254C13.7666 11.3254 14.3558 10.7363 14.3558 10.0095C14.3558 9.28284 13.7666 8.69373 13.0399 8.69373C12.3132 8.69373 11.7241 9.28284 11.7241 10.0095C11.7241 10.7363 12.3132 11.3254 13.0399 11.3254Z" fill="url(#paint7_linear_419_144)"/>
<path d="M9.41305 17.8546C7.69156 17.7272 6.1225 17.0439 4.88461 15.9843L3.36621 17.5027C5.05242 18.9976 7.16254 19.8684 9.41309 19.9976L9.41305 17.8546Z" fill="url(#paint8_linear_419_144)"/>
<path d="M15.1154 15.9843C13.8775 17.0439 12.3084 17.7272 10.5869 17.8546V19.9976C12.8375 19.8684 14.9475 18.9976 16.6338 17.5027L15.1154 15.9843Z" fill="url(#paint9_linear_419_144)"/>
<defs>
<linearGradient id="paint0_linear_419_144" x1="9.41307" y1="2.02705" x2="3.32471" y2="2.02705" gradientUnits="userSpaceOnUse">
<stop stop-color="#2682EE"/>
<stop offset="1" stop-color="#1CD691"/>
</linearGradient>
<linearGradient id="paint1_linear_419_144" x1="4.01574" y1="6.40928" x2="1.03453e-08" y2="6.40928" gradientUnits="userSpaceOnUse">
<stop stop-color="#2682EE"/>
<stop offset="1" stop-color="#1CD691"/>
</linearGradient>
<linearGradient id="paint2_linear_419_144" x1="16.6753" y1="2.02705" x2="10.5869" y2="2.02705" gradientUnits="userSpaceOnUse">
<stop stop-color="#2682EE"/>
<stop offset="1" stop-color="#1CD691"/>
</linearGradient>
<linearGradient id="paint3_linear_419_144" x1="16.703" y1="10" x2="3.29736" y2="10" gradientUnits="userSpaceOnUse">
<stop stop-color="#2682EE"/>
<stop offset="1" stop-color="#1CD691"/>
</linearGradient>
<linearGradient id="paint4_linear_419_144" x1="19.9952" y1="13.6505" x2="15.9482" y2="13.6505" gradientUnits="userSpaceOnUse">
<stop stop-color="#2682EE"/>
<stop offset="1" stop-color="#1CD691"/>
</linearGradient>
<linearGradient id="paint5_linear_419_144" x1="20.0001" y1="6.40928" x2="15.9844" y2="6.40928" gradientUnits="userSpaceOnUse">
<stop stop-color="#2682EE"/>
<stop offset="1" stop-color="#1CD691"/>
</linearGradient>
<linearGradient id="paint6_linear_419_144" x1="4.05184" y1="13.6505" x2="0.00488282" y2="13.6505" gradientUnits="userSpaceOnUse">
<stop stop-color="#2682EE"/>
<stop offset="1" stop-color="#1CD691"/>
</linearGradient>
<linearGradient id="paint7_linear_419_144" x1="14.3558" y1="10.0095" x2="11.7241" y2="10.0095" gradientUnits="userSpaceOnUse">
<stop stop-color="#2682EE"/>
<stop offset="1" stop-color="#1CD691"/>
</linearGradient>
<linearGradient id="paint8_linear_419_144" x1="9.41309" y1="17.9909" x2="3.36621" y2="17.9909" gradientUnits="userSpaceOnUse">
<stop stop-color="#2682EE"/>
<stop offset="1" stop-color="#1CD691"/>
</linearGradient>
<linearGradient id="paint9_linear_419_144" x1="16.6338" y1="17.9909" x2="10.5869" y2="17.9909" gradientUnits="userSpaceOnUse">
<stop stop-color="#2682EE"/>
<stop offset="1" stop-color="#1CD691"/>
</linearGradient>
</defs>
</svg>
