<svg width="20" height="21" viewBox="0 0 20 21" fill="none" xmlns="http://www.w3.org/2000/svg">
<g clip-path="url(#clip0_419_70)">
<path d="M9.9999 12.151C11.0151 12.151 11.841 11.325 11.841 10.3098V2.77859C11.841 1.76344 11.0151 0.9375 9.9999 0.9375C8.98467 0.9375 8.15869 1.76344 8.15869 2.77863V10.3099C8.15869 11.3251 8.98467 12.151 9.9999 12.151Z" fill="url(#paint0_linear_419_70)"/>
<path d="M16.1976 6.0234C16.1929 6.01828 16.1881 6.01332 16.1837 6.00891C15.8359 5.66121 15.3736 5.46973 14.8819 5.46973C14.3901 5.46973 13.9277 5.66117 13.58 6.00891C13.2322 6.35664 13.0406 6.81902 13.0407 7.31086C13.0407 7.79473 13.2262 8.25008 13.5634 8.59586C13.5688 8.6016 13.5742 8.6073 13.5799 8.61293C14.536 9.5691 15.0626 10.8404 15.0626 12.1927C15.0626 14.9842 12.7915 17.2552 10.0001 17.2552C7.20865 17.2552 4.9376 14.9842 4.9376 12.1927C4.9376 10.8404 5.46416 9.56906 6.42037 8.61293C7.13807 7.8952 7.13814 6.72719 6.42021 6.00902C6.07244 5.66141 5.61006 5.46992 5.11838 5.46992C4.62662 5.46992 4.16432 5.66141 3.81658 6.00918C2.16494 7.66086 1.25537 9.85688 1.25537 12.1927C1.25537 14.5285 2.16494 16.7245 3.81662 18.3762C5.4683 20.0279 7.66428 20.9375 10.0001 20.9375C12.3359 20.9375 14.5319 20.0279 16.1836 18.3762C17.8353 16.7245 18.7448 14.5285 18.7448 12.1927C18.7448 9.86383 17.8404 7.6734 16.1976 6.0234Z" fill="url(#paint1_linear_419_70)"/>
</g>
<defs>
<linearGradient id="paint0_linear_419_70" x1="11.841" y1="6.54424" x2="8.15869" y2="6.54424" gradientUnits="userSpaceOnUse">
<stop stop-color="#2682EE"/>
<stop offset="1" stop-color="#1CD691"/>
</linearGradient>
<linearGradient id="paint1_linear_419_70" x1="18.7448" y1="13.2036" x2="1.25537" y2="13.2036" gradientUnits="userSpaceOnUse">
<stop stop-color="#2682EE"/>
<stop offset="1" stop-color="#1CD691"/>
</linearGradient>
<clipPath id="clip0_419_70">
<rect width="20" height="20" fill="white" transform="translate(0 0.9375)"/>
</clipPath>
</defs>
</svg>
