<svg width="16" height="15" viewBox="0 0 16 15" fill="none" xmlns="http://www.w3.org/2000/svg">
<path d="M13.2328 7.40625C13.3057 7.40625 13.377 7.42788 13.4377 7.4684C13.4983 7.50891 13.5456 7.5665 13.5735 7.63389C13.6014 7.70127 13.6087 7.77541 13.5945 7.84694C13.5802 7.91847 13.5451 7.98418 13.4936 8.03575C13.442 8.08732 13.3763 8.12244 13.3048 8.13666C13.2332 8.15089 13.1591 8.14359 13.0917 8.11568C13.0243 8.08777 12.9667 8.04051 12.9262 7.97987C12.8857 7.91923 12.8641 7.84793 12.8641 7.775C12.8641 7.6772 12.9029 7.58341 12.9721 7.51426C13.0412 7.4451 13.135 7.40625 13.2328 7.40625ZM15.7969 1.175V0.884375C15.7965 0.649951 15.7032 0.425247 15.5374 0.259484C15.3716 0.0937207 15.1469 0.000413083 14.9125 0H3.32344C2.96316 0.00123925 2.61805 0.14512 2.36358 0.400167C2.10912 0.655213 1.96604 1.00066 1.96562 1.36094V1.45781C1.96604 1.81863 2.10956 2.16455 2.36469 2.41968C2.61983 2.67482 2.96575 2.81834 3.32656 2.81875H15.5406C15.6094 2.81875 15.6754 2.79142 15.724 2.74278C15.7727 2.69414 15.8 2.62817 15.8 2.55937V1.64375H3.27031V1.175H15.7969ZM3.32344 3.2875C3.06213 3.28817 2.80372 3.23272 2.56569 3.12489C2.32767 3.01706 2.11557 2.85938 1.94375 2.6625L1.96562 5.21875C2.02163 5.21194 2.07796 5.20829 2.13437 5.20781C2.39882 5.20688 2.658 5.2817 2.88125 5.42344C3.00156 5.36719 3.12344 5.31719 3.24688 5.26719C3.31735 4.95794 3.49031 4.68159 3.73765 4.48304C3.985 4.28448 4.2922 4.17538 4.60937 4.17344H4.85938C5.17655 4.17538 5.48375 4.28448 5.7311 4.48304C5.97844 4.68159 6.1514 4.95794 6.22187 5.26719C6.34531 5.3125 6.46719 5.3625 6.5875 5.42344C6.856 5.2555 7.17333 5.1831 7.4881 5.21798C7.80287 5.25286 8.09666 5.39297 8.32188 5.61563L8.49844 5.79219C8.72107 6.01663 8.86159 6.30954 8.89731 6.62365C8.93303 6.93776 8.86187 7.25474 8.69531 7.52344C8.75156 7.64375 8.80156 7.76562 8.85156 7.88906C9.16081 7.95954 9.43716 8.1325 9.63571 8.37984C9.83427 8.62718 9.94337 8.93439 9.94531 9.25156V9.50156C9.94337 9.81874 9.83427 10.1259 9.63571 10.3733C9.43716 10.6206 9.16081 10.7936 8.85156 10.8641C8.80625 10.9875 8.75625 11.1094 8.69531 11.2297C8.83705 11.4529 8.91187 11.7121 8.91094 11.9766C8.9111 12.0721 8.90168 12.1673 8.88281 12.2609H14.6C14.9173 12.2605 15.2215 12.1343 15.4459 11.9099C15.6702 11.6856 15.7965 11.3814 15.7969 11.0641V9.75625H13.2328C12.7074 9.75625 12.2034 9.54751 11.8319 9.17596C11.4603 8.8044 11.2516 8.30046 11.2516 7.775C11.2516 7.24954 11.4603 6.7456 11.8319 6.37404C12.2034 6.00249 12.7074 5.79375 13.2328 5.79375H15.7969V3.2375C15.7143 3.27012 15.6263 3.28707 15.5375 3.2875H3.32344ZM13.2328 6.25625H15.7969V9.2875H13.2328C13.0342 9.2875 12.8375 9.24838 12.654 9.17237C12.4705 9.09636 12.3038 8.98495 12.1633 8.8445C12.0229 8.70405 11.9115 8.53731 11.8354 8.35381C11.7594 8.1703 11.7203 7.97362 11.7203 7.775C11.7203 7.57638 11.7594 7.3797 11.8354 7.19619C11.9115 7.01269 12.0229 6.84595 12.1633 6.7055C12.3038 6.56505 12.4705 6.45364 12.654 6.37763C12.8375 6.30162 13.0342 6.2625 13.2328 6.2625V6.25625ZM13.2328 6.93125C13.0672 6.93125 12.9052 6.98037 12.7675 7.07239C12.6298 7.16442 12.5225 7.29522 12.4591 7.44825C12.3957 7.60129 12.3791 7.76968 12.4114 7.93214C12.4437 8.0946 12.5235 8.24383 12.6406 8.36095C12.7577 8.47808 12.907 8.55784 13.0694 8.59016C13.2319 8.62247 13.4003 8.60589 13.5533 8.5425C13.7063 8.47911 13.8371 8.37177 13.9292 8.23404C14.0212 8.09631 14.0703 7.93439 14.0703 7.76875C14.0683 7.54784 13.9792 7.33666 13.8224 7.18104C13.6656 7.02541 13.4537 6.9379 13.2328 6.9375V6.93125ZM4.73906 7.75469C4.41767 7.75469 4.10349 7.84999 3.83626 8.02855C3.56903 8.20711 3.36075 8.4609 3.23776 8.75783C3.11477 9.05476 3.08259 9.38149 3.14529 9.69671C3.20799 10.0119 3.36275 10.3015 3.59001 10.5287C3.81727 10.756 4.10682 10.9108 4.42204 10.9735C4.73726 11.0362 5.06399 11.004 5.36092 10.881C5.65785 10.758 5.91164 10.5497 6.0902 10.2825C6.26876 10.0153 6.36406 9.70108 6.36406 9.37969C6.36324 8.94896 6.19177 8.53612 5.8872 8.23155C5.58263 7.92698 5.16979 7.75551 4.73906 7.75469ZM9.46563 9.25469V9.50469C9.46521 9.75057 9.36724 9.98624 9.19323 10.16C9.01922 10.3337 8.78338 10.4313 8.5375 10.4313C8.52263 10.4325 8.50855 10.4385 8.49731 10.4484C8.48608 10.4582 8.47826 10.4714 8.475 10.4859C8.39739 10.7482 8.29266 11.0016 8.1625 11.2422C8.15338 11.2538 8.14841 11.2681 8.14841 11.2828C8.14841 11.2976 8.15338 11.3119 8.1625 11.3234C8.33428 11.4987 8.43049 11.7343 8.43049 11.9797C8.43049 12.2251 8.33428 12.4607 8.1625 12.6359L7.98594 12.8125C7.81195 12.9861 7.57622 13.0835 7.33047 13.0835C7.08471 13.0835 6.84899 12.9861 6.675 12.8125C6.66297 12.8037 6.64848 12.799 6.63359 12.799C6.61871 12.799 6.60422 12.8037 6.59219 12.8125C6.35165 12.9427 6.09819 13.0474 5.83594 13.125C5.82137 13.1283 5.80821 13.1361 5.79838 13.1473C5.78855 13.1586 5.78255 13.1726 5.78125 13.1875C5.77882 13.4326 5.68046 13.6671 5.50727 13.8405C5.33407 14.014 5.09981 14.1128 4.85469 14.1156H4.62187C4.37378 14.1156 4.13579 14.0173 3.96006 13.8421C3.78434 13.667 3.6852 13.4293 3.68437 13.1813C3.68308 13.1664 3.67708 13.1523 3.66724 13.1411C3.65741 13.1298 3.64426 13.122 3.62969 13.1187C3.36743 13.0411 3.11398 12.9364 2.87344 12.8062C2.86165 12.7976 2.84742 12.793 2.83281 12.793C2.8182 12.793 2.80397 12.7976 2.79219 12.8062C2.61813 12.9803 2.38208 13.0781 2.13594 13.0781C1.8898 13.0781 1.65374 12.9803 1.47969 12.8062L1.30313 12.6313C1.13135 12.456 1.03513 12.2204 1.03513 11.975C1.03513 11.7296 1.13135 11.494 1.30313 11.3188C1.31225 11.3072 1.31721 11.2929 1.31721 11.2781C1.31721 11.2634 1.31225 11.2491 1.30313 11.2375C1.17297 10.997 1.06823 10.7435 0.990625 10.4813C0.987364 10.4667 0.979548 10.4535 0.968311 10.4437C0.957075 10.4339 0.943 10.4279 0.928125 10.4266C0.682995 10.4241 0.44857 10.3258 0.275083 10.1526C0.101595 9.97938 0.0028479 9.74513 0 9.5V9.25C0.0028479 9.00488 0.101595 8.77062 0.275083 8.59742C0.44857 8.42423 0.682995 8.32587 0.928125 8.32344C0.943 8.32214 0.957075 8.31614 0.968311 8.30631C0.979548 8.29647 0.987364 8.28332 0.990625 8.26875C1.06823 8.00649 1.17297 7.75304 1.30313 7.5125C1.31212 7.50057 1.31699 7.48604 1.31699 7.47109C1.31699 7.45615 1.31212 7.44162 1.30313 7.42969C1.13182 7.25451 1.0359 7.01923 1.0359 6.77422C1.0359 6.5292 1.13182 6.29392 1.30313 6.11875L1.47969 5.94219C1.65493 5.77041 1.89054 5.6742 2.13594 5.6742C2.38133 5.6742 2.61694 5.77041 2.79219 5.94219C2.80376 5.95131 2.81807 5.95627 2.83281 5.95627C2.84755 5.95627 2.86186 5.95131 2.87344 5.94219C3.11398 5.81203 3.36743 5.7073 3.62969 5.62969C3.64426 5.62643 3.65741 5.61861 3.66724 5.60737C3.67708 5.59614 3.68308 5.58206 3.68437 5.56719C3.68726 5.3213 3.78761 5.08661 3.96338 4.91465C4.13915 4.74268 4.37598 4.6475 4.62187 4.65H4.87187C5.11776 4.65041 5.35343 4.74838 5.52715 4.92239C5.70087 5.09641 5.79844 5.33224 5.79844 5.57812C5.79974 5.593 5.80574 5.60707 5.81557 5.61831C5.8254 5.62955 5.83855 5.63736 5.85312 5.64062C6.11538 5.71823 6.36883 5.82297 6.60938 5.95312C6.6213 5.96212 6.63584 5.96699 6.65078 5.96699C6.66572 5.96699 6.68026 5.96212 6.69219 5.95312C6.86736 5.78182 7.10264 5.6859 7.34766 5.6859C7.59267 5.6859 7.82795 5.78182 8.00313 5.95312L8.17188 6.11719C8.34318 6.29236 8.4391 6.52764 8.4391 6.77266C8.4391 7.01767 8.34318 7.25295 8.17188 7.42813C8.16288 7.44005 8.15801 7.45459 8.15801 7.46953C8.15801 7.48447 8.16288 7.49901 8.17188 7.51094C8.30203 7.75148 8.40677 8.00493 8.48438 8.26719C8.48764 8.28176 8.49545 8.29491 8.50669 8.30474C8.51793 8.31458 8.532 8.32058 8.54688 8.32188C8.79222 8.32435 9.02659 8.42387 9.19876 8.59867C9.37093 8.77347 9.46688 9.00934 9.46563 9.25469ZM6.82969 9.37969C6.83 8.96552 6.70746 8.56056 6.47759 8.21604C6.24771 7.87152 5.92082 7.60291 5.53826 7.4442C5.15571 7.28549 4.73468 7.2438 4.32843 7.32442C3.92218 7.40503 3.54896 7.60431 3.25599 7.89707C2.96301 8.18982 2.76345 8.56289 2.68253 8.96908C2.60162 9.37527 2.64299 9.79633 2.80142 10.179C2.95984 10.5617 3.2282 10.8888 3.57255 11.1189C3.9169 11.349 4.32177 11.4719 4.73594 11.4719C5.29138 11.4723 5.82426 11.2521 6.21745 10.8598C6.61065 10.4675 6.83198 9.93513 6.83281 9.37969H6.82969Z" fill="url(#paint0_linear_419_81)"/>
<defs>
<linearGradient id="paint0_linear_419_81" x1="15.8" y1="7.05782" x2="4.07036e-08" y2="7.05782" gradientUnits="userSpaceOnUse">
<stop stop-color="#2682EE"/>
<stop offset="1" stop-color="#1CD691"/>
</linearGradient>
</defs>
</svg>
