<svg width="17" height="19" viewBox="0 0 17 19" fill="none" xmlns="http://www.w3.org/2000/svg">
<path fill-rule="evenodd" clip-rule="evenodd" d="M14.7943 6.70946C14.7943 7.86073 15.0986 8.53931 15.7682 9.32129C16.2757 9.89738 16.4378 10.6369 16.4378 11.4392C16.4378 12.2405 16.1745 13.0013 15.647 13.6189C14.9565 14.3594 13.9826 14.8321 12.9886 14.9142C11.5483 15.037 10.107 15.1404 8.64661 15.1404C7.18531 15.1404 5.74495 15.0786 4.3046 14.9142C3.30974 14.8321 2.33584 14.3594 1.64619 13.6189C1.11869 13.0013 0.854492 12.2405 0.854492 11.4392C0.854492 10.6369 1.01757 9.89738 1.52411 9.32129C2.21467 8.53931 2.49892 7.86073 2.49892 6.70946V6.31893C2.49892 4.77714 2.88338 3.76897 3.67507 2.78203C4.85213 1.34271 6.7389 0.479492 8.60562 0.479492H8.68761C10.5944 0.479492 12.5422 1.38426 13.6992 2.88543C14.4499 3.85206 14.7943 4.81776 14.7943 6.31893V6.70946ZM5.96369 17.0353C5.96369 16.5736 6.38733 16.3622 6.77907 16.2717C7.23733 16.1748 10.0297 16.1748 10.4879 16.2717C10.8797 16.3622 11.3033 16.5736 11.3033 17.0353C11.2805 17.4747 11.0227 17.8643 10.6665 18.1117C10.2046 18.4718 9.66251 18.6998 9.09585 18.782C8.78245 18.8226 8.47452 18.8236 8.17205 18.782C7.60448 18.6998 7.06241 18.4718 6.60142 18.1108C6.24429 17.8643 5.98647 17.4747 5.96369 17.0353Z" fill="#BFC6D2"/>
</svg>
