<svg width="18" height="18" viewBox="0 0 18 18" fill="none" xmlns="http://www.w3.org/2000/svg">
<path d="M15.875 7.75H15.5062L10.6875 2.93125C10.8063 2.68125 10.875 2.4125 10.875 2.125C10.875 1.09375 10.0312 0.25 9 0.25C7.96875 0.25 7.125 1.09375 7.125 2.125C7.125 2.4125 7.19375 2.68125 7.3125 2.93125L2.49375 7.75H2.125C1.09375 7.75 0.25 8.59375 0.25 9.625V15.875C0.25 16.9062 1.09375 17.75 2.125 17.75H15.875C16.9062 17.75 17.75 16.9062 17.75 15.875V9.625C17.75 8.59375 16.9062 7.75 15.875 7.75ZM8.19375 3.8125C8.44375 3.93125 8.7125 4 9 4C9.2875 4 9.55625 3.93125 9.80625 3.8125L13.7438 7.75H4.25625L8.19375 3.8125ZM3.6875 12.125C4.55 12.125 5.25 12.825 5.25 13.6875C5.25 14.55 4.55 15.25 3.6875 15.25H2.75C2.40625 15.25 2.125 14.9688 2.125 14.625C2.125 14.2812 2.40625 14 2.75 14H3.6875C3.8625 14 4 13.8625 4 13.6875C4 13.5125 3.8625 13.375 3.6875 13.375C2.825 13.375 2.125 12.675 2.125 11.8125C2.125 10.95 2.825 10.25 3.6875 10.25H4.625C4.96875 10.25 5.25 10.5312 5.25 10.875C5.25 11.2188 4.96875 11.5 4.625 11.5H3.6875C3.5125 11.5 3.375 11.6375 3.375 11.8125C3.375 11.9875 3.5125 12.125 3.6875 12.125ZM7.75 12.125C8.09375 12.125 8.375 12.4062 8.375 12.75C8.375 13.0938 8.09375 13.375 7.75 13.375H7.125V14H7.75C8.09375 14 8.375 14.2812 8.375 14.625C8.375 14.9688 8.09375 15.25 7.75 15.25H6.5C6.15625 15.25 5.875 14.9688 5.875 14.625V10.875C5.875 10.5312 6.15625 10.25 6.5 10.25H7.75C8.09375 10.25 8.375 10.5312 8.375 10.875C8.375 11.2188 8.09375 11.5 7.75 11.5H7.125V12.125H7.75ZM11.5 15.25H9.625C9.28125 15.25 9 14.9688 9 14.625V10.875C9 10.5312 9.28125 10.25 9.625 10.25C9.96875 10.25 10.25 10.5312 10.25 10.875V14H11.5C11.8438 14 12.125 14.2812 12.125 14.625C12.125 14.9688 11.8438 15.25 11.5 15.25ZM15.25 15.25H13.375C13.0312 15.25 12.75 14.9688 12.75 14.625V10.875C12.75 10.5312 13.0312 10.25 13.375 10.25C13.7188 10.25 14 10.5312 14 10.875V14H15.25C15.5938 14 15.875 14.2812 15.875 14.625C15.875 14.9688 15.5938 15.25 15.25 15.25Z" fill="url(#paint0_linear_419_138)"/>
<defs>
<linearGradient id="paint0_linear_419_138" x1="17.75" y1="9" x2="0.25" y2="9" gradientUnits="userSpaceOnUse">
<stop stop-color="#2682EE"/>
<stop offset="1" stop-color="#1CD691"/>
</linearGradient>
</defs>
</svg>
