<svg width="35" height="35" viewBox="0 0 35 35" fill="none" xmlns="http://www.w3.org/2000/svg">
<path d="M17.5561 0.988255C13.1618 0.988254 8.94744 2.73389 5.84019 5.84114C2.73294 8.94839 0.987305 13.1627 0.987305 17.557C0.987304 21.9514 2.73294 26.1657 5.84019 29.273C8.94744 32.3802 13.1618 34.1258 17.5561 34.1258L17.5561 17.557V0.988255Z" fill="#428BF9"/>
<path d="M17.5552 34.1251C21.9495 34.1251 26.1639 32.3795 29.2711 29.2722C32.3784 26.165 34.124 21.9506 34.124 17.5563C34.124 13.162 32.3784 8.94765 29.2711 5.8404C26.1639 2.73315 21.9496 0.987513 17.5552 0.987513L17.5552 17.5563L17.5552 34.1251Z" fill="url(#paint0_linear_401_685)"/>
<defs>
<linearGradient id="paint0_linear_401_685" x1="0.98644" y1="17.5563" x2="34.124" y2="17.5563" gradientUnits="userSpaceOnUse">
<stop stop-color="#2682EE"/>
<stop offset="1" stop-color="#1CD691"/>
</linearGradient>
</defs>
</svg>
