<svg width="20" height="21" viewBox="0 0 20 21" fill="none" xmlns="http://www.w3.org/2000/svg">
<path d="M18.782 11.6265H15.0105C14.7535 11.6265 14.5269 11.7947 14.4523 12.0406L13.8002 14.1927H6.18038L5.52818 12.0406C5.45368 11.7947 5.22697 11.6265 4.96994 11.6265H1.19843C0.876389 11.6265 0.615234 11.8876 0.615234 12.2097V19.2083C0.615234 19.5304 0.876389 19.7917 1.19843 19.7917H18.782C19.1041 19.7917 19.3652 19.5304 19.3652 19.2083V12.2097C19.3652 11.8876 19.1042 11.6265 18.782 11.6265Z" fill="url(#paint0_linear_419_87)"/>
<path d="M9.56962 12.8002C9.6796 12.9145 9.83158 12.9791 9.99019 12.9791C10.1488 12.9791 10.3008 12.9145 10.4108 12.8002L14.2346 8.82162C14.3966 8.65294 14.4422 8.40403 14.3506 8.18888C14.2591 7.97373 14.0478 7.83411 13.8141 7.83411H12.5319V2.37128C12.5319 2.04935 12.2709 1.78809 11.9487 1.78809H8.03165C7.7095 1.78809 7.44834 2.04935 7.44834 2.37128V7.83411H6.16626C5.93257 7.83411 5.72132 7.97373 5.62976 8.18888C5.53798 8.40392 5.58376 8.65294 5.74569 8.82151L9.56962 12.8002Z" fill="url(#paint1_linear_419_87)"/>
<defs>
<linearGradient id="paint0_linear_419_87" x1="19.3652" y1="15.7091" x2="0.615234" y2="15.7091" gradientUnits="userSpaceOnUse">
<stop stop-color="#2682EE"/>
<stop offset="1" stop-color="#1CD691"/>
</linearGradient>
<linearGradient id="paint1_linear_419_87" x1="14.3973" y1="7.38362" x2="5.58301" y2="7.38362" gradientUnits="userSpaceOnUse">
<stop stop-color="#2682EE"/>
<stop offset="1" stop-color="#1CD691"/>
</linearGradient>
</defs>
</svg>
