<svg width="20" height="21" viewBox="0 0 20 21" fill="none" xmlns="http://www.w3.org/2000/svg">
<path d="M10.0003 5.3423C11.2554 5.3423 12.273 4.32478 12.273 3.06959C12.273 1.8144 11.2554 0.796875 10.0003 0.796875C8.74507 0.796875 7.72754 1.8144 7.72754 3.06959C7.72754 4.32478 8.74507 5.3423 10.0003 5.3423Z" fill="url(#paint0_linear_419_114)"/>
<path d="M6.88307 9.88779H13.1171C13.6542 9.88779 14.091 9.41635 14.091 8.83664V8.54546C14.091 7.78595 13.715 7.09216 13.1091 6.7348C12.3833 6.30688 11.255 5.79688 10.0001 5.79688C8.7452 5.79688 7.61684 6.30692 6.89108 6.7348C6.28516 7.09212 5.90918 7.78595 5.90918 8.54546V8.83664C5.90918 9.41639 6.34597 9.88779 6.88307 9.88779Z" fill="url(#paint1_linear_419_114)"/>
<path d="M4.09107 16.2514C5.34626 16.2514 6.36379 15.2338 6.36379 13.9786C6.36379 12.7235 5.34626 11.7059 4.09107 11.7059C2.83589 11.7059 1.81836 12.7235 1.81836 13.9786C1.81836 15.2338 2.83589 16.2514 4.09107 16.2514Z" fill="url(#paint2_linear_419_114)"/>
<path d="M7.19992 17.644C6.47417 17.2161 5.3458 16.7061 4.09091 16.7061C2.83602 16.7061 1.70766 17.2161 0.981904 17.644C0.37598 18.0013 0 18.6951 0 19.4546V19.7458C0 20.3255 0.43679 20.7969 0.973893 20.7969H7.20793C7.74503 20.7969 8.18182 20.3255 8.18182 19.7458V19.4546C8.18182 18.6951 7.80584 18.0013 7.19992 17.644Z" fill="url(#paint3_linear_419_114)"/>
<path d="M15.9089 16.2514C17.1641 16.2514 18.1817 15.2338 18.1817 13.9786C18.1817 12.7235 17.1641 11.7059 15.9089 11.7059C14.6538 11.7059 13.6362 12.7235 13.6362 13.9786C13.6362 15.2338 14.6538 16.2514 15.9089 16.2514Z" fill="url(#paint4_linear_419_114)"/>
<path d="M19.0183 17.644C18.2925 17.2161 17.1642 16.7061 15.9093 16.7061C14.6544 16.7061 13.526 17.2161 12.8003 17.644C12.1943 18.0013 11.8184 18.6951 11.8184 19.4546V19.7458C11.8184 20.3255 12.2551 20.797 12.7923 20.797H19.0263C19.5634 20.797 20.0002 20.3255 20.0002 19.7458V19.4546C20.0001 18.6951 19.6242 18.0013 19.0183 17.644Z" fill="url(#paint5_linear_419_114)"/>
<path d="M12.2721 16.2514C12.4057 16.2514 12.5375 16.1928 12.6276 16.081C12.7843 15.8848 12.7524 15.5989 12.5566 15.4418L10.4543 13.76V11.2514C10.4543 11.0002 10.251 10.7969 9.99978 10.7969C9.74853 10.7969 9.54522 11.0001 9.54522 11.2514V13.7603L7.44296 15.4417C7.2472 15.5989 7.21524 15.8847 7.37193 16.0809C7.46205 16.1928 7.59386 16.2514 7.72749 16.2514C7.82691 16.2514 7.92727 16.219 8.01113 16.152L9.99978 14.5611L11.9884 16.152C12.0723 16.219 12.1726 16.2514 12.2721 16.2514Z" fill="url(#paint6_linear_419_114)"/>
<defs>
<linearGradient id="paint0_linear_419_114" x1="12.273" y1="3.06959" x2="7.72754" y2="3.06959" gradientUnits="userSpaceOnUse">
<stop stop-color="#2682EE"/>
<stop offset="1" stop-color="#1CD691"/>
</linearGradient>
<linearGradient id="paint1_linear_419_114" x1="14.091" y1="7.84233" x2="5.90918" y2="7.84233" gradientUnits="userSpaceOnUse">
<stop stop-color="#2682EE"/>
<stop offset="1" stop-color="#1CD691"/>
</linearGradient>
<linearGradient id="paint2_linear_419_114" x1="6.36379" y1="13.9786" x2="1.81836" y2="13.9786" gradientUnits="userSpaceOnUse">
<stop stop-color="#2682EE"/>
<stop offset="1" stop-color="#1CD691"/>
</linearGradient>
<linearGradient id="paint3_linear_419_114" x1="8.18182" y1="18.7515" x2="2.10778e-08" y2="18.7515" gradientUnits="userSpaceOnUse">
<stop stop-color="#2682EE"/>
<stop offset="1" stop-color="#1CD691"/>
</linearGradient>
<linearGradient id="paint4_linear_419_114" x1="18.1817" y1="13.9786" x2="13.6362" y2="13.9786" gradientUnits="userSpaceOnUse">
<stop stop-color="#2682EE"/>
<stop offset="1" stop-color="#1CD691"/>
</linearGradient>
<linearGradient id="paint5_linear_419_114" x1="20.0002" y1="18.7515" x2="11.8184" y2="18.7515" gradientUnits="userSpaceOnUse">
<stop stop-color="#2682EE"/>
<stop offset="1" stop-color="#1CD691"/>
</linearGradient>
<linearGradient id="paint6_linear_419_114" x1="12.7271" y1="13.5242" x2="7.27246" y2="13.5242" gradientUnits="userSpaceOnUse">
<stop stop-color="#2682EE"/>
<stop offset="1" stop-color="#1CD691"/>
</linearGradient>
</defs>
</svg>
