<svg width="20" height="21" viewBox="0 0 20 21" fill="none" xmlns="http://www.w3.org/2000/svg">
<g clip-path="url(#clip0_419_49)">
<path d="M10 0.9375C4.47734 0.9375 0 5.41484 0 10.9375C0 16.4602 4.47734 20.9375 10 20.9375C15.5227 20.9375 20 16.4602 20 10.9375C20 5.41484 15.5227 0.9375 10 0.9375ZM4.30352 10.5801C4.3582 10.0629 4.40938 9.53125 4.57031 9.02656C5.62695 5.46562 10.2297 4.04883 13.1191 6.36719C13.3145 5.33203 14.8047 5.44297 14.8379 6.5125C14.85 6.875 14.8379 7.22773 14.841 7.58789C14.8531 8.38828 14.9309 9.21094 13.8867 9.23906C13.3266 9.24141 12.8043 9.24141 12.2 9.23906C11.1719 9.28477 10.875 7.9375 11.7793 7.58281C10.6574 6.87031 9.48164 6.78008 8.28516 7.29453C6.99609 7.84648 6.24141 8.85938 6.03711 10.3055C6.0207 10.4227 6.01602 10.55 6.00781 10.673C5.97578 11.1684 5.625 11.5145 5.15469 11.5145C4.6582 11.5234 4.23828 11.0781 4.30352 10.5801ZM10.209 16.6406C9.00984 16.6439 7.84421 16.245 6.89844 15.5078C6.73711 16.5129 5.21523 16.4367 5.18828 15.409C5.17734 14.7941 5.17695 14.1621 5.18828 13.4777C5.19492 12.9961 5.55781 12.6414 6.05117 12.6348C6.34531 12.6309 6.65625 12.6289 6.975 12.6289C7.27266 12.6289 7.57813 12.6289 7.90898 12.634C8.87695 12.616 9.13281 13.9582 8.25625 14.2953C10.6289 15.8555 13.9387 14.0871 13.9789 11.2328C13.9562 10.707 14.3152 10.248 14.8453 10.2562C14.9622 10.2555 15.0781 10.2781 15.1862 10.3225C15.2943 10.367 15.3924 10.4325 15.475 10.5152C15.5507 10.5934 15.6099 10.686 15.649 10.7875C15.688 10.8891 15.7062 10.9975 15.7023 11.1063C15.7914 14.1137 13.2105 16.6832 10.209 16.6406Z" fill="url(#paint0_linear_419_49)"/>
</g>
<defs>
<linearGradient id="paint0_linear_419_49" x1="20" y1="10.9375" x2="5.15236e-08" y2="10.9375" gradientUnits="userSpaceOnUse">
<stop stop-color="#2682EE"/>
<stop offset="1" stop-color="#1CD691"/>
</linearGradient>
<clipPath id="clip0_419_49">
<rect width="20" height="20" fill="white" transform="translate(0 0.9375)"/>
</clipPath>
</defs>
</svg>
