<svg width="16" height="20" viewBox="0 0 16 20" fill="none" xmlns="http://www.w3.org/2000/svg">
<path d="M7.99951 0.793701C5.47888 0.793701 3.42808 2.8445 3.42808 5.36513V8.2241H2.85693C1.75396 8.2241 0.856934 9.1213 0.856934 10.2241V17.0812C0.856934 18.184 1.75396 19.0812 2.85693 19.0812H13.1426C14.2453 19.0812 15.1426 18.184 15.1426 17.0812V10.2241C15.1426 9.1213 14.2453 8.2241 13.1426 8.2241H12.5709V5.36513C12.5709 2.8445 10.5201 0.793701 7.99951 0.793701ZM5.14236 5.36513C5.14236 3.78982 6.42419 2.50799 7.99951 2.50799C9.57482 2.50799 10.8566 3.78982 10.8566 5.36513V8.2241H5.14236V5.36513ZM4.85693 14.5155C4.38259 14.5155 3.99979 14.1327 3.99979 13.6584C3.99979 13.184 4.38259 12.8012 4.85693 12.8012C5.33099 12.8012 5.71408 13.184 5.71408 13.6584C5.71408 14.1327 5.33099 14.5155 4.85693 14.5155ZM7.99979 14.5155C7.52545 14.5155 7.14265 14.1327 7.14265 13.6584C7.14265 13.184 7.52545 12.8012 7.99979 12.8012C8.47385 12.8012 8.85693 13.184 8.85693 13.6584C8.85693 14.1327 8.47385 14.5155 7.99979 14.5155ZM11.1426 14.5155C10.6683 14.5155 10.2855 14.1327 10.2855 13.6584C10.2855 13.184 10.6683 12.8012 11.1426 12.8012C11.6167 12.8012 11.9998 13.184 11.9998 13.6584C11.9998 14.1327 11.6167 14.5155 11.1426 14.5155Z" fill="url(#paint0_linear_419_58)"/>
<defs>
<linearGradient id="paint0_linear_419_58" x1="15.1426" y1="9.93748" x2="0.856934" y2="9.93748" gradientUnits="userSpaceOnUse">
<stop stop-color="#2682EE"/>
<stop offset="1" stop-color="#1CD691"/>
</linearGradient>
</defs>
</svg>
