<svg width="20" height="21" viewBox="0 0 20 21" fill="none" xmlns="http://www.w3.org/2000/svg">
<path d="M17.1131 11.4051H15.5664C15.7241 11.8367 15.8102 12.3026 15.8102 12.7881V18.6338C15.8102 18.8362 15.775 19.0305 15.7109 19.2112H18.2679C19.2231 19.2112 20.0002 18.4341 20.0002 17.4789V14.2922C20.0002 12.7002 18.7051 11.4051 17.1131 11.4051Z" fill="url(#paint0_linear_419_17)"/>
<path d="M4.19005 12.7881C4.19005 12.3026 4.27618 11.8368 4.43384 11.4052H2.88712C1.29516 11.4052 0 12.7003 0 14.2923V17.479C0 18.4342 0.777072 19.2113 1.73227 19.2113H4.28938C4.22528 19.0305 4.19005 18.8363 4.19005 18.6338V12.7881Z" fill="url(#paint1_linear_419_17)"/>
<path d="M11.7679 9.901H8.23184C6.63989 9.901 5.34473 11.1962 5.34473 12.7881V18.6338C5.34473 18.9527 5.60324 19.2113 5.92215 19.2113H14.0776C14.3965 19.2113 14.655 18.9527 14.655 18.6338V12.7881C14.655 11.1962 13.3598 9.901 11.7679 9.901Z" fill="url(#paint2_linear_419_17)"/>
<path d="M9.99995 2.24573C8.08541 2.24573 6.52783 3.80331 6.52783 5.71788C6.52783 7.01652 7.24459 8.1507 8.30311 8.74617C8.80518 9.02859 9.38401 9.19 9.99995 9.19C10.6159 9.19 11.1947 9.02859 11.6968 8.74617C12.7553 8.1507 13.4721 7.01648 13.4721 5.71788C13.4721 3.80335 11.9145 2.24573 9.99995 2.24573Z" fill="url(#paint3_linear_419_17)"/>
<path d="M3.90284 5.48199C2.471 5.48199 1.30615 6.64684 1.30615 8.07868C1.30615 9.51052 2.471 10.6754 3.90284 10.6754C4.26604 10.6754 4.6119 10.6001 4.92608 10.4649C5.46929 10.231 5.91718 9.81704 6.19433 9.29849C6.38886 8.93454 6.49952 8.51934 6.49952 8.07868C6.49952 6.64688 5.33468 5.48199 3.90284 5.48199Z" fill="url(#paint4_linear_419_17)"/>
<path d="M16.0972 5.48199C14.6653 5.48199 13.5005 6.64684 13.5005 8.07868C13.5005 8.51938 13.6112 8.93458 13.8057 9.29849C14.0828 9.81708 14.5307 10.2311 15.0739 10.4649C15.3881 10.6001 15.734 10.6754 16.0972 10.6754C17.529 10.6754 18.6939 9.51052 18.6939 8.07868C18.6939 6.64684 17.529 5.48199 16.0972 5.48199Z" fill="url(#paint5_linear_419_17)"/>
<defs>
<linearGradient id="paint0_linear_419_17" x1="20.0002" y1="15.3081" x2="15.5664" y2="15.3081" gradientUnits="userSpaceOnUse">
<stop stop-color="#2682EE"/>
<stop offset="1" stop-color="#1CD691"/>
</linearGradient>
<linearGradient id="paint1_linear_419_17" x1="4.43384" y1="15.3082" x2="1.14224e-08" y2="15.3082" gradientUnits="userSpaceOnUse">
<stop stop-color="#2682EE"/>
<stop offset="1" stop-color="#1CD691"/>
</linearGradient>
<linearGradient id="paint2_linear_419_17" x1="14.655" y1="14.5561" x2="5.34473" y2="14.5561" gradientUnits="userSpaceOnUse">
<stop stop-color="#2682EE"/>
<stop offset="1" stop-color="#1CD691"/>
</linearGradient>
<linearGradient id="paint3_linear_419_17" x1="13.4721" y1="5.71787" x2="6.52783" y2="5.71787" gradientUnits="userSpaceOnUse">
<stop stop-color="#2682EE"/>
<stop offset="1" stop-color="#1CD691"/>
</linearGradient>
<linearGradient id="paint4_linear_419_17" x1="6.49952" y1="8.07868" x2="1.30615" y2="8.07868" gradientUnits="userSpaceOnUse">
<stop stop-color="#2682EE"/>
<stop offset="1" stop-color="#1CD691"/>
</linearGradient>
<linearGradient id="paint5_linear_419_17" x1="18.6939" y1="8.07868" x2="13.5005" y2="8.07868" gradientUnits="userSpaceOnUse">
<stop stop-color="#2682EE"/>
<stop offset="1" stop-color="#1CD691"/>
</linearGradient>
</defs>
</svg>
