<svg width="90" height="85" viewBox="0 0 90 85" fill="none" xmlns="http://www.w3.org/2000/svg">
<g filter="url(#filter0_f_408_2189)">
<path d="M44.7744 36.7229C44.7744 36.7229 44.6705 36.2374 44.4952 35.383C44.4043 34.9558 44.3068 34.438 44.1964 33.836C44.0795 33.2404 43.9627 32.5608 43.8393 31.8229C43.7094 31.0849 43.599 30.2823 43.4691 29.4343C43.3457 28.5863 43.2418 27.6866 43.1379 26.7545C43.0535 25.8224 42.9431 24.8579 42.8911 23.874C42.8132 22.8901 42.7872 21.8868 42.7548 20.8835C42.7353 20.385 42.7548 19.8801 42.7548 19.3817C42.7548 18.8833 42.7548 18.3849 42.7872 17.8864C42.8132 17.3945 42.8327 16.9026 42.8587 16.4171C42.9041 15.9316 42.9496 15.4526 42.995 14.9801C43.0275 14.5075 43.0989 14.048 43.1704 13.5948C43.2418 13.1417 43.3003 12.7016 43.3782 12.2679C43.4691 11.8407 43.56 11.4264 43.6444 11.0251C43.6899 10.8244 43.7289 10.6237 43.7743 10.4295C43.8263 10.2353 43.8847 10.0476 43.9367 9.86638C44.0406 9.49742 44.1445 9.14141 44.2419 8.81128C44.2874 8.64298 44.3393 8.48116 44.4043 8.32581C44.4627 8.17045 44.5212 8.02158 44.5731 7.8727C44.8004 7.29012 44.9692 6.76581 45.19 6.36448C45.5862 5.54888 45.8135 5.08283 45.8135 5.08283C46.0083 4.68797 46.4824 4.52615 46.872 4.71386C47.2682 4.90158 47.4305 5.38059 47.2422 5.76897C47.2357 5.78191 47.2292 5.78839 47.2292 5.80133L47.1902 5.87253C47.1902 5.87253 46.9629 6.29328 46.5603 7.02473C46.3395 7.38075 46.1577 7.85975 45.9174 8.39701C45.8589 8.53294 45.8005 8.66888 45.7356 8.81128C45.6706 8.95369 45.6122 9.10257 45.5602 9.25792C45.4498 9.56863 45.3394 9.89875 45.2225 10.2483C45.1641 10.4231 45.1056 10.5978 45.0407 10.7791C44.9887 10.9603 44.9433 11.148 44.8913 11.3422C44.7874 11.7241 44.6835 12.119 44.5796 12.5203C44.4822 12.9281 44.4108 13.3553 44.3198 13.789C44.2289 14.2227 44.138 14.6629 44.086 15.1225C44.0211 15.5756 43.9497 16.0416 43.8847 16.5142C43.8393 16.9867 43.7938 17.4657 43.7419 17.9512C43.6899 18.4367 43.6574 18.9221 43.6379 19.4141C43.6185 19.906 43.573 20.398 43.5665 20.8964C43.547 21.8868 43.5211 22.8771 43.5535 23.8546C43.5535 24.832 43.6185 25.79 43.6574 26.7221C43.7159 27.6478 43.7743 28.5475 43.8523 29.4019C43.9367 30.2499 44.0081 31.059 44.099 31.797C44.1835 32.5414 44.2679 33.221 44.3523 33.8165C44.4367 34.4185 44.5017 34.9428 44.5731 35.3701C44.6965 36.231 44.7744 36.7229 44.7744 36.7229Z" fill="#4CFFFF"/>
<path d="M50.5723 37.0536C50.5723 37.0536 50.7801 36.594 51.1373 35.7914C51.3321 35.3965 51.5594 34.9175 51.8321 34.3673C52.1244 33.8301 52.4296 33.2086 52.8127 32.5549C53.0011 32.2312 53.1959 31.8882 53.4037 31.5386C53.618 31.1955 53.8453 30.8395 54.0726 30.4706C54.2999 30.1016 54.5467 29.7326 54.8064 29.3572C55.0662 28.9882 55.313 28.5869 55.6052 28.218C55.8844 27.836 56.1767 27.4541 56.4624 27.0593C56.7612 26.6774 57.0794 26.2955 57.3846 25.9071C57.6898 25.5122 58.021 25.1368 58.3587 24.7614C58.6964 24.3859 59.0146 23.9911 59.3718 23.6351C59.7225 23.2661 60.0731 22.9036 60.4173 22.5346C60.768 22.1722 61.1382 21.8291 61.4954 21.4795C62.2032 20.774 62.9565 20.1461 63.6644 19.5053C64.3917 18.8903 65.1126 18.3142 65.788 17.7705C66.4893 17.2527 67.1452 16.7542 67.7687 16.3076C68.3986 15.8804 68.9766 15.4855 69.4896 15.136C70.0026 14.7864 70.4702 14.5211 70.8469 14.2751C71.6067 13.809 72.0353 13.5372 72.0353 13.5372C72.4055 13.3041 72.899 13.4206 73.1263 13.7896C73.3601 14.1586 73.2432 14.6505 72.873 14.8771C72.8601 14.8835 72.8536 14.89 72.8406 14.8965L72.8081 14.9159C72.8081 14.9159 72.373 15.1554 71.6132 15.5762C71.2365 15.7898 70.7625 16.0293 70.2494 16.3464C69.7299 16.6636 69.1519 17.0196 68.5155 17.408C67.8986 17.8223 67.2232 18.2689 66.5153 18.7415C65.8269 19.2399 65.0931 19.7707 64.3528 20.3338C63.6319 20.9229 62.8591 21.5054 62.1318 22.1592C61.7681 22.4829 61.385 22.8 61.0213 23.1431C60.6641 23.4862 60.3004 23.8292 59.9368 24.1723C59.5666 24.5089 59.2354 24.8843 58.8847 25.2339C58.5405 25.5899 58.1899 25.9459 57.8716 26.3149C57.5469 26.6838 57.2157 27.0399 56.904 27.4088C56.5988 27.7778 56.2936 28.1467 56.0013 28.5092C55.6961 28.8653 55.4364 29.2472 55.1571 29.5967C54.8844 29.9527 54.6181 30.3087 54.3778 30.6648C54.131 31.0143 53.8908 31.3574 53.6635 31.694C53.4427 32.0306 53.2349 32.3607 53.027 32.6779C52.6179 33.3057 52.2802 33.9077 51.962 34.432C51.6698 34.9693 51.41 35.4354 51.2022 35.8173C50.7996 36.607 50.5723 37.0536 50.5723 37.0536Z" fill="#4CFFFF"/>
<path d="M54.3516 42.6716C54.3516 42.6716 54.7607 42.3868 55.4945 41.9143C56.2284 41.4353 57.2804 40.7685 58.5727 40.0177C61.1574 38.5095 64.7356 36.6776 68.5607 35.4024C69.5153 35.0788 70.4829 34.7939 71.4506 34.5544C72.4117 34.302 73.3793 34.1208 74.3145 33.9654C75.2561 33.8165 76.1718 33.713 77.0485 33.6612C77.4836 33.6288 77.9122 33.6288 78.3278 33.6094C78.7435 33.6159 79.1396 33.6094 79.5292 33.6223C80.2955 33.6547 81.0034 33.713 81.6268 33.7906C81.9386 33.8359 82.2308 33.8748 82.497 33.9136C82.7633 33.9654 83.0101 34.0107 83.2309 34.056C83.679 34.1337 84.0167 34.2373 84.257 34.2891C84.4907 34.3473 84.6206 34.3797 84.6206 34.3797C85.0427 34.4832 85.3025 34.9169 85.1986 35.3377C85.0947 35.7584 84.6596 36.0173 84.2375 35.9138C84.2245 35.9138 84.2115 35.9073 84.205 35.9073L84.166 35.8944C84.166 35.8944 84.0491 35.862 83.8348 35.7973C83.6205 35.739 83.3088 35.6225 82.8997 35.5319C82.6919 35.4801 82.4711 35.4283 82.2243 35.3636C81.9775 35.3118 81.7048 35.26 81.419 35.2082C80.8411 35.1111 80.1786 35.014 79.4578 34.9558C79.0941 34.9234 78.7175 34.9105 78.3213 34.8846C77.9317 34.8846 77.5226 34.8651 77.1004 34.8716C76.2627 34.8781 75.3795 34.9364 74.4638 35.0334C73.5547 35.137 72.6065 35.2729 71.6584 35.4671C70.7102 35.6549 69.7491 35.8814 68.801 36.1533C64.9889 37.2149 61.3457 38.8525 58.6961 40.2313C57.3713 40.9174 56.2868 41.5324 55.5335 41.9725C54.7737 42.4127 54.3516 42.6716 54.3516 42.6716Z" fill="#4CFFFF"/>
<path d="M51.4902 47.5852C51.4902 47.5852 52.0357 47.6305 52.9904 47.7147C53.4644 47.7729 54.0489 47.8312 54.7113 47.9283C55.3737 48.0383 56.1205 48.129 56.9323 48.3037C57.3349 48.3879 57.7635 48.4591 58.1922 48.5626C58.6273 48.6662 59.0754 48.7698 59.53 48.8798C59.991 48.9834 60.4521 49.1323 60.9327 49.2682C61.173 49.3394 61.4132 49.4041 61.66 49.4753C61.9003 49.5465 62.1406 49.6372 62.3874 49.7148C62.8744 49.8831 63.381 50.0385 63.881 50.2262C64.3746 50.4204 64.8811 50.6146 65.3876 50.8153C65.9007 51.003 66.3877 51.2554 66.8943 51.469C67.3943 51.6956 67.9009 51.9157 68.3879 52.1811C68.8815 52.4335 69.3685 52.6924 69.8621 52.9449C70.3362 53.2232 70.8102 53.5016 71.2778 53.7799C71.5116 53.9158 71.7454 54.0582 71.9792 54.1942C72.2065 54.343 72.4273 54.4919 72.6481 54.6408C73.0897 54.9386 73.5313 55.2363 73.9599 55.5276C74.382 55.8318 74.7846 56.149 75.1808 56.4533C75.5769 56.764 75.9795 57.0423 76.3367 57.3595C77.0576 57.9874 77.7524 58.5635 78.3629 59.1331C78.9603 59.7157 79.5058 60.2529 79.9864 60.7254C80.2332 60.9585 80.441 61.198 80.6358 61.4181C80.8306 61.6381 81.0125 61.8388 81.1748 62.02C81.8242 62.745 82.2009 63.1593 82.2009 63.1593C82.4931 63.483 82.4672 63.9878 82.136 64.2791C81.8113 64.5704 81.3047 64.5445 81.0125 64.2144C81.006 64.2079 80.9995 64.195 80.993 64.1885L80.9605 64.1497C80.9605 64.1497 80.6228 63.7354 80.0254 63.0039C79.876 62.8227 79.7072 62.622 79.5318 62.402C79.35 62.1819 79.1617 61.9359 78.9344 61.7029C78.4863 61.2239 77.9797 60.6801 77.4277 60.0911C76.8627 59.515 76.2133 58.9259 75.5379 58.2851C75.2002 57.9615 74.8236 57.6767 74.4534 57.3595C74.0768 57.0488 73.7001 56.7186 73.304 56.4079C72.8948 56.1037 72.4792 55.7995 72.0636 55.4888C71.8558 55.3334 71.6415 55.1781 71.4272 55.0227C71.2064 54.8803 70.9856 54.7314 70.7583 54.589C70.3102 54.2977 69.8621 54.0065 69.4075 53.7087C68.9399 53.4368 68.4723 53.1714 67.9983 52.8996C67.5307 52.6212 67.0436 52.3753 66.5631 52.1357C66.076 51.8962 65.6084 51.6309 65.1149 51.4237C64.6278 51.2036 64.1408 50.99 63.6602 50.7764C63.1796 50.5693 62.6861 50.3945 62.212 50.2068C61.9717 50.1162 61.7379 50.0191 61.5042 49.9349C61.2639 49.8573 61.0301 49.7796 60.7963 49.7019C60.3287 49.553 59.8741 49.3782 59.426 49.2553C58.9779 49.1258 58.5364 49.0028 58.1142 48.8798C57.6921 48.7568 57.27 48.6727 56.8739 48.5691C56.0816 48.362 55.3412 48.2325 54.6853 48.0966C54.0294 47.9736 53.4515 47.8895 52.9839 47.8118C52.0357 47.6564 51.4902 47.5852 51.4902 47.5852Z" fill="#4CFFFF"/>
<path d="M51.7266 52.0379C51.7266 52.0379 52.0383 52.3292 52.5773 52.847C52.8435 53.1059 53.1877 53.4101 53.5449 53.7856C53.9021 54.1675 54.2982 54.6012 54.7333 55.0672C55.1879 55.5268 55.6036 56.077 56.0711 56.6467C56.5322 57.2228 57.0452 57.8053 57.4868 58.472C57.9544 59.1258 58.435 59.8055 58.922 60.4981C59.3636 61.2166 59.8182 61.9481 60.2663 62.673C60.7404 63.3915 61.1235 64.1618 61.5197 64.9062C61.9093 65.6571 62.3185 66.3821 62.6756 67.107C63.0068 67.8385 63.3315 68.5505 63.6368 69.2172C63.7926 69.5538 63.942 69.884 64.0849 70.1947C64.2277 70.5119 64.3771 70.8161 64.481 71.1203C65.4032 73.5283 66.0201 75.1336 66.0201 75.1336C66.176 75.5414 65.9746 76.001 65.5655 76.1563C65.1564 76.3117 64.6953 76.111 64.5394 75.6967C64.533 75.6838 64.5265 75.6708 64.5265 75.6579L64.5135 75.6126C64.5135 75.6126 64.0004 74.0073 63.2341 71.5928C63.1432 71.2886 63.0198 70.9844 62.8964 70.6672C62.773 70.35 62.6432 70.0199 62.5133 69.6833C62.2535 69.0036 61.9743 68.2916 61.6885 67.5537C61.3833 66.8222 61.0196 66.0908 60.6819 65.327C60.3313 64.5696 59.9936 63.7929 59.5715 63.0614C59.1688 62.317 58.7662 61.5726 58.37 60.8412C57.9284 60.1356 57.4933 59.4365 57.0712 58.7633C56.6686 58.0772 56.1945 57.4687 55.7724 56.8732C55.3438 56.2842 54.9541 55.7081 54.5385 55.2291C54.1359 54.7371 53.7592 54.284 53.4345 53.8827C53.0968 53.4878 52.7721 53.1706 52.5253 52.8923C52.0188 52.3486 51.7266 52.0379 51.7266 52.0379Z" fill="#FEE844"/>
<path d="M46.7375 52.0574C46.7375 52.0574 46.6271 52.4781 46.4388 53.2096C46.3414 53.5785 46.2504 54.0252 46.1271 54.5365C46.0102 55.0479 45.9063 55.6369 45.7764 56.2713C45.679 56.9121 45.5426 57.5983 45.4582 58.3362C45.4127 58.7052 45.3543 59.0806 45.3153 59.469C45.2763 59.8574 45.2439 60.2522 45.2049 60.6535C45.1594 61.0549 45.1529 61.4627 45.127 61.8769C45.101 62.2912 45.0815 62.712 45.0815 63.1327C45.075 63.5534 45.062 63.9807 45.0685 64.4079C45.0815 64.8351 45.0945 65.2623 45.1075 65.6895C45.1075 66.1168 45.1594 66.544 45.1854 66.9712C45.2179 67.3984 45.2374 67.8192 45.2958 68.2334C45.3478 68.6477 45.3932 69.062 45.4452 69.4763C45.5036 69.8841 45.5816 70.2854 45.6465 70.6802C45.7634 71.4699 45.9582 72.2208 46.1076 72.9328C46.179 73.2889 46.2829 73.6319 46.3738 73.9621C46.4648 74.2922 46.5557 74.6158 46.6401 74.9201C46.8219 75.5285 47.0233 76.0787 47.1856 76.5707C47.3415 77.0626 47.5233 77.4769 47.6597 77.82C47.9389 78.5061 48.0948 78.901 48.0948 78.901L48.1143 78.9398C48.2766 79.3476 48.0818 79.8072 47.6727 79.969C47.2635 80.1308 46.8024 79.9366 46.6401 79.5289C46.6336 79.5159 46.6271 79.503 46.6271 79.49C46.6271 79.49 46.4842 79.0693 46.2375 78.3378C46.1206 77.9689 45.9517 77.5352 45.8218 77.0108C45.6855 76.493 45.5036 75.9104 45.3543 75.2696C45.2828 74.946 45.2114 74.6094 45.1335 74.2598C45.062 73.9103 44.9711 73.5543 44.9192 73.1788C44.8023 72.4344 44.6464 71.6512 44.575 70.8291C44.5295 70.4213 44.4776 70.007 44.4451 69.5863C44.4191 69.1656 44.3931 68.7383 44.3672 68.3046C44.3347 67.8774 44.3347 67.4373 44.3282 67.0036C44.3282 66.5699 44.3022 66.1297 44.3217 65.696C44.3347 65.2623 44.3477 64.8222 44.3607 64.3885C44.3801 63.9548 44.4191 63.5211 44.4451 63.0939C44.4711 62.6666 44.5165 62.2394 44.562 61.8252C44.6139 61.4109 44.6464 60.9966 44.7113 60.5888C44.7698 60.1875 44.8347 59.7926 44.8932 59.4042C44.9516 59.0159 45.0361 58.6404 45.101 58.2715C45.2309 57.5335 45.4062 56.8539 45.5426 56.2195C45.7049 55.5916 45.8478 55.0091 45.9907 54.5042C46.14 53.9993 46.2634 53.5526 46.3803 53.1902C46.6011 52.4652 46.7375 52.0574 46.7375 52.0574Z" fill="#FEE844"/>
<path d="M39.6294 50.1668C39.6294 50.1668 39.2138 50.3934 38.4929 50.7882C38.1293 50.976 37.7071 51.2478 37.2136 51.5326C36.7136 51.811 36.1875 52.1864 35.5901 52.5618C35.2913 52.7496 34.9991 52.9761 34.6874 53.1897C34.3822 53.4163 34.051 53.6234 33.7392 53.8823C33.421 54.1283 33.0963 54.3872 32.7651 54.6462C32.4339 54.9051 32.1157 55.2028 31.7845 55.4812C31.6222 55.6236 31.4533 55.766 31.2845 55.9149C31.1221 56.0702 30.9598 56.2256 30.8039 56.3809C30.4857 56.6981 30.1415 57.0023 29.8298 57.3389C29.5181 57.6755 29.2064 58.0121 28.8946 58.3552C28.5764 58.6918 28.3037 59.0672 28.0049 59.4232L27.5633 59.9605L27.1607 60.5236C26.9009 60.9056 26.6152 61.268 26.3749 61.65C25.9009 62.4267 25.4138 63.1776 25.0436 63.9608C24.9462 64.155 24.8488 64.3427 24.7514 64.5304C24.654 64.7182 24.5566 64.9059 24.4786 65.1001C24.3163 65.482 24.1604 65.8574 24.0046 66.2199C23.9331 66.4011 23.8422 66.5759 23.7838 66.7572C23.7253 66.9384 23.6604 67.1197 23.6019 67.2944C23.485 67.644 23.3681 67.987 23.2577 68.3107C23.1344 68.6343 23.0759 68.958 22.9915 69.2622C22.9136 69.5665 22.8421 69.8513 22.7707 70.1231C22.6148 70.6604 22.5564 71.1459 22.4849 71.5407C22.3486 72.3304 22.2706 72.7771 22.2706 72.7771L22.2577 72.8353C22.1862 73.269 21.7706 73.5538 21.342 73.4826C20.9069 73.4114 20.6211 72.9971 20.6926 72.5699C20.6926 72.557 20.6991 72.544 20.6991 72.5311C20.6991 72.5311 20.803 72.0586 20.9913 71.2365C21.0887 70.8287 21.1796 70.3238 21.368 69.7671C21.4524 69.4888 21.5498 69.191 21.6472 68.8738C21.7511 68.5631 21.8355 68.2265 21.9784 67.8899C22.1148 67.5533 22.2512 67.2038 22.394 66.8413C22.4655 66.6601 22.5369 66.4788 22.6148 66.2911C22.6863 66.1034 22.7902 65.9286 22.8746 65.7409C23.0564 65.3719 23.2448 64.99 23.4331 64.6016C23.524 64.4075 23.6344 64.2133 23.7448 64.0256C23.8552 63.8378 23.9721 63.6436 24.0825 63.4495C24.5111 62.6597 25.0566 61.9089 25.5891 61.1321C25.8619 60.7502 26.1736 60.3877 26.4593 60.0123L26.9009 59.4556L27.3815 58.9248C27.7062 58.5753 28.0114 58.2063 28.3491 57.8762C28.6868 57.5461 29.0245 57.2159 29.3622 56.8923C29.6999 56.5686 30.0636 56.2774 30.4013 55.9731C30.5766 55.8242 30.7455 55.6754 30.9143 55.5265C31.0896 55.3906 31.2715 55.2481 31.4468 55.1122C31.804 54.8403 32.1352 54.562 32.4859 54.316C32.8366 54.0701 33.1808 53.8306 33.512 53.5975C33.8367 53.358 34.1808 53.1638 34.5056 52.9502C34.8303 52.7496 35.1355 52.5424 35.4472 52.3677C36.0641 52.0181 36.6161 51.675 37.1292 51.4226C37.6422 51.1572 38.0773 50.9112 38.454 50.7429C39.2008 50.374 39.6294 50.1668 39.6294 50.1668Z" fill="#FEE844"/>
<path d="M36.9674 44.2507C36.9674 44.2507 36.4544 44.1731 35.5517 44.0436C35.0971 43.9854 34.5516 43.9336 33.9217 43.8624C33.2917 43.8106 32.5774 43.7523 31.7981 43.72C31.0188 43.7005 30.1746 43.6617 29.2849 43.6941C28.3952 43.6876 27.46 43.7717 26.4924 43.83C25.5248 43.94 24.5312 44.0307 23.5311 44.2119C23.0311 44.2896 22.5245 44.3673 22.0245 44.4902C21.5244 44.6003 21.0179 44.7039 20.5178 44.8204C19.5242 45.0987 18.5241 45.3382 17.5695 45.6813C17.0889 45.8496 16.6084 45.979 16.1473 46.1732C15.6862 46.3545 15.2316 46.5357 14.7835 46.7105C14.3289 46.8788 13.9068 47.0924 13.4847 47.2801C13.0626 47.4743 12.6535 47.6685 12.2573 47.8497C11.4845 48.264 10.7507 48.6589 10.0688 49.0214C9.4129 49.4227 8.81544 49.7916 8.28292 50.1218C8.01666 50.2771 7.77638 50.4454 7.55558 50.6008C7.33478 50.7561 7.13346 50.8985 6.94513 51.028C6.2113 51.5394 5.79568 51.8306 5.79568 51.8306L5.75671 51.8565C5.39953 52.109 4.90598 52.0184 4.65271 51.6623C4.39944 51.3063 4.49036 50.8079 4.84754 50.5619C4.86052 50.5555 4.86702 50.549 4.88001 50.5425C4.88001 50.5425 5.3281 50.2577 6.11389 49.7658C6.30871 49.6428 6.52951 49.5068 6.7633 49.358C6.99709 49.2091 7.25036 49.0472 7.5361 48.8984C8.10109 48.5877 8.73751 48.2381 9.43238 47.8562C10.1467 47.5131 10.9195 47.1442 11.7443 46.7558C12.1664 46.581 12.595 46.4063 13.0366 46.225C13.4782 46.0502 13.9198 45.8496 14.3939 45.7007C14.8615 45.5389 15.3355 45.377 15.8161 45.2152C16.2967 45.0405 16.7967 44.9304 17.2968 44.7815C18.2904 44.4773 19.3229 44.2766 20.349 44.0436C20.8685 43.9465 21.388 43.8688 21.9011 43.7847C22.4141 43.6876 22.9336 43.6358 23.4467 43.5776C24.4727 43.4416 25.4858 43.3963 26.4664 43.3316C27.447 43.3186 28.3952 43.2798 29.2979 43.3251C30.1941 43.3381 31.0448 43.4157 31.8241 43.474C32.6034 43.5452 33.3177 43.6358 33.9477 43.72C34.5776 43.8235 35.1231 43.9012 35.5712 43.9789C36.4544 44.1536 36.9674 44.2507 36.9674 44.2507Z" fill="#FEE844"/>
<path d="M40.0279 38.4843C40.0279 38.4843 39.6513 38.1348 38.9954 37.5199C38.6642 37.2156 38.255 36.8531 37.7875 36.4389C37.3199 36.0246 36.7744 35.578 36.1834 35.086C35.573 34.6135 34.9365 34.0762 34.2222 33.5648C33.865 33.3059 33.5078 33.0276 33.1312 32.7622C32.748 32.4968 32.3649 32.2314 31.9687 31.9595C31.5791 31.6812 31.157 31.4352 30.7413 31.1634C30.3257 30.898 29.9036 30.6261 29.4685 30.3801C29.0334 30.1277 28.5983 29.8623 28.1567 29.6163C27.7086 29.3768 27.2605 29.1308 26.8124 28.8913C26.3708 28.6389 25.8967 28.4317 25.4486 28.2052C24.9941 27.9851 24.5395 27.7521 24.0784 27.5579C23.6173 27.3572 23.1627 27.1566 22.7146 26.9624C22.26 26.7747 21.8054 26.6064 21.3638 26.4316C20.4806 26.0691 19.5974 25.8037 18.7727 25.5189C18.3636 25.37 17.9479 25.2664 17.5518 25.1499C17.1557 25.0399 16.7725 24.9298 16.4088 24.8263C15.675 24.6256 14.9866 24.4897 14.3892 24.3408C13.7917 24.1854 13.2592 24.1078 12.8241 24.0301C11.9539 23.8747 11.4538 23.7841 11.4538 23.7841L11.4149 23.7776C10.9862 23.7 10.7005 23.2857 10.7784 22.8585C10.8564 22.4313 11.272 22.1464 11.7006 22.2241C11.7136 22.2241 11.7266 22.2306 11.7396 22.2306C11.7396 22.2306 12.2461 22.3471 13.1423 22.5542C13.5839 22.6643 14.1294 22.7679 14.7398 22.9556C15.3503 23.1368 16.0452 23.3116 16.792 23.5511C17.1621 23.6741 17.5453 23.8035 17.9479 23.9395C18.3441 24.0754 18.7597 24.2049 19.1753 24.3732C20.0066 24.7033 20.8963 25.0205 21.7795 25.4347C22.2211 25.6354 22.6821 25.8231 23.1302 26.0432C23.5783 26.2633 24.0329 26.4898 24.494 26.7164C24.9551 26.9365 25.4032 27.1889 25.8578 27.4414C26.3059 27.6938 26.7734 27.9269 27.2085 28.2052C27.6501 28.4706 28.0982 28.7425 28.5398 29.0078C28.9749 29.2797 29.4036 29.571 29.8257 29.8493C30.2543 30.1212 30.6699 30.4125 31.0725 30.7038C31.4752 30.9951 31.8843 31.2669 32.2675 31.5647C32.6506 31.856 33.0273 32.1473 33.3974 32.4321C33.7676 32.7169 34.1118 33.0146 34.456 33.293C35.1508 33.8432 35.7678 34.4128 36.3523 34.9177C36.9172 35.442 37.4433 35.9146 37.8914 36.3547C38.3395 36.7949 38.7356 37.1703 39.0473 37.494C39.6707 38.1154 40.0279 38.4843 40.0279 38.4843Z" fill="#4CFFFF"/>
<path d="M43.3261 36.9559C43.3261 36.9559 43.1377 36.4964 42.8195 35.6808C42.6572 35.2794 42.4688 34.781 42.2545 34.2114C42.0337 33.6418 41.7999 33.0009 41.5532 32.2954C41.2934 31.5898 41.0466 30.8195 40.7739 30.0039C40.5076 29.1883 40.2478 28.3209 39.9816 27.4212C39.7348 26.515 39.4621 25.5893 39.2348 24.6248C38.988 23.6733 38.7867 22.6894 38.5789 21.7055C38.475 21.2136 38.4035 20.7151 38.3126 20.2232C38.2217 19.7312 38.1438 19.2393 38.0853 18.7474C38.0204 18.2554 37.9619 17.7699 37.897 17.2845C37.858 16.799 37.8191 16.32 37.7801 15.8474C37.7346 15.3749 37.7216 14.9089 37.7087 14.4557C37.7022 13.9962 37.6762 13.5495 37.6827 13.1158C37.6957 12.6757 37.7151 12.2549 37.7281 11.8406C37.7346 11.6335 37.7411 11.4328 37.7476 11.2322C37.7671 11.0315 37.7866 10.8373 37.8061 10.6496C37.845 10.2677 37.884 9.90521 37.923 9.55567C37.9359 9.3809 37.9619 9.2126 37.9944 9.05077C38.0269 8.88895 38.0528 8.72712 38.0853 8.57177C38.2087 7.95683 38.2801 7.4131 38.4295 6.97941C38.6763 6.10555 38.8191 5.60713 38.8191 5.60713C38.936 5.18638 39.3776 4.94041 39.7998 5.0634C40.2219 5.17991 40.4686 5.62008 40.3453 6.04082C40.3453 6.05377 40.3388 6.06024 40.3323 6.07319L40.3063 6.15086C40.3063 6.15086 40.1504 6.60397 39.8842 7.39368C39.7283 7.78206 39.6374 8.28696 39.4945 8.85658C39.4621 8.99899 39.4231 9.14787 39.3906 9.29675C39.3517 9.44563 39.3192 9.60745 39.2997 9.76928C39.2478 10.0994 39.1958 10.4425 39.1374 10.7985C39.1114 10.9797 39.0789 11.161 39.0529 11.3487C39.0399 11.5364 39.0205 11.7306 39.001 11.9248C38.9685 12.3196 38.936 12.7274 38.8971 13.1417C38.8711 13.5625 38.8711 13.9962 38.8581 14.4363C38.8451 14.8765 38.8321 15.3296 38.8581 15.7892C38.8711 16.2488 38.8841 16.7213 38.9036 17.1938C38.9425 17.6664 38.975 18.1454 39.014 18.6308C39.0464 19.1163 39.1049 19.6018 39.1633 20.0873C39.2283 20.5727 39.2737 21.0647 39.3517 21.5566C39.5075 22.5341 39.6569 23.5115 39.8517 24.4695C40.027 25.4275 40.2478 26.3661 40.4492 27.2723C40.67 28.1785 40.8843 29.0524 41.1116 29.8745C41.3389 30.6965 41.5532 31.4798 41.774 32.1918C41.9883 32.9103 42.1831 33.5641 42.3779 34.1402C42.5662 34.7163 42.7221 35.2212 42.8715 35.6355C43.1637 36.4899 43.3261 36.9559 43.3261 36.9559Z" fill="#FEE844"/>
<path d="M49.0977 36.2832C49.0977 36.2832 49.221 35.7978 49.4289 34.9433C49.5522 34.5226 49.6951 34.0047 49.864 33.4157C50.0588 32.8331 50.2536 32.1729 50.5134 31.4608C50.6433 31.1048 50.7796 30.7359 50.916 30.354C51.0719 29.9785 51.2277 29.5837 51.3901 29.1888C51.5459 28.7875 51.7278 28.3797 51.9226 27.9654C52.1174 27.5511 52.2928 27.1239 52.5071 26.7032C52.7214 26.2824 52.9357 25.8487 53.15 25.415C53.3773 24.9814 53.6241 24.5541 53.8578 24.1204C54.0916 23.6803 54.3514 23.2531 54.6177 22.8258C54.8839 22.3986 55.1307 21.952 55.4164 21.5377C55.6957 21.117 55.9749 20.6962 56.2542 20.2755C56.5334 19.8547 56.8386 19.4599 57.1309 19.0521C57.7024 18.2365 58.3388 17.4856 58.9233 16.7347C59.5272 16.0033 60.1376 15.3171 60.7156 14.6569C61.3131 14.0225 61.8781 13.4205 62.4106 12.8703C62.9561 12.3396 63.4561 11.8541 63.9042 11.4204C64.3458 10.9867 64.7615 10.6436 65.0927 10.3394C65.7551 9.74388 66.1382 9.40728 66.1382 9.40728C66.4629 9.11599 66.963 9.14188 67.2617 9.46554C67.5539 9.78919 67.528 10.2941 67.2032 10.5854C67.1968 10.5918 67.1838 10.5983 67.1773 10.6113L67.1513 10.6307C67.1513 10.6307 66.7681 10.9414 66.0927 11.4851C65.7615 11.7635 65.3329 12.0806 64.8848 12.482C64.4303 12.8833 63.9172 13.3299 63.3587 13.8283C62.8197 14.3462 62.2352 14.9029 61.6183 15.4919C61.0273 16.1068 60.3974 16.7477 59.7675 17.4338C59.157 18.1394 58.5011 18.8449 57.8972 19.6152C57.592 19.9971 57.2737 20.3726 56.975 20.7739C56.6828 21.1752 56.3841 21.5701 56.0918 21.9714C55.7866 22.3663 55.5268 22.7935 55.2411 23.2013C54.9618 23.6091 54.6826 24.0169 54.4293 24.4441C54.1696 24.8648 53.9098 25.2726 53.663 25.6869C53.4292 26.1077 53.1954 26.5219 52.9617 26.9297C52.7214 27.3311 52.533 27.7518 52.3187 28.1467C52.1109 28.548 51.9096 28.9364 51.7343 29.3312C51.5524 29.7196 51.3771 30.1015 51.2082 30.464C51.0524 30.8394 50.8965 31.1954 50.7537 31.545C50.4614 32.2376 50.2341 32.8849 50.0133 33.4545C49.8185 34.0306 49.6497 34.5355 49.5068 34.9498C49.2405 35.8042 49.0977 36.2832 49.0977 36.2832Z" fill="#FEE844"/>
<path d="M53.8008 41.1634C53.8008 41.1634 54.158 40.8139 54.7944 40.2183C55.4308 39.6228 56.353 38.7813 57.4959 37.8168C59.7754 35.8814 62.9835 33.4605 66.5292 31.5445C67.4124 31.059 68.3151 30.6188 69.2243 30.211C70.127 29.7968 71.0491 29.4472 71.9453 29.1301C72.848 28.8194 73.7312 28.5604 74.5819 28.3533C75.0041 28.2433 75.4262 28.1721 75.8288 28.0814C76.2379 28.0167 76.6276 27.939 77.0107 27.8872C77.7705 27.7837 78.4784 27.7189 79.1083 27.6866C79.4201 27.6801 79.7188 27.6672 79.9915 27.6607C80.2643 27.6672 80.5176 27.6672 80.7384 27.6736C81.1929 27.6736 81.5436 27.7189 81.7904 27.7254C82.0307 27.7448 82.1606 27.7513 82.1606 27.7513C82.5957 27.7837 82.9269 28.1591 82.8944 28.5993C82.8619 29.033 82.4853 29.3631 82.0437 29.3307C82.0307 29.3307 82.0177 29.3307 82.0112 29.3242L81.9657 29.3178C81.9657 29.3178 81.8489 29.3048 81.6216 29.2789C81.4008 29.2595 81.0696 29.2013 80.6539 29.1818C80.4461 29.1689 80.2123 29.1495 79.9591 29.1365C79.7058 29.1301 79.433 29.1236 79.1343 29.1236C78.5498 29.1236 77.8809 29.1495 77.1601 29.2142C76.7964 29.2466 76.4198 29.2984 76.0301 29.3437C75.6405 29.4084 75.2378 29.4602 74.8287 29.5443C74.004 29.6997 73.1467 29.9068 72.2635 30.1593C71.3868 30.4247 70.4777 30.7159 69.575 31.072C68.6723 31.4215 67.7631 31.8164 66.8799 32.2436C63.3082 33.946 60.0027 36.1921 57.6388 38.0046C56.4504 38.9108 55.4957 39.7005 54.8268 40.2636C54.1709 40.8268 53.8008 41.1634 53.8008 41.1634Z" fill="#FEE844"/>
<path d="M51.832 46.1212C51.832 46.1212 52.3775 46.0694 53.3322 45.9853C53.8127 45.9594 54.3907 45.9205 55.0596 45.8947C55.7285 45.8882 56.4818 45.8493 57.3066 45.8817C57.7157 45.8947 58.1508 45.8882 58.5924 45.9141C59.034 45.94 59.4951 45.9659 59.9692 45.9982C60.4432 46.0241 60.9238 46.0888 61.4173 46.1342C61.6641 46.16 61.9174 46.1859 62.1642 46.2118C62.4174 46.2442 62.6707 46.283 62.924 46.3219C63.437 46.406 63.9565 46.4708 64.4826 46.5678C65.0021 46.6714 65.5346 46.7815 66.0671 46.885C66.6061 46.9821 67.1257 47.1439 67.6647 47.2734C68.1972 47.4093 68.7362 47.5388 69.2622 47.72C69.7883 47.8883 70.3208 48.0502 70.8468 48.2185C71.3598 48.4127 71.8794 48.6068 72.3859 48.7946C72.6392 48.8917 72.8989 48.9888 73.1522 49.0794C73.399 49.1894 73.6458 49.2995 73.8925 49.4095C74.3796 49.6296 74.8667 49.8432 75.3407 50.0503C75.8083 50.2769 76.2564 50.5229 76.7045 50.7494C77.1461 50.9824 77.5942 51.1896 78.0033 51.4356C78.8216 51.9275 79.6074 52.3806 80.3087 52.8273C80.9971 53.2998 81.627 53.7335 82.1855 54.1154C82.4713 54.3031 82.7115 54.5038 82.9453 54.685C83.1791 54.8663 83.3869 55.0345 83.5818 55.1834C84.3481 55.7854 84.7897 56.1285 84.7897 56.1285C85.1338 56.4004 85.1923 56.8988 84.926 57.2418C84.6533 57.5849 84.1532 57.6432 83.809 57.3778C83.8026 57.3713 83.7896 57.3648 83.7831 57.3584L83.7441 57.326C83.7441 57.326 83.335 56.9765 82.6206 56.3615C82.4388 56.2062 82.244 56.0379 82.0297 55.8502C81.8154 55.6689 81.5881 55.4553 81.3218 55.2676C80.7958 54.8727 80.2048 54.4261 79.5619 53.9406C78.8995 53.4746 78.1592 53.0085 77.3864 52.4907C76.9967 52.2317 76.5746 52.0117 76.159 51.7657C75.7369 51.5262 75.3083 51.2673 74.8602 51.0278C74.4056 50.8012 73.9445 50.5682 73.4769 50.3351C73.2431 50.2186 73.0093 50.1021 72.7691 49.9856C72.5288 49.882 72.282 49.7785 72.0352 49.6749C71.5482 49.4678 71.0481 49.2541 70.5546 49.0405C70.048 48.8528 69.535 48.6716 69.0284 48.4839C68.5219 48.2897 68.0024 48.1343 67.4828 47.979C66.9633 47.8301 66.4503 47.6488 65.9308 47.5259C65.4112 47.3964 64.8917 47.2669 64.3852 47.1439C63.8721 47.0274 63.3591 46.9368 62.859 46.8332C62.6058 46.7879 62.359 46.7297 62.1122 46.6908C61.8654 46.652 61.6187 46.6196 61.3719 46.5808C60.8848 46.5161 60.4108 46.4254 59.9432 46.3801C59.4756 46.3283 59.021 46.283 58.5794 46.2377C58.1378 46.1924 57.7157 46.1795 57.3066 46.1471C56.4883 46.0824 55.735 46.0824 55.0661 46.063C54.3972 46.0565 53.8192 46.0759 53.3387 46.0759C52.384 46.0953 51.832 46.1212 51.832 46.1212Z" fill="#FEE844"/>
<path d="M52.6504 50.7119C52.6504 50.7119 52.9946 50.9578 53.605 51.3915C53.9038 51.6116 54.2869 51.864 54.696 52.1812C55.0987 52.5113 55.5533 52.8803 56.0533 53.2881C56.5663 53.683 57.0599 54.1684 57.5989 54.6669C58.1379 55.1718 58.7224 55.6831 59.2614 56.2786C59.8134 56.8612 60.3849 57.4697 60.9629 58.0781C61.5019 58.7254 62.0539 59.3857 62.5994 60.0459C63.1709 60.6932 63.6579 61.3988 64.158 62.0785C64.6515 62.7646 65.1581 63.4249 65.6126 64.0916C66.0477 64.7712 66.4634 65.425 66.8595 66.0464C67.0608 66.3571 67.2492 66.6614 67.4375 66.9526C67.6258 67.2439 67.8141 67.5287 67.957 67.8136C69.2104 70.0726 70.0481 71.5744 70.0481 71.5744C70.2624 71.9563 70.1196 72.4418 69.7364 72.6489C69.3532 72.8625 68.8662 72.7201 68.6584 72.3382C68.6519 72.3253 68.6454 72.3123 68.6389 72.2994L68.6194 72.254C68.6194 72.254 67.8856 70.7329 66.7881 68.4544C66.6582 68.1631 66.4893 67.8783 66.327 67.5805C66.1581 67.2828 65.9893 66.9721 65.814 66.6549C65.4568 66.0205 65.0866 65.3538 64.697 64.6612C64.2878 63.9815 63.8333 63.3019 63.3852 62.6028C62.9306 61.9037 62.489 61.1787 61.9694 60.512C61.4629 59.8323 60.9629 59.1462 60.4693 58.4795C59.9303 57.8386 59.4043 57.2108 58.8912 56.6023C58.3912 55.9809 57.8457 55.4436 57.3391 54.9128C56.8326 54.3885 56.365 53.8772 55.8845 53.4564C55.4169 53.0227 54.9818 52.6279 54.5986 52.2783C54.209 51.9353 53.8453 51.6634 53.5596 51.4239C52.9816 50.9772 52.6504 50.7119 52.6504 50.7119Z" fill="#F610F8"/>
<path d="M48.7616 52.2065C48.7616 52.2065 48.7291 52.6402 48.6642 53.3911C48.6382 53.7665 48.6187 54.2261 48.5927 54.7504C48.5668 55.2748 48.5603 55.8703 48.5538 56.5176C48.5668 57.1649 48.5538 57.864 48.5992 58.6019C48.6187 58.9708 48.6252 59.3528 48.6577 59.7411C48.6901 60.1295 48.7226 60.5244 48.7551 60.9257C48.7811 61.327 48.846 61.7348 48.8915 62.1426C48.9369 62.5569 48.9889 62.9712 49.0668 63.3854C49.1382 63.7997 49.1967 64.2205 49.2746 64.6412C49.359 65.062 49.45 65.4762 49.5344 65.897C49.6123 66.3177 49.7357 66.732 49.8331 67.1463C49.937 67.5605 50.0344 67.9748 50.1643 68.3761C50.2877 68.7775 50.4111 69.1788 50.528 69.5736C50.6514 69.9685 50.8007 70.3439 50.9306 70.7258C51.1839 71.4832 51.5021 72.1887 51.7813 72.8684C51.9112 73.2115 52.0801 73.5287 52.2229 73.8394C52.3723 74.1501 52.5152 74.4478 52.6516 74.7391C52.9373 75.3087 53.2295 75.8136 53.4763 76.2667C53.7166 76.7263 53.9699 77.1018 54.1582 77.4189C54.5478 78.0468 54.7751 78.4093 54.7751 78.4093L54.8011 78.4481C55.0349 78.8171 54.918 79.3091 54.5478 79.5356C54.1777 79.7686 53.6841 79.6521 53.4568 79.2832C53.4503 79.2702 53.4438 79.2573 53.4373 79.2443C53.4373 79.2443 53.223 78.8559 52.8529 78.1763C52.671 77.8332 52.4308 77.4319 52.21 76.9399C51.9827 76.4545 51.7099 75.9107 51.4501 75.3023C51.3268 74.998 51.1904 74.6809 51.0605 74.3507C50.9241 74.0206 50.7813 73.684 50.6579 73.328C50.4111 72.616 50.1253 71.8716 49.911 71.0754C49.8006 70.6805 49.6708 70.2792 49.5669 69.8714C49.4694 69.4636 49.3655 69.0429 49.2681 68.6286C49.1577 68.2143 49.0863 67.7806 49.0019 67.3534C48.9239 66.9262 48.82 66.499 48.7681 66.0653C48.7031 65.6316 48.6382 65.2044 48.5797 64.7707C48.5278 64.337 48.4888 63.9098 48.4434 63.4825C48.3914 63.0553 48.3654 62.6346 48.3395 62.2138C48.32 61.7931 48.2745 61.3788 48.2745 60.971C48.2615 60.5632 48.255 60.1619 48.2421 59.7735C48.2356 59.3786 48.2485 58.9967 48.2485 58.6213C48.2485 57.8769 48.3005 57.1713 48.3265 56.524C48.3784 55.8767 48.4174 55.2812 48.4693 54.7569C48.5278 54.2326 48.5733 53.773 48.6252 53.3976C48.7031 52.6338 48.7616 52.2065 48.7616 52.2065Z" fill="#4CFFFF"/>
<path d="M40.9949 51.8497C40.9949 51.8497 40.6247 52.141 39.9818 52.6588C39.6571 52.9113 39.287 53.2479 38.8519 53.6168C38.4103 53.9793 37.9557 54.4389 37.4361 54.9114C37.1764 55.1445 36.9296 55.4163 36.6568 55.6882C36.3971 55.9601 36.1048 56.2254 35.8451 56.5297C35.5788 56.8274 35.2996 57.1381 35.0203 57.4488C34.7411 57.766 34.4813 58.1091 34.2021 58.4457C34.0657 58.614 33.9228 58.7888 33.7864 58.9571C33.6566 59.1383 33.5267 59.3196 33.3903 59.5008C33.1305 59.8698 32.8513 60.2258 32.598 60.6077C32.3512 60.9961 32.1045 61.378 31.8512 61.7728C31.5979 62.1612 31.3901 62.5755 31.1628 62.9768L30.8251 63.5853L30.5264 64.2132C30.3316 64.6339 30.1173 65.0417 29.9484 65.4624C29.6172 66.3104 29.2665 67.1325 29.0392 67.9675C28.9743 68.1746 28.9094 68.3753 28.8509 68.5824C28.786 68.7831 28.7275 68.9838 28.6821 69.1909C28.5912 69.5922 28.5002 69.9871 28.4093 70.3755C28.3704 70.5696 28.3119 70.7574 28.2859 70.9451C28.26 71.1328 28.2275 71.3205 28.2015 71.5018C28.1431 71.8707 28.0911 72.2203 28.0392 72.5633C27.9742 72.8999 27.9742 73.2301 27.9417 73.5408C27.9158 73.8515 27.8963 74.1492 27.8768 74.4276C27.8184 74.9842 27.8443 75.4697 27.8443 75.8711C27.8508 76.6672 27.8508 77.1268 27.8508 77.1268V77.1851C27.8508 77.6252 27.5001 77.9813 27.0585 77.9813C26.6169 77.9813 26.2663 77.6317 26.2598 77.1915C26.2598 77.1786 26.2598 77.1657 26.2598 77.1527C26.2598 77.1527 26.2857 76.6737 26.3247 75.8257C26.3507 75.405 26.3507 74.8936 26.4416 74.3111C26.4806 74.0198 26.5195 73.7091 26.5585 73.3854C26.604 73.0618 26.6299 72.7122 26.7144 72.3627C26.7858 72.0067 26.8637 71.6442 26.9416 71.2623C26.9806 71.0745 27.0196 70.8804 27.0585 70.6797C27.0975 70.4855 27.1689 70.2913 27.2209 70.0907C27.3378 69.6958 27.4547 69.288 27.5716 68.8737C27.6235 68.6666 27.7015 68.4594 27.7794 68.2523C27.8573 68.0452 27.9352 67.838 28.0132 67.6244C28.2989 66.77 28.708 65.935 29.0912 65.0805C29.2925 64.6533 29.5328 64.2455 29.7536 63.8248L30.0913 63.1969L30.4744 62.5949C30.7342 62.1936 30.968 61.7793 31.2472 61.3974C31.5265 61.0155 31.7992 60.6271 32.072 60.2517C32.3512 59.8762 32.65 59.5267 32.9357 59.1642C33.0786 58.9894 33.2215 58.8082 33.3643 58.6334C33.5137 58.4651 33.6631 58.2968 33.8124 58.135C34.1111 57.8113 34.3969 57.4747 34.6956 57.1705C34.9943 56.8663 35.2931 56.575 35.5788 56.2837C35.8581 55.9924 36.1633 55.74 36.4425 55.4746C36.7283 55.2221 36.988 54.9632 37.2673 54.7367C37.8128 54.29 38.2999 53.8563 38.7609 53.5133C39.222 53.1637 39.6052 52.8465 39.9429 52.6135C40.6118 52.1216 40.9949 51.8497 40.9949 51.8497Z" fill="#4CFFFF"/>
<path d="M36.9488 45.7278C36.9488 45.7278 36.4293 45.7407 35.5201 45.7666C35.0655 45.7861 34.5135 45.8314 33.8836 45.8702C33.2536 45.9285 32.5393 45.9997 31.773 46.0968C31.0002 46.2068 30.1689 46.3233 29.2987 46.5046C28.422 46.6534 27.5128 46.8994 26.5712 47.126C25.6425 47.3978 24.6749 47.6632 23.7203 48.0128C23.2397 48.1746 22.7527 48.3429 22.2851 48.5436C21.811 48.7378 21.3305 48.9255 20.8564 49.1261C19.9277 49.5728 18.9796 49.9806 18.1029 50.4855C17.6613 50.7314 17.2067 50.945 16.7911 51.2169C16.369 51.4758 15.9533 51.7348 15.5442 51.9872C15.1286 52.2267 14.7454 52.5115 14.3688 52.7769C13.9921 53.0423 13.6154 53.3012 13.2583 53.5537C12.5699 54.0974 11.914 54.6153 11.31 55.0878C10.7386 55.5991 10.2125 56.0652 9.74496 56.4795C9.48519 56.6737 9.27738 56.8808 9.08905 57.0685C8.90072 57.2562 8.72538 57.431 8.56303 57.5928C7.9331 58.2207 7.56943 58.5832 7.56943 58.5832L7.53696 58.6156C7.22524 58.9263 6.72519 58.9263 6.41348 58.6156C6.10176 58.3049 6.10176 57.8064 6.41348 57.4957C6.41997 57.4893 6.43296 57.4763 6.43945 57.4699C6.43945 57.4699 6.8291 57.1138 7.51747 56.4924C7.68632 56.3371 7.88115 56.1688 8.08246 55.9811C8.28378 55.7933 8.51107 55.5927 8.76434 55.392C9.26439 54.9907 9.82938 54.5311 10.4463 54.0327C11.0892 53.5731 11.7906 53.0747 12.5309 52.5504C12.9141 52.3109 13.3102 52.0584 13.7129 51.806C14.1155 51.5535 14.5181 51.2816 14.9597 51.0551C15.3948 50.8156 15.8299 50.5761 16.278 50.3301C16.7196 50.0777 17.1937 49.877 17.6613 49.644C18.5834 49.1714 19.5705 48.796 20.5382 48.3947C21.0317 48.2134 21.5318 48.0451 22.0188 47.8704C22.5059 47.6891 23.0124 47.5402 23.506 47.3978C24.4931 47.0871 25.4867 46.867 26.4413 46.634C27.4089 46.4528 28.3311 46.2521 29.2273 46.1421C30.117 45.9997 30.9612 45.9285 31.7405 45.8508C32.5198 45.7861 33.2407 45.7537 33.8706 45.7213C34.507 45.7149 35.059 45.6954 35.5136 45.6954C36.4293 45.7149 36.9488 45.7278 36.9488 45.7278Z" fill="#4CFFFF"/>
<path d="M38.9625 39.5126C38.9625 39.5126 38.5339 39.2278 37.7806 38.7358C37.4039 38.4898 36.9363 38.2115 36.4038 37.8814C35.8713 37.5577 35.2544 37.2082 34.5855 36.8263C33.9036 36.4638 33.1828 36.0495 32.3905 35.6676C31.9943 35.4734 31.5982 35.2598 31.1761 35.0656C30.754 34.8714 30.3253 34.6772 29.8902 34.4766C29.4551 34.2694 29.0005 34.1011 28.546 33.9069C28.0914 33.7128 27.6303 33.525 27.1562 33.3567C26.6821 33.182 26.2146 32.9943 25.734 32.8324C25.2534 32.6706 24.7664 32.5088 24.2793 32.3534C23.7988 32.1851 23.2987 32.0621 22.8117 31.9133C22.3246 31.7773 21.8375 31.622 21.3505 31.5184C20.8634 31.4019 20.3764 31.2854 19.9023 31.1689C19.4217 31.0588 18.9477 30.9747 18.4801 30.8776C17.5449 30.6769 16.6293 30.5604 15.7655 30.4245C15.3369 30.3533 14.9083 30.3144 14.5057 30.2756C14.0966 30.2303 13.7004 30.1914 13.3238 30.1526C12.5639 30.0814 11.8691 30.0684 11.2521 30.0231C10.6352 29.9778 10.0962 29.9908 9.65458 29.9843C8.77138 29.9778 8.26484 29.9778 8.26484 29.9778H8.22588C7.78428 29.9778 7.43359 29.6218 7.43359 29.1816C7.43359 28.748 7.79726 28.3919 8.23237 28.3919C8.24536 28.3919 8.25835 28.3919 8.27133 28.3919C8.27133 28.3919 8.79086 28.4178 9.70653 28.4696C10.1611 28.4955 10.7196 28.5085 11.3495 28.5861C11.9795 28.6573 12.7003 28.7091 13.4731 28.8192C13.8628 28.8774 14.2654 28.9357 14.681 29.0004C15.0966 29.0651 15.5318 29.1234 15.9669 29.2205C16.8436 29.4017 17.7722 29.5636 18.7139 29.816C19.1879 29.939 19.6685 30.0426 20.1556 30.1785C20.6361 30.3209 21.1232 30.4633 21.6102 30.6057C22.1038 30.7416 22.5909 30.9164 23.0779 31.0782C23.565 31.253 24.065 31.3954 24.5456 31.5961C25.0261 31.7838 25.5132 31.9715 25.9938 32.1528C26.4743 32.3469 26.9419 32.5541 27.4095 32.7547C27.8771 32.9489 28.3381 33.1625 28.7862 33.3826C29.2343 33.6027 29.6889 33.7969 30.1175 34.0235C30.5461 34.2435 30.9683 34.4636 31.3839 34.6772C31.7995 34.8908 32.1892 35.1239 32.5788 35.3375C33.3581 35.7582 34.066 36.2113 34.7284 36.6062C35.3778 37.0269 35.9752 37.4024 36.4948 37.7519C37.0143 38.1079 37.4689 38.4122 37.8325 38.6776C38.5469 39.2083 38.9625 39.5126 38.9625 39.5126Z" fill="#FEE844"/>
<path d="M42.706 39.1315C42.706 39.1315 42.5047 38.8014 42.1475 38.2253C41.9657 37.9405 41.7579 37.5845 41.5176 37.1767C41.2708 36.7689 41.0046 36.3093 40.7188 35.7979C40.4266 35.293 40.1279 34.7364 39.8097 34.1473C39.4914 33.5583 39.1797 32.9304 38.8485 32.2766C38.5368 31.6164 38.1991 30.9432 37.9004 30.2376C37.5822 29.5385 37.2964 28.8136 37.0042 28.0886C36.8613 27.7261 36.7379 27.3571 36.6016 26.9882C36.4652 26.6192 36.3353 26.2567 36.2249 25.8878C36.108 25.5188 35.9976 25.1563 35.8807 24.7938C35.7833 24.4249 35.6924 24.0624 35.595 23.7064C35.4911 23.3503 35.4196 22.9943 35.3547 22.6448C35.2833 22.2952 35.2053 21.9586 35.1534 21.622C35.1079 21.2854 35.0625 20.9553 35.017 20.6381C34.9975 20.4763 34.9715 20.321 34.9521 20.1721C34.9391 20.0167 34.9326 19.8679 34.9196 19.719C34.8806 19.1235 34.8287 18.5797 34.8546 18.0878C34.8676 17.6023 34.8482 17.1751 34.9001 16.8191C34.9715 16.1135 35.017 15.7122 35.017 15.7122C35.0495 15.3756 35.3547 15.1296 35.6924 15.162C36.0301 15.1943 36.2769 15.4986 36.2444 15.8352C36.2444 15.8416 36.2444 15.8546 36.2379 15.8611L36.2249 15.9193C36.2249 15.9193 36.1665 16.2883 36.069 16.9291C36.0041 17.2463 35.9976 17.6476 35.9651 18.1072C35.9197 18.5603 35.9392 19.0781 35.9522 19.6478C35.9522 19.7902 35.9586 19.9326 35.9586 20.0815C35.9716 20.2303 35.9846 20.3792 35.9976 20.5346C36.0236 20.8388 36.0561 21.156 36.082 21.4796C36.121 21.8033 36.1794 22.1334 36.2314 22.4765C36.2834 22.8195 36.3353 23.1626 36.4132 23.5122C36.4847 23.8617 36.5626 24.2242 36.634 24.5802C36.725 24.9362 36.8224 25.2987 36.9133 25.6677C37.0042 26.0366 37.1146 26.3991 37.225 26.7681C37.3419 27.137 37.4393 27.506 37.5692 27.8685C37.8225 28.5999 38.0692 29.3314 38.3485 30.037C38.6082 30.749 38.9135 31.4351 39.1862 32.1083C39.4785 32.7686 39.7642 33.4159 40.0499 34.0179C40.3357 34.6199 40.6019 35.1895 40.8682 35.7073C41.128 36.2252 41.3682 36.7042 41.5955 37.1184C41.8163 37.5392 42.0047 37.9017 42.1735 38.1994C42.5177 38.7885 42.706 39.1315 42.706 39.1315Z" fill="#FEE844"/>
<path d="M47.041 37.8369C47.041 37.8369 47.067 37.4485 47.1125 36.7688C47.1449 36.4258 47.1904 36.018 47.2358 35.539C47.3073 35.0664 47.3657 34.5292 47.4696 33.9531C47.5216 33.6618 47.5735 33.364 47.632 33.0533C47.6969 32.7426 47.7684 32.4255 47.8333 32.0953C47.8982 31.7652 47.9827 31.4286 48.0736 31.0855C48.1645 30.7425 48.2424 30.3865 48.3528 30.0369C48.4567 29.6809 48.5671 29.3249 48.671 28.9624C48.7879 28.5999 48.9178 28.2374 49.0412 27.8749C49.1581 27.506 49.301 27.1435 49.4503 26.781C49.5997 26.4185 49.7231 26.0431 49.8854 25.687C50.0413 25.3246 50.2036 24.9685 50.3595 24.6061C50.5154 24.25 50.6972 23.9005 50.866 23.5509C51.1908 22.8454 51.5804 22.1851 51.9246 21.5314C52.2883 20.8905 52.6649 20.2756 53.0156 19.6995C53.3923 19.1299 53.7429 18.5991 54.0741 18.1007C54.4183 17.6217 54.7365 17.1815 55.0223 16.7866C55.3015 16.3918 55.5743 16.0746 55.7821 15.7963C56.2107 15.2525 56.4575 14.9418 56.4575 14.9418C56.6653 14.6764 57.0549 14.6247 57.3277 14.8383C57.5939 15.0454 57.6459 15.4338 57.4316 15.7057C57.4251 15.7121 57.4186 15.7186 57.4121 15.7251L57.3926 15.7445C57.3926 15.7445 57.1394 16.0358 56.6978 16.5471C56.477 16.8061 56.1977 17.1038 55.9055 17.4728C55.6132 17.8417 55.282 18.256 54.9184 18.7091C54.5742 19.1752 54.204 19.6801 53.8079 20.2173C53.4377 20.7676 53.0416 21.3501 52.6519 21.9586C52.2818 22.58 51.8726 23.2079 51.5155 23.8875C51.3336 24.2241 51.1388 24.5543 50.9635 24.8973C50.7946 25.2404 50.6193 25.5899 50.4439 25.9395C50.2621 26.2826 50.1192 26.6451 49.9569 26.9946C49.801 27.3441 49.6387 27.7002 49.5023 28.0562C49.3594 28.4122 49.2165 28.7617 49.0867 29.1113C48.9633 29.4673 48.8399 29.8168 48.7165 30.1599C48.5866 30.503 48.4957 30.846 48.3918 31.1826C48.2879 31.5192 48.184 31.8429 48.106 32.1665C48.0216 32.4902 47.9372 32.8074 47.8593 33.1051C47.7878 33.4094 47.7229 33.7071 47.658 33.9919C47.5281 34.5615 47.4437 35.0923 47.3462 35.5584C47.2748 36.0309 47.2099 36.4387 47.1579 36.7753C47.093 37.4485 47.041 37.8369 47.041 37.8369Z" fill="#F610F8"/>
<path d="M51.3047 40.9438C51.3047 40.9438 51.5385 40.6331 51.9411 40.0894C52.1424 39.8175 52.4022 39.4939 52.6879 39.1184C52.9737 38.743 53.3179 38.3352 53.688 37.8821C54.0582 37.4354 54.4803 36.9629 54.9154 36.458C55.37 35.9725 55.8376 35.4417 56.3571 34.9304C56.6169 34.6715 56.8701 34.4061 57.1429 34.1471C57.4156 33.8882 57.6949 33.6293 57.9806 33.3704C58.2599 33.105 58.5651 32.8655 58.8573 32.6066C59.1561 32.3541 59.4483 32.0952 59.76 31.8622C60.0717 31.6227 60.3835 31.3832 60.6887 31.1437C61.0134 30.9236 61.3316 30.697 61.6498 30.4769C61.8122 30.3669 61.968 30.2569 62.1304 30.1533C62.2927 30.0562 62.4551 29.9526 62.6239 29.8555C62.9486 29.6613 63.2668 29.4607 63.5915 29.2794C64.2539 28.9493 64.8774 28.5868 65.5138 28.3408C65.8255 28.2049 66.1372 28.0755 66.4295 27.9525C66.7347 27.8489 67.0334 27.7518 67.3127 27.6612C67.5984 27.5706 67.8647 27.467 68.1309 27.4023C68.3972 27.3375 68.6505 27.2793 68.8907 27.2275C69.131 27.1692 69.3518 27.1239 69.5596 27.0721C69.7675 27.0398 69.9623 27.0204 70.1376 26.9945C70.839 26.9038 71.2351 26.8521 71.2351 26.8521C71.5728 26.8067 71.8845 27.0462 71.93 27.3828C71.9754 27.7194 71.7352 28.0301 71.3975 28.0755C71.391 28.0755 71.378 28.0755 71.3715 28.0755L71.3066 28.0819C71.3066 28.0819 70.9364 28.1143 70.287 28.1661C70.1246 28.179 69.9428 28.192 69.748 28.2114C69.5531 28.2438 69.3453 28.2826 69.118 28.3279C68.8907 28.3667 68.6505 28.4121 68.3972 28.4574C68.1439 28.5027 67.8842 28.5933 67.6114 28.658C67.3387 28.7357 67.0529 28.8134 66.7607 28.8911C66.4749 28.9946 66.1762 29.1047 65.871 29.2212C65.2475 29.4218 64.6371 29.7455 63.9812 30.0303C63.6565 30.1857 63.3448 30.3669 63.0201 30.5417C62.8577 30.6258 62.6954 30.7164 62.533 30.8071C62.3707 30.8977 62.2148 31.0013 62.0524 31.0984C61.7342 31.299 61.4095 31.4997 61.0848 31.7003C60.7731 31.9204 60.4549 32.1405 60.1432 32.3606C59.825 32.5742 59.5262 32.8137 59.221 33.0467C58.9223 33.2862 58.6106 33.5063 58.3248 33.7588C58.0326 34.0047 57.7468 34.2442 57.4611 34.4837C57.1754 34.7232 56.9091 34.9822 56.6428 35.2217C56.0973 35.7007 55.6168 36.2056 55.1362 36.6651C54.6751 37.1441 54.2335 37.5908 53.8439 38.018C53.4542 38.4517 53.0906 38.8401 52.7853 39.1961C52.4801 39.5586 52.2074 39.8628 51.9931 40.1282C51.5515 40.6396 51.3047 40.9438 51.3047 40.9438Z" fill="#F610F8"/>
<path d="M52.1309 44.8661C52.1309 44.8661 52.54 44.7561 53.2608 44.5619C53.6245 44.4778 54.0661 44.3677 54.5726 44.2577C55.0857 44.1606 55.6572 44.0311 56.2936 43.9405C56.6118 43.8952 56.943 43.8305 57.2872 43.7916C57.6314 43.7528 57.9886 43.7139 58.3522 43.6686C58.7159 43.6233 59.099 43.6104 59.4822 43.578C59.8654 43.5457 60.2615 43.5198 60.6641 43.5198C61.0668 43.5133 61.4759 43.4939 61.8915 43.4939C62.3071 43.5068 62.7293 43.5133 63.1514 43.5262C63.5735 43.5262 64.0021 43.5845 64.4307 43.6104C64.8593 43.6427 65.2879 43.6686 65.7165 43.7334C66.1452 43.7916 66.5738 43.8434 66.9959 43.9017C67.418 43.9793 67.8401 44.057 68.2557 44.1347C68.4636 44.1735 68.6714 44.2124 68.8792 44.2512C69.087 44.303 69.2883 44.3548 69.4896 44.4001C69.8923 44.5037 70.2949 44.6008 70.6845 44.6978C71.4573 44.9309 72.2107 45.1574 72.912 45.4034C73.6069 45.6753 74.2693 45.9083 74.8668 46.1608C75.4577 46.4326 76.0032 46.6786 76.4838 46.8987C76.9643 47.1188 77.3605 47.3583 77.6982 47.5266C78.3671 47.8826 78.7502 48.0897 78.7502 48.0897C79.049 48.2515 79.1659 48.627 79.0035 48.9247C78.8412 49.2225 78.4645 49.339 78.1658 49.1772C78.1593 49.1707 78.1528 49.1707 78.1463 49.1642L78.1138 49.1448C78.1138 49.1448 77.7501 48.9312 77.1202 48.5558C76.802 48.3745 76.4253 48.1285 75.9708 47.8955C75.5162 47.6625 75.0031 47.3971 74.4381 47.1123C73.8667 46.8404 73.2367 46.5815 72.5743 46.2902C71.9054 46.0248 71.1846 45.7724 70.4378 45.507C70.0611 45.3969 69.6715 45.2804 69.2818 45.1639C69.087 45.1056 68.8922 45.0474 68.6908 44.9891C68.4895 44.9438 68.2882 44.892 68.0869 44.8467C67.6843 44.7496 67.2751 44.659 66.866 44.5619C66.4504 44.4907 66.0348 44.413 65.6191 44.3418C65.2035 44.2577 64.7814 44.2124 64.3658 44.1606C63.9437 44.1153 63.528 44.0441 63.1124 44.0247C62.6968 43.9988 62.2812 43.9664 61.872 43.9405C61.4629 43.9211 61.0603 43.9211 60.6641 43.9081C60.268 43.8952 59.8718 43.9017 59.4887 43.9146C59.1055 43.9276 58.7289 43.9211 58.3652 43.9535C58.0015 43.9793 57.6444 44.0052 57.3002 44.0247C56.956 44.0505 56.6248 44.0959 56.3066 44.1282C55.6702 44.1865 55.0922 44.29 54.5791 44.3677C54.0661 44.4519 53.6245 44.5425 53.2543 44.6072C52.5465 44.7755 52.1309 44.8661 52.1309 44.8661Z" fill="#F610F8"/>
<path d="M51.25 48.0901C51.25 48.0901 51.5487 48.2325 52.0748 48.4849C52.3345 48.6144 52.6592 48.7503 53.0164 48.9445C53.3736 49.1452 53.7697 49.3652 54.2048 49.6112C54.6529 49.8442 55.0945 50.1485 55.5816 50.4592C56.0621 50.7699 56.5817 51.0871 57.0752 51.469C57.5753 51.8444 58.0948 52.2263 58.6273 52.6212C59.1274 53.0484 59.6404 53.4756 60.1534 53.9093C60.6795 54.33 61.147 54.8026 61.6211 55.2557C62.0952 55.7153 62.5692 56.1554 63.0108 56.6021C63.433 57.0617 63.8421 57.5083 64.2317 57.9355C64.6149 58.3627 65.0045 58.7511 65.3162 59.146C66.5826 60.706 67.4268 61.7481 67.4268 61.7481C67.6411 62.0135 67.6022 62.4019 67.3359 62.6155C67.0697 62.8291 66.68 62.7903 66.4657 62.5249C66.4592 62.5184 66.4527 62.5055 66.4462 62.499L66.4267 62.4666C66.4267 62.4666 65.6604 61.3986 64.5045 59.7997C64.2187 59.3984 63.8616 58.9971 63.5109 58.5569C63.1537 58.1168 62.777 57.6572 62.3874 57.1782C61.9848 56.7121 61.5367 56.2525 61.1016 55.7735C60.66 55.301 60.2249 54.8026 59.7313 54.3624C59.2507 53.9093 58.7767 53.4497 58.3026 53.0031C57.8026 52.5888 57.3155 52.1745 56.8414 51.7797C56.3739 51.3654 55.8803 51.0288 55.4257 50.6922C54.9646 50.3621 54.536 50.0255 54.1139 49.773C53.6918 49.5077 53.3086 49.2617 52.9709 49.0481C52.6267 48.8345 52.3085 48.6791 52.0553 48.5302C51.5422 48.2519 51.25 48.0901 51.25 48.0901Z" fill="#FEE844"/>
<path d="M50.2988 49.4814C50.2988 49.4814 50.3313 49.818 50.3898 50.4006C50.4157 50.6919 50.4677 51.0479 50.5196 51.4557C50.5716 51.8635 50.6495 52.3166 50.7274 52.815C50.8249 53.307 50.9093 53.8507 51.0457 54.4074C51.1625 54.9705 51.3184 55.5596 51.4808 56.168C51.5587 56.4723 51.6626 56.7765 51.7535 57.0872C51.8444 57.3979 51.9418 57.7086 52.0522 58.0193C52.1626 58.33 52.2665 58.6472 52.3834 58.9579C52.5068 59.2686 52.6302 59.5793 52.7536 59.89C52.8705 60.2007 53.0199 60.4985 53.1497 60.8027C53.2861 61.1069 53.416 61.4112 53.5719 61.696C53.7212 61.9873 53.8641 62.2786 54.0135 62.5634C54.1628 62.8482 54.3252 63.12 54.481 63.3919C54.7798 63.9421 55.1175 64.4341 55.4227 64.9195C55.7279 65.3985 56.0656 65.8258 56.3449 66.2336C56.6371 66.6349 56.9358 66.978 57.1826 67.2951C57.4294 67.6123 57.6761 67.8648 57.8645 68.0848C58.2476 68.5121 58.4684 68.758 58.4684 68.758L58.4879 68.7839C58.7152 69.0364 58.6957 69.4248 58.436 69.6513C58.1827 69.8779 57.793 69.8585 57.5657 69.5995C57.5592 69.5931 57.5528 69.5801 57.5463 69.5736C57.5463 69.5736 57.332 69.3018 56.9553 68.8357C56.7735 68.5962 56.5332 68.3243 56.2929 67.9748C56.0526 67.6317 55.7669 67.2563 55.4876 66.8226C55.2149 66.3824 54.9032 65.9229 54.6109 65.4115C54.3252 64.8937 54.007 64.3629 53.7342 63.7868C53.5913 63.502 53.442 63.2107 53.3056 62.9129C53.1757 62.6087 53.0393 62.3044 52.903 62.0002C52.7601 61.696 52.6497 61.3788 52.5263 61.0616C52.4094 60.7444 52.273 60.4337 52.1756 60.1036C52.0652 59.78 51.9613 59.4563 51.8509 59.1391C51.747 58.8155 51.6626 58.4918 51.5717 58.1682C51.4743 57.851 51.3963 57.5274 51.3184 57.2102C51.247 56.893 51.1561 56.5823 51.0976 56.2651C50.9677 55.6437 50.8508 55.0417 50.7599 54.4656C50.656 53.896 50.6041 53.3458 50.5326 52.8474C50.4807 52.3425 50.4352 51.8829 50.4027 51.4751C50.3768 51.0673 50.3508 50.7048 50.3378 50.4135C50.3118 49.818 50.2988 49.4814 50.2988 49.4814Z" fill="#FEE844"/>
<path d="M44.245 51.0473C44.245 51.0473 44.0047 51.3191 43.5761 51.8046C43.3618 52.0441 43.1215 52.3483 42.8358 52.6914C42.55 53.028 42.2578 53.4423 41.9266 53.876C41.6084 54.3226 41.2642 54.8081 40.9265 55.3324C40.7642 55.5978 40.5888 55.8697 40.42 56.148C40.2446 56.4263 40.0953 56.7241 39.9264 57.0219C39.842 57.1707 39.7641 57.3196 39.6796 57.4685C39.6017 57.6238 39.5238 57.7792 39.4524 57.9345C39.303 58.2517 39.1341 58.5624 38.9978 58.8926C38.8614 59.2227 38.7185 59.5528 38.5821 59.8829C38.4393 60.213 38.3419 60.5626 38.2185 60.8992L38.0431 61.4106L37.9003 61.9284C37.8093 62.2779 37.6989 62.6145 37.6275 62.9641C37.4911 63.6567 37.3353 64.3364 37.2703 65.0095C37.2379 65.3461 37.1664 65.6698 37.1599 65.9935C37.1404 66.3171 37.1275 66.6343 37.108 66.9385C37.082 67.2427 37.0885 67.5405 37.1015 67.8318C37.108 68.1231 37.1145 68.4014 37.121 68.6668C37.1404 69.2041 37.2184 69.6895 37.2508 70.1232C37.2833 70.5569 37.3677 70.9259 37.4197 71.2366C37.5301 71.8515 37.595 72.2011 37.595 72.2011L37.6015 72.2464C37.66 72.583 37.4392 72.9002 37.1015 72.9649C36.7638 73.0231 36.4456 72.8031 36.3806 72.4665C36.3806 72.4535 36.3741 72.447 36.3741 72.4341C36.3741 72.4341 36.3287 72.0587 36.2443 71.4114C36.2053 71.0877 36.1339 70.6929 36.1274 70.2333C36.1144 69.7737 36.0624 69.2623 36.0689 68.6992C36.0754 68.4208 36.0884 68.1231 36.0949 67.8253C36.1014 67.5211 36.1079 67.2104 36.1533 66.8932C36.1858 66.576 36.2248 66.2459 36.2572 65.9093C36.2832 65.5727 36.3676 65.2361 36.4261 64.893C36.53 64.2004 36.7248 63.5078 36.9067 62.7958C37.0041 62.4398 37.134 62.0967 37.2444 61.7472L37.4197 61.2228L37.621 60.692C37.7639 60.349 37.8873 59.9994 38.0496 59.6693C38.212 59.3392 38.3678 59.0091 38.5237 58.6789C38.686 58.3553 38.8679 58.0446 39.0367 57.7274C39.1212 57.5721 39.2121 57.4167 39.2965 57.2614C39.3874 57.1125 39.4848 56.9636 39.5757 56.8212C39.7641 56.5299 39.9329 56.2386 40.1212 55.9668C40.3096 55.6949 40.4979 55.4295 40.6797 55.1706C41.0499 54.6592 41.4201 54.1867 41.7643 53.7595C42.1214 53.3387 42.4331 52.9439 42.7449 52.6202C43.0501 52.2901 43.3034 51.9988 43.5307 51.7722C43.9852 51.3062 44.245 51.0473 44.245 51.0473Z" fill="#FEE844"/>
<path d="M39.0068 46.7114C39.0068 46.7114 38.6107 46.7955 37.9158 46.9379C37.5716 47.0156 37.156 47.1192 36.6754 47.2357C36.2013 47.3652 35.6623 47.514 35.0844 47.6953C34.5064 47.883 33.8829 48.0837 33.24 48.3426C32.5841 48.5756 31.9217 48.8863 31.2333 49.1841C30.558 49.5207 29.8501 49.8508 29.1682 50.2521C28.4669 50.6211 27.8045 51.0677 27.1226 51.495C26.4732 51.961 25.8043 52.4012 25.1938 52.9061C24.8886 53.1585 24.5704 53.3786 24.2846 53.644C23.9989 53.9029 23.7132 54.1554 23.4339 54.4013C23.1482 54.6408 22.8949 54.9127 22.6416 55.1652C22.3884 55.4176 22.1351 55.67 21.8948 55.9095C21.4402 56.4209 21.0051 56.8999 20.609 57.3466C20.2388 57.8126 19.8946 58.2463 19.5959 58.6217C19.2907 58.9972 19.0634 59.3597 18.8621 59.638C18.4594 60.2076 18.2321 60.5313 18.2321 60.5313L18.2062 60.5636C18.0113 60.842 17.6217 60.9132 17.3424 60.7125C17.0632 60.5183 16.9918 60.13 17.1931 59.8516C17.1996 59.8451 17.2061 59.8322 17.2126 59.8257C17.2126 59.8257 17.4658 59.5021 17.9074 58.9324C18.1347 58.6541 18.3815 58.2916 18.7192 57.9162C19.0504 57.5407 19.4205 57.1135 19.8232 56.6475C20.2518 56.2073 20.7259 55.7348 21.2194 55.2299C21.4792 54.9904 21.7519 54.7509 22.0247 54.4984C22.3039 54.2525 22.5702 53.9871 22.8819 53.754C23.1806 53.5145 23.4859 53.2686 23.7911 53.0161C24.0963 52.7637 24.434 52.5436 24.7587 52.3041C25.4016 51.8186 26.1095 51.3979 26.7979 50.9577C27.5122 50.5564 28.2136 50.1356 28.9409 49.7926C29.6553 49.4236 30.3891 49.1194 31.084 48.8151C31.7983 48.5433 32.4802 48.2649 33.1556 48.0643C33.818 47.8377 34.4544 47.6629 35.0454 47.5011C35.6364 47.3458 36.1819 47.2228 36.6624 47.1127C37.1495 47.0221 37.5716 46.9315 37.9223 46.8732C38.6107 46.7761 39.0068 46.7114 39.0068 46.7114Z" fill="#FEE844"/>
<path d="M39.7073 41.6742C39.7073 41.6742 39.3371 41.5188 38.6942 41.2405C38.3695 41.1046 37.9734 40.9492 37.5253 40.768C37.0707 40.5932 36.5512 40.4055 35.9927 40.2048C35.4212 40.0236 34.8107 39.797 34.1483 39.6158C33.8171 39.5187 33.4859 39.4151 33.1353 39.318C32.7846 39.2274 32.4339 39.1368 32.0702 39.0397C31.7065 38.9426 31.3364 38.8714 30.9597 38.7808C30.5831 38.6966 30.2064 38.6125 29.8168 38.5413C29.4336 38.47 29.044 38.3924 28.6543 38.3276C28.2647 38.2694 27.8685 38.2111 27.4724 38.1529C27.0827 38.0881 26.6801 38.0622 26.2905 38.0169C25.8943 37.9781 25.5047 37.9263 25.115 37.9069C24.7254 37.881 24.3357 37.8551 23.9591 37.8357C23.5759 37.8163 23.1993 37.8163 22.8291 37.8098C22.0888 37.7774 21.3679 37.8163 20.686 37.8292C20.0042 37.8486 19.3677 37.9134 18.7768 37.9522C18.1858 38.004 17.6468 38.0817 17.1727 38.1335C16.6922 38.1788 16.283 38.2629 15.9388 38.3212C15.257 38.4377 14.8673 38.5024 14.8673 38.5024L14.8348 38.5089C14.4971 38.5671 14.1789 38.3406 14.1205 38.004C14.062 37.6674 14.2893 37.3502 14.627 37.292C14.6335 37.292 14.6465 37.2855 14.6595 37.2855C14.6595 37.2855 15.0621 37.2337 15.77 37.1496C16.1207 37.1107 16.5493 37.046 17.0493 37.0201C17.5429 36.9877 18.1014 36.9359 18.7118 36.9165C19.3223 36.9101 19.9782 36.8712 20.6795 36.8906C21.3744 36.9101 22.1083 36.9101 22.8681 36.9748C23.2447 37.0007 23.6344 37.0201 24.0175 37.0589C24.4072 37.1042 24.7968 37.1496 25.193 37.1884C25.5891 37.2272 25.9852 37.292 26.3814 37.3567C26.7775 37.4214 27.1802 37.4667 27.5763 37.5574C27.9724 37.635 28.3686 37.7127 28.7647 37.7904C29.1544 37.8745 29.544 37.9716 29.9337 38.0622C30.3233 38.1464 30.7 38.25 31.0766 38.3535C31.4533 38.4571 31.8234 38.5477 32.1806 38.6642C32.5378 38.7743 32.895 38.8908 33.2392 38.9944C33.5833 39.1044 33.9145 39.2274 34.2457 39.3374C34.9017 39.5575 35.5056 39.81 36.0641 40.0236C36.6161 40.2566 37.1291 40.4637 37.5772 40.6644C38.0188 40.8715 38.415 41.0398 38.7267 41.1887C39.3501 41.4994 39.7073 41.6742 39.7073 41.6742Z" fill="#FEE844"/>
<path d="M42.4249 40.7231C42.4249 40.7231 42.217 40.49 41.8534 40.0822C41.4897 39.6679 40.9702 39.0789 40.3727 38.3539C40.0675 37.9914 39.7558 37.5901 39.4181 37.1694C39.0804 36.7421 38.7427 36.289 38.392 35.8165C38.0478 35.3375 37.6907 34.8456 37.3465 34.3212C36.9958 33.8099 36.6646 33.2726 36.3269 32.7354C36.158 32.47 36.0087 32.1916 35.8528 31.9198C35.697 31.6479 35.5411 31.376 35.3982 31.0977C35.2554 30.8193 35.1125 30.5475 34.9696 30.2756C34.8397 29.9973 34.7163 29.7254 34.593 29.4535C34.4631 29.1881 34.3527 28.9098 34.2488 28.6444C34.1449 28.379 34.0345 28.1136 33.9435 27.8612C33.8591 27.6023 33.7747 27.3433 33.6968 27.0974C33.6578 26.9744 33.6188 26.8514 33.5799 26.7349C33.5474 26.6119 33.5214 26.4954 33.489 26.3789C33.3721 25.9128 33.2552 25.4856 33.2032 25.0907C33.1448 24.7023 33.0733 24.3657 33.0603 24.0745C33.0214 23.5048 32.9954 23.1812 32.9954 23.1812C32.9759 22.9093 33.1837 22.6698 33.4565 22.6504C33.7292 22.631 33.9695 22.8381 33.989 23.11C33.989 23.1165 33.989 23.1229 33.989 23.1294V23.1812C33.989 23.1812 33.9955 23.4789 34.0085 24.0097C34.002 24.2751 34.0539 24.5923 34.0929 24.9613C34.1189 25.3302 34.2098 25.738 34.3007 26.1911C34.3202 26.3012 34.3462 26.4177 34.3657 26.5342C34.3981 26.6507 34.4306 26.7672 34.4631 26.8902C34.528 27.1297 34.593 27.3757 34.6644 27.6346C34.7423 27.8871 34.8332 28.146 34.9242 28.4049C35.0151 28.6703 35.106 28.9357 35.2164 29.2076C35.3268 29.4794 35.4307 29.7513 35.5476 30.0296C35.671 30.3015 35.8009 30.5798 35.9243 30.8582C36.0476 31.1365 36.184 31.4149 36.3269 31.6867C36.4698 31.9586 36.6061 32.2434 36.7555 32.5153C37.0607 33.059 37.3595 33.6092 37.6777 34.1271C37.9894 34.6578 38.3206 35.1627 38.6388 35.6547C38.9635 36.1402 39.2817 36.6127 39.5934 37.0529C39.9051 37.493 40.1974 37.9073 40.4831 38.2827C41.0416 39.0401 41.5287 39.655 41.8729 40.0822C42.2235 40.4771 42.4249 40.7231 42.4249 40.7231Z" fill="#FEE844"/>
<path d="M45.6896 39.0853C45.6896 39.0853 45.6571 38.7746 45.5987 38.2244C45.5792 37.9461 45.5532 37.6159 45.5272 37.2276C45.5143 36.8457 45.4883 36.4055 45.4883 35.933C45.4883 35.6935 45.4883 35.4475 45.4883 35.195C45.4948 34.9361 45.5078 34.6772 45.5143 34.4053C45.5208 34.1335 45.5402 33.8551 45.5662 33.5703C45.5922 33.2855 45.5987 32.9942 45.6376 32.6965C45.6701 32.3987 45.7026 32.1009 45.7416 31.7967C45.787 31.4925 45.8325 31.1882 45.8844 30.8775C45.9299 30.5668 45.9883 30.2561 46.0533 29.9454C46.1182 29.6347 46.1702 29.3175 46.2481 29.0133C46.326 28.7026 46.3975 28.3919 46.4754 28.0877C46.5533 27.777 46.6442 27.4792 46.7287 27.175C46.891 26.5665 47.1053 25.9904 47.2871 25.4208C47.4885 24.8576 47.7028 24.3204 47.8976 23.809C48.1184 23.3041 48.3197 22.8316 48.5145 22.3914C48.7223 21.9577 48.9107 21.5629 49.086 21.2133C49.2549 20.8638 49.4237 20.566 49.5536 20.32C49.8199 19.8281 49.9692 19.5433 49.9692 19.5433C50.0991 19.3038 50.4043 19.2067 50.6446 19.3361C50.8914 19.4656 50.9823 19.7698 50.8524 20.0093C50.8459 20.0158 50.8459 20.0223 50.8394 20.0288L50.8264 20.0482C50.8264 20.0482 50.6641 20.3136 50.3848 20.7796C50.2485 21.0127 50.0666 21.291 49.8848 21.6276C49.703 21.9642 49.4952 22.3396 49.2744 22.7474C49.0665 23.1682 48.8392 23.6213 48.6055 24.1003C48.3847 24.5922 48.1509 25.1036 47.9301 25.6473C47.7223 26.1975 47.482 26.7542 47.3001 27.3368C47.2027 27.6281 47.0923 27.9194 47.0079 28.2171C46.917 28.5149 46.8326 28.8191 46.7416 29.1169C46.6442 29.4146 46.5858 29.7253 46.5079 30.0231C46.4299 30.3273 46.352 30.6251 46.3 30.9293C46.2416 31.2335 46.1767 31.5313 46.1182 31.8291C46.0663 32.1268 46.0208 32.4246 45.9753 32.7159C45.9234 33.0072 45.8974 33.292 45.8584 33.5768C45.8195 33.8551 45.787 34.1335 45.7675 34.4053C45.7416 34.6772 45.7221 34.9361 45.7026 35.1886C45.6896 35.441 45.6766 35.687 45.6636 35.9265C45.6376 36.399 45.6441 36.8327 45.6376 37.2146C45.6441 37.5965 45.6571 37.9331 45.6636 38.2115C45.6701 38.7681 45.6896 39.0853 45.6896 39.0853Z" fill="#FEE844"/>
<path d="M49.5215 40.9557C49.5215 40.9557 49.6644 40.6774 49.9046 40.1854C50.0215 39.9395 50.1839 39.6482 50.3592 39.3116C50.5346 38.9685 50.7489 38.5996 50.9827 38.1853C51.2164 37.7775 51.4827 37.3438 51.762 36.8777C52.0607 36.4246 52.3529 35.9391 52.6971 35.4601C52.866 35.2206 53.0348 34.9682 53.2166 34.7222C53.3985 34.4827 53.5868 34.2367 53.7686 33.9843C53.9505 33.7318 54.1583 33.4988 54.3596 33.2528C54.5609 33.0133 54.7557 32.7609 54.97 32.5343C55.1844 32.3013 55.3987 32.0683 55.6065 31.8353C55.8338 31.6152 56.0546 31.3886 56.2754 31.1685C56.3858 31.0585 56.4962 30.9484 56.6066 30.8449C56.7235 30.7413 56.8403 30.6442 56.9572 30.5406C57.191 30.34 57.4118 30.1328 57.6456 29.9451C58.1262 29.5891 58.5678 29.2137 59.0419 28.9289C59.2756 28.78 59.4964 28.6311 59.7172 28.4887C59.9445 28.3657 60.1653 28.2427 60.3796 28.1327C60.5939 28.0226 60.7953 27.8997 60.9966 27.8155C61.1979 27.7314 61.3927 27.6472 61.5746 27.5695C61.7564 27.4919 61.9252 27.4207 62.0876 27.3559C62.2499 27.2977 62.3993 27.2588 62.5357 27.2135C63.0812 27.0452 63.3929 26.9481 63.3929 26.9481C63.6527 26.864 63.9384 27.0129 64.0163 27.2718C64.1008 27.5372 63.9514 27.8155 63.6916 27.8932C63.6851 27.8932 63.6787 27.8997 63.6722 27.8997L63.6202 27.9126C63.6202 27.9126 63.328 27.9903 62.8214 28.1197C62.6915 28.1521 62.5487 28.1845 62.3993 28.2298C62.2499 28.2816 62.0876 28.3463 61.9123 28.411C61.7369 28.4758 61.5551 28.5405 61.3603 28.6117C61.1654 28.6829 60.9706 28.7865 60.7628 28.8836C60.555 28.9806 60.3407 29.0842 60.1199 29.1878C59.9056 29.3108 59.6848 29.4402 59.4575 29.5697C58.9899 29.8157 58.5483 30.1587 58.0677 30.4759C57.834 30.6442 57.6067 30.8319 57.3729 31.0196C57.256 31.1103 57.1391 31.2074 57.0222 31.298C56.9053 31.3951 56.7949 31.4987 56.6845 31.5957C56.4572 31.7964 56.2299 32.0035 56.0026 32.2107C55.7818 32.4308 55.561 32.6444 55.3467 32.8645C55.1194 33.0781 54.9181 33.3111 54.7103 33.5441C54.5025 33.7772 54.2882 33.9972 54.0933 34.2367C53.8985 34.4698 53.7037 34.7028 53.5089 34.9358C53.3205 35.1689 53.1452 35.4084 52.9634 35.6349C52.5997 36.0945 52.2815 36.5606 51.9633 36.9942C51.6645 37.4409 51.3788 37.8552 51.1255 38.2565C50.8788 38.6513 50.645 39.0138 50.4501 39.3439C50.2553 39.6741 50.08 39.9524 49.9501 40.1984C49.6709 40.6839 49.5215 40.9557 49.5215 40.9557Z" fill="#FEE844"/>
<path d="M50.7227 43.966C50.7227 43.966 51.0344 43.8172 51.5799 43.5647C51.8591 43.4482 52.1903 43.2993 52.5865 43.1375C52.9826 42.9886 53.4177 42.8074 53.9113 42.6456C54.3983 42.4708 54.9373 42.309 55.5088 42.1407C55.7946 42.05 56.0933 41.9918 56.3985 41.9076C56.7037 41.83 57.0155 41.7523 57.3337 41.694C57.6519 41.6293 57.9766 41.5581 58.3078 41.5063C58.639 41.4545 58.9767 41.4027 59.3144 41.3574C59.6521 41.2992 59.9963 41.2862 60.3404 41.2409C60.6846 41.2085 61.0288 41.1697 61.3795 41.1632C61.7302 41.1503 62.0744 41.1309 62.4251 41.1179C62.7757 41.1244 63.1199 41.1244 63.4641 41.1309C63.633 41.1309 63.8083 41.1373 63.9771 41.1373C64.146 41.1503 64.3148 41.1632 64.4837 41.1697C64.8214 41.1956 65.1526 41.215 65.4773 41.2409C66.1267 41.3186 66.7566 41.3963 67.3476 41.4869C67.9385 41.6034 68.497 41.7005 69.0101 41.817C69.5166 41.9465 69.9842 42.0695 70.3998 42.173C70.8154 42.2831 71.1596 42.4125 71.4519 42.5031C72.0363 42.6909 72.3675 42.8009 72.3675 42.8009C72.6273 42.8851 72.7702 43.1699 72.6857 43.4288C72.6013 43.6877 72.3156 43.8301 72.0558 43.746C72.0493 43.746 72.0428 43.7395 72.0363 43.7395L72.0039 43.7265C72.0039 43.7265 71.6857 43.61 71.1337 43.3964C70.8544 43.2993 70.5232 43.1504 70.1271 43.0275C69.7309 42.9045 69.2828 42.7685 68.7958 42.6197C68.3022 42.4837 67.7632 42.3672 67.1982 42.2248C66.6267 42.1083 66.0163 42.0047 65.3864 41.9012C65.0682 41.8623 64.7499 41.83 64.4187 41.7911C64.2564 41.7717 64.094 41.7523 63.9252 41.7329C63.7563 41.7264 63.594 41.7134 63.4251 41.707C63.0875 41.6875 62.7498 41.6681 62.4121 41.6487C62.0744 41.6487 61.7302 41.6487 61.386 41.6487C61.0418 41.6422 60.7041 41.6617 60.3664 41.6811C60.0287 41.707 59.6845 41.707 59.3533 41.7458C59.0156 41.7782 58.6844 41.817 58.3532 41.8494C58.022 41.8882 57.7038 41.9465 57.3856 41.9918C57.0739 42.0565 56.7622 42.1212 56.457 42.1795C56.1517 42.2442 55.853 42.296 55.5673 42.3672C54.9958 42.5096 54.4503 42.6391 53.9567 42.7944C53.4567 42.9304 53.0151 43.0922 52.6124 43.2217C52.2163 43.3576 51.8786 43.4935 51.5929 43.5971C51.0409 43.8366 50.7227 43.966 50.7227 43.966Z" fill="#FEE844"/>
<path d="M53.9355 48.7492C53.9355 48.7492 54.2667 48.8463 54.8447 49.0146C55.1305 49.1116 55.4811 49.2217 55.8773 49.3576C56.2734 49.5065 56.7215 49.6554 57.1956 49.8625C57.6762 50.0502 58.1892 50.2897 58.7282 50.5422C59.001 50.6652 59.2672 50.814 59.5465 50.9565C59.8257 51.0989 60.1114 51.2477 60.3907 51.416C60.6699 51.5779 60.9622 51.7397 61.2479 51.9145C61.5272 52.0957 61.8129 52.277 62.1051 52.4647C62.3974 52.6459 62.6636 52.8595 62.9494 53.0537C63.2286 53.2544 63.5144 53.455 63.7806 53.6816C64.0534 53.9017 64.3261 54.1153 64.5924 54.3354C64.8521 54.5684 65.1054 54.795 65.3652 55.028C65.4951 55.1445 65.6185 55.2545 65.7483 55.3711C65.8652 55.494 65.9886 55.6106 66.1055 55.7335C66.3393 55.973 66.5731 56.2125 66.8069 56.4391C67.242 56.9246 67.6641 57.3971 68.0473 57.8632C68.4109 58.3422 68.7681 58.7823 69.0733 59.2095C69.3656 59.6432 69.6383 60.0446 69.8721 60.3941C70.1124 60.7501 70.2812 61.0803 70.4436 61.3392C70.7553 61.87 70.9306 62.1677 70.9306 62.1677C71.0735 62.4072 70.9891 62.7115 70.7553 62.8474C70.515 62.9898 70.2098 62.9056 70.0734 62.6726C70.0669 62.6661 70.0669 62.6597 70.0604 62.6532L70.0474 62.6273C70.0474 62.6273 69.8916 62.3295 69.6123 61.8052C69.4695 61.5463 69.3201 61.2162 69.0993 60.8666C68.885 60.5171 68.6382 60.1158 68.372 59.6821C68.0927 59.2549 67.768 58.8147 67.4368 58.3357C67.0861 57.8696 66.6965 57.3906 66.2938 56.8987C66.0795 56.6592 65.8652 56.4197 65.6444 56.1802C65.534 56.0572 65.4236 55.9342 65.3132 55.8112C65.1963 55.6947 65.0729 55.5782 64.9561 55.4617C64.7158 55.2286 64.4755 54.9891 64.2352 54.7496C63.9819 54.5231 63.7222 54.2965 63.4689 54.0764C63.2156 53.8434 62.9494 53.6363 62.6831 53.4227C62.4104 53.2155 62.1571 52.989 61.8778 52.8013C61.6051 52.6071 61.3323 52.4129 61.0596 52.2187C60.7868 52.031 60.5076 51.8627 60.2413 51.6879C59.9751 51.5131 59.7023 51.3513 59.4296 51.196C59.1568 51.0471 58.9035 50.8853 58.6373 50.7493C58.1113 50.4775 57.6177 50.2185 57.1501 50.0049C56.689 49.7784 56.2475 49.6101 55.8578 49.4418C55.4682 49.2864 55.124 49.1634 54.8447 49.0534C54.2602 48.8592 53.9355 48.7492 53.9355 48.7492Z" fill="#FEE844"/>
<path d="M46.508 50.2516C46.508 50.2516 46.3522 50.5041 46.0859 50.9443C45.9495 51.1643 45.8002 51.4427 45.6248 51.7534C45.443 52.0641 45.2676 52.4331 45.0663 52.8214C44.8715 53.2228 44.6702 53.6565 44.4754 54.116C44.378 54.3491 44.2805 54.5886 44.1831 54.8345C44.0857 55.0805 44.0078 55.3394 43.9104 55.5984C43.8649 55.7278 43.8195 55.8573 43.774 55.9932C43.735 56.1291 43.6961 56.2651 43.6571 56.401C43.5857 56.6729 43.4948 56.9447 43.4298 57.2231C43.3649 57.5014 43.3064 57.7862 43.2415 58.0711C43.1765 58.3559 43.1441 58.6471 43.0921 58.932L43.0207 59.3657L42.9817 59.7993C42.9557 60.0906 42.9168 60.3754 42.9103 60.6603C42.8973 61.2299 42.8713 61.793 42.9103 62.3368C42.9298 62.6086 42.9233 62.874 42.9622 63.133C42.9947 63.3919 43.0272 63.6443 43.0532 63.8903C43.0791 64.1363 43.1246 64.3758 43.1765 64.6023C43.222 64.8289 43.2675 65.049 43.3129 65.2626C43.4038 65.6833 43.5337 66.0588 43.6181 66.4018C43.7026 66.7449 43.826 67.0232 43.9104 67.2627C44.0857 67.7353 44.1831 68.0071 44.1831 68.0071L44.1961 68.0395C44.2935 68.2984 44.1572 68.5832 43.9039 68.6803C43.6441 68.7774 43.3584 68.6415 43.261 68.3826C43.261 68.3761 43.2545 68.3631 43.2545 68.3567C43.2545 68.3567 43.1636 68.0654 43.0077 67.5605C42.9298 67.308 42.8194 67.0038 42.7479 66.6413C42.67 66.2788 42.5596 65.8775 42.4882 65.4309C42.4557 65.2043 42.4232 64.9713 42.3843 64.7318C42.3453 64.4923 42.3063 64.2398 42.2998 63.9809C42.2804 63.722 42.2609 63.4566 42.2414 63.1847C42.2154 62.9129 42.2349 62.6345 42.2284 62.3497C42.2154 61.7866 42.2739 61.204 42.3193 60.6149C42.3453 60.3172 42.4037 60.0259 42.4427 59.7281L42.5076 59.2815L42.6051 58.8413C42.67 58.5501 42.722 58.2523 42.8064 57.9675C42.8843 57.6827 42.9687 57.3979 43.0467 57.113C43.1311 56.8282 43.235 56.5564 43.3259 56.2845C43.3714 56.1486 43.4233 56.0126 43.4688 55.8767C43.5207 55.7472 43.5727 55.6178 43.6246 55.4883C43.735 55.2294 43.826 54.9705 43.9364 54.731C44.0468 54.485 44.1636 54.252 44.2676 54.0189C44.4884 53.5594 44.7156 53.1321 44.93 52.7438C45.1572 52.3619 45.3456 51.9994 45.5469 51.7016C45.7417 51.3974 45.9041 51.1255 46.0534 50.9184C46.3392 50.4976 46.508 50.2516 46.508 50.2516Z" fill="#F610F8"/>
<path d="M49.8509 49.3966C49.8509 49.3966 49.799 49.6879 49.7081 50.1992C49.6561 50.4517 49.6236 50.7624 49.5717 51.1184C49.5132 51.4744 49.4937 51.8757 49.4418 52.3159C49.4093 52.7561 49.3769 53.2351 49.3639 53.74C49.3639 53.9924 49.3574 54.2513 49.3574 54.5167C49.3574 54.7821 49.3769 55.054 49.3833 55.3258C49.3898 55.4618 49.3963 55.6042 49.4028 55.7401C49.4158 55.8761 49.4288 56.0185 49.4418 56.1609C49.4743 56.4392 49.4873 56.7305 49.5327 57.0088C49.5782 57.2936 49.6236 57.5785 49.6691 57.8697C49.7146 58.1546 49.786 58.4394 49.8444 58.7242L49.9353 59.1514L50.0587 59.5721C50.1432 59.8505 50.2146 60.1288 50.3055 60.4007C50.5068 60.938 50.6822 61.4687 50.9225 61.9607C51.0393 62.2067 51.1303 62.4591 51.2601 62.6857C51.3835 62.9122 51.5069 63.1388 51.6238 63.3589C51.7342 63.5789 51.8706 63.7861 51.994 63.9803C52.1239 64.1745 52.2408 64.3687 52.3577 64.5499C52.5979 64.9124 52.8577 65.2166 53.059 65.495C53.2603 65.7798 53.4811 65.9998 53.6435 66.1876C53.9812 66.563 54.1695 66.7766 54.1695 66.7766L54.1955 66.8025C54.3773 67.0096 54.3578 67.3203 54.1565 67.5081C53.9487 67.6893 53.637 67.6699 53.4487 67.4692C53.4422 67.4628 53.4357 67.4563 53.4292 67.4498C53.4292 67.4498 53.2409 67.2103 52.9032 66.796C52.7408 66.5889 52.5265 66.3494 52.3252 66.0322C52.1239 65.7215 51.8706 65.3914 51.6368 64.9965C51.5264 64.8023 51.403 64.5952 51.2861 64.3816C51.1627 64.168 51.0329 63.9544 50.9289 63.7149C50.8185 63.4818 50.7017 63.2423 50.5848 62.9964C50.4614 62.7504 50.377 62.485 50.273 62.2261C50.0522 61.7018 49.8964 61.1451 49.721 60.5755C49.6366 60.2907 49.5847 59.9994 49.5132 59.7081L49.4418 59.2679L49.3704 58.8278C49.3249 58.53 49.2665 58.2387 49.234 57.9409C49.2015 57.6432 49.1755 57.3519 49.1431 57.0606C49.1171 56.7693 49.1106 56.478 49.0976 56.1868C49.0911 56.0444 49.0846 55.9019 49.0781 55.7595C49.0781 55.6171 49.0846 55.4747 49.0846 55.3388C49.0911 55.0605 49.0846 54.7886 49.0976 54.5167C49.1106 54.2513 49.1301 53.9859 49.1431 53.7335C49.182 53.2221 49.2405 52.7431 49.2924 52.303C49.3639 51.8628 49.4093 51.4615 49.4873 51.1054C49.5587 50.7494 49.6106 50.4387 49.6691 50.1927C49.786 49.6814 49.8509 49.3966 49.8509 49.3966Z" fill="#FEE844"/>
<path d="M40.5471 47.274C40.5471 47.274 40.2289 47.3581 39.6769 47.507C39.4042 47.5847 39.073 47.6882 38.6898 47.8048C38.3132 47.9342 37.8846 48.0766 37.43 48.2514C36.9754 48.4326 36.4818 48.6204 35.9753 48.8599C35.4623 49.0799 34.9362 49.3583 34.3972 49.6301C33.8647 49.9344 33.3127 50.2321 32.7802 50.5882C32.2347 50.9183 31.7151 51.3131 31.1891 51.6886C30.6826 52.0964 30.1631 52.4847 29.702 52.9184C29.2149 53.3327 28.7798 53.7794 28.3512 54.2066C27.9226 54.6338 27.5524 55.0869 27.1758 55.4947C26.8316 55.9284 26.5069 56.3362 26.2081 56.7181C25.9289 57.113 25.6756 57.4754 25.4483 57.7926C25.2145 58.1098 25.0522 58.414 24.9028 58.6471C24.6041 59.1261 24.4353 59.3979 24.4353 59.3979L24.4223 59.4238C24.2794 59.6568 23.9677 59.7281 23.7339 59.5856C23.5001 59.4432 23.4287 59.1325 23.5715 58.8995C23.578 58.893 23.578 58.8866 23.5845 58.8801C23.5845 58.8801 23.7729 58.6082 24.1041 58.1292C24.2729 57.8962 24.4547 57.592 24.708 57.2748C24.9548 56.9576 25.234 56.5951 25.5392 56.2003C25.8704 55.8248 26.2211 55.4235 26.5978 54.9898C27.0004 54.5885 27.4096 54.1418 27.8641 53.7211C28.3252 53.3003 28.7928 52.8667 29.3123 52.4653C29.8059 52.0446 30.3579 51.6691 30.8904 51.2808C31.4489 50.9247 31.9944 50.5493 32.5659 50.2386C33.1244 49.9085 33.7023 49.6301 34.2479 49.3518C34.8128 49.0994 35.3519 48.8469 35.8844 48.6462C36.4039 48.4326 36.9169 48.2643 37.378 48.1025C37.8456 47.9536 38.2807 47.8242 38.6638 47.7141C39.0535 47.617 39.3912 47.5264 39.6704 47.4617C40.2224 47.3387 40.5471 47.274 40.5471 47.274Z" fill="#F610F8"/>
<path d="M40.3885 43.1636C40.3885 43.1636 40.0703 43.0924 39.5248 42.9565C39.2521 42.8918 38.9144 42.827 38.5247 42.7429C38.1416 42.6652 37.7 42.594 37.2259 42.5099C36.7453 42.4451 36.2323 42.3545 35.6738 42.2963C35.1218 42.2251 34.5373 42.1797 33.9399 42.128C33.6411 42.1021 33.3294 42.0956 33.0242 42.0762C32.7125 42.0568 32.4008 42.0438 32.0826 42.0503C31.7643 42.0503 31.4461 42.0373 31.1279 42.0438C30.8097 42.0503 30.485 42.0632 30.1668 42.0697C29.8486 42.0697 29.5239 42.1085 29.2057 42.128C28.8875 42.1538 28.5692 42.1668 28.2575 42.2056C27.9458 42.238 27.6341 42.2768 27.3224 42.3092C27.0172 42.348 26.7119 42.3998 26.4197 42.4451C25.8222 42.5228 25.2572 42.6587 24.7182 42.7623C24.1792 42.8724 23.6792 43.0148 23.2116 43.1248C22.7505 43.2478 22.3349 43.3837 21.9582 43.4938C21.5816 43.5973 21.2699 43.7268 21.0036 43.8174C20.4776 44.0051 20.1788 44.1087 20.1788 44.1087L20.1529 44.1216C19.8931 44.2123 19.6074 44.0763 19.5165 43.8174C19.4255 43.5585 19.5619 43.2737 19.8217 43.1831C19.8282 43.1831 19.8347 43.1766 19.8476 43.1766C19.8476 43.1766 20.1594 43.0795 20.7114 42.9112C20.9906 42.8335 21.3153 42.717 21.7115 42.6264C22.1011 42.5358 22.5362 42.4128 23.0168 42.3092C23.4973 42.2186 24.0169 42.0956 24.5754 42.0114C25.1339 41.9338 25.7183 41.8237 26.3288 41.7719C26.634 41.7396 26.9457 41.7007 27.2574 41.6813C27.5692 41.6619 27.8939 41.6425 28.2121 41.6231C28.5303 41.5972 28.855 41.5972 29.1797 41.5907C29.5044 41.5907 29.8291 41.5713 30.1603 41.5842C30.485 41.5907 30.8097 41.5972 31.1344 41.6036C31.4591 41.6166 31.7838 41.6425 32.102 41.6554C32.4203 41.6684 32.7385 41.7007 33.0502 41.7331C33.3619 41.7655 33.6736 41.7849 33.9723 41.8302C34.5763 41.9079 35.1608 41.9855 35.7128 42.0826C36.2648 42.1668 36.7778 42.2833 37.2584 42.3739C37.7324 42.484 38.1675 42.5746 38.5507 42.6717C38.9338 42.7688 39.265 42.8529 39.5378 42.9306C40.0768 43.0795 40.3885 43.1636 40.3885 43.1636Z" fill="#F610F8"/>
<path d="M26.2217 15.9513C26.41 16.6245 26.0139 17.3236 25.3385 17.5113C24.6631 17.699 23.9618 17.3042 23.7734 16.631C23.5851 15.9578 23.9813 15.2587 24.6566 15.071C25.332 14.8897 26.0334 15.2781 26.2217 15.9513Z" fill="#FEE844"/>
<path d="M55.5674 70.479C55.7558 71.1522 55.3596 71.8513 54.6842 72.039C54.0088 72.2267 53.3075 71.8319 53.1191 71.1587C52.9308 70.4855 53.327 69.7864 54.0023 69.5987C54.6777 69.411 55.3791 69.8058 55.5674 70.479Z" fill="#FEE844"/>
<path d="M72.0674 64.5636C72.2558 65.2368 71.8596 65.9359 71.1842 66.1236C70.5088 66.3113 69.8075 65.9165 69.6191 65.2433C69.4308 64.5701 69.827 63.871 70.5023 63.6833C71.1777 63.4956 71.8791 63.8904 72.0674 64.5636Z" fill="#FEE844"/>
<path d="M47.5245 18.2234C47.7128 18.8966 47.3166 19.5957 46.6413 19.7834C45.9659 19.9711 45.2645 19.5762 45.0762 18.9031C44.8878 18.2299 45.284 17.5308 45.9594 17.3431C46.6348 17.1553 47.3361 17.5502 47.5245 18.2234Z" fill="#FEE844"/>
<path d="M27.8428 35.0784C28.0311 35.7516 27.635 36.4507 26.9596 36.6384C26.2842 36.8261 25.5829 36.4312 25.3945 35.758C25.2062 35.0849 25.6023 34.3858 26.2777 34.198C26.9531 34.0103 27.648 34.4052 27.8428 35.0784Z" fill="#FEE844"/>
<path d="M59.0579 8.10547C59.2007 8.61037 58.902 9.12821 58.402 9.27061C57.8954 9.41302 57.3759 9.11526 57.233 8.61684C57.0902 8.11194 57.3889 7.5941 57.8889 7.4517C58.3955 7.30929 58.915 7.60057 59.0579 8.10547Z" fill="#FEE844"/>
<path d="M33.1926 69.0743C33.3355 69.5792 33.0368 70.097 32.5367 70.2394C32.0302 70.3818 31.5107 70.0841 31.3678 69.5857C31.2249 69.0808 31.5236 68.5629 32.0237 68.4205C32.5237 68.2781 33.0498 68.5759 33.1926 69.0743Z" fill="#FEE844"/>
<path d="M77.251 39.7009C77.4393 40.3741 77.0432 41.0732 76.3678 41.2609C75.6924 41.4486 74.9911 41.0538 74.8027 40.3806C74.6144 39.7074 75.0105 39.0083 75.6859 38.8206C76.3613 38.6328 77.0562 39.0277 77.251 39.7009Z" fill="#FEE844"/>
<path d="M12.3408 41.0342C12.4512 41.4226 12.2239 41.824 11.8342 41.9275C11.4446 42.0376 11.042 41.811 10.938 41.4226C10.8276 41.0343 11.0549 40.6329 11.4446 40.5294C11.8277 40.4193 12.2304 40.6459 12.3408 41.0342Z" fill="#FEE844"/>
<path d="M32.1376 14.6368C32.248 15.0252 32.0208 15.4265 31.6311 15.5301C31.2415 15.6402 30.8388 15.4136 30.7349 15.0252C30.6245 14.6368 30.8518 14.2355 31.2415 14.1319C31.6246 14.0219 32.0272 14.2485 32.1376 14.6368Z" fill="#FEE844"/>
<path d="M29.5224 60.3046C29.6328 60.6929 29.4055 61.0943 29.0159 61.1978C28.6262 61.3079 28.2236 61.0813 28.1197 60.6929C28.0093 60.3045 28.2366 59.9032 28.6262 59.7997C29.0094 59.6961 29.412 59.9226 29.5224 60.3046Z" fill="#FEE844"/>
<path d="M67.04 54.7114C67.1504 55.0997 66.9231 55.5011 66.5334 55.6046C66.1438 55.7147 65.7412 55.4881 65.6373 55.0997C65.5269 54.7114 65.7542 54.31 66.1438 54.2065C66.527 54.1029 66.9296 54.323 67.04 54.7114Z" fill="#FEE844"/>
<path d="M82.7177 50.8991C82.8281 51.2875 82.6008 51.6888 82.2112 51.7924C81.8215 51.9024 81.4189 51.6758 81.315 51.2875C81.2046 50.8991 81.4319 50.4978 81.8215 50.3942C82.2047 50.2906 82.6073 50.5107 82.7177 50.8991Z" fill="#FEE844"/>
<path d="M70.6845 20.3338C70.7949 20.7222 70.5676 21.1235 70.178 21.2271C69.7883 21.3371 69.3857 21.1106 69.2818 20.7222C69.1714 20.3338 69.3987 19.9325 69.7883 19.8289C70.1715 19.7189 70.5741 19.9454 70.6845 20.3338Z" fill="#FEE844"/>
<path d="M26.5517 25.0977C26.6621 25.4861 26.4348 25.8874 26.0452 25.991C25.6555 26.101 25.2529 25.8745 25.149 25.4861C25.0386 25.0977 25.2659 24.6964 25.6555 24.5928C26.0387 24.4828 26.4413 24.7093 26.5517 25.0977Z" fill="#FEE844"/>
<path d="M19.4027 63.2042C19.5196 63.6315 19.2728 64.0716 18.8442 64.1881C18.4156 64.3047 17.974 64.0587 17.8571 63.6315C17.7402 63.2042 17.987 62.7641 18.4156 62.6476C18.8377 62.5311 19.2858 62.777 19.4027 63.2042Z" fill="#FEE844"/>
<path d="M37.148 77.3417C37.2584 77.73 37.0312 78.1314 36.6415 78.2414C36.2519 78.3514 35.8492 78.1249 35.7388 77.7365C35.6284 77.3481 35.8557 76.9468 36.2454 76.8368C36.635 76.7267 37.0441 76.9533 37.148 77.3417Z" fill="#FEE844"/>
<path d="M28.676 20.4757L29.254 21.1165L30.1112 21.0065L29.6761 21.7509L30.0463 22.5276L29.202 22.3464L28.5786 22.9354L28.4877 22.081L27.7344 21.6732L28.5202 21.3236L28.676 20.4757Z" fill="#FEE844"/>
<path d="M65.0281 23.4525L65.4762 23.9445L66.1321 23.8603L65.8009 24.43L66.0802 25.0255L65.4373 24.8896L64.9502 25.3427L64.8853 24.6824L64.3008 24.3717L64.9112 24.0998L65.0281 23.4525Z" fill="#FEE844"/>
<path d="M49.9773 14.8187L50.4189 15.3106L51.0813 15.2265L50.7436 15.7961L51.0294 16.3916L50.38 16.2557L49.8994 16.7088L49.828 16.0486L49.25 15.7378L49.854 15.466L49.9773 14.8187Z" fill="#FEE844"/>
<path d="M16.1355 54.5436L16.5771 55.0356L17.2395 54.9514L16.9018 55.5275L17.1876 56.1231L16.5382 55.9871L16.0576 56.4402L15.9927 55.78L15.4082 55.4628L16.0122 55.1974L16.1355 54.5436Z" fill="#FEE844"/>
<path d="M25.5906 67.5932L26.0322 68.0851L26.6946 68.001L26.3634 68.5706L26.6427 69.1661L25.9933 69.0302L25.5127 69.4833L25.4478 68.8295L24.8633 68.5123L25.4672 68.2405L25.5906 67.5932Z" fill="#FEE844"/>
<path d="M41.9218 67.4508L41.8569 68.6872L42.8375 69.438L41.6361 69.7552L41.2205 70.9268L40.5451 69.8847L39.3047 69.8523L40.0905 68.8878L39.7398 67.7033L40.8957 68.1499L41.9218 67.4508Z" fill="#FEE844"/>
<path d="M19.082 39.1892L19.017 40.4255L19.9976 41.1829L18.7962 41.5001L18.3806 42.6652L17.7052 41.623L16.4648 41.5907L17.2506 40.6327L16.8999 39.4416L18.0559 39.8883L19.082 39.1892Z" fill="#FEE844"/>
<path d="M69.9374 36.7673L69.8725 38.0036L70.8531 38.761L69.6517 39.0781L69.2361 40.2433L68.5607 39.2076L67.3203 39.1688L68.1061 38.2108L67.7554 37.0197L68.9114 37.4664L69.9374 36.7673Z" fill="#FEE844"/>
<path d="M60.5292 18.2353L60.4578 19.4651L61.4449 20.2225L60.2435 20.5397L59.8279 21.7048L59.1525 20.6691L57.9121 20.6303L58.6979 19.6723L58.3472 18.4877L59.5032 18.9279L60.5292 18.2353Z" fill="#FEE844"/>
</g>
<defs>
<filter id="filter0_f_408_2189" x="0.508789" y="0.635834" width="88.7119" height="83.3901" filterUnits="userSpaceOnUse" color-interpolation-filters="sRGB">
<feFlood flood-opacity="0" result="BackgroundImageFix"/>
<feBlend mode="normal" in="SourceGraphic" in2="BackgroundImageFix" result="shape"/>
<feGaussianBlur stdDeviation="2" result="effect1_foregroundBlur_408_2189"/>
</filter>
</defs>
</svg>
