<svg width="108" height="101" viewBox="0 0 108 101" fill="none" xmlns="http://www.w3.org/2000/svg">
<path d="M53.6799 43.3272C53.6799 43.3272 53.5427 42.6862 53.3112 41.5581C53.1912 40.9941 53.0626 40.3104 52.9168 39.5156C52.7625 38.7294 52.6081 37.832 52.4452 36.8578C52.2738 35.8835 52.128 34.8238 51.9565 33.7042C51.7936 32.5847 51.6564 31.3968 51.5193 30.1661C51.4078 28.9355 51.262 27.6621 51.1934 26.3631C51.0906 25.0641 51.0563 23.7394 51.0134 22.4147C50.9877 21.7567 51.0134 21.0901 51.0134 20.432C51.0134 19.774 51.0134 19.1159 51.0563 18.4579C51.0906 17.8084 51.1163 17.1589 51.1506 16.5179C51.2106 15.8769 51.2706 15.2445 51.3306 14.6207C51.3735 13.9968 51.4678 13.39 51.5621 12.7918C51.6564 12.1935 51.7336 11.6124 51.8365 11.0398C51.9565 10.4758 52.0766 9.92881 52.188 9.39895C52.248 9.13402 52.2995 8.86909 52.3595 8.6127C52.4281 8.35632 52.5053 8.10848 52.5739 7.86919C52.711 7.38206 52.8482 6.91202 52.9768 6.47616C53.0368 6.25396 53.1054 6.04031 53.1912 5.8352C53.2683 5.6301 53.3455 5.43353 53.4141 5.23697C53.7142 4.46782 53.9371 3.77558 54.2286 3.24572C54.7517 2.1689 55.0517 1.55358 55.0517 1.55358C55.309 1.03226 55.9349 0.818608 56.4493 1.06645C56.9723 1.31429 57.1867 1.9467 56.938 2.45947C56.9295 2.47656 56.9209 2.48511 56.9209 2.5022L56.8694 2.59621C56.8694 2.59621 56.5693 3.15171 56.0378 4.11743C55.7462 4.58746 55.5062 5.21988 55.1889 5.92921C55.1118 6.10868 55.0346 6.28815 54.9489 6.47616C54.8631 6.66418 54.786 6.86074 54.7174 7.06585C54.5716 7.47607 54.4258 7.91192 54.2715 8.37341C54.1943 8.60416 54.1172 8.8349 54.0314 9.0742C53.9628 9.31349 53.9028 9.56133 53.8342 9.81771C53.697 10.3219 53.5599 10.8433 53.4227 11.3731C53.2941 11.9115 53.1998 12.4756 53.0797 13.0482C52.9597 13.6208 52.8396 14.2019 52.7711 14.8087C52.6853 15.4069 52.591 16.0222 52.5053 16.6461C52.4452 17.27 52.3852 17.9024 52.3166 18.5433C52.248 19.1843 52.2052 19.8253 52.1794 20.4748C52.1537 21.1243 52.0937 21.7738 52.0851 22.4318C52.0594 23.7394 52.0251 25.047 52.068 26.3374C52.068 27.6279 52.1537 28.8927 52.2052 30.1234C52.2823 31.3455 52.3595 32.5334 52.4624 33.6615C52.5739 34.781 52.6682 35.8493 52.7882 36.8236C52.8997 37.8064 53.0111 38.7037 53.1226 39.49C53.2341 40.2848 53.3198 40.977 53.4141 41.5411C53.577 42.6777 53.6799 43.3272 53.6799 43.3272Z" fill="#4CFFFF"/>
<path d="M61.3379 43.7634C61.3379 43.7634 61.6123 43.1566 62.0838 42.0969C62.341 41.5756 62.6411 40.9432 63.0012 40.2168C63.3871 39.5074 63.7901 38.687 64.2959 37.8238C64.5446 37.3965 64.8018 36.9436 65.0762 36.4821C65.3591 36.0292 65.6592 35.5591 65.9593 35.072C66.2594 34.5849 66.5852 34.0977 66.9281 33.602C67.2711 33.1149 67.5969 32.5851 67.9828 32.0979C68.3514 31.5937 68.7373 31.0895 69.1145 30.5682C69.5089 30.0639 69.929 29.5597 70.332 29.0469C70.735 28.5256 71.1723 28.0299 71.6181 27.5343C72.064 27.0386 72.4841 26.5173 72.9557 26.0472C73.4187 25.5601 73.8817 25.0815 74.3361 24.5944C74.7991 24.1158 75.2878 23.6629 75.7594 23.2014C76.6939 22.2698 77.6885 21.4409 78.6231 20.5948C79.5834 19.7829 80.5351 19.0223 81.4268 18.3044C82.3528 17.6207 83.2188 16.9627 84.0419 16.373C84.8736 15.8089 85.6366 15.2876 86.314 14.8261C86.9913 14.3646 87.6087 14.0142 88.106 13.6895C89.1091 13.0742 89.675 12.7152 89.675 12.7152C90.1637 12.4076 90.8153 12.5614 91.1154 13.0485C91.4241 13.5357 91.2698 14.1852 90.781 14.4843C90.7639 14.4928 90.7553 14.5014 90.7382 14.5099L90.6953 14.5356C90.6953 14.5356 90.1208 14.8518 89.1177 15.4073C88.6204 15.6893 87.9945 16.0055 87.3171 16.4243C86.6312 16.843 85.8681 17.3131 85.0279 17.8258C84.2134 18.3728 83.3217 18.9625 82.3871 19.5863C81.4782 20.2444 80.5094 20.9452 79.5319 21.6887C78.5802 22.4664 77.5599 23.2356 76.5996 24.0987C76.1195 24.526 75.6136 24.9448 75.1335 25.3977C74.6619 25.8507 74.1818 26.3036 73.7016 26.7566C73.2129 27.201 72.7756 27.6966 72.3126 28.1581C71.8582 28.6282 71.3952 29.0982 70.9751 29.5854C70.5464 30.0725 70.1091 30.5425 69.6976 31.0296C69.2946 31.5168 68.8916 32.0039 68.5058 32.4825C68.1028 32.9525 67.7598 33.4568 67.3911 33.9183C67.031 34.3883 66.6795 34.8583 66.3623 35.3284C66.0364 35.7899 65.7192 36.2428 65.4191 36.6872C65.1276 37.1316 64.8532 37.5675 64.5789 37.9862C64.0387 38.8152 63.5929 39.61 63.1727 40.3022C62.7869 41.0116 62.4439 41.6269 62.1696 42.1311C61.638 43.1737 61.3379 43.7634 61.3379 43.7634Z" fill="#4CFFFF"/>
<path d="M66.3262 51.1816C66.3262 51.1816 66.8663 50.8055 67.8352 50.1817C68.8041 49.5493 70.1931 48.669 71.8993 47.6776C75.3117 45.6864 80.036 43.2678 85.0861 41.5842C86.3465 41.1569 87.624 40.7809 88.9015 40.4647C90.1705 40.1314 91.448 39.8921 92.6827 39.687C93.9259 39.4904 95.1348 39.3537 96.2923 39.2853C96.8668 39.2426 97.4327 39.2426 97.9814 39.2169C98.5302 39.2255 99.0532 39.2169 99.5676 39.234C100.579 39.2768 101.514 39.3537 102.337 39.4562C102.749 39.5161 103.134 39.5673 103.486 39.6186C103.837 39.687 104.163 39.7468 104.455 39.8066C105.046 39.9092 105.492 40.0459 105.809 40.1143C106.118 40.1912 106.29 40.2339 106.29 40.2339C106.847 40.3707 107.19 40.9433 107.053 41.4988C106.916 42.0543 106.341 42.3961 105.784 42.2594C105.767 42.2594 105.749 42.2508 105.741 42.2508L105.689 42.2337C105.689 42.2337 105.535 42.191 105.252 42.1056C104.969 42.0286 104.558 41.8748 104.018 41.7552C103.743 41.6868 103.452 41.6184 103.126 41.533C102.8 41.4646 102.44 41.3962 102.063 41.3279C101.3 41.1997 100.425 41.0715 99.4733 40.9946C98.9932 40.9518 98.4959 40.9347 97.9728 40.9005C97.4584 40.9005 96.9182 40.8749 96.3609 40.8835C95.2549 40.892 94.0888 40.9689 92.8799 41.0971C91.6795 41.2338 90.4277 41.4133 89.1759 41.6697C87.9241 41.9175 86.6552 42.2167 85.4033 42.5756C80.3704 43.9772 75.5604 46.1393 72.0622 47.9597C70.3131 48.8656 68.8812 49.6774 67.8866 50.2586C66.8835 50.8397 66.3262 51.1816 66.3262 51.1816Z" fill="#4CFFFF"/>
<path d="M62.5449 57.668C62.5449 57.668 63.2651 57.7279 64.5255 57.839C65.1514 57.9159 65.9231 57.9928 66.7976 58.121C67.6722 58.2663 68.6582 58.3859 69.7299 58.6167C70.2615 58.7278 70.8274 58.8218 71.3933 58.9585C71.9678 59.0952 72.5594 59.232 73.1596 59.3773C73.7683 59.514 74.3771 59.7106 75.0115 59.89C75.3288 59.984 75.646 60.0695 75.9718 60.1635C76.2891 60.2575 76.6063 60.3772 76.9321 60.4797C77.5752 60.7019 78.2439 60.907 78.9041 61.1549C79.5558 61.4112 80.2245 61.6676 80.8933 61.9326C81.5707 62.1804 82.2137 62.5137 82.8825 62.7957C83.5427 63.0948 84.2115 63.3854 84.8545 63.7358C85.5061 64.0691 86.1492 64.4109 86.8008 64.7442C87.4267 65.1117 88.0526 65.4792 88.6699 65.8467C88.9786 66.0262 89.2873 66.2142 89.5959 66.3937C89.896 66.5902 90.1875 66.7868 90.4791 66.9833C91.0621 67.3765 91.6451 67.7696 92.211 68.1542C92.7683 68.5558 93.2999 68.9746 93.8229 69.3763C94.3459 69.7865 94.8775 70.154 95.3491 70.5727C96.3008 71.4017 97.2182 72.1623 98.0242 72.9144C98.813 73.6835 99.5332 74.3929 100.168 75.0167C100.494 75.3244 100.768 75.6406 101.025 75.9312C101.282 76.2217 101.522 76.4867 101.737 76.726C102.594 77.6831 103.091 78.2301 103.091 78.2301C103.477 78.6574 103.443 79.324 103.006 79.7086C102.577 80.0931 101.908 80.059 101.522 79.6231C101.514 79.6146 101.505 79.5975 101.497 79.5889L101.454 79.5377C101.454 79.5377 101.008 78.9907 100.219 78.025C100.022 77.7857 99.799 77.5208 99.5675 77.2302C99.3274 76.9396 99.0788 76.6149 98.7787 76.3072C98.1871 75.6748 97.5183 74.9569 96.7895 74.1792C96.0436 73.4186 95.1862 72.6409 94.2945 71.7948C93.8486 71.3675 93.3513 70.9915 92.8626 70.5727C92.3653 70.1625 91.868 69.7267 91.345 69.3164C90.8049 68.9148 90.2561 68.5131 89.7074 68.1029C89.433 67.8978 89.1501 67.6927 88.8671 67.4876C88.5756 67.2995 88.2841 67.103 87.984 66.915C87.3924 66.5304 86.8008 66.1458 86.2006 65.7527C85.5833 65.3938 84.966 65.0434 84.3401 64.6844C83.7227 64.3169 83.0797 63.9922 82.4452 63.676C81.8022 63.3598 81.1848 63.0094 80.5332 62.7359C79.8902 62.4453 79.2471 62.1633 78.6126 61.8813C77.9781 61.6078 77.3265 61.3771 76.7006 61.1292C76.3834 61.0096 76.0747 60.8814 75.766 60.7703C75.4488 60.6677 75.1401 60.5652 74.8315 60.4626C74.2142 60.2661 73.614 60.0353 73.0224 59.8729C72.4308 59.702 71.8477 59.5396 71.2904 59.3773C70.7331 59.2149 70.1758 59.1038 69.6528 58.967C68.6067 58.6936 67.6293 58.5226 66.7633 58.3432C65.8974 58.1808 65.1343 58.0697 64.5169 57.9671C63.2651 57.762 62.5449 57.668 62.5449 57.668Z" fill="#4CFFFF"/>
<path d="M62.8633 63.5474C62.8633 63.5474 63.2748 63.932 63.9865 64.6157C64.338 64.9575 64.7924 65.3592 65.264 65.8549C65.7356 66.3591 66.2586 66.9317 66.833 67.547C67.4332 68.1538 67.982 68.8802 68.5993 69.6323C69.2081 70.3929 69.8854 71.162 70.4684 72.0423C71.0858 72.9054 71.7202 73.8028 72.3633 74.7172C72.9463 75.6658 73.5465 76.6316 74.1381 77.5887C74.764 78.5374 75.2699 79.5543 75.7929 80.5372C76.3073 81.5285 76.8475 82.4857 77.3191 83.4428C77.7563 84.4086 78.185 85.3486 78.588 86.2289C78.7938 86.6733 78.991 87.1091 79.1796 87.5194C79.3683 87.9381 79.5655 88.3398 79.7026 88.7415C80.9202 91.9206 81.7347 94.0401 81.7347 94.0401C81.9405 94.5785 81.6747 95.1853 81.1345 95.3904C80.5943 95.5955 79.9856 95.3305 79.7798 94.7836C79.7712 94.7665 79.7627 94.7494 79.7627 94.7323L79.7455 94.6725C79.7455 94.6725 79.0682 92.5531 78.0564 89.3653C77.9364 88.9637 77.7735 88.562 77.6106 88.1432C77.4477 87.7245 77.2762 87.2886 77.1047 86.8442C76.7618 85.9469 76.3931 85.0068 76.0158 84.0325C75.6128 83.0668 75.1327 82.1011 74.6868 81.0927C74.2238 80.0928 73.778 79.0672 73.2207 78.1015C72.6891 77.1187 72.1575 76.1359 71.6345 75.1702C71.0515 74.2386 70.477 73.3157 69.9197 72.4269C69.3881 71.521 68.7622 70.7176 68.2049 69.9314C67.639 69.1537 67.1246 68.3931 66.5758 67.7606C66.0442 67.1111 65.5469 66.5129 65.1182 65.983C64.6724 65.4617 64.2437 65.043 63.9179 64.6755C63.2491 63.9576 62.8633 63.5474 62.8633 63.5474Z" fill="#FEE844"/>
<path d="M56.2772 63.5727C56.2772 63.5727 56.1315 64.1282 55.8828 65.0939C55.7542 65.581 55.6342 66.1707 55.4713 66.8459C55.3169 67.521 55.1798 68.2987 55.0083 69.1362C54.8797 69.9823 54.6996 70.8882 54.5881 71.8625C54.5281 72.3496 54.451 72.8453 54.3995 73.358C54.3481 73.8708 54.3052 74.3921 54.2538 74.922C54.1937 75.4518 54.1852 75.9903 54.1509 76.5372C54.1166 77.0842 54.0909 77.6397 54.0909 78.1952C54.0823 78.7507 54.0651 79.3147 54.0737 79.8788C54.0909 80.4428 54.108 81.0068 54.1251 81.5709C54.1251 82.1349 54.1937 82.699 54.228 83.263C54.2709 83.8271 54.2966 84.3826 54.3738 84.9295C54.4424 85.4765 54.5024 86.0234 54.571 86.5704C54.6482 87.1088 54.751 87.6387 54.8368 88.16C54.9911 89.2026 55.2483 90.194 55.4455 91.134C55.5399 91.6041 55.677 92.057 55.7971 92.4929C55.9171 92.9287 56.0372 93.356 56.1486 93.7577C56.3887 94.5611 56.6545 95.2875 56.8688 95.937C57.0746 96.5865 57.3147 97.1334 57.4947 97.5864C57.8634 98.4923 58.0692 99.0136 58.0692 99.0136L58.0949 99.0649C58.3093 99.6033 58.052 100.21 57.5119 100.424C56.9717 100.637 56.363 100.381 56.1486 99.8426C56.14 99.8255 56.1315 99.8084 56.1315 99.7913C56.1315 99.7913 55.9428 99.2358 55.617 98.2701C55.4627 97.783 55.2398 97.2104 55.0683 96.5181C54.8882 95.8344 54.6482 95.0653 54.451 94.2192C54.3566 93.7919 54.2623 93.3475 54.1594 92.886C54.0651 92.4245 53.9451 91.9545 53.8765 91.4588C53.7222 90.476 53.5164 89.4419 53.4221 88.3565C53.3621 87.8181 53.2935 87.2712 53.2506 86.7157C53.2163 86.1602 53.182 85.5961 53.1477 85.0235C53.1048 84.4595 53.1048 83.8784 53.0963 83.3058C53.0963 82.7332 53.062 82.152 53.0877 81.5794C53.1048 81.0068 53.122 80.4257 53.1391 79.8531C53.1649 79.2805 53.2163 78.7079 53.2506 78.1439C53.2849 77.5798 53.3449 77.0158 53.4049 76.4688C53.4735 75.9219 53.5164 75.3749 53.6021 74.8365C53.6793 74.3067 53.765 73.7853 53.8422 73.2726C53.9194 72.7598 54.0308 72.2641 54.1166 71.777C54.2881 70.8027 54.5196 69.9054 54.6996 69.0679C54.914 68.2389 55.1026 67.4697 55.2912 66.8031C55.4884 66.1365 55.6513 65.5468 55.8057 65.0683C56.0972 64.1111 56.2772 63.5727 56.2772 63.5727Z" fill="#FEE844"/>
<path d="M46.8893 61.0776C46.8893 61.0776 46.3406 61.3767 45.3889 61.898C44.9087 62.1459 44.3514 62.5048 43.6998 62.8808C43.0396 63.2483 42.3451 63.744 41.5563 64.2397C41.1619 64.4875 40.776 64.7866 40.3645 65.0686C39.9615 65.3678 39.5242 65.6412 39.1127 65.9831C38.6925 66.3078 38.2638 66.6497 37.8266 66.9915C37.3893 67.3334 36.9692 67.7265 36.5319 68.094C36.3175 68.282 36.0946 68.47 35.8717 68.6666C35.6573 68.8717 35.443 69.0768 35.2372 69.2819C34.8171 69.7007 34.3627 70.1023 33.9511 70.5467C33.5396 70.9911 33.128 71.4355 32.7165 71.8885C32.2963 72.3329 31.9362 72.8285 31.5418 73.2986L30.9588 74.0079L30.4272 74.7514C30.0842 75.2557 29.707 75.7342 29.3897 76.2385C28.7638 77.264 28.1208 78.2554 27.6321 79.2894C27.5035 79.5458 27.3748 79.7937 27.2462 80.0415C27.1176 80.2893 26.989 80.5372 26.8861 80.7936C26.6718 81.2978 26.466 81.7935 26.2602 82.2721C26.1659 82.5113 26.0459 82.7421 25.9687 82.9814C25.8915 83.2207 25.8058 83.46 25.7286 83.6907C25.5743 84.1522 25.42 84.6052 25.2742 85.0325C25.1113 85.4598 25.0341 85.8871 24.9227 86.2887C24.8198 86.6904 24.7255 87.0664 24.6312 87.4254C24.4254 88.1347 24.3482 88.7757 24.2539 89.297C24.0739 90.3396 23.971 90.9293 23.971 90.9293L23.9538 91.0062C23.8595 91.5788 23.3108 91.9549 22.7449 91.8608C22.1704 91.7668 21.7932 91.2199 21.8875 90.6558C21.8875 90.6387 21.8961 90.6217 21.8961 90.6046C21.8961 90.6046 22.0332 89.9807 22.2819 88.8953C22.4105 88.3569 22.5305 87.6903 22.7792 86.9554C22.8906 86.5879 23.0193 86.1947 23.1479 85.776C23.285 85.3658 23.3965 84.9214 23.5851 84.477C23.7652 84.0326 23.9452 83.5711 24.1339 83.0925C24.2282 82.8532 24.3225 82.6139 24.4254 82.3661C24.5197 82.1182 24.6569 81.8875 24.7683 81.6396C25.0084 81.1525 25.2571 80.6483 25.5057 80.1355C25.6258 79.8791 25.7715 79.6227 25.9173 79.3749C26.063 79.1271 26.2174 78.8707 26.3631 78.6143C26.929 77.5717 27.6492 76.5803 28.3523 75.5548C28.7124 75.0505 29.1239 74.572 29.5012 74.0763L30.0842 73.3413L30.7187 72.6405C31.1474 72.179 31.5504 71.6919 31.9962 71.2561C32.4421 70.8202 32.8879 70.3843 33.3338 69.957C33.7796 69.5297 34.2598 69.1452 34.7056 68.7435C34.9371 68.5469 35.1601 68.3504 35.383 68.1538C35.6145 67.9743 35.8545 67.7863 36.086 67.6068C36.5576 67.2479 36.9949 66.8804 37.4579 66.5557C37.9209 66.2309 38.3753 65.9147 38.8126 65.607C39.2413 65.2908 39.6957 65.0345 40.1244 64.7524C40.5531 64.4875 40.9561 64.214 41.3676 63.9833C42.1822 63.5218 42.911 63.0688 43.5883 62.7355C44.2657 62.3851 44.8401 62.0604 45.3374 61.8382C46.3234 61.3511 46.8893 61.0776 46.8893 61.0776Z" fill="#FEE844"/>
<path d="M43.3738 53.2664C43.3738 53.2664 42.6965 53.1638 41.5047 52.9929C40.9045 52.916 40.1843 52.8476 39.3526 52.7536C38.5209 52.6852 37.5778 52.6083 36.5489 52.5656C35.52 52.54 34.4054 52.4887 33.2308 52.5314C32.0561 52.5229 30.8215 52.634 29.544 52.7109C28.2664 52.8562 26.9546 52.9758 25.6342 53.2151C24.974 53.3177 24.3052 53.4202 23.645 53.5826C22.9848 53.7279 22.3161 53.8646 21.6559 54.0184C20.344 54.3859 19.0236 54.7021 17.7633 55.1551C17.1288 55.3773 16.4943 55.5482 15.8856 55.8046C15.2768 56.0439 14.6766 56.2832 14.085 56.5139C13.4848 56.7361 12.9275 57.0181 12.3702 57.266C11.8129 57.5224 11.2727 57.7788 10.7497 58.018C9.72941 58.565 8.76055 59.0863 7.86027 59.5649C6.9943 60.0948 6.20549 60.5819 5.50242 61.0177C5.15089 61.2229 4.83365 61.4451 4.54213 61.6502C4.25062 61.8553 3.98482 62.0433 3.73618 62.2142C2.76731 62.8894 2.21858 63.2739 2.21858 63.2739L2.16713 63.3081C1.69556 63.6414 1.04394 63.5218 0.709549 63.0517C0.375162 62.5817 0.495199 61.9236 0.966769 61.5989C0.983917 61.5903 0.992491 61.5818 1.00964 61.5732C1.00964 61.5732 1.60125 61.1972 2.6387 60.5477C2.89592 60.3853 3.18744 60.2059 3.4961 60.0093C3.80477 59.8127 4.13915 59.5991 4.51641 59.4025C5.26235 58.9923 6.1026 58.5308 7.02002 58.0266C7.96316 57.5736 8.98347 57.0865 10.0724 56.5737C10.6297 56.343 11.1956 56.1123 11.7786 55.873C12.3616 55.6422 12.9447 55.3773 13.5706 55.1807C14.1879 54.9671 14.8138 54.7534 15.4483 54.5398C16.0828 54.309 16.743 54.1637 17.4032 53.9672C18.715 53.5655 20.0782 53.3006 21.4329 52.9929C22.1189 52.8647 22.8048 52.7622 23.4821 52.6511C24.1595 52.5229 24.8454 52.4545 25.5227 52.3776C26.8774 52.1981 28.215 52.1383 29.5097 52.0528C30.8043 52.0357 32.0561 51.9845 33.2479 52.0443C34.4311 52.0614 35.5543 52.1639 36.5832 52.2408C37.6121 52.3349 38.5552 52.4545 39.3869 52.5656C40.2186 52.7023 40.9388 52.8049 41.5304 52.9074C42.6965 53.1382 43.3738 53.2664 43.3738 53.2664Z" fill="#FEE844"/>
<path d="M47.4116 45.6518C47.4116 45.6518 46.9143 45.1903 46.0483 44.3784C45.6111 43.9767 45.0709 43.4981 44.4536 42.9512C43.8362 42.4042 43.116 41.8145 42.3358 41.165C41.5298 40.5412 40.6896 39.8318 39.7464 39.1567C39.2749 38.8148 38.8033 38.4473 38.306 38.097C37.8001 37.7466 37.2943 37.3962 36.7713 37.0372C36.2568 36.6697 35.6995 36.345 35.1508 35.986C34.602 35.6357 34.0447 35.2767 33.4703 34.952C32.8958 34.6187 32.3213 34.2683 31.7383 33.9435C31.1467 33.6273 30.5551 33.3026 29.9635 32.9863C29.3805 32.653 28.7546 32.3796 28.163 32.0805C27.5628 31.7899 26.9626 31.4822 26.3538 31.2258C25.7451 30.9609 25.1449 30.696 24.5533 30.4396C23.9531 30.1918 23.3529 29.9696 22.7699 29.7388C21.6038 29.2602 20.4378 28.9098 19.3489 28.5338C18.8087 28.3372 18.26 28.2005 17.737 28.0467C17.2139 27.9014 16.7081 27.7561 16.2279 27.6194C15.2591 27.3544 14.3502 27.175 13.5614 26.9784C12.7726 26.7733 12.0695 26.6707 11.4951 26.5682C10.3462 26.3631 9.68595 26.2434 9.68595 26.2434L9.63451 26.2349C9.06863 26.1323 8.69137 25.5854 8.79426 25.0213C8.89714 24.4573 9.44588 24.0813 10.0118 24.1838C10.0289 24.1838 10.0461 24.1924 10.0632 24.1924C10.0632 24.1924 10.732 24.3462 11.9152 24.6197C12.4982 24.7649 13.2184 24.9017 14.0244 25.1495C14.8304 25.3888 15.7478 25.6196 16.7338 25.9358C17.2225 26.0981 17.7284 26.2691 18.26 26.4485C18.783 26.628 19.3317 26.7989 19.8805 27.0211C20.9779 27.457 22.1526 27.8757 23.3186 28.4227C23.9017 28.6876 24.5104 28.9355 25.102 29.226C25.6936 29.5166 26.2938 29.8157 26.9026 30.1148C27.5113 30.4054 28.1029 30.7387 28.7031 31.072C29.2947 31.4053 29.912 31.713 30.4865 32.0805C31.0695 32.4308 31.6611 32.7898 32.2442 33.1402C32.8186 33.4991 33.3845 33.8837 33.9418 34.2512C34.5077 34.6101 35.0565 34.9947 35.588 35.3793C36.1196 35.7638 36.6598 36.1228 37.1657 36.5159C37.6715 36.9005 38.1688 37.2851 38.6575 37.6611C39.1463 38.0371 39.6007 38.4303 40.0551 38.7977C40.9725 39.5242 41.7871 40.2762 42.5587 40.9428C43.3047 41.6351 43.9992 42.2589 44.5908 42.8401C45.1824 43.4212 45.7054 43.9169 46.1169 44.3442C46.94 45.1646 47.4116 45.6518 47.4116 45.6518Z" fill="#4CFFFF"/>
<path d="M51.7666 43.6349C51.7666 43.6349 51.518 43.0281 51.0979 41.9513C50.8835 41.4214 50.6349 40.7634 50.3519 40.0113C50.0604 39.2592 49.7517 38.4132 49.4259 37.4816C49.083 36.5501 48.7572 35.5331 48.397 34.4563C48.0455 33.3795 47.7026 32.2343 47.351 31.0464C47.0252 29.8499 46.6651 28.6278 46.365 27.3544C46.0392 26.0982 45.7734 24.7991 45.499 23.5001C45.3618 22.8506 45.2675 22.1926 45.1475 21.5431C45.0275 20.8935 44.9246 20.244 44.8474 19.5945C44.7617 18.945 44.6845 18.3041 44.5988 17.6631C44.5473 17.0221 44.4959 16.3897 44.4444 15.7658C44.3844 15.142 44.3673 14.5267 44.3501 13.9284C44.3415 13.3216 44.3072 12.732 44.3158 12.1594C44.333 11.5782 44.3587 11.0227 44.3758 10.4758C44.3844 10.2023 44.393 9.93737 44.4016 9.67244C44.4273 9.40751 44.453 9.15112 44.4787 8.90329C44.5302 8.39906 44.5816 7.92048 44.6331 7.45898C44.6502 7.22824 44.6845 7.00604 44.7274 6.79238C44.7702 6.57873 44.8045 6.36508 44.8474 6.15997C45.0103 5.34808 45.1046 4.63021 45.3018 4.05761C45.6276 2.90388 45.8163 2.24583 45.8163 2.24583C45.9706 1.69033 46.5536 1.36557 47.1109 1.52795C47.6683 1.68178 47.9941 2.26292 47.8312 2.81842C47.8312 2.83551 47.8226 2.84406 47.814 2.86115L47.7797 2.96371C47.7797 2.96371 47.5739 3.56194 47.2224 4.60457C47.0166 5.11734 46.8966 5.78394 46.708 6.536C46.6651 6.72401 46.6137 6.92058 46.5708 7.11714C46.5193 7.3137 46.4765 7.52735 46.4507 7.74101C46.3822 8.17686 46.3136 8.62981 46.2364 9.09985C46.2021 9.33914 46.1592 9.57843 46.1249 9.82627C46.1078 10.0741 46.0821 10.3305 46.0563 10.5869C46.0135 11.1082 45.9706 11.6466 45.9192 12.1936C45.8849 12.7491 45.8849 13.3216 45.8677 13.9028C45.8506 14.4839 45.8334 15.0822 45.8677 15.6889C45.8849 16.2957 45.902 16.9196 45.9277 17.5434C45.9792 18.1673 46.022 18.7997 46.0735 19.4407C46.1164 20.0817 46.1935 20.7226 46.2707 21.3636C46.3564 22.0045 46.4165 22.6541 46.5193 23.3036C46.7251 24.594 46.9223 25.8845 47.1795 27.1493C47.411 28.4142 47.7026 29.6534 47.9683 30.8498C48.2599 32.0463 48.5428 33.2 48.8429 34.2854C49.143 35.3707 49.4259 36.4048 49.7174 37.3449C50.0004 38.2935 50.2576 39.1567 50.5148 39.9173C50.7635 40.6779 50.9693 41.3445 51.1665 41.8915C51.5523 43.0195 51.7666 43.6349 51.7666 43.6349Z" fill="#FEE844"/>
<path d="M59.3906 42.7461C59.3906 42.7461 59.5535 42.1051 59.8279 40.977C59.9908 40.4215 60.1794 39.7378 60.4024 38.9601C60.6596 38.1909 60.9168 37.3192 61.2598 36.3792C61.4312 35.9091 61.6113 35.422 61.7914 34.9178C61.9971 34.4221 62.2029 33.9008 62.4173 33.3795C62.623 32.8496 62.8631 32.3112 63.1203 31.7642C63.3775 31.2173 63.609 30.6532 63.892 30.0977C64.1749 29.5422 64.4579 28.9696 64.7408 28.3971C65.0409 27.8245 65.3667 27.2604 65.6754 26.6878C65.984 26.1067 66.327 25.5426 66.6785 24.9786C67.0301 24.4145 67.3559 23.8249 67.7331 23.2779C68.1018 22.7224 68.4705 22.1669 68.8392 21.6114C69.2079 21.0559 69.6109 20.5346 69.9967 19.9962C70.7512 18.9194 71.5914 17.928 72.3631 16.9367C73.1605 15.9709 73.9664 15.065 74.7295 14.1933C75.5183 13.3558 76.2643 12.561 76.9674 11.8346C77.6876 11.1338 78.3478 10.4929 78.9394 9.92026C79.5224 9.34767 80.0711 8.89472 80.5084 8.49305C81.383 7.7068 81.8888 7.2624 81.8888 7.2624C82.3175 6.87783 82.9777 6.91201 83.3721 7.33932C83.758 7.76663 83.7237 8.43323 83.295 8.8178C83.2864 8.82635 83.2693 8.8349 83.2607 8.85199L83.2264 8.87763C83.2264 8.87763 82.7205 9.28784 81.8288 10.0057C81.3915 10.3732 80.8257 10.792 80.2341 11.3218C79.6339 11.8517 78.9565 12.4414 78.2192 13.0994C77.5075 13.7831 76.7359 14.5181 75.9213 15.2958C75.1411 16.1077 74.3094 16.9537 73.4777 17.8596C72.6718 18.7912 71.8058 19.7227 71.0084 20.7397C70.6054 21.2439 70.1853 21.7396 69.7909 22.2695C69.4051 22.7993 69.0107 23.3206 68.6248 23.8505C68.2219 24.3718 67.8789 24.9359 67.5016 25.4743C67.133 26.0127 66.7643 26.5511 66.4299 27.1151C66.0869 27.6706 65.744 28.209 65.4182 28.756C65.1095 29.3115 64.8008 29.8584 64.4922 30.3969C64.1749 30.9267 63.9263 31.4822 63.6433 32.0035C63.369 32.5334 63.1032 33.0462 62.8717 33.5675C62.6316 34.0802 62.4001 34.5845 62.1772 35.0631C61.9714 35.5587 61.7656 36.0288 61.577 36.4903C61.1912 37.4047 60.8911 38.2593 60.5996 39.0114C60.3423 39.772 60.1194 40.4386 59.9308 40.9855C59.5793 42.1136 59.3906 42.7461 59.3906 42.7461Z" fill="#FEE844"/>
<path d="M65.5977 49.1896C65.5977 49.1896 66.0692 48.7281 66.9095 47.9418C67.7497 47.1556 68.9672 46.0446 70.4763 44.7712C73.4857 42.2159 77.7213 39.0196 82.4027 36.49C83.5688 35.849 84.7606 35.2679 85.9609 34.7295C87.1527 34.1825 88.3702 33.721 89.5534 33.3023C90.7452 32.892 91.9113 32.5502 93.0345 32.2767C93.5918 32.1314 94.1491 32.0374 94.6807 31.9178C95.2209 31.8323 95.7353 31.7298 96.2412 31.6614C97.2443 31.5246 98.1789 31.4392 99.0106 31.3965C99.4221 31.3879 99.8165 31.3708 100.177 31.3623C100.537 31.3708 100.871 31.3708 101.163 31.3794C101.763 31.3794 102.226 31.4392 102.552 31.4477C102.869 31.4734 103.04 31.4819 103.04 31.4819C103.615 31.5247 104.052 32.0203 104.009 32.6015C103.966 33.1741 103.469 33.6099 102.886 33.5672C102.869 33.5672 102.852 33.5672 102.843 33.5586L102.783 33.5501C102.783 33.5501 102.629 33.533 102.329 33.4988C102.037 33.4732 101.6 33.3963 101.051 33.3706C100.777 33.3535 100.468 33.3279 100.134 33.3108C99.7994 33.3023 99.4393 33.2937 99.0449 33.2937C98.2732 33.2937 97.3901 33.3279 96.4384 33.4134C95.9582 33.4561 95.4609 33.5245 94.9465 33.5843C94.4321 33.6697 93.9005 33.7381 93.3603 33.8492C92.2714 34.0543 91.1396 34.3278 89.9736 34.6611C88.8161 35.0115 87.6157 35.3961 86.4239 35.8661C85.2321 36.3276 84.0318 36.8489 82.8657 37.413C78.15 39.6606 73.7858 42.6261 70.6649 45.019C69.0959 46.2155 67.8355 47.2581 66.9523 48.0016C66.0864 48.7452 65.5977 49.1896 65.5977 49.1896Z" fill="#FEE844"/>
<path d="M63 55.7363C63 55.7363 63.7202 55.6679 64.9806 55.5568C65.6151 55.5226 66.3782 55.4713 67.2613 55.4371C68.1444 55.4286 69.139 55.3773 70.2279 55.4201C70.7681 55.4371 71.3425 55.4286 71.9256 55.4628C72.5086 55.497 73.1173 55.5312 73.7432 55.5739C74.3691 55.6081 75.0036 55.6935 75.6552 55.7534C75.9811 55.7875 76.3154 55.8217 76.6413 55.8559C76.9756 55.8986 77.31 55.9499 77.6444 56.0012C78.3218 56.1123 79.0077 56.1978 79.7022 56.3259C80.3881 56.4627 81.0912 56.608 81.7942 56.7447C82.5059 56.8729 83.1918 57.0866 83.9034 57.2575C84.6065 57.4369 85.3182 57.6079 86.0127 57.8472C86.7071 58.0694 87.4102 58.283 88.1047 58.5052C88.7821 58.7616 89.468 59.018 90.1368 59.2658C90.4711 59.394 90.8141 59.5222 91.1485 59.6419C91.4743 59.7871 91.8001 59.9324 92.1259 60.0777C92.769 60.3683 93.412 60.6503 94.0379 60.9238C94.6553 61.2229 95.2469 61.5476 95.8385 61.8468C96.4215 62.1544 97.0131 62.4279 97.5533 62.7527C98.6336 63.4022 99.6711 64.0004 100.597 64.5901C101.506 65.2139 102.338 65.7865 103.075 66.2908C103.452 66.5386 103.769 66.8035 104.078 67.0428C104.387 67.2821 104.661 67.5043 104.918 67.7009C105.93 68.4957 106.513 68.9486 106.513 68.9486C106.968 69.3076 107.045 69.9656 106.693 70.4186C106.333 70.8715 105.673 70.9484 105.218 70.598C105.21 70.5895 105.193 70.5809 105.184 70.5724L105.133 70.5297C105.133 70.5297 104.593 70.0682 103.649 69.2563C103.409 69.0512 103.152 68.829 102.869 68.5811C102.586 68.3418 102.286 68.0598 101.935 67.812C101.24 67.2907 100.46 66.701 99.611 66.06C98.7365 65.4447 97.7591 64.8294 96.7387 64.1457C96.2243 63.8038 95.667 63.5133 95.1183 63.1885C94.5609 62.8723 93.9951 62.5305 93.4034 62.2142C92.8033 61.9151 92.1945 61.6075 91.5772 61.2998C91.2685 61.146 90.9599 60.9921 90.6426 60.8383C90.3254 60.7016 89.9996 60.5648 89.6738 60.4281C89.0307 60.1546 88.3705 59.8726 87.7189 59.5906C87.0501 59.3427 86.3728 59.1034 85.704 58.8556C85.0352 58.5992 84.3493 58.3941 83.6634 58.189C82.9775 57.9924 82.3001 57.7532 81.6142 57.5908C80.9283 57.4199 80.2423 57.2489 79.5736 57.0866C78.8962 56.9327 78.2189 56.8131 77.5587 56.6763C77.2243 56.6165 76.8985 56.5396 76.5727 56.4883C76.2469 56.437 75.921 56.3943 75.5952 56.343C74.9522 56.2576 74.3263 56.1379 73.7089 56.0781C73.0916 56.0097 72.4914 55.9499 71.9084 55.8901C71.3254 55.8303 70.7681 55.8132 70.2279 55.7704C69.1476 55.685 68.153 55.685 67.2699 55.6593C66.3867 55.6508 65.6236 55.6764 64.9892 55.6764C63.7288 55.7021 63 55.7363 63 55.7363Z" fill="#FEE844"/>
<path d="M64.0801 61.7954C64.0801 61.7954 64.5345 62.1202 65.3405 62.6927C65.7349 62.9833 66.2407 63.3166 66.7809 63.7354C67.3125 64.1712 67.9127 64.6584 68.5729 65.1968C69.2502 65.7181 69.9018 66.359 70.6135 67.0171C71.3251 67.6837 72.0968 68.3588 72.8084 69.1451C73.5372 69.9142 74.2917 70.7176 75.0548 71.5209C75.7665 72.3755 76.4952 73.2472 77.2155 74.119C77.97 74.9736 78.613 75.9051 79.2732 76.8024C79.9249 77.7083 80.5936 78.58 81.1938 79.4603C81.7683 80.3576 82.317 81.2208 82.84 82.0412C83.1058 82.4515 83.3545 82.8531 83.6031 83.2377C83.8518 83.6223 84.1004 83.9983 84.289 84.3743C85.9438 87.357 87.0499 89.3397 87.0499 89.3397C87.3328 89.8439 87.1442 90.4848 86.6383 90.7583C86.1324 91.0403 85.4894 90.8523 85.215 90.3481C85.2064 90.331 85.1979 90.3139 85.1893 90.2968L85.1636 90.237C85.1636 90.237 84.1947 88.2287 82.7457 85.2204C82.5742 84.8358 82.3513 84.4598 82.1369 84.0667C81.914 83.6736 81.6911 83.2633 81.4596 82.8446C80.988 82.0071 80.4993 81.1268 79.9849 80.2124C79.4447 79.315 78.8445 78.4177 78.2529 77.4947C77.6527 76.5717 77.0697 75.6145 76.3838 74.7343C75.715 73.8369 75.0548 72.931 74.4032 72.0508C73.6915 71.2047 72.9971 70.3757 72.3197 69.5724C71.6595 68.752 70.9393 68.0426 70.2705 67.3418C69.6017 66.6496 68.9844 65.9745 68.3499 65.419C67.7326 64.8464 67.1581 64.3251 66.6523 63.8636C66.1378 63.4106 65.6577 63.0517 65.2804 62.7355C64.5174 62.1458 64.0801 61.7954 64.0801 61.7954Z" fill="#F610F8"/>
<path d="M58.9442 63.7696C58.9442 63.7696 58.9013 64.3422 58.8156 65.3335C58.7813 65.8292 58.7556 66.436 58.7213 67.1282C58.687 67.8205 58.6784 68.6067 58.6698 69.4613C58.687 70.3159 58.6698 71.2389 58.7298 72.2132C58.7556 72.7003 58.7641 73.2045 58.807 73.7173C58.8499 74.2301 58.8927 74.7514 58.9356 75.2813C58.9699 75.8111 59.0556 76.3495 59.1157 76.8879C59.1757 77.4349 59.2443 77.9818 59.3472 78.5288C59.4415 79.0757 59.5186 79.6312 59.6215 80.1867C59.733 80.7422 59.853 81.2892 59.9645 81.8447C60.0674 82.4002 60.2303 82.9472 60.3589 83.4941C60.4961 84.0411 60.6247 84.588 60.7962 85.1179C60.9591 85.6477 61.122 86.1776 61.2763 86.6989C61.4392 87.2202 61.6364 87.7159 61.8079 88.2201C62.1423 89.22 62.5624 90.1516 62.9311 91.0489C63.1026 91.5019 63.3255 91.9206 63.5141 92.3308C63.7113 92.7411 63.9 93.1342 64.08 93.5188C64.4573 94.2708 64.8431 94.9374 65.1689 95.5357C65.4862 96.1424 65.8205 96.6381 66.0692 97.0569C66.5836 97.8858 66.8837 98.3644 66.8837 98.3644L66.918 98.4157C67.2267 98.9028 67.0723 99.5523 66.5836 99.8515C66.0949 100.159 65.4433 100.005 65.1432 99.5182C65.1346 99.5011 65.126 99.484 65.1175 99.4669C65.1175 99.4669 64.8345 98.9541 64.3458 98.0568C64.1057 97.6038 63.7885 97.074 63.497 96.4244C63.1969 95.7835 62.8368 95.0656 62.4938 94.2623C62.3309 93.8606 62.1509 93.4418 61.9794 93.006C61.7993 92.5701 61.6107 92.1257 61.4478 91.6557C61.122 90.7156 60.7447 89.7328 60.4618 88.6816C60.316 88.1603 60.1445 87.6304 60.0074 87.092C59.8787 86.5536 59.7416 85.9981 59.613 85.4512C59.4672 84.9042 59.3729 84.3316 59.2614 83.7676C59.1585 83.2035 59.0214 82.6395 58.9528 82.0669C58.867 81.4943 58.7813 80.9303 58.7041 80.3577C58.6355 79.7851 58.5841 79.221 58.5241 78.657C58.4555 78.0929 58.4212 77.5374 58.3869 76.9819C58.3611 76.4264 58.3011 75.8795 58.3011 75.3411C58.284 74.8027 58.2754 74.2728 58.2583 73.76C58.2497 73.2387 58.2668 72.7345 58.2668 72.2388C58.2668 71.256 58.3354 70.3245 58.3697 69.4699C58.4383 68.6153 58.4898 67.829 58.5583 67.1368C58.6355 66.4445 58.6955 65.8378 58.7641 65.3421C58.867 64.3336 58.9442 63.7696 58.9442 63.7696Z" fill="#4CFFFF"/>
<path d="M48.6888 63.2996C48.6888 63.2996 48.2001 63.6841 47.3513 64.3678C46.9226 64.7011 46.4338 65.1455 45.8594 65.6327C45.2764 66.1112 44.6762 66.718 43.9902 67.3419C43.6473 67.6496 43.3215 68.0085 42.9614 68.3674C42.6184 68.7264 42.2326 69.0768 41.8896 69.4784C41.5381 69.8716 41.1694 70.2818 40.8007 70.692C40.432 71.1107 40.0891 71.5637 39.7204 72.0081C39.5403 72.2303 39.3517 72.461 39.1717 72.6832C39.0002 72.9225 38.8287 73.1618 38.6486 73.4011C38.3057 73.8883 37.937 74.3583 37.6026 74.8625C37.2768 75.3753 36.951 75.8795 36.6166 76.4008C36.2822 76.9136 36.0078 77.4605 35.7078 77.9904L35.2619 78.7937L34.8675 79.6227C34.6103 80.1782 34.3273 80.7166 34.1044 81.2721C33.6671 82.3917 33.2041 83.477 32.9041 84.5795C32.8183 84.853 32.7326 85.1179 32.6554 85.3914C32.5697 85.6563 32.4925 85.9212 32.4325 86.1947C32.3124 86.7246 32.1924 87.2459 32.0724 87.7587C32.0209 88.015 31.9438 88.2629 31.9095 88.5107C31.8752 88.7586 31.8323 89.0064 31.798 89.2457C31.7208 89.7328 31.6522 90.1943 31.5837 90.6473C31.4979 91.0917 31.4979 91.5275 31.455 91.9377C31.4207 92.3479 31.395 92.7411 31.3693 93.1086C31.2921 93.8435 31.3264 94.4845 31.3264 95.0144C31.335 96.0655 31.335 96.6723 31.335 96.6723V96.7492C31.335 97.3304 30.872 97.8004 30.289 97.8004C29.7059 97.8004 29.2429 97.3389 29.2344 96.7578C29.2344 96.7407 29.2344 96.7236 29.2344 96.7065C29.2344 96.7065 29.2687 96.0741 29.3201 94.9545C29.3544 94.399 29.3544 93.7239 29.4744 92.9547C29.5259 92.5701 29.5773 92.1599 29.6288 91.7326C29.6888 91.3053 29.7231 90.8438 29.8346 90.3823C29.9289 89.9123 30.0318 89.4337 30.1346 88.9295C30.1861 88.6816 30.2375 88.4253 30.289 88.1603C30.3404 87.9039 30.4347 87.6476 30.5033 87.3826C30.6577 86.8613 30.812 86.3229 30.9663 85.776C31.0349 85.5025 31.1378 85.229 31.2407 84.9555C31.3436 84.682 31.4465 84.4086 31.5494 84.1265C31.9266 82.9985 32.4668 81.896 32.9726 80.7679C33.2384 80.2039 33.5557 79.6655 33.8472 79.11L34.293 78.281L34.7989 77.4862C35.1419 76.9563 35.4505 76.4094 35.8192 75.9051C36.1879 75.4009 36.548 74.8881 36.9081 74.3925C37.2768 73.8968 37.6712 73.4353 38.0485 72.9567C38.2371 72.726 38.4257 72.4867 38.6143 72.2559C38.8115 72.0337 39.0087 71.8115 39.206 71.5979C39.6004 71.1706 39.9776 70.7262 40.372 70.3245C40.7664 69.9228 41.1608 69.5383 41.5381 69.1537C41.9068 68.7691 42.3097 68.4358 42.6784 68.0854C43.0557 67.7521 43.3986 67.4103 43.7673 67.1111C44.4875 66.5215 45.1306 65.9489 45.7393 65.4959C46.3481 65.0344 46.854 64.6157 47.2998 64.308C48.1829 63.6585 48.6888 63.2996 48.6888 63.2996Z" fill="#4CFFFF"/>
<path d="M43.3483 55.2149C43.3483 55.2149 42.6624 55.232 41.462 55.2662C40.8618 55.2918 40.133 55.3516 39.3013 55.4029C38.4697 55.4798 37.5265 55.5738 36.5148 55.702C35.4945 55.8473 34.397 56.0011 33.2481 56.2404C32.0906 56.437 30.8902 56.7617 29.647 57.0609C28.4209 57.4198 27.1434 57.7702 25.883 58.2317C25.2485 58.4453 24.6055 58.6675 23.9882 58.9325C23.3623 59.1889 22.7278 59.4367 22.1019 59.7016C20.8758 60.2913 19.624 60.8297 18.4665 61.4963C17.8835 61.8211 17.2833 62.1031 16.7345 62.462C16.1772 62.8039 15.6285 63.1457 15.0883 63.479C14.5396 63.7952 14.0337 64.1713 13.5364 64.5217C13.0391 64.8721 12.5419 65.2139 12.0703 65.5472C11.1614 66.2651 10.2955 66.9488 9.49808 67.5726C8.74357 68.2478 8.04907 68.8631 7.43174 69.4101C7.08878 69.6664 6.81441 69.9399 6.56577 70.1878C6.31712 70.4356 6.08562 70.6663 5.87127 70.88C5.03959 71.709 4.55945 72.1876 4.55945 72.1876L4.51658 72.2303C4.10503 72.6405 3.44483 72.6405 3.03327 72.2303C2.62172 71.8201 2.62172 71.162 3.03327 70.7518C3.04185 70.7433 3.059 70.7262 3.06757 70.7176C3.06757 70.7176 3.58201 70.2476 4.49086 69.4272C4.71378 69.222 4.971 68.9998 5.2368 68.752C5.50259 68.5042 5.80268 68.2392 6.13707 67.9743C6.79727 67.4445 7.5432 66.8377 8.35774 66.1796C9.20656 65.5728 10.1326 64.9148 11.11 64.2225C11.6159 63.9063 12.1389 63.573 12.6705 63.2397C13.2021 62.9064 13.7336 62.5475 14.3167 62.2484C14.8911 61.9322 15.4656 61.616 16.0572 61.2912C16.6402 60.9579 17.2661 60.693 17.8835 60.3853C19.101 59.7615 20.4042 59.2658 21.6818 58.7359C22.3334 58.4966 22.9936 58.2744 23.6366 58.0437C24.2797 57.8044 24.9485 57.6078 25.6001 57.4198C26.9033 57.0096 28.2151 56.719 29.4755 56.4114C30.7531 56.1721 31.9706 55.9071 33.1538 55.7619C34.3284 55.5738 35.443 55.4798 36.4719 55.3773C37.5008 55.2918 38.4525 55.2491 39.2842 55.2064C40.1245 55.1978 40.8532 55.1722 41.4534 55.1722C42.6624 55.1978 43.3483 55.2149 43.3483 55.2149Z" fill="#4CFFFF"/>
<path d="M46.0057 47.0106C46.0057 47.0106 45.4399 46.6346 44.4453 45.9851C43.948 45.6603 43.3306 45.2928 42.6276 44.857C41.9245 44.4297 41.11 43.9682 40.2269 43.4639C39.3266 42.9854 38.3749 42.4384 37.3288 41.9342C36.8058 41.6778 36.2828 41.3958 35.7255 41.1394C35.1682 40.883 34.6023 40.6266 34.0278 40.3617C33.4534 40.0882 32.8532 39.866 32.253 39.6096C31.6528 39.3532 31.0441 39.1054 30.4182 38.8832C29.7923 38.6524 29.175 38.4046 28.5405 38.191C27.906 37.9773 27.2629 37.7636 26.6199 37.5585C25.9854 37.3363 25.3252 37.174 24.6822 36.9774C24.0391 36.7979 23.3961 36.5928 22.753 36.4561C22.11 36.3023 21.4669 36.1484 20.841 35.9946C20.2065 35.8493 19.5806 35.7382 18.9633 35.61C17.7286 35.3451 16.5197 35.1913 15.3794 35.0118C14.8135 34.9178 14.2476 34.8665 13.716 34.8152C13.1758 34.7554 12.6528 34.7041 12.1555 34.6528C11.1524 34.5588 10.235 34.5417 9.42043 34.4819C8.6059 34.4221 7.89425 34.4392 7.31122 34.4306C6.14515 34.4221 5.47638 34.4221 5.47638 34.4221H5.42494C4.8419 34.4221 4.37891 33.9521 4.37891 33.3709C4.37891 32.7983 4.85905 32.3283 5.43351 32.3283C5.45066 32.3283 5.46781 32.3283 5.48495 32.3283C5.48495 32.3283 6.17088 32.3625 7.37981 32.4308C7.97999 32.465 8.71736 32.4821 9.54904 32.5847C10.3807 32.6787 11.3324 32.7471 12.3527 32.8923C12.8672 32.9693 13.3988 33.0462 13.9475 33.1316C14.4962 33.2171 15.0707 33.294 15.6452 33.4222C16.8027 33.6615 18.0287 33.8751 19.272 34.2084C19.8979 34.3708 20.5323 34.5076 21.1754 34.687C21.8099 34.875 22.4529 35.0631 23.096 35.2511C23.7476 35.4305 24.3907 35.6613 25.0337 35.8749C25.6768 36.1057 26.337 36.2937 26.9714 36.5586C27.6059 36.8065 28.249 37.0543 28.8834 37.2936C29.5179 37.55 30.1352 37.8235 30.7526 38.0884C31.3699 38.3448 31.9787 38.6268 32.5703 38.9174C33.1619 39.2079 33.762 39.4643 34.3279 39.7635C34.8938 40.054 35.4511 40.3446 35.9999 40.6266C36.5486 40.9086 37.063 41.2163 37.5775 41.4983C38.6064 42.0538 39.5409 42.6521 40.4155 43.1734C41.2729 43.7289 42.0617 44.2245 42.7476 44.686C43.4335 45.1561 44.0337 45.5577 44.5139 45.9081C45.457 46.6089 46.0057 47.0106 46.0057 47.0106Z" fill="#FEE844"/>
<path d="M50.9514 46.5064C50.9514 46.5064 50.6856 46.0705 50.214 45.3099C49.9739 44.9339 49.6996 44.4638 49.3823 43.9254C49.0565 43.387 48.705 42.7802 48.3277 42.1051C47.9419 41.4385 47.5475 40.7035 47.1274 39.9258C46.7072 39.1481 46.2957 38.3191 45.8584 37.456C45.4469 36.5843 45.001 35.6955 44.6066 34.7639C44.1865 33.8409 43.8092 32.8838 43.4234 31.9266C43.2348 31.448 43.0719 30.9609 42.8918 30.4738C42.7118 29.9866 42.5403 29.508 42.3945 29.0209C42.2402 28.5338 42.0944 28.0552 41.9401 27.5766C41.8115 27.0895 41.6915 26.6109 41.5628 26.1409C41.4257 25.6708 41.3313 25.2008 41.2456 24.7393C41.1513 24.2778 41.0484 23.8334 40.9798 23.389C40.9198 22.9446 40.8598 22.5087 40.7998 22.09C40.774 21.8763 40.7397 21.6712 40.714 21.4747C40.6969 21.2696 40.6883 21.073 40.6711 20.8764C40.6197 20.0902 40.5511 19.3723 40.5854 18.7228C40.6026 18.0818 40.5768 17.5178 40.6454 17.0477C40.7397 16.1162 40.7998 15.5864 40.7998 15.5864C40.8426 15.142 41.2456 14.8172 41.6914 14.8599C42.1373 14.9027 42.4631 15.3043 42.4202 15.7487C42.4202 15.7573 42.4202 15.7744 42.4117 15.7829L42.3945 15.8598C42.3945 15.8598 42.3174 16.347 42.1887 17.193C42.103 17.6118 42.0944 18.1417 42.0516 18.7484C41.9915 19.3467 42.0173 20.0304 42.0344 20.7824C42.0344 20.9704 42.043 21.1585 42.043 21.355C42.0601 21.5516 42.0773 21.7481 42.0944 21.9532C42.1287 22.3549 42.1716 22.7737 42.2059 23.201C42.2573 23.6283 42.3345 24.0641 42.4031 24.5171C42.4717 24.97 42.5403 25.423 42.6432 25.8845C42.7375 26.346 42.8404 26.8246 42.9347 27.2946C43.0547 27.7646 43.1833 28.2432 43.3034 28.7303C43.4234 29.2175 43.5692 29.6961 43.7149 30.1832C43.8692 30.6703 43.9979 31.1575 44.1693 31.636C44.5037 32.6018 44.8295 33.5675 45.1982 34.499C45.5412 35.4391 45.9442 36.345 46.3043 37.2338C46.6901 38.1055 47.0674 38.9601 47.4446 39.7549C47.8219 40.5497 48.1734 41.3017 48.5249 41.9854C48.8679 42.6691 49.1851 43.3015 49.4852 43.8485C49.7767 44.404 50.0254 44.8826 50.2483 45.2757C50.7027 46.0534 50.9514 46.5064 50.9514 46.5064Z" fill="#FEE844"/>
<path d="M56.6719 44.7971C56.6719 44.7971 56.7062 44.2844 56.7662 43.387C56.8091 42.9341 56.8691 42.3957 56.9291 41.7632C57.0234 41.1394 57.1006 40.43 57.2378 39.6694C57.3064 39.2849 57.3749 38.8917 57.4521 38.4815C57.5379 38.0713 57.6322 37.6525 57.7179 37.2167C57.8036 36.7808 57.9151 36.3364 58.0351 35.8835C58.1552 35.4305 58.2581 34.9605 58.4038 34.499C58.541 34.029 58.6868 33.5589 58.824 33.0803C58.9783 32.6018 59.1498 32.1232 59.3127 31.6446C59.467 31.1575 59.6556 30.6789 59.8528 30.2003C60.05 29.7217 60.2129 29.226 60.4273 28.756C60.6331 28.2774 60.8474 27.8074 61.0532 27.3288C61.259 26.8587 61.499 26.3973 61.722 25.9358C62.1507 25.0042 62.6651 24.1325 63.1195 23.2694C63.5997 22.4233 64.097 21.6114 64.56 20.8508C65.0573 20.0987 65.5203 19.3979 65.9575 18.7399C66.412 18.1075 66.8321 17.5263 67.2093 17.005C67.578 16.4837 67.9381 16.0649 68.2125 15.6975C68.7784 14.9796 69.1042 14.5694 69.1042 14.5694C69.3786 14.219 69.893 14.1506 70.2531 14.4326C70.6046 14.7061 70.6732 15.2189 70.3903 15.5778C70.3817 15.5864 70.3731 15.5949 70.3646 15.6035L70.3389 15.6291C70.3389 15.6291 70.0045 16.0137 69.4214 16.6888C69.1299 17.0307 68.7612 17.4238 68.3754 17.9109C67.9896 18.398 67.5523 18.945 67.0722 19.5432C66.6177 20.1586 66.129 20.8252 65.606 21.5345C65.1173 22.2609 64.5943 23.0301 64.0798 23.8334C63.5911 24.6538 63.0509 25.4828 62.5794 26.3802C62.3393 26.8246 62.0821 27.2604 61.8506 27.7134C61.6277 28.1663 61.3962 28.6278 61.1647 29.0893C60.9246 29.5422 60.736 30.0208 60.5216 30.4823C60.3158 30.9438 60.1015 31.4138 59.9214 31.8839C59.7328 32.3539 59.5442 32.8154 59.3727 33.2769C59.2098 33.7469 59.0469 34.2084 58.884 34.6614C58.7125 35.1143 58.5925 35.5673 58.4553 36.0117C58.3181 36.4561 58.1809 36.8834 58.078 37.3107C57.9666 37.738 57.8551 38.1568 57.7522 38.5499C57.6579 38.9516 57.5721 39.3447 57.4864 39.7207C57.3149 40.4728 57.2035 41.1736 57.0749 41.7889C56.9805 42.4128 56.8948 42.9512 56.8262 43.3956C56.7405 44.2844 56.6719 44.7971 56.6719 44.7971Z" fill="#F610F8"/>
<path d="M62.3047 48.8991C62.3047 48.8991 62.6134 48.4889 63.1449 47.771C63.4107 47.4121 63.7537 46.9848 64.1309 46.4891C64.5082 45.9934 64.9626 45.455 65.4513 44.8568C65.9401 44.2671 66.4974 43.6432 67.0718 42.9766C67.672 42.3356 68.2893 41.6349 68.9753 40.9597C69.3182 40.6179 69.6526 40.2675 70.0127 39.9256C70.3728 39.5838 70.7415 39.2419 71.1188 38.9001C71.4875 38.5497 71.8904 38.2335 72.2763 37.8916C72.6707 37.5583 73.0565 37.2165 73.468 36.9088C73.8796 36.5926 74.2912 36.2764 74.6941 35.9602C75.1228 35.6696 75.543 35.3705 75.9631 35.0799C76.1774 34.9347 76.3832 34.7894 76.5976 34.6526C76.8119 34.5244 77.0263 34.3877 77.2492 34.2595C77.6779 34.0031 78.098 33.7382 78.5267 33.4989C79.4013 33.0631 80.2244 32.5845 81.0646 32.2597C81.4762 32.0802 81.8877 31.9093 82.2736 31.747C82.6765 31.6102 83.0709 31.482 83.4396 31.3624C83.8169 31.2427 84.1684 31.106 84.52 31.0205C84.8715 30.9351 85.2059 30.8582 85.5231 30.7898C85.8404 30.7129 86.1319 30.653 86.4062 30.5847C86.6806 30.5419 86.9378 30.5163 87.1693 30.4821C88.0953 30.3625 88.6183 30.2941 88.6183 30.2941C89.0642 30.2343 89.4757 30.5505 89.5358 30.9949C89.5958 31.4393 89.2785 31.8495 88.8327 31.9093C88.8241 31.9093 88.807 31.9093 88.7984 31.9093L88.7126 31.9179C88.7126 31.9179 88.2239 31.9606 87.3665 32.029C87.1522 32.0461 86.9121 32.0632 86.6549 32.0888C86.3977 32.1315 86.1233 32.1828 85.8232 32.2426C85.5231 32.2939 85.2059 32.3537 84.8715 32.4135C84.5371 32.4734 84.1941 32.593 83.834 32.6785C83.4739 32.781 83.0967 32.8836 82.7108 32.9861C82.3336 33.1229 81.9392 33.2682 81.5362 33.422C80.7131 33.6869 79.9071 34.1142 79.0412 34.4903C78.6125 34.6954 78.2009 34.9347 77.7722 35.1654C77.5579 35.2765 77.3435 35.3962 77.1292 35.5158C76.9148 35.6355 76.709 35.7722 76.4947 35.9004C76.0746 36.1653 75.6458 36.4302 75.2171 36.6952C74.8056 36.9857 74.3855 37.2763 73.9739 37.5669C73.5538 37.8489 73.1594 38.1651 72.7564 38.4728C72.362 38.789 71.9504 39.0796 71.5732 39.4129C71.1874 39.7376 70.8101 40.0538 70.4329 40.37C70.0556 40.6862 69.7041 41.0281 69.3525 41.3443C68.6323 41.9767 67.9978 42.6433 67.3634 43.2501C66.7546 43.8825 66.1716 44.4722 65.6571 45.0362C65.1427 45.6088 64.6625 46.1216 64.2596 46.5916C63.8566 47.0702 63.4965 47.4719 63.2135 47.8223C62.6305 48.4974 62.3047 48.8991 62.3047 48.8991Z" fill="#F610F8"/>
<path d="M63.3926 54.0782C63.3926 54.0782 63.9327 53.933 64.8845 53.6766C65.3646 53.5655 65.9476 53.4202 66.6164 53.2749C67.2938 53.1467 68.0483 52.9758 68.8885 52.8561C69.3087 52.7963 69.7459 52.7109 70.2003 52.6596C70.6548 52.6083 71.1263 52.557 71.6065 52.4972C72.0866 52.4374 72.5925 52.4203 73.0984 52.3775C73.6042 52.3348 74.1272 52.3006 74.6588 52.3006C75.1904 52.2921 75.7306 52.2664 76.2793 52.2664C76.8281 52.2835 77.3854 52.2921 77.9427 52.3092C78.5 52.3092 79.0659 52.3861 79.6318 52.4203C80.1976 52.463 80.7635 52.4972 81.3294 52.5827C81.8953 52.6596 82.4612 52.7279 83.0185 52.8049C83.5758 52.9074 84.1331 53.01 84.6819 53.1125C84.9562 53.1638 85.2306 53.2151 85.505 53.2664C85.7793 53.3347 86.0451 53.4031 86.3109 53.4629C86.8425 53.5997 87.3741 53.7278 87.8885 53.856C88.9088 54.1637 89.9034 54.4628 90.8294 54.7876C91.7468 55.1465 92.6214 55.4542 93.4102 55.7875C94.1904 56.1464 94.9106 56.4712 95.5451 56.7617C96.1796 57.0523 96.7026 57.3685 97.1485 57.5907C98.0316 58.0607 98.5375 58.3342 98.5375 58.3342C98.9319 58.5479 99.0862 59.0436 98.8718 59.4367C98.6575 59.8298 98.1602 59.9836 97.7658 59.77C97.7572 59.7614 97.7486 59.7614 97.7401 59.7529L97.6972 59.7272C97.6972 59.7272 97.2171 59.4452 96.3854 58.9495C95.9653 58.7103 95.468 58.3855 94.8678 58.0778C94.2676 57.7702 93.5903 57.4198 92.8443 57.0438C92.0898 56.6848 91.2581 56.343 90.3836 55.9584C89.5004 55.608 88.5487 55.2747 87.5627 54.9243C87.0654 54.779 86.551 54.6252 86.0365 54.4714C85.7793 54.3944 85.5221 54.3175 85.2563 54.2406C84.9905 54.1808 84.7247 54.1124 84.4589 54.0526C83.9273 53.9244 83.3872 53.8048 82.847 53.6766C82.2983 53.5826 81.7495 53.48 81.2008 53.386C80.6521 53.2749 80.0948 53.2151 79.546 53.1467C78.9887 53.0869 78.44 52.9929 77.8912 52.9672C77.3425 52.933 76.7938 52.8903 76.2536 52.8561C75.7134 52.8305 75.1819 52.8305 74.6588 52.8134C74.1358 52.7963 73.6128 52.8049 73.1069 52.822C72.6011 52.839 72.1038 52.8305 71.6236 52.8732C71.1435 52.9074 70.6719 52.9416 70.2175 52.9672C69.7631 53.0014 69.3258 53.0612 68.9057 53.104C68.0654 53.1809 67.3023 53.3176 66.625 53.4202C65.9476 53.5313 65.3646 53.6509 64.8759 53.7364C63.9413 53.9586 63.3926 54.0782 63.3926 54.0782Z" fill="#F610F8"/>
<path d="M62.2285 58.334C62.2285 58.334 62.6229 58.522 63.3174 58.8553C63.6604 59.0262 64.0891 59.2057 64.5606 59.462C65.0322 59.727 65.5552 60.0176 66.1297 60.3423C66.7213 60.65 67.3043 61.0516 67.9474 61.4619C68.5819 61.8721 69.2678 62.2908 69.9194 62.795C70.5796 63.2907 71.2655 63.7949 71.9686 64.3163C72.6288 64.8803 73.3061 65.4444 73.9835 66.017C74.678 66.5725 75.2953 67.1963 75.9212 67.7946C76.5471 68.4013 77.173 68.9825 77.756 69.5722C78.3134 70.1789 78.8535 70.7686 79.368 71.3327C79.8738 71.8967 80.3883 72.4095 80.7998 72.9308C82.4718 74.9904 83.5864 76.3664 83.5864 76.3664C83.8693 76.7167 83.8179 77.2295 83.4663 77.5115C83.1148 77.7936 82.6004 77.7423 82.3174 77.3919C82.3089 77.3833 82.3003 77.3662 82.2917 77.3577L82.266 77.315C82.266 77.315 81.2542 75.9049 79.7281 73.794C79.3508 73.2641 78.8792 72.7342 78.4162 72.1531C77.9447 71.572 77.4474 70.9652 76.9329 70.3328C76.4014 69.7174 75.8097 69.1107 75.2353 68.4782C74.6523 67.8544 74.0778 67.1963 73.4262 66.6152C72.7917 66.017 72.1658 65.4102 71.5399 64.8205C70.8797 64.2735 70.2366 63.7266 69.6107 63.2053C68.9934 62.6583 68.3418 62.2139 67.7416 61.7695C67.1329 61.3337 66.567 60.8893 66.0097 60.556C65.4523 60.2056 64.9465 59.8808 64.5006 59.5988C64.0462 59.3168 63.6261 59.1117 63.2917 58.9151C62.6143 58.5476 62.2285 58.334 62.2285 58.334Z" fill="#FEE844"/>
<path d="M60.9766 60.1717C60.9766 60.1717 61.0194 60.6161 61.0966 61.3852C61.1309 61.7698 61.1995 62.2398 61.2681 62.7782C61.3367 63.3167 61.4396 63.9149 61.5425 64.5729C61.6711 65.2225 61.7825 65.9403 61.9626 66.6753C62.1169 67.4188 62.3227 68.1965 62.537 68.9999C62.6399 69.4015 62.7771 69.8032 62.8971 70.2134C63.0172 70.6236 63.1458 71.0338 63.2915 71.4441C63.4373 71.8543 63.5745 72.273 63.7288 72.6832C63.8917 73.0935 64.0546 73.5037 64.2175 73.9139C64.3719 74.3241 64.5691 74.7172 64.7406 75.1189C64.9206 75.5206 65.0921 75.9222 65.2979 76.2983C65.4951 76.6828 65.6837 77.0674 65.8809 77.4435C66.0781 77.8195 66.2925 78.1784 66.4982 78.5374C66.8926 79.2638 67.3385 79.9133 67.7415 80.5543C68.1444 81.1867 68.5903 81.7507 68.959 82.2891C69.3448 82.819 69.7392 83.2719 70.065 83.6907C70.3908 84.1095 70.7166 84.4428 70.9653 84.7333C71.4712 85.2974 71.7627 85.6221 71.7627 85.6221L71.7884 85.6563C72.0885 85.9896 72.0628 86.5024 71.7198 86.8015C71.3854 87.1006 70.871 87.075 70.5709 86.7331C70.5623 86.7246 70.5537 86.7075 70.5452 86.6989C70.5452 86.6989 70.2622 86.34 69.7649 85.7247C69.5249 85.4085 69.2076 85.0495 68.8904 84.588C68.5731 84.1351 68.1959 83.6394 67.8272 83.0668C67.4671 82.4857 67.0555 81.8789 66.6697 81.2038C66.2925 80.5201 65.8723 79.8193 65.5122 79.0587C65.3236 78.6826 65.1264 78.2981 64.9463 77.9049C64.7749 77.5033 64.5948 77.1016 64.4147 76.6999C64.2261 76.2983 64.0804 75.8795 63.9174 75.4607C63.7631 75.042 63.5831 74.6318 63.4545 74.1959C63.3087 73.7686 63.1715 73.3413 63.0258 72.9225C62.8886 72.4952 62.7771 72.0679 62.6571 71.6406C62.5285 71.2219 62.4256 70.7945 62.3227 70.3758C62.2284 69.957 62.1083 69.5468 62.0312 69.128C61.8597 68.3076 61.7054 67.5128 61.5853 66.7522C61.4481 66.0002 61.3795 65.2737 61.2852 64.6157C61.2166 63.9491 61.1566 63.3423 61.1137 62.8039C61.0795 62.2655 61.0452 61.7869 61.028 61.4023C60.9937 60.6161 60.9766 60.1717 60.9766 60.1717Z" fill="#FEE844"/>
<path d="M52.9829 62.2399C52.9829 62.2399 52.6657 62.5988 52.0998 63.2398C51.8169 63.556 51.4996 63.9577 51.1224 64.4106C50.7451 64.855 50.3593 65.402 49.922 65.9746C49.5019 66.5642 49.0474 67.2052 48.6016 67.8974C48.3872 68.2478 48.1558 68.6068 47.9328 68.9743C47.7013 69.3417 47.5041 69.7349 47.2812 70.128C47.1697 70.3246 47.0669 70.5211 46.9554 70.7177C46.8525 70.9228 46.7496 71.1279 46.6553 71.333C46.4581 71.7518 46.2352 72.162 46.0551 72.5978C45.8751 73.0337 45.6864 73.4695 45.5064 73.9054C45.3178 74.3412 45.1891 74.8027 45.0262 75.2471L44.7947 75.9223L44.6061 76.606C44.4861 77.0675 44.3403 77.5119 44.246 77.9734C44.0659 78.8878 43.8602 79.7851 43.7744 80.6739C43.7316 81.1183 43.6372 81.5457 43.6287 81.973C43.603 82.4003 43.5858 82.819 43.5601 83.2207C43.5258 83.6224 43.5344 84.0155 43.5515 84.4001C43.5601 84.7846 43.5687 85.1521 43.5772 85.5025C43.6029 86.2119 43.7058 86.8528 43.7487 87.4254C43.7916 87.998 43.903 88.4851 43.9716 88.8954C44.1174 89.7072 44.2031 90.1687 44.2031 90.1687L44.2117 90.2286C44.2889 90.673 43.9974 91.0917 43.5515 91.1772C43.1057 91.2541 42.6855 90.9635 42.5998 90.5191C42.5998 90.502 42.5912 90.4935 42.5912 90.4764C42.5912 90.4764 42.5312 89.9807 42.4197 89.1261C42.3683 88.6988 42.274 88.1775 42.2654 87.5707C42.2483 86.9639 42.1797 86.2888 42.1882 85.5453C42.1968 85.1778 42.214 84.7847 42.2225 84.3915C42.2311 83.9899 42.2397 83.5796 42.2997 83.1609C42.3426 82.7421 42.394 82.3063 42.4369 81.8619C42.4712 81.4175 42.5826 80.9731 42.6598 80.5201C42.797 79.6057 43.0542 78.6912 43.2943 77.7512C43.4229 77.2811 43.5944 76.8282 43.7401 76.3667L43.9716 75.6744L44.2374 74.9737C44.4261 74.5207 44.589 74.0592 44.8033 73.6234C45.0177 73.1875 45.2234 72.7517 45.4292 72.3158C45.6436 71.8885 45.8836 71.4783 46.1066 71.0595C46.218 70.8544 46.3381 70.6493 46.4495 70.4442C46.5696 70.2476 46.6982 70.0511 46.8182 69.8631C47.0669 69.4785 47.2898 69.0939 47.5384 68.735C47.7871 68.376 48.0357 68.0256 48.2758 67.6838C48.7645 67.0086 49.2532 66.3848 49.7076 65.8207C50.1792 65.2652 50.5908 64.7439 51.0023 64.3166C51.4053 63.8807 51.7397 63.4962 52.0398 63.1971C52.64 62.5817 52.9829 62.2399 52.9829 62.2399Z" fill="#FEE844"/>
<path d="M46.0671 56.5136C46.0671 56.5136 45.5441 56.6247 44.6267 56.8127C44.1722 56.9153 43.6235 57.052 42.989 57.2059C42.3631 57.3768 41.6515 57.5733 40.8884 57.8126C40.1253 58.0605 39.3022 58.3254 38.4534 58.6672C37.5874 58.9749 36.7129 59.3851 35.804 59.7783C34.9123 60.2227 33.9777 60.6585 33.0775 61.1884C32.1515 61.6755 31.2769 62.2652 30.3767 62.8292C29.5193 63.4446 28.6361 64.0257 27.8302 64.6923C27.4272 65.0256 27.0071 65.3162 26.6298 65.6666C26.2526 66.0084 25.8753 66.3417 25.5066 66.6665C25.1294 66.9827 24.795 67.3416 24.4606 67.6749C24.1262 68.0082 23.7918 68.3415 23.4746 68.6577C22.8744 69.3329 22.2999 69.9653 21.7769 70.555C21.2882 71.1703 20.8338 71.7429 20.4394 72.2386C20.0364 72.7342 19.7363 73.2128 19.4705 73.5803C18.9389 74.3324 18.6388 74.7597 18.6388 74.7597L18.6045 74.8024C18.3473 75.1699 17.8329 75.2639 17.4642 74.999C17.0955 74.7426 17.0012 74.2298 17.267 73.8623C17.2756 73.8538 17.2841 73.8367 17.2927 73.8281C17.2927 73.8281 17.6271 73.4008 18.2101 72.6488C18.5102 72.2813 18.836 71.8027 19.2819 71.307C19.7192 70.8113 20.2079 70.2473 20.7395 69.632C21.3054 69.0508 21.9313 68.427 22.5829 67.7604C22.9258 67.4442 23.2859 67.1279 23.6461 66.7946C24.0147 66.4699 24.3663 66.1195 24.7778 65.8118C25.1722 65.4956 25.5752 65.1709 25.9782 64.8376C26.3812 64.5043 26.827 64.2137 27.2557 63.8975C28.1045 63.2565 29.0391 62.701 29.948 62.1199C30.8911 61.59 31.8171 61.0345 32.7774 60.5816C33.7205 60.0945 34.6894 59.6928 35.6068 59.2911C36.5499 58.9322 37.4502 58.5647 38.3419 58.2998C39.2165 58.0006 40.0567 57.7699 40.837 57.5563C41.6172 57.3511 42.3374 57.1888 42.9719 57.0435C43.6149 56.9238 44.1722 56.8042 44.6352 56.7273C45.5441 56.5991 46.0671 56.5136 46.0671 56.5136Z" fill="#FEE844"/>
<path d="M46.9929 49.865C46.9929 49.865 46.5042 49.6599 45.6554 49.2924C45.2267 49.1129 44.7037 48.9078 44.1121 48.6685C43.5119 48.4378 42.826 48.1899 42.0886 47.925C41.3341 47.6857 40.5281 47.3866 39.6536 47.1473C39.2163 47.0191 38.779 46.8824 38.316 46.7542C37.853 46.6345 37.39 46.5149 36.9099 46.3867C36.4297 46.2585 35.941 46.1645 35.4437 46.0449C34.9464 45.9338 34.4491 45.8227 33.9347 45.7286C33.4288 45.6346 32.9144 45.5321 32.4 45.4466C31.8855 45.3697 31.3625 45.2928 30.8395 45.2159C30.325 45.1304 29.7935 45.0962 29.279 45.0364C28.756 44.9851 28.2416 44.9168 27.7271 44.8911C27.2127 44.8569 26.6982 44.8228 26.2009 44.7971C25.6951 44.7715 25.1978 44.7715 24.7091 44.7629C23.7316 44.7202 22.7799 44.7715 21.8796 44.7886C20.9794 44.8142 20.1391 44.8997 19.3589 44.9509C18.5786 45.0193 17.867 45.1219 17.2411 45.1902C16.6066 45.2501 16.0665 45.3612 15.612 45.4381C14.7118 45.5919 14.1973 45.6774 14.1973 45.6774L14.1545 45.6859C13.7086 45.7628 13.2885 45.4637 13.2113 45.0193C13.1342 44.5749 13.4342 44.1562 13.8801 44.0792C13.8887 44.0792 13.9058 44.0707 13.923 44.0707C13.923 44.0707 14.4545 44.0023 15.3891 43.8912C15.8521 43.8399 16.418 43.7545 17.0782 43.7203C17.7298 43.6776 18.4672 43.6092 19.2731 43.5836C20.0791 43.575 20.9451 43.5237 21.8711 43.5494C22.7885 43.575 23.7574 43.575 24.7605 43.6605C25.2578 43.6947 25.7722 43.7203 26.2781 43.7716C26.7926 43.8314 27.307 43.8912 27.83 43.9425C28.353 43.9938 28.876 44.0792 29.399 44.1647C29.9221 44.2502 30.4537 44.31 30.9767 44.4296C31.4997 44.5322 32.0227 44.6347 32.5457 44.7373C33.0602 44.8484 33.5746 44.9766 34.089 45.0962C34.6035 45.2073 35.1008 45.3441 35.5981 45.4808C36.0954 45.6175 36.5841 45.7372 37.0556 45.891C37.5272 46.0363 37.9988 46.1901 38.4532 46.3269C38.9076 46.4722 39.3449 46.6345 39.7822 46.7798C40.6482 47.0704 41.4455 47.4037 42.1829 47.6857C42.9117 47.9934 43.589 48.2669 44.1806 48.5318C44.7637 48.8053 45.2867 49.0275 45.6982 49.224C46.5214 49.6342 46.9929 49.865 46.9929 49.865Z" fill="#FEE844"/>
<path d="M50.5761 48.6084C50.5761 48.6084 50.3018 48.3007 49.8216 47.7623C49.3415 47.2154 48.6556 46.4377 47.8668 45.4805C47.4638 45.0019 47.0522 44.472 46.6064 43.9165C46.1605 43.3525 45.7147 42.7543 45.2517 42.1304C44.7973 41.498 44.3257 40.8485 43.8713 40.1562C43.4083 39.4811 42.971 38.7718 42.5251 38.0624C42.3022 37.712 42.105 37.3446 41.8992 36.9856C41.6935 36.6267 41.4877 36.2677 41.2991 35.9003C41.1104 35.5328 40.9218 35.1738 40.7332 34.8149C40.5617 34.4474 40.3988 34.0885 40.2359 33.7295C40.0644 33.3791 39.9186 33.0117 39.7815 32.6613C39.6443 32.3109 39.4985 31.9605 39.3785 31.6272C39.267 31.2853 39.1556 30.9435 39.0527 30.6187C39.0012 30.4563 38.9498 30.294 38.8983 30.1401C38.8555 29.9778 38.8212 29.8239 38.7783 29.6701C38.624 29.0548 38.4696 28.4907 38.401 27.9694C38.3239 27.4566 38.2296 27.0122 38.2124 26.6277C38.161 25.8756 38.1267 25.4483 38.1267 25.4483C38.1009 25.0894 38.3753 24.7732 38.7354 24.7475C39.0955 24.7219 39.4128 24.9954 39.4385 25.3543C39.4385 25.3628 39.4385 25.3714 39.4385 25.3799V25.4483C39.4385 25.4483 39.4471 25.8414 39.4642 26.5422C39.4556 26.8926 39.5242 27.3114 39.5757 27.7985C39.61 28.2856 39.73 28.824 39.85 29.4223C39.8758 29.5675 39.9101 29.7214 39.9358 29.8752C39.9787 30.029 40.0215 30.1829 40.0644 30.3452C40.1501 30.6615 40.2359 30.9862 40.3302 31.3281C40.4331 31.6614 40.5531 32.0032 40.6732 32.3451C40.7932 32.6954 40.9132 33.0458 41.059 33.4048C41.2047 33.7637 41.3419 34.1227 41.4963 34.4901C41.6592 34.8491 41.8306 35.2166 41.9936 35.584C42.1565 35.9515 42.3365 36.319 42.5251 36.678C42.7138 37.0369 42.8938 37.4129 43.091 37.7719C43.494 38.4897 43.8884 39.2162 44.3085 39.8999C44.7201 40.6006 45.1574 41.2672 45.5775 41.9167C46.0062 42.5577 46.4263 43.1816 46.8379 43.7627C47.2494 44.3439 47.6353 44.8908 48.0125 45.3865C48.7499 46.3864 49.3929 47.1983 49.8473 47.7623C50.3103 48.2836 50.5761 48.6084 50.5761 48.6084Z" fill="#FEE844"/>
<path d="M54.8869 46.4463C54.8869 46.4463 54.844 46.0361 54.7669 45.3097C54.7411 44.9422 54.7068 44.5063 54.6725 43.9936C54.6554 43.4893 54.6211 42.9082 54.6211 42.2843C54.6211 41.9681 54.6211 41.6434 54.6211 41.3101C54.6297 40.9682 54.6468 40.6264 54.6554 40.2674C54.664 39.9085 54.6897 39.541 54.724 39.165C54.7583 38.789 54.7669 38.4044 54.8183 38.0113C54.8612 37.6181 54.904 37.225 54.9555 36.8233C55.0155 36.4217 55.0755 36.02 55.1441 35.6098C55.2041 35.1996 55.2813 34.7894 55.367 34.3791C55.4528 33.9689 55.5214 33.5502 55.6243 33.1485C55.7271 32.7383 55.8215 32.3281 55.9243 31.9264C56.0272 31.5162 56.1473 31.1231 56.2587 30.7214C56.4731 29.918 56.756 29.1574 56.9961 28.4054C57.2619 27.6619 57.5448 26.9525 57.8021 26.2774C58.0936 25.6108 58.3594 24.9869 58.6166 24.4058C58.8909 23.8332 59.1396 23.3119 59.3711 22.8504C59.594 22.3889 59.8169 21.9958 59.9884 21.671C60.34 21.0215 60.5372 20.6455 60.5372 20.6455C60.7086 20.3293 61.1116 20.2011 61.4289 20.372C61.7547 20.5429 61.8747 20.9446 61.7032 21.2608C61.6947 21.2693 61.6947 21.2779 61.6861 21.2864L61.6689 21.3121C61.6689 21.3121 61.4546 21.6625 61.0859 22.2778C60.9058 22.5854 60.6658 22.9529 60.4257 23.3973C60.1856 23.8417 59.9113 24.3374 59.6197 24.8758C59.3454 25.4313 59.0453 26.0295 58.7366 26.662C58.4451 27.3115 58.1364 27.9866 57.8449 28.7045C57.5706 29.4309 57.2533 30.1659 57.0132 30.935C56.8846 31.3196 56.7389 31.7042 56.6274 32.0973C56.5074 32.4904 56.3959 32.8921 56.2759 33.2852C56.1473 33.6784 56.0701 34.0886 55.9672 34.4817C55.8643 34.8834 55.7614 35.2765 55.6928 35.6782C55.6157 36.0798 55.5299 36.4729 55.4528 36.8661C55.3842 37.2592 55.3242 37.6523 55.2641 38.0369C55.1956 38.4215 55.1613 38.7975 55.1098 39.1735C55.0584 39.541 55.0155 39.9085 54.9898 40.2674C54.9555 40.6264 54.9298 40.9682 54.904 41.3015C54.8869 41.6348 54.8697 41.9596 54.8526 42.2758C54.8183 42.8997 54.8269 43.4723 54.8183 43.9765C54.8269 44.4807 54.844 44.9251 54.8526 45.2926C54.8612 46.0276 54.8869 46.4463 54.8869 46.4463Z" fill="#FEE844"/>
<path d="M59.9492 48.9162C59.9492 48.9162 60.1379 48.5487 60.4551 47.8992C60.6094 47.5744 60.8238 47.1898 61.0553 46.7454C61.2868 46.2925 61.5697 45.8054 61.8784 45.2584C62.187 44.72 62.5386 44.1474 62.9073 43.5321C63.3017 42.9339 63.6875 42.2929 64.1419 41.6605C64.3648 41.3443 64.5878 41.011 64.8278 40.6862C65.0679 40.37 65.3166 40.0453 65.5566 39.712C65.7967 39.3787 66.0711 39.071 66.3369 38.7462C66.6027 38.43 66.8599 38.0967 67.1428 37.7976C67.4258 37.4899 67.7087 37.1823 67.9831 36.8746C68.2832 36.5841 68.5747 36.2849 68.8662 35.9944C69.012 35.8491 69.1577 35.7038 69.3035 35.5671C69.4578 35.4303 69.6121 35.3021 69.7665 35.1654C70.0751 34.9005 70.3666 34.627 70.6753 34.3791C71.3098 33.9091 71.8928 33.4134 72.5187 33.0374C72.8274 32.8408 73.1189 32.6443 73.4104 32.4563C73.7105 32.2939 74.002 32.1315 74.285 31.9862C74.5679 31.8409 74.8337 31.6786 75.0995 31.5675C75.3653 31.4564 75.6225 31.3453 75.8626 31.2427C76.1027 31.1402 76.3256 31.0461 76.5399 30.9607C76.7543 30.8838 76.9515 30.8325 77.1315 30.7727C77.8518 30.5505 78.2633 30.4223 78.2633 30.4223C78.6063 30.3112 78.9835 30.5077 79.0864 30.8496C79.1979 31.2 79.0007 31.5675 78.6577 31.67C78.6491 31.67 78.6406 31.6786 78.632 31.6786L78.5634 31.6957C78.5634 31.6957 78.1776 31.7982 77.5088 31.9691C77.3373 32.0119 77.1487 32.0546 76.9515 32.1144C76.7543 32.1828 76.5399 32.2682 76.3084 32.3537C76.0769 32.4392 75.8369 32.5246 75.5796 32.6186C75.3224 32.7126 75.0652 32.8494 74.7908 32.9776C74.5165 33.1058 74.2335 33.2425 73.942 33.3792C73.6591 33.5416 73.3676 33.7125 73.0675 33.8835C72.4501 34.2082 71.8671 34.6612 71.2326 35.0799C70.924 35.3021 70.6239 35.55 70.3152 35.7978C70.1609 35.9175 70.0065 36.0456 69.8522 36.1653C69.6979 36.2935 69.5521 36.4302 69.4064 36.5584C69.1063 36.8234 68.8062 37.0968 68.5061 37.3703C68.2146 37.6609 67.9231 37.9429 67.6401 38.2335C67.34 38.5155 67.0742 38.8232 66.7999 39.1308C66.5255 39.4385 66.2425 39.729 65.9853 40.0453C65.7281 40.3529 65.4709 40.6606 65.2137 40.9682C64.965 41.2759 64.7335 41.5921 64.4934 41.8912C64.0133 42.498 63.5932 43.1133 63.173 43.6859C62.7786 44.2756 62.4014 44.8226 62.067 45.3524C61.7412 45.8737 61.4325 46.3523 61.1753 46.7882C60.9181 47.224 60.6866 47.5915 60.5151 47.9163C60.1464 48.5572 59.9492 48.9162 59.9492 48.9162Z" fill="#FEE844"/>
<path d="M61.5332 52.8904C61.5332 52.8904 61.9448 52.6938 62.665 52.3605C63.0337 52.2067 63.4709 52.0101 63.9939 51.7965C64.517 51.5999 65.0914 51.3606 65.743 51.1469C66.3861 50.9162 67.0977 50.7025 67.8523 50.4803C68.2295 50.3607 68.6239 50.2838 69.0269 50.1727C69.4299 50.0701 69.8414 49.9676 70.2615 49.8907C70.6817 49.8052 71.1104 49.7112 71.5477 49.6428C71.9849 49.5744 72.4308 49.5061 72.8766 49.4463C73.3225 49.3693 73.7769 49.3522 74.2313 49.2924C74.6857 49.2497 75.1402 49.1984 75.6032 49.1899C76.0662 49.1728 76.5206 49.1471 76.9836 49.1301C77.4466 49.1386 77.901 49.1386 78.3554 49.1471C78.5783 49.1471 78.8098 49.1557 79.0328 49.1557C79.2557 49.1728 79.4786 49.1899 79.7015 49.1984C80.1474 49.2326 80.5847 49.2582 81.0134 49.2924C81.8708 49.395 82.7024 49.4975 83.4827 49.6172C84.2629 49.771 85.0003 49.8992 85.6776 50.053C86.3464 50.224 86.9637 50.3863 87.5125 50.5231C88.0612 50.6684 88.5156 50.8393 88.9014 50.9589C89.6731 51.2068 90.1104 51.3521 90.1104 51.3521C90.4533 51.4632 90.642 51.8392 90.5305 52.181C90.4191 52.5229 90.0418 52.7109 89.6988 52.5998C89.6903 52.5998 89.6817 52.5912 89.6731 52.5912L89.6302 52.5742C89.6302 52.5742 89.2101 52.4203 88.4813 52.1383C88.1126 52.0101 87.6754 51.8135 87.1524 51.6512C86.6293 51.4888 86.0377 51.3093 85.3947 51.1128C84.7431 50.9333 84.0314 50.7795 83.2855 50.5914C82.531 50.4376 81.725 50.3009 80.8933 50.1641C80.4732 50.1129 80.0531 50.0701 79.6158 50.0189C79.4014 49.9932 79.1871 49.9676 78.9642 49.9419C78.7412 49.9334 78.5269 49.9163 78.304 49.9078C77.8581 49.8821 77.4123 49.8565 76.9664 49.8308C76.5206 49.8308 76.0662 49.8308 75.6117 49.8308C75.1573 49.8223 74.7115 49.8479 74.2656 49.8736C73.8198 49.9078 73.3653 49.9078 72.9281 49.959C72.4822 50.0018 72.0449 50.053 71.6077 50.0958C71.1704 50.147 70.7503 50.224 70.3301 50.2838C69.9186 50.3692 69.507 50.4547 69.1041 50.5316C68.7011 50.6171 68.3067 50.6855 67.9294 50.7795C67.1749 50.9675 66.4547 51.1384 65.8031 51.3435C65.1429 51.523 64.5598 51.7366 64.0282 51.9076C63.5052 52.087 63.0594 52.2665 62.6821 52.4032C61.9533 52.7194 61.5332 52.8904 61.5332 52.8904Z" fill="#FEE844"/>
<path d="M65.7773 59.2056C65.7773 59.2056 66.2146 59.3338 66.9777 59.556C67.355 59.6842 67.818 59.8295 68.341 60.009C68.864 60.2055 69.4556 60.4021 70.0815 60.6756C70.716 60.9234 71.3933 61.2396 72.105 61.5729C72.4651 61.7353 72.8166 61.9318 73.1853 62.1199C73.554 62.3079 73.9312 62.5044 74.2999 62.7266C74.6686 62.9403 75.0544 63.1539 75.4317 63.3847C75.8004 63.624 76.1776 63.8633 76.5634 64.1111C76.9493 64.3504 77.3008 64.6324 77.6781 64.8888C78.0468 65.1537 78.424 65.4187 78.7755 65.7178C79.1357 66.0084 79.4958 66.2904 79.8473 66.581C80.1903 66.8886 80.5246 67.1877 80.8676 67.4954C81.0391 67.6492 81.202 67.7945 81.3735 67.9483C81.5278 68.1107 81.6907 68.2645 81.845 68.4269C82.1537 68.7431 82.4624 69.0593 82.771 69.3585C83.3455 69.9994 83.9028 70.6233 84.4087 71.2386C84.8888 71.871 85.3604 72.4522 85.7634 73.0162C86.1492 73.5888 86.5093 74.1187 86.818 74.5802C87.1352 75.0502 87.3581 75.486 87.5725 75.8279C87.984 76.5287 88.2155 76.9218 88.2155 76.9218C88.4042 77.238 88.2927 77.6397 87.984 77.8191C87.6668 78.0072 87.2638 77.8961 87.0838 77.5884C87.0752 77.5799 87.0752 77.5713 87.0666 77.5628L87.0495 77.5286C87.0495 77.5286 86.8437 77.1355 86.475 76.4432C86.2864 76.1014 86.0892 75.6655 85.7977 75.204C85.5147 74.7425 85.1889 74.2127 84.8374 73.6401C84.4687 73.076 84.04 72.4949 83.6027 71.8625C83.1397 71.2472 82.6253 70.6147 82.0937 69.9652C81.8107 69.649 81.5278 69.3328 81.2363 69.0166C81.0905 68.8542 80.9448 68.6919 80.799 68.5295C80.6447 68.3756 80.4818 68.2218 80.3274 68.068C80.0102 67.7603 79.693 67.4441 79.3757 67.1279C79.0413 66.8288 78.6984 66.5297 78.364 66.2391C78.0296 65.9314 77.6781 65.658 77.3265 65.3759C76.9664 65.1025 76.632 64.8034 76.2634 64.5555C75.9032 64.2991 75.5431 64.0427 75.183 63.7864C74.8229 63.5385 74.4542 63.3163 74.1027 63.0856C73.7512 62.8548 73.3911 62.6412 73.031 62.4361C72.6708 62.2395 72.3365 62.0258 71.9849 61.8464C71.2904 61.4874 70.6388 61.1456 70.0215 60.8636C69.4127 60.5645 68.8297 60.3423 68.3153 60.1201C67.8008 59.915 67.3464 59.7526 66.9777 59.6073C66.206 59.3509 65.7773 59.2056 65.7773 59.2056Z" fill="#FEE844"/>
<path d="M55.9691 61.1887C55.9691 61.1887 55.7633 61.522 55.4118 62.1031C55.2317 62.3937 55.0345 62.7612 54.803 63.1714C54.563 63.5816 54.3315 64.0688 54.0657 64.5815C53.8085 65.1114 53.5427 65.684 53.2854 66.2908C53.1568 66.5984 53.0282 66.9146 52.8996 67.2394C52.771 67.5641 52.6681 67.906 52.5395 68.2478C52.4795 68.4187 52.4195 68.5897 52.3595 68.7691C52.308 68.9486 52.2566 69.1281 52.2051 69.3075C52.1108 69.6665 51.9908 70.0254 51.905 70.3929C51.8193 70.7604 51.7421 71.1364 51.6564 71.5125C51.5706 71.8885 51.5278 72.2731 51.4592 72.6491L51.3649 73.2217L51.3134 73.7943C51.2791 74.1789 51.2277 74.5549 51.2191 74.9309C51.202 75.683 51.1677 76.4265 51.2191 77.1444C51.2448 77.5033 51.2363 77.8537 51.2877 78.1956C51.3306 78.5374 51.3734 78.8707 51.4077 79.1955C51.442 79.5202 51.502 79.8364 51.5706 80.1355C51.6307 80.4346 51.6907 80.7252 51.7507 81.0072C51.8707 81.5627 52.0422 82.0584 52.1537 82.5114C52.2651 82.9643 52.428 83.3318 52.5395 83.648C52.771 84.2719 52.8996 84.6308 52.8996 84.6308L52.9168 84.6735C53.0454 85.0154 52.8653 85.3914 52.5309 85.5196C52.188 85.6478 51.8107 85.4683 51.6821 85.1265C51.6821 85.1179 51.6735 85.1009 51.6735 85.0923C51.6735 85.0923 51.5535 84.7077 51.3477 84.0411C51.2448 83.7078 51.0991 83.3062 51.0048 82.8276C50.9019 82.349 50.7561 81.8191 50.6618 81.2294C50.6189 80.9303 50.5761 80.6227 50.5246 80.3064C50.4732 79.9902 50.4217 79.6569 50.4132 79.3151C50.3874 78.9733 50.3617 78.6229 50.336 78.2639C50.3017 77.905 50.3274 77.5375 50.3188 77.1615C50.3017 76.418 50.3789 75.6488 50.4389 74.8711C50.4732 74.478 50.5503 74.0934 50.6018 73.7003L50.6875 73.1106L50.8161 72.5294C50.9019 72.1449 50.9705 71.7517 51.0819 71.3757C51.1848 70.9997 51.2963 70.6237 51.3992 70.2476C51.5106 69.8716 51.6478 69.5127 51.7678 69.1537C51.8279 68.9742 51.8965 68.7948 51.9565 68.6153C52.0251 68.4444 52.0937 68.2735 52.1623 68.1025C52.308 67.7607 52.428 67.4188 52.5738 67.1026C52.7196 66.7779 52.8739 66.4702 53.0111 66.1626C53.3026 65.5558 53.6027 64.9917 53.8856 64.479C54.1857 63.9747 54.4344 63.4962 54.7002 63.103C54.9574 62.7014 55.1717 62.3424 55.3689 62.069C55.7462 61.5135 55.9691 61.1887 55.9691 61.1887Z" fill="#F610F8"/>
<path d="M60.3855 60.0606C60.3855 60.0606 60.317 60.4452 60.1969 61.1203C60.1283 61.4536 60.0855 61.8638 60.0169 62.3339C59.9397 62.8039 59.914 63.3338 59.8454 63.9149C59.8025 64.4961 59.7596 65.1285 59.7425 65.7951C59.7425 66.1284 59.7339 66.4702 59.7339 66.8206C59.7339 67.171 59.7596 67.5299 59.7682 67.8889C59.7768 68.0683 59.7854 68.2564 59.7939 68.4358C59.8111 68.6153 59.8282 68.8033 59.8454 68.9913C59.8882 69.3588 59.9054 69.7434 59.9654 70.1109C60.0254 70.4869 60.0855 70.8629 60.1455 71.2475C60.2055 71.6235 60.2998 71.9996 60.377 72.3756L60.497 72.9397L60.6599 73.4952C60.7714 73.8626 60.8657 74.2301 60.9857 74.5891C61.2515 75.2984 61.483 75.9992 61.8003 76.6487C61.9546 76.9734 62.0746 77.3067 62.2461 77.6059C62.409 77.905 62.5719 78.2041 62.7262 78.4947C62.872 78.7852 63.0521 79.0587 63.215 79.3151C63.3864 79.5715 63.5408 79.8279 63.6951 80.0671C64.0124 80.5457 64.3553 80.9474 64.6211 81.3149C64.8869 81.6909 65.1784 81.9815 65.3928 82.2293C65.8386 82.725 66.0873 83.007 66.0873 83.007L66.1216 83.0412C66.3616 83.3147 66.3359 83.7249 66.0701 83.9727C65.7957 84.212 65.3842 84.1864 65.1355 83.9215C65.127 83.9129 65.1184 83.9044 65.1098 83.8958C65.1098 83.8958 64.8612 83.5796 64.4153 83.0327C64.201 82.7592 63.918 82.443 63.6522 82.0242C63.3864 81.614 63.0521 81.1782 62.7434 80.6568C62.5976 80.4004 62.4347 80.127 62.2804 79.845C62.1175 79.5629 61.946 79.2809 61.8088 78.9647C61.6631 78.657 61.5087 78.3408 61.3544 78.0161C61.1915 77.6913 61.08 77.3409 60.9429 76.9991C60.6513 76.3068 60.4456 75.5719 60.2141 74.8198C60.1026 74.4438 60.034 74.0592 59.9397 73.6746L59.8454 73.0935L59.7511 72.5123C59.691 72.1192 59.6139 71.7346 59.571 71.3415C59.5281 70.9484 59.4938 70.5638 59.451 70.1792C59.4167 69.7947 59.4081 69.4101 59.391 69.0255C59.3824 68.8375 59.3738 68.6495 59.3652 68.4615C59.3652 68.2735 59.3738 68.0854 59.3738 67.906C59.3824 67.5385 59.3738 67.1795 59.391 66.8206C59.4081 66.4702 59.4338 66.1198 59.451 65.7865C59.5024 65.1114 59.5796 64.479 59.6482 63.8978C59.7425 63.3167 59.8025 62.7868 59.9054 62.3168C59.9997 61.8467 60.0683 61.4365 60.1455 61.1118C60.2998 60.4366 60.3855 60.0606 60.3855 60.0606Z" fill="#FEE844"/>
<path d="M48.0993 57.2575C48.0993 57.2575 47.6792 57.3686 46.9504 57.5651C46.5903 57.6677 46.153 57.8044 45.6472 57.9582C45.1499 58.1292 44.584 58.3172 43.9838 58.5479C43.3836 58.7872 42.732 59.0351 42.0632 59.3513C41.3859 59.6418 40.6914 60.0093 39.9797 60.3683C39.2767 60.7699 38.5479 61.1631 37.8448 61.6331C37.1246 62.0689 36.4387 62.5903 35.7442 63.0859C35.0754 63.6243 34.3895 64.1371 33.7807 64.7097C33.1377 65.2567 32.5632 65.8463 31.9973 66.4104C31.4315 66.9744 30.9427 67.5727 30.4454 68.1111C29.991 68.6837 29.5623 69.2221 29.1679 69.7263C28.7992 70.2476 28.4648 70.7262 28.1648 71.145C27.8561 71.5637 27.6417 71.9654 27.4445 72.2731C27.0501 72.9055 26.8272 73.2644 26.8272 73.2644L26.8101 73.2986C26.6214 73.6063 26.2099 73.7003 25.9012 73.5123C25.5926 73.3242 25.4982 72.914 25.6869 72.6064C25.6954 72.5978 25.6954 72.5893 25.704 72.5807C25.704 72.5807 25.9527 72.2218 26.3899 71.5894C26.6129 71.2817 26.8529 70.88 27.1873 70.4613C27.5131 70.0425 27.8818 69.5639 28.2848 69.0426C28.7221 68.5469 29.1851 68.0171 29.6824 67.4445C30.2139 66.9146 30.7541 66.3249 31.3543 65.7694C31.963 65.2139 32.5804 64.6413 33.2663 64.1115C33.9179 63.556 34.6467 63.0603 35.3498 62.5475C36.0871 62.0775 36.8074 61.5818 37.5619 61.1716C38.2992 60.7357 39.0623 60.3683 39.7825 60.0008C40.5285 59.6675 41.2401 59.3342 41.9432 59.0692C42.6291 58.7872 43.3065 58.565 43.9152 58.3514C44.5325 58.1548 45.107 57.9839 45.6129 57.8386C46.1273 57.7104 46.5732 57.5908 46.9418 57.5053C47.6706 57.3429 48.0993 57.2575 48.0993 57.2575Z" fill="#F610F8"/>
<path d="M47.8929 51.8306C47.8929 51.8306 47.4728 51.7366 46.7526 51.5571C46.3924 51.4717 45.9466 51.3862 45.4322 51.2751C44.9263 51.1725 44.3433 51.0785 43.7173 50.9674C43.0829 50.882 42.4055 50.7623 41.6682 50.6854C40.9394 50.5914 40.1677 50.5316 39.3789 50.4632C38.9845 50.429 38.5729 50.4205 38.17 50.3948C37.7584 50.3692 37.3469 50.3521 36.9267 50.3607C36.5066 50.3607 36.0865 50.3436 35.6664 50.3521C35.2462 50.3607 34.8175 50.3778 34.3974 50.3863C33.9773 50.3863 33.5486 50.4376 33.1284 50.4632C32.7083 50.4974 32.2882 50.5145 31.8766 50.5658C31.4651 50.6085 31.0535 50.6598 30.642 50.7025C30.239 50.7538 29.836 50.8222 29.4502 50.882C28.6614 50.9845 27.9154 51.164 27.2038 51.3007C26.4922 51.446 25.832 51.634 25.2146 51.7793C24.6059 51.9417 24.0571 52.1212 23.5598 52.2665C23.0626 52.4032 22.651 52.5741 22.2995 52.6938C21.605 52.9416 21.2106 53.0783 21.2106 53.0783L21.1763 53.0954C20.8333 53.2151 20.4561 53.0356 20.336 52.6938C20.216 52.3519 20.396 51.9759 20.739 51.8562C20.7476 51.8562 20.7561 51.8477 20.7733 51.8477C20.7733 51.8477 21.1848 51.7195 21.9136 51.4973C22.2823 51.3947 22.711 51.2409 23.234 51.1213C23.7485 51.0016 24.3229 50.8392 24.9574 50.7025C25.5919 50.5829 26.2778 50.4205 27.0152 50.3094C27.7525 50.2068 28.5242 50.0615 29.3302 49.9932C29.7331 49.9504 30.1447 49.8992 30.5562 49.8735C30.9678 49.8479 31.3965 49.8223 31.8166 49.7966C32.2367 49.7624 32.6654 49.7624 33.0941 49.7539C33.5228 49.7539 33.9515 49.7282 34.3888 49.7453C34.8175 49.7539 35.2462 49.7624 35.6749 49.771C36.1036 49.7881 36.5323 49.8223 36.9525 49.8393C37.3726 49.8564 37.7927 49.8992 38.2043 49.9419C38.6158 49.9846 39.0274 50.0103 39.4218 50.0701C40.2192 50.1726 40.9908 50.2752 41.7196 50.4034C42.4484 50.5145 43.1257 50.6683 43.7602 50.788C44.3861 50.9333 44.9606 51.0529 45.4664 51.1811C45.9723 51.3093 46.4096 51.4204 46.7697 51.5229C47.4813 51.7195 47.8929 51.8306 47.8929 51.8306Z" fill="#F610F8"/>
<path d="M29.1849 15.9028C29.4336 16.7916 28.9106 17.7146 28.0189 17.9624C27.1272 18.2103 26.2012 17.6889 25.9525 16.8001C25.7039 15.9113 26.2269 14.9884 27.1186 14.7405C28.0103 14.5012 28.9363 15.014 29.1849 15.9028Z" fill="#FEE844"/>
<path d="M67.933 87.8954C68.1816 88.7842 67.6586 89.7072 66.7669 89.955C65.8752 90.2029 64.9492 89.6816 64.7006 88.7928C64.4519 87.904 64.9749 86.981 65.8666 86.7331C66.7583 86.4853 67.6843 87.0066 67.933 87.8954Z" fill="#FEE844"/>
<path d="M89.7162 80.0838C89.9648 80.9726 89.4418 81.8956 88.5501 82.1435C87.6584 82.3913 86.7324 81.87 86.4838 80.9812C86.2351 80.0924 86.7581 79.1694 87.6498 78.9216C88.5415 78.6737 89.4675 79.195 89.7162 80.0838Z" fill="#FEE844"/>
<path d="M57.3158 18.902C57.5644 19.7908 57.0414 20.7138 56.1497 20.9616C55.258 21.2094 54.332 20.6881 54.0834 19.7993C53.8347 18.9105 54.3577 17.9875 55.2494 17.7397C56.1411 17.4919 57.0671 18.0132 57.3158 18.902Z" fill="#FEE844"/>
<path d="M31.3275 41.1565C31.5761 42.0453 31.0531 42.9683 30.1614 43.2161C29.2697 43.4639 28.3437 42.9426 28.0951 42.0538C27.8464 41.165 28.3695 40.242 29.2612 39.9942C30.1529 39.7464 31.0703 40.2677 31.3275 41.1565Z" fill="#FEE844"/>
<path d="M72.5424 5.5442C72.7311 6.2108 72.3367 6.89449 71.6765 7.08251C71.0077 7.27052 70.3218 6.8774 70.1331 6.21935C69.9445 5.55275 70.3389 4.86905 70.9991 4.68104C71.6679 4.49302 72.3538 4.8776 72.5424 5.5442Z" fill="#FEE844"/>
<path d="M38.3921 86.0413C38.5807 86.7079 38.1863 87.3916 37.5261 87.5796C36.8573 87.7677 36.1714 87.3745 35.9828 86.7165C35.7941 86.0499 36.1885 85.3662 36.8487 85.1782C37.5089 84.9902 38.2034 85.3833 38.3921 86.0413Z" fill="#FEE844"/>
<path d="M96.5599 47.2584C96.8086 48.1472 96.2856 49.0702 95.3939 49.318C94.5022 49.5659 93.5762 49.0445 93.3275 48.1557C93.0789 47.2669 93.6019 46.344 94.4936 46.0961C95.3853 45.8483 96.3027 46.3696 96.5599 47.2584Z" fill="#FEE844"/>
<path d="M10.8595 49.0189C11.0053 49.5317 10.7052 50.0616 10.1907 50.1983C9.6763 50.3436 9.14471 50.0445 9.00752 49.5317C8.86177 49.0189 9.16186 48.4891 9.6763 48.3523C10.1822 48.2071 10.7138 48.5062 10.8595 49.0189Z" fill="#FEE844"/>
<path d="M36.9943 14.1673C37.14 14.6801 36.8399 15.21 36.3255 15.3467C35.8111 15.492 35.2795 15.1929 35.1423 14.6801C34.9965 14.1673 35.2966 13.6375 35.8111 13.5007C36.3169 13.3554 36.8485 13.6546 36.9943 14.1673Z" fill="#FEE844"/>
<path d="M33.5392 74.4613C33.685 74.974 33.3849 75.5039 32.8704 75.6406C32.356 75.7859 31.8244 75.4868 31.6872 74.974C31.5415 74.4613 31.8415 73.9314 32.356 73.7947C32.8618 73.6579 33.3934 73.957 33.5392 74.4613Z" fill="#FEE844"/>
<path d="M83.0822 67.077C83.2279 67.5898 82.9278 68.1196 82.4134 68.2564C81.899 68.4017 81.3674 68.1025 81.2302 67.5898C81.0844 67.077 81.3845 66.5471 81.899 66.4104C82.4048 66.2737 82.9364 66.5642 83.0822 67.077Z" fill="#FEE844"/>
<path d="M103.777 62.0433C103.923 62.556 103.623 63.0859 103.109 63.2226C102.594 63.3679 102.063 63.0688 101.925 62.556C101.78 62.0433 102.08 61.5134 102.594 61.3767C103.1 61.2399 103.632 61.5305 103.777 62.0433Z" fill="#FEE844"/>
<path d="M87.8908 21.6883C88.0365 22.2011 87.7364 22.731 87.222 22.8677C86.7075 23.013 86.176 22.7139 86.0388 22.2011C85.893 21.6883 86.1931 21.1585 86.7075 21.0217C87.2134 20.8764 87.745 21.1756 87.8908 21.6883Z" fill="#FEE844"/>
<path d="M29.6212 27.9783C29.767 28.4911 29.4669 29.0209 28.9525 29.1577C28.438 29.303 27.9064 29.0038 27.7692 28.4911C27.6235 27.9783 27.9236 27.4484 28.438 27.3117C28.9439 27.1664 29.4755 27.4655 29.6212 27.9783Z" fill="#FEE844"/>
<path d="M20.1804 78.2895C20.3348 78.8536 20.009 79.4347 19.4431 79.5886C18.8772 79.7424 18.2942 79.4176 18.1398 78.8536C17.9855 78.2895 18.3113 77.7084 18.8772 77.5546C19.4345 77.4007 20.0261 77.7255 20.1804 78.2895Z" fill="#FEE844"/>
<path d="M43.6161 96.9544C43.7619 97.4671 43.4618 97.997 42.9474 98.1423C42.4329 98.2876 41.9013 97.9885 41.7556 97.4757C41.6098 96.9629 41.9099 96.4331 42.4243 96.2878C42.9388 96.1425 43.4789 96.4416 43.6161 96.9544Z" fill="#FEE844"/>
<path d="M32.4249 21.8763L33.188 22.7224L34.3197 22.5771L33.7453 23.5599L34.234 24.5855L33.1194 24.3462L32.2963 25.1239L32.1762 23.9958L31.1816 23.4574L32.2191 22.9959L32.4249 21.8763Z" fill="#FEE844"/>
<path d="M80.4232 25.8076L81.0148 26.4571L81.8808 26.346L81.4435 27.098L81.8122 27.8843L80.9633 27.7048L80.3203 28.303L80.2346 27.4313L79.4629 27.0211L80.2688 26.6622L80.4232 25.8076Z" fill="#FEE844"/>
<path d="M60.5462 14.407L61.1293 15.0565L62.0038 14.9454L61.558 15.6975L61.9352 16.4837L61.0778 16.3043L60.4433 16.9025L60.349 16.0308L59.5859 15.6206L60.3833 15.2616L60.5462 14.407Z" fill="#FEE844"/>
<path d="M15.8665 66.8548L16.4496 67.5043L17.3241 67.3932L16.8783 68.1538L17.2555 68.94L16.3981 68.7605L15.7637 69.3588L15.6779 68.4871L14.9062 68.0683L15.7036 67.7179L15.8665 66.8548Z" fill="#FEE844"/>
<path d="M28.3548 84.0838L28.9379 84.7333L29.8124 84.6222L29.3751 85.3743L29.7438 86.1605L28.8864 85.9811L28.2519 86.5793L28.1662 85.7161L27.3945 85.2974L28.1919 84.9384L28.3548 84.0838Z" fill="#FEE844"/>
<path d="M49.9143 83.8958L49.8286 85.5281L51.1232 86.5195L49.5371 86.9382L48.9883 88.4851L48.0966 87.1091L46.459 87.0664L47.4964 85.793L47.0334 84.2291L48.5596 84.8188L49.9143 83.8958Z" fill="#FEE844"/>
<path d="M19.76 46.5833L19.6743 48.2156L20.969 49.2155L19.3828 49.6343L18.834 51.1726L17.9423 49.7967L16.3047 49.754L17.3421 48.4891L16.8791 46.9166L18.4053 47.5063L19.76 46.5833Z" fill="#FEE844"/>
<path d="M86.9045 43.3871L86.8188 45.0194L88.1135 46.0193L86.5273 46.438L85.9786 47.9763L85.0869 46.609L83.4492 46.5577L84.4867 45.2929L84.0237 43.7204L85.5498 44.31L86.9045 43.3871Z" fill="#FEE844"/>
<path d="M74.4807 18.9194L74.3864 20.5432L75.6897 21.5431L74.1035 21.9618L73.5547 23.5001L72.663 22.1327L71.0254 22.0815L72.0628 20.8166L71.5999 19.2527L73.126 19.8338L74.4807 18.9194Z" fill="#FEE844"/>
</svg>
