<svg width="378" height="7" viewBox="0 0 378 7" fill="none" xmlns="http://www.w3.org/2000/svg">
<path opacity="0.3" d="M0.333333 3.5C0.333333 4.97276 1.52724 6.16667 3 6.16667C4.47276 6.16667 5.66667 4.97276 5.66667 3.5C5.66667 2.02724 4.47276 0.833333 3 0.833333C1.52724 0.833333 0.333333 2.02724 0.333333 3.5ZM372.333 3.49997C372.333 4.97273 373.527 6.16663 375 6.16663C376.473 6.16663 377.667 4.97273 377.667 3.49997C377.667 2.02721 376.473 0.833301 375 0.833301C373.527 0.833301 372.333 2.02721 372.333 3.49997ZM3 4L375 3.99997L375 2.99997L3 3L3 4Z" fill="url(#paint0_linear_12_7393)"/>
<defs>
<linearGradient id="paint0_linear_12_7393" x1="375" y1="3.99997" x2="3" y2="4.00071" gradientUnits="userSpaceOnUse">
<stop stop-color="#2682EE"/>
<stop offset="1" stop-color="#1CD691"/>
</linearGradient>
</defs>
</svg>
