<svg width="176" height="26" viewBox="0 0 176 26" fill="none" xmlns="http://www.w3.org/2000/svg">
<path d="M19.9984 3.33545C18.5829 1.93416 16.8675 0.934811 14.9974 0.398263C14.325 0.204663 13.6322 0.0719085 12.9262 0V2.06322V4.5708C12.5314 4.50442 12.1272 4.46939 11.7137 4.46939C11.3002 4.46939 10.896 4.50442 10.5012 4.5708V2.06322V0C9.79527 0.0719085 9.10425 0.204663 8.43186 0.398263C6.55998 0.936655 4.84641 1.93416 3.43086 3.33545C1.21812 5.52589 0 8.43727 0 11.5349C0 14.6325 1.21812 17.5438 3.43086 19.7343C4.84641 21.1356 6.56184 22.1349 8.43186 22.6715V25.5054H10.5012V23.0697V21.0065V18.4989C10.896 18.5653 11.3002 18.6003 11.7137 18.6003C12.1272 18.6003 12.5314 18.5653 12.9262 18.4989V21.0065V23.0697V25.5054H14.9956V22.6715C16.8675 22.1331 18.581 21.1356 19.9966 19.7343C22.2093 17.5438 23.4274 14.6325 23.4274 11.5349C23.4293 8.43727 22.2112 5.52589 19.9984 3.33545ZM8.43373 20.5142C4.72534 19.183 2.06932 15.6595 2.06932 11.5349C2.06932 7.41027 4.72534 3.88675 8.43373 2.55552V5.25854C6.14276 6.43674 4.57634 8.80787 4.57634 11.5349C4.57634 14.2619 6.14462 16.633 8.43373 17.8112V20.5142ZM11.7137 16.5556C11.2965 16.5556 10.8905 16.5058 10.5012 16.4099C9.72635 16.2218 9.02044 15.8568 8.43186 15.3589C7.33667 14.4389 6.64193 13.0652 6.64193 11.5367C6.64193 10.0082 7.33667 8.63456 8.43186 7.7145C9.02044 7.21667 9.72635 6.85159 10.5012 6.66352C10.8905 6.56765 11.2965 6.51786 11.7137 6.51786C12.1309 6.51786 12.537 6.56765 12.9262 6.66352C13.7011 6.85159 14.407 7.21667 14.9956 7.7145C16.0908 8.63456 16.7855 10.0082 16.7855 11.5367C16.7855 13.0652 16.0908 14.437 14.9956 15.3589C14.407 15.8568 13.7011 16.2218 12.9262 16.4099C12.5388 16.5058 12.1328 16.5556 11.7137 16.5556ZM14.9956 20.5142V17.8112C17.2865 16.633 18.853 14.2619 18.853 11.5349C18.853 8.80787 17.2847 6.43674 14.9956 5.25854V2.55552C18.7039 3.88675 21.36 7.41027 21.36 11.5349C21.36 15.6613 18.7039 19.183 14.9956 20.5142Z" fill="url(#paint0_linear_583_1191)"/>
<path d="M46.4881 7.76624C46.0169 7.33294 45.27 7.11722 44.2493 7.11722H29.1737L27.1714 18.394H29.8144L31.3957 9.51601H36.7115L35.1302 18.394H37.7545L39.3358 9.51601H43.2733C43.6551 9.51601 43.9494 9.5658 44.1562 9.66721C44.3648 9.76677 44.4672 10.0102 44.4672 10.3992C44.4672 10.5098 44.4616 10.6186 44.4505 10.7237C44.4393 10.8288 44.4225 10.9376 44.4002 11.0482L43.0889 18.3921H45.7301L47.0935 10.7809C47.1605 10.4029 47.194 10.0489 47.194 9.71514C47.194 8.84855 46.9575 8.19769 46.4881 7.76624Z" fill="url(#paint1_linear_583_1191)"/>
<path d="M61.6291 7.11526L55.3206 12.6946L50.9454 7.11526H47.6133L53.6536 14.7099L52.998 18.392H55.6391L56.2947 14.7449L64.9594 7.11711H61.6291V7.11526Z" fill="url(#paint2_linear_583_1191)"/>
<path d="M66.356 14.4739L66.9614 11.0518C67.0508 10.5171 67.2277 10.128 67.4903 9.88281C67.7548 9.63758 68.1385 9.51589 68.6433 9.51589H78.4851L78.906 7.1171H68.4905C67.2799 7.1171 66.343 7.41764 65.6818 8.01687C65.0206 8.61611 64.5773 9.53802 64.3519 10.7807L63.646 14.7283C63.5789 15.1266 63.5454 15.4935 63.5454 15.8272C63.5454 16.692 63.782 17.3373 64.2532 17.7596C64.7244 18.1818 65.4694 18.3938 66.492 18.3938H76.9056L77.3433 15.995H67.5015C67.3004 15.995 67.1234 15.9858 66.9725 15.9692C66.8198 15.9526 66.695 15.9157 66.5944 15.8604C66.4939 15.8051 66.4175 15.7185 66.3672 15.6023C66.3169 15.4861 66.2908 15.3331 66.2908 15.1432C66.2908 15.0547 66.2964 14.9533 66.3076 14.8427C66.3169 14.7302 66.3337 14.6066 66.356 14.4739Z" fill="url(#paint3_linear_583_1191)"/>
<path d="M94.3023 7.74953C93.8311 7.3273 93.0842 7.11526 92.0635 7.11526H84.1047C82.894 7.11526 81.9572 7.41581 81.2959 8.01504C80.6329 8.61428 80.1914 9.53619 79.9661 10.7789L79.2583 14.7265C79.1912 15.1248 79.1577 15.4917 79.1577 15.8254C79.1577 16.6902 79.3943 17.3355 79.8636 17.7577C80.3349 18.18 81.0818 18.392 82.1024 18.392H90.0612C91.2607 18.392 92.1957 18.0915 92.8625 17.4922C93.5312 16.893 93.9763 15.9711 94.1998 14.7283L94.9058 10.7808C94.9747 10.3825 95.0063 10.0137 95.0063 9.68185C95.0082 8.81526 94.7735 8.16992 94.3023 7.74953ZM92.2665 10.6738C92.2553 10.7918 92.2386 10.9154 92.2162 11.05L91.6109 14.4721C91.5215 14.9736 91.3445 15.3516 91.0819 15.6078C90.8174 15.8641 90.4337 15.9914 89.9308 15.9914H83.1175C82.9145 15.9914 82.7394 15.9858 82.5867 15.9729C82.4358 15.9637 82.3092 15.9287 82.2086 15.8734C82.108 15.8162 82.0279 15.7369 81.9721 15.6318C81.9143 15.5249 81.8864 15.3718 81.8864 15.1727C81.8864 15.0934 81.8957 14.9975 81.9125 14.8795C81.9311 14.7615 81.9497 14.6269 81.9721 14.4702L82.5774 11.0481C82.6668 10.5134 82.8437 10.1244 83.1064 9.87913C83.3709 9.63391 83.7545 9.51222 84.2574 9.51222H91.0707C91.4637 9.51222 91.7636 9.55647 91.9722 9.64681C92.179 9.73532 92.2833 9.97501 92.2833 10.3641C92.2833 10.4544 92.2777 10.5577 92.2665 10.6738Z" fill="url(#paint4_linear_583_1191)"/>
<path d="M97.3812 7.11526L95.3789 18.392H98.0219L100.022 7.11526H97.3812Z" fill="url(#paint5_linear_583_1191)"/>
<path d="M115.349 7.76612C114.88 7.33282 114.133 7.1171 113.11 7.1171H101.957L99.9551 18.3938H102.598L104.179 9.51589H112.136C112.518 9.51589 112.812 9.56567 113.019 9.66708C113.228 9.76665 113.33 10.01 113.33 10.3991C113.33 10.5097 113.325 10.6185 113.313 10.7236C113.302 10.8287 113.285 10.9375 113.263 11.0481L111.95 18.392H114.593L115.955 10.7807C116.022 10.4028 116.055 10.0488 116.055 9.71502C116.055 8.84843 115.82 8.19757 115.349 7.76612Z" fill="url(#paint6_linear_583_1191)"/>
<path d="M132.164 7.55777C131.811 7.2646 131.231 7.1171 130.423 7.1171H118.495L118.108 9.30017H129.078C129.358 9.30017 129.568 9.32782 129.71 9.38314C129.849 9.43845 129.92 9.59333 129.92 9.84962C129.92 9.97131 129.901 10.1151 129.87 10.2829L129.482 12.3978C129.415 12.7647 129.298 13.0339 129.13 13.2054C128.963 13.3768 128.698 13.4635 128.339 13.4635H117.37L116.495 18.3938H119.136L119.641 15.5949H128.927C129.892 15.5949 130.613 15.3792 131.09 14.9459C131.567 14.5126 131.889 13.8083 132.058 12.8311L132.613 9.66708C132.636 9.52327 132.654 9.39051 132.671 9.26698C132.69 9.14529 132.697 9.02175 132.697 8.90006C132.693 8.29898 132.518 7.85278 132.164 7.55777Z" fill="url(#paint7_linear_583_1191)"/>
<path d="M148.105 7.74953C147.635 7.3273 146.888 7.11526 145.868 7.11526H137.909C136.698 7.11526 135.761 7.41581 135.1 8.01504C134.437 8.61428 133.996 9.53619 133.77 10.7789L133.063 14.7265C132.995 15.1248 132.962 15.4917 132.962 15.8254C132.962 16.6902 133.198 17.3355 133.67 17.7577C134.141 18.18 134.886 18.392 135.909 18.392H143.867C145.067 18.392 146 18.0915 146.669 17.4922C147.337 16.893 147.781 15.9711 148.006 14.7283L148.712 10.7808C148.779 10.3825 148.812 10.0137 148.812 9.68185C148.812 8.81526 148.576 8.16992 148.105 7.74953ZM146.069 10.6738C146.058 10.7918 146.041 10.9154 146.019 11.05L145.413 14.4721C145.324 14.9736 145.147 15.3516 144.884 15.6078C144.62 15.8641 144.236 15.9914 143.731 15.9914H136.918C136.717 15.9914 136.54 15.9858 136.389 15.9729C136.238 15.9637 136.112 15.9287 136.011 15.8734C135.91 15.8162 135.832 15.7369 135.776 15.6318C135.719 15.5249 135.691 15.3718 135.691 15.1727C135.691 15.0934 135.7 14.9975 135.717 14.8795C135.733 14.7615 135.754 14.6269 135.776 14.4702L136.382 11.0481C136.471 10.5134 136.648 10.1244 136.911 9.87913C137.173 9.63391 137.559 9.51222 138.062 9.51222H144.875C145.268 9.51222 145.568 9.55647 145.775 9.64681C145.983 9.73532 146.086 9.97501 146.086 10.3641C146.086 10.4544 146.082 10.5577 146.069 10.6738Z" fill="url(#paint8_linear_583_1191)"/>
<path d="M153.59 15.9932C153.208 15.9932 152.912 15.9526 152.7 15.8678C152.485 15.7848 152.379 15.5488 152.379 15.1598C152.379 15.0713 152.388 14.9699 152.405 14.8592C152.424 14.7486 152.442 14.6214 152.465 14.4757L153.759 7.1171H151.118L149.772 14.7283C149.738 14.9275 149.71 15.1192 149.686 15.3036C149.664 15.4861 149.652 15.6613 149.652 15.8272C149.652 17.5365 150.634 18.392 152.595 18.392H161.664L162.102 15.9932H153.59Z" fill="url(#paint9_linear_583_1191)"/>
<path d="M167.486 15.9932C167.104 15.9932 166.806 15.9526 166.594 15.8678C166.382 15.7848 166.276 15.5488 166.276 15.1598C166.276 15.0713 166.283 14.9699 166.302 14.8592C166.318 14.7486 166.337 14.6214 166.359 14.4757L167.654 7.1171H165.013L163.666 14.7283C163.633 14.9275 163.605 15.1192 163.582 15.3036C163.56 15.4861 163.549 15.6613 163.549 15.8272C163.549 17.5365 164.53 18.392 166.492 18.392H175.561L175.998 15.9932H167.486Z" fill="url(#paint10_linear_583_1191)"/>
<defs>
<linearGradient id="paint0_linear_583_1191" x1="0" y1="12.7539" x2="23.4293" y2="12.7539" gradientUnits="userSpaceOnUse">
<stop stop-color="#277BF5"/>
<stop offset="1" stop-color="#1CD691"/>
</linearGradient>
<linearGradient id="paint1_linear_583_1191" x1="176.382" y1="14.4783" x2="33.4964" y2="12.6908" gradientUnits="userSpaceOnUse">
<stop stop-color="#277BF5"/>
<stop offset="1" stop-color="#1CD691"/>
</linearGradient>
<linearGradient id="paint2_linear_583_1191" x1="176.386" y1="14.1932" x2="33.5" y2="12.4057" gradientUnits="userSpaceOnUse">
<stop stop-color="#277BF5"/>
<stop offset="1" stop-color="#1CD691"/>
</linearGradient>
<linearGradient id="paint3_linear_583_1191" x1="176.388" y1="14.0253" x2="33.5018" y2="12.2378" gradientUnits="userSpaceOnUse">
<stop stop-color="#277BF5"/>
<stop offset="1" stop-color="#1CD691"/>
</linearGradient>
<linearGradient id="paint4_linear_583_1191" x1="176.39" y1="13.8487" x2="33.5043" y2="12.0612" gradientUnits="userSpaceOnUse">
<stop stop-color="#277BF5"/>
<stop offset="1" stop-color="#1CD691"/>
</linearGradient>
<linearGradient id="paint5_linear_583_1191" x1="176.392" y1="13.7186" x2="33.5064" y2="11.9311" gradientUnits="userSpaceOnUse">
<stop stop-color="#277BF5"/>
<stop offset="1" stop-color="#1CD691"/>
</linearGradient>
<linearGradient id="paint6_linear_583_1191" x1="176.393" y1="13.6101" x2="33.5072" y2="11.8226" gradientUnits="userSpaceOnUse">
<stop stop-color="#277BF5"/>
<stop offset="1" stop-color="#1CD691"/>
</linearGradient>
<linearGradient id="paint7_linear_583_1191" x1="176.395" y1="13.4026" x2="33.5095" y2="11.6152" gradientUnits="userSpaceOnUse">
<stop stop-color="#277BF5"/>
<stop offset="1" stop-color="#1CD691"/>
</linearGradient>
<linearGradient id="paint8_linear_583_1191" x1="176.398" y1="13.1893" x2="33.5125" y2="11.4018" gradientUnits="userSpaceOnUse">
<stop stop-color="#277BF5"/>
<stop offset="1" stop-color="#1CD691"/>
</linearGradient>
<linearGradient id="paint9_linear_583_1191" x1="176.4" y1="13.0389" x2="33.5142" y2="11.2514" gradientUnits="userSpaceOnUse">
<stop stop-color="#277BF5"/>
<stop offset="1" stop-color="#1CD691"/>
</linearGradient>
<linearGradient id="paint10_linear_583_1191" x1="176.402" y1="12.8685" x2="33.517" y2="11.081" gradientUnits="userSpaceOnUse">
<stop stop-color="#277BF5"/>
<stop offset="1" stop-color="#1CD691"/>
</linearGradient>
</defs>
</svg>
