<svg width="156" height="211" viewBox="0 0 156 211" fill="none" xmlns="http://www.w3.org/2000/svg">
<path d="M59.5289 203.347L59.5289 199.349L69.8105 199.349C116.935 199.349 155.205 161.078 155.205 113.954L155.205 25.2756C155.205 11.3163 143.889 -4.21492e-06 129.929 -4.70861e-06C115.97 -5.2023e-06 104.654 11.3163 104.654 25.2756L104.654 113.954C104.654 133.232 88.9457 148.798 69.8105 148.798L59.5289 148.798L59.5289 142.8C59.5289 135.803 54.8166 133.232 48.9618 137.088L4.97935 166.076C-0.875444 169.932 -0.875444 176.215 4.97935 179.928L48.9618 208.916C54.8165 212.915 59.5289 210.344 59.5289 203.347Z" fill="url(#paint0_linear_12_7510)"/>
<defs>
<linearGradient id="paint0_linear_12_7510" x1="155.205" y1="-3.8147e-06" x2="-45.8636" y2="147.474" gradientUnits="userSpaceOnUse">
<stop stop-color="#18F1FF"/>
<stop offset="1" stop-color="#3818FF"/>
</linearGradient>
</defs>
</svg>
