<svg width="153" height="211" viewBox="0 0 153 211" fill="none" xmlns="http://www.w3.org/2000/svg">
<path d="M94.6756 203.35L94.6756 199.352L84.5015 199.352C37.8702 199.352 6.5564e-06 161.081 9.10231e-06 113.956L1.39076e-05 25.0113C1.46538e-05 11.1979 11.198 3.96034e-07 25.0113 8.84566e-07V8.84566e-07C38.8247 1.3731e-06 50.0226 11.1979 50.0226 25.0113L50.0226 113.956C50.0226 133.234 65.5664 148.8 84.5015 148.8L94.6756 148.8L94.6756 142.802C94.6756 135.805 99.3387 133.234 105.132 137.09L148.655 166.079C154.448 169.934 154.448 176.218 148.655 179.93L105.132 208.919C99.3387 212.918 94.6756 210.347 94.6756 203.35Z" fill="url(#paint0_linear_12_7510)"/>
<defs>
<linearGradient id="paint0_linear_12_7510" x1="1.52588e-05" y1="0" x2="200.426" y2="145.464" gradientUnits="userSpaceOnUse">
<stop stop-color="#18F1FF"/>
<stop offset="1" stop-color="#3818FF"/>
</linearGradient>
</defs>
</svg>
