<?xml version="1.0" standalone="no"?>
<!DOCTYPE svg PUBLIC "-//W3C//DTD SVG 1.1//EN" "http://www.w3.org/Graphics/SVG/1.1/DTD/svg11.dtd" >
<svg xmlns="http://www.w3.org/2000/svg" xmlns:xlink="http://www.w3.org/1999/xlink" version="1.1">
<metadata>
Created by FontForge 20201107 at Wed Dec 20 23:32:34 2023
 By 
C 2016 Sharp Type Corporation
</metadata>
<defs>
<font id="SharpGrotesk-Medium20" horiz-adv-x="1769" >
  <font-face 
    font-family="Sharp Grotesk Medium 20"
    font-weight="500"
    font-stretch="normal"
    units-per-em="2048"
    panose-1="0 0 6 0 0 0 0 0 0 0"
    ascent="1638"
    descent="-410"
    x-height="1178"
    cap-height="1460"
    bbox="-207 -719 3256 2460"
    underline-thickness="102"
    underline-position="-153"
    unicode-range="U+0020-3009"
  />
<missing-glyph horiz-adv-x="632" 
 />
    <glyph glyph-name=".notdef" horiz-adv-x="632" 
 />
    <glyph glyph-name=".null" horiz-adv-x="0" 
 />
    <glyph glyph-name="nonmarkingreturn" horiz-adv-x="682" 
 />
    <glyph glyph-name="space" unicode=" " horiz-adv-x="632" 
 />
    <glyph glyph-name="exclam" unicode="!" horiz-adv-x="657" 
d="M469 1460v-364q0 -188 -10 -308q-14 -275 -39 -372q-31 8 -94 8q-71 0 -95 -8q-7 22 -20 127q-29 280 -29 553v364h287zM322 -27q-99 0 -140 40.5t-41 140.5q0 98 44 138t137 40q94 0 137 -40t43 -138q0 -95 -44 -138t-136 -43z" />
    <glyph glyph-name="quotedbl" unicode="&#x22;" horiz-adv-x="862" 
d="M139 948q-7 21 -20 101q-21 202 -21 374v37h258v-37q0 -6 -6 -204q-16 -213 -37 -271h-174zM547 948q-9 27 -21 101q-20 192 -20 374v37h258v-37q0 -6 -6 -204q-16 -213 -37 -271h-174z" />
    <glyph glyph-name="numbersign" unicode="#" horiz-adv-x="1808" 
d="M1004 324h-353l-55 -324h-264l55 324h-315v227h356l64 373h-342v227h382l54 309h264l-53 -309h352l53 309h258l-53 -309h330v-227h-369l-65 -373h358v-227h-397l-56 -324h-260zM1108 924h-352l-64 -373h352z" />
    <glyph glyph-name="dollar" unicode="$" horiz-adv-x="1259" 
d="M510 -252v229q-247 28 -358 160t-117 371h287q5 -155 83 -229t246 -74q140 0 213.5 59.5t73.5 153.5q0 76 -53 123q-32 26 -88 46.5t-101 31t-129 26.5q-222 48 -325 113q-154 93 -154 313q0 165 109 277.5t319 134.5v241h256v-251q194 -32 292.5 -149.5t104.5 -307.5
h-278q-8 127 -76 186.5t-213 59.5q-125 0 -184.5 -51.5t-59.5 -135.5q0 -74 52 -114q31 -24 86 -44t94 -29t127 -28q224 -49 332 -115q157 -105 157 -325q2 -169 -113 -291t-323 -152v-229h-260z" />
    <glyph glyph-name="percent" unicode="%" horiz-adv-x="1554" 
d="M369 864q-151 0 -232.5 77t-81.5 218v15q0 147 88 227t228 80q143 0 228 -81t85 -226v-15q0 -139 -84 -217t-231 -78zM53 0q35 39 117 145q185 233 360 457q311 396 394 506q238 307 270 352h301q-4 -6 -45.5 -58t-69.5 -89q-53 -67 -175 -224t-181 -233
q-310 -404 -389 -506q-214 -276 -268 -350h-314zM371 1034q60 0 94.5 35.5t34.5 97.5v7q0 65 -35 101t-94 36q-57 0 -93 -35t-36 -102v-7q0 -64 34 -98.5t95 -34.5zM1178 -23q-152 0 -233 75.5t-81 219.5v15q0 147 88 227t228 80q143 0 228 -81t85 -226v-15
q0 -140 -84 -217.5t-231 -77.5zM1180 147q60 0 94.5 36t34.5 98v6q0 65 -35 101t-94 36q-57 0 -93 -35t-36 -102v-6q0 -64 34 -99t95 -35z" />
    <glyph glyph-name="ampersand" unicode="&#x26;" horiz-adv-x="1640" 
d="M1382 -23q-202 0 -381 119q-211 -125 -444 -125q-144 0 -262 41q-246 91 -246 357q0 128 55 206q52 77 140 133.5t211 104.5q-52 151 -52 258q0 197 115 306.5t303 109.5q117 0 197 -45q168 -95 168 -293q0 -143 -101.5 -243.5t-330.5 -192.5q55 -91 102 -152
q62 -88 164 -186q124 112 210.5 267.5t119.5 313.5h249q-43 -202 -146.5 -387t-252.5 -323q105 -51 195 -51q66 0 108.5 19.5t89.5 61.5v-233q-66 -66 -211 -66zM631 1081q0 -77 37 -184q167 62 230 115t63 141q0 62 -40 101.5t-104 39.5q-80 0 -133 -57t-53 -156zM586 190
q118 0 239 54q-92 95 -170 205q-48 61 -112 176q-118 -48 -170.5 -96t-53.5 -128q0 -211 267 -211z" />
    <glyph glyph-name="quotesingle" unicode="'" horiz-adv-x="454" 
d="M139 948q-7 21 -20 101q-21 202 -21 374v37h258v-37q0 -6 -6 -204q-16 -213 -37 -271h-174z" />
    <glyph glyph-name="parenleft" unicode="(" horiz-adv-x="851" 
d="M119 635q0 300 88 495q84 193 234.5 296.5t349.5 117.5v-248q-184 -21 -287 -183.5t-103 -487.5v-70q0 -320 104 -485t286 -179v-253q-201 12 -353 110q-319 203 -319 787v100z" />
    <glyph glyph-name="parenright" unicode=")" horiz-adv-x="851" 
d="M61 -109q182 14 286 179t104 485v70q0 323 -102.5 486t-287.5 183v250q189 -12 347 -114q325 -219 325 -795v-100q0 -296 -84 -496q-163 -376 -588 -401v253z" />
    <glyph glyph-name="asterisk" unicode="*" horiz-adv-x="954" 
d="M516 1118l70 -323h-215l69 323l-245 -221l-107 184l315 103l-315 100l107 184l245 -219l-69 324h215l-70 -326l244 223l108 -184l-319 -102l319 -103l-106 -184z" />
    <glyph glyph-name="plus" unicode="+" horiz-adv-x="1103" 
d="M670 614v-338h-234v338h-344v238h344v336h234v-336h350v-238h-350z" />
    <glyph glyph-name="comma" unicode="," horiz-adv-x="624" 
d="M164 -176q141 24 162 166q-28 -4 -41 -4q-82 0 -115 31.5t-33 125.5q0 95 40.5 131.5t137.5 36.5q98 0 138.5 -50.5t40.5 -176.5q0 -348 -326 -393z" />
    <glyph glyph-name="hyphen" unicode="-" horiz-adv-x="1105" 
d="M999 502h-893v268h893v-268z" />
    <glyph glyph-name="period" unicode="." horiz-adv-x="622" 
d="M309 -25q-99 0 -139.5 40t-40.5 141q0 98 43.5 138t136.5 40q94 0 137 -40t43 -138q0 -95 -44 -138t-136 -43z" />
    <glyph glyph-name="slash" unicode="/" horiz-adv-x="757" 
d="M16 0l430 1460h297l-430 -1460h-297z" />
    <glyph glyph-name="zero" unicode="0" horiz-adv-x="1400" 
d="M700 -31q-297 0 -452.5 175t-155.5 520v120q0 342 158 522.5t450 180.5q185 0 322 -80q140 -81 214.5 -237.5t74.5 -383.5v-122q0 -224 -76 -385q-76 -153 -212 -231.5t-323 -78.5zM700 215q326 0 326 461v98q0 469 -326 469q-325 0 -325 -469v-100q0 -228 79 -343.5
t246 -115.5z" />
    <glyph glyph-name="one" unicode="1" horiz-adv-x="950" 
d="M55 0v258h299v762h-223v207q132 10 191.5 63t78.5 170h222v-1202h290v-258h-858z" />
    <glyph glyph-name="two" unicode="2" horiz-adv-x="1292" 
d="M68 0v197q0 197 159 327q111 93 336 189q137 61 189 88q96 46 146 100t50 127q0 225 -280 225q-152 0 -231 -73.5t-79 -212.5v-47h-274v59q0 248 151 377t437 129q183 0 305 -58q123 -58 186.5 -157t63.5 -228q0 -196 -154 -327q-116 -94 -325 -187q-32 -15 -92 -42
t-83 -37q-88 -46 -136.5 -92.5t-55.5 -108.5h844v-248h-1157z" />
    <glyph glyph-name="three" unicode="3" horiz-adv-x="1335" 
d="M653 -29q-310 0 -451 119.5t-141 372.5v41h275v-27q0 -138 75 -201t238 -63q146 0 231 62t85 167t-65.5 145t-207.5 40h-172v211h172q130 0 192 49t62 147t-73.5 154.5t-215.5 56.5q-144 0 -223.5 -69.5t-79.5 -186.5v-22h-270v32q0 226 151.5 356t430.5 130
q265 0 413 -114.5t148 -305.5q0 -234 -197 -317q221 -78 221 -336q0 -133 -69 -230q-150 -211 -529 -211z" />
    <glyph glyph-name="four" unicode="4" horiz-adv-x="1327" 
d="M1288 328h-246v-328h-268v328h-745v188l778 944h235v-907h246v-225zM774 553v530l-444 -530h444z" />
    <glyph glyph-name="five" unicode="5" horiz-adv-x="1337" 
d="M659 -29q-285 0 -428 131.5t-145 368.5v4h291v-10q0 -112 78 -183t219 -71q143 0 227 76.5t84 218.5q0 134 -75 206t-210 72q-115 0 -186.5 -42t-118.5 -119l-10 -13l-285 76l103 774h1005q0 -86 -13.5 -131.5t-47.5 -68.5q-35 -23 -99.5 -31t-187.5 -8h-446l-47 -347
q136 136 370 136q157 0 279 -64q118 -67 181 -181.5t63 -268.5q0 -158 -74 -279q-73 -118 -207.5 -182t-319.5 -64z" />
    <glyph glyph-name="six" unicode="6" horiz-adv-x="1363" 
d="M1282 453q0 -138 -70 -248q-73 -112 -201.5 -174t-305.5 -62q-623 0 -623 695v120q0 339 170 521t469 182q236 0 382 -118.5t159 -334.5h-277q-27 211 -272 211q-173 0 -259.5 -120t-86.5 -349v-43q62 88 168 138.5t247 50.5q137 0 262 -56q238 -116 238 -413zM702 217
q135 0 217 68t82 182q0 120 -79 174.5t-211 54.5q-128 0 -215 -63t-111 -160q30 -130 105.5 -193t211.5 -63z" />
    <glyph glyph-name="seven" unicode="7" horiz-adv-x="1175" 
d="M201 0q94 322 291 682q176 324 339 522h-794v256h1114v-196q-175 -210 -360 -590q-191 -387 -261 -674h-329z" />
    <glyph glyph-name="eight" unicode="8" horiz-adv-x="1325" 
d="M659 -29q-293 0 -444.5 108t-151.5 318q0 126 63 215t175 133q-195 75 -195 318q0 198 148 310t412 112q266 0 415.5 -111.5t149.5 -310.5q0 -238 -203 -315q111 -40 172.5 -128t61.5 -223q0 -206 -155.5 -316t-447.5 -110zM692 836q133 0 203 51t70 147q0 103 -76.5 160
t-220.5 57q-139 0 -217 -59t-78 -162q0 -93 64.5 -143.5t195.5 -50.5h59zM662 215q155 0 241 56.5t86 164.5q0 101 -79 154t-220 55h-61q-131 0 -209 -58t-78 -151q0 -109 83 -165t237 -56z" />
    <glyph glyph-name="nine" unicode="9" horiz-adv-x="1351" 
d="M657 -31q-531 0 -565 463h281q12 -106 86.5 -163.5t195.5 -59.5q175 0 258.5 117t83.5 350v16q-61 -81 -163.5 -125.5t-239.5 -44.5q-154 0 -270 49q-120 48 -185 150.5t-65 257.5q0 145 71 258q72 118 201 184t301 66q228 0 365 -92q256 -175 256 -602v-123
q0 -346 -154 -523.5t-457 -177.5zM651 735q115 0 208.5 51.5t131.5 135.5q-19 162 -101 243.5t-237 81.5q-137 0 -216 -73t-79 -197q0 -120 78 -181t215 -61z" />
    <glyph glyph-name="colon" unicode=":" horiz-adv-x="634" 
d="M317 784q-103 0 -139.5 34.5t-36.5 137.5q0 101 38.5 136.5t137.5 35.5t138 -36t39 -136q0 -99 -39 -135.5t-138 -36.5zM317 55q-103 0 -139.5 33.5t-36.5 136.5q0 101 38.5 136.5t137.5 35.5t138 -36t39 -136q0 -99 -39 -134.5t-138 -35.5z" />
    <glyph glyph-name="semicolon" unicode=";" horiz-adv-x="636" 
d="M317 784q-103 0 -139.5 34.5t-36.5 137.5q0 101 38.5 136.5t137.5 35.5t138 -36t39 -136q0 -99 -39 -135.5t-138 -36.5zM174 -176q141 24 162 166q-28 -4 -43 -4q-81 0 -114.5 31.5t-33.5 125.5q0 95 41 131.5t138 36.5q99 0 138.5 -50t39.5 -177q0 -169 -81 -269.5
t-243 -123.5z" />
    <glyph glyph-name="less" unicode="&#x3c;" horiz-adv-x="1165" 
d="M129 629v229l897 365v-258l-604 -217l604 -218v-272z" />
    <glyph glyph-name="equal" unicode="=" horiz-adv-x="1165" 
d="M135 897v227h895v-227h-895zM135 360v230h895v-230h-895z" />
    <glyph glyph-name="greater" unicode="&#x3e;" horiz-adv-x="1165" 
d="M139 530l604 218l-604 217v258l897 -365v-229l-897 -371v272z" />
    <glyph glyph-name="question" unicode="?" horiz-adv-x="1359" 
d="M772 403q-34 27 -129 27q-106 0 -133 -27q-4 36 -4 99v30q0 94 37 146q32 50 81.5 80.5t125.5 62.5q89 41 102 47q54 29 82.5 68.5t28.5 101.5q0 97 -69 156t-208 59q-295 0 -295 -272v-33h-274v47q0 239 143 364.5t430 125.5q188 0 314 -60q118 -58 177.5 -155
t59.5 -217q0 -124 -41 -195q-37 -65 -92 -106t-133 -76q-104 -48 -137 -74q-58 -47 -62 -115zM643 -25q-99 0 -139.5 40t-40.5 141q0 98 43.5 138t136.5 40q94 0 137 -40t43 -138q0 -95 -44 -138t-136 -43z" />
    <glyph glyph-name="at" unicode="@" horiz-adv-x="1642" 
d="M817 -270q-203 0 -377 80q-169 82 -259.5 254.5t-90.5 437.5v121q0 255 96 428q96 176 265 267t391 91q239 0 401 -96q155 -95 234 -258.5t79 -374.5v-14q0 -260 -84 -387t-239 -127q-189 0 -248 139q-47 -150 -221 -150q-297 0 -297 385v82q0 188 79.5 288.5
t217.5 100.5q88 0 146.5 -42.5t84.5 -112.5l43 143h119v-498q0 -87 19 -117t65 -30q25 0 43 15t32.5 49.5t22 98t7.5 154.5v9q0 148 -48 272q-101 256 -458 256q-254 0 -397.5 -151.5t-143.5 -440.5v-80q0 -290 134.5 -434.5t387.5 -144.5q118 0 198 35.5t142 105.5l240 -64
q-91 -138 -244.5 -214t-339.5 -76zM815 328q73 0 103 44t30 146v98q0 111 -30.5 154t-98.5 43q-72 0 -105.5 -49t-33.5 -162v-70q0 -111 30 -157.5t105 -46.5z" />
    <glyph glyph-name="A" unicode="A" horiz-adv-x="1382" 
d="M981 328h-580l-110 -328h-275l531 1460h278l543 -1460h-272zM477 555h424l-201 573l-14 80l-14 -80z" />
    <glyph glyph-name="B" unicode="B" horiz-adv-x="1341" 
d="M141 0v1460h559q285 0 418 -95t133 -282q0 -130 -51.5 -211.5t-155.5 -123.5q118 -39 177 -119.5t59 -212.5q0 -203 -137.5 -309.5t-417.5 -106.5h-584zM403 1243v-387h308q137 0 206.5 48t69.5 151q0 98 -65.5 143t-212.5 45h-306zM403 639v-410h287q169 0 242.5 51.5
t73.5 157.5t-76 153.5t-236 47.5h-291z" />
    <glyph glyph-name="C" unicode="C" horiz-adv-x="1413" 
d="M1350 549q-14 -173 -88 -311q-147 -269 -545 -269q-303 0 -465 177t-162 511v131q0 337 166.5 518t470.5 181q275 0 430 -138t184 -413h-280q-28 309 -334 309q-362 0 -362 -473v-100q0 -216 92.5 -331.5t271.5 -115.5q160 0 240 81.5t94 242.5h287z" />
    <glyph glyph-name="D" unicode="D" horiz-adv-x="1388" 
d="M141 1460h512q176 0 324 -71q153 -76 237 -225.5t84 -372.5v-123q0 -229 -81 -373q-84 -146 -226 -220.5t-327 -74.5h-523v1460zM408 1229v-993h243q175 0 276 115.5t101 340.5v78q0 226 -104 342.5t-283 116.5h-233z" />
    <glyph glyph-name="E" unicode="E" horiz-adv-x="1245" 
d="M1178 0h-1037v1460h1002v-231h-742v-375h629v-233h-629v-381h777v-240z" />
    <glyph glyph-name="F" unicode="F" horiz-adv-x="1177" 
d="M403 573v-573h-262v1460h967v-239h-705v-406h664v-242h-664z" />
    <glyph glyph-name="G" unicode="G" horiz-adv-x="1435" 
d="M1098 346q-22 -105 -74 -190q-122 -187 -383 -187q-551 0 -551 680v142q0 344 167.5 520t471.5 176q272 0 423 -139t163 -394h-281q-3 78 -37 148q-68 145 -272 145q-185 0 -272.5 -114.5t-87.5 -352.5v-121q-1 -234 84 -341t268 -107q116 0 184 45q68 42 101.5 116
t35.5 163h-356v231h639v-766h-203z" />
    <glyph glyph-name="H" unicode="H" horiz-adv-x="1439" 
d="M1032 602h-622v-602h-269v1460h269v-602h622v602h266v-1460h-266v602z" />
    <glyph glyph-name="I" unicode="I" horiz-adv-x="960" 
d="M82 0v250h270v971h-270v239h797v-239h-271v-971h271v-250h-797z" />
    <glyph glyph-name="J" unicode="J" horiz-adv-x="1204" 
d="M561 -31q-244 0 -376.5 127t-139.5 379v8h279v-12q8 -123 63 -182.5t174 -59.5q130 0 185 73t55 257v901h278v-911q0 -580 -518 -580z" />
    <glyph glyph-name="K" unicode="K" horiz-adv-x="1353" 
d="M662 754l-254 -287v-467h-267v1460h267v-676l596 676h331l-483 -532l518 -928h-301z" />
    <glyph glyph-name="L" unicode="L" horiz-adv-x="1165" 
d="M141 0v1460h271v-1208h704v-252h-975z" />
    <glyph glyph-name="M" unicode="M" horiz-adv-x="1640" 
d="M397 1063v-1063h-256v1460h250l430 -590l432 588h248v-1458h-256v1073l-43 -72l-366 -495h-39l-365 498z" />
    <glyph glyph-name="N" unicode="N" horiz-adv-x="1447" 
d="M395 0h-254v1460h256l625 -987l39 -96l-8 104v979h254v-1460h-248l-633 999l-41 97l10 -103v-993z" />
    <glyph glyph-name="O" unicode="O" horiz-adv-x="1439" 
d="M717 -31q-627 0 -627 695v122q0 224 78 383q77 157 218.5 237.5t332.5 80.5q192 0 332 -80q144 -81 221.5 -238t77.5 -383v-122q0 -345 -167 -520t-466 -175zM719 215q176 0 264 116.5t88 342.5v100q0 471 -352 471q-350 0 -350 -469v-102q0 -459 350 -459z" />
    <glyph glyph-name="P" unicode="P" horiz-adv-x="1335" 
d="M406 461v-461h-265v1460h551q198 0 324 -63q127 -61 191.5 -171.5t64.5 -260.5q0 -237 -143.5 -371t-426.5 -133h-296zM406 1231v-541h292q147 0 226.5 71t79.5 204q0 124 -79 195t-233 71h-286z" />
    <glyph glyph-name="Q" unicode="Q" horiz-adv-x="1431" 
d="M983 -248l-133 232q-71 -15 -143 -15q-297 0 -457 173.5t-160 523.5v116q0 340 165.5 522.5t459.5 182.5q174 0 325 -80q145 -85 223 -242.5t78 -382.5v-116q0 -193 -64 -336.5t-177 -231.5l239 -346h-356zM715 215q173 0 262.5 118t89.5 343v94q0 234 -88 355.5
t-264 121.5q-177 0 -263.5 -122.5t-86.5 -352.5v-96q0 -461 350 -461z" />
    <glyph glyph-name="R" unicode="R" horiz-adv-x="1361" 
d="M408 530v-530h-267v1460h570q287 0 422 -115t135 -325q0 -280 -250 -365q112 -36 164.5 -119.5t52.5 -236.5v-221q0 -55 33 -78h-285q-29 23 -29 82v213q0 128 -59.5 181.5t-204.5 53.5h-282zM408 1231v-469h292q140 0 216.5 61.5t76.5 177.5q0 230 -288 230h-297z" />
    <glyph glyph-name="S" unicode="S" horiz-adv-x="1259" 
d="M649 -31q-220 0 -354 64q-130 60 -192 177t-68 296h287q5 -154 84 -227.5t247 -73.5q140 0 211.5 60t71.5 155q0 82 -51 121q-34 26 -90 46.5t-102 31t-128 26.5q-221 48 -325 111q-154 97 -154 313q0 108 55 207q130 211 465 211q282 0 421 -122t147 -349h-279
q-8 128 -75.5 187t-217.5 59q-126 0 -186 -53t-60 -136q0 -74 50 -112q33 -24 88 -44t95 -29.5t126 -27.5q225 -46 334 -115q155 -97 155 -319q0 -122 -61 -229q-67 -107 -192 -167.5t-302 -60.5z" />
    <glyph glyph-name="T" unicode="T" horiz-adv-x="1200" 
d="M729 1223v-1223h-272v1223h-402v237h1092v-237h-418z" />
    <glyph glyph-name="U" unicode="U" horiz-adv-x="1390" 
d="M696 -31q-293 0 -432 160.5t-139 503.5v827h278v-817q0 -219 69.5 -316.5t225.5 -97.5t221.5 96.5t65.5 317.5v817h281v-827q0 -340 -143 -502t-427 -162z" />
    <glyph glyph-name="V" unicode="V" horiz-adv-x="1353" 
d="M547 0l-518 1460h284l371 -1083l363 1083h284l-512 -1460h-272z" />
    <glyph glyph-name="W" unicode="W" horiz-adv-x="2019" 
d="M991 1026l-350 -1026h-252l-356 1460h268l242 -1048l348 1048h205l348 -1073l272 1073h266l-393 -1460h-254z" />
    <glyph glyph-name="X" unicode="X" horiz-adv-x="1355" 
d="M682 557l-354 -557h-322l512 776l-450 684h307l305 -487l311 487h309l-464 -686l507 -774h-311z" />
    <glyph glyph-name="Y" unicode="Y" horiz-adv-x="1302" 
d="M500 0v582l-486 878h295l336 -631l350 631h295l-512 -882v-578h-278z" />
    <glyph glyph-name="Z" unicode="Z" horiz-adv-x="1253" 
d="M70 0v225l790 994h-741v241h1059v-243l-760 -965h762v-252h-1110z" />
    <glyph glyph-name="bracketleft" unicode="[" horiz-adv-x="817" 
d="M754 -360h-598v1902h598v-217h-330v-1468h330v-217z" />
    <glyph glyph-name="backslash" unicode="\" horiz-adv-x="757" 
d="M305 1460l436 -1460h-290l-437 1460h291z" />
    <glyph glyph-name="bracketright" unicode="]" horiz-adv-x="817" 
d="M66 -360v217h329v1468h-329v215h598v-1900h-598z" />
    <glyph glyph-name="asciicircum" unicode="^" horiz-adv-x="1187" 
d="M594 1231l-186 -402h-236l326 631h192l326 -631h-234z" />
    <glyph glyph-name="uni005F" unicode="_" horiz-adv-x="1343" 
d="M1286 -393h-1229v270h1229v-270z" />
    <glyph glyph-name="grave" unicode="`" horiz-adv-x="1187" 
d="M274 1772h293l297 -426h-211z" />
    <glyph glyph-name="a" unicode="a" horiz-adv-x="1304" 
d="M938 236q-64 -123 -185 -195t-296 -72q-188 0 -286.5 84t-98.5 232q0 194 153 288q49 34 101 50q76 27 305 63q166 21 230.5 52t64.5 100q0 77 -58 118t-190 41q-279 0 -291 -235h-276q14 204 158.5 324t394.5 120q191 0 305 -51q215 -92 215 -360v-795h-217zM549 176
q115 0 201 53q84 53 131 134.5t47 168.5v64q-71 -51 -238 -76q-108 -17 -161.5 -32.5t-94.5 -41.5q-69 -46 -69 -122q0 -148 184 -148z" />
    <glyph glyph-name="b" unicode="b" horiz-adv-x="1366" 
d="M784 -31q-148 0 -249 71.5t-150 197.5l-25 -238h-227v1577h260v-625q54 120 156 187t244 67q136 0 258 -67q239 -142 239 -527v-30q0 -289 -136 -451t-370 -162zM702 207q153 0 234.5 95.5t81.5 281.5v24q0 175 -84.5 274t-224.5 99q-145 0 -233.5 -101.5t-88.5 -265.5
v-20q0 -182 84.5 -284.5t230.5 -102.5z" />
    <glyph glyph-name="c" unicode="c" horiz-adv-x="1304" 
d="M668 -31q-284 0 -438 154t-154 442v31q0 196 78 334q78 134 211.5 205t304.5 71q253 0 404 -123t171 -374v-4h-280v6q-36 266 -293 266q-145 0 -231.5 -99t-86.5 -282v-27q0 -174 83.5 -269t232.5 -95q256 0 297 270v2h280v-6q-20 -253 -172.5 -377.5t-406.5 -124.5z" />
    <glyph glyph-name="d" unicode="d" horiz-adv-x="1368" 
d="M983 246q-50 -126 -153 -198.5t-255 -72.5q-230 0 -364.5 158.5t-134.5 450.5v28q0 193 65 326q64 131 177.5 198.5t265.5 67.5q284 0 391 -229v602h260v-1577h-223zM657 207q150 0 237 102t87 277v20q0 171 -84 273t-229 102q-152 0 -234 -97.5t-82 -275.5v-22
q0 -184 83.5 -281.5t221.5 -97.5z" />
    <glyph glyph-name="e" unicode="e" horiz-adv-x="1325" 
d="M1235 348q-52 -183 -195.5 -281t-371.5 -98q-292 0 -442 157t-150 437v29q0 184 74 326q74 139 208 213.5t318 74.5q289 0 440 -182q135 -162 135 -410v-125h-909q17 -145 103.5 -222t232.5 -77q204 0 268 158h289zM678 993q-139 0 -225 -76.5t-109 -216.5h639
q-14 139 -90.5 216t-214.5 77z" />
    <glyph glyph-name="f" unicode="f" horiz-adv-x="770" 
d="M475 944l-2 -944h-256v944h-207v234h207v47q0 224 92.5 318.5t304.5 94.5h140v-221h-103q-72 0 -112 -16q-37 -17 -50.5 -63t-13.5 -146v-14h277v-234h-277z" />
    <glyph glyph-name="g" unicode="g" horiz-adv-x="1236" 
d="M602 -535q-222 0 -340 37q-114 34 -161.5 94.5t-47.5 149.5q0 201 264 262q-229 33 -229 221q0 90 65 150t189 86q-242 76 -242 334q0 173 120.5 270t336.5 111l59 4q113 10 154 26q48 18 65 61.5t17 131.5v18h311v-39q0 -71 -18 -117t-61 -73.5t-106 -38.5t-161 -12
q162 -23 250 -114.5t88 -227.5v-8q0 -188 -141 -295t-391 -107h-19q-131 0 -182 -10q-59 -10 -79.5 -27.5t-20.5 -48.5q0 -42 42.5 -60t145.5 -18h238q240 0 356.5 -91t116.5 -255q0 -198 -151.5 -306t-453.5 -108h-14zM623 580q264 0 264 208v7q0 116 -70.5 167.5
t-189.5 51.5q-115 0 -186.5 -56t-71.5 -165v-7q0 -101 66 -153.5t188 -52.5zM618 -313q353 0 353 178q0 135 -234 135h-211q-105 -10 -157 -53t-52 -107v-4q0 -62 64.5 -105.5t193.5 -43.5h43z" />
    <glyph glyph-name="h" unicode="h" horiz-adv-x="1329" 
d="M391 0h-258v1577h258v-604q55 110 155 171.5t236 61.5q210 0 318 -124.5t108 -348.5v-733h-270v659q0 314 -260 314q-138 0 -212.5 -97.5t-74.5 -259.5v-616z" />
    <glyph glyph-name="i" unicode="i" horiz-adv-x="536" 
d="M272 1305q-98 0 -138 39t-40 139q0 96 43 136t135 40t135.5 -40t43.5 -136q0 -94 -43.5 -136t-135.5 -42zM133 0v1178h273v-1178h-273z" />
    <glyph glyph-name="j" unicode="j" horiz-adv-x="530" 
d="M270 1305q-98 0 -138 39t-40 139q0 96 43 136t135 40t135.5 -40t43.5 -136q0 -94 -43.5 -136t-135.5 -42zM-109 -483v250h60q79 0 119 12q40 13 53.5 55.5t13.5 142.5v1201h262v-1233q0 -135 -18 -216.5t-64 -127.5q-84 -84 -340 -84h-86z" />
    <glyph glyph-name="k" unicode="k" horiz-adv-x="1265" 
d="M625 573l-234 -249v-324h-258v1577h258v-975l45 55l484 521h333l-430 -455l443 -723h-305z" />
    <glyph glyph-name="l" unicode="l" horiz-adv-x="534" 
d="M133 0v1577h268v-1577h-268z" />
    <glyph glyph-name="m" unicode="m" horiz-adv-x="2039" 
d="M397 0h-268v1178h225l25 -215q49 114 143.5 178.5t229.5 64.5q289 0 370 -245q45 117 142 181t239 64q204 0 311 -123t107 -346v-737h-268v664q0 309 -246 309q-126 0 -186 -82t-60 -223v-668h-266v674q0 83 -23 151q-44 148 -217 148q-128 0 -193 -92t-65 -250v-631z
" />
    <glyph glyph-name="n" unicode="n" horiz-adv-x="1337" 
d="M399 0h-270v1178h227l25 -236q49 125 150 194.5t249 69.5q210 0 323.5 -128.5t113.5 -352.5v-725h-271v659q0 154 -58 234t-196 80q-147 0 -220 -95t-73 -264v-614z" />
    <glyph glyph-name="o" unicode="o" horiz-adv-x="1339" 
d="M670 -31q-286 0 -440 154t-154 442v31q0 196 78 334q76 135 209 205.5t307 70.5q179 0 307 -71q138 -73 212.5 -210t74.5 -329v-31q0 -190 -74 -323q-77 -134 -209 -203.5t-311 -69.5zM670 205q153 0 237 95t84 269v27q0 180 -85.5 280.5t-233.5 100.5t-235 -98.5
t-87 -282.5v-27q0 -174 84.5 -269t235.5 -95z" />
    <glyph glyph-name="p" unicode="p" horiz-adv-x="1368" 
d="M786 -25q-279 0 -393 232v-613h-260v1584h223l29 -240q49 125 152.5 196.5t253.5 71.5q233 0 367 -160t134 -454v-29q0 -190 -65 -323q-64 -130 -177.5 -197.5t-263.5 -67.5zM702 203q151 0 234.5 95t83.5 269v25q0 185 -84.5 285t-226.5 100q-147 0 -234.5 -103.5
t-87.5 -277.5v-21q0 -171 84.5 -271.5t230.5 -100.5z" />
    <glyph glyph-name="q" unicode="q" horiz-adv-x="1368" 
d="M975 -406v631q-49 -118 -149.5 -184t-250.5 -66q-142 0 -256 66q-117 68 -180 199.5t-63 322.5v31q0 292 135.5 452t374.5 160q151 0 251 -71t146 -197l29 240h223v-1584h-260zM657 203q149 0 236.5 100.5t87.5 265.5v19q0 183 -83.5 286t-229.5 103q-153 0 -235.5 -98.5
t-82.5 -286.5v-25q0 -173 85 -268.5t222 -95.5z" />
    <glyph glyph-name="r" unicode="r" horiz-adv-x="880" 
d="M129 0v1178h217l35 -277q35 147 130 217t261 70h80v-273h-117q-142 0 -213 -36q-71 -34 -100 -112.5t-29 -221.5v-545h-264z" />
    <glyph glyph-name="s" unicode="s" horiz-adv-x="1177" 
d="M608 -31q-267 0 -406.5 105.5t-166.5 314.5h291q18 -102 88.5 -148t199.5 -46q240 0 240 151q0 56 -45 82q-60 36 -274 66q-67 10 -109 18t-98 24.5t-97 38.5q-143 76 -143 259q0 169 124.5 270.5t360.5 101.5q472 0 525 -381h-275q-13 86 -74 126t-178 40
q-219 0 -219 -141q0 -56 45 -82q28 -16 77 -29.5t87.5 -20t112.5 -16.5q67 -10 109 -18t97.5 -24.5t96.5 -38.5q143 -76 143 -259q0 -178 -130 -285.5t-382 -107.5z" />
    <glyph glyph-name="t" unicode="t" horiz-adv-x="856" 
d="M801 0h-152q-163 0 -254 43q-87 43 -121 142.5t-34 285.5v469h-230v227h105q55 0 84 13q28 13 40 48.5t17 110.5q4 102 4 156h229v-317h312v-238h-312v-424q0 -108 17 -174q13 -56 59.5 -74t151.5 -18h84v-250z" />
    <glyph glyph-name="u" unicode="u" horiz-adv-x="1296" 
d="M918 225q-45 -119 -141.5 -184.5t-239.5 -65.5q-208 0 -312 124.5t-104 349.5v729h268v-656q0 -72 12 -126.5t39 -97.5t74.5 -65t114.5 -22q130 0 199 96t69 258v613h270v-1178h-225z" />
    <glyph glyph-name="v" unicode="v" horiz-adv-x="1224" 
d="M477 0l-463 1178h281l305 -844l318 844h282l-483 -1178h-240z" />
    <glyph glyph-name="w" unicode="w" horiz-adv-x="1781" 
d="M881 784l-306 -784h-243l-318 1178h267l206 -838l310 838h176l287 -836l245 836h262l-366 -1178h-240z" />
    <glyph glyph-name="x" unicode="x" horiz-adv-x="1284" 
d="M647 422l-295 -422h-325l469 616l-420 562h315l258 -375l266 375h312l-426 -560l454 -618h-315z" />
    <glyph glyph-name="y" unicode="y" horiz-adv-x="1220" 
d="M61 -440v233h138q71 0 125 14q46 13 77 50.5t68 117.5l23 56l-488 1147h287l319 -797l11 -53l14 51l311 799h283l-516 -1246q-53 -128 -96.5 -200t-94.5 -109q-52 -37 -125 -50t-200 -13h-136z" />
    <glyph glyph-name="z" unicode="z" horiz-adv-x="1148" 
d="M57 0v203l707 751h-664v224h990v-213l-689 -738h693v-227h-1037z" />
    <glyph glyph-name="braceleft" unicode="{" horiz-adv-x="864" 
d="M528 -360q-129 0 -200 36q-127 66 -127 234q0 91 71 240q5 11 20 46t20.5 48t14.5 37.5t12 40.5t3 30q0 70 -36 103.5t-113 33.5h-144v240h133q75 0 109.5 31.5t34.5 97.5q0 43 -29 119q-29 67 -43 101t-29.5 91.5t-15.5 102.5q0 67 29 133q58 137 297 137h268v-211h-125
q-189 0 -189 -143q0 -38 29 -107q62 -130 77 -184q11 -44 11 -80q0 -201 -250 -201v-12q131 0 193.5 -59t62.5 -152q0 -76 -61 -213q-62 -139 -62 -186q0 -71 43.5 -107.5t143.5 -36.5h127v-210h-275z" />
    <glyph glyph-name="bar" unicode="|" horiz-adv-x="575" 
d="M154 -129v1731h268v-1731h-268z" />
    <glyph glyph-name="braceright" unicode="}" horiz-adv-x="864" 
d="M61 -150h127q100 0 143.5 36.5t43.5 107.5q0 47 -62 186q-61 137 -61 213q0 92 63 151.5t193 59.5v12q-250 0 -250 201q0 55 29 131q8 19 24 54.5t25 55.5t19.5 46.5t15 47t4.5 36.5q0 143 -189 143h-125v211h269q127 0 200 -37q125 -68 125 -233q0 -71 -28 -150
q-10 -26 -29.5 -73t-30 -74t-19.5 -60.5t-9 -56.5q0 -66 34 -97.5t109 -31.5h133v-240h-143q-150 0 -150 -137q0 -51 72 -202q70 -164 70 -240q0 -69 -29 -135q-58 -135 -299 -135h-275v210z" />
    <glyph glyph-name="asciitilde" unicode="~" horiz-adv-x="1187" 
d="M150 950q0 328 262 328q55 0 100.5 -18.5t97.5 -51.5q33 -23 52 -34.5t47 -23t51 -11.5q49 0 67.5 28.5t20.5 100.5h182q0 -161 -60 -244.5t-208 -83.5q-111 0 -199 70q-35 24 -51.5 34.5t-45 21.5t-54.5 11q-42 0 -61 -30t-21 -97h-180z" />
    <glyph glyph-name="uni00A0" unicode="&#xa0;" horiz-adv-x="632" 
 />
    <glyph glyph-name="exclamdown" unicode="&#xa1;" horiz-adv-x="657" 
d="M328 1208q99 0 139.5 -39t40.5 -141q0 -98 -43 -138t-137 -40q-93 0 -137 40t-44 138q0 95 44.5 137.5t136.5 42.5zM180 -279v365q0 187 10 307q7 129 19 233t20 140q92 -8 95 -8q22 0 94 8q7 -22 20 -127q29 -280 29 -553v-365h-287z" />
    <glyph glyph-name="cent" unicode="&#xa2;" horiz-adv-x="1320" 
d="M1245 471q-17 -218 -133.5 -341t-314.5 -153v-229h-256v229q-225 32 -346 183t-121 405v31q0 169 59 299q61 125 166 201.5t244 99.5v215h256v-215q195 -30 310.5 -151.5t133.5 -335.5v-4h-280v6q-36 266 -293 266q-145 0 -231.5 -99t-86.5 -282v-27q0 -174 83.5 -269
t232.5 -95q256 0 297 270v2h280v-6z" />
    <glyph glyph-name="sterling" unicode="&#xa3;" horiz-adv-x="1329" 
d="M944 -31q-104 0 -189 33.5t-173 93.5q-111 -127 -279 -127q-276 0 -276 219q0 95 69.5 156.5t188.5 61.5q94 0 213 -56v29q0 41 -16.5 85.5t-35 74t-53.5 79.5h-305v199h199q-64 132 -64 248q0 196 122.5 309t338.5 113q214 0 341.5 -103t156.5 -305l-297 -2
q-8 76 -57.5 122t-137.5 46q-186 0 -186 -176q0 -40 14 -88.5t25 -73.5t41 -90h352v-199h-274q36 -92 36 -208q0 -82 -24 -156q113 -59 194 -59q77 0 107.5 46.5t30.5 157.5v19h290v-56q0 -212 -81.5 -302.5t-270.5 -90.5zM311 129q84 0 133 61q-87 60 -147 60
q-36 0 -54 -16.5t-18 -43.5q0 -26 23 -43.5t63 -17.5z" />
    <glyph glyph-name="currency" unicode="&#xa4;" horiz-adv-x="1611" 
d="M813 209q-154 0 -270 61l-248 -256l-201 189l254 258q-65 124 -65 280q0 154 65 275l-252 246l187 196l256 -250q123 66 274 66q147 0 270 -66l250 256l197 -186l-254 -260q67 -122 67 -277q0 -151 -63 -268l244 -244l-187 -192l-241 244q-134 -72 -283 -72zM813 446
q83 0 150 39q66 38 101.5 105t35.5 151q0 86 -37 150q-36 69 -100.5 107t-149.5 38q-128 0 -206.5 -82.5t-78.5 -212.5q0 -128 79 -211.5t206 -83.5z" />
    <glyph glyph-name="yen" unicode="&#xa5;" horiz-adv-x="1302" 
d="M784 207v-207h-278v207h-328v205h328v137h-324v211h324v2l-492 698h301l334 -489l340 489h299l-504 -696v-4h334v-211h-334v-137h330v-205h-330z" />
    <glyph glyph-name="brokenbar" unicode="&#xa6;" horiz-adv-x="575" 
d="M154 1602h268v-775h-268v775zM422 670v-799h-268v799h268z" />
    <glyph glyph-name="section" unicode="&#xa7;" horiz-adv-x="1423" 
d="M729 -250q-214 0 -340 57q-237 103 -246 424h275q5 -136 79.5 -199t237.5 -63q135 0 205 50t70 133q0 66 -52 102q-21 12 -48.5 22.5t-70.5 20.5t-76.5 17t-102.5 20t-111 22q-208 43 -311 86q-113 47 -160 114.5t-47 176.5t83 189.5t228 103.5q-141 99 -141 272
q0 109 55 187q117 184 442 184q266 0 399.5 -108.5t141.5 -311.5h-266q-8 110 -74 160.5t-205 50.5q-233 0 -233 -157q0 -66 49 -103q31 -23 88.5 -42.5t108 -30.5t151.5 -31q185 -34 305 -80q120 -44 175 -115t55 -180q0 -103 -76 -180.5t-205 -106.5q156 -93 156 -280
q0 -107 -64 -205q-63 -94 -184 -146.5t-291 -52.5zM688 559q179 -32 273 -61q184 22 184 164q0 72 -58 118q-50 39 -137.5 64t-240.5 55q-137 27 -220 57q-104 -6 -153 -48.5t-49 -108.5t35 -107q36 -42 120 -71.5t246 -61.5z" />
    <glyph glyph-name="dieresis" unicode="&#xa8;" horiz-adv-x="1196" 
d="M385 1339q-86 0 -121 34t-35 122q0 82 38.5 118t117.5 36q80 0 118 -35.5t38 -118.5q0 -82 -38 -119t-118 -37zM809 1339q-87 0 -121.5 34t-34.5 122q0 83 38 118.5t118 35.5t118 -35.5t38 -118.5q0 -82 -38.5 -119t-117.5 -37z" />
    <glyph glyph-name="copyright" unicode="&#xa9;" horiz-adv-x="1587" 
d="M807 -31q-203 0 -367 76q-168 79 -259 238.5t-91 400.5v84q0 227 94 393q95 166 254.5 254t360.5 88q193 0 360 -86q167 -92 259.5 -254.5t92.5 -386.5v-92q0 -235 -94 -393q-95 -157 -252 -239.5t-358 -82.5zM807 154q248 0 384 140t136 408v56q0 179 -65 303
q-67 125 -185.5 189.5t-277.5 64.5t-275 -68q-121 -67 -185.5 -193t-64.5 -306v-46q0 -267 142 -407.5t391 -140.5zM1169 651q-13 -179 -108.5 -263.5t-255.5 -84.5q-177 0 -273 106t-96 308v24q0 205 102 316.5t269 111.5q158 0 252.5 -85.5t107.5 -262.5v-2h-186
q-7 89 -54 133.5t-118 44.5q-86 0 -139.5 -66t-53.5 -190v-20q0 -115 53 -180.5t138 -65.5q75 0 121 44t53 136h188v-4z" />
    <glyph glyph-name="ordfeminine" unicode="&#xaa;" horiz-adv-x="929" 
d="M633 772q-95 -143 -301 -143q-279 0 -279 217q0 132 115 203q33 21 70 34q62 23 213 43q103 14 133 29.5t30 63.5q0 94 -139 94q-147 0 -156 -135h-233q11 144 109.5 226.5t279.5 82.5q359 0 359 -295v-543h-179zM414 786q77 0 123 37q40 34 59.5 87t19.5 108v6
q-49 -21 -124 -33q-92 -15 -132 -37q-43 -25 -43 -80q0 -43 27 -65.5t70 -22.5z" />
    <glyph glyph-name="guillemotleft" unicode="&#xab;" horiz-adv-x="1269" 
d="M469 211l-311 405v31l297 412h239l-299 -412l336 -436h-262zM950 211l-327 412v34l292 402h244l-297 -406l350 -442h-262z" />
    <glyph glyph-name="logicalnot" unicode="&#xac;" horiz-adv-x="1296" 
d="M920 313v504h-850v242h1106v-746h-256z" />
    <glyph glyph-name="uni00AD" unicode="&#xad;" horiz-adv-x="1105" 
d="M999 502h-893v268h893v-268z" />
    <glyph glyph-name="registered" unicode="&#xae;" horiz-adv-x="958" 
d="M483 649q-112 0 -202 41q-199 89 -199 348v45q0 128 53 217q54 90 143 138.5t199 48.5q112 0 201 -47q196 -107 196 -350v-52q0 -127 -53 -213q-50 -87 -138 -131.5t-200 -44.5zM483 758q126 0 198.5 74.5t72.5 216.5v30q0 141 -75.5 217t-201.5 76q-124 0 -198 -78
t-74 -221v-24q0 -142 74 -216.5t204 -74.5zM428 989v-139h-109v438h175q88 0 130 -37t42 -102q0 -87 -84 -111q36 -11 52.5 -36t16.5 -72v-56q0 -21 8 -24h-110q-8 3 -8 27v53q0 37 -12 48t-50 11h-51zM428 1194v-107h49q80 0 80 56q0 30 -18.5 40.5t-61.5 10.5h-49z" />
    <glyph glyph-name="macron" unicode="&#xaf;" horiz-adv-x="1187" 
d="M258 1544h676v-198h-676v198z" />
    <glyph glyph-name="degree" unicode="&#xb0;" horiz-adv-x="739" 
d="M369 864q-151 0 -232.5 77t-81.5 218v15q0 147 88 227t228 80q143 0 228 -81t85 -226v-15q0 -139 -84 -217t-231 -78zM371 1034q60 0 94.5 35.5t34.5 97.5v7q0 65 -35 101t-94 36q-57 0 -93 -35t-36 -102v-7q0 -64 34 -98.5t95 -34.5z" />
    <glyph glyph-name="plusminus" unicode="&#xb1;" horiz-adv-x="1103" 
d="M670 815v-280h-234v280h-293v238h293v278h234v-278h299v-238h-299zM143 160v237h826v-237h-826z" />
    <glyph glyph-name="uni00B2" unicode="&#xb2;" horiz-adv-x="659" 
d="M41 731v98q0 84 39 132q18 25 41.5 45.5t57 40t51.5 28.5t59 29q68 34 101.5 65t33.5 76q0 35 -21 54.5t-73 19.5q-54 0 -74 -29t-20 -80v-24h-189v31q0 123 74.5 189.5t212.5 66.5q144 0 214 -61t70 -163q0 -68 -28 -119q-48 -74 -170 -135q-45 -21 -66 -31.5t-48 -30
t-40 -38.5h352v-164h-577z" />
    <glyph glyph-name="uni00B3" unicode="&#xb3;" horiz-adv-x="681" 
d="M334 717q-156 0 -226.5 59.5t-70.5 186.5v20h194v-14q0 -90 101 -90q59 0 83.5 17t24.5 56q0 68 -88 68h-90v149h90q80 0 80 78q0 66 -94 66q-96 0 -96 -88v-11h-193v17q0 112 76 177t215 65q131 0 207 -57.5t76 -151.5q0 -121 -101 -160q113 -39 113 -168
q0 -99 -80.5 -159t-220.5 -60z" />
    <glyph glyph-name="acute" unicode="&#xb4;" horiz-adv-x="1187" 
d="M717 1772h293l-379 -426h-211z" />
    <glyph glyph-name="paragraph" unicode="&#xb6;" horiz-adv-x="1505" 
d="M692 0v473h-59q-283 -1 -426.5 130t-143.5 368q0 227 146.5 358t433.5 131h721v-1460h-250v1241h-172v-1241h-250zM692 696v545h-49q-152 0 -231.5 -73t-79.5 -197q0 -133 79 -204t226 -71h55z" />
    <glyph glyph-name="periodcentered" unicode="&#xb7;" horiz-adv-x="622" 
d="M309 451q-99 0 -139.5 40t-40.5 140q0 98 43.5 138t136.5 40q94 0 137 -40t43 -138q0 -95 -44 -137.5t-136 -42.5z" />
    <glyph glyph-name="cedilla" unicode="&#xb8;" horiz-adv-x="1187" 
d="M596 -623q-143 0 -223 35q-81 31 -125 92.5t-62 153.5h240q6 -55 51 -86t117 -31q75 0 113 27.5t38 75.5q0 88 -163 88h-117v268h190v-121q148 -1 223.5 -62.5t75.5 -166.5q0 -129 -93 -201t-265 -72z" />
    <glyph glyph-name="uni00B9" unicode="&#xb9;" horiz-adv-x="530" 
d="M35 731v170h155v279h-129v139q66 4 106 42.5t48 98.5h147v-559h142v-170h-469z" />
    <glyph glyph-name="ordmasculine" unicode="&#xba;" horiz-adv-x="974" 
d="M487 629q-199 0 -305 105.5t-106 305.5v23q0 136 53 231q54 95 145.5 144t212.5 49q119 0 213 -49q94 -51 146.5 -147t52.5 -228v-23q0 -196 -111.5 -303.5t-300.5 -107.5zM487 842q166 0 166 202v19q0 104 -42 158.5t-124 54.5q-163 0 -163 -213v-19q0 -202 163 -202z
" />
    <glyph glyph-name="guillemotright" unicode="&#xbb;" horiz-adv-x="1269" 
d="M78 211l350 442l-297 406h244l293 -402v-34l-328 -412h-262zM559 211l336 436l-299 412h240l297 -412v-31l-312 -405h-262z" />
    <glyph glyph-name="onequarter" unicode="&#xbc;" 
d="M958 885l418 659l269 -205l-601 -524zM199 731v170h155v279h-129v139q66 4 106 42.5t48 98.5h147v-559h142v-170h-469zM1466 139v-139h-161v139h-377v129l381 461h157v-444h115v-146h-115zM874 637l-423 -696l-273 219l615 547zM1139 285h166v153l6 60l-33 -45z" />
    <glyph glyph-name="onehalf" unicode="&#xbd;" 
d="M958 885l418 659l269 -205l-601 -524zM199 731v170h155v279h-129v139q66 4 106 42.5t48 98.5h147v-559h142v-170h-469zM1014 0v98q0 83 39 131q18 25 41.5 46t56 40t52.5 29.5t59 28.5q68 34 101.5 65t33.5 76q0 35 -21 54.5t-73 19.5q-54 0 -74.5 -29t-20.5 -80v-24
h-188v30q0 123 74.5 189.5t212.5 66.5q144 0 214 -60.5t70 -162.5q0 -68 -28 -119q-48 -74 -170 -135q-45 -21 -66 -31.5t-48 -30t-40 -38.5h352v-164h-577zM874 637l-423 -696l-273 219l615 547z" />
    <glyph glyph-name="threequarters" unicode="&#xbe;" 
d="M958 885l418 659l269 -205l-601 -524zM426 717q-156 0 -226.5 59.5t-70.5 186.5v20h195v-14q0 -90 100 -90q59 0 83.5 17t24.5 56q0 68 -88 68h-90v149h90q80 0 80 78q0 66 -94 66q-96 0 -96 -88v-11h-193v17q0 112 76 177t215 65q131 0 207 -57.5t76 -151.5
q0 -121 -101 -160q113 -39 113 -168q0 -99 -80.5 -159t-220.5 -60zM1466 139v-139h-161v139h-377v129l381 461h157v-444h115v-146h-115zM874 637l-423 -696l-273 219l615 547zM1139 285h166v153l6 60l-33 -45z" />
    <glyph glyph-name="questiondown" unicode="&#xbf;" horiz-adv-x="1359" 
d="M778 1206q99 0 139.5 -39t40.5 -141q0 -98 -43 -138t-137 -40q-93 0 -136.5 40t-43.5 138q0 95 44 137.5t136 42.5zM649 778q37 -26 129 -26q104 0 133 26q4 -36 4 -98v-31q0 -95 -36 -145q-32 -50 -82 -81.5t-125 -62.5q-35 -14 -103 -47q-110 -55 -110 -170
q0 -97 68.5 -156t207.5 -59q154 0 224.5 69.5t70.5 203.5v32h275v-47q0 -239 -143.5 -364t-430.5 -125q-190 0 -311 59q-120 58 -180 155t-60 218q0 124 41 195q37 65 92 105t133 77q105 47 137 72q61 47 62 116z" />
    <glyph glyph-name="Agrave" unicode="&#xc0;" horiz-adv-x="1382" 
d="M203 2054h293l297 -426h-211zM981 328h-580l-110 -328h-275l531 1460h278l543 -1460h-272zM477 555h424l-201 573l-14 80l-14 -80z" />
    <glyph glyph-name="Aacute" unicode="&#xc1;" horiz-adv-x="1382" 
d="M874 2054h293l-379 -426h-210zM981 328h-580l-110 -328h-275l531 1460h278l543 -1460h-272zM477 555h424l-201 573l-14 80l-14 -80z" />
    <glyph glyph-name="Acircumflex" unicode="&#xc2;" horiz-adv-x="1382" 
d="M682 1872l-166 -244h-235l305 426h192l305 -426h-233zM981 328h-580l-110 -328h-275l531 1460h278l543 -1460h-272zM477 555h424l-201 573l-14 80l-14 -80z" />
    <glyph glyph-name="Atilde" unicode="&#xc3;" horiz-adv-x="1382" 
d="M240 1628q0 328 262 328q55 0 100.5 -18.5t97.5 -51.5q33 -23 52 -34.5t47 -23t51 -11.5q49 0 67.5 28.5t20.5 100.5h180q0 -162 -59.5 -245t-206.5 -83q-111 0 -199 70q-35 24 -51.5 34.5t-45 21.5t-54.5 11q-42 0 -61 -30t-21 -97h-180zM981 328h-580l-110 -328h-275
l531 1460h278l543 -1460h-272zM477 555h424l-201 573l-14 80l-14 -80z" />
    <glyph glyph-name="Adieresis" unicode="&#xc4;" horiz-adv-x="1382" 
d="M473 1622q-86 0 -121 34t-35 122q0 82 38.5 117.5t117.5 35.5q80 0 118 -35t38 -118q0 -82 -38 -119t-118 -37zM897 1622q-87 0 -121.5 34t-34.5 122q0 83 38 118t118 35t118 -35t38 -118q0 -82 -38.5 -119t-117.5 -37zM981 328h-580l-110 -328h-275l531 1460h278
l543 -1460h-272zM477 555h424l-201 573l-14 80l-14 -80z" />
    <glyph glyph-name="Aring" unicode="&#xc5;" horiz-adv-x="1382" 
d="M682 1612q-136 0 -213.5 74.5t-77.5 211.5q0 134 79 212.5t212 78.5q139 0 218 -76.5t79 -214.5q0 -132 -79.5 -209t-217.5 -77zM682 1790q44 0 79.5 28.5t35.5 79.5q0 55 -30.5 86t-84.5 31q-50 0 -80.5 -31t-30.5 -86q0 -51 28.5 -79.5t82.5 -28.5zM981 328h-580
l-110 -328h-275l531 1460h278l543 -1460h-272zM477 555h424l-201 573l-14 80l-14 -80z" />
    <glyph glyph-name="AE" unicode="&#xc6;" horiz-adv-x="2082" 
d="M1018 328h-580l-170 -328h-291l795 1460h1208v-231h-862l64 -375h686v-233h-647l65 -381h729v-240h-942zM557 555h422l-96 573v80l-29 -80z" />
    <glyph glyph-name="Ccedilla" unicode="&#xc7;" horiz-adv-x="1413" 
d="M754 -653q-144 0 -224 35q-81 31 -124.5 92t-61.5 153h240q6 -55 50.5 -85.5t117.5 -30.5q75 0 113 27t38 75q0 88 -164 88h-116v272q-258 29 -395.5 203t-137.5 481v131q0 337 166.5 518t470.5 181q275 0 430 -138t184 -413h-280q-28 309 -334 309q-362 0 -362 -473
v-100q0 -216 92.5 -331.5t271.5 -115.5q160 0 240 81.5t94 242.5h287q-27 -261 -154.5 -406.5t-382.5 -169.5v-125q148 -1 223.5 -62.5t75.5 -166.5q0 -129 -93 -200.5t-265 -71.5z" />
    <glyph glyph-name="Egrave" unicode="&#xc8;" horiz-adv-x="1245" 
d="M178 2054h293l297 -426h-211zM1178 0h-1037v1460h1002v-231h-742v-375h629v-233h-629v-381h777v-240z" />
    <glyph glyph-name="Eacute" unicode="&#xc9;" horiz-adv-x="1245" 
d="M850 2054h293l-379 -426h-211zM1178 0h-1037v1460h1002v-231h-742v-375h629v-233h-629v-381h777v-240z" />
    <glyph glyph-name="Ecircumflex" unicode="&#xca;" horiz-adv-x="1245" 
d="M657 1872l-165 -244h-236l305 426h193l305 -426h-234zM1178 0h-1037v1460h1002v-231h-742v-375h629v-233h-629v-381h777v-240z" />
    <glyph glyph-name="Edieresis" unicode="&#xcb;" horiz-adv-x="1245" 
d="M449 1622q-86 0 -121 34t-35 122q0 82 38.5 117.5t117.5 35.5q80 0 117.5 -35t37.5 -118q0 -82 -37.5 -119t-117.5 -37zM872 1622q-87 0 -121 33.5t-34 122.5q0 83 37.5 118t117.5 35t118 -35t38 -118q0 -82 -38.5 -119t-117.5 -37zM1178 0h-1037v1460h1002v-231h-742
v-375h629v-233h-629v-381h777v-240z" />
    <glyph glyph-name="Igrave" unicode="&#xcc;" horiz-adv-x="960" 
d="M2 2054h293l297 -426h-211zM82 0v250h270v971h-270v239h797v-239h-271v-971h271v-250h-797z" />
    <glyph glyph-name="Iacute" unicode="&#xcd;" horiz-adv-x="960" 
d="M674 2054h293l-379 -426h-211zM82 0v250h270v971h-270v239h797v-239h-271v-971h271v-250h-797z" />
    <glyph glyph-name="Icircumflex" unicode="&#xce;" horiz-adv-x="960" 
d="M481 1872l-166 -244h-235l305 426h193l305 -426h-234zM82 0v250h270v971h-270v239h797v-239h-271v-971h271v-250h-797z" />
    <glyph glyph-name="Idieresis" unicode="&#xcf;" horiz-adv-x="960" 
d="M272 1622q-86 0 -120.5 34t-34.5 122q0 82 38 117.5t117 35.5q80 0 118 -35t38 -118q0 -82 -38 -119t-118 -37zM696 1622q-87 0 -121 33.5t-34 122.5q0 83 37.5 118t117.5 35t118 -35t38 -118q0 -82 -38.5 -119t-117.5 -37zM82 0v250h270v971h-270v239h797v-239h-271
v-971h271v-250h-797z" />
    <glyph glyph-name="Eth" unicode="&#xd0;" horiz-adv-x="1429" 
d="M182 0v600h-188v242h188v618h512q176 0 324 -71q153 -76 237 -225.5t84 -372.5v-123q0 -227 -82 -373q-84 -146 -225.5 -220.5t-326.5 -74.5h-523zM449 600v-364h243q175 0 276 115.5t101 340.5v78q0 226 -104 342.5t-283 116.5h-233v-387h301v-242h-301z" />
    <glyph glyph-name="Ntilde" unicode="&#xd1;" horiz-adv-x="1447" 
d="M322 1647q0 327 262 327q90 0 198 -69q35 -24 52.5 -35t46 -23t51.5 -12q49 0 67.5 28.5t20.5 100.5h180q0 -162 -59.5 -245t-206.5 -83q-111 0 -199 70q-37 25 -52 35t-44 21.5t-55 11.5q-42 0 -61 -30t-21 -97h-180zM395 0h-254v1460h256l625 -987l39 -96l-8 104v979
h254v-1460h-248l-633 999l-41 97l10 -103v-993z" />
    <glyph glyph-name="Ograve" unicode="&#xd2;" horiz-adv-x="1439" 
d="M240 2081h292l297 -426h-211zM717 -31q-627 0 -627 695v122q0 224 78 383q77 157 218.5 237.5t332.5 80.5q192 0 332 -80q144 -81 221.5 -238t77.5 -383v-122q0 -345 -167 -520t-466 -175zM719 215q176 0 264 116.5t88 342.5v100q0 471 -352 471q-350 0 -350 -469v-102
q0 -459 350 -459z" />
    <glyph glyph-name="Oacute" unicode="&#xd3;" horiz-adv-x="1439" 
d="M934 2087h293l-379 -426h-211zM717 -31q-627 0 -627 695v122q0 224 78 383q77 157 218.5 237.5t332.5 80.5q192 0 332 -80q144 -81 221.5 -238t77.5 -383v-122q0 -345 -167 -520t-466 -175zM719 215q176 0 264 116.5t88 342.5v100q0 471 -352 471q-350 0 -350 -469v-102
q0 -459 350 -459z" />
    <glyph glyph-name="Ocircumflex" unicode="&#xd4;" horiz-adv-x="1439" 
d="M719 1898l-166 -243h-236l306 426h192l305 -426h-233zM717 -31q-627 0 -627 695v122q0 224 78 383q77 157 218.5 237.5t332.5 80.5q192 0 332 -80q144 -81 221.5 -238t77.5 -383v-122q0 -345 -167 -520t-466 -175zM719 215q176 0 264 116.5t88 342.5v100q0 471 -352 471
q-350 0 -350 -469v-102q0 -459 350 -459z" />
    <glyph glyph-name="Otilde" unicode="&#xd5;" horiz-adv-x="1439" 
d="M276 1655q0 327 263 327q90 0 198 -69q35 -24 52.5 -35t46 -23t51.5 -12q49 0 67.5 28.5t20.5 100.5h180q0 -162 -59.5 -244.5t-206.5 -82.5q-112 0 -199 69q-37 25 -52 35t-44 21.5t-55 11.5q-42 0 -61 -30t-21 -97h-181zM717 -31q-627 0 -627 695v122q0 224 78 383
q77 157 218.5 237.5t332.5 80.5q192 0 332 -80q144 -81 221.5 -238t77.5 -383v-122q0 -345 -167 -520t-466 -175zM719 215q176 0 264 116.5t88 342.5v100q0 471 -352 471q-350 0 -350 -469v-102q0 -459 350 -459z" />
    <glyph glyph-name="Odieresis" unicode="&#xd6;" horiz-adv-x="1439" 
d="M510 1649q-86 0 -121 33.5t-35 121.5q0 82 38.5 118t117.5 36q80 0 118 -35.5t38 -118.5q0 -82 -37.5 -118.5t-118.5 -36.5zM934 1649q-87 0 -121.5 33.5t-34.5 121.5q0 83 38 118.5t118 35.5t118 -35.5t38 -118.5q0 -82 -38 -118.5t-118 -36.5zM717 -31q-627 0 -627 695
v122q0 224 78 383q77 157 218.5 237.5t332.5 80.5q192 0 332 -80q144 -81 221.5 -238t77.5 -383v-122q0 -345 -167 -520t-466 -175zM719 215q176 0 264 116.5t88 342.5v100q0 471 -352 471q-350 0 -350 -469v-102q0 -459 350 -459z" />
    <glyph glyph-name="multiply" unicode="&#xd7;" horiz-adv-x="1083" 
d="M539 594l-303 -303l-154 158l301 303l-272 278l155 160l275 -281l284 285l154 -158l-285 -284l295 -301l-155 -158z" />
    <glyph glyph-name="Oslash" unicode="&#xd8;" horiz-adv-x="1439" 
d="M719 -31q-114 0 -213 27l-82 -180h-219l125 262q-240 173 -240 586v116q0 226 78 385q78 157 219.5 239.5t331.5 82.5q135 0 239 -39l80 176h215l-125 -272q222 -190 222 -572v-116q0 -345 -166.5 -520t-464.5 -175zM369 674q0 -223 84 -338l401 887q-56 22 -135 22
q-177 0 -263.5 -122.5t-86.5 -352.5v-96zM719 215q176 0 264 116.5t88 342.5v94q0 210 -67 324l-392 -865q50 -12 107 -12z" />
    <glyph glyph-name="Ugrave" unicode="&#xd9;" horiz-adv-x="1390" 
d="M225 2040h293l297 -426h-211zM696 -31q-293 0 -432 160.5t-139 503.5v827h278v-817q0 -219 69.5 -316.5t225.5 -97.5t221.5 96.5t65.5 317.5v817h281v-827q0 -340 -143 -502t-427 -162z" />
    <glyph glyph-name="Uacute" unicode="&#xda;" horiz-adv-x="1390" 
d="M897 2040h293l-379 -426h-211zM696 -31q-293 0 -432 160.5t-139 503.5v827h278v-817q0 -219 69.5 -316.5t225.5 -97.5t221.5 96.5t65.5 317.5v817h281v-827q0 -340 -143 -502t-427 -162z" />
    <glyph glyph-name="Ucircumflex" unicode="&#xdb;" horiz-adv-x="1390" 
d="M705 1858l-166 -244h-236l305 426h193l305 -426h-234zM696 -31q-293 0 -432 160.5t-139 503.5v827h278v-817q0 -219 69.5 -316.5t225.5 -97.5t221.5 96.5t65.5 317.5v817h281v-827q0 -340 -143 -502t-427 -162z" />
    <glyph glyph-name="Udieresis" unicode="&#xdc;" horiz-adv-x="1390" 
d="M496 1608q-86 0 -121 33.5t-35 121.5q0 82 38.5 118t117.5 36q80 0 117.5 -35.5t37.5 -118.5q0 -82 -37.5 -118.5t-117.5 -36.5zM920 1608q-87 0 -121.5 33.5t-34.5 121.5q0 83 38 118.5t118 35.5t117.5 -35.5t37.5 -118.5q0 -82 -38 -118.5t-117 -36.5zM696 -31
q-293 0 -432 160.5t-139 503.5v827h278v-817q0 -219 69.5 -316.5t225.5 -97.5t221.5 96.5t65.5 317.5v817h281v-827q0 -340 -143 -502t-427 -162z" />
    <glyph glyph-name="Yacute" unicode="&#xdd;" horiz-adv-x="1302" 
d="M834 2036h292l-378 -426h-211zM500 0v582l-486 878h295l336 -631l350 631h295l-512 -882v-578h-278z" />
    <glyph glyph-name="Thorn" unicode="&#xde;" horiz-adv-x="1314" 
d="M406 250v-250h-265v1460h265v-231h266q287 0 433 -129t146 -355q0 -236 -142.5 -366t-426.5 -129h-276zM406 1001v-522h272q148 0 226.5 67t78.5 199q0 123 -78 189.5t-233 66.5h-266z" />
    <glyph glyph-name="germandbls" unicode="&#xdf;" horiz-adv-x="1329" 
d="M795 -12q-143 0 -222 20v232q87 -17 175 -17q270 0 270 238q0 113 -71 167t-197 54h-148v201h105q124 0 181.5 49.5t57.5 148.5q0 209 -262 209q-145 0 -214 -72t-69 -194v-1024h-268v1038q0 139 60 244q127 236 493 236q181 0 293 -56q114 -54 171.5 -145.5t55.5 -204.5
q-3 -242 -202 -305q137 -36 210.5 -129t73.5 -242q0 -208 -127 -328t-366 -120z" />
    <glyph glyph-name="agrave" unicode="&#xe0;" horiz-adv-x="1304" 
d="M184 1800h293l297 -426h-211zM938 236q-64 -123 -185 -195t-296 -72q-188 0 -286.5 84t-98.5 232q0 194 153 288q49 34 101 50q76 27 305 63q166 21 230.5 52t64.5 100q0 77 -58 118t-190 41q-279 0 -291 -235h-276q14 204 158.5 324t394.5 120q191 0 305 -51
q215 -92 215 -360v-795h-217zM549 176q115 0 201 53q84 53 131 134.5t47 168.5v64q-71 -51 -238 -76q-108 -17 -161.5 -32.5t-94.5 -41.5q-69 -46 -69 -122q0 -148 184 -148z" />
    <glyph glyph-name="aacute" unicode="&#xe1;" horiz-adv-x="1304" 
d="M856 1800h293l-379 -426h-211zM938 236q-64 -123 -185 -195t-296 -72q-188 0 -286.5 84t-98.5 232q0 194 153 288q49 34 101 50q76 27 305 63q166 21 230.5 52t64.5 100q0 77 -58 118t-190 41q-279 0 -291 -235h-276q14 204 158.5 324t394.5 120q191 0 305 -51
q215 -92 215 -360v-795h-217zM549 176q115 0 201 53q84 53 131 134.5t47 168.5v64q-71 -51 -238 -76q-108 -17 -161.5 -32.5t-94.5 -41.5q-69 -46 -69 -122q0 -148 184 -148z" />
    <glyph glyph-name="acircumflex" unicode="&#xe2;" horiz-adv-x="1304" 
d="M664 1618l-166 -244h-236l305 426h193l305 -426h-234zM938 236q-64 -123 -185 -195t-296 -72q-188 0 -286.5 84t-98.5 232q0 194 153 288q49 34 101 50q76 27 305 63q166 21 230.5 52t64.5 100q0 77 -58 118t-190 41q-279 0 -291 -235h-276q14 204 158.5 324t394.5 120
q191 0 305 -51q215 -92 215 -360v-795h-217zM549 176q115 0 201 53q84 53 131 134.5t47 168.5v64q-71 -51 -238 -76q-108 -17 -161.5 -32.5t-94.5 -41.5q-69 -46 -69 -122q0 -148 184 -148z" />
    <glyph glyph-name="atilde" unicode="&#xe3;" horiz-adv-x="1304" 
d="M221 1374q0 328 262 328q89 0 199 -70q34 -24 52 -35t46 -22.5t51 -11.5q49 0 68 29t21 100h180q0 -162 -59.5 -245t-206.5 -83q-111 0 -199 70q-34 23 -51.5 34t-46 22t-54.5 11q-42 0 -61 -30t-21 -97h-180zM938 236q-64 -123 -185 -195t-296 -72q-188 0 -286.5 84
t-98.5 232q0 194 153 288q49 34 101 50q76 27 305 63q166 21 230.5 52t64.5 100q0 77 -58 118t-190 41q-279 0 -291 -235h-276q14 204 158.5 324t394.5 120q191 0 305 -51q215 -92 215 -360v-795h-217zM549 176q115 0 201 53q84 53 131 134.5t47 168.5v64q-71 -51 -238 -76
q-108 -17 -161.5 -32.5t-94.5 -41.5q-69 -46 -69 -122q0 -148 184 -148z" />
    <glyph glyph-name="adieresis" unicode="&#xe4;" horiz-adv-x="1304" 
d="M455 1368q-86 0 -121 34t-35 122q0 82 38.5 117.5t117.5 35.5q80 0 117.5 -35t37.5 -118q0 -82 -37.5 -119t-117.5 -37zM879 1368q-87 0 -121.5 34t-34.5 122q0 83 38 118t118 35t117.5 -35t37.5 -118q0 -82 -38 -119t-117 -37zM938 236q-64 -123 -185 -195t-296 -72
q-188 0 -286.5 84t-98.5 232q0 194 153 288q49 34 101 50q76 27 305 63q166 21 230.5 52t64.5 100q0 77 -58 118t-190 41q-279 0 -291 -235h-276q14 204 158.5 324t394.5 120q191 0 305 -51q215 -92 215 -360v-795h-217zM549 176q115 0 201 53q84 53 131 134.5t47 168.5v64
q-71 -51 -238 -76q-108 -17 -161.5 -32.5t-94.5 -41.5q-69 -46 -69 -122q0 -148 184 -148z" />
    <glyph glyph-name="aring" unicode="&#xe5;" horiz-adv-x="1304" 
d="M655 1370q-136 0 -213 75t-77 212q0 134 78.5 212.5t211.5 78.5q139 0 218 -76.5t79 -214.5q0 -132 -79.5 -209.5t-217.5 -77.5zM655 1548q43 0 79 29t36 80q0 55 -30.5 86t-84.5 31q-50 0 -80 -31t-30 -86q0 -52 28.5 -80.5t81.5 -28.5zM938 236q-64 -123 -185 -195
t-296 -72q-188 0 -286.5 84t-98.5 232q0 194 153 288q49 34 101 50q76 27 305 63q166 21 230.5 52t64.5 100q0 77 -58 118t-190 41q-279 0 -291 -235h-276q14 204 158.5 324t394.5 120q191 0 305 -51q215 -92 215 -360v-795h-217zM549 176q115 0 201 53q84 53 131 134.5
t47 168.5v64q-71 -51 -238 -76q-108 -17 -161.5 -32.5t-94.5 -41.5q-69 -46 -69 -122q0 -148 184 -148z" />
    <glyph glyph-name="ae" unicode="&#xe6;" horiz-adv-x="2179" 
d="M2089 348q-52 -183 -195.5 -281t-371.5 -98q-391 0 -531 283q-62 -130 -194.5 -206.5t-315.5 -76.5q-204 0 -306.5 86t-102.5 236q0 188 153 282q49 34 101 50q76 27 305 63q174 24 223 44q71 30 72 91q0 82 -67 131t-191 49q-128 0 -203.5 -68t-81.5 -171h-272
q14 207 154.5 325.5t400.5 118.5q165 0 265.5 -46.5t151.5 -139.5q157 186 447 186q289 0 440 -182q135 -162 135 -410v-125h-907q17 -145 102.5 -222t231.5 -77q204 0 268 158h289zM1532 993q-138 0 -223.5 -76t-108.5 -217h637q-14 139 -90.5 216t-214.5 77zM549 176
q115 0 201 53q84 53 131 134.5t47 168.5v56q-71 -51 -238 -76q-166 -27 -207 -41q-29 -10 -53 -25q-70 -46 -70 -122q0 -148 189 -148z" />
    <glyph glyph-name="ccedilla" unicode="&#xe7;" horiz-adv-x="1304" 
d="M705 -653q-144 0 -224 35q-81 31 -124.5 92t-61.5 153h240q6 -55 50.5 -85.5t116.5 -30.5q75 0 113.5 27t38.5 75q0 88 -164 88h-117v272q-239 26 -368 178t-129 414v31q0 196 78 334q78 134 211.5 205t304.5 71q253 0 404 -123t171 -374v-4h-280v6q-36 266 -293 266
q-145 0 -231.5 -99t-86.5 -282v-27q0 -174 83.5 -269t232.5 -95q256 0 297 270v2h280v-6q-18 -230 -144 -353.5t-339 -144.5v-125q148 -1 223.5 -62.5t75.5 -166.5q0 -129 -93 -200.5t-265 -71.5z" />
    <glyph glyph-name="egrave" unicode="&#xe8;" horiz-adv-x="1325" 
d="M197 1800h292l297 -426h-211zM1235 348q-52 -183 -195.5 -281t-371.5 -98q-292 0 -442 157t-150 437v29q0 184 74 326q74 139 208 213.5t318 74.5q289 0 440 -182q135 -162 135 -410v-125h-909q17 -145 103.5 -222t232.5 -77q204 0 268 158h289zM678 993
q-139 0 -225 -76.5t-109 -216.5h639q-14 139 -90.5 216t-214.5 77z" />
    <glyph glyph-name="eacute" unicode="&#xe9;" horiz-adv-x="1325" 
d="M868 1800h293l-379 -426h-211zM1235 348q-52 -183 -195.5 -281t-371.5 -98q-292 0 -442 157t-150 437v29q0 184 74 326q74 139 208 213.5t318 74.5q289 0 440 -182q135 -162 135 -410v-125h-909q17 -145 103.5 -222t232.5 -77q204 0 268 158h289zM678 993
q-139 0 -225 -76.5t-109 -216.5h639q-14 139 -90.5 216t-214.5 77z" />
    <glyph glyph-name="ecircumflex" unicode="&#xea;" horiz-adv-x="1325" 
d="M676 1618l-166 -244h-236l306 426h192l305 -426h-233zM1235 348q-52 -183 -195.5 -281t-371.5 -98q-292 0 -442 157t-150 437v29q0 184 74 326q74 139 208 213.5t318 74.5q289 0 440 -182q135 -162 135 -410v-125h-909q17 -145 103.5 -222t232.5 -77q204 0 268 158h289z
M678 993q-139 0 -225 -76.5t-109 -216.5h639q-14 139 -90.5 216t-214.5 77z" />
    <glyph glyph-name="edieresis" unicode="&#xeb;" horiz-adv-x="1325" 
d="M467 1368q-86 0 -121 34t-35 122q0 82 38.5 117.5t117.5 35.5q80 0 118 -35t38 -118q0 -82 -38 -119t-118 -37zM891 1368q-87 0 -121.5 34t-34.5 122q0 83 38 118t118 35t118 -35t38 -118q0 -82 -38.5 -119t-117.5 -37zM1235 348q-52 -183 -195.5 -281t-371.5 -98
q-292 0 -442 157t-150 437v29q0 184 74 326q74 139 208 213.5t318 74.5q289 0 440 -182q135 -162 135 -410v-125h-909q17 -145 103.5 -222t232.5 -77q204 0 268 158h289zM678 993q-139 0 -225 -76.5t-109 -216.5h639q-14 139 -90.5 216t-214.5 77z" />
    <glyph glyph-name="igrave" unicode="&#xec;" horiz-adv-x="536" 
d="M-207 1772h293l297 -426h-211zM133 0v1178h273v-1178h-273z" />
    <glyph glyph-name="iacute" unicode="&#xed;" horiz-adv-x="536" 
d="M461 1772h293l-379 -426h-211zM133 0v1178h273v-1178h-273z" />
    <glyph glyph-name="icircumflex" unicode="&#xee;" horiz-adv-x="536" 
d="M272 1589l-166 -243h-235l305 426h193l305 -426h-234zM133 0v1178h273v-1178h-273z" />
    <glyph glyph-name="idieresis" unicode="&#xef;" horiz-adv-x="536" 
d="M63 1339q-86 0 -120.5 34t-34.5 122q0 83 38 118.5t117 35.5q80 0 118 -35.5t38 -118.5q0 -82 -38 -119t-118 -37zM487 1339q-87 0 -121 33.5t-34 122.5q0 83 37.5 118.5t117.5 35.5t118 -35.5t38 -118.5q0 -82 -38.5 -119t-117.5 -37zM133 0v1178h273v-1178h-273z" />
    <glyph glyph-name="eth" unicode="&#xf0;" horiz-adv-x="1339" 
d="M666 -31q-185 0 -316 70q-134 68 -204 194t-70 299v23q0 187 76 315q76 127 203 192.5t290 65.5q165 0 266 -84q-68 111 -229 238l-96 -68h-281l242 166q-100 71 -307 205h405q49 -35 96 -69l103 69h278l-254 -176q203 -185 297.5 -383.5t94.5 -437.5v-8
q0 -300 -152 -455.5t-442 -155.5zM674 205q154 0 239.5 86t85.5 246v20q0 170 -89 260t-240 90q-147 0 -233.5 -92t-86.5 -260v-18q0 -154 86.5 -243t237.5 -89z" />
    <glyph glyph-name="ntilde" unicode="&#xf1;" horiz-adv-x="1337" 
d="M225 1360q0 328 262 328q89 0 199 -70q35 -24 52.5 -35t46 -23t51.5 -12q49 0 67.5 28.5t20.5 100.5h180q0 -162 -59.5 -244.5t-206.5 -82.5q-112 0 -199 69q-36 24 -52 34.5t-45 22t-55 11.5q-42 0 -60.5 -30t-20.5 -97h-181zM399 0h-270v1178h227l25 -236
q49 125 150 194.5t249 69.5q210 0 323.5 -128.5t113.5 -352.5v-725h-271v659q0 154 -58 234t-196 80q-147 0 -220 -95t-73 -264v-614z" />
    <glyph glyph-name="ograve" unicode="&#xf2;" horiz-adv-x="1339" 
d="M190 1800h293l297 -426h-211zM670 -31q-286 0 -440 154t-154 442v31q0 196 78 334q76 135 209 205.5t307 70.5q179 0 307 -71q138 -73 212.5 -210t74.5 -329v-31q0 -190 -74 -323q-77 -134 -209 -203.5t-311 -69.5zM670 205q153 0 237 95t84 269v27q0 180 -85.5 280.5
t-233.5 100.5t-235 -98.5t-87 -282.5v-27q0 -174 84.5 -269t235.5 -95z" />
    <glyph glyph-name="oacute" unicode="&#xf3;" horiz-adv-x="1339" 
d="M862 1800h293l-379 -426h-211zM670 -31q-286 0 -440 154t-154 442v31q0 196 78 334q76 135 209 205.5t307 70.5q179 0 307 -71q138 -73 212.5 -210t74.5 -329v-31q0 -190 -74 -323q-77 -134 -209 -203.5t-311 -69.5zM670 205q153 0 237 95t84 269v27q0 180 -85.5 280.5
t-233.5 100.5t-235 -98.5t-87 -282.5v-27q0 -174 84.5 -269t235.5 -95z" />
    <glyph glyph-name="ocircumflex" unicode="&#xf4;" horiz-adv-x="1339" 
d="M670 1618l-166 -244h-236l305 426h193l305 -426h-233zM670 -31q-286 0 -440 154t-154 442v31q0 196 78 334q76 135 209 205.5t307 70.5q179 0 307 -71q138 -73 212.5 -210t74.5 -329v-31q0 -190 -74 -323q-77 -134 -209 -203.5t-311 -69.5zM670 205q153 0 237 95t84 269
v27q0 180 -85.5 280.5t-233.5 100.5t-235 -98.5t-87 -282.5v-27q0 -174 84.5 -269t235.5 -95z" />
    <glyph glyph-name="otilde" unicode="&#xf5;" horiz-adv-x="1339" 
d="M227 1374q0 328 262 328q89 0 199 -70q33 -23 52 -34.5t47 -23t51 -11.5q49 0 67.5 28.5t20.5 100.5h180q0 -162 -59.5 -245t-206.5 -83q-111 0 -199 70q-34 23 -51.5 34t-46 22t-54.5 11q-42 0 -60.5 -30t-20.5 -97h-181zM670 -31q-286 0 -440 154t-154 442v31
q0 196 78 334q76 135 209 205.5t307 70.5q179 0 307 -71q138 -73 212.5 -210t74.5 -329v-31q0 -190 -74 -323q-77 -134 -209 -203.5t-311 -69.5zM670 205q153 0 237 95t84 269v27q0 180 -85.5 280.5t-233.5 100.5t-235 -98.5t-87 -282.5v-27q0 -174 84.5 -269t235.5 -95z
" />
    <glyph glyph-name="odieresis" unicode="&#xf6;" horiz-adv-x="1339" 
d="M461 1368q-86 0 -121 34t-35 122q0 82 38.5 117.5t117.5 35.5q80 0 117.5 -35t37.5 -118q0 -82 -37.5 -119t-117.5 -37zM885 1368q-87 0 -121.5 34t-34.5 122q0 83 38 118t118 35t117.5 -35t37.5 -118q0 -82 -38 -119t-117 -37zM670 -31q-286 0 -440 154t-154 442v31
q0 196 78 334q76 135 209 205.5t307 70.5q179 0 307 -71q138 -73 212.5 -210t74.5 -329v-31q0 -190 -74 -323q-77 -134 -209 -203.5t-311 -69.5zM670 205q153 0 237 95t84 269v27q0 180 -85.5 280.5t-233.5 100.5t-235 -98.5t-87 -282.5v-27q0 -174 84.5 -269t235.5 -95z
" />
    <glyph glyph-name="divide" unicode="&#xf7;" horiz-adv-x="1103" 
d="M555 985q-77 0 -108 30.5t-31 108.5q0 76 33 107t106 31q70 0 103.5 -31t33.5 -107q0 -75 -32.5 -107t-104.5 -32zM92 614v238h928v-238h-928zM555 213q-77 0 -108 30.5t-31 108.5q0 76 33 106.5t106 30.5q70 0 103.5 -31t33.5 -106t-32.5 -107t-104.5 -32z" />
    <glyph glyph-name="oslash" unicode="&#xf8;" horiz-adv-x="1339" 
d="M670 -31q-76 0 -170 17l-78 -170h-215l110 239q-241 146 -241 510v31q0 196 78 334q76 135 209 205.5t307 70.5q100 0 166 -18l75 166h215l-110 -242q119 -79 183.5 -209t64.5 -307v-31q0 -190 -74 -323q-77 -134 -209 -203.5t-311 -69.5zM350 569q0 -170 82 -264
l305 666q-18 6 -65 6q-148 0 -235 -98.5t-87 -282.5v-27zM670 205q153 0 237 95t84 269v27q0 175 -84 276l-305 -661q8 -1 21.5 -2.5t25 -2.5t21.5 -1z" />
    <glyph glyph-name="ugrave" unicode="&#xf9;" horiz-adv-x="1296" 
d="M162 1749h293l297 -426h-211zM918 225q-45 -119 -141.5 -184.5t-239.5 -65.5q-208 0 -312 124.5t-104 349.5v729h268v-656q0 -72 12 -126.5t39 -97.5t74.5 -65t114.5 -22q130 0 199 96t69 258v613h270v-1178h-225z" />
    <glyph glyph-name="uacute" unicode="&#xfa;" horiz-adv-x="1296" 
d="M834 1749h292l-378 -426h-211zM918 225q-45 -119 -141.5 -184.5t-239.5 -65.5q-208 0 -312 124.5t-104 349.5v729h268v-656q0 -72 12 -126.5t39 -97.5t74.5 -65t114.5 -22q130 0 199 96t69 258v613h270v-1178h-225z" />
    <glyph glyph-name="ucircumflex" unicode="&#xfb;" horiz-adv-x="1296" 
d="M641 1567l-166 -244h-235l305 426h192l305 -426h-233zM918 225q-45 -119 -141.5 -184.5t-239.5 -65.5q-208 0 -312 124.5t-104 349.5v729h268v-656q0 -72 12 -126.5t39 -97.5t74.5 -65t114.5 -22q130 0 199 96t69 258v613h270v-1178h-225z" />
    <glyph glyph-name="udieresis" unicode="&#xfc;" horiz-adv-x="1296" 
d="M432 1317q-86 0 -121 34t-35 122q0 82 38.5 117.5t117.5 35.5q80 0 118 -35t38 -118q0 -82 -38 -119t-118 -37zM856 1317q-87 0 -121.5 34t-34.5 122q0 83 38 118t118 35t118 -35t38 -118q0 -82 -38.5 -119t-117.5 -37zM918 225q-45 -119 -141.5 -184.5t-239.5 -65.5
q-208 0 -312 124.5t-104 349.5v729h268v-656q0 -72 12 -126.5t39 -97.5t74.5 -65t114.5 -22q130 0 199 96t69 258v613h270v-1178h-225z" />
    <glyph glyph-name="yacute" unicode="&#xfd;" horiz-adv-x="1220" 
d="M809 1757h293l-379 -426h-211zM61 -440v233h138q71 0 125 14q46 13 77 50.5t68 117.5l23 56l-488 1147h287l319 -797l11 -53l14 51l311 799h283l-516 -1246q-53 -128 -96.5 -200t-94.5 -109q-52 -37 -125 -50t-200 -13h-136z" />
    <glyph glyph-name="thorn" unicode="&#xfe;" horiz-adv-x="1366" 
d="M786 -25q-279 0 -393 232v-613h-260v1915h260v-555q55 120 156.5 186t243.5 66q136 0 258 -67q239 -142 239 -527v-49q0 -188 -63 -323q-65 -131 -178.5 -198t-262.5 -67zM702 203q151 0 233.5 95t82.5 269v41q0 175 -84.5 274t-224.5 99q-145 0 -233.5 -101.5
t-88.5 -265.5v-39q0 -171 84.5 -271.5t230.5 -100.5z" />
    <glyph glyph-name="ydieresis" unicode="&#xff;" horiz-adv-x="1220" 
d="M408 1325q-86 0 -121 34t-35 122q0 82 38.5 117.5t117.5 35.5q80 0 117.5 -35t37.5 -118q0 -82 -37.5 -119t-117.5 -37zM831 1325q-87 0 -121 33.5t-34 122.5q0 83 37.5 118t117.5 35t118 -35t38 -118q0 -82 -38.5 -119t-117.5 -37zM61 -440v233h138q71 0 125 14
q46 13 77 50.5t68 117.5l23 56l-488 1147h287l319 -797l11 -53l14 51l311 799h283l-516 -1246q-53 -128 -96.5 -200t-94.5 -109q-52 -37 -125 -50t-200 -13h-136z" />
    <glyph glyph-name="Amacron" unicode="&#x100;" horiz-adv-x="1382" 
d="M350 1827h676v-199h-676v199zM981 328h-580l-110 -328h-275l531 1460h278l543 -1460h-272zM477 555h424l-201 573l-14 80l-14 -80z" />
    <glyph glyph-name="amacron" unicode="&#x101;" horiz-adv-x="1304" 
d="M332 1573h676v-199h-676v199zM938 236q-64 -123 -185 -195t-296 -72q-188 0 -286.5 84t-98.5 232q0 194 153 288q49 34 101 50q76 27 305 63q166 21 230.5 52t64.5 100q0 77 -58 118t-190 41q-279 0 -291 -235h-276q14 204 158.5 324t394.5 120q191 0 305 -51
q215 -92 215 -360v-795h-217zM549 176q115 0 201 53q84 53 131 134.5t47 168.5v64q-71 -51 -238 -76q-108 -17 -161.5 -32.5t-94.5 -41.5q-69 -46 -69 -122q0 -148 184 -148z" />
    <glyph glyph-name="Abreve" unicode="&#x102;" horiz-adv-x="1382" 
d="M678 1624q-161 0 -250 53q-86 53 -123 149t-37 238h195q0 -128 51.5 -191.5t165.5 -64.5q114 1 165.5 64.5t51.5 191.5h199q0 -440 -418 -440zM981 328h-580l-110 -328h-275l531 1460h278l543 -1460h-272zM477 555h424l-201 573l-14 80l-14 -80z" />
    <glyph glyph-name="abreve" unicode="&#x103;" horiz-adv-x="1304" 
d="M659 1370q-160 0 -249 53q-86 53 -123 149t-37 238h194q0 -128 52 -191.5t166 -64.5q114 1 165.5 64.5t51.5 191.5h198q0 -440 -418 -440zM938 236q-64 -123 -185 -195t-296 -72q-188 0 -286.5 84t-98.5 232q0 194 153 288q49 34 101 50q76 27 305 63q166 21 230.5 52
t64.5 100q0 77 -58 118t-190 41q-279 0 -291 -235h-276q14 204 158.5 324t394.5 120q191 0 305 -51q215 -92 215 -360v-795h-217zM549 176q115 0 201 53q84 53 131 134.5t47 168.5v64q-71 -51 -238 -76q-108 -17 -161.5 -32.5t-94.5 -41.5q-69 -46 -69 -122q0 -148 184 -148
z" />
    <glyph glyph-name="Aogonek" unicode="&#x104;" horiz-adv-x="1382" 
d="M1585 -258q-98 -256 -385 -256q-149 0 -231 60t-82 178q0 84 42 155t158 144l-106 305h-580l-110 -328h-275l531 1460h278l543 -1460q-48 -29 -164 -109q-57 -42 -80.5 -75.5t-23.5 -71.5q0 -42 31.5 -66t85.5 -24q46 0 80.5 25t48.5 63h239zM477 555h424l-201 573
l-14 80l-14 -80z" />
    <glyph glyph-name="aogonek" unicode="&#x105;" horiz-adv-x="1304" 
d="M1401 -258q-98 -256 -385 -256q-149 0 -231.5 60t-82.5 178q0 56 21 108q39 112 238 223l-23 181q-64 -123 -185 -195t-296 -72q-188 0 -286.5 84t-98.5 232q0 194 153 288q49 34 101 50q76 27 305 63q166 21 230.5 52t64.5 100q0 77 -58 118t-190 41q-279 0 -291 -235
h-276q14 204 158.5 324t394.5 120q191 0 305 -51q215 -92 215 -360v-795q-48 -29 -164 -109q-58 -42 -81.5 -76t-23.5 -71q0 -42 31.5 -66t85.5 -24q46 0 80.5 25t48.5 63h240zM549 176q115 0 201 53q84 53 131 134.5t47 168.5v64q-71 -51 -238 -76q-108 -17 -161.5 -32.5
t-94.5 -41.5q-69 -46 -69 -122q0 -148 184 -148z" />
    <glyph glyph-name="Cacute" unicode="&#x106;" horiz-adv-x="1413" 
d="M920 2081h292l-378 -426h-211zM1350 549q-14 -173 -88 -311q-147 -269 -545 -269q-303 0 -465 177t-162 511v131q0 337 166.5 518t470.5 181q275 0 430 -138t184 -413h-280q-28 309 -334 309q-362 0 -362 -473v-100q0 -216 92.5 -331.5t271.5 -115.5q160 0 240 81.5
t94 242.5h287z" />
    <glyph glyph-name="cacute" unicode="&#x107;" horiz-adv-x="1304" 
d="M862 1800h293l-379 -426h-211zM668 -31q-284 0 -438 154t-154 442v31q0 196 78 334q78 134 211.5 205t304.5 71q253 0 404 -123t171 -374v-4h-280v6q-36 266 -293 266q-145 0 -231.5 -99t-86.5 -282v-27q0 -174 83.5 -269t232.5 -95q256 0 297 270v2h280v-6
q-20 -253 -172.5 -377.5t-406.5 -124.5z" />
    <glyph glyph-name="Ccircumflex" unicode="&#x108;" horiz-adv-x="1413" 
d="M727 1898l-166 -243h-235l305 426h192l305 -426h-233zM1350 549q-14 -173 -88 -311q-147 -269 -545 -269q-303 0 -465 177t-162 511v131q0 337 166.5 518t470.5 181q275 0 430 -138t184 -413h-280q-28 309 -334 309q-362 0 -362 -473v-100q0 -216 92.5 -331.5
t271.5 -115.5q160 0 240 81.5t94 242.5h287z" />
    <glyph glyph-name="ccircumflex" unicode="&#x109;" horiz-adv-x="1304" 
d="M670 1618l-166 -244h-236l305 426h193l305 -426h-233zM668 -31q-284 0 -438 154t-154 442v31q0 196 78 334q78 134 211.5 205t304.5 71q253 0 404 -123t171 -374v-4h-280v6q-36 266 -293 266q-145 0 -231.5 -99t-86.5 -282v-27q0 -174 83.5 -269t232.5 -95q256 0 297 270
v2h280v-6q-20 -253 -172.5 -377.5t-406.5 -124.5z" />
    <glyph glyph-name="Cdotaccent" unicode="&#x10a;" horiz-adv-x="1413" 
d="M727 1649q-96 0 -135 38t-39 134q0 93 42.5 131.5t131.5 38.5q88 0 130 -39t42 -131q0 -91 -42 -131.5t-130 -40.5zM1350 549q-14 -173 -88 -311q-147 -269 -545 -269q-303 0 -465 177t-162 511v131q0 337 166.5 518t470.5 181q275 0 430 -138t184 -413h-280
q-28 309 -334 309q-362 0 -362 -473v-100q0 -216 92.5 -331.5t271.5 -115.5q160 0 240 81.5t94 242.5h287z" />
    <glyph glyph-name="cdotaccent" unicode="&#x10b;" horiz-adv-x="1304" 
d="M670 1368q-96 0 -135 38t-39 134q0 93 42.5 131.5t131.5 38.5q88 0 130 -39t42 -131q0 -91 -42 -131.5t-130 -40.5zM668 -31q-284 0 -438 154t-154 442v31q0 196 78 334q78 134 211.5 205t304.5 71q253 0 404 -123t171 -374v-4h-280v6q-36 266 -293 266
q-145 0 -231.5 -99t-86.5 -282v-27q0 -174 83.5 -269t232.5 -95q256 0 297 270v2h280v-6q-20 -253 -172.5 -377.5t-406.5 -124.5z" />
    <glyph glyph-name="Ccaron" unicode="&#x10c;" horiz-adv-x="1413" 
d="M627 1655l-305 426h235l166 -240l168 240h231l-303 -426h-192zM1350 549q-14 -173 -88 -311q-147 -269 -545 -269q-303 0 -465 177t-162 511v131q0 337 166.5 518t470.5 181q275 0 430 -138t184 -413h-280q-28 309 -334 309q-362 0 -362 -473v-100q0 -216 92.5 -331.5
t271.5 -115.5q160 0 240 81.5t94 242.5h287z" />
    <glyph glyph-name="ccaron" unicode="&#x10d;" horiz-adv-x="1304" 
d="M569 1374l-305 426h236l166 -239l168 239h231l-303 -426h-193zM668 -31q-284 0 -438 154t-154 442v31q0 196 78 334q78 134 211.5 205t304.5 71q253 0 404 -123t171 -374v-4h-280v6q-36 266 -293 266q-145 0 -231.5 -99t-86.5 -282v-27q0 -174 83.5 -269t232.5 -95
q256 0 297 270v2h280v-6q-20 -253 -172.5 -377.5t-406.5 -124.5z" />
    <glyph glyph-name="Dcaron" unicode="&#x10e;" horiz-adv-x="1388" 
d="M616 1628l-305 426h236l166 -239l168 239h231l-303 -426h-193zM141 1460h512q176 0 324 -71q153 -76 237 -225.5t84 -372.5v-123q0 -229 -81 -373q-84 -146 -226 -220.5t-327 -74.5h-523v1460zM408 1229v-993h243q175 0 276 115.5t101 340.5v78q0 226 -104 342.5
t-283 116.5h-233z" />
    <glyph glyph-name="dcaron" unicode="&#x10f;" horiz-adv-x="1368" 
d="M1448 1778h233l-139 -392h-176zM983 246q-50 -126 -153 -198.5t-255 -72.5q-230 0 -364.5 158.5t-134.5 450.5v28q0 193 65 326q64 131 177.5 198.5t265.5 67.5q284 0 391 -229v602h260v-1577h-223zM657 207q150 0 237 102t87 277v20q0 171 -84 273t-229 102
q-152 0 -234 -97.5t-82 -275.5v-22q0 -184 83.5 -281.5t221.5 -97.5z" />
    <glyph glyph-name="Dcroat" unicode="&#x110;" horiz-adv-x="1429" 
d="M182 0v600h-188v242h188v618h512q176 0 324 -71q153 -76 237 -225.5t84 -372.5v-123q0 -227 -82 -373q-84 -146 -225.5 -220.5t-326.5 -74.5h-523zM449 600v-364h243q175 0 276 115.5t101 340.5v78q0 226 -104 342.5t-283 116.5h-233v-387h301v-242h-301z" />
    <glyph glyph-name="dcroat" unicode="&#x111;" horiz-adv-x="1368" 
d="M983 246q-50 -126 -153 -198.5t-255 -72.5q-230 0 -364.5 158.5t-134.5 450.5v28q0 193 65 326q64 131 177.5 198.5t265.5 67.5q284 0 391 -229v278h-158v140h158v184h260v-184h160v-140h-160v-1253h-223zM657 207q150 0 237 102t87 277v20q0 171 -84 273t-229 102
q-152 0 -234 -97.5t-82 -275.5v-22q0 -184 83.5 -281.5t221.5 -97.5z" />
    <glyph glyph-name="Emacron" unicode="&#x112;" horiz-adv-x="1245" 
d="M326 1827h675v-199h-675v199zM1178 0h-1037v1460h1002v-231h-742v-375h629v-233h-629v-381h777v-240z" />
    <glyph glyph-name="emacron" unicode="&#x113;" horiz-adv-x="1325" 
d="M344 1573h676v-199h-676v199zM1235 348q-52 -183 -195.5 -281t-371.5 -98q-292 0 -442 157t-150 437v29q0 184 74 326q74 139 208 213.5t318 74.5q289 0 440 -182q135 -162 135 -410v-125h-909q17 -145 103.5 -222t232.5 -77q204 0 268 158h289zM678 993
q-139 0 -225 -76.5t-109 -216.5h639q-14 139 -90.5 216t-214.5 77z" />
    <glyph glyph-name="Ebreve" unicode="&#x114;" horiz-adv-x="1245" 
d="M653 1624q-161 0 -250 53q-86 53 -122.5 149t-36.5 238h194q0 -128 51.5 -191.5t165.5 -64.5q114 1 165.5 64.5t51.5 191.5h199q0 -440 -418 -440zM1178 0h-1037v1460h1002v-231h-742v-375h629v-233h-629v-381h777v-240z" />
    <glyph glyph-name="ebreve" unicode="&#x115;" horiz-adv-x="1325" 
d="M672 1370q-161 0 -250 53q-86 53 -123 149t-37 238h195q0 -128 51.5 -191.5t165.5 -64.5q114 1 165.5 64.5t51.5 191.5h199q0 -440 -418 -440zM1235 348q-52 -183 -195.5 -281t-371.5 -98q-292 0 -442 157t-150 437v29q0 184 74 326q74 139 208 213.5t318 74.5
q289 0 440 -182q135 -162 135 -410v-125h-909q17 -145 103.5 -222t232.5 -77q204 0 268 158h289zM678 993q-139 0 -225 -76.5t-109 -216.5h639q-14 139 -90.5 216t-214.5 77z" />
    <glyph glyph-name="Edotaccent" unicode="&#x116;" horiz-adv-x="1245" 
d="M657 1622q-96 0 -135 38t-39 134q0 93 42.5 131.5t131.5 38.5q88 0 130 -39t42 -131q0 -91 -42 -131.5t-130 -40.5zM1178 0h-1037v1460h1002v-231h-742v-375h629v-233h-629v-381h777v-240z" />
    <glyph glyph-name="edotaccent" unicode="&#x117;" horiz-adv-x="1325" 
d="M676 1368q-96 0 -135 38t-39 134q0 93 42.5 131.5t131.5 38.5q88 0 130 -39t42 -131q0 -91 -42 -131.5t-130 -40.5zM1235 348q-52 -183 -195.5 -281t-371.5 -98q-292 0 -442 157t-150 437v29q0 184 74 326q74 139 208 213.5t318 74.5q289 0 440 -182q135 -162 135 -410
v-125h-909q17 -145 103.5 -222t232.5 -77q204 0 268 158h289zM678 993q-139 0 -225 -76.5t-109 -216.5h639q-14 139 -90.5 216t-214.5 77z" />
    <glyph glyph-name="Eogonek" unicode="&#x118;" horiz-adv-x="1245" 
d="M1395 -258q-98 -256 -385 -256q-149 0 -231.5 60t-82.5 178q0 76 36 142.5t132 133.5h-723v1460h1002v-231h-742v-375h629v-233h-629v-381h777v-240q-48 -29 -164 -109q-58 -42 -81.5 -76t-23.5 -71q0 -42 31.5 -66t85.5 -24q46 0 80.5 25t48.5 63h240z" />
    <glyph glyph-name="eogonek" unicode="&#x119;" horiz-adv-x="1325" 
d="M801 -479q-149 0 -231.5 59.5t-82.5 177.5q0 60 20.5 111.5t74.5 103.5q-250 23 -378 177t-128 413v29q0 184 74 326q74 139 208 213.5t318 74.5q289 0 440 -182q135 -162 135 -410v-125h-909q17 -145 103.5 -222t232.5 -77q204 0 268 158h289q-72 -246 -297 -332
q-88 -57 -145 -98q-51 -41 -72 -72.5t-21 -66.5q0 -42 31.5 -66t85.5 -24q46 0 80.5 25t48.5 63h240q-98 -256 -385 -256zM678 993q-139 0 -225 -76.5t-109 -216.5h639q-14 139 -90.5 216t-214.5 77z" />
    <glyph glyph-name="Ecaron" unicode="&#x11a;" horiz-adv-x="1245" 
d="M557 1628l-305 426h235l166 -239l168 239h232l-303 -426h-193zM1178 0h-1037v1460h1002v-231h-742v-375h629v-233h-629v-381h777v-240z" />
    <glyph glyph-name="ecaron" unicode="&#x11b;" horiz-adv-x="1325" 
d="M575 1374l-305 426h236l166 -239l168 239h231l-303 -426h-193zM1235 348q-52 -183 -195.5 -281t-371.5 -98q-292 0 -442 157t-150 437v29q0 184 74 326q74 139 208 213.5t318 74.5q289 0 440 -182q135 -162 135 -410v-125h-909q17 -145 103.5 -222t232.5 -77
q204 0 268 158h289zM678 993q-139 0 -225 -76.5t-109 -216.5h639q-14 139 -90.5 216t-214.5 77z" />
    <glyph glyph-name="Gcircumflex" unicode="&#x11c;" horiz-adv-x="1435" 
d="M729 1898l-166 -243h-235l305 426h192l305 -426h-233zM1098 346q-22 -105 -74 -190q-122 -187 -383 -187q-551 0 -551 680v142q0 344 167.5 520t471.5 176q272 0 423 -139t163 -394h-281q-3 78 -37 148q-68 145 -272 145q-185 0 -272.5 -114.5t-87.5 -352.5v-121
q-1 -234 84 -341t268 -107q116 0 184 45q68 42 101.5 116t35.5 163h-356v231h639v-766h-203z" />
    <glyph glyph-name="gcircumflex" unicode="&#x11d;" horiz-adv-x="1251" 
d="M614 1712l-165 -244h-236l305 426h193l305 -426h-234zM604 -535q-222 0 -340 37q-114 34 -162.5 94.5t-48.5 149.5q0 200 269 262q-230 33 -230 219q0 88 65.5 149t184.5 91q-233 76 -233 313v4q0 166 115.5 272t344.5 130l60 8q105 13 145 20q46 7 62 34.5t16 94.5v31
h311v-14q0 -123 -70.5 -168.5t-248.5 -50.5q155 -24 239 -115.5t84 -226.5v-8q0 -188 -141 -295t-391 -107h-19q-116 0 -184 -10q-61 -10 -83.5 -28.5t-22.5 -49.5q0 -41 46 -59t150 -17h240q241 0 357 -89t116 -253q0 -195 -154 -306.5t-454 -111.5h-23zM635 580
q264 0 264 208v7q0 116 -70.5 167.5t-189.5 51.5q-115 0 -186.5 -56t-71.5 -165v-7q0 -101 66 -153.5t188 -52.5zM629 -313q175 0 265.5 50.5t90.5 131.5q0 64 -54.5 97.5t-178.5 33.5h-222q-105 -10 -159 -53t-54 -107v-4q0 -61 66 -105t195 -44h51z" />
    <glyph glyph-name="Gbreve" unicode="&#x11e;" horiz-adv-x="1435" 
d="M725 1651q-161 0 -250 53q-86 53 -123 149t-37 238h195q0 -128 51.5 -191.5t165.5 -64.5q114 1 165.5 64.5t51.5 191.5h199q0 -440 -418 -440zM1098 346q-22 -105 -74 -190q-122 -187 -383 -187q-551 0 -551 680v142q0 344 167.5 520t471.5 176q272 0 423 -139t163 -394
h-281q-3 78 -37 148q-68 145 -272 145q-185 0 -272.5 -114.5t-87.5 -352.5v-121q-1 -234 84 -341t268 -107q116 0 184 45q68 42 101.5 116t35.5 163h-356v231h639v-766h-203z" />
    <glyph glyph-name="gbreve" unicode="&#x11f;" horiz-adv-x="1251" 
d="M610 1411q-161 0 -250 53q-86 53 -122.5 149t-36.5 238h194q0 -128 51.5 -191.5t165.5 -64.5q114 1 165.5 64.5t51.5 191.5h199q0 -440 -418 -440zM604 -535q-222 0 -340 37q-114 34 -162.5 94.5t-48.5 149.5q0 200 269 262q-230 33 -230 219q0 88 65.5 149t184.5 91
q-233 76 -233 313v4q0 166 115.5 272t344.5 130l60 8q105 13 145 20q46 7 62 34.5t16 94.5v31h311v-14q0 -123 -70.5 -168.5t-248.5 -50.5q155 -24 239 -115.5t84 -226.5v-8q0 -188 -141 -295t-391 -107h-19q-116 0 -184 -10q-61 -10 -83.5 -28.5t-22.5 -49.5q0 -41 46 -59
t150 -17h240q241 0 357 -89t116 -253q0 -195 -154 -306.5t-454 -111.5h-23zM635 580q264 0 264 208v7q0 116 -70.5 167.5t-189.5 51.5q-115 0 -186.5 -56t-71.5 -165v-7q0 -101 66 -153.5t188 -52.5zM629 -313q175 0 265.5 50.5t90.5 131.5q0 64 -54.5 97.5t-178.5 33.5
h-222q-105 -10 -159 -53t-54 -107v-4q0 -61 66 -105t195 -44h51z" />
    <glyph glyph-name="Gdotaccent" unicode="&#x120;" horiz-adv-x="1435" 
d="M729 1649q-96 0 -135 38t-39 134q0 93 42.5 131.5t131.5 38.5q88 0 130 -39t42 -131q0 -91 -42 -131.5t-130 -40.5zM1098 346q-22 -105 -74 -190q-122 -187 -383 -187q-551 0 -551 680v142q0 344 167.5 520t471.5 176q272 0 423 -139t163 -394h-281q-3 78 -37 148
q-68 145 -272 145q-185 0 -272.5 -114.5t-87.5 -352.5v-121q-1 -234 84 -341t268 -107q116 0 184 45q68 42 101.5 116t35.5 163h-356v231h639v-766h-203z" />
    <glyph glyph-name="gdotaccent" unicode="&#x121;" horiz-adv-x="1251" 
d="M565 1403q-96 0 -135 38t-39 134q0 93 42.5 131.5t131.5 38.5q88 0 130 -39t42 -131q0 -91 -42 -131.5t-130 -40.5zM604 -535q-222 0 -340 37q-114 34 -162.5 94.5t-48.5 149.5q0 200 269 262q-230 33 -230 219q0 88 65.5 149t184.5 91q-233 76 -233 313v4
q0 166 115.5 272t344.5 130l60 8q105 13 145 20q46 7 62 34.5t16 94.5v31h311v-14q0 -123 -70.5 -168.5t-248.5 -50.5q155 -24 239 -115.5t84 -226.5v-8q0 -188 -141 -295t-391 -107h-19q-116 0 -184 -10q-61 -10 -83.5 -28.5t-22.5 -49.5q0 -41 46 -59t150 -17h240
q241 0 357 -89t116 -253q0 -195 -154 -306.5t-454 -111.5h-23zM635 580q264 0 264 208v7q0 116 -70.5 167.5t-189.5 51.5q-115 0 -186.5 -56t-71.5 -165v-7q0 -101 66 -153.5t188 -52.5zM629 -313q175 0 265.5 50.5t90.5 131.5q0 64 -54.5 97.5t-178.5 33.5h-222
q-105 -10 -159 -53t-54 -107v-4q0 -61 66 -105t195 -44h51z" />
    <glyph glyph-name="uni0122" unicode="&#x122;" horiz-adv-x="1435" 
d="M1098 346q-22 -105 -74 -190q-122 -187 -383 -187q-551 0 -551 680v142q0 344 167.5 520t471.5 176q272 0 423 -139t163 -394h-281q-3 78 -37 148q-68 145 -272 145q-185 0 -272.5 -114.5t-87.5 -352.5v-121q-1 -234 84 -341t268 -107q116 0 184 45q68 42 101.5 116
t35.5 163h-356v231h639v-766h-203zM580 -582q60 10 89.5 46t37.5 102q-6 -2 -23 -2q-74 0 -102.5 27t-28.5 112q0 83 36.5 116.5t121.5 33.5q87 0 122 -45t35 -158q0 -152 -72.5 -249.5t-215.5 -117.5v135z" />
    <glyph glyph-name="uni0123" unicode="&#x123;" horiz-adv-x="1251" 
d="M598 1378q-87 0 -122.5 45t-35.5 158q0 152 73 249.5t216 117.5v-136q-60 -10 -89.5 -45.5t-37.5 -101.5q6 2 23 2q76 0 103.5 -26.5t27.5 -112.5q0 -84 -36 -117t-122 -33zM604 -535q-222 0 -340 37q-114 34 -162.5 94.5t-48.5 149.5q0 200 269 262q-230 33 -230 219
q0 88 65.5 149t184.5 91q-233 76 -233 313v4q0 166 115.5 272t344.5 130l60 8q105 13 145 20q46 7 62 34.5t16 94.5v31h311v-14q0 -123 -70.5 -168.5t-248.5 -50.5q155 -24 239 -115.5t84 -226.5v-8q0 -188 -141 -295t-391 -107h-19q-116 0 -184 -10q-61 -10 -83.5 -28.5
t-22.5 -49.5q0 -41 46 -59t150 -17h240q241 0 357 -89t116 -253q0 -195 -154 -306.5t-454 -111.5h-23zM635 580q264 0 264 208v7q0 116 -70.5 167.5t-189.5 51.5q-115 0 -186.5 -56t-71.5 -165v-7q0 -101 66 -153.5t188 -52.5zM629 -313q175 0 265.5 50.5t90.5 131.5
q0 64 -54.5 97.5t-178.5 33.5h-222q-105 -10 -159 -53t-54 -107v-4q0 -61 66 -105t195 -44h51z" />
    <glyph glyph-name="Hcircumflex" unicode="&#x124;" horiz-adv-x="1439" 
d="M723 1839l-166 -244h-235l305 426h192l305 -426h-233zM1032 602h-622v-602h-269v1460h269v-602h622v602h266v-1460h-266v602z" />
    <glyph glyph-name="hcircumflex" unicode="&#x125;" horiz-adv-x="1329" 
d="M260 1921l-166 -244h-235l305 426h192l306 -426h-234zM391 0h-258v1577h258v-604q55 110 155 171.5t236 61.5q210 0 318 -124.5t108 -348.5v-733h-270v659q0 314 -260 314q-138 0 -212.5 -97.5t-74.5 -259.5v-616z" />
    <glyph glyph-name="Hbar" unicode="&#x126;" horiz-adv-x="1521" 
d="M1073 520h-622v-520h-269v956h-188v222h188v282h269v-282h622v282h266v-282h189v-222h-189v-956h-266v520zM1073 956h-622v-206h622v206z" />
    <glyph glyph-name="hbar" unicode="&#x127;" horiz-adv-x="1329" 
d="M391 0h-258v1253h-160v140h160v184h258v-184h178v-140h-178v-280q55 110 155 171.5t236 61.5q210 0 318 -124.5t108 -348.5v-733h-270v659q0 314 -260 314q-138 0 -212.5 -97.5t-74.5 -259.5v-616z" />
    <glyph glyph-name="Itilde" unicode="&#x128;" horiz-adv-x="960" 
d="M39 1628q0 328 262 328q89 0 199 -70q34 -24 52 -35t46 -22.5t51 -11.5q49 0 67.5 28.5t20.5 100.5h181q0 -162 -60 -245t-207 -83q-110 0 -198 70q-34 23 -51.5 34t-46 22t-54.5 11q-42 0 -61 -30t-21 -97h-180zM82 0v250h270v971h-270v239h797v-239h-271v-971h271v-250
h-797z" />
    <glyph glyph-name="itilde" unicode="&#x129;" horiz-adv-x="536" 
d="M-170 1346q0 327 262 327q91 0 199 -69q36 -25 52.5 -35.5t45 -22.5t51.5 -12q49 0 67.5 28.5t20.5 100.5h181q0 -162 -60 -245t-207 -83q-110 0 -198 70q-36 24 -52 34.5t-45 22t-55 11.5q-42 0 -61 -30t-21 -97h-180zM133 0v1178h273v-1178h-273z" />
    <glyph glyph-name="Imacron" unicode="&#x12a;" horiz-adv-x="960" 
d="M150 1827h675v-199h-675v199zM82 0v250h270v971h-270v239h797v-239h-271v-971h271v-250h-797z" />
    <glyph glyph-name="imacron" unicode="&#x12b;" horiz-adv-x="536" 
d="M-59 1544h675v-198h-675v198zM133 0v1178h273v-1178h-273z" />
    <glyph glyph-name="Ibreve" unicode="&#x12c;" horiz-adv-x="960" 
d="M477 1624q-161 0 -250 53q-86 53 -122.5 149t-36.5 238h194q0 -128 51.5 -191.5t165.5 -64.5q114 1 165.5 64.5t51.5 191.5h199q0 -440 -418 -440zM82 0v250h270v971h-270v239h797v-239h-271v-971h271v-250h-797z" />
    <glyph glyph-name="ibreve" unicode="&#x12d;" horiz-adv-x="536" 
d="M268 1341q-159 0 -250 54q-86 53 -122.5 149t-36.5 238h194q0 -128 51.5 -191.5t165.5 -64.5q114 1 165.5 64.5t51.5 191.5h199q0 -441 -418 -441zM133 0v1178h273v-1178h-273z" />
    <glyph glyph-name="Iogonek" unicode="&#x12e;" horiz-adv-x="960" 
d="M1096 -258q-98 -256 -385 -256q-149 0 -231.5 60t-82.5 178q0 76 36 142.5t132 133.5h-483v250h270v971h-270v239h797v-239h-271v-971h271v-250q-48 -29 -164 -109q-58 -42 -81.5 -76t-23.5 -71q0 -42 31.5 -66t85.5 -24q46 0 80.5 25t48.5 63h240z" />
    <glyph glyph-name="iogonek" unicode="&#x12f;" horiz-adv-x="536" 
d="M272 1305q-98 0 -138 39t-40 139q0 96 43 136t135 40t135.5 -40t43.5 -136q0 -94 -43.5 -136t-135.5 -42zM623 -258q-98 -256 -385 -256q-149 0 -231.5 60t-82.5 178q0 83 44.5 156t164.5 147v1151h273v-1178q-48 -29 -164 -109q-58 -42 -81.5 -76t-23.5 -71
q0 -42 31.5 -66t85.5 -24q46 0 80.5 25t48.5 63h240z" />
    <glyph glyph-name="Idotaccent" unicode="&#x130;" horiz-adv-x="960" 
d="M481 1622q-96 0 -135 38t-39 134q0 93 42.5 131.5t131.5 38.5q88 0 130 -39t42 -131q0 -91 -42 -131.5t-130 -40.5zM82 0v250h270v971h-270v239h797v-239h-271v-971h271v-250h-797z" />
    <glyph glyph-name="dotlessi" unicode="&#x131;" horiz-adv-x="536" 
d="M133 0v1178h273v-1178h-273z" />
    <glyph glyph-name="IJ" unicode="&#x132;" horiz-adv-x="1630" 
d="M82 0v250h270v971h-270v239h797v-239h-271v-971h291v-250h-817zM1028 250h21q87 0 122 14q35 11 45.5 57t10.5 156v983h278v-993q0 -159 -17 -248t-63 -137q-48 -46 -135.5 -64t-240.5 -18h-21v250z" />
    <glyph glyph-name="ij" unicode="&#x133;" horiz-adv-x="1130" 
d="M270 1305q-98 0 -138 39t-40 139q0 96 43 136t135 40t135.5 -40t43.5 -136q0 -94 -43.5 -136t-135.5 -42zM860 1305q-98 0 -138 39t-40 139q0 96 43 136t135 40t135 -40t43 -136q0 -94 -43 -136t-135 -42zM131 0v1178h272v-1178h-272zM401 -483v250h140q77 0 118 12
q40 13 54 55.5t14 142.5v1201h262v-1233q0 -135 -18 -216.5t-64 -127.5q-84 -84 -340 -84h-166z" />
    <glyph glyph-name="Jcircumflex" unicode="&#x134;" horiz-adv-x="1204" 
d="M944 1872l-166 -244h-235l305 426h192l306 -426h-234zM561 -31q-244 0 -376.5 127t-139.5 379v8h279v-12q8 -123 63 -182.5t174 -59.5q130 0 185 73t55 257v901h278v-911q0 -580 -518 -580z" />
    <glyph glyph-name="jcircumflex" unicode="&#x135;" horiz-adv-x="530" 
d="M270 1589l-166 -243h-235l305 426h193l305 -426h-234zM-109 -233h60q79 0 119 12q40 13 53.5 55.5t13.5 142.5v1201h262v-1233q0 -135 -18 -216.5t-64 -127.5q-84 -84 -340 -84h-86v250z" />
    <glyph glyph-name="uni0136" unicode="&#x136;" horiz-adv-x="1353" 
d="M662 754l-254 -287v-467h-267v1460h267v-676l596 676h331l-483 -532l518 -928h-301zM598 -528q60 10 89.5 45.5t37.5 101.5q-6 -2 -23 -2q-74 0 -102.5 27t-28.5 112q0 83 36.5 116.5t121.5 33.5q87 0 122.5 -45t35.5 -158q0 -152 -73 -249.5t-216 -117.5v136z" />
    <glyph glyph-name="uni0137" unicode="&#x137;" horiz-adv-x="1265" 
d="M625 573l-234 -249v-324h-258v1577h258v-975l45 55l484 521h333l-430 -455l443 -723h-305zM541 -537q60 10 89.5 46t37.5 102q-6 -2 -23 -2q-74 0 -102.5 27t-28.5 112q0 83 36.5 116.5t121.5 33.5q87 0 122 -45t35 -158q0 -152 -72.5 -249.5t-215.5 -117.5v135z" />
    <glyph glyph-name="kgreenlandic" unicode="&#x138;" horiz-adv-x="1265" 
d="M625 573l-234 -249v-324h-258v1178h258v-576l45 55l484 521h333l-430 -455l443 -723h-305z" />
    <glyph glyph-name="Lacute" unicode="&#x139;" horiz-adv-x="1165" 
d="M473 2054h293l-379 -426h-211zM141 0v1460h271v-1208h704v-252h-975z" />
    <glyph glyph-name="lacute" unicode="&#x13a;" horiz-adv-x="534" 
d="M463 2148h293l-379 -426h-211zM133 0v1577h268v-1577h-268z" />
    <glyph glyph-name="uni013B" unicode="&#x13b;" horiz-adv-x="1165" 
d="M141 0v1460h271v-1208h704v-252h-975zM516 -553q60 10 89.5 45.5t37.5 101.5q-6 -2 -22 -2q-74 0 -103 27t-29 113q0 83 36.5 116t121.5 33q87 0 122.5 -45t35.5 -158q0 -151 -73 -248.5t-216 -117.5v135z" />
    <glyph glyph-name="uni013C" unicode="&#x13c;" horiz-adv-x="534" 
d="M133 0v1577h268v-1577h-268zM145 -553q60 10 89.5 45.5t37.5 101.5q-6 -2 -22 -2q-74 0 -102.5 27t-28.5 113q0 83 36 116t121 33q87 0 122.5 -45t35.5 -158q0 -151 -73 -248.5t-216 -117.5v135z" />
    <glyph glyph-name="Lcaron" unicode="&#x13d;" horiz-adv-x="1165" 
d="M979 1741h233l-139 -391h-176zM141 0v1460h271v-1208h704v-252h-975z" />
    <glyph glyph-name="lcaron" unicode="&#x13e;" horiz-adv-x="534" 
d="M616 1778h234l-139 -392h-176zM133 0v1577h268v-1577h-268z" />
    <glyph glyph-name="Ldot" unicode="&#x13f;" horiz-adv-x="1165" 
d="M141 0v1460h271v-1208h704v-252h-975zM961 551q-96 0 -135.5 38t-39.5 134q0 92 43 131t132 39q88 0 130 -39t42 -131q0 -91 -42 -131.5t-130 -40.5z" />
    <glyph glyph-name="ldot" unicode="&#x140;" horiz-adv-x="534" 
d="M133 0v1577h268v-1577h-268zM739 453q-96 0 -135 38t-39 134q0 93 42.5 131.5t131.5 38.5q88 0 130 -39t42 -131q0 -91 -42 -131.5t-130 -40.5z" />
    <glyph glyph-name="Lslash" unicode="&#x141;" horiz-adv-x="1206" 
d="M182 0v616l-155 -53l-66 211l221 76v610h271v-518l325 111l66 -213l-391 -133v-455h704v-252h-975z" />
    <glyph glyph-name="lslash" unicode="&#x142;" horiz-adv-x="575" 
d="M154 0v549l-142 -37l-35 141l177 45v879h268v-811l141 37l35 -141l-176 -46v-616h-268z" />
    <glyph glyph-name="Nacute" unicode="&#x143;" horiz-adv-x="1447" 
d="M956 2017h293l-379 -426h-211zM395 0h-254v1460h256l625 -987l39 -96l-8 104v979h254v-1460h-248l-633 999l-41 97l10 -103v-993z" />
    <glyph glyph-name="nacute" unicode="&#x144;" horiz-adv-x="1337" 
d="M860 1786h293l-379 -426h-211zM399 0h-270v1178h227l25 -236q49 125 150 194.5t249 69.5q210 0 323.5 -128.5t113.5 -352.5v-725h-271v659q0 154 -58 234t-196 80q-147 0 -220 -95t-73 -264v-614z" />
    <glyph glyph-name="uni0145" unicode="&#x145;" horiz-adv-x="1447" 
d="M395 0h-254v1460h256l625 -987l39 -96l-8 104v979h254v-1460h-248l-633 999l-41 97l10 -103v-993zM596 -526q60 10 89.5 45.5t37.5 101.5q-6 -2 -23 -2q-74 0 -102.5 27t-28.5 112q0 83 36.5 116.5t121.5 33.5q87 0 122.5 -45t35.5 -158q0 -152 -73 -249.5t-216 -117.5
v136z" />
    <glyph glyph-name="uni0146" unicode="&#x146;" horiz-adv-x="1337" 
d="M399 0h-270v1178h227l25 -236q49 125 150 194.5t249 69.5q210 0 323.5 -128.5t113.5 -352.5v-725h-271v659q0 154 -58 234t-196 80q-147 0 -220 -95t-73 -264v-614zM547 -543q60 10 89.5 46t37.5 102q-6 -2 -23 -2q-74 0 -102.5 27t-28.5 112q0 83 36.5 116t121.5 33
q87 0 122.5 -44.5t35.5 -157.5q0 -152 -73 -249.5t-216 -117.5v135z" />
    <glyph glyph-name="Ncaron" unicode="&#x147;" horiz-adv-x="1447" 
d="M664 1591l-306 426h236l166 -239l168 239h231l-303 -426h-192zM395 0h-254v1460h256l625 -987l39 -96l-8 104v979h254v-1460h-248l-633 999l-41 97l10 -103v-993z" />
    <glyph glyph-name="ncaron" unicode="&#x148;" horiz-adv-x="1337" 
d="M567 1360l-305 426h236l166 -240l167 240h232l-303 -426h-193zM399 0h-270v1178h227l25 -236q49 125 150 194.5t249 69.5q210 0 323.5 -128.5t113.5 -352.5v-725h-271v659q0 154 -58 234t-196 80q-147 0 -220 -95t-73 -264v-614z" />
    <glyph glyph-name="Eng" unicode="&#x14a;" horiz-adv-x="1488" 
d="M840 -483v250h59q79 0 119 12q40 13 53.5 55.5t13.5 142.5v43l-663 979l-35 68l8 -74v-993h-254v1460h256l670 -987l35 -67l-8 75v979h254v-1515q0 -135 -18 -216.5t-64 -127.5q-84 -84 -340 -84h-86z" />
    <glyph glyph-name="eng" unicode="&#x14b;" horiz-adv-x="1333" 
d="M700 -483v250h60q79 0 119 12q40 13 53.5 55.5t13.5 142.5v682q0 154 -58 234t-196 80q-147 0 -220 -95t-73 -264v-614h-270v1178h227l25 -236q49 125 150 194.5t249 69.5q210 0 321 -128.5t111 -352.5v-780q0 -184 -34 -264q-34 -93 -123 -128.5t-269 -35.5h-86z" />
    <glyph glyph-name="Omacron" unicode="&#x14c;" horiz-adv-x="1439" 
d="M387 1853h676v-198h-676v198zM717 -31q-627 0 -627 695v122q0 224 78 383q77 157 218.5 237.5t332.5 80.5q192 0 332 -80q144 -81 221.5 -238t77.5 -383v-122q0 -345 -167 -520t-466 -175zM719 215q176 0 264 116.5t88 342.5v100q0 471 -352 471q-350 0 -350 -469v-102
q0 -459 350 -459z" />
    <glyph glyph-name="omacron" unicode="&#x14d;" horiz-adv-x="1339" 
d="M338 1573h676v-199h-676v199zM670 -31q-286 0 -440 154t-154 442v31q0 196 78 334q76 135 209 205.5t307 70.5q179 0 307 -71q138 -73 212.5 -210t74.5 -329v-31q0 -190 -74 -323q-77 -134 -209 -203.5t-311 -69.5zM670 205q153 0 237 95t84 269v27q0 180 -85.5 280.5
t-233.5 100.5t-235 -98.5t-87 -282.5v-27q0 -174 84.5 -269t235.5 -95z" />
    <glyph glyph-name="Obreve" unicode="&#x14e;" horiz-adv-x="1439" 
d="M715 1651q-161 0 -250 53q-86 53 -123 149t-37 238h195q0 -128 51.5 -191.5t165.5 -64.5q114 1 165.5 64.5t51.5 191.5h199q0 -440 -418 -440zM717 -31q-627 0 -627 695v122q0 224 78 383q77 157 218.5 237.5t332.5 80.5q192 0 332 -80q144 -81 221.5 -238t77.5 -383
v-122q0 -345 -167 -520t-466 -175zM719 215q176 0 264 116.5t88 342.5v100q0 471 -352 471q-350 0 -350 -469v-102q0 -459 350 -459z" />
    <glyph glyph-name="obreve" unicode="&#x14f;" horiz-adv-x="1339" 
d="M666 1370q-161 0 -250 53q-86 53 -123 149t-37 238h195q0 -128 51.5 -191.5t165.5 -64.5q114 1 165.5 64.5t51.5 191.5h198q0 -440 -417 -440zM670 -31q-286 0 -440 154t-154 442v31q0 196 78 334q76 135 209 205.5t307 70.5q179 0 307 -71q138 -73 212.5 -210t74.5 -329
v-31q0 -190 -74 -323q-77 -134 -209 -203.5t-311 -69.5zM670 205q153 0 237 95t84 269v27q0 180 -85.5 280.5t-233.5 100.5t-235 -98.5t-87 -282.5v-27q0 -174 84.5 -269t235.5 -95z" />
    <glyph glyph-name="Ohungarumlaut" unicode="&#x150;" horiz-adv-x="1439" 
d="M621 1655h-193l295 426h276zM1018 1655h-195l297 426h277zM717 -31q-627 0 -627 695v122q0 224 78 383q77 157 218.5 237.5t332.5 80.5q192 0 332 -80q144 -81 221.5 -238t77.5 -383v-122q0 -345 -167 -520t-466 -175zM719 215q176 0 264 116.5t88 342.5v100
q0 471 -352 471q-350 0 -350 -469v-102q0 -459 350 -459z" />
    <glyph glyph-name="ohungarumlaut" unicode="&#x151;" horiz-adv-x="1339" 
d="M571 1374h-192l295 426h276zM969 1374h-195l297 426h277zM670 -31q-286 0 -440 154t-154 442v31q0 196 78 334q76 135 209 205.5t307 70.5q179 0 307 -71q138 -73 212.5 -210t74.5 -329v-31q0 -190 -74 -323q-77 -134 -209 -203.5t-311 -69.5zM670 205q153 0 237 95
t84 269v27q0 180 -85.5 280.5t-233.5 100.5t-235 -98.5t-87 -282.5v-27q0 -174 84.5 -269t235.5 -95z" />
    <glyph glyph-name="OE" unicode="&#x152;" horiz-adv-x="2170" 
d="M1067 111q-112 -142 -367 -142q-181 0 -321 76q-289 154 -289 621v116q0 223 78 385q76 157 210.5 238.5t315.5 81.5q135 0 225 -34t148 -110v117h1001v-231h-741v-375h629v-233h-629v-381h776v-240h-1036v111zM719 215q176 0 264 117.5t88 343.5v94q0 234 -88 354.5
t-264 120.5q-177 0 -263.5 -121.5t-86.5 -351.5v-96q0 -461 350 -461z" />
    <glyph glyph-name="oe" unicode="&#x153;" horiz-adv-x="2238" 
d="M2148 348q-52 -183 -195.5 -281t-371.5 -98q-329 0 -465 207q-136 -207 -446 -207q-286 0 -440 154t-154 442v31q0 196 78 334q76 135 209 205.5t307 70.5q153 0 269 -55.5t183 -163.5q73 106 192 162.5t275 56.5q290 0 441 -182q135 -162 135 -410v-125h-908
q17 -145 102.5 -222t231.5 -77q205 0 269 158h288zM1591 993q-138 0 -223 -76t-108 -217h636q-14 139 -90.5 216t-214.5 77zM670 205q153 0 237 95t84 269v27q0 180 -85.5 280.5t-233.5 100.5t-235 -98.5t-87 -282.5v-27q0 -174 84.5 -269t235.5 -95z" />
    <glyph glyph-name="Racute" unicode="&#x154;" horiz-adv-x="1361" 
d="M866 2054h293l-379 -426h-211zM408 530v-530h-267v1460h570q287 0 422 -115t135 -325q0 -280 -250 -365q112 -36 164.5 -119.5t52.5 -236.5v-221q0 -55 33 -78h-285q-29 23 -29 82v213q0 128 -59.5 181.5t-204.5 53.5h-282zM408 1231v-469h292q140 0 216.5 61.5
t76.5 177.5q0 230 -288 230h-297z" />
    <glyph glyph-name="racute" unicode="&#x155;" horiz-adv-x="880" 
d="M672 1751h293l-379 -426h-211zM129 0v1178h217l35 -277q35 147 130 217t261 70h80v-273h-117q-142 0 -213 -36q-71 -34 -100 -112.5t-29 -221.5v-545h-264z" />
    <glyph glyph-name="uni0156" unicode="&#x156;" horiz-adv-x="1361" 
d="M408 530v-530h-267v1460h570q287 0 422 -115t135 -325q0 -280 -250 -365q112 -36 164.5 -119.5t52.5 -236.5v-221q0 -55 33 -78h-285q-29 23 -29 82v213q0 128 -59.5 181.5t-204.5 53.5h-282zM408 1231v-469h292q140 0 216.5 61.5t76.5 177.5q0 230 -288 230h-297z
M565 -532q60 10 89.5 45.5t37.5 101.5q-6 -2 -22 -2q-74 0 -102.5 27t-28.5 112q0 83 36 116.5t121 33.5q87 0 122.5 -45t35.5 -158q0 -152 -73 -249.5t-216 -117.5v136z" />
    <glyph glyph-name="uni0157" unicode="&#x157;" horiz-adv-x="880" 
d="M129 0v1178h217l35 -277q35 147 130 217t261 70h80v-273h-117q-142 0 -213 -36q-71 -34 -100 -112.5t-29 -221.5v-545h-264zM135 -553q60 10 89.5 45.5t37.5 101.5q-6 -2 -22 -2q-74 0 -102.5 27t-28.5 113q0 83 36 116t121 33q87 0 122.5 -45t35.5 -158
q0 -151 -73 -248.5t-216 -117.5v135z" />
    <glyph glyph-name="Rcaron" unicode="&#x158;" horiz-adv-x="1361" 
d="M573 1628l-305 426h236l166 -239l168 239h231l-303 -426h-193zM408 530v-530h-267v1460h570q287 0 422 -115t135 -325q0 -280 -250 -365q112 -36 164.5 -119.5t52.5 -236.5v-221q0 -55 33 -78h-285q-29 23 -29 82v213q0 128 -59.5 181.5t-204.5 53.5h-282zM408 1231v-469
h292q140 0 216.5 61.5t76.5 177.5q0 230 -288 230h-297z" />
    <glyph glyph-name="rcaron" unicode="&#x159;" horiz-adv-x="880" 
d="M379 1325l-305 426h235l166 -240l168 240h231l-303 -426h-192zM129 0v1178h217l35 -277q35 147 130 217t261 70h80v-273h-117q-142 0 -213 -36q-71 -34 -100 -112.5t-29 -221.5v-545h-264z" />
    <glyph glyph-name="Sacute" unicode="&#x15a;" horiz-adv-x="1259" 
d="M799 2081h293l-379 -426h-211zM649 -31q-220 0 -354 64q-130 60 -192 177t-68 296h287q5 -154 84 -227.5t247 -73.5q140 0 211.5 60t71.5 155q0 82 -51 121q-34 26 -90 46.5t-102 31t-128 26.5q-221 48 -325 111q-154 97 -154 313q0 108 55 207q130 211 465 211
q282 0 421 -122t147 -349h-279q-8 128 -75.5 187t-217.5 59q-126 0 -186 -53t-60 -136q0 -74 50 -112q33 -24 88 -44t95 -29.5t126 -27.5q225 -46 334 -115q155 -97 155 -319q0 -122 -61 -229q-67 -107 -192 -167.5t-302 -60.5z" />
    <glyph glyph-name="sacute" unicode="&#x15b;" horiz-adv-x="1177" 
d="M766 1800h293l-379 -426h-211zM608 -31q-267 0 -406.5 105.5t-166.5 314.5h291q18 -102 88.5 -148t199.5 -46q240 0 240 151q0 56 -45 82q-60 36 -274 66q-67 10 -109 18t-98 24.5t-97 38.5q-143 76 -143 259q0 169 124.5 270.5t360.5 101.5q472 0 525 -381h-275
q-13 86 -74 126t-178 40q-219 0 -219 -141q0 -56 45 -82q28 -16 77 -29.5t87.5 -20t112.5 -16.5q67 -10 109 -18t97.5 -24.5t96.5 -38.5q143 -76 143 -259q0 -178 -130 -285.5t-382 -107.5z" />
    <glyph glyph-name="Scircumflex" unicode="&#x15c;" horiz-adv-x="1259" 
d="M606 1898l-166 -243h-235l305 426h192l306 -426h-234zM649 -31q-220 0 -354 64q-130 60 -192 177t-68 296h287q5 -154 84 -227.5t247 -73.5q140 0 211.5 60t71.5 155q0 82 -51 121q-34 26 -90 46.5t-102 31t-128 26.5q-221 48 -325 111q-154 97 -154 313q0 108 55 207
q130 211 465 211q282 0 421 -122t147 -349h-279q-8 128 -75.5 187t-217.5 59q-126 0 -186 -53t-60 -136q0 -74 50 -112q33 -24 88 -44t95 -29.5t126 -27.5q225 -46 334 -115q155 -97 155 -319q0 -122 -61 -229q-67 -107 -192 -167.5t-302 -60.5z" />
    <glyph glyph-name="scircumflex" unicode="&#x15d;" horiz-adv-x="1177" 
d="M573 1618l-165 -244h-236l305 426h193l305 -426h-234zM608 -31q-267 0 -406.5 105.5t-166.5 314.5h291q18 -102 88.5 -148t199.5 -46q240 0 240 151q0 56 -45 82q-60 36 -274 66q-67 10 -109 18t-98 24.5t-97 38.5q-143 76 -143 259q0 169 124.5 270.5t360.5 101.5
q472 0 525 -381h-275q-13 86 -74 126t-178 40q-219 0 -219 -141q0 -56 45 -82q28 -16 77 -29.5t87.5 -20t112.5 -16.5q67 -10 109 -18t97.5 -24.5t96.5 -38.5q143 -76 143 -259q0 -178 -130 -285.5t-382 -107.5z" />
    <glyph glyph-name="uni015E" unicode="&#x15e;" horiz-adv-x="1259" 
d="M684 -653q-143 0 -223 35q-81 31 -125 92t-62 153h240q6 -55 50.5 -85.5t117.5 -30.5q75 0 113.5 27t38.5 75q0 88 -164 88h-117v272q-179 12 -297 80q-110 64 -162.5 176.5t-58.5 276.5h287q5 -154 84 -227.5t247 -73.5q140 0 211.5 60t71.5 155q0 82 -51 121
q-34 26 -90 46.5t-102 31t-128 26.5q-221 48 -325 111q-154 97 -154 313q0 108 55 207q130 211 465 211q282 0 421 -122t147 -349h-279q-8 128 -75.5 187t-217.5 59q-126 0 -186 -53t-60 -136q0 -74 50 -112q33 -24 88 -44t95 -29.5t126 -27.5q225 -46 334 -115
q155 -97 155 -319q0 -115 -51 -211q-52 -99 -156.5 -162t-253.5 -80v-125q148 -1 223.5 -62.5t75.5 -166.5q0 -129 -93 -200.5t-265 -71.5z" />
    <glyph glyph-name="uni015F" unicode="&#x15f;" horiz-adv-x="1177" 
d="M645 -653q-143 0 -223 35q-81 31 -124.5 92t-61.5 153h239q6 -55 50.5 -85.5t117.5 -30.5q75 0 113.5 27t38.5 75q0 88 -164 88h-117v272q-221 19 -338 122.5t-141 293.5h291q18 -102 88.5 -148t199.5 -46q240 0 240 151q0 56 -45 82q-60 36 -274 66q-67 10 -109 18
t-98 24.5t-97 38.5q-143 76 -143 259q0 169 124.5 270.5t360.5 101.5q472 0 525 -381h-275q-13 86 -74 126t-178 40q-219 0 -219 -141q0 -56 45 -82q28 -16 77 -29.5t87.5 -20t112.5 -16.5q67 -10 109 -18t97.5 -24.5t96.5 -38.5q143 -76 143 -259q0 -160 -105 -264.5
t-310 -124.5v-125q148 -1 223.5 -62.5t75.5 -166.5q0 -128 -93.5 -200t-265.5 -72z" />
    <glyph glyph-name="Scaron" unicode="&#x160;" horiz-adv-x="1259" 
d="M506 1655l-305 426h235l166 -240l168 240h231l-303 -426h-192zM649 -31q-220 0 -354 64q-130 60 -192 177t-68 296h287q5 -154 84 -227.5t247 -73.5q140 0 211.5 60t71.5 155q0 82 -51 121q-34 26 -90 46.5t-102 31t-128 26.5q-221 48 -325 111q-154 97 -154 313
q0 108 55 207q130 211 465 211q282 0 421 -122t147 -349h-279q-8 128 -75.5 187t-217.5 59q-126 0 -186 -53t-60 -136q0 -74 50 -112q33 -24 88 -44t95 -29.5t126 -27.5q225 -46 334 -115q155 -97 155 -319q0 -122 -61 -229q-67 -107 -192 -167.5t-302 -60.5z" />
    <glyph glyph-name="scaron" unicode="&#x161;" horiz-adv-x="1177" 
d="M473 1374l-305 426h235l166 -239l168 239h232l-303 -426h-193zM608 -31q-267 0 -406.5 105.5t-166.5 314.5h291q18 -102 88.5 -148t199.5 -46q240 0 240 151q0 56 -45 82q-60 36 -274 66q-67 10 -109 18t-98 24.5t-97 38.5q-143 76 -143 259q0 169 124.5 270.5
t360.5 101.5q472 0 525 -381h-275q-13 86 -74 126t-178 40q-219 0 -219 -141q0 -56 45 -82q28 -16 77 -29.5t87.5 -20t112.5 -16.5q67 -10 109 -18t97.5 -24.5t96.5 -38.5q143 -76 143 -259q0 -178 -130 -285.5t-382 -107.5z" />
    <glyph glyph-name="uni0162" unicode="&#x162;" horiz-adv-x="1200" 
d="M729 1223v-1223h-272v1223h-402v237h1092v-237h-418zM471 -553q60 10 89.5 45.5t37.5 101.5q-6 -2 -23 -2q-74 0 -102.5 27t-28.5 113q0 83 36.5 116t121.5 33q87 0 122.5 -45t35.5 -158q0 -151 -73 -248.5t-216 -117.5v135z" />
    <glyph glyph-name="uni0163" unicode="&#x163;" horiz-adv-x="856" 
d="M801 0h-152q-163 0 -254 43q-87 43 -121 142.5t-34 285.5v469h-230v227h105q55 0 84 13q28 13 40 48.5t17 110.5q4 102 4 156h229v-317h312v-238h-312v-424q0 -108 17 -174q13 -56 59.5 -74t151.5 -18h84v-250zM389 -553q60 10 89.5 45.5t37.5 101.5q-6 -2 -22 -2
q-74 0 -103 27t-29 113q0 83 36.5 116t121.5 33q87 0 122.5 -45t35.5 -158q0 -151 -73 -248.5t-216 -117.5v135z" />
    <glyph glyph-name="Tcaron" unicode="&#x164;" horiz-adv-x="1200" 
d="M492 1628l-306 426h236l166 -239l168 239h231l-303 -426h-192zM729 1223v-1223h-272v1223h-402v237h1092v-237h-418z" />
    <glyph glyph-name="tcaron" unicode="&#x165;" horiz-adv-x="856" 
d="M795 1778h233l-139 -392h-176zM801 0h-152q-163 0 -254 43q-87 43 -121 142.5t-34 285.5v469h-230v227h105q55 0 84 13q28 13 40 48.5t17 110.5q4 102 4 156h229v-317h312v-238h-312v-424q0 -108 17 -174q13 -56 59.5 -74t151.5 -18h84v-250z" />
    <glyph glyph-name="Tbar" unicode="&#x166;" horiz-adv-x="1200" 
d="M729 627v-627h-272v627h-236v221h236v375h-402v237h1092v-237h-418v-375h236v-221h-236z" />
    <glyph glyph-name="tbar" unicode="&#x167;" horiz-adv-x="856" 
d="M801 0h-152q-163 0 -254 43q-87 43 -121 142.5t-34 285.5v25h-162v213h162v231h-230v227h105q55 0 84 13q28 13 40 48.5t17 110.5q4 102 4 156h229v-317h312v-238h-312v-231h183v-213h-183q0 -94 19 -160q17 -52 62.5 -69t146.5 -17h84v-250z" />
    <glyph glyph-name="Utilde" unicode="&#x168;" horiz-adv-x="1390" 
d="M262 1614q0 328 262 328q89 0 199 -70q36 -25 52.5 -35.5t45 -22.5t51.5 -12q49 0 68 29t21 100h180q0 -161 -59.5 -244t-207.5 -83q-111 0 -198 69q-36 24 -52 34.5t-45 22t-55 11.5q-42 0 -61 -30t-21 -97h-180zM696 -31q-293 0 -432 160.5t-139 503.5v827h278v-817
q0 -219 69.5 -316.5t225.5 -97.5t221.5 96.5t65.5 317.5v817h281v-827q0 -340 -143 -502t-427 -162z" />
    <glyph glyph-name="utilde" unicode="&#x169;" horiz-adv-x="1296" 
d="M199 1323q0 328 262 328q55 0 100.5 -18.5t97.5 -51.5q35 -24 52.5 -35t46 -23t51.5 -12q49 0 67.5 28.5t20.5 100.5h180q0 -162 -59.5 -244.5t-206.5 -82.5q-112 0 -199 69q-37 25 -52 35t-44 21.5t-55 11.5q-42 0 -61 -30t-21 -97h-180zM918 225
q-45 -119 -141.5 -184.5t-239.5 -65.5q-208 0 -312 124.5t-104 349.5v729h268v-656q0 -72 12 -126.5t39 -97.5t74.5 -65t114.5 -22q130 0 199 96t69 258v613h270v-1178h-225z" />
    <glyph glyph-name="Umacron" unicode="&#x16a;" horiz-adv-x="1390" 
d="M373 1812h676v-198h-676v198zM696 -31q-293 0 -432 160.5t-139 503.5v827h278v-817q0 -219 69.5 -316.5t225.5 -97.5t221.5 96.5t65.5 317.5v817h281v-827q0 -340 -143 -502t-427 -162z" />
    <glyph glyph-name="umacron" unicode="&#x16b;" horiz-adv-x="1296" 
d="M309 1522h676v-199h-676v199zM918 225q-45 -119 -141.5 -184.5t-239.5 -65.5q-208 0 -312 124.5t-104 349.5v729h268v-656q0 -72 12 -126.5t39 -97.5t74.5 -65t114.5 -22q130 0 199 96t69 258v613h270v-1178h-225z" />
    <glyph glyph-name="Ubreve" unicode="&#x16c;" horiz-adv-x="1390" 
d="M700 1610q-160 0 -249 53q-86 53 -123 149t-37 238h194q0 -128 51.5 -191.5t165.5 -64.5q114 1 166 64.5t52 191.5h198q0 -440 -418 -440zM696 -31q-293 0 -432 160.5t-139 503.5v827h278v-817q0 -219 69.5 -316.5t225.5 -97.5t221.5 96.5t65.5 317.5v817h281v-827
q0 -340 -143 -502t-427 -162z" />
    <glyph glyph-name="ubreve" unicode="&#x16d;" horiz-adv-x="1296" 
d="M637 1319q-161 0 -250 53q-86 53 -123 149t-37 238h195q0 -128 51.5 -191.5t165.5 -64.5q114 1 165.5 64.5t51.5 191.5h199q0 -440 -418 -440zM918 225q-45 -119 -141.5 -184.5t-239.5 -65.5q-208 0 -312 124.5t-104 349.5v729h268v-656q0 -72 12 -126.5t39 -97.5
t74.5 -65t114.5 -22q130 0 199 96t69 258v613h270v-1178h-225z" />
    <glyph glyph-name="Uring" unicode="&#x16e;" horiz-adv-x="1390" 
d="M696 1610q-136 0 -213 74.5t-77 211.5q0 134 78.5 212.5t211.5 78.5q139 0 218 -76.5t79 -214.5q0 -132 -79.5 -209t-217.5 -77zM696 1788q44 0 79.5 28.5t35.5 79.5q0 55 -30.5 86t-84.5 31q-50 0 -80 -31t-30 -86q0 -52 28 -80t82 -28zM696 -31q-293 0 -432 160.5
t-139 503.5v827h278v-817q0 -219 69.5 -316.5t225.5 -97.5t221.5 96.5t65.5 317.5v817h281v-827q0 -340 -143 -502t-427 -162z" />
    <glyph glyph-name="uring" unicode="&#x16f;" horiz-adv-x="1296" 
d="M633 1319q-136 0 -213.5 75t-77.5 212q0 134 79 212t212 78q139 0 218 -76t79 -214q0 -132 -79.5 -209.5t-217.5 -77.5zM633 1497q43 0 79 29t36 80q0 55 -30.5 85.5t-84.5 30.5q-50 0 -80.5 -30.5t-30.5 -85.5q0 -52 29 -80.5t82 -28.5zM918 225q-45 -119 -141.5 -184.5
t-239.5 -65.5q-208 0 -312 124.5t-104 349.5v729h268v-656q0 -72 12 -126.5t39 -97.5t74.5 -65t114.5 -22q130 0 199 96t69 258v613h270v-1178h-225z" />
    <glyph glyph-name="Uhungarumlaut" unicode="&#x170;" horiz-adv-x="1390" 
d="M606 1614h-192l295 426h276zM1004 1614h-195l297 426h276zM696 -31q-293 0 -432 160.5t-139 503.5v827h278v-817q0 -219 69.5 -316.5t225.5 -97.5t221.5 96.5t65.5 317.5v817h281v-827q0 -340 -143 -502t-427 -162z" />
    <glyph glyph-name="uhungarumlaut" unicode="&#x171;" horiz-adv-x="1296" 
d="M543 1323h-193l295 426h277zM940 1323h-195l297 426h277zM918 225q-45 -119 -141.5 -184.5t-239.5 -65.5q-208 0 -312 124.5t-104 349.5v729h268v-656q0 -72 12 -126.5t39 -97.5t74.5 -65t114.5 -22q130 0 199 96t69 258v613h270v-1178h-225z" />
    <glyph glyph-name="Uogonek" unicode="&#x172;" horiz-adv-x="1390" 
d="M801 -492q-149 0 -231.5 60t-82.5 178q0 64 23.5 118.5t85.5 110.5q-242 26 -356.5 185.5t-114.5 472.5v827h278v-817q0 -219 69.5 -316.5t225.5 -97.5t221.5 96.5t65.5 317.5v817h281v-827q0 -494 -310 -619q-104 -64 -155 -104q-55 -41 -78 -73.5t-23 -69.5
q0 -43 31.5 -67t85.5 -24q46 0 80.5 25t48.5 63h240q-98 -256 -385 -256z" />
    <glyph glyph-name="uogonek" unicode="&#x173;" horiz-adv-x="1296" 
d="M1384 -258q-98 -256 -385 -256q-149 0 -231 60t-82 178q0 40 19 106q41 110 231 221l-18 174q-45 -119 -141.5 -184.5t-239.5 -65.5q-208 0 -312 124.5t-104 349.5v729h268v-656q0 -72 12 -126.5t39 -97.5t74.5 -65t114.5 -22q130 0 199 96t69 258v613h270v-1178
q-40 -24 -163 -109q-58 -42 -81.5 -76t-23.5 -71q0 -42 31.5 -66t85.5 -24q46 0 80.5 25t48.5 63h239z" />
    <glyph glyph-name="Wcircumflex" unicode="&#x174;" horiz-adv-x="2019" 
d="M997 1872l-166 -244h-235l305 426h193l305 -426h-234zM991 1026l-350 -1026h-252l-356 1460h268l242 -1048l348 1048h205l348 -1073l272 1073h266l-393 -1460h-254z" />
    <glyph glyph-name="wcircumflex" unicode="&#x175;" horiz-adv-x="1781" 
d="M887 1589l-166 -243h-236l306 426h192l305 -426h-233zM881 784l-306 -784h-243l-318 1178h267l206 -838l310 838h176l287 -836l245 836h262l-366 -1178h-240z" />
    <glyph glyph-name="Ycircumflex" unicode="&#x176;" horiz-adv-x="1302" 
d="M641 1853l-166 -243h-235l305 426h192l305 -426h-233zM500 0v582l-486 878h295l336 -631l350 631h295l-512 -882v-578h-278z" />
    <glyph glyph-name="ycircumflex" unicode="&#x177;" horiz-adv-x="1220" 
d="M616 1575l-165 -244h-236l305 426h193l305 -426h-234zM61 -440v233h138q71 0 125 14q46 13 77 50.5t68 117.5l23 56l-488 1147h287l319 -797l11 -53l14 51l311 799h283l-516 -1246q-53 -128 -96.5 -200t-94.5 -109q-52 -37 -125 -50t-200 -13h-136z" />
    <glyph glyph-name="Ydieresis" unicode="&#x178;" horiz-adv-x="1302" 
d="M432 1604q-86 0 -121 33.5t-35 121.5q0 82 38.5 118t117.5 36q80 0 118 -35.5t38 -118.5q0 -82 -37.5 -118.5t-118.5 -36.5zM856 1604q-87 0 -121.5 33.5t-34.5 121.5q0 83 38 118.5t118 35.5t118 -35.5t38 -118.5q0 -82 -38 -118.5t-118 -36.5zM500 0v582l-486 878h295
l336 -631l350 631h295l-512 -882v-578h-278z" />
    <glyph glyph-name="Zacute" unicode="&#x179;" horiz-adv-x="1253" 
d="M838 2054h292l-378 -426h-211zM70 0v225l790 994h-741v241h1059v-243l-760 -965h762v-252h-1110z" />
    <glyph glyph-name="zacute" unicode="&#x17a;" horiz-adv-x="1148" 
d="M784 1772h293l-379 -426h-211zM57 0v203l707 751h-664v224h990v-213l-689 -738h693v-227h-1037z" />
    <glyph glyph-name="Zdotaccent" unicode="&#x17b;" horiz-adv-x="1253" 
d="M645 1622q-96 0 -135 38t-39 134q0 93 42.5 131.5t131.5 38.5q88 0 130 -39t42 -131q0 -91 -42 -131.5t-130 -40.5zM70 0v225l790 994h-741v241h1059v-243l-760 -965h762v-252h-1110z" />
    <glyph glyph-name="zdotaccent" unicode="&#x17c;" horiz-adv-x="1148" 
d="M592 1339q-96 0 -135 38t-39 134q0 93 42.5 131.5t131.5 38.5q88 0 130 -39t42 -131q0 -91 -42 -131.5t-130 -40.5zM57 0v203l707 751h-664v224h990v-213l-689 -738h693v-227h-1037z" />
    <glyph glyph-name="Zcaron" unicode="&#x17d;" horiz-adv-x="1253" 
d="M545 1628l-305 426h235l166 -239l168 239h231l-303 -426h-192zM70 0v225l790 994h-741v241h1059v-243l-760 -965h762v-252h-1110z" />
    <glyph glyph-name="zcaron" unicode="&#x17e;" horiz-adv-x="1148" 
d="M492 1346l-306 426h236l166 -240l168 240h231l-303 -426h-192zM57 0v203l707 751h-664v224h990v-213l-689 -738h693v-227h-1037z" />
    <glyph glyph-name="uni0192" unicode="&#x192;" horiz-adv-x="835" 
d="M539 104q0 -133 -18.5 -215.5t-61.5 -128.5q-84 -84 -338 -84h-148v250h121q75 0 119 13q40 13 54 56.5t14 143.5v514h-267v234h267v422q0 224 93 318.5t306 94.5h139v-221h-102q-73 0 -113 -16q-37 -17 -50 -63t-13 -146v-389h276v-234h-278v-549z" />
    <glyph glyph-name="Aringacute" unicode="&#x1fa;" horiz-adv-x="1382" 
d="M885 2421h293l-379 -426h-211zM291 0h-275l486 1337q-101 79 -101 232q0 134 79 212.5t212 78.5q139 0 218 -76.5t79 -214.5q0 -161 -117 -238l496 -1331h-272l-115 328h-580zM692 1460q43 0 79 29t36 80q0 55 -30.5 86t-84.5 31q-50 0 -80 -31t-30 -86q0 -52 28.5 -80.5
t81.5 -28.5zM477 555h424l-201 573l-14 80l-14 -80z" />
    <glyph glyph-name="aringacute" unicode="&#x1fb;" horiz-adv-x="1304" 
d="M862 2460h293l-379 -426h-211zM674 1341q-136 0 -213.5 75t-77.5 212q0 134 79 212.5t212 78.5q139 0 218 -76.5t79 -214.5q0 -132 -79.5 -209.5t-217.5 -77.5zM674 1520q43 0 78.5 28.5t35.5 79.5q0 55 -30 86t-84 31q-50 0 -80.5 -31t-30.5 -86q0 -51 28.5 -79.5
t82.5 -28.5zM938 236q-64 -123 -185 -195t-296 -72q-188 0 -286.5 84t-98.5 232q0 194 153 288q49 34 101 50q76 27 305 63q166 21 230.5 52t64.5 100q0 77 -58 118t-190 41q-279 0 -291 -235h-276q14 204 158.5 324t394.5 120q191 0 305 -51q215 -92 215 -360v-795h-217z
M549 176q115 0 201 53q84 53 131 134.5t47 168.5v64q-71 -51 -238 -76q-108 -17 -161.5 -32.5t-94.5 -41.5q-69 -46 -69 -122q0 -148 184 -148z" />
    <glyph glyph-name="AEacute" unicode="&#x1fc;" horiz-adv-x="2082" 
d="M1120 2054h293l-379 -426h-211zM1018 328h-580l-170 -328h-291l795 1460h1208v-231h-862l64 -375h686v-233h-647l65 -381h729v-240h-942zM557 555h422l-96 573v80l-29 -80z" />
    <glyph glyph-name="aeacute" unicode="&#x1fd;" horiz-adv-x="2179" 
d="M1280 1714h293l-379 -426h-211zM2089 348q-52 -183 -195.5 -281t-371.5 -98q-391 0 -531 283q-62 -130 -194.5 -206.5t-315.5 -76.5q-204 0 -306.5 86t-102.5 236q0 188 153 282q49 34 101 50q76 27 305 63q174 24 223 44q71 30 72 91q0 82 -67 131t-191 49
q-128 0 -203.5 -68t-81.5 -171h-272q14 207 154.5 325.5t400.5 118.5q165 0 265.5 -46.5t151.5 -139.5q157 186 447 186q289 0 440 -182q135 -162 135 -410v-125h-907q17 -145 102.5 -222t231.5 -77q204 0 268 158h289zM1532 993q-138 0 -223.5 -76t-108.5 -217h637
q-14 139 -90.5 216t-214.5 77zM549 176q115 0 201 53q84 53 131 134.5t47 168.5v56q-71 -51 -238 -76q-166 -27 -207 -41q-29 -10 -53 -25q-70 -46 -70 -122q0 -148 189 -148z" />
    <glyph glyph-name="Oslashacute" unicode="&#x1fe;" horiz-adv-x="1439" 
d="M911 2083h293l-379 -426h-211zM719 -31q-114 0 -213 27l-82 -180h-219l125 262q-240 173 -240 586v116q0 226 78 385q78 157 219.5 239.5t331.5 82.5q135 0 239 -39l80 176h215l-125 -272q222 -190 222 -572v-116q0 -345 -166.5 -520t-464.5 -175zM369 674
q0 -223 84 -338l401 887q-56 22 -135 22q-177 0 -263.5 -122.5t-86.5 -352.5v-96zM719 215q176 0 264 116.5t88 342.5v94q0 210 -67 324l-392 -865q50 -12 107 -12z" />
    <glyph glyph-name="oslashacute" unicode="&#x1ff;" horiz-adv-x="1339" 
d="M860 1800h293l-379 -426h-211zM670 -31q-76 0 -170 17l-78 -170h-215l110 239q-241 146 -241 510v31q0 196 78 334q76 135 209 205.5t307 70.5q100 0 166 -18l75 166h215l-110 -242q119 -79 183.5 -209t64.5 -307v-31q0 -190 -74 -323q-77 -134 -209 -203.5t-311 -69.5z
M350 569q0 -170 82 -264l305 666q-18 6 -65 6q-148 0 -235 -98.5t-87 -282.5v-27zM670 205q153 0 237 95t84 269v27q0 175 -84 276l-305 -661q8 -1 21.5 -2.5t25 -2.5t21.5 -1z" />
    <glyph glyph-name="uni0218" unicode="&#x218;" horiz-adv-x="1259" 
d="M649 -31q-220 0 -354 64q-130 60 -192 177t-68 296h287q5 -154 84 -227.5t247 -73.5q140 0 211.5 60t71.5 155q0 82 -51 121q-34 26 -90 46.5t-102 31t-128 26.5q-221 48 -325 111q-154 97 -154 313q0 108 55 207q130 211 465 211q282 0 421 -122t147 -349h-279
q-8 128 -75.5 187t-217.5 59q-126 0 -186 -53t-60 -136q0 -74 50 -112q33 -24 88 -44t95 -29.5t126 -27.5q225 -46 334 -115q155 -97 155 -319q0 -122 -61 -229q-67 -107 -192 -167.5t-302 -60.5zM520 -584q60 10 89.5 46t37.5 102q-6 -2 -22 -2q-74 0 -102.5 27t-28.5 112
q0 83 36 116t121 33q87 0 122.5 -44.5t35.5 -157.5q0 -152 -73 -249.5t-216 -117.5v135z" />
    <glyph glyph-name="uni0219" unicode="&#x219;" horiz-adv-x="1177" 
d="M608 -31q-267 0 -406.5 105.5t-166.5 314.5h291q18 -102 88.5 -148t199.5 -46q240 0 240 151q0 56 -45 82q-60 36 -274 66q-67 10 -109 18t-98 24.5t-97 38.5q-143 76 -143 259q0 169 124.5 270.5t360.5 101.5q472 0 525 -381h-275q-13 86 -74 126t-178 40
q-219 0 -219 -141q0 -56 45 -82q28 -16 77 -29.5t87.5 -20t112.5 -16.5q67 -10 109 -18t97.5 -24.5t96.5 -38.5q143 -76 143 -259q0 -178 -130 -285.5t-382 -107.5zM481 -584q60 10 89.5 46t37.5 102q-6 -2 -22 -2q-74 0 -102.5 27t-28.5 112q0 83 36 116t121 33
q87 0 122.5 -44.5t35.5 -157.5q0 -152 -73 -249.5t-216 -117.5v135z" />
    <glyph glyph-name="uni0237" unicode="&#x237;" horiz-adv-x="530" 
d="M-109 -233h60q79 0 119 12q40 13 53.5 55.5t13.5 142.5v1201h262v-1233q0 -135 -18 -216.5t-64 -127.5q-84 -84 -340 -84h-86v250z" />
    <glyph glyph-name="uni0245" unicode="&#x245;" horiz-adv-x="1382" 
d="M293 0h-277l531 1460h278l543 -1460h-274l-396 1128l-12 76l-12 -76z" />
    <glyph glyph-name="circumflex" unicode="&#x2c6;" horiz-adv-x="1187" 
d="M594 1589l-166 -243h-235l305 426h192l305 -426h-233z" />
    <glyph glyph-name="caron" unicode="&#x2c7;" horiz-adv-x="1187" 
d="M496 1346l-306 426h236l166 -240l168 240h231l-303 -426h-192z" />
    <glyph glyph-name="breve" unicode="&#x2d8;" horiz-adv-x="1187" 
d="M588 1341q-159 0 -250 54q-86 53 -123 149t-37 238h195q0 -128 51.5 -191.5t165.5 -64.5q114 1 165.5 64.5t51.5 191.5h199q0 -441 -418 -441z" />
    <glyph glyph-name="dotaccent" unicode="&#x2d9;" horiz-adv-x="1196" 
d="M575 1339q-96 0 -135 38t-39 134q0 93 42.5 131.5t131.5 38.5q88 0 130.5 -39t42.5 -131q0 -91 -42.5 -131.5t-130.5 -40.5z" />
    <glyph glyph-name="ring" unicode="&#x2da;" horiz-adv-x="1187" 
d="M588 1341q-136 0 -213.5 75t-77.5 212q0 134 79 212.5t212 78.5q139 0 218 -76.5t79 -214.5q0 -132 -79.5 -209.5t-217.5 -77.5zM588 1520q43 0 78.5 28.5t35.5 79.5q0 55 -30 86t-84 31q-50 0 -80.5 -31t-30.5 -86q0 -51 28.5 -79.5t82.5 -28.5z" />
    <glyph glyph-name="ogonek" unicode="&#x2db;" horiz-adv-x="1187" 
d="M582 -514q-149 0 -231.5 60t-82.5 178q0 55 25 116q48 125 291 246l166 -86q-48 -29 -164 -109q-58 -42 -81.5 -76t-23.5 -71q0 -42 31.5 -66t85.5 -24q46 0 80.5 25t48.5 63h240q-98 -256 -385 -256z" />
    <glyph glyph-name="tilde" unicode="&#x2dc;" horiz-adv-x="1187" 
d="M150 1346q0 327 262 327q90 0 198 -69q35 -24 52.5 -35t46 -23t51.5 -12q49 0 67.5 28.5t20.5 100.5h180q0 -162 -59.5 -245t-206.5 -83q-111 0 -199 70q-37 25 -52 35t-44 21.5t-55 11.5q-42 0 -61 -30t-21 -97h-180z" />
    <glyph glyph-name="hungarumlaut" unicode="&#x2dd;" horiz-adv-x="1187" 
d="M301 1346h-192l294 426h277zM698 1346h-194l297 426h276z" />
    <glyph glyph-name="uni03BC" unicode="&#x3bc;" horiz-adv-x="1296" 
d="M590 -25q-133 0 -209 91v-472h-260v1584h268v-656q0 -72 12 -126.5t39 -97.5t74.5 -65t114.5 -22q130 0 199 96t69 258v613h270v-1178h-225l-22 197q-81 -222 -330 -222z" />
    <glyph glyph-name="pi" unicode="&#x3c0;" horiz-adv-x="1544" 
d="M942 1208h-358v-1208h-269v1208h-268v252h1450v-252h-287v-747q0 -100 19 -142q18 -42 60.5 -56.5t125.5 -14.5h60v-248h-86q-171 0 -271 35q-96 35 -136 126.5t-40 266.5v780z" />
    <glyph glyph-name="uni0E3F" unicode="&#xe3f;" horiz-adv-x="1382" 
d="M596 -252v252h-455v1460h455v264h199v-264q497 -14 497 -377q0 -130 -51.5 -211.5t-155.5 -123.5q118 -39 177 -119.5t59 -212.5q0 -404 -526 -416v-252h-199zM596 856v387h-193v-387h193zM1028 1055q0 90 -55.5 135t-177.5 51v-383q233 12 233 197zM596 229v410h-193
v-410h193zM1047 438q0 96 -61.5 143.5t-190.5 55.5v-406q134 10 193 61t59 146z" />
    <glyph glyph-name="Wgrave" unicode="&#x1e80;" horiz-adv-x="2019" 
d="M518 2054h293l297 -426h-211zM991 1026l-350 -1026h-252l-356 1460h268l242 -1048l348 1048h205l348 -1073l272 1073h266l-393 -1460h-254z" />
    <glyph glyph-name="wgrave" unicode="&#x1e81;" horiz-adv-x="1781" 
d="M408 1772h292l297 -426h-211zM881 784l-306 -784h-243l-318 1178h267l206 -838l310 838h176l287 -836l245 836h262l-366 -1178h-240z" />
    <glyph glyph-name="Wacute" unicode="&#x1e82;" horiz-adv-x="2019" 
d="M1190 2054h293l-379 -426h-211zM991 1026l-350 -1026h-252l-356 1460h268l242 -1048l348 1048h205l348 -1073l272 1073h266l-393 -1460h-254z" />
    <glyph glyph-name="wacute" unicode="&#x1e83;" horiz-adv-x="1781" 
d="M1079 1772h293l-379 -426h-211zM881 784l-306 -784h-243l-318 1178h267l206 -838l310 838h176l287 -836l245 836h262l-366 -1178h-240z" />
    <glyph glyph-name="Wdieresis" unicode="&#x1e84;" horiz-adv-x="2019" 
d="M788 1622q-86 0 -120.5 34t-34.5 122q0 82 38 117.5t117 35.5q80 0 118 -35t38 -118q0 -82 -38 -119t-118 -37zM1212 1622q-87 0 -121 33.5t-34 122.5q0 83 37.5 118t117.5 35t118 -35t38 -118q0 -82 -38.5 -119t-117.5 -37zM991 1026l-350 -1026h-252l-356 1460h268
l242 -1048l348 1048h205l348 -1073l272 1073h266l-393 -1460h-254z" />
    <glyph glyph-name="wdieresis" unicode="&#x1e85;" horiz-adv-x="1781" 
d="M678 1339q-86 0 -121 34t-35 122q0 82 38.5 118t117.5 36q80 0 118 -35.5t38 -118.5q0 -82 -38 -119t-118 -37zM1102 1339q-87 0 -121.5 34t-34.5 122q0 83 38 118.5t118 35.5t117.5 -35.5t37.5 -118.5q0 -82 -38 -119t-117 -37zM881 784l-306 -784h-243l-318 1178h267
l206 -838l310 838h176l287 -836l245 836h262l-366 -1178h-240z" />
    <glyph glyph-name="Ygrave" unicode="&#x1ef2;" horiz-adv-x="1302" 
d="M162 2036h293l297 -426h-211zM500 0v582l-486 878h295l336 -631l350 631h295l-512 -882v-578h-278z" />
    <glyph glyph-name="ygrave" unicode="&#x1ef3;" horiz-adv-x="1220" 
d="M137 1757h293l297 -426h-211zM61 -440v233h138q71 0 125 14q46 13 77 50.5t68 117.5l23 56l-488 1147h287l319 -797l11 -53l14 51l311 799h283l-516 -1246q-53 -128 -96.5 -200t-94.5 -109q-52 -37 -125 -50t-200 -13h-136z" />
    <glyph glyph-name="figuredash" unicode="&#x2012;" horiz-adv-x="1339" 
d="M1233 502h-1127v268h1127v-268z" />
    <glyph glyph-name="endash" unicode="&#x2013;" horiz-adv-x="1032" 
d="M926 502h-820v268h820v-268z" />
    <glyph glyph-name="emdash" unicode="&#x2014;" horiz-adv-x="1441" 
d="M1335 502h-1229v268h1229v-268z" />
    <glyph glyph-name="uni2015" unicode="&#x2015;" horiz-adv-x="2056" 
d="M1950 502h-1844v268h1844v-268z" />
    <glyph glyph-name="uni2016" unicode="&#x2016;" horiz-adv-x="1146" 
d="M154 -129v1731h268v-1731h-268zM725 -129v1731h268v-1731h-268z" />
    <glyph glyph-name="underscoredbl" unicode="&#x2017;" horiz-adv-x="1343" 
d="M1286 0h-1229v188h1229v-188zM1286 -309h-1229v188h1229v-188z" />
    <glyph glyph-name="quoteleft" unicode="&#x2018;" horiz-adv-x="577" 
d="M297 907q-87 0 -122.5 45.5t-35.5 163.5q0 322 267 361l18 -113q-120 -15 -135 -168q6 2 26 2q75 0 103 -27.5t28 -113.5q0 -84 -34 -117t-115 -33z" />
    <glyph glyph-name="quoteright" unicode="&#x2019;" horiz-adv-x="577" 
d="M156 1020q124 15 139 168q-2 0 -10.5 -1t-16.5 -1q-74 0 -102.5 27.5t-28.5 113.5q0 83 34.5 116.5t115.5 33.5q88 0 122.5 -44.5t34.5 -164.5q0 -321 -270 -361z" />
    <glyph glyph-name="quotesinglbase" unicode="&#x201a;" horiz-adv-x="624" 
d="M176 -166q124 15 139 168q-2 0 -10 -1t-16 -1q-74 0 -102.5 27.5t-28.5 113.5q0 84 34 117t115 33q88 0 123 -44.5t35 -164.5q0 -321 -270 -361z" />
    <glyph glyph-name="uni201B" unicode="&#x201b;" horiz-adv-x="577" 
d="M406 907q-271 40 -271 361q0 109 36.5 159t121.5 50q81 0 115 -33t34 -117q0 -86 -28 -113.5t-103 -27.5q-5 0 -14 1t-12 1q15 -153 139 -168z" />
    <glyph glyph-name="quotedblleft" unicode="&#x201c;" horiz-adv-x="987" 
d="M297 907q-87 0 -122.5 45.5t-35.5 163.5q0 322 267 361l18 -113q-120 -15 -135 -168q6 2 26 2q75 0 103 -27.5t28 -113.5q0 -84 -34 -117t-115 -33zM707 907q-87 0 -122.5 45.5t-35.5 163.5q0 322 266 361l19 -113q-121 -15 -136 -168q6 2 27 2q75 0 103 -27.5t28 -113.5
q0 -84 -34 -117t-115 -33z" />
    <glyph glyph-name="quotedblright" unicode="&#x201d;" horiz-adv-x="987" 
d="M156 1020q123 15 135 168q-8 -2 -25 -2q-74 0 -103.5 27.5t-29.5 113.5q0 84 34 117t118 33q86 0 120.5 -44.5t34.5 -164.5q0 -160 -64.5 -250.5t-201.5 -110.5zM565 1020q123 15 135 168q-8 -2 -24 -2q-74 0 -103.5 27.5t-29.5 113.5q0 84 33.5 117t117.5 33
q86 0 121 -45t35 -164q0 -160 -64.5 -250.5t-201.5 -110.5z" />
    <glyph glyph-name="quotedblbase" unicode="&#x201e;" horiz-adv-x="1028" 
d="M156 -166q123 15 135 168q-8 -2 -25 -2q-74 0 -103.5 27.5t-29.5 113.5q0 84 34 117t118 33q86 0 120.5 -44.5t34.5 -164.5q0 -160 -64.5 -250.5t-201.5 -110.5zM606 -166q123 15 135 168q-8 -2 -24 -2q-74 0 -103.5 27.5t-29.5 113.5q0 84 33.5 117t117.5 33
q86 0 121 -45t35 -164q0 -160 -64.5 -250.5t-201.5 -110.5z" />
    <glyph glyph-name="uni201F" unicode="&#x201f;" horiz-adv-x="1028" 
d="M397 907q-266 39 -266 361q0 109 36 159t120 50t117.5 -33t33.5 -117q0 -86 -28.5 -113.5t-104.5 -27.5q-16 0 -24 2q12 -153 135 -168zM848 907q-266 39 -266 361q0 109 36 159t119 50q84 0 118 -33t34 -117q0 -86 -28.5 -113.5t-104.5 -27.5q-17 0 -25 2
q12 -153 135 -168z" />
    <glyph glyph-name="dagger" unicode="&#x2020;" horiz-adv-x="1105" 
d="M684 971v-1100h-266v1100h-312v258h312v373h266v-373h315v-258h-315z" />
    <glyph glyph-name="daggerdbl" unicode="&#x2021;" horiz-adv-x="1105" 
d="M682 250v-379h-266v379h-310v258h310v463h-310v258h310v373h266v-373h317v-258h-317v-463h317v-258h-317z" />
    <glyph glyph-name="bullet" unicode="&#x2022;" horiz-adv-x="681" 
d="M340 381q-114 0 -162.5 48.5t-48.5 162.5q0 113 52 162t159 49q111 0 162 -47t51 -164q0 -112 -51.5 -161.5t-161.5 -49.5z" />
    <glyph glyph-name="ellipsis" unicode="&#x2026;" horiz-adv-x="1601" 
d="M301 -20q-92 0 -127 35t-35 135q0 99 35 133t127 34q91 0 124.5 -34t33.5 -133q0 -100 -33.5 -135t-124.5 -35zM805 -20q-92 0 -127 35t-35 135q0 99 35 133t127 34q91 0 125.5 -34t34.5 -133q0 -100 -34.5 -135t-125.5 -35zM1305 -20q-92 0 -127 35t-35 135q0 99 35 133
t127 34q91 0 124 -33.5t33 -133.5t-33.5 -135t-123.5 -35z" />
    <glyph glyph-name="perthousand" unicode="&#x2030;" horiz-adv-x="2314" 
d="M369 864q-151 0 -232.5 77t-81.5 218v15q0 147 88 227t228 80q143 0 228 -81t85 -226v-15q0 -139 -84 -217t-231 -78zM53 0q35 39 117 145q185 233 360 457q311 396 394 506q238 307 270 352h301q-4 -6 -45.5 -58t-69.5 -89q-53 -67 -175 -224t-181 -233
q-310 -404 -389 -506q-214 -276 -268 -350h-314zM371 1034q60 0 94.5 35.5t34.5 97.5v7q0 65 -35 101t-94 36q-57 0 -93 -35t-36 -102v-7q0 -64 34 -98.5t95 -34.5zM1178 -23q-152 0 -233 75.5t-81 219.5v15q0 147 88 227t228 80q143 0 228 -81t85 -226v-15
q0 -140 -84 -217.5t-231 -77.5zM1937 -23q-151 0 -232 75.5t-81 219.5v15q0 147 87.5 227t227.5 80q143 0 228.5 -81t85.5 -226v-15q0 -140 -84.5 -217.5t-231.5 -77.5zM1180 147q60 0 94.5 36t34.5 98v6q0 65 -35 101t-94 36q-57 0 -93 -35t-36 -102v-6q0 -64 34 -99
t95 -35zM1939 147q60 0 94.5 36t34.5 98v6q0 65 -35 101t-94 36q-57 0 -93 -35t-36 -102v-6q0 -64 34 -99t95 -35z" />
    <glyph glyph-name="uni2032" unicode="&#x2032;" horiz-adv-x="370" 
d="M29 1042l69 418h248l-143 -418h-174z" />
    <glyph glyph-name="uni2033" unicode="&#x2033;" horiz-adv-x="704" 
d="M29 1042l69 418h248l-143 -418h-174zM362 1042l70 418h248l-143 -418h-175z" />
    <glyph glyph-name="uni2034" unicode="&#x2034;" horiz-adv-x="1269" 
d="M356 1460v-37q0 -6 -6 -204q-16 -213 -37 -271h-174q-7 21 -20 101q-21 202 -21 374v37h258zM764 1460v-37q0 -6 -6 -204q-16 -213 -37 -271h-174q-9 27 -21 101q-20 192 -20 374v37h258zM1171 1460v-37q0 -6 -6 -204q-16 -213 -37 -271h-174q-7 21 -20 101
q-21 202 -21 374v37h258z" />
    <glyph glyph-name="guilsinglleft" unicode="&#x2039;" horiz-adv-x="813" 
d="M469 211l-311 397v35l293 416h249l-301 -422l332 -426h-262z" />
    <glyph glyph-name="guilsinglright" unicode="&#x203a;" horiz-adv-x="813" 
d="M82 211l332 426l-301 422h249l293 -416v-35l-311 -397h-262z" />
    <glyph glyph-name="exclamdbl" unicode="&#x203c;" horiz-adv-x="1243" 
d="M469 1460v-364q0 -188 -10 -308q-14 -273 -39 -370q-31 8 -94 8q-71 0 -95 -8q-7 22 -20 127q-29 280 -29 551v364h287zM1061 1460v-364q0 -188 -10 -308q-14 -273 -39 -370q-31 8 -94 8q-71 0 -95 -8q-7 22 -20 127q-29 280 -29 551v364h287zM322 -25q-99 0 -140 40.5
t-41 140.5q0 98 44 138t137 40q94 0 137 -40t43 -138q0 -95 -44 -138t-136 -43zM913 -25q-99 0 -139.5 40t-40.5 141q0 98 43.5 138t136.5 40q94 0 137.5 -40t43.5 -138q0 -95 -44.5 -138t-136.5 -43z" />
    <glyph glyph-name="uni203D" unicode="&#x203d;" horiz-adv-x="1359" 
d="M766 418q-31 8 -94 8q-75 0 -99 -8q-9 38 -12 174q-4 258 -4 504v155q-92 -25 -132 -91t-40 -179v-33h-268v47q0 239 143 364.5t430 125.5q188 0 314 -60q118 -58 177.5 -155t59.5 -217q0 -199 -119 -293q-24 -19 -56.5 -38t-50.5 -28t-63 -29t-53 -24q-60 -27 -92.5 -62
t-36.5 -92zM784 1096q0 -139 -10 -289q21 12 96 55q53 29 81 69.5t28 106.5q0 82 -48.5 141t-146.5 78v-161zM672 -25q-99 0 -139.5 40t-40.5 141q0 98 43.5 138t136.5 40q94 0 137 -40t43 -138q0 -95 -44 -138t-136 -43z" />
    <glyph glyph-name="fraction" unicode="&#x2044;" 
d="M958 885l418 659l269 -205l-601 -524zM874 637l-423 -696l-273 219l615 547z" />
    <glyph glyph-name="uni2070" unicode="&#x2070;" horiz-adv-x="714" 
d="M356 715q-305 0 -305 348v59q0 172 79.5 262.5t225.5 90.5q143 0 225.5 -90.5t82.5 -260.5v-61q0 -173 -79.5 -260.5t-228.5 -87.5zM356 901q107 0 107 164v57q0 166 -107 166q-56 0 -80 -42t-24 -124v-59q0 -80 24 -121t80 -41z" />
    <glyph glyph-name="uni2074" unicode="&#x2074;" horiz-adv-x="677" 
d="M559 870v-139h-162v139h-377v129l381 461h158v-444h115v-146h-115zM231 1016h166v153l6 60l-32 -45z" />
    <glyph glyph-name="uni2075" unicode="&#x2075;" horiz-adv-x="681" 
d="M350 717q-161 0 -233 61t-74 189v2h205v-6q0 -93 106 -93q62 0 92.5 31.5t30.5 85.5q0 94 -121 94q-63 0 -120 -65l-7 -6l-161 45l41 405h501q0 -92 -38.5 -131t-135.5 -39h-184l-23 -145q63 76 195 76q106 0 169.5 -59t63.5 -171q0 -274 -307 -274z" />
    <glyph glyph-name="uni2076" unicode="&#x2076;" horiz-adv-x="716" 
d="M668 971q0 -117 -78.5 -186.5t-210.5 -69.5q-328 0 -328 348v59q0 172 80.5 262.5t228.5 90.5q134 0 212 -59.5t85 -168.5h-196q-15 72 -94 72q-138 0 -138 -201v-18q57 92 179 92q260 0 260 -221zM379 874q110 0 110 97q0 92 -116 92q-102 0 -137 -66q24 -123 143 -123z
" />
    <glyph glyph-name="uni2077" unicode="&#x2077;" horiz-adv-x="602" 
d="M94 731q44 136 82 211q90 195 217 348h-368v170h557v-151q-91 -123 -163 -275.5t-110 -302.5h-215z" />
    <glyph glyph-name="uni2078" unicode="&#x2078;" horiz-adv-x="716" 
d="M354 717q-159 0 -233 53.5t-74 159.5q0 63 33.5 108t93.5 66q-106 37 -106 158q0 98 79.5 154.5t212.5 56.5q135 0 215 -55.5t80 -155.5q0 -117 -110 -156q58 -21 91.5 -66t33.5 -110q0 -103 -80 -158t-236 -55zM373 1163q46 0 74 21t28 63q0 37 -29.5 59.5t-85.5 22.5
q-53 0 -82.5 -22.5t-29.5 -61.5q0 -40 26.5 -61t69.5 -21h29zM358 864q60 0 94.5 23t34.5 61q0 90 -114 90h-31q-54 0 -81.5 -24t-27.5 -66q0 -38 31.5 -61t93.5 -23z" />
    <glyph glyph-name="uni2079" unicode="&#x2079;" horiz-adv-x="690" 
d="M342 713q-133 0 -211 62t-86 171h197q16 -78 94 -78q66 0 101.5 46.5t35.5 154.5v29q-50 -103 -178 -103q-260 0 -260 222q0 117 75 186.5t212 69.5q159 0 244 -86.5t85 -262.5v-59q0 -352 -309 -352zM330 1124q108 0 135 78q-24 111 -135 111q-55 0 -86 -24.5t-31 -71.5
t31.5 -70t85.5 -23z" />
    <glyph glyph-name="uni207A" unicode="&#x207a;" horiz-adv-x="714" 
d="M432 1001v-182h-160v182h-180v156h180v178h160v-178h184v-156h-184z" />
    <glyph glyph-name="uni207B" unicode="&#x207b;" horiz-adv-x="714" 
d="M92 997v166h524v-166h-524z" />
    <glyph glyph-name="uni207C" unicode="&#x207c;" horiz-adv-x="714" 
d="M92 1139v157h524v-157h-524zM92 868v158h524v-158h-524z" />
    <glyph glyph-name="uni207D" unicode="&#x207d;" horiz-adv-x="524" 
d="M80 1108q0 192 55 305q55 119 149 183.5t216 72.5v-180q-116 -13 -178 -102t-62 -285v-43q0 -118 31 -213q61 -147 209 -160v-192q-196 11 -308 147.5t-112 405.5v61z" />
    <glyph glyph-name="uni207E" unicode="&#x207e;" horiz-adv-x="524" 
d="M25 684q72 9 122 45q117 80 117 330v43q0 145 -31 219q-55 150 -208 166v182q118 -9 215 -72q204 -138 204 -489v-61q0 -270 -111.5 -406t-307.5 -147v190z" />
    <glyph glyph-name="uni2080" unicode="&#x2080;" horiz-adv-x="714" 
d="M356 -16q-305 0 -305 348v59q0 172 79.5 262t225.5 90q143 0 225.5 -90t82.5 -260v-61q0 -173 -79.5 -260.5t-228.5 -87.5zM356 170q107 0 107 164v57q0 166 -107 166q-56 0 -80 -42t-24 -124v-59q0 -80 24 -121t80 -41z" />
    <glyph glyph-name="uni2081" unicode="&#x2081;" horiz-adv-x="530" 
d="M35 0v170h155v279h-129v139q66 4 106 42.5t48 98.5h147v-559h142v-170h-469z" />
    <glyph glyph-name="uni2082" unicode="&#x2082;" horiz-adv-x="659" 
d="M41 0v98q0 83 39 131q18 25 41.5 46t56 40t52.5 29.5t59 28.5q68 34 101.5 65t33.5 76q0 35 -21 54.5t-73 19.5q-54 0 -74 -29t-20 -80v-24h-189v30q0 123 74.5 189.5t212.5 66.5q144 0 214 -60.5t70 -162.5q0 -68 -28 -119q-48 -74 -170 -135q-45 -21 -66 -31.5t-48 -30
t-40 -38.5h352v-164h-577z" />
    <glyph glyph-name="uni2083" unicode="&#x2083;" horiz-adv-x="681" 
d="M334 -14q-156 0 -226.5 59t-70.5 186v21h194v-14q0 -91 101 -91q59 0 83.5 17.5t24.5 56.5q0 68 -88 68h-90v149h90q80 0 80 78q0 66 -94 66q-96 0 -96 -88v-11h-193v17q0 112 76 176.5t215 64.5q131 0 207 -57.5t76 -151.5q0 -120 -101 -159q113 -39 113 -168
q0 -99 -80.5 -159t-220.5 -60z" />
    <glyph glyph-name="uni2084" unicode="&#x2084;" horiz-adv-x="677" 
d="M559 139v-139h-162v139h-377v129l381 461h158v-444h115v-146h-115zM231 285h166v153l6 60l-32 -45z" />
    <glyph glyph-name="uni2085" unicode="&#x2085;" horiz-adv-x="681" 
d="M350 -14q-161 0 -233 61t-74 189v2h205v-7q0 -92 106 -92q62 0 92.5 31.5t30.5 85.5q0 94 -121 94q-63 0 -120 -65l-7 -6l-161 45l41 405h501q0 -92 -38.5 -131t-135.5 -39h-184l-23 -145q62 75 195 75q106 0 169.5 -58.5t63.5 -170.5q0 -274 -307 -274z" />
    <glyph glyph-name="uni2086" unicode="&#x2086;" horiz-adv-x="716" 
d="M668 240q0 -117 -78.5 -186.5t-210.5 -69.5q-328 0 -328 348v59q0 172 80.5 262t228.5 90q134 0 212 -59.5t85 -167.5h-196q-15 72 -94 72q-138 0 -138 -201v-18q57 92 179 92q260 0 260 -221zM379 143q110 0 110 97q0 92 -116 92q-102 0 -137 -66q24 -123 143 -123z" />
    <glyph glyph-name="uni2087" unicode="&#x2087;" horiz-adv-x="602" 
d="M94 0q44 136 82 211q90 195 217 348h-368v170h557v-151q-91 -123 -163 -275.5t-110 -302.5h-215z" />
    <glyph glyph-name="uni2088" unicode="&#x2088;" horiz-adv-x="716" 
d="M354 -14q-159 0 -233 53.5t-74 159.5q0 63 33.5 108t93.5 66q-106 37 -106 157q0 98 79.5 154.5t212.5 56.5q135 0 215 -55.5t80 -155.5q0 -116 -110 -155q58 -21 91.5 -66t33.5 -110q0 -103 -80 -158t-236 -55zM373 432q46 0 74 21t28 63q0 37 -29.5 59.5t-85.5 22.5
q-53 0 -82.5 -22.5t-29.5 -61.5q0 -40 26.5 -61t69.5 -21h29zM358 133q60 0 94.5 23t34.5 61q0 90 -114 90h-31q-54 0 -81.5 -24t-27.5 -66q0 -38 31.5 -61t93.5 -23z" />
    <glyph glyph-name="uni2089" unicode="&#x2089;" horiz-adv-x="690" 
d="M342 -18q-133 0 -211 62t-86 171h197q16 -78 94 -78q66 0 101.5 46.5t35.5 154.5v29q-50 -103 -178 -103q-260 0 -260 221q0 117 75 186.5t212 69.5q159 0 244 -86t85 -262v-59q0 -352 -309 -352zM330 393q108 0 135 78q-24 111 -135 111q-55 0 -86 -25t-31 -72
q0 -92 117 -92z" />
    <glyph glyph-name="uni208A" unicode="&#x208a;" horiz-adv-x="714" 
d="M432 270v-182h-160v182h-180v156h180v178h160v-178h184v-156h-184z" />
    <glyph glyph-name="uni208B" unicode="&#x208b;" horiz-adv-x="714" 
d="M92 266v166h524v-166h-524z" />
    <glyph glyph-name="uni208C" unicode="&#x208c;" horiz-adv-x="714" 
d="M92 408v157h524v-157h-524zM92 137v158h524v-158h-524z" />
    <glyph glyph-name="uni208D" unicode="&#x208d;" horiz-adv-x="524" 
d="M80 377q0 192 55 305q55 119 149 183.5t216 72.5v-180q-116 -13 -178 -102t-62 -285v-43q0 -118 31 -213q61 -147 209 -160v-193q-196 11 -308 147.5t-112 405.5v62z" />
    <glyph glyph-name="uni208E" unicode="&#x208e;" horiz-adv-x="524" 
d="M25 -47q72 9 122 45q117 80 117 330v43q0 145 -31 219q-55 150 -208 166v182q118 -9 215 -72q204 -138 204 -489v-62q0 -270 -111.5 -406t-307.5 -147v191z" />
    <glyph glyph-name="colonmonetary" unicode="&#x20a1;" horiz-adv-x="1413" 
d="M565 -18q-11 2 -88 22l-55 -229h-154l72 295q-250 174 -250 587v131q0 324 154 504.5t438 192.5l43 180h154l-45 -184q29 -2 88 -15l49 199h153l-61 -252q241 -131 278 -477h-266q-12 130 -74 207l-223 -924q142 12 213.5 96t85.5 234h273q-14 -173 -88 -311
q-147 -269 -545 -269h-2l-47 -194h-154zM870 1233q-54 16 -88 18l-239 -993q83 -31 84 -31zM356 672q0 -175 64 -291l207 862q-271 -60 -271 -471v-100z" />
    <glyph glyph-name="uni20A2" unicode="&#x20a2;" horiz-adv-x="1413" 
d="M1341 489q-38 -256 -187.5 -388t-436.5 -132q-303 0 -465 177t-162 511v131q0 337 166.5 518t470.5 181q519 0 604 -481h-276q-54 239 -328 239q-362 0 -362 -473v-104q0 -367 223 -441v650h194l35 -232q24 133 98.5 187.5t202.5 54.5h113v-252h-146q-105 0 -163 -21
q-54 -23 -73.5 -76.5t-19.5 -164.5v-158q105 22 160.5 88.5t79.5 185.5h272z" />
    <glyph glyph-name="franc" unicode="&#x20a3;" horiz-adv-x="1177" 
d="M403 293v-293h-262v1460h967v-239h-705v-303h664v-242h-664v-141h664v-242h-664z" />
    <glyph glyph-name="lira" unicode="&#x20a4;" horiz-adv-x="1329" 
d="M944 -31q-103 0 -190 34.5t-179 96.5q-103 -131 -272 -131q-276 0 -276 219q0 95 69.5 156.5t188.5 61.5q98 0 204 -52v25q0 63 -22 119h-375v168h289l-68 114h-221v168h154q-15 73 -15 117q0 197 118 309.5t335 112.5q214 0 341.5 -103t156.5 -305l-297 -2
q-8 76 -57.5 122t-137.5 46q-186 0 -186 -176q0 -55 16 -121h420v-168h-358l47 -114h311v-168h-266q6 -25 6 -76q0 -87 -23 -160q48 -23 72.5 -34t64 -22t74.5 -11q77 0 107.5 46.5t30.5 157.5v19h290v-56q0 -212 -81.5 -302.5t-270.5 -90.5zM311 129q83 0 131 64
q-83 57 -145 57q-36 0 -54 -16.5t-18 -43.5q0 -26 23 -43.5t63 -17.5z" />
    <glyph glyph-name="uni20A6" unicode="&#x20a6;" horiz-adv-x="1652" 
d="M844 500h-379v-500h-242v500h-188v168h188v145h-188v168h188v479h305l273 -479h387v479h242v-479h188v-168h-188v-145h188v-168h-188v-500h-302zM465 981h104l-45 80l-73 176l14 -223v-33zM666 813h-201v-145h283zM1188 813h-291l82 -145h209v145zM1202 233l-14 228v39
h-113l49 -88z" />
    <glyph glyph-name="peseta" unicode="&#x20a7;" horiz-adv-x="3313" 
d="M406 461v-461h-265v1460h551q218 0 355.5 -77.5t189.5 -219.5q141 0 197 13q38 10 58 31t34 63q20 64 24 190h205v-282h332v-238h-332v-281q0 -137 22 -218t81 -126q60 -46 176 -66t313 -20h139q304 0 404 41q49 19 66.5 47.5t17.5 69.5q0 56 -56 76q-33 14 -78.5 22
t-126.5 15.5t-114 11.5q-84 11 -180 41q-197 70 -197 281q0 168 126 270t362 102q473 0 526 -381h-275q-26 166 -254 166q-221 0 -221 -141q0 -59 56 -88q22 -10 49 -18t65.5 -15t63 -10.5t78 -10.5t73.5 -10q79 -10 185 -43q96 -32 148 -94.5t52 -171.5q0 -94 -33.5 -163.5
t-113.5 -119.5q-165 -106 -582 -106h-213q-266 0 -424.5 33.5t-242.5 109.5q-80 70 -111 187.5t-31 304.5v305h-233q-8 -226 -151.5 -353t-418.5 -126h-296zM406 1233v-543h292q147 0 226.5 71t79.5 204q0 124 -79 196t-233 72h-286z" />
    <glyph glyph-name="uni20A8" unicode="&#x20a8;" horiz-adv-x="2562" 
d="M1933 -31q-199 0 -329 39q-210 60 -404 228l-45 38q-49 43 -151 125q-171 131 -416 131h-180v-530h-267v1460h570q287 0 422 -115t135 -325q0 -149 -72 -240t-215 -133q71 -16 137 -49.5t106 -63t99 -79.5l49 -41q52 -47 141 -107q173 -112 414 -112q157 0 224 38.5
t67 112.5q0 54 -41 78q-27 18 -72 31.5t-81.5 19t-108.5 14.5q-209 26 -316 80q-151 79 -151 265q0 168 125.5 270t361.5 102q474 0 527 -381h-275q-26 166 -254 166q-221 0 -221 -141q0 -53 41 -80q65 -40 262 -65q211 -27 318 -80q151 -79 151 -263q0 -124 -55 -204
q-114 -189 -496 -189zM408 1229v-465h292q141 0 217 60.5t76 176.5q0 228 -288 228h-297z" />
    <glyph glyph-name="uni20A9" unicode="&#x20a9;" horiz-adv-x="2101" 
d="M1231 508h-391l-174 -508h-236l-125 508h-270v168h229l-26 117h-203v168h162l-123 499h248l114 -499h355l165 499h164l162 -499h369l127 499h245l-135 -499h178v-168h-223l-31 -117h254v-168h-299l-137 -508h-229zM995 961h84l-28 88l-13 59l-14 -61zM735 793h-260
l27 -117h194zM1137 793h-199l-41 -117h279zM1608 793h-273l39 -117h205zM578 307l14 58l47 143h-98l32 -146zM1489 299l8 55l39 154h-109l50 -152z" />
    <glyph glyph-name="uni20AA" unicode="&#x20aa;" horiz-adv-x="1652" 
d="M362 1233v-1233h-245v1460h475q299 0 430 -154.5t131 -496.5v-102q0 -137 -20 -207q-20 -72 -72 -100.5t-156 -28.5v417q0 145 -26 252q-30 100 -99.5 146.5t-199.5 46.5h-218zM514 0v1094q103 0 162 -27q51 -25 67.5 -97t16.5 -233v-506h192q110 0 187 41
q159 84 159 418v770h250v-790q0 -333 -143 -501.5t-440 -168.5h-451z" />
    <glyph glyph-name="Euro" unicode="&#x20ac;" horiz-adv-x="1394" 
d="M1386 389q-59 -207 -210 -313.5t-369 -106.5q-507 0 -584 502h-180v182h166v144h-166v180h180q42 248 190.5 379t399.5 131q215 0 363 -105t192 -292h-297q-30 79 -92 116t-176 37q-255 0 -316 -266h693l-86 -180h-627v-144h565l-84 -182h-461q59 -258 320 -258
q116 0 179.5 42.5t103.5 133.5h296z" />
    <glyph glyph-name="uni20AE" unicode="&#x20ae;" horiz-adv-x="1200" 
d="M729 520v-520h-272v397l-250 -112v168l250 112v146l-250 -113v168l250 113v344h-402v237h1092v-237h-418v-224l248 111v-166l-248 -110v-146l248 111v-168z" />
    <glyph glyph-name="uni20B1" unicode="&#x20b1;" horiz-adv-x="1449" 
d="M182 0v688h-147v152h147v125h-147v151h147v344h525q235 0 376 -90.5t185 -253.5h147v-151h-129v-125h129v-152h-147q-39 -168 -178.5 -259.5t-372.5 -90.5h-273v-338h-262zM444 1237v-121h547q-83 121 -278 121h-269zM1036 840v125h-592v-125h592zM719 559q201 0 278 129
h-553v-129h275z" />
    <glyph glyph-name="uni2105" unicode="&#x2105;" horiz-adv-x="1554" 
d="M684 1112q-13 -119 -96.5 -183.5t-218.5 -64.5q-151 0 -232.5 77t-81.5 218v15q0 147 88 227t228 80q134 0 216 -66.5t95 -187.5h-207q-8 43 -32 63.5t-72 20.5q-57 0 -93 -35t-36 -102v-7q0 -64 34 -98.5t95 -34.5q89 0 104 78h209zM53 0q35 39 117 145q185 233 360 457
q311 396 394 506q238 307 270 352h301q-4 -6 -45.5 -58t-69.5 -89q-53 -67 -175 -224t-181 -233q-310 -404 -389 -506q-214 -276 -268 -350h-314zM1178 -23q-152 0 -233 75.5t-81 219.5v15q0 147 88 227t228 80q143 0 228 -81t85 -226v-15q0 -140 -84 -217.5t-231 -77.5z
M1180 147q60 0 94.5 36t34.5 98v6q0 65 -35 101t-94 36q-57 0 -93 -35t-36 -102v-6q0 -64 34 -99t95 -35z" />
    <glyph glyph-name="uni2116" unicode="&#x2116;" horiz-adv-x="2486" 
d="M1964 629q-200 0 -306 106t-106 305v23q0 134 54 231q54 95 145.5 144t212.5 49q119 0 213 -49q94 -51 146.5 -147t52.5 -228v-23q0 -196 -111.5 -303.5t-300.5 -107.5zM395 0h-254v1460h256l670 -987l35 -67l-8 75v979h254v-1460h-248l-678 999l-35 68l8 -74v-993z
M1964 842q166 0 166 202v19q0 104 -42 158.5t-124 54.5q-164 0 -164 -213v-19q0 -202 164 -202zM2355 256h-778v219h778v-219z" />
    <glyph glyph-name="uni2117" unicode="&#x2117;" horiz-adv-x="1587" 
d="M793 -31q-206 0 -361 76q-165 75 -253.5 233t-88.5 398v84q0 218 92 391q95 163 253 249.5t358 86.5q196 0 356 -86q165 -88 256.5 -250t91.5 -383v-92q0 -227 -94 -385q-95 -157 -252.5 -239.5t-357.5 -82.5zM793 152q246 0 384 140.5t138 401.5v56q0 175 -66 301
q-66 123 -182.5 186t-273.5 63q-155 0 -273 -65q-119 -67 -183.5 -193t-64.5 -303v-45q0 -264 137.5 -403t383.5 -139zM690 569v-252h-172v818h311q316 0 316 -281v-2q0 -283 -316 -283h-139zM690 983v-262h135q77 0 110.5 30.5t33.5 100.5t-33.5 100.5t-110.5 30.5h-135z
" />
    <glyph glyph-name="uni2120" unicode="&#x2120;" horiz-adv-x="1349" 
d="M293 821q-135 0 -197 60t-67 178h166q3 -105 104 -105q92 0 92 72q0 34 -29.5 48t-121.5 28q-99 18 -144 61.5t-45 130.5q0 83 60.5 135t173.5 52q120 0 184 -53.5t66 -151.5h-162q-3 78 -88 78q-41 0 -60.5 -17.5t-19.5 -44.5q0 -33 29 -45.5t114 -25.5
q102 -17 148.5 -63.5t48.5 -131.5q0 -96 -66.5 -150.5t-185.5 -54.5zM799 838h-150v622h127l185 -252l182 250h127v-620h-150v333l2 43l-20 -36l-133 -181h-19l-135 181l-18 34l2 -41v-333z" />
    <glyph glyph-name="trademark" unicode="&#x2122;" horiz-adv-x="1298" 
d="M336 1311v-473h-158v473h-151v149h465v-149h-156zM748 838h-150v622h127l184 -252l183 250h127v-620h-150v333l2 43l-20 -36l-133 -181h-19l-135 181l-19 34l3 -41v-333z" />
    <glyph glyph-name="uni2126" unicode="&#x2126;" horiz-adv-x="1644" 
d="M629 0h-602v242h344q-205 269 -205 596q0 190 76 336q78 149 221.5 231t341.5 82q211 0 352 -84q144 -84 218.5 -229.5t74.5 -335.5q-1 -160 -58 -314t-153 -282h346v-242h-581l-111 203q137 167 206 322t70 319q0 179 -93 285t-271 106q-171 0 -266 -107t-95 -284
q0 -163 69 -318t206 -323z" />
    <glyph glyph-name="uni2153" unicode="&#x2153;" 
d="M958 885l418 659l269 -205l-601 -524zM199 731v170h155v279h-129v139q66 4 106 42.5t48 98.5h147v-559h142v-170h-469zM1286 -14q-156 0 -226.5 59t-70.5 186v21h195v-14q0 -91 100 -91q59 0 84 17.5t25 56.5q0 68 -88 68h-91v149h91q79 0 79 78q0 66 -94 66
q-96 0 -96 -88v-11h-193v17q0 112 76 176.5t215 64.5q131 0 207 -57.5t76 -151.5q0 -120 -100 -159q112 -39 112 -168q0 -99 -80.5 -159t-220.5 -60zM874 637l-423 -696l-273 219l615 547z" />
    <glyph glyph-name="uni2154" unicode="&#x2154;" 
d="M958 885l418 659l269 -205l-601 -524zM147 731v98q0 84 39 132q18 25 41.5 45.5t57 40t51.5 28.5t59 29q68 34 101.5 65t33.5 76q0 35 -21 54.5t-73 19.5q-54 0 -74 -29t-20 -80v-24h-188v31q0 123 74 189.5t212 66.5q144 0 214.5 -61t70.5 -163q0 -66 -29 -119
q-48 -74 -170 -135q-44 -21 -65.5 -32t-48 -30t-39.5 -38h352v-164h-578zM1286 -14q-156 0 -226.5 59t-70.5 186v21h195v-14q0 -91 100 -91q59 0 84 17.5t25 56.5q0 68 -88 68h-91v149h91q79 0 79 78q0 66 -94 66q-96 0 -96 -88v-11h-193v17q0 112 76 176.5t215 64.5
q131 0 207 -57.5t76 -151.5q0 -120 -100 -159q112 -39 112 -168q0 -99 -80.5 -159t-220.5 -60zM874 637l-423 -696l-273 219l615 547z" />
    <glyph glyph-name="uni2155" unicode="&#x2155;" 
d="M958 885l418 659l269 -205l-601 -524zM199 731v170h155v279h-129v139q66 4 106 42.5t48 98.5h147v-559h142v-170h-469zM1305 -14q-162 0 -234 61t-74 189v2h205v-7q0 -92 107 -92q62 0 92.5 31.5t30.5 85.5q0 94 -121 94q-64 0 -121 -65l-6 -6l-162 45l41 405h502
q0 -92 -38.5 -131t-135.5 -39h-185l-22 -145q62 75 194 75q107 0 170.5 -58.5t63.5 -170.5q0 -274 -307 -274zM874 637l-423 -696l-273 219l615 547z" />
    <glyph glyph-name="uni2156" unicode="&#x2156;" 
d="M958 885l418 659l269 -205l-601 -524zM147 731v98q0 84 39 132q18 25 41.5 45.5t57 40t51.5 28.5t59 29q68 34 101.5 65t33.5 76q0 35 -21 54.5t-73 19.5q-54 0 -74 -29t-20 -80v-24h-188v31q0 123 74 189.5t212 66.5q144 0 214.5 -61t70.5 -163q0 -66 -29 -119
q-48 -74 -170 -135q-44 -21 -65.5 -32t-48 -30t-39.5 -38h352v-164h-578zM1305 -14q-162 0 -234 61t-74 189v2h205v-7q0 -92 107 -92q62 0 92.5 31.5t30.5 85.5q0 94 -121 94q-64 0 -121 -65l-6 -6l-162 45l41 405h502q0 -92 -38.5 -131t-135.5 -39h-185l-22 -145
q62 75 194 75q107 0 170.5 -58.5t63.5 -170.5q0 -274 -307 -274zM874 637l-423 -696l-273 219l615 547z" />
    <glyph glyph-name="uni2157" unicode="&#x2157;" 
d="M958 885l418 659l269 -205l-601 -524zM426 717q-156 0 -226.5 59.5t-70.5 186.5v20h195v-14q0 -90 100 -90q59 0 83.5 17t24.5 56q0 68 -88 68h-90v149h90q80 0 80 78q0 66 -94 66q-96 0 -96 -88v-11h-193v17q0 112 76 177t215 65q131 0 207 -57.5t76 -151.5
q0 -121 -101 -160q113 -39 113 -168q0 -99 -80.5 -159t-220.5 -60zM1305 -14q-162 0 -234 61t-74 189v2h205v-7q0 -92 107 -92q62 0 92.5 31.5t30.5 85.5q0 94 -121 94q-64 0 -121 -65l-6 -6l-162 45l41 405h502q0 -92 -38.5 -131t-135.5 -39h-185l-22 -145q62 75 194 75
q107 0 170.5 -58.5t63.5 -170.5q0 -274 -307 -274zM874 637l-423 -696l-273 219l615 547z" />
    <glyph glyph-name="uni2158" unicode="&#x2158;" 
d="M958 885l418 659l269 -205l-601 -524zM666 870v-139h-162v139h-377v129l381 461h158v-444h114v-146h-114zM338 1016h166v153l6 60l-33 -45zM1305 -14q-162 0 -234 61t-74 189v2h205v-7q0 -92 107 -92q62 0 92.5 31.5t30.5 85.5q0 94 -121 94q-64 0 -121 -65l-6 -6
l-162 45l41 405h502q0 -92 -38.5 -131t-135.5 -39h-185l-22 -145q62 75 194 75q107 0 170.5 -58.5t63.5 -170.5q0 -274 -307 -274zM874 637l-423 -696l-273 219l615 547z" />
    <glyph glyph-name="uni2159" unicode="&#x2159;" 
d="M958 885l418 659l269 -205l-601 -524zM199 731v170h155v279h-129v139q66 4 106 42.5t48 98.5h147v-559h142v-170h-469zM1599 240q0 -117 -78 -186.5t-210 -69.5q-328 0 -328 348v59q0 172 80.5 262t228.5 90q134 0 212 -59.5t85 -167.5h-196q-15 72 -95 72
q-66 0 -101.5 -46.5t-35.5 -154.5v-18q57 92 178 92q260 0 260 -221zM874 637l-423 -696l-273 219l615 547zM1311 143q110 0 110 97q0 92 -116 92q-103 0 -138 -66q24 -123 144 -123z" />
    <glyph glyph-name="uni215A" unicode="&#x215a;" 
d="M958 885l418 659l269 -205l-601 -524zM434 717q-161 0 -233 61t-74 189v2h205v-6q0 -93 106 -93q62 0 92.5 31.5t30.5 85.5q0 94 -121 94q-64 0 -121 -65l-6 -6l-161 45l41 405h501q0 -92 -38.5 -131t-135.5 -39h-184l-23 -145q63 76 195 76q106 0 169.5 -59t63.5 -171
q0 -274 -307 -274zM1599 240q0 -117 -78 -186.5t-210 -69.5q-328 0 -328 348v59q0 172 80.5 262t228.5 90q134 0 212 -59.5t85 -167.5h-196q-15 72 -95 72q-66 0 -101.5 -46.5t-35.5 -154.5v-18q57 92 178 92q260 0 260 -221zM874 637l-423 -696l-273 219l615 547zM1311 143
q110 0 110 97q0 92 -116 92q-103 0 -138 -66q24 -123 144 -123z" />
    <glyph glyph-name="uni215B" unicode="&#x215b;" 
d="M958 885l418 659l269 -205l-601 -524zM199 731v170h155v279h-129v139q66 4 106 42.5t48 98.5h147v-559h142v-170h-469zM1286 -14q-159 0 -233 53.5t-74 159.5q0 63 33.5 108t93.5 66q-107 37 -107 157q0 97 80 154t213 57q135 0 215 -55.5t80 -155.5q0 -116 -110 -155
q58 -21 91.5 -66t33.5 -110q0 -103 -80 -158t-236 -55zM874 637l-423 -696l-273 219l615 547zM1305 432q46 0 74 21t28 63q0 37 -29.5 59.5t-85.5 22.5q-53 0 -82.5 -22.5t-29.5 -61.5q0 -40 26.5 -61t69.5 -21h29zM1290 133q60 0 94.5 23t34.5 61q0 90 -114 90h-31
q-54 0 -81.5 -24t-27.5 -66q0 -38 31.5 -61t93.5 -23z" />
    <glyph glyph-name="uni215C" unicode="&#x215c;" 
d="M958 885l418 659l269 -205l-601 -524zM426 717q-156 0 -226.5 59.5t-70.5 186.5v20h195v-14q0 -90 100 -90q59 0 83.5 17t24.5 56q0 68 -88 68h-90v149h90q80 0 80 78q0 66 -94 66q-96 0 -96 -88v-11h-193v17q0 112 76 177t215 65q131 0 207 -57.5t76 -151.5
q0 -121 -101 -160q113 -39 113 -168q0 -99 -80.5 -159t-220.5 -60zM1286 -14q-159 0 -233 53.5t-74 159.5q0 63 33.5 108t93.5 66q-107 37 -107 157q0 97 80 154t213 57q135 0 215 -55.5t80 -155.5q0 -116 -110 -155q58 -21 91.5 -66t33.5 -110q0 -103 -80 -158t-236 -55z
M874 637l-423 -696l-273 219l615 547zM1305 432q46 0 74 21t28 63q0 37 -29.5 59.5t-85.5 22.5q-53 0 -82.5 -22.5t-29.5 -61.5q0 -40 26.5 -61t69.5 -21h29zM1290 133q60 0 94.5 23t34.5 61q0 90 -114 90h-31q-54 0 -81.5 -24t-27.5 -66q0 -38 31.5 -61t93.5 -23z" />
    <glyph glyph-name="uni215D" unicode="&#x215d;" 
d="M958 885l418 659l269 -205l-601 -524zM434 717q-161 0 -233 61t-74 189v2h205v-6q0 -93 106 -93q62 0 92.5 31.5t30.5 85.5q0 94 -121 94q-64 0 -121 -65l-6 -6l-161 45l41 405h501q0 -92 -38.5 -131t-135.5 -39h-184l-23 -145q63 76 195 76q106 0 169.5 -59t63.5 -171
q0 -274 -307 -274zM1286 -14q-159 0 -233 53.5t-74 159.5q0 63 33.5 108t93.5 66q-107 37 -107 157q0 97 80 154t213 57q135 0 215 -55.5t80 -155.5q0 -116 -110 -155q58 -21 91.5 -66t33.5 -110q0 -103 -80 -158t-236 -55zM874 637l-423 -696l-273 219l615 547zM1305 432
q46 0 74 21t28 63q0 37 -29.5 59.5t-85.5 22.5q-53 0 -82.5 -22.5t-29.5 -61.5q0 -40 26.5 -61t69.5 -21h29zM1290 133q60 0 94.5 23t34.5 61q0 90 -114 90h-31q-54 0 -81.5 -24t-27.5 -66q0 -38 31.5 -61t93.5 -23z" />
    <glyph glyph-name="uni215E" unicode="&#x215e;" 
d="M958 885l418 659l269 -205l-601 -524zM322 731q45 141 81 211q89 192 218 348h-369v170h557v-151q-91 -123 -162.5 -275t-109.5 -303h-215zM1286 -14q-159 0 -233 53.5t-74 159.5q0 63 33.5 108t93.5 66q-107 37 -107 157q0 97 80 154t213 57q135 0 215 -55.5t80 -155.5
q0 -116 -110 -155q58 -21 91.5 -66t33.5 -110q0 -103 -80 -158t-236 -55zM874 637l-423 -696l-273 219l615 547zM1305 432q46 0 74 21t28 63q0 37 -29.5 59.5t-85.5 22.5q-53 0 -82.5 -22.5t-29.5 -61.5q0 -40 26.5 -61t69.5 -21h29zM1290 133q60 0 94.5 23t34.5 61
q0 90 -114 90h-31q-54 0 -81.5 -24t-27.5 -66q0 -38 31.5 -61t93.5 -23z" />
    <glyph glyph-name="uni215F" unicode="&#x215f;" 
d="M958 885l418 659l269 -205l-601 -524zM199 731v170h155v279h-129v139q66 4 106 42.5t48 98.5h147v-559h142v-170h-469zM874 637l-423 -696l-273 219l615 547z" />
    <glyph glyph-name="arrowleft" unicode="&#x2190;" horiz-adv-x="1781" 
d="M518 621q60 -49 135 -127q152 -166 209 -320h-291q-18 67 -84 168q-138 197 -346 340v119q98 66 189 160q183 196 223 348h291q-30 -82 -78 -156q-103 -168 -238 -281h1092v-251h-1102z" />
    <glyph glyph-name="arrowup" unicode="&#x2191;" horiz-adv-x="1781" 
d="M1448 776q-68 24 -158 78q-172 114 -278 240v-1094h-252v1096q-51 -60 -129 -125q-166 -140 -318 -197v291q80 22 168 80q204 133 342 334h119q72 -104 160 -189q183 -173 346 -223v-291z" />
    <glyph glyph-name="arrowright" unicode="&#x2192;" horiz-adv-x="1781" 
d="M920 174q29 81 86 162q114 173 258 285h-1102v251h1091q-66 56 -125 127q-129 151 -190 310h291q21 -72 80 -168q137 -207 331 -340v-119q-104 -72 -192 -160q-90 -89 -152.5 -180t-85.5 -168h-290z" />
    <glyph glyph-name="arrowdown" unicode="&#x2193;" horiz-adv-x="1781" 
d="M819 -18q-63 94 -157 188q-195 182 -349 223v291q68 -24 158 -78q170 -109 279 -239v1093h251v-1095q48 56 129 124q164 138 318 197v-291q-72 -21 -168 -80q-205 -133 -342 -333h-119z" />
    <glyph glyph-name="uni2196" unicode="&#x2196;" horiz-adv-x="1781" 
d="M1319 131l-776 774q8 -72 -2 -180q-16 -212 -86 -363l-205 207q38 71 61 176q55 237 6 476l84 84q123 -21 246 -21q260 10 404 88l204 -205q-71 -34 -168 -55q-177 -45 -364 -31l774 -772z" />
    <glyph glyph-name="uni2197" unicode="&#x2197;" horiz-adv-x="1781" 
d="M1288 369q-34 71 -55 168q-45 179 -31 364l-772 -774l-178 178l774 776q-113 -4 -180 2q-195 15 -363 86l207 205q71 -38 176 -61q237 -51 475 -6l84 -84q-20 -117 -20 -246q9 -253 88 -404z" />
    <glyph glyph-name="uni2198" unicode="&#x2198;" horiz-adv-x="1781" 
d="M1346 197q-102 20 -246 20q-259 -9 -404 -88l-204 205q62 32 167 55q179 45 365 31l-774 772l178 178l776 -774q-4 113 2 180q16 203 86 363l205 -207q-38 -71 -61 -176q-51 -237 -6 -475z" />
    <glyph glyph-name="uni2199" unicode="&#x2199;" horiz-adv-x="1781" 
d="M1055 125q-71 38 -176 61q-239 55 -476 7l-84 83q21 108 21 246q-10 266 -88 404l205 204q32 -62 55 -167q45 -177 31 -365l772 774l178 -178l-774 -776q72 8 180 -2q219 -17 363 -86z" />
    <glyph glyph-name="partialdiff" unicode="&#x2202;" horiz-adv-x="1339" 
d="M666 -31q-185 0 -316 70q-134 68 -204 194t-70 299v23q0 187 76 315q76 127 203 192.5t290 65.5q165 0 266 -84q-51 80 -141 164q-158 138 -530 377h405q321 -224 468 -462.5t147 -534.5v-8q0 -300 -152 -455.5t-442 -155.5zM674 205q154 0 239.5 86t85.5 246v20
q0 170 -89 260t-240 90q-147 0 -233.5 -92t-86.5 -260v-18q0 -154 86.5 -243t237.5 -89z" />
    <glyph glyph-name="uni2206" unicode="&#x2206;" horiz-adv-x="1748" 
d="M14 0l860 1487l859 -1487h-1719zM877 995l-441 -764h879z" />
    <glyph glyph-name="product" unicode="&#x220f;" horiz-adv-x="1544" 
d="M961 1208h-377v-1208h-269v1208h-268v252h1450v-252h-268v-1208h-268v1208z" />
    <glyph glyph-name="summation" unicode="&#x2211;" horiz-adv-x="1116" 
d="M1051 0h-988v299l437 449l-422 446v266h932v-231h-627l457 -481l-492 -508h703v-240z" />
    <glyph glyph-name="minus" unicode="&#x2212;" horiz-adv-x="1103" 
d="M66 612v242h976v-242h-976z" />
    <glyph glyph-name="radical" unicode="&#x221a;" horiz-adv-x="1544" 
d="M539 0l-297 776h-185v248h361l262 -702l530 1140h291l-702 -1462h-260z" />
    <glyph glyph-name="infinity" unicode="&#x221e;" 
d="M479 371q-174 0 -270 97.5t-96 268.5q0 103 47 189q50 84 133.5 131t189.5 47q114 0 206.5 -54.5t197.5 -156.5q49 48 88.5 81t90.5 65t106 48.5t114 16.5q170 0 267.5 -98.5t97.5 -266.5q0 -165 -98.5 -266.5t-266.5 -101.5q-59 0 -113.5 16t-106.5 50t-89 64t-90 79
q-108 -100 -201.5 -154.5t-206.5 -54.5zM483 602q102 0 244 135q-142 135 -244 135q-58 0 -95.5 -38t-37.5 -97t37.5 -97t95.5 -38zM1286 602q58 0 95.5 38t37.5 97t-36 97t-97 38q-96 0 -242 -135q146 -135 242 -135z" />
    <glyph glyph-name="integral" unicode="&#x222b;" horiz-adv-x="835" 
d="M-27 -74h121q75 0 119 13q40 13 54 56.5t14 143.5v1170q0 224 93 318.5t306 94.5h139v-221h-102q-73 0 -113 -16q-37 -17 -50 -63t-13 -146l-2 -1172q0 -133 -18.5 -215.5t-61.5 -128.5q-84 -84 -338 -84h-148v250z" />
    <glyph glyph-name="approxequal" unicode="&#x2248;" horiz-adv-x="1165" 
d="M344 1161q75 0 164 -28q27 -9 84.5 -30.5t88 -31.5t71.5 -19.5t71 -9.5q61 0 116 26t91 81v-252q-25 -39 -83.5 -65.5t-123.5 -26.5q-99 0 -176 31q-28 10 -80.5 29.5t-82.5 30t-69.5 19.5t-70.5 9q-61 0 -117.5 -27.5t-91.5 -79.5v254q24 40 83.5 65t125.5 25zM135 532
q24 41 83.5 66t125.5 25q72 0 164 -29q25 -9 84.5 -30.5t88.5 -31t70.5 -19t71.5 -9.5q138 0 207 106v-252q-25 -39 -83.5 -65.5t-123.5 -26.5q-99 0 -176 31q-28 10 -80.5 29.5t-82.5 30t-69.5 19.5t-70.5 9q-61 0 -117.5 -27t-91.5 -79v253z" />
    <glyph glyph-name="notequal" unicode="&#x2260;" horiz-adv-x="1165" 
d="M545 360l-64 -237h-153l63 237h-256v230h320l82 307h-402v227h463l55 203h154l-55 -203h278v-227h-340l-82 -307h422v-230h-485z" />
    <glyph glyph-name="equivalence" unicode="&#x2261;" horiz-adv-x="1165" 
d="M135 1020v227h895v-227h-895zM135 629v229h895v-229h-895zM135 238v229h895v-229h-895z" />
    <glyph glyph-name="lessequal" unicode="&#x2264;" horiz-adv-x="1165" 
d="M129 821v213l897 365v-250l-606 -217l606 -219v-262zM135 78v229h895v-229h-895z" />
    <glyph glyph-name="greaterequal" unicode="&#x2265;" horiz-adv-x="1165" 
d="M139 713l606 219l-606 217v250l897 -365v-213l-897 -370v262zM135 78v229h895v-229h-895z" />
    <glyph glyph-name="uni22A0" unicode="&#x22a0;" horiz-adv-x="1796" 
d="M174 1460h1448v-1460h-1448v1460zM438 248h920v964h-920v-964zM895 582l-223 -232l-156 152l229 235l-231 238l156 149l227 -231l227 233l154 -149l-231 -240l231 -235l-156 -154z" />
    <glyph glyph-name="house" unicode="&#x2302;" horiz-adv-x="1656" 
d="M174 0v815l655 629l654 -629v-815h-1309z" />
    <glyph glyph-name="filledbox" unicode="&#x25a0;" horiz-adv-x="1796" 
d="M174 1460h1448v-1460h-1448v1460z" />
    <glyph glyph-name="uni25A1" unicode="&#x25a1;" horiz-adv-x="1796" 
d="M174 0v1460h1448v-1460h-1448zM438 1212v-964h920v964h-920z" />
    <glyph glyph-name="uni25AA" unicode="&#x25aa;" horiz-adv-x="1499" 
d="M174 1151h1151v-1151h-1151v1151z" />
    <glyph glyph-name="uni25AB" unicode="&#x25ab;" horiz-adv-x="1499" 
d="M174 1151h1151v-1151h-1151v1151zM438 248h627v657h-627v-657z" />
    <glyph glyph-name="triagup" unicode="&#x25b2;" horiz-adv-x="1746" 
d="M14 0l863 1491l856 -1491h-1719z" />
    <glyph glyph-name="triagrt" unicode="&#x25ba;" horiz-adv-x="1746" 
d="M174 1606l1491 -861l-1491 -858v1719z" />
    <glyph glyph-name="triagdn" unicode="&#x25bc;" horiz-adv-x="1746" 
d="M1733 1466l-856 -1491l-863 1491h1719z" />
    <glyph glyph-name="triaglf" unicode="&#x25c4;" horiz-adv-x="1746" 
d="M1573 -113l-1491 858l1491 861v-1719z" />
    <glyph glyph-name="lozenge" unicode="&#x25ca;" horiz-adv-x="1597" 
d="M41 729l758 758l762 -762l-758 -758zM805 303l418 418l-428 428l-418 -418z" />
    <glyph glyph-name="circle" unicode="&#x25cb;" horiz-adv-x="1779" 
d="M887 -20q-213 0 -379 94q-169 96 -261.5 262t-92.5 381q0 318 206 530q205 211 527 211q321 0 530 -209q100 -100 154.5 -236t54.5 -296q0 -316 -207 -529q-208 -208 -532 -208zM887 242q138 0 243 63q109 62 170.5 170t61.5 242q0 132 -62 244q-63 112 -170 175.5
t-243 63.5q-127 0 -238 -63q-109 -65 -170 -174.5t-61 -245.5q0 -135 61 -242q65 -110 171 -171.5t237 -61.5z" />
    <glyph glyph-name="uni25CE" unicode="&#x25ce;" horiz-adv-x="1779" 
d="M887 -20q-213 0 -379 94q-169 96 -261.5 262t-92.5 381q0 318 206 530q205 211 527 211q321 0 530 -209q100 -100 154.5 -236t54.5 -296q0 -316 -207 -529q-208 -208 -532 -208zM887 242q138 0 243 63q109 62 170.5 170t61.5 242q0 132 -62 244q-63 112 -170 175.5
t-243 63.5q-127 0 -238 -63q-109 -65 -170 -174.5t-61 -245.5q0 -135 61 -242q65 -110 171 -171.5t237 -61.5zM889 375q-102 0 -176 45q-78 43 -122 120t-44 175q0 102 45 176q45 79 123 123.5t174 44.5q102 0 176 -45q80 -45 125 -123t45 -176q0 -100 -45 -174
q-45 -78 -123 -122t-178 -44zM889 600q49 0 79.5 33.5t30.5 81.5q0 54 -30 86.5t-80 32.5q-45 0 -76 -33t-31 -86q0 -47 31.5 -81t75.5 -34z" />
    <glyph glyph-name="uni25CF" unicode="&#x25cf;" horiz-adv-x="1779" 
d="M887 -20q-213 0 -379 94q-169 96 -261.5 262t-92.5 381q0 318 206 530q205 211 527 211q321 0 530 -209q100 -100 154.5 -236t54.5 -296q0 -316 -207 -529q-208 -208 -532 -208z" />
    <glyph glyph-name="uni25E2" unicode="&#x25e2;" horiz-adv-x="1746" 
d="M508 -145l-442 1661l1658 -445z" />
    <glyph glyph-name="uni25E3" unicode="&#x25e3;" horiz-adv-x="1746" 
d="M27 1071l1661 445l-445 -1661z" />
    <glyph glyph-name="uni25E4" unicode="&#x25e4;" horiz-adv-x="1746" 
d="M33 336l1216 1216l445 -1658z" />
    <glyph glyph-name="uni25E5" unicode="&#x25e5;" horiz-adv-x="1746" 
d="M63 -115l445 1659l1214 -1218z" />
    <glyph glyph-name="uni2605" unicode="&#x2605;" horiz-adv-x="1753" 
d="M1247 170l-375 272l-376 -272l147 440l-373 273l457 -2l147 436l142 -436l463 -2l-379 -271z" />
    <glyph glyph-name="sun" unicode="&#x263c;" horiz-adv-x="1810" 
d="M846 1425h106l-34 -286h-39zM496 1305l96 55l108 -264l-26 -21zM1206 1360l92 -55l-174 -230l-30 21zM256 1024l53 92l232 -174l-21 -31zM1483 1116l59 -90l-264 -115l-21 33zM549 713q0 99 47 176q48 81 127.5 128.5t173.5 47.5q93 0 176 -47q81 -51 128.5 -130.5
t47.5 -174.5q0 -98 -49 -174q-48 -81 -128 -127.5t-175 -46.5q-97 0 -174 47q-81 48 -127.5 127.5t-46.5 173.5zM190 664v106l285 -35v-37zM1608 770v-106l-287 34v37zM313 313l-57 95l264 110l21 -29zM1542 410l-55 -97l-230 179l21 26zM592 74l-96 53l178 231l26 -20z
M1298 127l-92 -53l-112 264l30 20zM952 8h-106l33 287h39z" />
    <glyph glyph-name="uni263E" unicode="&#x263e;" horiz-adv-x="1525" 
d="M1047 1214q-130 0 -242 -67q-112 -72 -176 -186.5t-64 -251.5q0 -132 66 -252q66 -116 175 -183t241 -67q60 0 141 24q-160 -116 -357 -116q-123 0 -231 45t-188 129q-174 174 -174 420q0 247 174 421q80 84 188.5 129.5t230.5 45.5q201 0 357 -115q-81 24 -141 24z" />
    <glyph glyph-name="spade" unicode="&#x2660;" horiz-adv-x="1757" 
d="M942 569q0 -162 80 -336q19 -45 41.5 -90t46 -88.5t29.5 -54.5h-508q9 17 32 63.5t39 75.5q115 240 115 430q-23 -63 -67 -129q-101 -137 -269 -137q-97 0 -168 43q-77 42 -122.5 113t-45.5 155q0 109 48 207q48 93 147 193t270 235l275 219l276 -219q175 -139 262 -231
q99 -102 143 -196.5t44 -207.5q0 -84 -41 -155q-44 -74 -113.5 -115t-157.5 -41q-97 0 -165 39q-130 71 -191 227z" />
    <glyph glyph-name="club" unicode="&#x2663;" horiz-adv-x="1757" 
d="M1274 258q-112 0 -198 64.5t-126 169.5q12 -100 51 -199q36 -96 140 -293h-508q34 65 61 121q101 203 121 373q-42 -106 -130.5 -171t-201.5 -65q-93 0 -176 47q-79 48 -125.5 128t-46.5 175q0 101 47 174q48 81 126.5 126.5t174.5 45.5q30 0 84 -12q-41 84 -41 172
q0 101 47 174q48 79 128 124.5t176 45.5q101 0 174 -47q79 -45 124.5 -123t45.5 -174q0 -94 -39 -176q50 16 94 16q101 0 174 -47q79 -45 124.5 -124t45.5 -175q0 -98 -47 -176q-45 -80 -124 -127t-175 -47z" />
    <glyph glyph-name="heart" unicode="&#x2665;" horiz-adv-x="1757" 
d="M596 276q-153 167 -262 322q-98 139 -142.5 256t-44.5 233q0 99 48 187q50 86 131.5 135t181.5 49q109 0 180 -43q81 -43 130 -116t56 -164q9 89 56 163q49 75 127 117.5t178 42.5q103 0 186 -51q86 -50 136.5 -134.5t50.5 -185.5q0 -118 -45 -231q-47 -119 -146 -257
t-268 -323l-275 -311z" />
    <glyph glyph-name="diamond" unicode="&#x2666;" horiz-adv-x="1757" 
d="M879 1475l641 -746l-641 -749l-643 749z" />
    <glyph glyph-name="uni267B" unicode="&#x267b;" horiz-adv-x="1611" 
d="M676 1366h330q30 -1 45.5 -3t37.5 -9t38 -23t32 -43l49 -84l74 43l-106 -286l-291 55l67 41l-121 213q-20 39 -63 63q-22 12 -45 19.5t-35 9.5l-12 2v2zM444 1262q7 13 23 28.5t33 22.5q56 29 110 26q58 -4 105 -28.5t65 -57.5l-196 -342l-256 148zM1479 737
q14 -33 14 -71q0 -62 -33 -109q-31 -48 -76.5 -76t-83.5 -28l-196 340l254 143zM301 252l-162 283q-19 33 -26.5 54t-4.5 53t23 67l49 84l-74 43l300 53l98 -285l-68 43l-61 -102q-64 -110 -64 -111q-22 -43 -22 -86q0 -24 4 -48t8 -36l4 -12h-4zM1460 494l-168 -287
q-16 -26 -24.5 -37.5t-26 -28.5t-41 -23.5t-55.5 -6.5h-96v-82l-191 231l191 232v-86h243q49 0 88 22q22 14 41.5 31t28.5 27l8 10zM518 111q-37 0 -74 22q-55 36 -77 84q-26 52 -29 105.5t16 83.5h394v-295h-230z" />
    <glyph glyph-name="uni267C" unicode="&#x267c;" horiz-adv-x="1611" 
d="M1485 709q0 -140 -51.5 -262.5t-147.5 -215.5q-94 -94 -216.5 -145t-260.5 -51q-139 0 -262.5 51t-220.5 145q-96 93 -148.5 216t-52.5 262q0 284 201 485q199 199 483 199q139 0 261.5 -51.5t215.5 -147.5q199 -199 199 -485zM692 1227l23 -4q72 -18 100 -72l94 -164
l-51 -33l225 -43l80 222l-57 -29l-35 61q-24 41 -51 52.5t-72 11.5h-256v-2zM434 989l199 -112l149 262q-12 24 -49 45q-93 47 -168 2q-32 -18 -43 -43zM1233 897l-199 -117l154 -266q22 0 63 23q84 59 84 149q0 27 -16 55zM416 362q-4 7 -6 23q-23 63 10 121l94 166l55 -35
l-80 219l-225 -39l53 -35l-38 -65q-8 -14 -12 -27.5t-5.5 -22t1.5 -22.5t4.5 -19t8.5 -22.5t9 -21.5l129 -220h2zM1305 549q-5 -7 -15 -17q-37 -47 -110 -47h-189v60l-149 -176l149 -179v68h76q11 0 21 1t18.5 4t15 5t13.5 8t10.5 8.5t10 10t8 10t8.5 12t8 11.5l127 219z
M752 258v227h-306q-14 -22 -14 -67q2 -43 23.5 -82t58.5 -62q37 -16 59 -16h179z" />
    <glyph glyph-name="uni267D" unicode="&#x267d;" horiz-adv-x="1611" 
d="M1485 709q0 -140 -51.5 -262.5t-147.5 -215.5q-94 -94 -216.5 -145t-260.5 -51q-139 0 -262.5 51t-220.5 145q-96 93 -148.5 216t-52.5 262q0 284 201 485q199 199 483 199q139 0 261.5 -51.5t215.5 -147.5q199 -199 199 -485zM1452 709q0 269 -188 460
q-189 189 -455 189q-133 0 -250.5 -49t-208.5 -140q-190 -190 -190 -460q0 -268 190 -455q186 -186 459 -186q269 0 455 186q188 188 188 455zM692 1229h256q45 0 72 -11.5t51 -52.5l35 -61l57 29l-80 -222l-225 43l51 33l-94 164q-20 33 -49 49q-17 10 -35.5 17t-28.5 9
l-10 1v2zM522 1143q11 25 43 43q39 23 86 20q45 -5 82 -23t49 -44l-149 -262l-199 112zM1319 741q16 -28 16 -55q0 -48 -24 -86q-25 -38 -59.5 -62t-63.5 -24l-154 266l199 117zM414 362l-129 220q-2 4 -9 21.5t-8.5 22.5t-4.5 19t-1.5 22.5t5.5 22t12 27.5l38 65l-53 35
l225 39l80 -219l-55 35l-94 -166q-19 -31 -19 -68q0 -19 3.5 -38t7.5 -28l4 -10h-2zM1307 547l-127 -219q-2 -3 -7.5 -10.5t-7.5 -10.5t-7 -9.5t-8.5 -9.5t-9 -8t-10.5 -7.5t-12.5 -6t-14.5 -5t-16.5 -2.5t-19.5 -1h-76v-68l-149 179l149 176v-60h189q38 0 69 17q16 8 30 20
t20 20l6 7zM573 258q-22 0 -59 16q-38 21 -59 62q-20 40 -21.5 83t12.5 66h306v-227h-179z" />
    <glyph glyph-name="uni26AC" unicode="&#x26ac;" horiz-adv-x="1505" 
d="M752 -20q-176 0 -312 77q-139 79 -216 215t-77 308q0 168 80 309q85 137 222 215t303 78q169 0 307 -78q141 -81 220 -216.5t79 -307.5q0 -175 -80 -306q-81 -138 -217.5 -216t-308.5 -78zM752 221q103 0 176 47q78 44 122 126t44 186q0 108 -45 188q-44 81 -120.5 126.5
t-176.5 45.5q-152 0 -245 -99.5t-93 -260.5q0 -114 43 -185q41 -84 117.5 -129t177.5 -45z" />
    <glyph glyph-name="uni2E18" unicode="&#x2e18;" horiz-adv-x="1359" 
d="M686 1204q99 0 139.5 -39t40.5 -141q0 -98 -43 -138t-137 -40q-93 0 -136.5 40t-43.5 138q0 95 44 137.5t136 42.5zM668 -305q-191 0 -312 59q-120 58 -179.5 155t-59.5 218q0 199 119 293q20 16 42 30t47.5 27t42.5 21t48 22t43 19q61 27 93 62t36 91l4 70q92 -8 94 -8
q26 0 98 8q5 -15 9 -90q8 -164 8 -588v-156q92 25 132 92t40 179v32h268v-47q0 -239 -143 -364t-430 -125zM379 141q0 -83 48 -141.5t146 -77.5v162q0 124 11 289l-97 -56q-52 -29 -80 -69.5t-28 -106.5z" />
    <glyph glyph-name="uni3008" unicode="&#x3008;" horiz-adv-x="724" 
d="M434 -360l-377 950l359 952h286l-350 -944l381 -958h-299z" />
    <glyph glyph-name="uni3009" unicode="&#x3009;" horiz-adv-x="724" 
d="M-8 -360l381 958l-350 944h290l355 -952l-373 -950h-303z" />
    <glyph glyph-name="I.alt" horiz-adv-x="563" 
d="M145 0v1460h273v-1460h-273z" />
    <glyph glyph-name="Iacute.alt" horiz-adv-x="563" 
d="M477 2054h293l-379 -426h-211zM145 0v1460h273v-1460h-273z" />
    <glyph glyph-name="Ibreve.alt" horiz-adv-x="563" 
d="M281 1624q-161 0 -250 53q-86 53 -123 149t-37 238h195q0 -128 51.5 -191.5t165.5 -64.5q114 1 165.5 64.5t51.5 191.5h198q0 -440 -417 -440zM145 0v1460h273v-1460h-273z" />
    <glyph glyph-name="Icircumflex.alt" horiz-adv-x="563" 
d="M285 1872l-166 -244h-236l305 426h193l305 -426h-233zM145 0v1460h273v-1460h-273z" />
    <glyph glyph-name="Idieresis.alt" horiz-adv-x="563" 
d="M76 1622q-86 0 -121 34t-35 122q0 82 38.5 117.5t117.5 35.5q80 0 117.5 -35t37.5 -118q0 -82 -37.5 -119t-117.5 -37zM500 1622q-87 0 -121.5 34t-34.5 122q0 83 38 118t118 35t117.5 -35t37.5 -118q0 -82 -38 -119t-117 -37zM145 0v1460h273v-1460h-273z" />
    <glyph glyph-name="Idotaccent.alt" horiz-adv-x="563" 
d="M285 1622q-96 0 -135 38t-39 134q0 93 42.5 131.5t131.5 38.5q88 0 130 -39t42 -131q0 -91 -42 -131.5t-130 -40.5zM145 0v1460h273v-1460h-273z" />
    <glyph glyph-name="Igrave.alt" horiz-adv-x="563" 
d="M-195 2054h293l297 -426h-211zM145 0v1460h273v-1460h-273z" />
    <glyph glyph-name="Imacron.alt" horiz-adv-x="563" 
d="M-47 1827h676v-199h-676v199zM145 0v1460h273v-1460h-273z" />
    <glyph glyph-name="Iogonek.alt" horiz-adv-x="563" 
d="M635 -258q-98 -256 -385 -256q-149 0 -231 60t-82 178q0 83 44.5 156t163.5 147v1433h273v-1460q-48 -29 -164 -109q-57 -42 -80.5 -75.5t-23.5 -71.5q0 -43 31 -66.5t85 -23.5q46 0 80.5 25t48.5 63h240z" />
    <glyph glyph-name="Itilde.alt" horiz-adv-x="563" 
d="M-158 1628q0 328 262 328q89 0 199 -70q33 -23 52 -34.5t47 -23t51 -11.5q49 0 67.5 28.5t20.5 100.5h180q0 -162 -59.5 -245t-206.5 -83q-111 0 -199 70q-34 23 -51.5 34t-46 22t-54.5 11q-42 0 -60.5 -30t-20.5 -97h-181zM145 0v1460h273v-1460h-273z" />
    <glyph glyph-name="g.alt" horiz-adv-x="1232" 
d="M592 -535q-222 0 -340 37q-114 34 -162.5 94.5t-48.5 149.5q0 201 268 262q-229 33 -229 219q0 88 65.5 149t184.5 91q-234 77 -234 313v4q0 166 116 272t345 130l59 8q108 13 146 20q46 7 62 34.5t16 94.5v31h311v-14q0 -123 -71 -168.5t-249 -50.5q156 -24 240 -115.5
t84 -226.5v-8q0 -188 -141 -295t-391 -107h-19q-116 0 -184 -10q-61 -10 -84 -28.5t-23 -49.5q0 -41 46.5 -59t150.5 -17h240q241 0 357 -89t116 -253q0 -195 -154.5 -306.5t-454.5 -111.5h-22zM623 580q264 0 264 208v7q0 116 -70.5 167.5t-189.5 51.5q-115 0 -186.5 -56
t-71.5 -165v-7q0 -101 66 -153.5t188 -52.5zM616 -313q175 0 266 50.5t91 131.5q0 64 -55 97.5t-179 33.5h-221q-105 -10 -159 -53t-54 -107v-4q0 -62 65.5 -105.5t194.5 -43.5h51z" />
    <glyph glyph-name="gbreve.alt" horiz-adv-x="1368" 
d="M674 1362q-161 0 -250 53q-86 53 -123 149t-37 238h195q0 -128 51.5 -191.5t165.5 -64.5q114 1 165.5 64.5t51.5 191.5h199q0 -440 -418 -440zM674 -528q-169 0 -291 39q-116 38 -182.5 124t-96.5 232h285q17 -61 46 -97t90.5 -57.5t160.5 -21.5q105 0 166 37
q123 73 123 221v276q-49 -118 -149.5 -184t-250.5 -66q-142 0 -256 66q-117 68 -180 199.5t-63 322.5v31q0 292 135.5 452t374.5 160q151 0 251 -71t146 -197l29 240h223v-1201q0 -152 -59 -264q-127 -241 -502 -241zM657 203q149 0 236.5 100.5t87.5 265.5v19
q0 183 -83.5 286t-229.5 103q-153 0 -235.5 -98.5t-82.5 -286.5v-25q0 -173 85 -268.5t222 -95.5z" />
    <glyph glyph-name="gcircumflex.alt" horiz-adv-x="1368" 
d="M678 1610l-166 -244h-236l306 426h192l305 -426h-233zM674 -528q-169 0 -291 39q-116 38 -182.5 124t-96.5 232h285q17 -61 46 -97t90.5 -57.5t160.5 -21.5q105 0 166 37q123 73 123 221v276q-49 -118 -149.5 -184t-250.5 -66q-142 0 -256 66q-117 68 -180 199.5
t-63 322.5v31q0 292 135.5 452t374.5 160q151 0 251 -71t146 -197l29 240h223v-1201q0 -152 -59 -264q-127 -241 -502 -241zM657 203q149 0 236.5 100.5t87.5 265.5v19q0 183 -83.5 286t-229.5 103q-153 0 -235.5 -98.5t-82.5 -286.5v-25q0 -173 85 -268.5t222 -95.5z" />
    <glyph glyph-name="gcommaaccent.alt" horiz-adv-x="1368" 
d="M674 1360q-87 0 -122.5 45t-35.5 158q0 151 73 248.5t216 117.5v-135q-60 -10 -89.5 -45.5t-37.5 -101.5q6 2 22 2q75 0 103 -27t28 -113q0 -84 -35.5 -116.5t-121.5 -32.5zM674 -528q-169 0 -291 39q-116 38 -182.5 124t-96.5 232h285q17 -61 46 -97t90.5 -57.5
t160.5 -21.5q105 0 166 37q123 73 123 221v276q-49 -118 -149.5 -184t-250.5 -66q-142 0 -256 66q-117 68 -180 199.5t-63 322.5v31q0 292 135.5 452t374.5 160q151 0 251 -71t146 -197l29 240h223v-1201q0 -152 -59 -264q-127 -241 -502 -241zM657 203q149 0 236.5 100.5
t87.5 265.5v19q0 183 -83.5 286t-229.5 103q-153 0 -235.5 -98.5t-82.5 -286.5v-25q0 -173 85 -268.5t222 -95.5z" />
    <glyph glyph-name="gdotaccent.alt" horiz-adv-x="1368" 
d="M678 1360q-96 0 -135 38t-39 134q0 93 42.5 131.5t131.5 38.5q88 0 130 -39t42 -131q0 -91 -42 -131.5t-130 -40.5zM674 -528q-169 0 -291 39q-116 38 -182.5 124t-96.5 232h285q17 -61 46 -97t90.5 -57.5t160.5 -21.5q105 0 166 37q123 73 123 221v276
q-49 -118 -149.5 -184t-250.5 -66q-142 0 -256 66q-117 68 -180 199.5t-63 322.5v31q0 292 135.5 452t374.5 160q151 0 251 -71t146 -197l29 240h223v-1201q0 -152 -59 -264q-127 -241 -502 -241zM657 203q149 0 236.5 100.5t87.5 265.5v19q0 183 -83.5 286t-229.5 103
q-153 0 -235.5 -98.5t-82.5 -286.5v-25q0 -173 85 -268.5t222 -95.5z" />
    <glyph glyph-name="g.alt2" horiz-adv-x="1368" 
d="M674 -528q-169 0 -291 39q-116 38 -182.5 124t-96.5 232h285q17 -61 46 -97t90.5 -57.5t160.5 -21.5q105 0 166 37q123 73 123 221v276q-49 -118 -149.5 -184t-250.5 -66q-142 0 -256 66q-117 68 -180 199.5t-63 322.5v31q0 292 135.5 452t374.5 160q151 0 251 -71
t146 -197l29 240h223v-1201q0 -152 -59 -264q-127 -241 -502 -241zM657 203q149 0 236.5 100.5t87.5 265.5v19q0 183 -83.5 286t-229.5 103q-153 0 -235.5 -98.5t-82.5 -286.5v-25q0 -173 85 -268.5t222 -95.5z" />
    <glyph glyph-name="i.dot" horiz-adv-x="536" 
d="M272 1305q-98 0 -138 39t-40 139q0 96 43 136t135 40t135.5 -40t43.5 -136q0 -94 -43.5 -136t-135.5 -42zM133 0v1178h273v-1178h-273z" />
    <glyph glyph-name="zero.inf" horiz-adv-x="714" 
d="M356 -324q-305 0 -305 349v59q0 172 79.5 262t225.5 90q143 0 225.5 -90t82.5 -260v-61q0 -173 -79.5 -261t-228.5 -88zM356 -137q107 0 107 164v57q0 166 -107 166q-56 0 -80 -42t-24 -124v-59q0 -80 24 -121t80 -41z" />
    <glyph glyph-name="one.inf" horiz-adv-x="530" 
d="M35 -307v170h155v278h-129v140q66 4 106 42.5t48 98.5h147v-559h142v-170h-469z" />
    <glyph glyph-name="two.inf" horiz-adv-x="659" 
d="M41 -307v98q0 83 39 131q24 32 63 61t68.5 44.5t77.5 38.5q68 34 101.5 65t33.5 76q0 35 -21 54.5t-73 19.5q-54 0 -74 -29t-20 -80v-25h-189v31q0 123 74.5 189.5t212.5 66.5q144 0 214 -60.5t70 -162.5q0 -68 -28 -119q-48 -74 -170 -135q-45 -21 -66 -31.5t-48 -30
t-40 -38.5h352v-164h-577z" />
    <glyph glyph-name="three.inf" horiz-adv-x="681" 
d="M334 -322q-156 0 -226.5 59.5t-70.5 186.5v21h194v-15q0 -90 101 -90q59 0 83.5 17.5t24.5 56.5q0 68 -88 68h-90v149h90q80 0 80 78q0 65 -94 65q-96 0 -96 -88v-10h-193v17q0 112 76 176.5t215 64.5q131 0 207 -57.5t76 -151.5q0 -120 -101 -159q113 -39 113 -168
q0 -99 -81 -159.5t-220 -60.5z" />
    <glyph glyph-name="four.inf" horiz-adv-x="677" 
d="M559 -168v-139h-162v139h-377v129l381 461h158v-445h115v-145h-115zM231 -23h166v154l6 59l-32 -45z" />
    <glyph glyph-name="five.inf" horiz-adv-x="681" 
d="M350 -322q-161 0 -233 61t-74 189v2h205v-6q0 -92 106 -92q62 0 92.5 31t30.5 86q0 94 -121 94q-63 0 -120 -66l-7 -6l-161 45l41 406h501q0 -92 -38.5 -131t-135.5 -39h-184l-23 -146q63 76 195 76q106 0 169.5 -58.5t63.5 -170.5q0 -275 -307 -275z" />
    <glyph glyph-name="six.inf" horiz-adv-x="716" 
d="M668 -68q0 -117 -78.5 -186.5t-210.5 -69.5q-328 0 -328 349v59q0 172 80.5 262t228.5 90q134 0 212 -59.5t85 -167.5h-196q-15 72 -94 72q-138 0 -138 -201v-19q58 93 179 93q260 0 260 -222zM379 -164q110 0 110 96q0 93 -116 93q-102 0 -137 -66q24 -123 143 -123z
" />
    <glyph glyph-name="seven.inf" horiz-adv-x="602" 
d="M94 -307q42 130 82 211q90 195 217 348h-368v170h557v-152q-91 -123 -163 -275t-110 -302h-215z" />
    <glyph glyph-name="eight.inf" horiz-adv-x="716" 
d="M354 -322q-159 0 -233 53.5t-74 159.5q0 64 34 109t93 66q-106 37 -106 157q0 98 79.5 154.5t212.5 56.5q135 0 215 -55.5t80 -155.5q0 -116 -110 -155q58 -21 91.5 -66.5t33.5 -110.5q0 -103 -80 -158t-236 -55zM373 125q46 0 74 21t28 63q0 37 -29.5 59.5t-85.5 22.5
q-53 0 -82.5 -22.5t-29.5 -61.5q0 -40 26.5 -61t69.5 -21h29zM358 -174q60 0 94.5 23t34.5 61q0 90 -114 90h-31q-54 0 -81.5 -24t-27.5 -66q0 -38 31.5 -61t93.5 -23z" />
    <glyph glyph-name="nine.inf" horiz-adv-x="690" 
d="M342 -326q-133 0 -211 62.5t-86 171.5h197q16 -78 94 -78q66 0 101.5 46.5t35.5 154.5v28q-48 -102 -178 -102q-260 0 -260 221q0 117 75 186.5t212 69.5q159 0 244 -86t85 -262v-59q0 -353 -309 -353zM330 86q108 0 135 78q-24 110 -135 110q-55 0 -86 -24.5t-31 -71.5
q0 -92 117 -92z" />
    <glyph glyph-name="underscore" horiz-adv-x="1343" 
d="M1286 0h-1229v270h1229v-270z" />
    <glyph glyph-name="backslash.cap" horiz-adv-x="757" 
d="M305 1460l436 -1460h-290l-437 1460h291z" />
    <glyph glyph-name="periodcentered.cap" horiz-adv-x="622" 
d="M309 553q-99 0 -139.5 40t-40.5 140q0 98 43.5 138t136.5 40q94 0 137 -40t43 -138q0 -95 -44 -137.5t-136 -42.5z" />
    <glyph glyph-name="bullet.cap" horiz-adv-x="681" 
d="M340 381q-114 0 -162.5 48.5t-48.5 162.5q0 113 52 162t159 49q111 0 162 -47t51 -164q0 -112 -51.5 -161.5t-161.5 -49.5z" />
    <glyph glyph-name="uni2016.cap" horiz-adv-x="1146" 
d="M154 -129v1731h268v-1731h-268zM725 -129v1731h268v-1731h-268z" />
    <glyph glyph-name="exclamdown.cap" horiz-adv-x="657" 
d="M328 1487q99 0 139.5 -39t40.5 -141q0 -98 -43 -138.5t-137 -40.5q-93 0 -137 40.5t-44 138.5q0 95 44.5 137.5t136.5 42.5zM180 0v365q0 187 10 307q13 260 39 372q92 -8 95 -8q22 0 94 8q7 -22 20 -126q29 -280 29 -553v-365h-287z" />
    <glyph glyph-name="uni2E18.cap" horiz-adv-x="1359" 
d="M686 1479q99 0 139.5 -39.5t40.5 -141.5q0 -98 -43 -138t-137 -40q-93 0 -136.5 40t-43.5 138q0 95 44 138t136 43zM668 -31q-189 0 -312 60q-119 58 -179 155t-60 217q0 199 119 293q20 16 42 30t47.5 27t42.5 21t48 22t43 19q60 27 92.5 62t36.5 92l4 69q92 -8 94 -8
q26 0 98 8q5 -9 9 -69q8 -159 8 -609v-155q92 25 132 92t40 178v33h268v-47q0 -239 -143 -364.5t-430 -125.5zM379 416q0 -82 47.5 -139.5t146.5 -79.5v161q0 124 11 289l-97 -55q-52 -29 -80 -69.5t-28 -106.5z" />
    <glyph glyph-name="questiondown.cap" horiz-adv-x="1359" 
d="M778 1483q99 0 139.5 -39t40.5 -141q0 -98 -43 -138.5t-137 -40.5q-93 0 -136.5 40.5t-43.5 138.5q0 95 44 137.5t136 42.5zM649 1055q39 -27 129 -27q103 0 133 27q4 -36 4 -99v-30q0 -96 -36 -146q-32 -50 -81.5 -80.5t-125.5 -62.5q-35 -14 -103 -47
q-54 -29 -82 -68.5t-28 -101.5q0 -97 68.5 -156t207.5 -59q154 0 224.5 69.5t70.5 202.5v33h275v-47q0 -239 -143.5 -364.5t-430.5 -125.5q-188 0 -311 60q-119 58 -179.5 156t-60.5 217q0 123 41 194q37 65 92 105t133 77q37 17 45 20.5t38.5 19t39 22.5t28.5 23t27 29.5
t14 33t7 41.5z" />
    <glyph glyph-name="slash.cap" horiz-adv-x="757" 
d="M16 0l430 1460h297l-430 -1460h-297z" />
    <glyph glyph-name="uni3008.cap" horiz-adv-x="724" 
d="M446 -238l-372 951l354 952h266l-350 -944l381 -959h-279z" />
    <glyph glyph-name="uni3009.cap" horiz-adv-x="724" 
d="M0 -238l381 959l-350 944h266l354 -952l-372 -951h-279z" />
    <glyph glyph-name="braceleft.cap" horiz-adv-x="864" 
d="M528 -238q-127 0 -200 37q-127 66 -127 234q0 90 71 239q5 12 17 39.5t17 39.5t13.5 34t12.5 34.5t7 28t3 27.5q0 70 -36 103.5t-113 33.5h-144v240h133q75 0 109.5 31.5t34.5 97.5q0 43 -29 119q-29 67 -43 101t-29.5 91.5t-15.5 102.5q0 67 29 133q58 137 297 137h268
v-211h-125q-189 0 -189 -143q0 -38 29 -107q62 -130 77 -184q11 -44 11 -80q0 -201 -250 -201v-12q131 0 193.5 -59t62.5 -152q0 -76 -61 -213q-62 -139 -62 -186q0 -71 43.5 -107.5t143.5 -36.5h127v-211h-275z" />
    <glyph glyph-name="braceright.cap" horiz-adv-x="864" 
d="M61 -27h127q100 0 143.5 36.5t43.5 107.5q0 47 -62 186q-61 137 -61 213q0 92 63 151.5t193 59.5v12q-250 0 -250 201q0 55 29 131q8 19 24 54.5t25 55.5t19.5 46.5t15 47t4.5 36.5q0 143 -189 143h-125v211h269q127 0 200 -37q125 -68 125 -233q0 -71 -28 -150
q-10 -26 -29.5 -73t-30 -74t-19.5 -60.5t-9 -56.5q0 -66 34 -97.5t109 -31.5h133v-240h-143q-150 0 -150 -137q0 -52 72 -203q70 -164 70 -239q0 -69 -29 -135q-58 -136 -299 -136h-275v211z" />
    <glyph glyph-name="bracketleft.cap" horiz-adv-x="817" 
d="M754 -238h-598v1903h598v-217h-330v-1468h330v-218z" />
    <glyph glyph-name="bracketright.cap" horiz-adv-x="817" 
d="M66 -238v218h329v1468h-329v215h598v-1901h-598z" />
    <glyph glyph-name="parenleft.cap" horiz-adv-x="851" 
d="M791 -240q-200 12 -353 111q-319 203 -319 786v101q0 300 88 495q84 193 234.5 296.5t349.5 117.5v-248q-184 -21 -287 -183.5t-103 -487.5v-70q0 -319 103.5 -482.5t286.5 -181.5v-254z" />
    <glyph glyph-name="parenright.cap" horiz-adv-x="851" 
d="M61 14q183 18 286.5 181.5t103.5 482.5v70q0 323 -102.5 486t-287.5 183v250q187 -12 347 -115q325 -219 325 -794v-101q0 -295 -84 -495q-164 -377 -588 -402v254z" />
    <glyph glyph-name="parenleft.inf" horiz-adv-x="524" 
d="M80 70q0 192 55 305q55 119 149 183.5t216 72.5v-180q-56 -6 -98 -29t-75 -67t-50 -117.5t-17 -174.5v-43q0 -118 31 -213q60 -146 209 -159v-193q-196 11 -308 147.5t-112 405.5v62z" />
    <glyph glyph-name="parenright.inf" horiz-adv-x="524" 
d="M25 -354q72 9 122 45q117 80 117 329v43q0 146 -31 220q-55 150 -208 166v182q118 -9 215 -72q204 -138 204 -489v-62q0 -270 -111.5 -406t-307.5 -147v191z" />
    <glyph glyph-name="emdash.cap" horiz-adv-x="1236" 
d="M1130 604h-1024v268h1024v-268z" />
    <glyph glyph-name="endash.cap" horiz-adv-x="868" 
d="M762 604h-656v268h656v-268z" />
    <glyph glyph-name="figuredash.cap" horiz-adv-x="1441" 
d="M1335 604h-1229v268h1229v-268z" />
    <glyph glyph-name="uni2015.cap" horiz-adv-x="1339" 
d="M1233 604h-1127v268h1127v-268z" />
    <glyph glyph-name="hyphen.cap" horiz-adv-x="1105" 
d="M999 604h-893v268h893v-268z" />
    <glyph glyph-name="guillemotleft.cap" horiz-adv-x="1310" 
d="M489 303l-311 406v30l297 412h240l-299 -412l336 -436h-263zM971 303l-328 412v35l293 401h244l-297 -406l350 -442h-262z" />
    <glyph glyph-name="guillemotright.cap" horiz-adv-x="1310" 
d="M98 303l351 442l-297 406h243l293 -401v-35l-328 -412h-262zM580 303l335 436l-299 412h240l297 -412v-30l-311 -406h-262z" />
    <glyph glyph-name="guilsinglleft.cap" horiz-adv-x="854" 
d="M489 303l-311 397v35l293 416h250l-301 -422l332 -426h-263z" />
    <glyph glyph-name="guilsinglright.cap" horiz-adv-x="854" 
d="M102 303l332 426l-301 422h250l293 -416v-35l-311 -397h-263z" />
    <glyph glyph-name="periodcentered.smcp" horiz-adv-x="2056" 
d="M1950 604h-1844v268h1844v-268z" />
    <glyph glyph-name="space_dotbelowcomb" horiz-adv-x="1196" 
d="M575 -526q-96 0 -135 38t-39 134q0 93 42.5 131.5t131.5 38.5q88 0 130.5 -39t42.5 -131q0 -91 -42.5 -131.5t-130.5 -40.5z" />
    <glyph glyph-name="uni00200326" horiz-adv-x="1196" 
d="M440 -553q60 10 89.5 45.5t37.5 101.5q-6 -2 -22 -2q-74 0 -102.5 27t-28.5 113q0 83 36 116t121 33q87 0 122.5 -45t35.5 -158q0 -151 -73 -248.5t-216 -117.5v135z" />
    <glyph glyph-name="uni00200326.alt" horiz-adv-x="1187" 
d="M586 1339q-87 0 -122.5 45t-35.5 158q0 152 73 249.5t216 117.5v-135q-60 -10 -89.5 -46t-37.5 -102q6 2 22 2q76 0 103.5 -26.5t27.5 -112.5q0 -84 -35.5 -117t-121.5 -33z" />
    <glyph glyph-name="plus.inf" horiz-adv-x="714" 
d="M432 -37v-182h-160v182h-180v156h180v178h160v-178h184v-156h-184z" />
    <glyph glyph-name="minus.inf" horiz-adv-x="714" 
d="M92 -41v166h524v-166h-524z" />
    <glyph glyph-name="equal.inf" horiz-adv-x="714" 
d="M92 100v158h524v-158h-524zM92 -170v158h524v-158h-524z" />
    <glyph glyph-name="at.cap" horiz-adv-x="1642" 
d="M817 -127q-203 0 -377 80q-350 177 -350 692v121q0 255 96 428q96 176 265 267t391 91q239 0 401 -96q155 -95 234 -258.5t79 -374.5v-14q0 -260 -84 -387t-239 -127q-189 0 -248 139q-47 -149 -221 -149q-297 0 -297 385v82q0 188 79.5 288.5t217.5 100.5
q88 0 146.5 -42.5t84.5 -113.5l43 143h119v-497q0 -87 19 -117.5t65 -30.5q34 0 56 26.5t35.5 98.5t13.5 193v8q0 148 -48 272q-101 256 -458 256q-254 0 -397.5 -151.5t-143.5 -440.5v-79q0 -290 134.5 -435t387.5 -145q118 0 198 35.5t142 105.5l240 -63
q-91 -138 -244.5 -214.5t-339.5 -76.5zM815 471q73 0 103 44.5t30 146.5v98q0 111 -30.5 153.5t-98.5 42.5q-72 0 -105.5 -49t-33.5 -162v-69q0 -111 30 -158t105 -47z" />
    <glyph glyph-name="registered.cap" horiz-adv-x="1587" 
d="M799 -31q-205 0 -363 76q-166 76 -256 234t-90 397v84q0 218 92 391q95 163 253 249.5t358 86.5q196 0 356 -86q165 -88 256.5 -250t91.5 -383v-92q0 -225 -92 -387q-91 -156 -248.5 -238t-357.5 -82zM799 152q246 0 381 139t135 403v56q0 175 -66 301
q-66 123 -182.5 186t-273.5 63q-155 0 -273 -65q-119 -67 -183.5 -193t-64.5 -303v-45q0 -263 140 -402.5t387 -139.5zM670 602v-287h-172v818h311q161 0 238 -66.5t77 -185.5q0 -151 -133 -199q60 -20 85.5 -66t25.5 -133v-125q0 -29 18 -43h-180q-16 13 -16 45v121
q0 71 -28 96t-101 25h-125zM670 981v-229h133q145 0 145 118q0 57 -34 84t-109 27h-135z" />
    <glyph glyph-name="bar.cap" horiz-adv-x="575" 
d="M154 -129v1731h268v-1731h-268z" />
    <glyph glyph-name="brokenbar.cap" horiz-adv-x="575" 
d="M154 1602h268v-775h-268v775zM422 -129h-268v799h268v-799z" />
    <glyph glyph-name="Aumlaut" horiz-adv-x="1382" 
d="M182 1163q-86 0 -120.5 34t-34.5 122q0 83 38 118.5t117 35.5q80 0 118 -35.5t38 -118.5q0 -82 -38 -119t-118 -37zM1188 1163q-87 0 -121.5 34t-34.5 122q0 83 38 118.5t118 35.5t117.5 -35.5t37.5 -118.5q0 -82 -38 -119t-117 -37zM981 328h-580l-110 -328h-275
l531 1460h278l543 -1460h-272zM477 555h424l-201 573l-14 80l-14 -80z" />
    <glyph glyph-name="Oumlaut" horiz-adv-x="1439" 
d="M164 1317q-48 0 -68 20t-20 70q0 88 88 88q48 0 69 -20.5t21 -67.5q0 -90 -90 -90zM1284 1317q-50 0 -70 19.5t-20 70.5q0 88 90 88t90 -88q0 -90 -90 -90zM717 -31q-627 0 -627 695v122q0 224 78 383q77 157 218.5 237.5t332.5 80.5q192 0 332 -80q144 -81 221.5 -238
t77.5 -383v-122q0 -345 -167 -520t-466 -175zM719 215q176 0 264 116.5t88 342.5v100q0 471 -352 471q-350 0 -350 -469v-102q0 -459 350 -459z" />
    <glyph glyph-name="Uumlaut" horiz-adv-x="1390" 
d="M561 1145q-59 0 -82.5 36t-23.5 126q0 87 26.5 124t79.5 37q57 0 83 -36t26 -125q0 -86 -25.5 -124t-83.5 -38zM827 1145q-60 0 -84 35.5t-24 126.5q0 88 26 124.5t82 36.5t82.5 -36.5t26.5 -124.5q0 -85 -27 -123.5t-82 -38.5zM696 -31q-293 0 -432 160.5t-139 503.5
v827h278v-817q0 -219 69.5 -316.5t225.5 -97.5t221.5 96.5t65.5 317.5v817h281v-827q0 -340 -143 -502t-427 -162z" />
    <glyph glyph-name="cordinal" horiz-adv-x="960" 
d="M897 977q-13 -175 -123.5 -261.5t-288.5 -86.5q-196 0 -302.5 106t-106.5 305v23q0 136 53 231q53 94 145.5 143.5t210.5 49.5q177 0 287 -87.5t123 -258.5v-2h-256q-8 65 -46.5 101t-105.5 36q-83 0 -123 -52t-40 -159v-16q0 -207 161 -207q135 0 156 139h256v-4z" />
    <glyph glyph-name="caronSlovak" horiz-adv-x="1187" 
d="M557 1778h234l-140 -392h-176z" />
    <glyph glyph-name="altcedilla" horiz-adv-x="1187" 
d="M596 -623q-143 0 -223 35q-81 31 -125 92.5t-62 153.5h240q6 -55 51 -86t117 -31q75 0 113 27.5t38 75.5q0 44 -38 75t-121 31h-117v156h166q161 0 240 -70.5t79 -185.5q0 -129 -93 -201t-265 -72z" />
    <glyph glyph-name="doublegrave" horiz-adv-x="1187" 
d="M119 1772h282l283 -426h-199zM508 1772h283l282 -426h-199z" />
    <glyph glyph-name="invertedbreve" horiz-adv-x="1187" 
d="M590 1772q127 0 221 -58q95 -55 145 -150.5t50 -217.5h-199q0 121 -56.5 187.5t-160.5 68.5q-107 -1 -162 -67.5t-55 -188.5h-195q0 121 45 217q44 99 137 154t230 55z" />
    <glyph glyph-name="onethirdemdash" horiz-adv-x="868" 
d="M762 502h-656v268h656v-268z" />
    <glyph glyph-name="threequarteremdash" horiz-adv-x="1236" 
d="M1130 502h-1024v268h1024v-268z" />
    <glyph glyph-name="onethirdemdash.cap" horiz-adv-x="1105" 
d="M999 604h-893v268h893v-268z" />
    <glyph glyph-name="threequarteremdash.cap" horiz-adv-x="1032" 
d="M926 604h-820v268h820v-268z" />
    <glyph glyph-name="onesixteenth" horiz-adv-x="2390" 
d="M958 885l418 659l269 -205l-601 -524zM199 731v170h155v279h-129v139q66 4 106 42.5t48 98.5h147v-559h142v-170h-469zM2220 240q0 -117 -78.5 -186.5t-210.5 -69.5q-327 0 -327 348v59q0 172 80.5 262t228.5 90q134 0 212 -59.5t85 -167.5h-197q-15 72 -94 72
q-66 0 -101.5 -46.5t-35.5 -154.5v-18q57 92 178 92q260 0 260 -221zM1036 0v170h156v279h-129v139q66 4 106 42.5t48 98.5h147v-559h141v-170h-469zM874 637l-423 -696l-273 219l615 547zM1931 143q111 0 111 97q0 92 -117 92q-102 0 -137 -66q24 -123 143 -123z" />
    <glyph glyph-name="threesixteenths" horiz-adv-x="2390" 
d="M958 885l418 659l269 -205l-601 -524zM426 717q-156 0 -226.5 59.5t-70.5 186.5v20h195v-14q0 -90 100 -90q59 0 83.5 17t24.5 56q0 68 -88 68h-90v149h90q80 0 80 78q0 66 -94 66q-96 0 -96 -88v-11h-193v17q0 112 76 177t215 65q131 0 207 -57.5t76 -151.5
q0 -121 -101 -160q113 -39 113 -168q0 -99 -80.5 -159t-220.5 -60zM2220 240q0 -117 -78.5 -186.5t-210.5 -69.5q-327 0 -327 348v59q0 172 80.5 262t228.5 90q134 0 212 -59.5t85 -167.5h-197q-15 72 -94 72q-66 0 -101.5 -46.5t-35.5 -154.5v-18q57 92 178 92
q260 0 260 -221zM1036 2v170h156v279h-129v139q66 4 106 42.5t48 98.5h147v-559h141v-170h-469zM874 637l-423 -696l-273 219l615 547zM1931 143q111 0 111 97q0 92 -117 92q-102 0 -137 -66q24 -123 143 -123z" />
    <glyph glyph-name="fivesixteenths" horiz-adv-x="2390" 
d="M958 885l418 659l269 -205l-601 -524zM434 717q-161 0 -233 61t-74 189v2h205v-6q0 -93 106 -93q62 0 92.5 31.5t30.5 85.5q0 94 -121 94q-64 0 -121 -65l-6 -6l-161 45l41 405h501q0 -92 -38.5 -131t-135.5 -39h-184l-23 -145q63 76 195 76q106 0 169.5 -59t63.5 -171
q0 -274 -307 -274zM2220 240q0 -117 -78.5 -186.5t-210.5 -69.5q-327 0 -327 348v59q0 172 80.5 262t228.5 90q134 0 212 -59.5t85 -167.5h-197q-15 72 -94 72q-66 0 -101.5 -46.5t-35.5 -154.5v-18q57 92 178 92q260 0 260 -221zM1036 2v170h156v279h-129v139
q66 4 106 42.5t48 98.5h147v-559h141v-170h-469zM874 637l-423 -696l-273 219l615 547zM1931 143q111 0 111 97q0 92 -117 92q-102 0 -137 -66q24 -123 143 -123z" />
    <glyph glyph-name="sevensixteenths" horiz-adv-x="2390" 
d="M958 885l418 659l269 -205l-601 -524zM322 731q45 141 81 211q89 192 218 348h-369v170h557v-151q-91 -123 -162.5 -275t-109.5 -303h-215zM2220 240q0 -117 -78.5 -186.5t-210.5 -69.5q-327 0 -327 348v59q0 172 80.5 262t228.5 90q134 0 212 -59.5t85 -167.5h-197
q-15 72 -94 72q-66 0 -101.5 -46.5t-35.5 -154.5v-18q57 92 178 92q260 0 260 -221zM1036 2v170h156v279h-129v139q66 4 106 42.5t48 98.5h147v-559h141v-170h-469zM874 637l-423 -696l-273 219l615 547zM1931 143q111 0 111 97q0 92 -117 92q-102 0 -137 -66
q24 -123 143 -123z" />
    <glyph glyph-name="ninesixteenths" horiz-adv-x="2390" 
d="M958 885l418 659l269 -205l-601 -524zM483 713q-133 0 -211 62t-86 171h197q16 -78 94 -78q66 0 101.5 46.5t35.5 154.5v29q-50 -103 -178 -103q-260 0 -260 222q0 117 75 186.5t212 69.5q159 0 244.5 -86.5t85.5 -262.5v-59q0 -352 -310 -352zM471 1124q108 0 135 78
q-24 111 -135 111q-55 0 -86 -24.5t-31 -71.5t31.5 -70t85.5 -23zM2220 240q0 -117 -78.5 -186.5t-210.5 -69.5q-327 0 -327 348v59q0 172 80.5 262t228.5 90q134 0 212 -59.5t85 -167.5h-197q-15 72 -94 72q-66 0 -101.5 -46.5t-35.5 -154.5v-18q57 92 178 92
q260 0 260 -221zM1036 2v170h156v279h-129v139q66 4 106 42.5t48 98.5h147v-559h141v-170h-469zM874 637l-423 -696l-273 219l615 547zM1931 143q111 0 111 97q0 92 -117 92q-102 0 -137 -66q24 -123 143 -123z" />
    <glyph glyph-name="elevensixteenths" horiz-adv-x="2961" 
d="M1530 885l418 659l268 -205l-600 -524zM199 731v170h155v279h-129v139q66 4 106 42.5t48 98.5h147v-559h142v-170h-469zM770 731v170h156v279h-129v139q66 4 105.5 42.5t47.5 98.5h148v-559h141v-170h-469zM2791 240q0 -117 -78 -186.5t-210 -69.5q-328 0 -328 348v59
q0 172 80.5 262t228.5 90q134 0 212 -59.5t85 -167.5h-196q-15 72 -95 72q-66 0 -101.5 -46.5t-35.5 -154.5v-18q57 92 178 92q260 0 260 -221zM1608 0v170h155v279h-129v139q66 4 106 42.5t48 98.5h147v-559h142v-170h-469zM1446 637l-424 -696l-272 219l614 547zM2503 143
q110 0 110 97q0 92 -116 92q-103 0 -138 -66q24 -123 144 -123z" />
    <glyph glyph-name="thirteensixteenths" horiz-adv-x="2994" 
d="M1563 885l417 659l269 -205l-600 -524zM1063 717q-156 0 -226.5 59.5t-70.5 186.5v20h195v-14q0 -90 100 -90q59 0 83.5 17t24.5 56q0 68 -88 68h-90v149h90q80 0 80 78q0 66 -94 66q-96 0 -96 -88v-11h-193v17q0 112 76 177t215 65q131 0 207 -57.5t76 -151.5
q0 -121 -101 -160q113 -39 113 -168q0 -99 -80.5 -159t-220.5 -60zM199 731v170h155v279h-129v139q66 4 106 42.5t48 98.5h147v-559h142v-170h-469zM2824 240q0 -117 -78.5 -186.5t-210.5 -69.5q-327 0 -327 348v59q0 172 80.5 262t228.5 90q134 0 212 -59.5t85 -167.5h-197
q-15 72 -94 72q-66 0 -101.5 -46.5t-35.5 -154.5v-18q57 92 178 92q260 0 260 -221zM1640 2v170h156v279h-129v139q66 4 106 42.5t48 98.5h147v-559h141v-170h-469zM1479 637l-424 -696l-273 219l615 547zM2535 143q111 0 111 97q0 92 -117 92q-102 0 -137 -66
q24 -123 143 -123z" />
    <glyph glyph-name="fifteensixteenths" horiz-adv-x="2994" 
d="M1563 885l417 659l269 -205l-600 -524zM199 731v170h155v279h-129v139q66 4 106 42.5t48 98.5h147v-559h142v-170h-469zM1071 717q-161 0 -233 61t-74 189v2h205v-6q0 -93 106 -93q62 0 92.5 31.5t30.5 85.5q0 94 -121 94q-64 0 -121 -65l-6 -6l-162 45l41 405h502
q0 -92 -38.5 -131t-135.5 -39h-184l-23 -145q63 76 195 76q106 0 169.5 -59t63.5 -171q0 -274 -307 -274zM2824 240q0 -117 -78.5 -186.5t-210.5 -69.5q-327 0 -327 348v59q0 172 80.5 262t228.5 90q134 0 212 -59.5t85 -167.5h-197q-15 72 -94 72q-66 0 -101.5 -46.5
t-35.5 -154.5v-18q57 92 178 92q260 0 260 -221zM1640 2v170h156v279h-129v139q66 4 106 42.5t48 98.5h147v-559h141v-170h-469zM1479 637l-424 -696l-273 219l615 547zM2535 143q111 0 111 97q0 92 -117 92q-102 0 -137 -66q24 -123 143 -123z" />
    <glyph glyph-name="mediumblackcircle" horiz-adv-x="1505" 
d="M752 -20q-176 0 -312 77q-139 79 -216 215t-77 308q0 168 80 309q85 137 222 215t303 78q169 0 307 -78q141 -81 220 -216.5t79 -307.5q0 -175 -80 -306q-81 -138 -217.5 -216t-308.5 -78z" />
    <glyph glyph-name="ballotboxwithx" horiz-adv-x="1499" 
d="M174 1151h1151v-1151h-1151v1151zM438 248h627v657h-627v-657zM748 438l-134 -137l-135 133l135 137l-137 138l133 133l138 -135l135 137l133 -135l-135 -138l133 -131l-133 -135z" />
    <glyph glyph-name="ttfautohint" horiz-adv-x="739" 
 />
    </font>
</defs>
</svg>
