<?xml version="1.0" standalone="no"?>
<!DOCTYPE svg PUBLIC "-//W3C//DTD SVG 1.1//EN" "http://www.w3.org/Graphics/SVG/1.1/DTD/svg11.dtd" >
<svg xmlns="http://www.w3.org/2000/svg" xmlns:xlink="http://www.w3.org/1999/xlink" version="1.1">
<metadata>
Created by FontForge 20201107 at Wed Dec 20 23:32:35 2023
 By 
C 2016 Sharp Type Corporation
</metadata>
<defs>
<font id="SharpGrotesk-Light20" horiz-adv-x="1386" >
  <font-face 
    font-family="Sharp Grotesk Light 20"
    font-weight="300"
    font-stretch="normal"
    units-per-em="2048"
    panose-1="0 0 4 0 0 0 0 0 0 0"
    ascent="1638"
    descent="-410"
    x-height="1163"
    cap-height="1450"
    bbox="-133 -612 3119 2298"
    underline-thickness="102"
    underline-position="-153"
    unicode-range="U+0020-3009"
  />
<missing-glyph horiz-adv-x="124" 
 />
    <glyph glyph-name=".notdef" horiz-adv-x="124" 
 />
    <glyph glyph-name=".null" horiz-adv-x="0" 
 />
    <glyph glyph-name="nonmarkingreturn" horiz-adv-x="682" 
 />
    <glyph glyph-name="space" unicode=" " horiz-adv-x="675" 
 />
    <glyph glyph-name="exclam" unicode="!" horiz-adv-x="659" 
d="M389 1464v-370q0 -128 -4 -340q-10 -350 -18 -402q-20 4 -45 4q-26 0 -46 -4q-1 7 -2 25t-3 49t-5 61q-16 290 -16 607v370h139zM319 -20q-59 0 -84.5 26.5t-25.5 87.5q0 115 110 115q58 0 85.5 -28t27.5 -87t-27.5 -86.5t-85.5 -27.5z" />
    <glyph glyph-name="quotedbl" unicode="&#x22;" horiz-adv-x="651" 
d="M141 967q-1 5 -3 20.5t-4 33t-3 36.5q-10 137 -10 266v127h123v-127q0 -18 -1 -61.5t-1 -69.5q-12 -196 -17 -225h-84zM426 967q-7 59 -8 90q-10 137 -10 266v127h120v-127q0 -18 -1 -61.5t-1 -69.5q-3 -170 -16 -225h-84z" />
    <glyph glyph-name="numbersign" unicode="#" horiz-adv-x="1802" 
d="M1044 416h-434l-82 -416h-129l82 416h-379v110h402l86 432h-397v113h419l76 379h125l-74 -379h437l75 379h121l-74 -379h394v-113h-416l-86 -432h416v-110h-437l-82 -416h-124zM1153 958h-436l-86 -432h436z" />
    <glyph glyph-name="dollar" unicode="$" horiz-adv-x="1318" 
d="M606 -248v221q-258 13 -380.5 142.5t-135.5 363.5h139q16 -391 445 -391q135 0 229 43q87 41 130.5 109.5t43.5 150.5t-34 133.5t-101 83.5q-38 19 -95.5 36t-89.5 24t-116 24q-234 44 -334 103q-155 82 -155 286q0 103 53 189q54 89 157 143t246 60v229h123v-234
q205 -20 321 -131t128 -293h-136q-8 152 -111.5 234t-291.5 82q-168 0 -263 -79t-95 -198q0 -140 131 -204q20 -9 44.5 -18t42 -14.5t53 -14t47.5 -11t57 -11.5t53 -11q233 -44 340 -105q157 -93 157 -301q0 -105 -53 -200q-56 -94 -163 -152t-261 -68v-221h-125z" />
    <glyph glyph-name="percent" unicode="%" horiz-adv-x="1472" 
d="M375 907q-132 0 -207.5 72.5t-75.5 198.5v14q0 131 80 204.5t205 73.5q130 0 207.5 -75t77.5 -203v-14q0 -124 -77 -197.5t-210 -73.5zM98 0q6 9 32 41.5t72 91t91 117.5q50 64 175.5 224.5t195.5 250.5q58 76 123.5 161t137.5 178t105 136l191 250h149
q-18 -26 -194 -250q-58 -77 -187 -243.5t-180 -233.5q-58 -74 -367 -475l-188 -248h-156zM377 999q85 0 133.5 51t48.5 132v10q0 84 -51.5 135t-130.5 51q-80 0 -131 -49t-51 -137v-10q0 -84 49 -133.5t133 -49.5zM1085 -27q-133 0 -208.5 72.5t-75.5 200.5v12q0 131 81 206
t205 75q129 0 207 -75t78 -206v-12q0 -126 -77 -199.5t-210 -73.5zM1085 68q85 0 135 50.5t50 131.5v8q0 85 -51.5 135.5t-131.5 50.5t-131 -49t-51 -137v-8q0 -85 48.5 -133.5t131.5 -48.5z" />
    <glyph glyph-name="ampersand" unicode="&#x26;" horiz-adv-x="1658" 
d="M1430 -16q-191 0 -386 155q-236 -166 -489 -166q-124 0 -236 39q-235 90 -235 346q0 127 63 211q60 77 156 134.5t227 107.5q-75 170 -75 311q0 116 47 193t124 117.5t171 40.5q142 0 224.5 -81.5t82.5 -211.5q0 -112 -55 -181q-50 -70 -138.5 -124t-230.5 -115
q58 -101 158 -232q114 -147 213 -243q97 80 188 204q168 237 223 486h125q-24 -120 -94 -273q-129 -290 -356 -489q156 -117 297 -117q89 0 157 45v-121q-56 -36 -161 -36zM569 1124q0 -123 64 -270q116 44 186 86q172 85 172 242q0 85 -51.5 136.5t-144.5 51.5
q-99 0 -162.5 -64.5t-63.5 -181.5zM565 86q199 0 393 127q-100 100 -221 258q-101 137 -159 246q-111 -45 -183 -86q-89 -50 -134 -111t-46 -149q0 -102 49 -166q48 -59 127 -89t174 -30z" />
    <glyph glyph-name="quotesingle" unicode="'" horiz-adv-x="364" 
d="M141 967q-1 5 -3 20.5t-4 33t-3 36.5q-10 137 -10 266v127h123v-127q0 -18 -1 -61.5t-1 -69.5q-12 -196 -17 -225h-84z" />
    <glyph glyph-name="parenleft" unicode="(" horiz-adv-x="886" 
d="M180 578q0 299 80 514q81 201 214 312.5t304 135.5v-123q-126 -20 -233 -117q-230 -210 -230 -725v-22q0 -273 64 -453q60 -175 163.5 -271t235.5 -114v-125q-172 21 -307 129q-139 112 -215 320t-76 510v29z" />
    <glyph glyph-name="parenright" unicode=")" horiz-adv-x="886" 
d="M109 -285q120 14 233 113q229 209 229 725v22q0 273 -61 453q-60 174 -163.5 270t-237.5 117v123q168 -24 301 -133q297 -234 297 -827v-29q0 -306 -78 -516q-152 -400 -520 -443v125z" />
    <glyph glyph-name="asterisk" unicode="*" horiz-adv-x="882" 
d="M461 1143l37 -297h-111l37 295l-238 -178l-55 96l275 117l-275 112l55 96l238 -178l-37 295h111l-37 -295l237 178l56 -96l-277 -114l277 -117l-56 -96z" />
    <glyph glyph-name="plus" unicode="+" horiz-adv-x="1200" 
d="M659 664v-355h-118v355h-359v116h359v353h118v-353h371v-116h-371z" />
    <glyph glyph-name="comma" unicode="," horiz-adv-x="604" 
d="M172 -203q141 56 156 199q-18 -10 -41 -10q-51 0 -75 22t-24 80q0 115 117 115q121 0 121 -162q0 -111 -60.5 -193.5t-170.5 -119.5z" />
    <glyph glyph-name="hyphen" unicode="-" horiz-adv-x="1200" 
d="M1053 582h-903v127h903v-127z" />
    <glyph glyph-name="period" unicode="." horiz-adv-x="604" 
d="M303 -23q-60 0 -87.5 27t-27.5 90q0 119 115 119t115 -121q0 -115 -115 -115z" />
    <glyph glyph-name="slash" unicode="/" horiz-adv-x="679" 
d="M57 0l428 1450h142l-428 -1450h-142z" />
    <glyph glyph-name="zero" unicode="0" horiz-adv-x="1443" 
d="M721 -29q-291 0 -439.5 177.5t-148.5 525.5v80q0 345 149.5 532t438.5 187q280 0 436 -186.5t156 -530.5v-80q0 -343 -156 -524t-436 -181zM721 92q221 0 338 150t117 438v72q0 287 -116 444.5t-339 157.5q-226 0 -338.5 -156.5t-112.5 -445.5v-74q0 -586 451 -586z" />
    <glyph glyph-name="one" unicode="1" horiz-adv-x="899" 
d="M72 0v125h319v1057q-43 -35 -111.5 -57.5t-136.5 -24.5v106q121 4 185 63t84 181h110v-1325h326v-125h-776z" />
    <glyph glyph-name="two" unicode="2" horiz-adv-x="1314" 
d="M106 0v96q0 198 166 338q112 98 355 211q108 48 217 111q229 124 229 297q0 143 -99.5 224t-285.5 81q-201 0 -311.5 -101.5t-110.5 -291.5v-52h-133v56q0 243 145 373.5t412 130.5q246 0 381 -113t135 -303q0 -178 -153 -305q-113 -92 -336 -197q-97 -46 -215 -115
q-113 -64 -177 -139.5t-71 -177.5h969v-123h-1117z" />
    <glyph glyph-name="three" unicode="3" horiz-adv-x="1361" 
d="M670 -29q-296 0 -431 115t-135 365v34h132v-28q0 -191 105.5 -279t326.5 -88q200 0 317 86.5t117 231.5q0 148 -89 212t-270 64h-219v111h219q332 0 332 270q0 132 -100.5 210.5t-292.5 78.5q-196 0 -307 -97t-111 -258v-18h-131v23q0 215 144.5 342t406.5 127
q253 0 390.5 -109t137.5 -289q0 -260 -245 -330q272 -63 272 -348q0 -194 -151 -310t-418 -116z" />
    <glyph glyph-name="four" unicode="4" horiz-adv-x="1320" 
d="M1260 385h-283v-385h-131v385h-803v98l817 967h117v-952h283v-113zM846 498v759l-645 -759h645z" />
    <glyph glyph-name="five" unicode="5" horiz-adv-x="1384" 
d="M686 -29q-187 0 -307 60q-118 59 -177 162t-59 239v8h138v-8q0 -153 105.5 -247.5t303.5 -94.5q127 0 223 45q101 45 157 136.5t56 222.5q0 188 -109 286.5t-292 98.5q-149 0 -253 -63t-167 -161l-8 -10l-131 35l100 770h928q0 -54 -12 -78q-11 -25 -49 -33t-123 -8h-637
l-72 -530q154 190 434 190q156 0 273 -57q254 -127 254 -442q0 -165 -74 -283q-73 -116 -202 -177t-300 -61z" />
    <glyph glyph-name="six" unicode="6" horiz-adv-x="1411" 
d="M1278 446q0 -146 -70 -253q-72 -108 -196.5 -165t-290.5 -57q-304 0 -448 175.5t-144 527.5v80q0 342 164 530.5t461 188.5q213 0 343 -95t154 -276h-131q-40 252 -368 252q-238 0 -362 -157.5t-124 -444.5v-76q0 -55 2 -82q45 140 177.5 223.5t322.5 83.5q137 0 256 -49
q120 -49 187 -151t67 -255zM721 92q127 0 219 43q97 44 150 125t53 193q0 116 -56 194q-112 141 -344 141q-127 0 -229 -51q-101 -49 -158.5 -132.5t-62.5 -184.5q42 -164 146 -246t282 -82z" />
    <glyph glyph-name="seven" unicode="7" horiz-adv-x="1163" 
d="M289 0q75 338 297 745q184 345 377 580h-908v125h1065v-102q-91 -116 -145 -199q-195 -295 -318 -549q-159 -329 -215 -600h-153z" />
    <glyph glyph-name="eight" unicode="8" horiz-adv-x="1359" 
d="M676 -29q-286 0 -430 100t-144 308q0 132 81 227t214 133q-117 31 -180 113.5t-63 212.5q0 194 139.5 301t390.5 107q254 0 394.5 -106t140.5 -300q0 -129 -71 -211.5t-192 -114.5q137 -34 218 -125t81 -237q0 -203 -148.5 -305.5t-430.5 -102.5zM725 786
q173 0 267.5 73.5t94.5 201.5q0 141 -105.5 218t-297.5 77q-187 0 -293 -79.5t-106 -219.5q0 -126 86 -198.5t256 -72.5h98zM676 90q216 0 331 76t115 227q0 139 -104.5 215t-292.5 78h-102q-116 0 -205 -39q-86 -41 -133 -107.5t-47 -146.5q0 -303 438 -303z" />
    <glyph glyph-name="nine" unicode="9" horiz-adv-x="1398" 
d="M676 -29q-225 0 -362.5 99.5t-161.5 298.5h133q23 -137 126.5 -208t262.5 -73q465 0 465 602v131q-47 -132 -178.5 -207t-317.5 -75q-142 0 -258 45q-260 102 -260 403q0 145 72 258q72 109 198.5 168.5t288.5 59.5q203 0 334 -87q254 -166 254 -616v-82
q0 -346 -149.5 -531.5t-446.5 -185.5zM662 647q114 0 219 43q100 43 164 117.5t77 165.5q-67 383 -436 383q-119 0 -219 -43q-98 -45 -151.5 -128t-53.5 -198q0 -124 55 -196q54 -72 144 -108t201 -36z" />
    <glyph glyph-name="colon" unicode=":" horiz-adv-x="624" 
d="M311 834q-62 0 -88 25.5t-26 90.5q0 62 26.5 88.5t87.5 26.5q60 0 87.5 -27t27.5 -88q0 -63 -27.5 -89.5t-87.5 -26.5zM311 106q-61 0 -87.5 25t-26.5 90q0 64 26.5 90.5t87.5 26.5q62 0 88.5 -26.5t26.5 -90.5q0 -63 -27 -89t-88 -26z" />
    <glyph glyph-name="semicolon" unicode=";" horiz-adv-x="624" 
d="M311 834q-62 0 -88 25.5t-26 90.5q0 62 26.5 88.5t87.5 26.5q60 0 87.5 -27t27.5 -88q0 -63 -27.5 -89.5t-87.5 -26.5zM215 -190q55 19 89 67t40 119q-18 -10 -43 -10q-48 0 -72 22t-24 80q0 115 114 115q62 0 91.5 -39t29.5 -123q0 -113 -55.5 -195t-163.5 -118z" />
    <glyph glyph-name="less" unicode="&#x3c;" horiz-adv-x="1220" 
d="M193 692v115l804 346v-131l-663 -272l663 -275v-135z" />
    <glyph glyph-name="equal" unicode="=" horiz-adv-x="1220" 
d="M174 946v115h875v-115h-875zM174 414v114h875v-114h-875z" />
    <glyph glyph-name="greater" unicode="&#x3e;" horiz-adv-x="1220" 
d="M227 475l666 275l-666 272v131l805 -346v-115l-805 -352v135z" />
    <glyph glyph-name="question" unicode="?" horiz-adv-x="1419" 
d="M743 328q-8 8 -63 8q-58 0 -66 -8v147q0 90 37 148q22 35 59.5 65.5t68 47.5t81.5 42q46 21 111 64q59 38 90 89.5t31 129.5q0 83 -37 147q-82 150 -338 150q-206 0 -303 -94t-97 -275v-26h-133v32q0 231 132.5 354.5t400.5 123.5q173 0 291 -56q221 -112 221 -350
q0 -113 -39 -180q-35 -62 -91 -104.5t-134 -80.5q-23 -11 -63.5 -34t-43.5 -25q-113 -70 -113 -188zM688 -18q-60 0 -86.5 25.5t-26.5 88.5q0 59 27.5 86t83.5 27q59 0 86 -26.5t27 -86.5q0 -114 -111 -114z" />
    <glyph glyph-name="at" unicode="@" horiz-adv-x="1779" 
d="M897 -229q-208 0 -383 79q-371 170 -371 711v68q0 255 99 440q98 183 271.5 281t397.5 98q358 0 549 -223q176 -202 176 -523v-22q0 -231 -78 -354t-215 -123q-86 0 -144.5 41t-78.5 118q-69 -174 -264 -174q-158 0 -235.5 102.5t-77.5 284.5v68q0 180 86.5 287.5
t242.5 107.5q98 0 161 -48t91 -130l19 168h69v-565q0 -81 36.5 -121.5t97.5 -40.5q182 0 182 377v18q0 176 -62 324q-134 319 -555 319q-194 0 -344 -84q-153 -86 -234 -245.5t-81 -386.5v-56q0 -243 82 -395q160 -293 565 -293q138 0 254.5 51.5t189.5 143.5l113 -47
q-89 -119 -239 -187.5t-320 -68.5zM872 289q115 0 175.5 69.5t60.5 194.5v113q0 274 -219 274q-113 0 -175.5 -80t-62.5 -219v-63q0 -134 55.5 -211.5t165.5 -77.5z" />
    <glyph glyph-name="A" unicode="A" 
d="M1026 430h-670l-161 -430h-136l559 1450h132l581 -1450h-135zM684 1294l-283 -749h580z" />
    <glyph glyph-name="B" unicode="B" horiz-adv-x="1380" 
d="M195 0v1450h538q271 0 395.5 -92t124.5 -273q0 -138 -65 -222.5t-199 -119.5q149 -33 222 -116t73 -228q0 -399 -547 -399h-542zM324 1339v-542h413q192 0 289.5 67.5t97.5 210.5q0 132 -93 198t-296 66h-411zM324 688v-573h401q222 0 324 73t102 220t-105.5 213.5
t-312.5 66.5h-409z" />
    <glyph glyph-name="C" unicode="C" horiz-adv-x="1480" 
d="M1372 500q-27 -248 -183.5 -388.5t-422.5 -140.5q-308 0 -471.5 176t-163.5 525v84q0 347 169.5 532t473.5 185q254 0 405.5 -127t180.5 -373h-133q-27 185 -141.5 283t-311.5 98q-244 0 -377 -155t-133 -449v-72q0 -287 130 -434.5t376 -147.5q202 0 322.5 109
t144.5 295h135z" />
    <glyph glyph-name="D" unicode="D" horiz-adv-x="1449" 
d="M195 1450h473q175 0 325 -78q155 -79 240.5 -232t85.5 -376v-82q0 -225 -82 -377q-84 -151 -225 -228t-326 -77h-491v1450zM324 1333v-1216h358q140 0 260 63q244 139 244 510v68q0 186 -70 317q-70 126 -186.5 192t-265.5 66h-340z" />
    <glyph glyph-name="E" unicode="E" horiz-adv-x="1290" 
d="M1212 0h-1017v1450h987v-117h-860v-545h731v-116h-731v-553h890v-119z" />
    <glyph glyph-name="F" unicode="F" horiz-adv-x="1232" 
d="M324 621v-621h-129v1450h958v-119h-829v-592h774v-118h-774z" />
    <glyph glyph-name="G" unicode="G" horiz-adv-x="1517" 
d="M1247 383q-24 -117 -84 -209q-132 -203 -434 -203q-287 0 -442.5 174t-155.5 525v86q0 349 167.5 533t469.5 184q254 0 407.5 -127t176.5 -367h-135q-24 178 -139 277.5t-312 99.5q-244 0 -373 -154t-129 -448v-80q0 -291 127.5 -437.5t362.5 -146.5q242 0 364 158
q104 134 107 338l-482 4v108h613v-698h-101z" />
    <glyph glyph-name="H" unicode="H" horiz-adv-x="1490" 
d="M1167 662h-841v-662h-131v1450h131v-664h841v664h129v-1450h-129v662z" />
    <glyph glyph-name="I" unicode="I" horiz-adv-x="915" 
d="M100 0v123h295v1208h-295v119h715v-119h-295v-1208h295v-123h-715z" />
    <glyph glyph-name="J" unicode="J" horiz-adv-x="1179" 
d="M539 -31q-213 0 -329 111t-128 323v3h133v-5q25 -305 324 -305q173 0 253 93t80 309v952h136v-956q0 -271 -119 -398t-350 -127z" />
    <glyph glyph-name="K" unicode="K" horiz-adv-x="1390" 
d="M690 838l-366 -363v-475h-129v1450h129v-821l823 821h166l-531 -532l572 -918h-150z" />
    <glyph glyph-name="L" unicode="L" horiz-adv-x="1173" 
d="M195 0v1450h131v-1327h784v-123h-915z" />
    <glyph glyph-name="M" unicode="M" horiz-adv-x="1703" 
d="M322 1251v-1251h-127v1450h129l528 -702l532 702h127v-1450h-125v1260l-516 -682h-39z" />
    <glyph glyph-name="N" unicode="N" horiz-adv-x="1507" 
d="M319 0h-124v1450h131l794 -1135l72 -118l-2 28v1225h125v-1450h-119l-819 1169l-58 97v-1266z" />
    <glyph glyph-name="O" unicode="O" horiz-adv-x="1509" 
d="M752 -29q-299 0 -460 178t-161 525v82q0 343 165 530t458 187q185 0 325 -82q144 -85 221.5 -245t77.5 -390v-82q0 -238 -80 -389q-79 -156 -218 -235t-328 -79zM754 92q228 0 358.5 152t130.5 434v72q0 290 -128.5 447t-360.5 157q-234 0 -361 -157.5t-127 -444.5v-74
q0 -284 126.5 -435t361.5 -151z" />
    <glyph glyph-name="P" unicode="P" horiz-adv-x="1366" 
d="M324 498v-498h-129v1450h518q276 0 414.5 -125.5t138.5 -345.5q0 -230 -135.5 -356t-403.5 -125h-403zM725 612q195 -2 302.5 94t107.5 273q0 164 -106 260t-316 96h-389v-723h401z" />
    <glyph glyph-name="Q" unicode="Q" horiz-adv-x="1507" 
d="M1079 -238l-159 230q-76 -21 -170 -21q-296 0 -457.5 179t-161.5 526v78q0 227 74 387q77 163 215.5 247.5t331.5 84.5q178 0 325 -84q144 -88 221.5 -248.5t77.5 -386.5v-78q0 -236 -88 -397t-244 -240l209 -277h-174zM752 92q227 0 358 152.5t131 433.5v70
q0 285 -129.5 446.5t-359.5 161.5q-233 0 -360.5 -160t-127.5 -446v-72q0 -284 126.5 -435t361.5 -151z" />
    <glyph glyph-name="R" unicode="R" horiz-adv-x="1425" 
d="M324 598v-598h-129v1450h559q272 0 397 -105t125 -307q0 -305 -295 -379q140 -26 200 -107.5t60 -250.5v-231q0 -44 29 -70h-142q-22 25 -22 72v229q0 168 -81.5 232.5t-285.5 64.5h-415zM743 713q191 -2 295.5 78.5t104.5 240.5q0 150 -94 226.5t-297 76.5h-428v-622
h419z" />
    <glyph glyph-name="S" unicode="S" horiz-adv-x="1318" 
d="M672 -29q-196 0 -328 60q-123 60 -183 170.5t-71 277.5h139q16 -391 445 -391q135 0 229 43q87 41 130.5 110.5t43.5 151.5q0 147 -135 215q-38 19 -95.5 36t-89.5 24t-116 24q-234 44 -336 103q-155 82 -155 286q0 109 57 195q58 92 168 144.5t266 52.5q249 0 388 -114
t151 -315h-133q-11 153 -113.5 234.5t-292.5 81.5q-169 0 -264.5 -79t-95.5 -198q0 -139 133 -202q19 -9 43.5 -18t43 -14.5t52 -13.5t48.5 -11.5t56.5 -12t53.5 -10.5q117 -24 197 -47t145 -60q155 -94 155 -299q0 -113 -59 -213q-134 -211 -477 -211z" />
    <glyph glyph-name="T" unicode="T" horiz-adv-x="1198" 
d="M655 1331v-1331h-133v1331h-450v119h1054v-119h-471z" />
    <glyph glyph-name="U" unicode="U" horiz-adv-x="1445" 
d="M723 -31q-287 0 -419 161.5t-132 504.5v815h135v-813q0 -283 97.5 -412t320.5 -129q218 0 316 129.5t98 411.5v813h133v-815q0 -340 -135 -503t-414 -163z" />
    <glyph glyph-name="V" unicode="V" horiz-adv-x="1363" 
d="M625 0l-564 1450h140l489 -1270l481 1270h142l-557 -1450h-131z" />
    <glyph glyph-name="W" unicode="W" horiz-adv-x="2033" 
d="M997 1241l-458 -1241h-123l-344 1450h133l287 -1241l456 1241h105l432 -1255l344 1255h131l-406 -1450h-124z" />
    <glyph glyph-name="X" unicode="X" horiz-adv-x="1325" 
d="M664 674l-474 -674h-157l551 778l-465 672h151l396 -580l409 580h154l-486 -674l539 -776h-156z" />
    <glyph glyph-name="Y" unicode="Y" horiz-adv-x="1298" 
d="M569 0v569l-508 881h148l430 -756l457 756h147l-541 -887v-563h-133z" />
    <glyph glyph-name="Z" unicode="Z" horiz-adv-x="1243" 
d="M82 0v115l913 1216h-850v119h1010v-119l-907 -1208h905v-123h-1071z" />
    <glyph glyph-name="bracketleft" unicode="[" horiz-adv-x="835" 
d="M727 -406h-504v1942h504v-111h-375v-1718h375v-113z" />
    <glyph glyph-name="backslash" unicode="\" horiz-adv-x="679" 
d="M193 1450l430 -1450h-140l-430 1450h140z" />
    <glyph glyph-name="bracketright" unicode="]" horiz-adv-x="835" 
d="M111 -406v113h372v1716h-372v111h503v-1940h-503z" />
    <glyph glyph-name="asciicircum" unicode="^" horiz-adv-x="1060" 
d="M528 1337l-211 -401h-127l285 514h105l286 -514h-127z" />
    <glyph glyph-name="uni005F" unicode="_" horiz-adv-x="1275" 
d="M1190 -281h-1102v127h1102v-127z" />
    <glyph glyph-name="grave" unicode="`" horiz-adv-x="1060" 
d="M272 1688h154l256 -345h-117z" />
    <glyph glyph-name="a" unicode="a" horiz-adv-x="1357" 
d="M1065 346q-42 -106 -121 -188q-82 -88 -195.5 -137.5t-248.5 -49.5q-183 0 -281 82t-98 221q0 88 40 159t107 114q54 31 103 49q120 42 346 76l176 28q82 14 125 46t43 90q0 254 -359 254q-191 0 -299.5 -88.5t-119.5 -229.5h-129q9 117 75 219q140 205 469 205
q251 0 369.5 -99.5t118.5 -277.5v-819h-107zM530 80q221 0 383 162q73 74 112.5 159.5t39.5 169.5v109q-39 -35 -113 -55.5t-209 -42.5q-162 -25 -243.5 -48t-139.5 -61q-100 -65 -100 -184q0 -97 69.5 -153t200.5 -56z" />
    <glyph glyph-name="b" unicode="b" horiz-adv-x="1429" 
d="M764 -29q-174 0 -290 86.5t-171 237.5l-14 -295h-109v1554h125v-673q56 145 177 230t292 85q163 0 281 -72q124 -73 191 -207.5t67 -322.5v-23q0 -189 -68 -319q-67 -136 -189.5 -208.5t-291.5 -72.5zM737 90q212 0 328.5 128t116.5 355v17q0 144 -56 262
q-59 112 -157 172.5t-224 60.5q-131 0 -237 -65q-101 -64 -155 -173t-54 -245v-12q0 -142 53 -260q55 -115 153 -177.5t232 -62.5z" />
    <glyph glyph-name="c" unicode="c" horiz-adv-x="1357" 
d="M1245 430q-31 -230 -175.5 -344.5t-377.5 -114.5q-273 0 -425 157.5t-152 436.5v23q0 189 75 327q76 137 207 209t297 72q229 0 371.5 -115t177.5 -342h-135v2q-30 170 -138 256t-276 86q-132 0 -227 -59q-104 -61 -160.5 -172t-56.5 -266v-19q0 -221 118 -350t324 -129
q354 0 418 344h135v-2z" />
    <glyph glyph-name="d" unicode="d" horiz-adv-x="1429" 
d="M1126 295q-53 -146 -176 -234t-299 -88q-156 0 -278 70q-124 73 -191 207t-67 323v21q0 179 67 319q71 137 195 210t291 73q170 0 286.5 -81.5t169.5 -223.5v663h125v-1554h-106zM680 90q138 0 242 66q100 64 154 173.5t54 245.5v13q0 142 -51 256q-55 116 -152.5 178.5
t-230.5 62.5q-215 0 -331.5 -132.5t-116.5 -360.5v-17q0 -154 57 -262q55 -108 153 -165.5t222 -57.5z" />
    <glyph glyph-name="e" unicode="e" horiz-adv-x="1372" 
d="M1233 346q-46 -183 -188.5 -279t-350.5 -96q-281 0 -430 157t-149 435v21q0 185 71 321q73 140 203.5 215.5t308.5 75.5t303 -78q122 -77 185 -209t63 -301v-63h-1005q5 -217 121.5 -339t330.5 -122q155 0 258.5 66t141.5 196h137zM698 1090q-196 0 -315.5 -118
t-136.5 -321h876q-11 203 -121.5 321t-302.5 118z" />
    <glyph glyph-name="f" unicode="f" horiz-adv-x="763" 
d="M379 1049l-2 -1049h-123v1049h-234v114h234v51q0 165 35 248q31 84 110.5 119t221.5 35h110v-111h-98q-104 0 -160 -20q-54 -23 -74 -85.5t-20 -195.5v-41h350v-114h-350z" />
    <glyph glyph-name="g" unicode="g" horiz-adv-x="1257" 
d="M600 -541q-271 0 -393.5 74t-122.5 219q0 213 260 281q-207 33 -207 198q0 82 67.5 140t198.5 78q-268 71 -268 342v2q0 156 99.5 256.5t293.5 126.5q61 9 150 12q125 9 186 33q61 28 85 71.5t24 112.5v27h137v-35q0 -70 -25 -125q-52 -108 -299 -119q3 0 7.5 -1t7.5 -1
q105 -12 178 -66q70 -53 106.5 -127.5t36.5 -156.5v-8q0 -182 -133.5 -288t-367.5 -106h-62q-167 0 -236 -36t-69 -103q0 -123 217 -123h315q424 0 424 -307q0 -105 -57 -188q-130 -183 -530 -183h-23zM621 500q179 0 275.5 79t96.5 216v2q0 112 -51 178q-91 119 -295 119
q-67 0 -88 -4q-143 -17 -220 -95.5t-75 -201.5v-2q0 -139 92.5 -215t264.5 -76zM623 -428q174 0 272 33q192 66 192 219q0 100 -72.5 152.5t-234.5 52.5h-174q-197 -1 -295 -64t-98 -180v-2q0 -211 377 -211h33z" />
    <glyph glyph-name="h" unicode="h" horiz-adv-x="1404" 
d="M305 0h-125v1554h125v-663q56 140 174 222.5t283 82.5q232 0 352.5 -133t120.5 -365v-698h-131v674q0 189 -93 298t-286 109q-128 0 -223 -59q-96 -62 -146.5 -167.5t-50.5 -244.5v-610z" />
    <glyph glyph-name="i" unicode="i" horiz-adv-x="497" 
d="M250 1335q-53 0 -78 24t-25 81q0 106 105 106q52 0 77 -26t25 -82q0 -103 -104 -103zM184 0v1163h129v-1163h-129z" />
    <glyph glyph-name="j" unicode="j" horiz-adv-x="495" 
d="M252 1335q-55 0 -80 24t-25 81q0 106 105 106q52 0 77 -26t25 -82q0 -103 -102 -103zM-127 -434v117h55q106 0 162 20q55 20 76.5 84t21.5 195v1181h125v-1192q0 -180 -30 -254q-30 -86 -108.5 -118.5t-235.5 -32.5h-66z" />
    <glyph glyph-name="k" unicode="k" horiz-adv-x="1275" 
d="M655 641l-350 -352v-289h-125v1554h125v-1120l10 12l715 717h164l-440 -448l477 -715h-152z" />
    <glyph glyph-name="l" unicode="l" horiz-adv-x="495" 
d="M184 0v1554h129v-1554h-129z" />
    <glyph glyph-name="m" unicode="m" horiz-adv-x="2140" 
d="M307 0h-127v1163h107l12 -270q43 140 147 221.5t261 81.5q169 0 269 -79t134 -220q42 141 147.5 220t266.5 79q218 0 331 -130t113 -361v-705h-129v680q0 189 -84.5 295t-263.5 106q-171 0 -259.5 -105.5t-88.5 -279.5v-696h-129v698q0 109 -33 191q-69 192 -307 192
q-119 0 -199 -57q-168 -118 -168 -391v-633z" />
    <glyph glyph-name="n" unicode="n" horiz-adv-x="1409" 
d="M307 0h-127v1163h109l12 -295q49 152 167 240t294 88q231 0 353 -135t122 -367v-694h-129v674q0 190 -93 298.5t-286 108.5q-130 0 -225 -59q-96 -62 -146.5 -167.5t-50.5 -244.5v-610z" />
    <glyph glyph-name="o" unicode="o" 
d="M692 -29q-275 0 -426 157t-151 437v23q0 195 75 327q76 137 205 209t297 72q166 0 299 -74q134 -73 206.5 -209t72.5 -325v-23q0 -183 -70 -317q-71 -135 -200 -206t-308 -71zM692 88q213 0 331 127.5t118 351.5v19q0 148 -58 264q-61 111 -161 172t-228 61
q-134 0 -229 -59q-104 -61 -160.5 -172t-56.5 -266v-19q0 -222 117 -350.5t327 -128.5z" />
    <glyph glyph-name="p" unicode="p" horiz-adv-x="1429" 
d="M764 -27q-170 0 -286.5 81.5t-172.5 224.5v-687h-125v1571h109l14 -289q57 147 178 234.5t295 87.5q161 0 285 -74q123 -73 188.5 -209.5t65.5 -326.5v-21q0 -178 -68 -317q-71 -134 -194 -204.5t-289 -70.5zM737 86q211 0 329 128.5t118 352.5v19q0 154 -56 266
q-113 233 -380 233q-138 0 -238 -65q-101 -68 -156 -178t-55 -248v-12q0 -144 53 -256q55 -115 153 -177.5t232 -62.5z" />
    <glyph glyph-name="q" unicode="q" horiz-adv-x="1431" 
d="M1124 -408v701q-54 -145 -175.5 -232.5t-297.5 -87.5q-157 0 -276 70q-124 69 -192 202.5t-68 319.5v23q0 189 67 323q68 137 192.5 211t295.5 74t287 -85t169 -232l17 284h106v-1571h-125zM680 88q138 0 242 66q100 64 154 173t54 244v11q0 139 -51 260
q-55 116 -152.5 178.5t-230.5 62.5q-215 0 -331.5 -132.5t-116.5 -364.5v-17q0 -156 55 -258q54 -108 151.5 -165.5t225.5 -57.5z" />
    <glyph glyph-name="r" unicode="r" horiz-adv-x="880" 
d="M180 0v1163h105l18 -309q85 311 457 311h65v-129h-80q-237 0 -338.5 -118.5t-101.5 -366.5v-551h-125z" />
    <glyph glyph-name="s" unicode="s" horiz-adv-x="1198" 
d="M616 -29q-230 0 -371.5 104t-164.5 304h139q12 -97 68 -166q115 -127 331 -127q136 0 207 35q148 67 148 211q0 81 -55 123q-50 37 -128 56t-204 36q-213 31 -310 78q-145 69 -145 237q0 91 45 162q98 172 397 172q219 0 350 -96.5t152 -263.5h-133q-13 120 -111 185.5
t-258 65.5q-123 0 -188 -32q-125 -57 -125 -187q0 -81 55 -123q35 -26 93.5 -44.5t107 -27.5t131.5 -20q203 -29 311 -78q144 -70 144 -239q0 -100 -51 -180q-108 -185 -435 -185z" />
    <glyph glyph-name="t" unicode="t" horiz-adv-x="821" 
d="M750 0h-111q-152 0 -231 39q-85 36 -121.5 129t-36.5 264v617h-230v110h121q55 0 76 8q24 6 31.5 32.5t9.5 90.5q0 1 1 16.5t1 30.5l4 123h109v-297h377v-114h-377v-600q0 -139 26 -207q24 -68 85.5 -93.5t177.5 -25.5h88v-123z" />
    <glyph glyph-name="u" unicode="u" horiz-adv-x="1359" 
d="M1059 291q-44 -148 -157.5 -233t-280.5 -85q-219 0 -334 134t-115 364v692h129v-667q0 -189 87 -297.5t267 -108.5q118 0 209 60q91 62 140 167t49 242v604h129v-1163h-111z" />
    <glyph glyph-name="v" unicode="v" horiz-adv-x="1236" 
d="M553 0l-494 1163h136l417 -1016l437 1016h137l-516 -1163h-117z" />
    <glyph glyph-name="w" unicode="w" horiz-adv-x="1837" 
d="M911 975l-395 -975h-121l-329 1163h131l274 -993l395 993h95l364 -991l317 991h130l-377 -1163h-121z" />
    <glyph glyph-name="x" unicode="x" horiz-adv-x="1228" 
d="M621 516l-408 -516h-164l496 612l-428 551h157l349 -463l366 463h154l-445 -551l473 -612h-155z" />
    <glyph glyph-name="y" unicode="y" horiz-adv-x="1234" 
d="M92 -420v115h70q91 0 144.5 10.5t90.5 38.5q67 48 144 221l26 53l-512 1145h138l438 -989l430 989h137l-539 -1222q-55 -125 -96.5 -192.5t-91.5 -102.5q-50 -37 -120.5 -51.5t-188.5 -14.5h-70z" />
    <glyph glyph-name="z" unicode="z" horiz-adv-x="1167" 
d="M76 102l856 951h-803v110h963v-104l-852 -946h856v-113l-1020 -2v104z" />
    <glyph glyph-name="braceleft" unicode="{" horiz-adv-x="854" 
d="M551 -406q-131 0 -195 37q-116 63 -116 232q0 73 61 262q61 181 61 246q0 78 -47 122t-125 44h-127v118h125q78 0 120 40t42 112q0 65 -49 225q-49 172 -49 236q0 72 24 133q54 135 287 135h180v-109h-133q-92 0 -141 -24q-86 -46 -86 -164q0 -9 1 -20.5t2.5 -21.5
t5.5 -25.5t6 -25t7.5 -29t8 -28.5t9.5 -32t9 -31q49 -156 49 -231q0 -167 -145 -199q75 -19 114 -77t39 -134q0 -79 -57 -256q-59 -175 -59 -240q0 -88 50 -136t179 -48h141v-111h-192z" />
    <glyph glyph-name="bar" unicode="|" horiz-adv-x="540" 
d="M205 -266v1874h131v-1874h-131z" />
    <glyph glyph-name="braceright" unicode="}" horiz-adv-x="854" 
d="M109 -406v111h143q129 0 178 47.5t49 136.5q0 60 -57 240q-57 177 -57 256q0 76 38.5 134t112.5 77q-143 32 -143 199q0 62 49 231q49 156 49 213q0 45 -18 94q-41 94 -211 94h-133v109h182q130 0 194 -37q117 -64 117 -231q0 -76 -49 -236q-49 -172 -49 -225
q0 -73 41.5 -112.5t120.5 -39.5h125v-118h-129q-78 0 -124 -44t-46 -122q0 -65 61 -246q61 -189 61 -262q0 -71 -24 -133q-55 -136 -289 -136h-192z" />
    <glyph glyph-name="asciitilde" unicode="~" horiz-adv-x="1060" 
d="M127 1006q0 121 54 191.5t161 70.5q56 0 102.5 -21.5t98.5 -60.5q48 -41 87.5 -62.5t82.5 -21.5q109 0 112 162h99q0 -265 -211 -265q-105 0 -203 84q-36 28 -55.5 42t-51 27t-61.5 13q-57 0 -86 -41.5t-31 -117.5h-98z" />
    <glyph glyph-name="uni00A0" unicode="&#xa0;" horiz-adv-x="675" 
 />
    <glyph glyph-name="exclamdown" unicode="&#xa1;" horiz-adv-x="659" 
d="M322 1206q60 0 86 -26.5t26 -87.5q0 -59 -27 -87t-85 -28q-111 0 -111 115q0 114 111 114zM252 -279v371q0 128 4 340q6 149 20 402q25 -5 46 -5q20 0 45 5q6 -51 8 -136q16 -286 16 -606v-371h-139z" />
    <glyph glyph-name="cent" unicode="&#xa2;" horiz-adv-x="1363" 
d="M1243 430q-29 -214 -156 -328.5t-331 -128.5v-348h-127v348q-243 19 -378.5 175t-135.5 417v23q0 186 67 311q67 131 183 206t266 89v276h125v-276q202 -14 328.5 -129.5t156.5 -325.5h-133v2q-30 170 -138 256t-276 86q-128 0 -229 -59q-104 -61 -160.5 -172t-56.5 -266
v-19q0 -221 119 -350t325 -129q354 0 418 344h133v-2z" />
    <glyph glyph-name="sterling" unicode="&#xa3;" horiz-adv-x="1454" 
d="M1036 -25q-60 0 -119 13.5t-119.5 42t-101.5 51.5t-104 63q-43 -79 -114 -124.5t-165 -45.5q-252 0 -252 199q0 86 60.5 139.5t165.5 53.5q103 3 250 -78q4 46 4 67t-1.5 41t-6 41.5t-8 37t-12 38.5t-12.5 35t-15.5 37t-15.5 33.5t-17.5 36t-16.5 34.5h-262v103h217
q-72 181 -72 321q0 112 52 205q113 186 372 186q181 0 296 -95.5t135 -258.5l-140 -2q-12 107 -88.5 174.5t-200.5 67.5q-136 0 -214 -75t-78 -200q0 -147 75 -323h414v-103h-375q38 -89 58 -162.5t20 -160.5q0 -63 -16 -129q74 -43 99.5 -57t85 -43t106 -39.5t94.5 -10.5
q122 0 171.5 62t49.5 221v28h133v-47q0 -203 -78.5 -290t-253.5 -87zM315 63q140 0 197 134q-143 84 -225 84q-57 0 -89 -29.5t-32 -77.5q0 -47 38 -79t111 -32z" />
    <glyph glyph-name="currency" unicode="&#xa4;" horiz-adv-x="1511" 
d="M766 227q-175 0 -313 101l-222 -230l-98 92l223 232q-102 135 -102 319t104 320l-221 225l90 94l224 -227q128 102 315 102q176 0 307 -98l213 219l96 -88l-215 -223q109 -133 109 -324q0 -190 -109 -323l211 -211l-88 -94l-213 215q-138 -101 -311 -101zM766 344
q110 0 199 53q90 54 140 144t50 200t-51 201q-52 92 -140.5 144.5t-197.5 52.5q-111 0 -199 -54q-91 -55 -141.5 -143.5t-50.5 -200.5q0 -109 51 -200q55 -92 143.5 -144.5t196.5 -52.5z" />
    <glyph glyph-name="yen" unicode="&#xa5;" horiz-adv-x="1298" 
d="M709 293v-293h-136v293h-366v106h366v234h-364v108h360l-508 709h152l430 -610l449 610h149l-526 -709h381v-108h-387v-234h387v-106h-387z" />
    <glyph glyph-name="brokenbar" unicode="&#xa6;" horiz-adv-x="540" 
d="M205 1608h131v-791h-131v791zM336 582v-848h-131v848h131z" />
    <glyph glyph-name="section" unicode="&#xa7;" horiz-adv-x="1458" 
d="M743 -180q-522 0 -557 428h136q13 -158 122.5 -237t300.5 -79q175 0 265 68t90 178q0 85 -66 133q-55 37 -143 59t-238 48q-25 4 -37 6q-165 30 -262 63q-121 38 -181 105t-60 178q0 88 63 158t180 100q-92 76 -92 205q0 89 45 160q46 81 147.5 127.5t254.5 46.5
q226 0 359 -100.5t147 -272.5h-130q-14 128 -112 197t-266 69q-120 0 -187 -33q-131 -60 -131 -192q0 -87 64 -133q40 -28 111.5 -51t117.5 -32.5t162 -31.5q129 -21 256 -59q121 -39 182.5 -104.5t61.5 -174.5q0 -89 -59.5 -158t-162.5 -100q101 -75 101 -211
q0 -97 -54 -182q-115 -178 -428 -178zM702 524q94 -16 136.5 -24t107.5 -26t109 -40q85 22 126.5 75t41.5 122q0 89 -66 137q-60 45 -154.5 70.5t-246.5 50.5q-233 42 -336 96q-94 -19 -137 -72t-43 -120q0 -90 59 -140q38 -32 105.5 -57t126.5 -38t171 -34z" />
    <glyph glyph-name="dieresis" unicode="&#xa8;" horiz-adv-x="1067" 
d="M342 1341q-53 0 -77.5 23t-24.5 80q0 104 102 104q53 0 77.5 -25t24.5 -79t-25.5 -78.5t-76.5 -24.5zM700 1341q-53 0 -77.5 23t-24.5 80q0 104 104 104q52 0 76.5 -25t24.5 -79q0 -103 -103 -103z" />
    <glyph glyph-name="copyright" unicode="&#xa9;" horiz-adv-x="1722" 
d="M866 -29q-206 0 -383 80q-175 85 -268.5 247t-93.5 400v35q0 223 96 395q98 169 265.5 260t379.5 91q318 0 527 -197q219 -203 219 -547v-37q0 -240 -99 -399q-97 -161 -263.5 -244.5t-379.5 -83.5zM866 72q185 0 330 71q149 75 229 217.5t80 344.5v22q0 209 -84 350
q-85 146 -229 223.5t-330 77.5q-192 0 -332 -80q-147 -81 -227 -228t-80 -345v-20q0 -205 82 -345q83 -141 226 -214.5t335 -73.5zM1235 627q-24 -152 -118 -226.5t-240 -74.5q-173 0 -272 103.5t-99 285.5v16q0 128 49 213q47 88 130 135t187 47q150 0 243 -74t116 -223
h-105q-17 100 -84.5 151.5t-169.5 51.5q-113 0 -190.5 -81.5t-77.5 -221.5v-12q0 -133 75.5 -213t199.5 -80q101 0 167 50.5t84 154.5h105v-2z" />
    <glyph glyph-name="ordfeminine" unicode="&#xaa;" horiz-adv-x="927" 
d="M717 858q-49 -101 -148.5 -165t-226.5 -64q-131 0 -200.5 55t-69.5 154q0 117 110 190q45 30 109 46.5t203 37.5q46 8 64.5 11.5t51.5 11t45.5 14.5t28.5 19t21.5 28t5.5 37q0 75 -57.5 117.5t-174.5 42.5q-121 0 -187.5 -56.5t-72.5 -146.5h-121q11 132 111 214.5
t270 82.5q167 0 254.5 -72.5t87.5 -191.5l-2 -574h-92zM369 719q105 0 184 51q76 51 118 127t42 152v47q-54 -39 -203 -62q-113 -19 -160.5 -31.5t-81.5 -37.5q-67 -42 -67 -117q0 -61 43 -95t125 -34z" />
    <glyph glyph-name="guillemotleft" unicode="&#xab;" horiz-adv-x="1296" 
d="M528 174l-372 426v25l360 438h131l-366 -445l387 -444h-140zM1026 174l-381 430v27l359 432h133l-367 -440l397 -449h-141z" />
    <glyph glyph-name="logicalnot" unicode="&#xac;" horiz-adv-x="1288" 
d="M1036 369v518h-954v121h1081v-639h-127z" />
    <glyph glyph-name="uni00AD" unicode="&#xad;" horiz-adv-x="1200" 
d="M1053 582h-903v127h903v-127z" />
    <glyph glyph-name="registered" unicode="&#xae;" horiz-adv-x="1046" 
d="M524 684q-176 0 -284.5 99.5t-108.5 281.5v18q0 119 51 207q52 89 140 137t198 48q113 0 199 -45q92 -48 143 -136.5t51 -208.5v-20q0 -124 -53 -207q-50 -85 -138 -129.5t-198 -44.5zM524 750q144 0 231 83t87 236v12q0 153 -89.5 239.5t-232.5 86.5q-140 0 -228.5 -89
t-88.5 -239v-10q0 -151 88.5 -235t232.5 -84zM444 1032v-149h-69v403h162q155 0 155 -119q0 -83 -82 -104q39 -8 55.5 -30.5t16.5 -69.5v-60q0 -2 6 -20h-72q-4 4 -4 20v60q0 40 -15.5 54.5t-68.5 14.5h-84zM528 1092q52 -1 74.5 17t22.5 56q0 62 -93 62h-88v-135h84z" />
    <glyph glyph-name="macron" unicode="&#xaf;" horiz-adv-x="1060" 
d="M240 1479h585v-107h-585v107z" />
    <glyph glyph-name="degree" unicode="&#xb0;" horiz-adv-x="753" 
d="M375 907q-132 0 -207.5 72.5t-75.5 198.5v14q0 131 80 204.5t205 73.5q130 0 207.5 -75t77.5 -203v-14q0 -124 -77 -197.5t-210 -73.5zM377 999q85 0 133.5 51t48.5 132v10q0 84 -51.5 135t-130.5 51q-80 0 -131 -49t-51 -137v-10q0 -84 49 -133.5t133 -49.5z" />
    <glyph glyph-name="plusminus" unicode="&#xb1;" horiz-adv-x="1200" 
d="M659 868v-321h-118v321h-328v117h328v320h118v-320h340v-117h-340zM217 274v117h784v-117h-784z" />
    <glyph glyph-name="uni00B2" unicode="&#xb2;" horiz-adv-x="706" 
d="M76 721v47q0 126 117 207q41 29 125 73t94 50q57 32 86.5 67.5t29.5 83.5q0 64 -38 95.5t-125 31.5q-172 0 -172 -170v-26h-103v28q0 122 72 187t205 65q131 0 197.5 -55.5t66.5 -153.5q0 -72 -39 -123q-37 -45 -90 -79t-133 -74q-73 -35 -118 -72.5t-61 -89.5h447v-92
h-561z" />
    <glyph glyph-name="uni00B3" unicode="&#xb3;" horiz-adv-x="729" 
d="M367 707q-152 0 -221.5 57.5t-69.5 183.5v19h104v-17q0 -78 44 -116.5t143 -38.5q178 0 178 133q0 65 -35.5 93t-114.5 28h-110v86h110q142 0 142 120q0 119 -170 119q-84 0 -128 -40.5t-44 -110.5v-9h-105v11q0 109 72.5 172t204.5 63t201 -53t69 -145q0 -127 -117 -164
q129 -39 129 -176q0 -97 -74.5 -156t-207.5 -59z" />
    <glyph glyph-name="acute" unicode="&#xb4;" horiz-adv-x="1060" 
d="M715 1739h147l-315 -391h-115z" />
    <glyph glyph-name="paragraph" unicode="&#xb6;" horiz-adv-x="1421" 
d="M752 0v502h-113q-268 -1 -403.5 124.5t-135.5 354.5q0 220 138.5 344.5t414.5 124.5h574v-1450h-123v1337h-227v-1337h-125zM752 614v723h-99q-210 0 -316 -96t-106 -260q0 -177 106.5 -273t301.5 -94h113z" />
    <glyph glyph-name="periodcentered" unicode="&#xb7;" horiz-adv-x="604" 
d="M303 526q-60 0 -87.5 26t-27.5 89q0 119 115 119t115 -119q0 -115 -115 -115z" />
    <glyph glyph-name="cedilla" unicode="&#xb8;" horiz-adv-x="1060" 
d="M526 -510q-143 0 -217 56t-92 163h123q7 -61 56.5 -94t129.5 -33q172 0 172 117q0 57 -38.5 80.5t-137.5 23.5h-71v197h104v-113q127 0 190.5 -47t63.5 -135q0 -99 -74 -157t-209 -58z" />
    <glyph glyph-name="uni00B9" unicode="&#xb9;" horiz-adv-x="512" 
d="M59 721v94h158v465q-53 -43 -125 -43v82q117 3 139 131h80v-635h152v-94h-404z" />
    <glyph glyph-name="ordmasculine" unicode="&#xba;" horiz-adv-x="976" 
d="M489 629q-194 0 -299.5 110t-105.5 305v17q0 134 53 229q54 96 144.5 146.5t207.5 50.5q118 0 209 -51q93 -52 144 -148t51 -227v-17q0 -192 -110.5 -303.5t-293.5 -111.5zM489 739q136 0 209.5 82.5t73.5 225.5v14q0 146 -77.5 232.5t-205.5 86.5t-205 -84.5t-77 -234.5
v-14q0 -143 73 -225.5t209 -82.5z" />
    <glyph glyph-name="guillemotright" unicode="&#xbb;" horiz-adv-x="1296" 
d="M135 174l397 449l-366 440h133l358 -432v-27l-381 -430h-141zM635 174l387 444l-367 445h131l361 -438v-25l-373 -426h-139z" />
    <glyph glyph-name="onequarter" unicode="&#xbc;" horiz-adv-x="1722" 
d="M946 860l504 639l131 -104l-592 -570zM209 721v94h158v465q-53 -43 -125 -43v82q117 3 139 131h80v-635h151v-94h-403zM1397 172v-172h-88v172h-408v74l408 483h88v-475h123v-82h-123zM817 645l-526 -686l-135 117l622 604zM1309 596l-289 -342h289v342z" />
    <glyph glyph-name="onehalf" unicode="&#xbd;" horiz-adv-x="1722" 
d="M946 860l504 639l131 -104l-592 -570zM209 721v94h158v465q-53 -43 -125 -43v82q117 3 139 131h80v-635h151v-94h-403zM1018 0v47q0 126 117 207q41 29 125 73t94 50q57 32 86.5 67.5t29.5 83.5q0 64 -38 95.5t-125 31.5q-172 0 -172 -170v-26h-103v28q0 122 72 187
t205 65q131 0 197.5 -55.5t66.5 -153.5q0 -71 -39 -122q-61 -73 -223 -154q-150 -71 -178 -162h446v-92h-561zM817 645l-526 -686l-135 117l622 604z" />
    <glyph glyph-name="threequarters" unicode="&#xbe;" horiz-adv-x="1722" 
d="M946 860l504 639l131 -104l-592 -570zM416 707q-152 0 -221.5 57.5t-69.5 183.5v19h104v-17q0 -78 44 -116.5t143 -38.5q178 0 178 133q0 65 -35.5 93t-114.5 28h-110v86h110q142 0 142 120q0 119 -170 119q-84 0 -128 -40.5t-44 -110.5v-9h-105v11q0 109 72.5 172
t204.5 63t201 -53t69 -145q0 -127 -117 -164q129 -39 129 -176q0 -97 -74.5 -156t-207.5 -59zM1397 172v-172h-88v172h-408v74l408 483h88v-475h123v-82h-123zM817 645l-526 -686l-135 117l622 604zM1309 596l-289 -342h289v342z" />
    <glyph glyph-name="questiondown" unicode="&#xbf;" horiz-adv-x="1419" 
d="M778 1038q60 0 86.5 -25.5t26.5 -88.5q0 -59 -27.5 -86t-83.5 -27q-59 0 -85.5 26.5t-26.5 86.5q0 114 110 114zM723 692q24 -8 63 -8q42 0 66 8v-147q0 -90 -37 -148q-22 -35 -59.5 -65.5t-66.5 -46.5t-83 -43q-42 -20 -110 -64q-59 -38 -90 -89.5t-31 -129.5
q0 -83 37 -147q82 -150 338 -150q206 0 302.5 93.5t96.5 275.5v26h133v-32q0 -231 -132 -354.5t-400 -123.5q-173 0 -291 56q-111 57 -166 147.5t-55 202.5q0 115 38 180q34 61 90 102.5t136 81.5q23 10 60.5 32.5t45.5 27.5q113 70 113 188z" />
    <glyph glyph-name="Agrave" unicode="&#xc0;" 
d="M346 1976h154l256 -344h-117zM1026 430h-670l-161 -430h-136l559 1450h132l581 -1450h-135zM684 1294l-283 -749h580z" />
    <glyph glyph-name="Aacute" unicode="&#xc1;" 
d="M907 2028h148l-316 -392h-114zM1026 430h-670l-161 -430h-136l559 1450h132l581 -1450h-135zM684 1294l-283 -749h580z" />
    <glyph glyph-name="Acircumflex" unicode="&#xc2;" 
d="M682 1884l-190 -252h-127l264 342h106l264 -342h-127zM1026 430h-670l-161 -430h-136l559 1450h132l581 -1450h-135zM684 1294l-283 -749h580z" />
    <glyph glyph-name="Atilde" unicode="&#xc3;" 
d="M299 1636q0 111 50 172.5t151 61.5q85 0 196 -68q109 -67 162 -67q55 0 80.5 30.5t26.5 100.5h94q0 -234 -203 -234q-81 0 -192 68q-105 67 -164 67q-55 0 -80 -32t-27 -99h-94zM1026 430h-670l-161 -430h-136l559 1450h132l581 -1450h-135zM684 1294l-283 -749h580z" />
    <glyph glyph-name="Adieresis" unicode="&#xc4;" 
d="M502 1630q-53 0 -78 23t-25 80q0 104 103 104q53 0 77.5 -25t24.5 -79t-25.5 -78.5t-76.5 -24.5zM860 1630q-53 0 -77.5 23t-24.5 80q0 104 104 104q52 0 76.5 -25t24.5 -79q0 -103 -103 -103zM1026 430h-670l-161 -430h-136l559 1450h132l581 -1450h-135zM684 1294
l-283 -749h580z" />
    <glyph glyph-name="Aring" unicode="&#xc5;" 
d="M682 1593q-101 0 -161 60t-60 159q0 102 61.5 163t159.5 61q105 0 166 -58.5t61 -165.5q0 -101 -62 -160t-165 -59zM682 1692q56 0 91.5 31.5t35.5 88.5q0 60 -33.5 95t-93.5 35q-54 0 -87.5 -35t-33.5 -95q0 -55 31.5 -87.5t89.5 -32.5zM1026 430h-670l-161 -430h-136
l559 1450h132l581 -1450h-135zM684 1294l-283 -749h580z" />
    <glyph glyph-name="AE" unicode="&#xc6;" horiz-adv-x="1998" 
d="M997 430h-608l-229 -430h-144l791 1450h1085v-117h-925l94 -545h702v-116h-684l95 -553h747v-119h-852zM852 1294l-401 -749h526z" />
    <glyph glyph-name="Ccedilla" unicode="&#xc7;" horiz-adv-x="1480" 
d="M788 -539q-272 0 -309 220h123q7 -61 56.5 -94t129.5 -33q173 0 173 116q0 57 -39 81t-138 24h-71v198q-283 14 -432.5 189.5t-149.5 509.5v84q0 347 169.5 532t473.5 185q254 0 405.5 -127t180.5 -373h-133q-27 185 -141.5 283t-311.5 98q-244 0 -377 -155t-133 -449
v-72q0 -287 130 -434.5t376 -147.5q202 0 322.5 109t144.5 295h135q-25 -235 -168 -374.5t-387 -152.5v-114q127 0 190.5 -47.5t63.5 -135.5q0 -99 -74 -157t-209 -58z" />
    <glyph glyph-name="Egrave" unicode="&#xc8;" horiz-adv-x="1290" 
d="M369 1976h153l256 -344h-116zM1212 0h-1017v1450h987v-117h-860v-545h731v-116h-731v-553h890v-119z" />
    <glyph glyph-name="Eacute" unicode="&#xc9;" horiz-adv-x="1290" 
d="M930 2028h147l-315 -392h-115zM1212 0h-1017v1450h987v-117h-860v-545h731v-116h-731v-553h890v-119z" />
    <glyph glyph-name="Ecircumflex" unicode="&#xca;" horiz-adv-x="1290" 
d="M705 1884l-191 -252h-127l264 342h107l264 -342h-127zM1212 0h-1017v1450h987v-117h-860v-545h731v-116h-731v-553h890v-119z" />
    <glyph glyph-name="Edieresis" unicode="&#xcb;" horiz-adv-x="1290" 
d="M526 1630q-53 0 -77.5 23t-24.5 80q0 104 102 104q53 0 78 -25t25 -79q0 -103 -103 -103zM885 1630q-53 0 -78 23t-25 80q0 104 105 104q52 0 76 -25t24 -79t-25.5 -78.5t-76.5 -24.5zM1212 0h-1017v1450h987v-117h-860v-545h731v-116h-731v-553h890v-119z" />
    <glyph glyph-name="Igrave" unicode="&#xcc;" horiz-adv-x="915" 
d="M121 1976h153l256 -344h-116zM100 0v123h295v1208h-295v119h715v-119h-295v-1208h295v-123h-715z" />
    <glyph glyph-name="Iacute" unicode="&#xcd;" horiz-adv-x="915" 
d="M682 2028h147l-315 -392h-115zM100 0v123h295v1208h-295v119h715v-119h-295v-1208h295v-123h-715z" />
    <glyph glyph-name="Icircumflex" unicode="&#xce;" horiz-adv-x="915" 
d="M457 1884l-191 -252h-127l264 342h107l264 -342h-127zM100 0v123h295v1208h-295v119h715v-119h-295v-1208h295v-123h-715z" />
    <glyph glyph-name="Idieresis" unicode="&#xcf;" horiz-adv-x="915" 
d="M276 1630q-53 0 -77.5 23t-24.5 80q0 104 102 104q53 0 78 -25t25 -79q0 -103 -103 -103zM635 1630q-53 0 -78 23t-25 80q0 104 105 104q52 0 76 -25t24 -79t-25.5 -78.5t-76.5 -24.5zM100 0v123h295v1208h-295v119h715v-119h-295v-1208h295v-123h-715z" />
    <glyph glyph-name="Eth" unicode="&#xd0;" horiz-adv-x="1476" 
d="M221 0v662h-223v114h223v674h475q176 0 326 -78q153 -79 238.5 -232.5t85.5 -375.5v-82q0 -225 -82 -377q-84 -151 -225 -228t-326 -77h-492zM352 662v-545h357q140 0 260 63q245 140 245 510v68q0 188 -69 317q-67 126 -185 192t-268 66h-340v-557h293v-114h-293z" />
    <glyph glyph-name="Ntilde" unicode="&#xd1;" horiz-adv-x="1507" 
d="M420 1651q0 111 50 172t151 61q87 0 196 -67q37 -23 57.5 -34.5t50.5 -22.5t54 -11q54 0 79.5 30.5t26.5 100.5h95q0 -233 -203 -233q-84 0 -193 67q-35 23 -56 34.5t-51 22.5t-56 11q-55 0 -80 -32t-27 -99h-94zM319 0h-124v1450h131l794 -1135l72 -118l-2 28v1225h125
v-1450h-119l-819 1169l-58 97v-1266z" />
    <glyph glyph-name="Ograve" unicode="&#xd2;" horiz-adv-x="1509" 
d="M416 1999h153l256 -344h-116zM752 -29q-299 0 -460 178t-161 525v82q0 343 165 530t458 187q185 0 325 -82q144 -85 221.5 -245t77.5 -390v-82q0 -238 -80 -389q-79 -156 -218 -235t-328 -79zM754 92q228 0 358.5 152t130.5 434v72q0 290 -128.5 447t-360.5 157
q-234 0 -361 -157.5t-127 -444.5v-74q0 -284 126.5 -435t361.5 -151z" />
    <glyph glyph-name="Oacute" unicode="&#xd3;" horiz-adv-x="1509" 
d="M987 2048h148l-316 -391h-114zM752 -29q-299 0 -460 178t-161 525v82q0 343 165 530t458 187q185 0 325 -82q144 -85 221.5 -245t77.5 -390v-82q0 -238 -80 -389q-79 -156 -218 -235t-328 -79zM754 92q228 0 358.5 152t130.5 434v72q0 290 -128.5 447t-360.5 157
q-234 0 -361 -157.5t-127 -444.5v-74q0 -284 126.5 -435t361.5 -151z" />
    <glyph glyph-name="Ocircumflex" unicode="&#xd4;" horiz-adv-x="1509" 
d="M752 1907l-191 -252h-127l264 342h107l264 -342h-127zM752 -29q-299 0 -460 178t-161 525v82q0 343 165 530t458 187q185 0 325 -82q144 -85 221.5 -245t77.5 -390v-82q0 -238 -80 -389q-79 -156 -218 -235t-328 -79zM754 92q228 0 358.5 152t130.5 434v72
q0 290 -128.5 447t-360.5 157q-234 0 -361 -157.5t-127 -444.5v-74q0 -284 126.5 -435t361.5 -151z" />
    <glyph glyph-name="Otilde" unicode="&#xd5;" horiz-adv-x="1509" 
d="M369 1659q0 111 49.5 172t150.5 61q88 0 197 -67q37 -23 57.5 -34.5t50.5 -22.5t54 -11q54 0 79.5 30.5t26.5 100.5h94q0 -233 -202 -233q-84 0 -193 67q-35 22 -56.5 34t-51.5 23t-56 11q-55 0 -79.5 -32t-26.5 -99h-94zM752 -29q-299 0 -460 178t-161 525v82
q0 343 165 530t458 187q185 0 325 -82q144 -85 221.5 -245t77.5 -390v-82q0 -238 -80 -389q-79 -156 -218 -235t-328 -79zM754 92q228 0 358.5 152t130.5 434v72q0 290 -128.5 447t-360.5 157q-234 0 -361 -157.5t-127 -444.5v-74q0 -284 126.5 -435t361.5 -151z" />
    <glyph glyph-name="Odieresis" unicode="&#xd6;" horiz-adv-x="1509" 
d="M571 1653q-53 0 -77.5 22.5t-24.5 79.5q0 105 102 105q103 0 103 -105q0 -54 -26 -78t-77 -24zM930 1653q-53 0 -78 22.5t-25 79.5q0 105 105 105q52 0 76 -25.5t24 -79.5t-25.5 -78t-76.5 -24zM752 -29q-299 0 -460 178t-161 525v82q0 343 165 530t458 187
q185 0 325 -82q144 -85 221.5 -245t77.5 -390v-82q0 -238 -80 -389q-79 -156 -218 -235t-328 -79zM754 92q228 0 358.5 152t130.5 434v72q0 290 -128.5 447t-360.5 157q-234 0 -361 -157.5t-127 -444.5v-74q0 -284 126.5 -435t361.5 -151z" />
    <glyph glyph-name="multiply" unicode="&#xd7;" horiz-adv-x="1191" 
d="M588 670l-338 -340l-76 82l336 340l-297 309l78 82l299 -312l317 320l78 -80l-317 -319l325 -340l-80 -82z" />
    <glyph glyph-name="Oslash" unicode="&#xd8;" horiz-adv-x="1509" 
d="M754 -29q-149 0 -260 43l-91 -198h-116l114 245q-270 174 -270 613v80q0 222 76 387q77 162 216 247t331 85q155 0 270 -56l94 207h115l-119 -258q128 -90 196 -245.5t68 -366.5v-80q0 -238 -80 -389q-77 -155 -216.5 -234.5t-327.5 -79.5zM266 678q0 -352 193 -496
l514 1125q-94 47 -219 47q-233 0 -360.5 -159.5t-127.5 -444.5v-72zM754 92q228 0 358.5 152t130.5 434v70q0 342 -184 501l-512 -1118q92 -39 207 -39z" />
    <glyph glyph-name="Ugrave" unicode="&#xd9;" horiz-adv-x="1445" 
d="M383 1942h154l256 -345h-117zM723 -31q-287 0 -419 161.5t-132 504.5v815h135v-813q0 -283 97.5 -412t320.5 -129q218 0 316 129.5t98 411.5v813h133v-815q0 -340 -135 -503t-414 -163z" />
    <glyph glyph-name="Uacute" unicode="&#xda;" horiz-adv-x="1445" 
d="M944 1993h148l-316 -391h-114zM723 -31q-287 0 -419 161.5t-132 504.5v815h135v-813q0 -283 97.5 -412t320.5 -129q218 0 316 129.5t98 411.5v813h133v-815q0 -340 -135 -503t-414 -163z" />
    <glyph glyph-name="Ucircumflex" unicode="&#xdb;" horiz-adv-x="1445" 
d="M719 1849l-191 -252h-127l265 342h106l264 -342h-127zM723 -31q-287 0 -419 161.5t-132 504.5v815h135v-813q0 -283 97.5 -412t320.5 -129q218 0 316 129.5t98 411.5v813h133v-815q0 -340 -135 -503t-414 -163z" />
    <glyph glyph-name="Udieresis" unicode="&#xdc;" horiz-adv-x="1445" 
d="M541 1595q-53 0 -78 23t-25 80q0 104 103 104q53 0 77.5 -25t24.5 -79t-25.5 -78.5t-76.5 -24.5zM899 1595q-53 0 -77.5 23t-24.5 80q0 104 104 104q52 0 76 -25t24 -79t-25.5 -78.5t-76.5 -24.5zM723 -31q-287 0 -419 161.5t-132 504.5v815h135v-813q0 -283 97.5 -412
t320.5 -129q218 0 316 129.5t98 411.5v813h133v-815q0 -340 -135 -503t-414 -163z" />
    <glyph glyph-name="Yacute" unicode="&#xdd;" horiz-adv-x="1298" 
d="M862 2013h148l-316 -391h-114zM569 0v569l-508 881h148l430 -756l457 756h147l-541 -887v-563h-133z" />
    <glyph glyph-name="Thorn" unicode="&#xde;" horiz-adv-x="1318" 
d="M324 297v-297h-129v1450h129v-233h342q278 0 415.5 -118.5t137.5 -336.5q0 -228 -134.5 -347t-404.5 -118h-356zM324 1102v-690h356q198 0 302.5 87.5t104.5 262.5q0 163 -104.5 251.5t-316.5 88.5h-342z" />
    <glyph glyph-name="germandbls" unicode="&#xdf;" horiz-adv-x="1419" 
d="M809 -10q-99 0 -213 20v113q108 -19 199 -19q211 0 304 87t93 249q0 156 -97 233t-311 77h-145v102h100q375 0 375 291q0 91 -35 157q-77 148 -356 148q-153 0 -242 -47q-168 -92 -168 -326v-1075h-129v1079q0 134 56 252q124 230 485 230q187 0 305 -56
q211 -103 211 -352q-2 -134 -61.5 -218t-194.5 -120q173 -30 255.5 -126t82.5 -259q0 -131 -49 -229q-110 -211 -465 -211z" />
    <glyph glyph-name="agrave" unicode="&#xe0;" horiz-adv-x="1357" 
d="M360 1722h154l256 -344h-117zM1065 346q-42 -106 -121 -188q-82 -88 -195.5 -137.5t-248.5 -49.5q-183 0 -281 82t-98 221q0 88 40 159t107 114q54 31 103 49q120 42 346 76l176 28q82 14 125 46t43 90q0 254 -359 254q-191 0 -299.5 -88.5t-119.5 -229.5h-129
q9 117 75 219q140 205 469 205q251 0 369.5 -99.5t118.5 -277.5v-819h-107zM530 80q221 0 383 162q73 74 112.5 159.5t39.5 169.5v109q-39 -35 -113 -55.5t-209 -42.5q-162 -25 -243.5 -48t-139.5 -61q-100 -65 -100 -184q0 -97 69.5 -153t200.5 -56z" />
    <glyph glyph-name="aacute" unicode="&#xe1;" horiz-adv-x="1357" 
d="M922 1774h147l-315 -392h-115zM1065 346q-42 -106 -121 -188q-82 -88 -195.5 -137.5t-248.5 -49.5q-183 0 -281 82t-98 221q0 88 40 159t107 114q54 31 103 49q120 42 346 76l176 28q82 14 125 46t43 90q0 254 -359 254q-191 0 -299.5 -88.5t-119.5 -229.5h-129
q9 117 75 219q140 205 469 205q251 0 369.5 -99.5t118.5 -277.5v-819h-107zM530 80q221 0 383 162q73 74 112.5 159.5t39.5 169.5v109q-39 -35 -113 -55.5t-209 -42.5q-162 -25 -243.5 -48t-139.5 -61q-100 -65 -100 -184q0 -97 69.5 -153t200.5 -56z" />
    <glyph glyph-name="acircumflex" unicode="&#xe2;" horiz-adv-x="1357" 
d="M696 1630l-190 -252h-127l264 342h107l264 -342h-127zM1065 346q-42 -106 -121 -188q-82 -88 -195.5 -137.5t-248.5 -49.5q-183 0 -281 82t-98 221q0 88 40 159t107 114q54 31 103 49q120 42 346 76l176 28q82 14 125 46t43 90q0 254 -359 254q-191 0 -299.5 -88.5
t-119.5 -229.5h-129q9 117 75 219q140 205 469 205q251 0 369.5 -99.5t118.5 -277.5v-819h-107zM530 80q221 0 383 162q73 74 112.5 159.5t39.5 169.5v109q-39 -35 -113 -55.5t-209 -42.5q-162 -25 -243.5 -48t-139.5 -61q-100 -65 -100 -184q0 -97 69.5 -153t200.5 -56z
" />
    <glyph glyph-name="atilde" unicode="&#xe3;" horiz-adv-x="1357" 
d="M313 1382q0 111 50 172.5t151 61.5q86 0 197 -68q37 -23 57.5 -34.5t50 -22t53.5 -10.5q55 0 80.5 30.5t26.5 100.5h94q0 -234 -203 -234q-81 0 -192 68q-105 67 -164 67q-55 0 -79.5 -32t-26.5 -99h-95zM1065 346q-42 -106 -121 -188q-82 -88 -195.5 -137.5
t-248.5 -49.5q-183 0 -281 82t-98 221q0 88 40 159t107 114q54 31 103 49q120 42 346 76l176 28q82 14 125 46t43 90q0 254 -359 254q-191 0 -299.5 -88.5t-119.5 -229.5h-129q9 117 75 219q140 205 469 205q251 0 369.5 -99.5t118.5 -277.5v-819h-107zM530 80
q221 0 383 162q73 74 112.5 159.5t39.5 169.5v109q-39 -35 -113 -55.5t-209 -42.5q-162 -25 -243.5 -48t-139.5 -61q-100 -65 -100 -184q0 -97 69.5 -153t200.5 -56z" />
    <glyph glyph-name="adieresis" unicode="&#xe4;" horiz-adv-x="1357" 
d="M516 1376q-53 0 -77.5 23t-24.5 80q0 104 102 104q53 0 77.5 -25t24.5 -79t-25.5 -78.5t-76.5 -24.5zM874 1376q-53 0 -77.5 23t-24.5 80q0 104 105 104q52 0 76 -25t24 -79q0 -103 -103 -103zM1065 346q-42 -106 -121 -188q-82 -88 -195.5 -137.5t-248.5 -49.5
q-183 0 -281 82t-98 221q0 88 40 159t107 114q54 31 103 49q120 42 346 76l176 28q82 14 125 46t43 90q0 254 -359 254q-191 0 -299.5 -88.5t-119.5 -229.5h-129q9 117 75 219q140 205 469 205q251 0 369.5 -99.5t118.5 -277.5v-819h-107zM530 80q221 0 383 162
q73 74 112.5 159.5t39.5 169.5v109q-39 -35 -113 -55.5t-209 -42.5q-162 -25 -243.5 -48t-139.5 -61q-100 -65 -100 -184q0 -97 69.5 -153t200.5 -56z" />
    <glyph glyph-name="aring" unicode="&#xe5;" horiz-adv-x="1357" 
d="M694 1376q-101 0 -161 60t-60 159q0 102 61.5 163t159.5 61q105 0 166.5 -58.5t61.5 -165.5q0 -101 -62.5 -160t-165.5 -59zM694 1475q56 0 91.5 31.5t35.5 88.5q0 60 -33.5 94.5t-93.5 34.5q-55 0 -88 -35t-33 -94q0 -55 31.5 -87.5t89.5 -32.5zM1065 346
q-42 -106 -121 -188q-82 -88 -195.5 -137.5t-248.5 -49.5q-183 0 -281 82t-98 221q0 88 40 159t107 114q54 31 103 49q120 42 346 76l176 28q82 14 125 46t43 90q0 254 -359 254q-191 0 -299.5 -88.5t-119.5 -229.5h-129q9 117 75 219q140 205 469 205q251 0 369.5 -99.5
t118.5 -277.5v-819h-107zM530 80q221 0 383 162q73 74 112.5 159.5t39.5 169.5v109q-39 -35 -113 -55.5t-209 -42.5q-162 -25 -243.5 -48t-139.5 -61q-100 -65 -100 -184q0 -97 69.5 -153t200.5 -56z" />
    <glyph glyph-name="ae" unicode="&#xe6;" horiz-adv-x="2295" 
d="M2157 346q-46 -183 -188.5 -279t-350.5 -96q-221 0 -359 97.5t-188 281.5q-34 -97 -117 -190q-182 -189 -446 -189q-188 0 -287.5 83t-99.5 222q0 88 40 158t107 113q54 31 103 49q120 42 346 76l174 26q84 15 127 44.5t43 86.5q0 115 -96 189t-267 74q-125 0 -219 -43
q-90 -44 -140 -115.5t-56 -161.5h-129q9 117 75 219q140 205 469 205q181 0 293 -65.5t152 -180.5q73 118 195.5 182t283.5 64q178 0 303 -78q122 -77 185 -209t63 -301v-63h-1006q5 -217 122 -339t331 -122q155 0 258 66t141 196h138zM1622 1090q-196 0 -316 -118
t-137 -321h877q-11 203 -121.5 321t-302.5 118zM530 80q221 0 373 162q141 154 141 329q0 11 5 93q-40 -28 -110 -45.5t-196 -38.5q-51 -7 -178 -33q-138 -26 -207 -74q-98 -61 -98 -184q0 -97 69.5 -153t200.5 -56z" />
    <glyph glyph-name="ccedilla" unicode="&#xe7;" horiz-adv-x="1357" 
d="M715 -539q-272 0 -309 220h122q7 -61 57 -94t130 -33q172 0 172 116q0 57 -38.5 81t-137.5 24h-72v198q-248 13 -386 170t-138 422v23q0 189 75 327q76 137 207 209t297 72q229 0 371.5 -115t177.5 -342h-135v2q-30 170 -138 256t-276 86q-132 0 -227 -59
q-104 -61 -160.5 -172t-56.5 -266v-19q0 -221 118 -350t324 -129q354 0 418 344h135v-2q-30 -217 -160.5 -331t-341.5 -126v-114q127 0 190.5 -47.5t63.5 -135.5q0 -99 -73.5 -157t-208.5 -58z" />
    <glyph glyph-name="egrave" unicode="&#xe8;" horiz-adv-x="1372" 
d="M360 1722h154l256 -344h-117zM1233 346q-46 -183 -188.5 -279t-350.5 -96q-281 0 -430 157t-149 435v21q0 185 71 321q73 140 203.5 215.5t308.5 75.5t303 -78q122 -77 185 -209t63 -301v-63h-1005q5 -217 121.5 -339t330.5 -122q155 0 258.5 66t141.5 196h137zM698 1090
q-196 0 -315.5 -118t-136.5 -321h876q-11 203 -121.5 321t-302.5 118z" />
    <glyph glyph-name="eacute" unicode="&#xe9;" horiz-adv-x="1372" 
d="M922 1774h147l-315 -392h-115zM1233 346q-46 -183 -188.5 -279t-350.5 -96q-281 0 -430 157t-149 435v21q0 185 71 321q73 140 203.5 215.5t308.5 75.5t303 -78q122 -77 185 -209t63 -301v-63h-1005q5 -217 121.5 -339t330.5 -122q155 0 258.5 66t141.5 196h137z
M698 1090q-196 0 -315.5 -118t-136.5 -321h876q-11 203 -121.5 321t-302.5 118z" />
    <glyph glyph-name="ecircumflex" unicode="&#xea;" horiz-adv-x="1372" 
d="M696 1630l-190 -252h-127l264 342h107l264 -342h-127zM1233 346q-46 -183 -188.5 -279t-350.5 -96q-281 0 -430 157t-149 435v21q0 185 71 321q73 140 203.5 215.5t308.5 75.5t303 -78q122 -77 185 -209t63 -301v-63h-1005q5 -217 121.5 -339t330.5 -122q155 0 258.5 66
t141.5 196h137zM698 1090q-196 0 -315.5 -118t-136.5 -321h876q-11 203 -121.5 321t-302.5 118z" />
    <glyph glyph-name="edieresis" unicode="&#xeb;" horiz-adv-x="1372" 
d="M516 1376q-53 0 -77.5 23t-24.5 80q0 104 102 104q53 0 77.5 -25t24.5 -79t-25.5 -78.5t-76.5 -24.5zM874 1376q-53 0 -77.5 23t-24.5 80q0 104 105 104q52 0 76 -25t24 -79q0 -103 -103 -103zM1233 346q-46 -183 -188.5 -279t-350.5 -96q-281 0 -430 157t-149 435v21
q0 185 71 321q73 140 203.5 215.5t308.5 75.5t303 -78q122 -77 185 -209t63 -301v-63h-1005q5 -217 121.5 -339t330.5 -122q155 0 258.5 66t141.5 196h137zM698 1090q-196 0 -315.5 -118t-136.5 -321h876q-11 203 -121.5 321t-302.5 118z" />
    <glyph glyph-name="igrave" unicode="&#xec;" horiz-adv-x="497" 
d="M-88 1688h154l256 -345h-117zM184 0v1163h129v-1163h-129z" />
    <glyph glyph-name="iacute" unicode="&#xed;" horiz-adv-x="497" 
d="M477 1739h148l-316 -391h-114zM184 0v1163h129v-1163h-129z" />
    <glyph glyph-name="icircumflex" unicode="&#xee;" horiz-adv-x="497" 
d="M250 1595l-191 -252h-127l265 343h106l264 -343h-127zM184 0v1163h129v-1163h-129z" />
    <glyph glyph-name="idieresis" unicode="&#xef;" horiz-adv-x="497" 
d="M70 1341q-53 0 -78 23t-25 80q0 104 103 104q53 0 77.5 -25t24.5 -79t-25.5 -78.5t-76.5 -24.5zM428 1341q-53 0 -77.5 23t-24.5 80q0 104 104 104q52 0 76 -25t24 -79t-25.5 -78.5t-76.5 -24.5zM184 0v1163h129v-1163h-129z" />
    <glyph glyph-name="eth" unicode="&#xf0;" horiz-adv-x="1417" 
d="M705 -31q-185 0 -316 70q-134 68 -204 194t-70 299v23q0 183 75 315q76 127 206 192.5t300 65.5q153 0 266 -62.5t179 -174.5q-40 123 -123.5 233t-216.5 224l-180 -119h-162l268 178q-157 121 -248 178h201q79 -50 147 -112l170 112h160l-258 -172
q206 -185 302.5 -385.5t96.5 -439.5v-8q0 -300 -151.5 -455.5t-441.5 -155.5zM709 88q224 0 343 121t119 354v6q0 130 -57 226q-57 105 -161.5 163t-247.5 58q-130 0 -236 -53q-106 -52 -163.5 -155t-57.5 -253v-20q0 -207 122.5 -327t338.5 -120z" />
    <glyph glyph-name="ntilde" unicode="&#xf1;" horiz-adv-x="1409" 
d="M328 1376q0 111 49.5 172.5t150.5 61.5q86 0 197 -68q109 -67 162 -67q54 0 79.5 30.5t26.5 100.5h94q0 -234 -202 -234q-82 0 -193 68q-105 67 -164 67q-55 0 -79.5 -32t-26.5 -99h-94zM307 0h-127v1163h109l12 -295q49 152 167 240t294 88q231 0 353 -135t122 -367
v-694h-129v674q0 190 -93 298.5t-286 108.5q-130 0 -225 -59q-96 -62 -146.5 -167.5t-50.5 -244.5v-610z" />
    <glyph glyph-name="ograve" unicode="&#xf2;" 
d="M354 1722h154l256 -344h-117zM692 -29q-275 0 -426 157t-151 437v23q0 195 75 327q76 137 205 209t297 72q166 0 299 -74q134 -73 206.5 -209t72.5 -325v-23q0 -183 -70 -317q-71 -135 -200 -206t-308 -71zM692 88q213 0 331 127.5t118 351.5v19q0 148 -58 264
q-61 111 -161 172t-228 61q-134 0 -229 -59q-104 -61 -160.5 -172t-56.5 -266v-19q0 -222 117 -350.5t327 -128.5z" />
    <glyph glyph-name="oacute" unicode="&#xf3;" 
d="M915 1774h148l-315 -392h-115zM692 -29q-275 0 -426 157t-151 437v23q0 195 75 327q76 137 205 209t297 72q166 0 299 -74q134 -73 206.5 -209t72.5 -325v-23q0 -183 -70 -317q-71 -135 -200 -206t-308 -71zM692 88q213 0 331 127.5t118 351.5v19q0 148 -58 264
q-61 111 -161 172t-228 61q-134 0 -229 -59q-104 -61 -160.5 -172t-56.5 -266v-19q0 -222 117 -350.5t327 -128.5z" />
    <glyph glyph-name="ocircumflex" unicode="&#xf4;" 
d="M692 1630l-190 -252h-127l264 342h106l265 -342h-127zM692 -29q-275 0 -426 157t-151 437v23q0 195 75 327q76 137 205 209t297 72q166 0 299 -74q134 -73 206.5 -209t72.5 -325v-23q0 -183 -70 -317q-71 -135 -200 -206t-308 -71zM692 88q213 0 331 127.5t118 351.5v19
q0 148 -58 264q-61 111 -161 172t-228 61q-134 0 -229 -59q-104 -61 -160.5 -172t-56.5 -266v-19q0 -222 117 -350.5t327 -128.5z" />
    <glyph glyph-name="otilde" unicode="&#xf5;" 
d="M309 1382q0 111 50 172.5t151 61.5q86 0 197 -68q37 -23 57.5 -34.5t50 -22t53.5 -10.5q55 0 80.5 30.5t26.5 100.5h94q0 -234 -203 -234q-81 0 -192 68q-105 67 -164 67q-55 0 -80 -32t-27 -99h-94zM692 -29q-275 0 -426 157t-151 437v23q0 195 75 327q76 137 205 209
t297 72q166 0 299 -74q134 -73 206.5 -209t72.5 -325v-23q0 -183 -70 -317q-71 -135 -200 -206t-308 -71zM692 88q213 0 331 127.5t118 351.5v19q0 148 -58 264q-61 111 -161 172t-228 61q-134 0 -229 -59q-104 -61 -160.5 -172t-56.5 -266v-19q0 -222 117 -350.5
t327 -128.5z" />
    <glyph glyph-name="odieresis" unicode="&#xf6;" 
d="M512 1376q-53 0 -77.5 23t-24.5 80q0 104 102 104q53 0 77.5 -25t24.5 -79t-25.5 -78.5t-76.5 -24.5zM870 1376q-53 0 -77.5 23t-24.5 80q0 104 104 104q52 0 76.5 -25t24.5 -79q0 -103 -103 -103zM692 -29q-275 0 -426 157t-151 437v23q0 195 75 327q76 137 205 209
t297 72q166 0 299 -74q134 -73 206.5 -209t72.5 -325v-23q0 -183 -70 -317q-71 -135 -200 -206t-308 -71zM692 88q213 0 331 127.5t118 351.5v19q0 148 -58 264q-61 111 -161 172t-228 61q-134 0 -229 -59q-104 -61 -160.5 -172t-56.5 -266v-19q0 -222 117 -350.5
t327 -128.5z" />
    <glyph glyph-name="divide" unicode="&#xf7;" horiz-adv-x="1200" 
d="M594 1008q-46 0 -68 21t-22 69q0 94 92 94q88 0 88 -94q0 -90 -90 -90zM145 664v116h914v-116h-914zM592 248q-46 0 -68 20.5t-22 69.5q0 92 92 92q88 0 88 -92q0 -90 -90 -90z" />
    <glyph glyph-name="oslash" unicode="&#xf8;" 
d="M692 -29q-112 0 -198 27l-86 -182h-113l100 219q-136 71 -208 205.5t-72 324.5v23q0 195 75 327q76 137 205 209t297 72q123 0 221 -37l84 178h115l-104 -223q124 -75 193 -210.5t69 -315.5v-23q0 -179 -72 -317q-74 -134 -203.5 -205.5t-302.5 -71.5zM248 567
q0 -144 52 -250.5t149 -166.5l415 901q-68 32 -170 32q-134 0 -229 -59q-104 -61 -160.5 -172t-56.5 -266v-19zM692 88q213 0 331 127.5t118 351.5v19q0 136 -49 242.5t-136 172.5l-411 -892q65 -21 147 -21z" />
    <glyph glyph-name="ugrave" unicode="&#xf9;" horiz-adv-x="1359" 
d="M340 1665h154l256 -344h-117zM1059 291q-44 -148 -157.5 -233t-280.5 -85q-219 0 -334 134t-115 364v692h129v-667q0 -189 87 -297.5t267 -108.5q118 0 209 60q91 62 140 167t49 242v604h129v-1163h-111z" />
    <glyph glyph-name="uacute" unicode="&#xfa;" horiz-adv-x="1359" 
d="M901 1716h148l-316 -391h-115zM1059 291q-44 -148 -157.5 -233t-280.5 -85q-219 0 -334 134t-115 364v692h129v-667q0 -189 87 -297.5t267 -108.5q118 0 209 60q91 62 140 167t49 242v604h129v-1163h-111z" />
    <glyph glyph-name="ucircumflex" unicode="&#xfb;" horiz-adv-x="1359" 
d="M676 1573l-191 -252h-127l265 342h106l264 -342h-127zM1059 291q-44 -148 -157.5 -233t-280.5 -85q-219 0 -334 134t-115 364v692h129v-667q0 -189 87 -297.5t267 -108.5q118 0 209 60q91 62 140 167t49 242v604h129v-1163h-111z" />
    <glyph glyph-name="udieresis" unicode="&#xfc;" horiz-adv-x="1359" 
d="M498 1319q-53 0 -78 22.5t-25 79.5q0 105 103 105q52 0 77 -25.5t25 -79.5t-25.5 -78t-76.5 -24zM856 1319q-53 0 -77.5 22.5t-24.5 79.5q0 105 104 105q52 0 76 -25.5t24 -79.5t-25.5 -78t-76.5 -24zM1059 291q-44 -148 -157.5 -233t-280.5 -85q-219 0 -334 134
t-115 364v692h129v-667q0 -189 87 -297.5t267 -108.5q118 0 209 60q91 62 140 167t49 242v604h129v-1163h-111z" />
    <glyph glyph-name="yacute" unicode="&#xfd;" horiz-adv-x="1234" 
d="M850 1718h147l-315 -391h-115zM92 -420v115h70q91 0 144.5 10.5t90.5 38.5q67 48 144 221l26 53l-512 1145h138l438 -989l430 989h137l-539 -1222q-55 -125 -96.5 -192.5t-91.5 -102.5q-50 -37 -120.5 -51.5t-188.5 -14.5h-70z" />
    <glyph glyph-name="thorn" unicode="&#xfe;" horiz-adv-x="1429" 
d="M766 -27q-170 0 -286.5 81.5t-172.5 224.5v-687h-125v1940h125v-653q56 145 178 231t293 86q163 0 281 -72q124 -73 190 -207t66 -323v-29q0 -186 -70 -317q-67 -133 -191 -204t-288 -71zM737 86q212 0 329.5 128t117.5 353v25q0 144 -56 262q-56 111 -154 171t-226 60
q-132 0 -238 -65q-101 -66 -156 -175.5t-55 -244.5v-18q0 -144 53 -256q55 -115 153 -177.5t232 -62.5z" />
    <glyph glyph-name="ydieresis" unicode="&#xff;" horiz-adv-x="1234" 
d="M446 1321q-53 0 -77.5 22.5t-24.5 79.5q0 105 102 105q103 0 103 -105q0 -54 -26 -78t-77 -24zM805 1321q-53 0 -78 22.5t-25 79.5q0 105 105 105q52 0 76 -25.5t24 -79.5t-25.5 -78t-76.5 -24zM92 -420v115h70q91 0 144.5 10.5t90.5 38.5q67 48 144 221l26 53l-512 1145
h138l438 -989l430 989h137l-539 -1222q-55 -125 -96.5 -192.5t-91.5 -102.5q-50 -37 -120.5 -51.5t-188.5 -14.5h-70z" />
    <glyph glyph-name="Amacron" unicode="&#x100;" 
d="M395 1767h586v-106h-586v106zM1026 430h-670l-161 -430h-136l559 1450h132l581 -1450h-135zM684 1294l-283 -749h580z" />
    <glyph glyph-name="amacron" unicode="&#x101;" horiz-adv-x="1357" 
d="M410 1513h585v-106h-585v106zM1065 346q-42 -106 -121 -188q-82 -88 -195.5 -137.5t-248.5 -49.5q-183 0 -281 82t-98 221q0 88 40 159t107 114q54 31 103 49q120 42 346 76l176 28q82 14 125 46t43 90q0 254 -359 254q-191 0 -299.5 -88.5t-119.5 -229.5h-129
q9 117 75 219q140 205 469 205q251 0 369.5 -99.5t118.5 -277.5v-819h-107zM530 80q221 0 383 162q73 74 112.5 159.5t39.5 169.5v109q-39 -35 -113 -55.5t-209 -42.5q-162 -25 -243.5 -48t-139.5 -61q-100 -65 -100 -184q0 -97 69.5 -153t200.5 -56z" />
    <glyph glyph-name="Abreve" unicode="&#x102;" 
d="M680 1624q-128 0 -205 47q-137 89 -147 307h104q7 -117 66.5 -187t183.5 -71q117 1 182.5 73t71.5 185h104q-3 -89 -43 -178q-40 -83 -119.5 -129.5t-197.5 -46.5zM1026 430h-670l-161 -430h-136l559 1450h132l581 -1450h-135zM684 1294l-283 -749h580z" />
    <glyph glyph-name="abreve" unicode="&#x103;" horiz-adv-x="1357" 
d="M694 1370q-128 0 -205 47q-137 89 -147 307h104q7 -117 66.5 -187t183.5 -71q117 1 182.5 73t71.5 185h105q-3 -89 -43 -178q-40 -83 -120 -129.5t-198 -46.5zM1065 346q-42 -106 -121 -188q-82 -88 -195.5 -137.5t-248.5 -49.5q-183 0 -281 82t-98 221q0 88 40 159
t107 114q54 31 103 49q120 42 346 76l176 28q82 14 125 46t43 90q0 254 -359 254q-191 0 -299.5 -88.5t-119.5 -229.5h-129q9 117 75 219q140 205 469 205q251 0 369.5 -99.5t118.5 -277.5v-819h-107zM530 80q221 0 383 162q73 74 112.5 159.5t39.5 169.5v109
q-39 -35 -113 -55.5t-209 -42.5q-162 -25 -243.5 -48t-139.5 -61q-100 -65 -100 -184q0 -97 69.5 -153t200.5 -56z" />
    <glyph glyph-name="Aogonek" unicode="&#x104;" 
d="M1550 -244q-84 -207 -317 -207q-123 0 -191.5 54t-68.5 151q0 148 215 266l-162 410h-670l-161 -430h-136l559 1450h132l581 -1450q-143 -77 -195.5 -128t-52.5 -110q0 -55 42.5 -87.5t113.5 -32.5q134 0 186 114h125zM684 1294l-283 -749h580z" />
    <glyph glyph-name="aogonek" unicode="&#x105;" horiz-adv-x="1357" 
d="M1090 -451q-123 0 -192 54t-69 151q0 156 248 283l-12 309q-42 -106 -121 -188q-82 -88 -195.5 -137.5t-248.5 -49.5q-183 0 -281 82t-98 221q0 88 40 159t107 114q54 31 103 49q120 42 346 76l176 28q82 14 125 46t43 90q0 254 -359 254q-191 0 -299.5 -88.5
t-119.5 -229.5h-129q9 117 75 219q140 205 469 205q251 0 369.5 -99.5t118.5 -277.5v-817l2 -2q-143 -77 -195.5 -128t-52.5 -110q0 -55 42.5 -87.5t113.5 -32.5q134 0 186 114h125q-84 -207 -317 -207zM530 80q221 0 383 162q73 74 112.5 159.5t39.5 169.5v109
q-39 -35 -113 -55.5t-209 -42.5q-162 -25 -243.5 -48t-139.5 -61q-100 -65 -100 -184q0 -97 69.5 -153t200.5 -56z" />
    <glyph glyph-name="Cacute" unicode="&#x106;" horiz-adv-x="1480" 
d="M997 2050h148l-316 -391h-114zM1372 500q-27 -248 -183.5 -388.5t-422.5 -140.5q-308 0 -471.5 176t-163.5 525v84q0 347 169.5 532t473.5 185q254 0 405.5 -127t180.5 -373h-133q-27 185 -141.5 283t-311.5 98q-244 0 -377 -155t-133 -449v-72q0 -287 130 -434.5
t376 -147.5q202 0 322.5 109t144.5 295h135z" />
    <glyph glyph-name="cacute" unicode="&#x107;" horiz-adv-x="1357" 
d="M915 1774h148l-315 -392h-115zM1245 430q-31 -230 -175.5 -344.5t-377.5 -114.5q-273 0 -425 157.5t-152 436.5v23q0 189 75 327q76 137 207 209t297 72q229 0 371.5 -115t177.5 -342h-135v2q-30 170 -138 256t-276 86q-132 0 -227 -59q-104 -61 -160.5 -172t-56.5 -266
v-19q0 -221 118 -350t324 -129q354 0 418 344h135v-2z" />
    <glyph glyph-name="Ccircumflex" unicode="&#x108;" horiz-adv-x="1480" 
d="M772 1907l-190 -252h-127l264 342h106l265 -342h-127zM1372 500q-27 -248 -183.5 -388.5t-422.5 -140.5q-308 0 -471.5 176t-163.5 525v84q0 347 169.5 532t473.5 185q254 0 405.5 -127t180.5 -373h-133q-27 185 -141.5 283t-311.5 98q-244 0 -377 -155t-133 -449v-72
q0 -287 130 -434.5t376 -147.5q202 0 322.5 109t144.5 295h135z" />
    <glyph glyph-name="ccircumflex" unicode="&#x109;" horiz-adv-x="1357" 
d="M690 1630l-190 -252h-127l264 342h106l265 -342h-127zM1245 430q-31 -230 -175.5 -344.5t-377.5 -114.5q-273 0 -425 157.5t-152 436.5v23q0 189 75 327q76 137 207 209t297 72q229 0 371.5 -115t177.5 -342h-135v2q-30 170 -138 256t-276 86q-132 0 -227 -59
q-104 -61 -160.5 -172t-56.5 -266v-19q0 -221 118 -350t324 -129q354 0 418 344h135v-2z" />
    <glyph glyph-name="Cdotaccent" unicode="&#x10a;" horiz-adv-x="1480" 
d="M772 1653q-59 0 -86 25.5t-27 86.5q0 115 113 115q111 0 111 -117q0 -110 -111 -110zM1372 500q-27 -248 -183.5 -388.5t-422.5 -140.5q-308 0 -471.5 176t-163.5 525v84q0 347 169.5 532t473.5 185q254 0 405.5 -127t180.5 -373h-133q-27 185 -141.5 283t-311.5 98
q-244 0 -377 -155t-133 -449v-72q0 -287 130 -434.5t376 -147.5q202 0 322.5 109t144.5 295h135z" />
    <glyph glyph-name="cdotaccent" unicode="&#x10b;" horiz-adv-x="1357" 
d="M690 1376q-59 0 -85.5 26t-26.5 87q0 115 112 115q111 0 111 -117q0 -111 -111 -111zM1245 430q-31 -230 -175.5 -344.5t-377.5 -114.5q-273 0 -425 157.5t-152 436.5v23q0 189 75 327q76 137 207 209t297 72q229 0 371.5 -115t177.5 -342h-135v2q-30 170 -138 256
t-276 86q-132 0 -227 -59q-104 -61 -160.5 -172t-56.5 -266v-19q0 -221 118 -350t324 -129q354 0 418 344h135v-2z" />
    <glyph glyph-name="Ccaron" unicode="&#x10c;" horiz-adv-x="1480" 
d="M719 1653l-262 334h131l180 -236l190 236h129l-270 -334h-98zM1372 500q-27 -248 -183.5 -388.5t-422.5 -140.5q-308 0 -471.5 176t-163.5 525v84q0 347 169.5 532t473.5 185q254 0 405.5 -127t180.5 -373h-133q-27 185 -141.5 283t-311.5 98q-244 0 -377 -155t-133 -449
v-72q0 -287 130 -434.5t376 -147.5q202 0 322.5 109t144.5 295h135z" />
    <glyph glyph-name="ccaron" unicode="&#x10d;" horiz-adv-x="1357" 
d="M637 1376l-262 334h131l180 -235l191 235h129l-271 -334h-98zM1245 430q-31 -230 -175.5 -344.5t-377.5 -114.5q-273 0 -425 157.5t-152 436.5v23q0 189 75 327q76 137 207 209t297 72q229 0 371.5 -115t177.5 -342h-135v2q-30 170 -138 256t-276 86q-132 0 -227 -59
q-104 -61 -160.5 -172t-56.5 -266v-19q0 -221 118 -350t324 -129q354 0 418 344h135v-2z" />
    <glyph glyph-name="Dcaron" unicode="&#x10e;" horiz-adv-x="1449" 
d="M666 1630l-263 334h132l180 -235l190 235h129l-270 -334h-98zM195 1450h473q175 0 325 -78q155 -79 240.5 -232t85.5 -376v-82q0 -225 -82 -377q-84 -151 -225 -228t-326 -77h-491v1450zM324 1333v-1216h358q140 0 260 63q244 139 244 510v68q0 186 -70 317
q-70 126 -186.5 192t-265.5 66h-340z" />
    <glyph glyph-name="dcaron" unicode="&#x10f;" horiz-adv-x="1429" 
d="M1542 1686h127l-135 -353h-98zM1126 295q-53 -146 -176 -234t-299 -88q-156 0 -278 70q-124 73 -191 207t-67 323v21q0 179 67 319q71 137 195 210t291 73q170 0 286.5 -81.5t169.5 -223.5v663h125v-1554h-106zM680 90q138 0 242 66q100 64 154 173.5t54 245.5v13
q0 142 -51 256q-55 116 -152.5 178.5t-230.5 62.5q-215 0 -331.5 -132.5t-116.5 -360.5v-17q0 -154 57 -262q55 -108 153 -165.5t222 -57.5z" />
    <glyph glyph-name="Dcroat" unicode="&#x110;" horiz-adv-x="1476" 
d="M221 0v662h-223v114h223v674h475q176 0 326 -78q153 -79 238.5 -232.5t85.5 -375.5v-82q0 -225 -82 -377q-84 -151 -225 -228t-326 -77h-492zM352 662v-545h357q140 0 260 63q245 140 245 510v68q0 188 -69 317q-67 126 -185 192t-268 66h-340v-557h293v-114h-293z" />
    <glyph glyph-name="dcroat" unicode="&#x111;" horiz-adv-x="1429" 
d="M1126 295q-53 -146 -176 -234t-299 -88q-156 0 -278 70q-124 73 -191 207t-67 323v21q0 179 67 319q71 137 195 210t291 73q170 0 286.5 -81.5t169.5 -223.5v426h-266v80h266v157h125v-157h172v-80h-172v-1317h-106zM680 90q138 0 242 66q100 64 154 173.5t54 245.5v13
q0 142 -51 256q-55 116 -152.5 178.5t-230.5 62.5q-215 0 -331.5 -132.5t-116.5 -360.5v-17q0 -154 57 -262q55 -108 153 -165.5t222 -57.5z" />
    <glyph glyph-name="Emacron" unicode="&#x112;" horiz-adv-x="1290" 
d="M420 1767h586v-106h-586v106zM1212 0h-1017v1450h987v-117h-860v-545h731v-116h-731v-553h890v-119z" />
    <glyph glyph-name="emacron" unicode="&#x113;" horiz-adv-x="1372" 
d="M410 1513h585v-106h-585v106zM1233 346q-46 -183 -188.5 -279t-350.5 -96q-281 0 -430 157t-149 435v21q0 185 71 321q73 140 203.5 215.5t308.5 75.5t303 -78q122 -77 185 -209t63 -301v-63h-1005q5 -217 121.5 -339t330.5 -122q155 0 258.5 66t141.5 196h137zM698 1090
q-196 0 -315.5 -118t-136.5 -321h876q-11 203 -121.5 321t-302.5 118z" />
    <glyph glyph-name="Ebreve" unicode="&#x114;" horiz-adv-x="1290" 
d="M702 1624q-127 0 -204 47q-138 89 -148 307h105q7 -117 66.5 -187t183.5 -71q117 1 182 73t71 185h105q-3 -89 -43 -178q-40 -83 -120 -129.5t-198 -46.5zM1212 0h-1017v1450h987v-117h-860v-545h731v-116h-731v-553h890v-119z" />
    <glyph glyph-name="ebreve" unicode="&#x115;" horiz-adv-x="1372" 
d="M694 1370q-128 0 -205 47q-137 89 -147 307h104q7 -117 66.5 -187t183.5 -71q117 1 182.5 73t71.5 185h105q-3 -89 -43 -178q-40 -83 -120 -129.5t-198 -46.5zM1233 346q-46 -183 -188.5 -279t-350.5 -96q-281 0 -430 157t-149 435v21q0 185 71 321q73 140 203.5 215.5
t308.5 75.5t303 -78q122 -77 185 -209t63 -301v-63h-1005q5 -217 121.5 -339t330.5 -122q155 0 258.5 66t141.5 196h137zM698 1090q-196 0 -315.5 -118t-136.5 -321h876q-11 203 -121.5 321t-302.5 118z" />
    <glyph glyph-name="Edotaccent" unicode="&#x116;" horiz-adv-x="1290" 
d="M705 1630q-59 0 -86 26t-27 87q0 115 113 115q110 0 110 -117q0 -111 -110 -111zM1212 0h-1017v1450h987v-117h-860v-545h731v-116h-731v-553h890v-119z" />
    <glyph glyph-name="edotaccent" unicode="&#x117;" horiz-adv-x="1372" 
d="M696 1376q-59 0 -85.5 26t-26.5 87q0 115 112 115q111 0 111 -117q0 -111 -111 -111zM1233 346q-46 -183 -188.5 -279t-350.5 -96q-281 0 -430 157t-149 435v21q0 185 71 321q73 140 203.5 215.5t308.5 75.5t303 -78q122 -77 185 -209t63 -301v-63h-1005
q5 -217 121.5 -339t330.5 -122q155 0 258.5 66t141.5 196h137zM698 1090q-196 0 -315.5 -118t-136.5 -321h876q-11 203 -121.5 321t-302.5 118z" />
    <glyph glyph-name="Eogonek" unicode="&#x118;" horiz-adv-x="1290" 
d="M1432 -244q-84 -207 -318 -207q-123 0 -191.5 54t-68.5 151q0 137 180 246h-839v1450h987v-117h-860v-545h731v-116h-731v-553h890v-119q-143 -77 -195 -128t-52 -110q0 -55 42 -87.5t113 -32.5q135 0 187 114h125z" />
    <glyph glyph-name="eogonek" unicode="&#x119;" horiz-adv-x="1372" 
d="M887 -414q-123 0 -191.5 54t-68.5 151q0 100 92 180h-25q-281 0 -430 157t-149 435v21q0 185 71 321q73 140 203.5 215.5t308.5 75.5t303 -78q122 -77 185 -209t63 -301v-63h-1005q5 -217 121.5 -339t330.5 -122q155 0 258.5 66t141.5 196h137q-30 -118 -102.5 -201.5
t-178.5 -126.5q-123 -70 -169 -117.5t-46 -101.5q0 -55 42.5 -88t113.5 -33q133 0 186 115h125q-84 -207 -317 -207zM698 1090q-196 0 -315.5 -118t-136.5 -321h876q-11 203 -121.5 321t-302.5 118z" />
    <glyph glyph-name="Ecaron" unicode="&#x11a;" horiz-adv-x="1290" 
d="M651 1630l-262 334h131l180 -235l191 235h129l-270 -334h-99zM1212 0h-1017v1450h987v-117h-860v-545h731v-116h-731v-553h890v-119z" />
    <glyph glyph-name="ecaron" unicode="&#x11b;" horiz-adv-x="1372" 
d="M643 1376l-262 334h131l180 -235l191 235h129l-271 -334h-98zM1233 346q-46 -183 -188.5 -279t-350.5 -96q-281 0 -430 157t-149 435v21q0 185 71 321q73 140 203.5 215.5t308.5 75.5t303 -78q122 -77 185 -209t63 -301v-63h-1005q5 -217 121.5 -339t330.5 -122
q155 0 258.5 66t141.5 196h137zM698 1090q-196 0 -315.5 -118t-136.5 -321h876q-11 203 -121.5 321t-302.5 118z" />
    <glyph glyph-name="Gcircumflex" unicode="&#x11c;" horiz-adv-x="1517" 
d="M766 1907l-191 -252h-126l264 342h106l264 -342h-127zM1247 383q-24 -117 -84 -209q-132 -203 -434 -203q-287 0 -442.5 174t-155.5 525v86q0 349 167.5 533t469.5 184q254 0 407.5 -127t176.5 -367h-135q-24 178 -139 277.5t-312 99.5q-244 0 -373 -154t-129 -448v-80
q0 -291 127.5 -437.5t362.5 -146.5q242 0 364 158q104 134 107 338l-482 4v108h613v-698h-101z" />
    <glyph glyph-name="gcircumflex" unicode="&#x11d;" horiz-adv-x="1261" 
d="M594 1692l-191 -252h-127l265 342h106l264 -342h-127zM600 -541q-271 0 -393.5 74t-122.5 219q0 214 262 281q-207 33 -207 196q0 83 67 142.5t195 79.5q-262 64 -262 333v4q0 154 97.5 258t295.5 132q81 11 150 14q115 8 186 25q60 17 82.5 49t22.5 92v31h137v-27
q0 -62 -23 -113q-26 -44 -91 -68t-189 -30h2q103 -11 176 -66q70 -52 105.5 -127t35.5 -157v-8q0 -182 -133.5 -288t-367.5 -106h-62q-168 0 -237.5 -36t-69.5 -105q0 -124 219 -121h316q423 0 423 -305q0 -107 -59 -186q-127 -187 -530 -187h-25zM625 500q179 0 275.5 79
t96.5 216v2q0 112 -51 178q-91 119 -295 119q-67 0 -88 -4q-143 -17 -220 -95.5t-75 -201.5v-2q0 -139 92.5 -215t264.5 -76zM627 -428q171 0 274 35q193 66 193 219q0 203 -310 203h-178q-196 -1 -294.5 -64t-98.5 -180v-2q0 -100 93 -155.5t286 -55.5h35z" />
    <glyph glyph-name="Gbreve" unicode="&#x11e;" horiz-adv-x="1517" 
d="M764 1647q-128 0 -205 47q-137 89 -147 307h104q7 -117 66.5 -187t183.5 -71q117 1 182.5 73t71.5 185h104q-3 -89 -43 -178q-40 -83 -119.5 -129.5t-197.5 -46.5zM1247 383q-24 -117 -84 -209q-132 -203 -434 -203q-287 0 -442.5 174t-155.5 525v86q0 349 167.5 533
t469.5 184q254 0 407.5 -127t176.5 -367h-135q-24 178 -139 277.5t-312 99.5q-244 0 -373 -154t-129 -448v-80q0 -291 127.5 -437.5t362.5 -146.5q242 0 364 158q104 134 107 338l-482 4v108h613v-698h-101z" />
    <glyph glyph-name="gbreve" unicode="&#x11f;" horiz-adv-x="1261" 
d="M623 1419q-128 0 -205 47q-138 89 -148 308h105q7 -117 66.5 -187t183.5 -71q117 1 182.5 73t71.5 185h104q-3 -90 -43 -179q-40 -83 -119.5 -129.5t-197.5 -46.5zM600 -541q-271 0 -393.5 74t-122.5 219q0 214 262 281q-207 33 -207 196q0 83 67 142.5t195 79.5
q-262 64 -262 333v4q0 154 97.5 258t295.5 132q81 11 150 14q115 8 186 25q60 17 82.5 49t22.5 92v31h137v-27q0 -62 -23 -113q-26 -44 -91 -68t-189 -30h2q103 -11 176 -66q70 -52 105.5 -127t35.5 -157v-8q0 -182 -133.5 -288t-367.5 -106h-62q-168 0 -237.5 -36
t-69.5 -105q0 -124 219 -121h316q423 0 423 -305q0 -107 -59 -186q-127 -187 -530 -187h-25zM625 500q179 0 275.5 79t96.5 216v2q0 112 -51 178q-91 119 -295 119q-67 0 -88 -4q-143 -17 -220 -95.5t-75 -201.5v-2q0 -139 92.5 -215t264.5 -76zM627 -428q171 0 274 35
q193 66 193 219q0 203 -310 203h-178q-196 -1 -294.5 -64t-98.5 -180v-2q0 -100 93 -155.5t286 -55.5h35z" />
    <glyph glyph-name="Gdotaccent" unicode="&#x120;" horiz-adv-x="1517" 
d="M766 1653q-59 0 -86 25.5t-27 86.5q0 115 113 115q111 0 111 -117q0 -110 -111 -110zM1247 383q-24 -117 -84 -209q-132 -203 -434 -203q-287 0 -442.5 174t-155.5 525v86q0 349 167.5 533t469.5 184q254 0 407.5 -127t176.5 -367h-135q-24 178 -139 277.5t-312 99.5
q-244 0 -373 -154t-129 -448v-80q0 -291 127.5 -437.5t362.5 -146.5q242 0 364 158q104 134 107 338l-482 4v108h613v-698h-101z" />
    <glyph glyph-name="gdotaccent" unicode="&#x121;" horiz-adv-x="1261" 
d="M606 1411q-59 0 -85.5 26t-26.5 87q0 114 112 114q111 0 111 -116q0 -111 -111 -111zM600 -541q-271 0 -393.5 74t-122.5 219q0 214 262 281q-207 33 -207 196q0 83 67 142.5t195 79.5q-262 64 -262 333v4q0 154 97.5 258t295.5 132q81 11 150 14q115 8 186 25
q60 17 82.5 49t22.5 92v31h137v-27q0 -62 -23 -113q-26 -44 -91 -68t-189 -30h2q103 -11 176 -66q70 -52 105.5 -127t35.5 -157v-8q0 -182 -133.5 -288t-367.5 -106h-62q-168 0 -237.5 -36t-69.5 -105q0 -124 219 -121h316q423 0 423 -305q0 -107 -59 -186
q-127 -187 -530 -187h-25zM625 500q179 0 275.5 79t96.5 216v2q0 112 -51 178q-91 119 -295 119q-67 0 -88 -4q-143 -17 -220 -95.5t-75 -201.5v-2q0 -139 92.5 -215t264.5 -76zM627 -428q171 0 274 35q193 66 193 219q0 203 -310 203h-178q-196 -1 -294.5 -64t-98.5 -180
v-2q0 -100 93 -155.5t286 -55.5h35z" />
    <glyph glyph-name="uni0122" unicode="&#x122;" horiz-adv-x="1517" 
d="M1247 383q-24 -117 -84 -209q-132 -203 -434 -203q-287 0 -442.5 174t-155.5 525v86q0 349 167.5 533t469.5 184q254 0 407.5 -127t176.5 -367h-135q-24 178 -139 277.5t-312 99.5q-244 0 -373 -154t-129 -448v-80q0 -291 127.5 -437.5t362.5 -146.5q242 0 364 158
q104 134 107 338l-482 4v108h613v-698h-101zM635 -543q111 46 131 172q-10 -6 -31 -6q-45 0 -65.5 19.5t-20.5 72.5q0 103 103 103q54 0 80 -35t26 -111q0 -100 -54 -176t-153 -108z" />
    <glyph glyph-name="uni0123" unicode="&#x123;" horiz-adv-x="1261" 
d="M614 1405q-56 0 -82 34.5t-26 110.5q0 99 55 176t152 109l18 -72q-116 -46 -131 -172q10 6 31 6q44 0 65 -19.5t21 -70.5q0 -102 -103 -102zM600 -541q-271 0 -393.5 74t-122.5 219q0 214 262 281q-207 33 -207 196q0 83 67 142.5t195 79.5q-262 64 -262 333v4
q0 154 97.5 258t295.5 132q81 11 150 14q115 8 186 25q60 17 82.5 49t22.5 92v31h137v-27q0 -62 -23 -113q-26 -44 -91 -68t-189 -30h2q103 -11 176 -66q70 -52 105.5 -127t35.5 -157v-8q0 -182 -133.5 -288t-367.5 -106h-62q-168 0 -237.5 -36t-69.5 -105q0 -124 219 -121
h316q423 0 423 -305q0 -107 -59 -186q-127 -187 -530 -187h-25zM625 500q179 0 275.5 79t96.5 216v2q0 112 -51 178q-91 119 -295 119q-67 0 -88 -4q-143 -17 -220 -95.5t-75 -201.5v-2q0 -139 92.5 -215t264.5 -76zM627 -428q171 0 274 35q193 66 193 219q0 203 -310 203
h-178q-196 -1 -294.5 -64t-98.5 -180v-2q0 -100 93 -155.5t286 -55.5h35z" />
    <glyph glyph-name="Hcircumflex" unicode="&#x124;" horiz-adv-x="1490" 
d="M743 1860l-190 -252h-127l264 342h107l264 -342h-127zM1167 662h-841v-662h-131v1450h131v-664h841v664h129v-1450h-129v662z" />
    <glyph glyph-name="hcircumflex" unicode="&#x125;" horiz-adv-x="1404" 
d="M242 1966l-191 -252h-127l264 342h107l264 -342h-127zM305 0h-125v1554h125v-663q56 140 174 222.5t283 82.5q232 0 352.5 -133t120.5 -365v-698h-131v674q0 189 -93 298t-286 109q-128 0 -223 -59q-96 -62 -146.5 -167.5t-50.5 -244.5v-610z" />
    <glyph glyph-name="Hbar" unicode="&#x126;" horiz-adv-x="1546" 
d="M1194 633h-842v-633h-131v1036h-223v111h223v303h131v-303h842v303h131v-303h223v-111h-223v-1036h-131v633zM1194 1036h-842v-286h842v286z" />
    <glyph glyph-name="hbar" unicode="&#x127;" horiz-adv-x="1404" 
d="M305 0h-125v1317h-139v82h139v155h125v-155h264v-82h-264v-426q56 140 174 222.5t283 82.5q232 0 352.5 -133t120.5 -365v-698h-131v674q0 189 -93 298t-286 109q-128 0 -223 -59q-96 -62 -146.5 -167.5t-50.5 -244.5v-610z" />
    <glyph glyph-name="Itilde" unicode="&#x128;" horiz-adv-x="915" 
d="M74 1636q0 111 49.5 172.5t150.5 61.5q86 0 197 -68q109 -67 162 -67q54 0 79.5 30.5t26.5 100.5h95q0 -234 -203 -234q-82 0 -193 68q-105 67 -164 67q-55 0 -79.5 -32t-26.5 -99h-94zM100 0v123h295v1208h-295v119h715v-119h-295v-1208h295v-123h-715z" />
    <glyph glyph-name="itilde" unicode="&#x129;" horiz-adv-x="497" 
d="M-133 1348q0 111 50 172t151 61q85 0 196 -68q109 -67 162 -67q54 0 79.5 30.5t26.5 100.5h95q0 -234 -203 -234q-82 0 -193 68q-35 23 -56 34.5t-51 22.5t-56 11q-55 0 -80 -32t-27 -99h-94zM184 0v1163h129v-1163h-129z" />
    <glyph glyph-name="Imacron" unicode="&#x12a;" horiz-adv-x="915" 
d="M170 1767h586v-106h-586v106zM100 0v123h295v1208h-295v119h715v-119h-295v-1208h295v-123h-715z" />
    <glyph glyph-name="imacron" unicode="&#x12b;" horiz-adv-x="497" 
d="M-37 1479h586v-107h-586v107zM184 0v1163h129v-1163h-129z" />
    <glyph glyph-name="Ibreve" unicode="&#x12c;" horiz-adv-x="915" 
d="M455 1624q-128 0 -205 47q-138 89 -148 307h105q7 -117 66.5 -187t183.5 -71q117 1 182.5 73t71.5 185h104q-3 -89 -43 -178q-40 -83 -119.5 -129.5t-197.5 -46.5zM100 0v123h295v1208h-295v119h715v-119h-295v-1208h295v-123h-715z" />
    <glyph glyph-name="ibreve" unicode="&#x12d;" horiz-adv-x="497" 
d="M248 1335q-128 0 -205 47q-137 89 -147 308h104q7 -117 66.5 -187t183.5 -71q117 1 182.5 73t71.5 185h104q-3 -90 -43 -179q-40 -83 -119.5 -129.5t-197.5 -46.5zM184 0v1163h129v-1163h-129z" />
    <glyph glyph-name="Iogonek" unicode="&#x12e;" horiz-adv-x="915" 
d="M1034 -244q-84 -207 -317 -207q-123 0 -191.5 54t-68.5 151q0 137 180 246h-537v123h295v1208h-295v119h715v-119h-295v-1208h295v-123q-143 -77 -195.5 -128t-52.5 -110q0 -55 42.5 -87.5t113.5 -32.5q134 0 186 114h125z" />
    <glyph glyph-name="iogonek" unicode="&#x12f;" horiz-adv-x="497" 
d="M250 1335q-53 0 -78 24t-25 81q0 106 105 106q52 0 77 -26t25 -82q0 -103 -104 -103zM217 -451q-123 0 -191.5 54t-68.5 151q0 74 53 141t174 132v1136h129v-1161l2 -2q-143 -77 -195 -128t-52 -110q0 -55 42 -87.5t113 -32.5q135 0 187 114h125q-84 -207 -318 -207z" />
    <glyph glyph-name="Idotaccent" unicode="&#x130;" horiz-adv-x="915" 
d="M457 1630q-59 0 -86 26t-27 87q0 115 113 115q110 0 110 -117q0 -111 -110 -111zM100 0v123h295v1208h-295v119h715v-119h-295v-1208h295v-123h-715z" />
    <glyph glyph-name="dotlessi" unicode="&#x131;" horiz-adv-x="497" 
d="M184 0v1163h129v-1163h-129z" />
    <glyph glyph-name="IJ" unicode="&#x132;" horiz-adv-x="1568" 
d="M100 0v123h295v1208h-295v119h715v-119h-295v-1208h301v-123h-721zM993 123h23q88 0 136.5 12t70.5 43q23 30 31 90.5t8 173.5v1008h135v-1010q0 -147 -15 -231.5t-55 -126.5q-37 -46 -110.5 -64t-200.5 -18h-23v123z" />
    <glyph glyph-name="ij" unicode="&#x133;" horiz-adv-x="1042" 
d="M250 1337q-50 0 -71 24t-21 79q0 102 92 102q47 0 69.5 -25t22.5 -77q0 -103 -92 -103zM795 1337q-50 0 -71.5 24t-21.5 79q0 102 93 102q47 0 69.5 -25t22.5 -77q0 -103 -92 -103zM182 0v1163h131v-1163h-131zM389 -434v117h82q106 0 162 20q54 20 75 83.5t21 195.5
v1181h127v-1192q0 -156 -31 -254q-31 -87 -109.5 -119t-236.5 -32h-90z" />
    <glyph glyph-name="Jcircumflex" unicode="&#x134;" horiz-adv-x="1179" 
d="M940 1884l-190 -252h-127l264 342h106l264 -342h-127zM539 -31q-213 0 -329 111t-128 323v3h133v-5q25 -305 324 -305q173 0 253 93t80 309v952h136v-956q0 -271 -119 -398t-350 -127z" />
    <glyph glyph-name="jcircumflex" unicode="&#x135;" horiz-adv-x="495" 
d="M250 1593l-191 -252h-127l265 342h106l264 -342h-127zM-127 -317h55q106 0 162 20q55 20 76.5 84t21.5 195v1181h125v-1192q0 -180 -30 -254q-30 -86 -108.5 -118.5t-235.5 -32.5h-66v117z" />
    <glyph glyph-name="uni0136" unicode="&#x136;" horiz-adv-x="1390" 
d="M690 838l-366 -363v-475h-129v1450h129v-821l823 821h166l-531 -532l572 -918h-150zM629 -494q111 46 131 172q-10 -6 -31 -6q-45 0 -65.5 19.5t-20.5 72.5q0 103 102 103q55 0 81 -35t26 -111q0 -100 -54 -176t-153 -108z" />
    <glyph glyph-name="uni0137" unicode="&#x137;" horiz-adv-x="1275" 
d="M655 641l-350 -352v-289h-125v1554h125v-1120l10 12l715 717h164l-440 -448l477 -715h-152zM557 -498q111 46 131 172q-10 -6 -31 -6q-45 0 -65.5 19.5t-20.5 72.5q0 103 103 103q54 0 80 -35t26 -111q0 -100 -54 -176t-153 -108z" />
    <glyph glyph-name="kgreenlandic" unicode="&#x138;" horiz-adv-x="1275" 
d="M655 641l-350 -352v-289h-125v1163h125v-729l10 12l715 717h164l-440 -448l477 -715h-152z" />
    <glyph glyph-name="Lacute" unicode="&#x139;" horiz-adv-x="1173" 
d="M485 2028h148l-316 -392h-114zM195 0v1450h131v-1327h784v-123h-915z" />
    <glyph glyph-name="lacute" unicode="&#x13a;" horiz-adv-x="495" 
d="M473 2124h148l-316 -391h-115zM184 0v1554h129v-1554h-129z" />
    <glyph glyph-name="uni013B" unicode="&#x13b;" horiz-adv-x="1173" 
d="M195 0v1450h131v-1327h784v-123h-915zM543 -514q111 46 131 172q-10 -6 -31 -6q-45 0 -65.5 19.5t-20.5 72.5q0 102 102 102q55 0 81 -34.5t26 -110.5q0 -100 -54 -176.5t-153 -108.5z" />
    <glyph glyph-name="uni013C" unicode="&#x13c;" horiz-adv-x="495" 
d="M184 0v1554h129v-1554h-129zM162 -514q111 46 131 172q-10 -6 -31 -6q-45 0 -65.5 19.5t-20.5 72.5q0 102 103 102q54 0 80 -34.5t26 -110.5q0 -100 -54 -176.5t-153 -108.5z" />
    <glyph glyph-name="Lcaron" unicode="&#x13d;" horiz-adv-x="1173" 
d="M897 1610h127l-135 -353h-98zM195 0v1450h131v-1327h784v-123h-915z" />
    <glyph glyph-name="lcaron" unicode="&#x13e;" horiz-adv-x="495" 
d="M604 1688h127l-135 -353h-98zM184 0v1554h129v-1554h-129z" />
    <glyph glyph-name="Ldot" unicode="&#x13f;" horiz-adv-x="1173" 
d="M195 0v1450h131v-1327h784v-123h-915zM1001 514q-59 0 -85.5 26t-26.5 87q0 114 112 114q111 0 111 -116q0 -111 -111 -111z" />
    <glyph glyph-name="ldot" unicode="&#x140;" horiz-adv-x="495" 
d="M184 0v1554h129v-1554h-129zM575 494q-59 0 -85.5 25.5t-26.5 86.5q0 115 112 115q111 0 111 -117q0 -110 -111 -110z" />
    <glyph glyph-name="Lslash" unicode="&#x141;" horiz-adv-x="1200" 
d="M221 0v670l-188 -56l-31 105l219 63v668h131v-631l307 88l31 -102l-338 -98v-584h785v-123h-916z" />
    <glyph glyph-name="lslash" unicode="&#x142;" horiz-adv-x="565" 
d="M219 0v643l-186 -55l-21 80l207 61v825h129v-784l187 55l20 -80l-207 -61v-684h-129z" />
    <glyph glyph-name="Nacute" unicode="&#x143;" horiz-adv-x="1507" 
d="M993 1997h148l-316 -391h-114zM319 0h-124v1450h131l794 -1135l72 -118l-2 28v1225h125v-1450h-119l-819 1169l-58 97v-1266z" />
    <glyph glyph-name="nacute" unicode="&#x144;" horiz-adv-x="1409" 
d="M934 1767h147l-315 -391h-115zM307 0h-127v1163h109l12 -295q49 152 167 240t294 88q231 0 353 -135t122 -367v-694h-129v674q0 190 -93 298.5t-286 108.5q-130 0 -225 -59q-96 -62 -146.5 -167.5t-50.5 -244.5v-610z" />
    <glyph glyph-name="uni0145" unicode="&#x145;" horiz-adv-x="1507" 
d="M319 0h-124v1450h131l794 -1135l72 -118l-2 28v1225h125v-1450h-119l-819 1169l-58 97v-1266zM625 -494q111 46 131 172q-10 -6 -31 -6q-45 0 -65.5 19.5t-20.5 72.5q0 103 102 103q55 0 81 -35t26 -111q0 -100 -54 -176t-153 -108z" />
    <glyph glyph-name="uni0146" unicode="&#x146;" horiz-adv-x="1409" 
d="M307 0h-127v1163h109l12 -295q49 152 167 240t294 88q231 0 353 -135t122 -367v-694h-129v674q0 190 -93 298.5t-286 108.5q-130 0 -225 -59q-96 -62 -146.5 -167.5t-50.5 -244.5v-610zM608 -498q111 46 131 172q-10 -6 -30 -6q-45 0 -65.5 19.5t-20.5 72.5
q0 103 102 103q54 0 80 -35t26 -111q0 -101 -53.5 -176.5t-152.5 -107.5z" />
    <glyph glyph-name="Ncaron" unicode="&#x147;" horiz-adv-x="1507" 
d="M715 1599l-262 334h131l180 -235l190 235h129l-270 -334h-98zM319 0h-124v1450h131l794 -1135l72 -118l-2 28v1225h125v-1450h-119l-819 1169l-58 97v-1266z" />
    <glyph glyph-name="ncaron" unicode="&#x148;" horiz-adv-x="1409" 
d="M657 1370l-262 334h131l181 -236l190 236h129l-270 -334h-99zM307 0h-127v1163h109l12 -295q49 152 167 240t294 88q231 0 353 -135t122 -367v-694h-129v674q0 190 -93 298.5t-286 108.5q-130 0 -225 -59q-96 -62 -146.5 -167.5t-50.5 -244.5v-610z" />
    <glyph glyph-name="Eng" unicode="&#x14a;" horiz-adv-x="1521" 
d="M889 -434v121h55q110 0 160 20q54 20 75 82t21 193v32l-801 1123l-80 125v-1262h-124v1450h131l790 -1108l88 -133l-2 16v1225h127v-1479q0 -156 -31 -254q-31 -87 -109.5 -119t-236.5 -32h-63z" />
    <glyph glyph-name="eng" unicode="&#x14b;" horiz-adv-x="1406" 
d="M795 -434v117h55q106 0 162 20q54 20 75 83.5t21 195.5v692q0 190 -93 298.5t-286 108.5q-130 0 -225 -59q-96 -62 -146.5 -167.5t-50.5 -244.5v-610h-127v1163h109l12 -295q49 152 167 240t294 88q231 0 352 -135t121 -367v-723q0 -177 -31 -254q-30 -86 -109 -118.5
t-237 -32.5h-63z" />
    <glyph glyph-name="Omacron" unicode="&#x14c;" horiz-adv-x="1509" 
d="M465 1790h586v-107h-586v107zM752 -29q-299 0 -460 178t-161 525v82q0 343 165 530t458 187q185 0 325 -82q144 -85 221.5 -245t77.5 -390v-82q0 -238 -80 -389q-79 -156 -218 -235t-328 -79zM754 92q228 0 358.5 152t130.5 434v72q0 290 -128.5 447t-360.5 157
q-234 0 -361 -157.5t-127 -444.5v-74q0 -284 126.5 -435t361.5 -151z" />
    <glyph glyph-name="omacron" unicode="&#x14d;" 
d="M406 1513h585v-106h-585v106zM692 -29q-275 0 -426 157t-151 437v23q0 195 75 327q76 137 205 209t297 72q166 0 299 -74q134 -73 206.5 -209t72.5 -325v-23q0 -183 -70 -317q-71 -135 -200 -206t-308 -71zM692 88q213 0 331 127.5t118 351.5v19q0 148 -58 264
q-61 111 -161 172t-228 61q-134 0 -229 -59q-104 -61 -160.5 -172t-56.5 -266v-19q0 -222 117 -350.5t327 -128.5z" />
    <glyph glyph-name="Obreve" unicode="&#x14e;" horiz-adv-x="1509" 
d="M750 1647q-128 0 -205 47q-138 89 -148 307h105q7 -117 66.5 -187t183.5 -71q117 1 182.5 73t71.5 185h104q-3 -89 -43 -178q-40 -83 -119.5 -129.5t-197.5 -46.5zM752 -29q-299 0 -460 178t-161 525v82q0 343 165 530t458 187q185 0 325 -82q144 -85 221.5 -245
t77.5 -390v-82q0 -238 -80 -389q-79 -156 -218 -235t-328 -79zM754 92q228 0 358.5 152t130.5 434v72q0 290 -128.5 447t-360.5 157q-234 0 -361 -157.5t-127 -444.5v-74q0 -284 126.5 -435t361.5 -151z" />
    <glyph glyph-name="obreve" unicode="&#x14f;" 
d="M690 1370q-128 0 -205 47q-137 89 -147 307h104q7 -117 66.5 -187t183.5 -71q117 1 182.5 73t71.5 185h105q-3 -89 -43 -178q-40 -83 -120 -129.5t-198 -46.5zM692 -29q-275 0 -426 157t-151 437v23q0 195 75 327q76 137 205 209t297 72q166 0 299 -74
q134 -73 206.5 -209t72.5 -325v-23q0 -183 -70 -317q-71 -135 -200 -206t-308 -71zM692 88q213 0 331 127.5t118 351.5v19q0 148 -58 264q-61 111 -161 172t-228 61q-134 0 -229 -59q-104 -61 -160.5 -172t-56.5 -266v-19q0 -222 117 -350.5t327 -128.5z" />
    <glyph glyph-name="Ohungarumlaut" unicode="&#x150;" horiz-adv-x="1509" 
d="M655 1659h-106l252 342h149zM946 1659h-108l274 342h150zM752 -29q-299 0 -460 178t-161 525v82q0 343 165 530t458 187q185 0 325 -82q144 -85 221.5 -245t77.5 -390v-82q0 -238 -80 -389q-79 -156 -218 -235t-328 -79zM754 92q228 0 358.5 152t130.5 434v72
q0 290 -128.5 447t-360.5 157q-234 0 -361 -157.5t-127 -444.5v-74q0 -284 126.5 -435t361.5 -151z" />
    <glyph glyph-name="ohungarumlaut" unicode="&#x151;" 
d="M596 1382h-107l252 342h150zM887 1382h-109l275 342h149zM692 -29q-275 0 -426 157t-151 437v23q0 195 75 327q76 137 205 209t297 72q166 0 299 -74q134 -73 206.5 -209t72.5 -325v-23q0 -183 -70 -317q-71 -135 -200 -206t-308 -71zM692 88q213 0 331 127.5t118 351.5
v19q0 148 -58 264q-61 111 -161 172t-228 61q-134 0 -229 -59q-104 -61 -160.5 -172t-56.5 -266v-19q0 -222 117 -350.5t327 -128.5z" />
    <glyph glyph-name="OE" unicode="&#x152;" horiz-adv-x="2332" 
d="M1237 262q-131 -291 -489 -291q-291 0 -454 179.5t-163 525.5v78q0 229 76 387q73 162 211 247t327 85q358 0 492 -302v279h989v-117h-860v-545h731v-116h-731v-553h889v-119h-1018v262zM754 92q228 0 358.5 152t130.5 434v70q0 285 -129.5 445.5t-359.5 160.5
q-234 0 -361 -159t-127 -445v-72q0 -284 126.5 -435t361.5 -151z" />
    <glyph glyph-name="oe" unicode="&#x153;" horiz-adv-x="2390" 
d="M2253 346q-49 -183 -191 -279t-350 -96q-399 0 -516 318q-59 -152 -189 -235t-315 -83q-275 0 -426 157t-151 437v23q0 195 75 327q76 137 205 209t297 72q183 0 314.5 -86t193.5 -244q61 158 193 244t323 86q180 0 305 -78q122 -77 185 -209t63 -301v-63h-1005
q5 -217 121 -339t331 -122q155 0 257.5 66t140.5 196h139zM1716 1090q-196 0 -314.5 -118t-135.5 -321h874q-11 203 -121.5 321t-302.5 118zM692 88q213 0 331 127.5t118 351.5v19q0 148 -58 264q-61 111 -161 172t-228 61q-134 0 -229 -59q-104 -61 -160.5 -172t-56.5 -266
v-19q0 -222 117 -350.5t327 -128.5z" />
    <glyph glyph-name="Racute" unicode="&#x154;" horiz-adv-x="1425" 
d="M956 2025h148l-316 -391h-114zM324 598v-598h-129v1450h559q272 0 397 -105t125 -307q0 -305 -295 -379q140 -26 200 -107.5t60 -250.5v-231q0 -44 29 -70h-142q-22 25 -22 72v229q0 168 -81.5 232.5t-285.5 64.5h-415zM743 713q191 -2 295.5 78.5t104.5 240.5
q0 150 -94 226.5t-297 76.5h-428v-622h419z" />
    <glyph glyph-name="racute" unicode="&#x155;" horiz-adv-x="880" 
d="M705 1726h147l-315 -391h-115zM180 0v1163h105l18 -309q85 311 457 311h65v-129h-80q-237 0 -338.5 -118.5t-101.5 -366.5v-551h-125z" />
    <glyph glyph-name="uni0156" unicode="&#x156;" horiz-adv-x="1425" 
d="M324 598v-598h-129v1450h559q272 0 397 -105t125 -307q0 -305 -295 -379q140 -26 200 -107.5t60 -250.5v-231q0 -44 29 -70h-142q-22 25 -22 72v229q0 168 -81.5 232.5t-285.5 64.5h-415zM743 713q191 -2 295.5 78.5t104.5 240.5q0 150 -94 226.5t-297 76.5h-428v-622
h419zM614 -494q111 46 131 172q-10 -6 -30 -6q-45 0 -65.5 19.5t-20.5 72.5q0 103 102 103q55 0 81 -35t26 -111q0 -100 -54 -176t-153 -108z" />
    <glyph glyph-name="uni0157" unicode="&#x157;" horiz-adv-x="880" 
d="M180 0v1163h105l18 -309q85 311 457 311h65v-129h-80q-237 0 -338.5 -118.5t-101.5 -366.5v-551h-125zM127 -514q111 46 131 172q-10 -6 -31 -6q-45 0 -65.5 19.5t-20.5 72.5q0 102 103 102q54 0 80 -34.5t26 -110.5q0 -100 -54 -176.5t-153 -108.5z" />
    <glyph glyph-name="Rcaron" unicode="&#x158;" horiz-adv-x="1425" 
d="M680 1628l-262 334h131l180 -236l191 236h129l-271 -334h-98zM324 598v-598h-129v1450h559q272 0 397 -105t125 -307q0 -305 -295 -379q140 -26 200 -107.5t60 -250.5v-231q0 -44 29 -70h-142q-22 25 -22 72v229q0 168 -81.5 232.5t-285.5 64.5h-415zM743 713
q191 -2 295.5 78.5t104.5 240.5q0 150 -94 226.5t-297 76.5h-428v-622h419z" />
    <glyph glyph-name="rcaron" unicode="&#x159;" horiz-adv-x="880" 
d="M426 1329l-262 334h131l180 -236l191 236h129l-271 -334h-98zM180 0v1163h105l18 -309q85 311 457 311h65v-129h-80q-237 0 -338.5 -118.5t-101.5 -366.5v-551h-125z" />
    <glyph glyph-name="Sacute" unicode="&#x15a;" horiz-adv-x="1318" 
d="M864 2050h148l-316 -391h-114zM672 -29q-196 0 -328 60q-123 60 -183 170.5t-71 277.5h139q16 -391 445 -391q135 0 229 43q87 41 130.5 110.5t43.5 151.5q0 147 -135 215q-38 19 -95.5 36t-89.5 24t-116 24q-234 44 -336 103q-155 82 -155 286q0 109 57 195
q58 92 168 144.5t266 52.5q249 0 388 -114t151 -315h-133q-11 153 -113.5 234.5t-292.5 81.5q-169 0 -264.5 -79t-95.5 -198q0 -139 133 -202q19 -9 43.5 -18t43 -14.5t52 -13.5t48.5 -11.5t56.5 -12t53.5 -10.5q117 -24 197 -47t145 -60q155 -94 155 -299q0 -113 -59 -213
q-134 -211 -477 -211z" />
    <glyph glyph-name="sacute" unicode="&#x15b;" horiz-adv-x="1198" 
d="M797 1774h147l-315 -392h-115zM616 -29q-230 0 -371.5 104t-164.5 304h139q12 -97 68 -166q115 -127 331 -127q136 0 207 35q148 67 148 211q0 81 -55 123q-50 37 -128 56t-204 36q-213 31 -310 78q-145 69 -145 237q0 91 45 162q98 172 397 172q219 0 350 -96.5
t152 -263.5h-133q-13 120 -111 185.5t-258 65.5q-123 0 -188 -32q-125 -57 -125 -187q0 -81 55 -123q35 -26 93.5 -44.5t107 -27.5t131.5 -20q203 -29 311 -78q144 -70 144 -239q0 -100 -51 -180q-108 -185 -435 -185z" />
    <glyph glyph-name="Scircumflex" unicode="&#x15c;" horiz-adv-x="1318" 
d="M657 1907l-190 -252h-127l264 342h107l264 -342h-127zM672 -29q-196 0 -328 60q-123 60 -183 170.5t-71 277.5h139q16 -391 445 -391q135 0 229 43q87 41 130.5 110.5t43.5 151.5q0 147 -135 215q-38 19 -95.5 36t-89.5 24t-116 24q-234 44 -336 103q-155 82 -155 286
q0 109 57 195q58 92 168 144.5t266 52.5q249 0 388 -114t151 -315h-133q-11 153 -113.5 234.5t-292.5 81.5q-169 0 -264.5 -79t-95.5 -198q0 -139 133 -202q19 -9 43.5 -18t43 -14.5t52 -13.5t48.5 -11.5t56.5 -12t53.5 -10.5q117 -24 197 -47t145 -60q155 -94 155 -299
q0 -113 -59 -213q-134 -211 -477 -211z" />
    <glyph glyph-name="scircumflex" unicode="&#x15d;" horiz-adv-x="1198" 
d="M571 1630l-190 -252h-127l264 342h107l264 -342h-127zM616 -29q-230 0 -371.5 104t-164.5 304h139q12 -97 68 -166q115 -127 331 -127q136 0 207 35q148 67 148 211q0 81 -55 123q-50 37 -128 56t-204 36q-213 31 -310 78q-145 69 -145 237q0 91 45 162q98 172 397 172
q219 0 350 -96.5t152 -263.5h-133q-13 120 -111 185.5t-258 65.5q-123 0 -188 -32q-125 -57 -125 -187q0 -81 55 -123q35 -26 93.5 -44.5t107 -27.5t131.5 -20q203 -29 311 -78q144 -70 144 -239q0 -100 -51 -180q-108 -185 -435 -185z" />
    <glyph glyph-name="uni015E" unicode="&#x15e;" horiz-adv-x="1318" 
d="M670 -535q-273 0 -310 220h123q7 -61 57 -94t130 -33q172 0 172 116q0 57 -38.5 81t-137.5 24h-72v194q-253 18 -372.5 145.5t-131.5 360.5h139q16 -391 445 -391q135 0 229 43q87 41 130.5 110.5t43.5 151.5q0 147 -135 215q-38 19 -95.5 36t-89.5 24t-116 24
q-234 44 -336 103q-155 82 -155 286q0 109 57 195q58 92 168 144.5t266 52.5q249 0 388 -114t151 -315h-133q-11 153 -113.5 234.5t-292.5 81.5q-169 0 -264.5 -79t-95.5 -198q0 -139 133 -202q19 -9 43.5 -18t43 -14.5t52 -13.5t48.5 -11.5t56.5 -12t53.5 -10.5
q117 -24 197 -47t145 -60q155 -94 155 -299q0 -117 -57 -209q-127 -206 -453 -215v-108q127 0 190.5 -47t63.5 -135q0 -99 -73.5 -157.5t-208.5 -58.5z" />
    <glyph glyph-name="uni015F" unicode="&#x15f;" horiz-adv-x="1198" 
d="M639 -539q-272 0 -309 220h123q7 -61 56.5 -94t129.5 -33q172 0 172 116q0 57 -38.5 81t-137.5 24h-72v198q-209 11 -334.5 114t-148.5 292h139q12 -97 68 -166q115 -127 331 -127q136 0 207 35q148 67 148 211q0 81 -55 123q-50 37 -128 56t-204 36q-213 31 -310 78
q-145 69 -145 237q0 91 45 162q98 172 397 172q219 0 350 -96.5t152 -263.5h-133q-13 120 -111 185.5t-258 65.5q-123 0 -188 -32q-125 -57 -125 -187q0 -81 55 -123q35 -26 93.5 -44.5t107 -27.5t131.5 -20q203 -29 311 -78q144 -70 144 -239q0 -92 -45 -172
q-46 -83 -144 -133.5t-245 -57.5v-114q127 0 190.5 -47.5t63.5 -135.5q0 -99 -74 -157t-209 -58z" />
    <glyph glyph-name="Scaron" unicode="&#x160;" horiz-adv-x="1318" 
d="M588 1653l-262 334h131l180 -236l190 236h129l-270 -334h-98zM672 -29q-196 0 -328 60q-123 60 -183 170.5t-71 277.5h139q16 -391 445 -391q135 0 229 43q87 41 130.5 110.5t43.5 151.5q0 147 -135 215q-38 19 -95.5 36t-89.5 24t-116 24q-234 44 -336 103
q-155 82 -155 286q0 109 57 195q58 92 168 144.5t266 52.5q249 0 388 -114t151 -315h-133q-11 153 -113.5 234.5t-292.5 81.5q-169 0 -264.5 -79t-95.5 -198q0 -139 133 -202q19 -9 43.5 -18t43 -14.5t52 -13.5t48.5 -11.5t56.5 -12t53.5 -10.5q117 -24 197 -47t145 -60
q155 -94 155 -299q0 -113 -59 -213q-134 -211 -477 -211z" />
    <glyph glyph-name="scaron" unicode="&#x161;" horiz-adv-x="1198" 
d="M518 1376l-262 334h131l180 -235l191 235h129l-271 -334h-98zM616 -29q-230 0 -371.5 104t-164.5 304h139q12 -97 68 -166q115 -127 331 -127q136 0 207 35q148 67 148 211q0 81 -55 123q-50 37 -128 56t-204 36q-213 31 -310 78q-145 69 -145 237q0 91 45 162
q98 172 397 172q219 0 350 -96.5t152 -263.5h-133q-13 120 -111 185.5t-258 65.5q-123 0 -188 -32q-125 -57 -125 -187q0 -81 55 -123q35 -26 93.5 -44.5t107 -27.5t131.5 -20q203 -29 311 -78q144 -70 144 -239q0 -100 -51 -180q-108 -185 -435 -185z" />
    <glyph glyph-name="uni0162" unicode="&#x162;" horiz-adv-x="1198" 
d="M655 1331v-1331h-133v1331h-450v119h1054v-119h-471zM475 -514q111 46 131 172q-10 -6 -31 -6q-45 0 -65.5 19.5t-20.5 72.5q0 102 103 102q54 0 80 -34.5t26 -110.5q0 -101 -53.5 -177t-152.5 -108z" />
    <glyph glyph-name="uni0163" unicode="&#x163;" horiz-adv-x="821" 
d="M750 0h-111q-152 0 -231 39q-85 36 -121.5 129t-36.5 264v617h-230v110h121q55 0 76 8q24 6 31.5 32.5t9.5 90.5q0 1 1 16.5t1 30.5l4 123h109v-297h377v-114h-377v-600q0 -139 26 -207q24 -68 85.5 -93.5t177.5 -25.5h88v-123zM393 -512q111 46 131 172q-10 -6 -30 -6
q-45 0 -65.5 19.5t-20.5 72.5q0 102 102 102q54 0 80 -34.5t26 -110.5q0 -101 -53.5 -177t-152.5 -108z" />
    <glyph glyph-name="Tcaron" unicode="&#x164;" horiz-adv-x="1198" 
d="M532 1630l-262 334h131l181 -235l190 235h129l-270 -334h-99zM655 1331v-1331h-133v1331h-450v119h1054v-119h-471z" />
    <glyph glyph-name="tcaron" unicode="&#x165;" horiz-adv-x="821" 
d="M705 1747h126l-135 -352h-98zM750 0h-111q-152 0 -231 39q-85 36 -121.5 129t-36.5 264v617h-230v110h121q55 0 76 8q24 6 31.5 32.5t9.5 90.5q0 1 1 16.5t1 30.5l4 123h109v-297h377v-114h-377v-600q0 -139 26 -207q24 -68 85.5 -93.5t177.5 -25.5h88v-123z" />
    <glyph glyph-name="Tbar" unicode="&#x166;" horiz-adv-x="1198" 
d="M655 670v-670h-133v670h-254v108h254v553h-450v119h1054v-119h-471v-553h258v-108h-258z" />
    <glyph glyph-name="tbar" unicode="&#x167;" horiz-adv-x="821" 
d="M750 0h-111q-152 0 -231 39q-85 36 -121.5 129t-36.5 264v119h-174v104h174v394h-230v110h121q55 0 76 8q24 6 31.5 32.5t9.5 90.5q0 1 1 16.5t1 30.5l4 123h109v-297h377v-114h-377v-394h272v-104h-272v-102q0 -139 26 -207q24 -68 85.5 -93.5t177.5 -25.5h88v-123z" />
    <glyph glyph-name="Utilde" unicode="&#x168;" horiz-adv-x="1445" 
d="M336 1602q0 111 50 172t151 61q85 0 196 -68q109 -67 162 -67q54 0 79.5 30.5t26.5 100.5h95q0 -234 -203 -234q-82 0 -193 68q-35 23 -56 34.5t-51 22.5t-56 11q-55 0 -80 -32t-27 -99h-94zM723 -31q-287 0 -419 161.5t-132 504.5v815h135v-813q0 -283 97.5 -412
t320.5 -129q218 0 316 129.5t98 411.5v813h133v-815q0 -340 -135 -503t-414 -163z" />
    <glyph glyph-name="utilde" unicode="&#x169;" horiz-adv-x="1359" 
d="M293 1325q0 111 50 172.5t151 61.5q85 0 196 -68q37 -23 57.5 -34.5t50.5 -22.5t54 -11q54 0 79.5 30.5t26.5 100.5h95q0 -233 -203 -233q-82 0 -193 68q-105 67 -163 67q-55 0 -80 -32t-27 -99h-94zM1059 291q-44 -148 -157.5 -233t-280.5 -85q-219 0 -334 134t-115 364
v692h129v-667q0 -189 87 -297.5t267 -108.5q118 0 209 60q91 62 140 167t49 242v604h129v-1163h-111z" />
    <glyph glyph-name="Umacron" unicode="&#x16a;" horiz-adv-x="1445" 
d="M434 1733h586v-107h-586v107zM723 -31q-287 0 -419 161.5t-132 504.5v815h135v-813q0 -283 97.5 -412t320.5 -129q218 0 316 129.5t98 411.5v813h133v-815q0 -340 -135 -503t-414 -163z" />
    <glyph glyph-name="umacron" unicode="&#x16b;" horiz-adv-x="1359" 
d="M391 1456h586v-106h-586v106zM1059 291q-44 -148 -157.5 -233t-280.5 -85q-219 0 -334 134t-115 364v692h129v-667q0 -189 87 -297.5t267 -108.5q118 0 209 60q91 62 140 167t49 242v604h129v-1163h-111z" />
    <glyph glyph-name="Ubreve" unicode="&#x16c;" horiz-adv-x="1445" 
d="M717 1589q-128 0 -205 47q-137 89 -147 308h104q7 -117 66.5 -187t183.5 -71q117 1 182.5 73t71.5 185h104q-3 -90 -43 -179q-40 -83 -119.5 -129.5t-197.5 -46.5zM723 -31q-287 0 -419 161.5t-132 504.5v815h135v-813q0 -283 97.5 -412t320.5 -129q218 0 316 129.5
t98 411.5v813h133v-815q0 -340 -135 -503t-414 -163z" />
    <glyph glyph-name="ubreve" unicode="&#x16d;" horiz-adv-x="1359" 
d="M674 1313q-128 0 -205 47q-137 89 -147 307h104q7 -117 66.5 -187t183.5 -71q117 1 182.5 73t71.5 185h104q-3 -89 -43 -178q-40 -83 -119.5 -129.5t-197.5 -46.5zM1059 291q-44 -148 -157.5 -233t-280.5 -85q-219 0 -334 134t-115 364v692h129v-667q0 -189 87 -297.5
t267 -108.5q118 0 209 60q91 62 140 167t49 242v604h129v-1163h-111z" />
    <glyph glyph-name="Uring" unicode="&#x16e;" horiz-adv-x="1445" 
d="M717 1595q-101 0 -161 60.5t-60 159.5q0 102 61.5 162.5t159.5 60.5q105 0 166 -58t61 -165q0 -101 -62 -160.5t-165 -59.5zM717 1694q56 0 91.5 32t35.5 89q0 60 -33.5 94.5t-93.5 34.5q-55 0 -88 -35t-33 -94q0 -55 32 -88t89 -33zM723 -31q-287 0 -419 161.5
t-132 504.5v815h135v-813q0 -283 97.5 -412t320.5 -129q218 0 316 129.5t98 411.5v813h133v-815q0 -340 -135 -503t-414 -163z" />
    <glyph glyph-name="uring" unicode="&#x16f;" horiz-adv-x="1359" 
d="M674 1319q-101 0 -161 60t-60 159q0 102 61.5 162.5t159.5 60.5q105 0 166 -58t61 -165q0 -101 -62 -160t-165 -59zM674 1417q56 0 91.5 32t35.5 89q0 60 -33.5 94.5t-93.5 34.5q-55 0 -88 -35t-33 -94q0 -55 32 -88t89 -33zM1059 291q-44 -148 -157.5 -233t-280.5 -85
q-219 0 -334 134t-115 364v692h129v-667q0 -189 87 -297.5t267 -108.5q118 0 209 60q91 62 140 167t49 242v604h129v-1163h-111z" />
    <glyph glyph-name="Uhungarumlaut" unicode="&#x170;" horiz-adv-x="1445" 
d="M623 1602h-107l252 342h150zM913 1602h-108l274 342h150zM723 -31q-287 0 -419 161.5t-132 504.5v815h135v-813q0 -283 97.5 -412t320.5 -129q218 0 316 129.5t98 411.5v813h133v-815q0 -340 -135 -503t-414 -163z" />
    <glyph glyph-name="uhungarumlaut" unicode="&#x171;" horiz-adv-x="1359" 
d="M580 1325h-107l252 342h149zM870 1325h-108l274 342h150zM1059 291q-44 -148 -157.5 -233t-280.5 -85q-219 0 -334 134t-115 364v692h129v-667q0 -189 87 -297.5t267 -108.5q118 0 209 60q91 62 140 167t49 242v604h129v-1163h-111z" />
    <glyph glyph-name="Uogonek" unicode="&#x172;" horiz-adv-x="1445" 
d="M874 -436q-123 0 -191.5 54t-68.5 151q0 112 115 200h-6q-287 0 -419 161.5t-132 504.5v815h135v-813q0 -283 97.5 -412t320.5 -129q218 0 316 129.5t98 411.5v813h133v-815q0 -509 -309 -627q-135 -72 -186.5 -123t-51.5 -108q0 -55 42.5 -88t113.5 -33q133 0 186 115
h125q-84 -207 -318 -207z" />
    <glyph glyph-name="uogonek" unicode="&#x173;" horiz-adv-x="1359" 
d="M1401 -244q-84 -207 -318 -207q-123 0 -191.5 54t-68.5 151q0 76 57 145t189 138l-10 254q-44 -148 -157.5 -233t-280.5 -85q-219 0 -334 134t-115 364v692h129v-667q0 -189 87 -297.5t267 -108.5q118 0 209 60q91 62 140 167t49 242v604h129v-1163q-143 -77 -195.5 -128
t-52.5 -110q0 -55 42.5 -87.5t113.5 -32.5q134 0 186 114h125z" />
    <glyph glyph-name="Wcircumflex" unicode="&#x174;" horiz-adv-x="2033" 
d="M999 1884l-190 -252h-127l264 342h107l264 -342h-127zM997 1241l-458 -1241h-123l-344 1450h133l287 -1241l456 1241h105l432 -1255l344 1255h131l-406 -1450h-124z" />
    <glyph glyph-name="wcircumflex" unicode="&#x175;" horiz-adv-x="1837" 
d="M913 1595l-190 -252h-127l264 343h107l264 -343h-127zM911 975l-395 -975h-121l-329 1163h131l274 -993l395 993h95l364 -991l317 991h130l-377 -1163h-121z" />
    <glyph glyph-name="Ycircumflex" unicode="&#x176;" horiz-adv-x="1298" 
d="M639 1870l-190 -252h-127l264 342h106l264 -342h-127zM569 0v569l-508 881h148l430 -756l457 756h147l-541 -887v-563h-133z" />
    <glyph glyph-name="ycircumflex" unicode="&#x177;" horiz-adv-x="1234" 
d="M627 1575l-191 -252h-127l264 342h107l264 -342h-127zM92 -420v115h70q91 0 144.5 10.5t90.5 38.5q67 48 144 221l26 53l-512 1145h138l438 -989l430 989h137l-539 -1222q-55 -125 -96.5 -192.5t-91.5 -102.5q-50 -37 -120.5 -51.5t-188.5 -14.5h-70z" />
    <glyph glyph-name="Ydieresis" unicode="&#x178;" horiz-adv-x="1298" 
d="M459 1616q-53 0 -78 22.5t-25 79.5q0 105 103 105q52 0 77 -25.5t25 -79.5t-25.5 -78t-76.5 -24zM817 1616q-53 0 -77.5 22.5t-24.5 79.5q0 105 104 105q52 0 76.5 -25.5t24.5 -79.5t-26 -78t-77 -24zM569 0v569l-508 881h148l430 -756l457 756h147l-541 -887v-563h-133z
" />
    <glyph glyph-name="Zacute" unicode="&#x179;" horiz-adv-x="1243" 
d="M862 2025h148l-316 -391h-114zM82 0v115l913 1216h-850v119h1010v-119l-907 -1208h905v-123h-1071z" />
    <glyph glyph-name="zacute" unicode="&#x17a;" horiz-adv-x="1167" 
d="M836 1739h147l-315 -391h-115zM76 102l856 951h-803v110h963v-104l-852 -946h856v-113l-1020 -2v104z" />
    <glyph glyph-name="Zdotaccent" unicode="&#x17b;" horiz-adv-x="1243" 
d="M637 1628q-59 0 -86 26t-27 87q0 114 113 114q111 0 111 -116q0 -111 -111 -111zM82 0v115l913 1216h-850v119h1010v-119l-907 -1208h905v-123h-1071z" />
    <glyph glyph-name="zdotaccent" unicode="&#x17c;" horiz-adv-x="1167" 
d="M610 1341q-59 0 -85.5 26t-26.5 87q0 115 112 115q111 0 111 -117q0 -111 -111 -111zM76 102l856 951h-803v110h963v-104l-852 -946h856v-113l-1020 -2v104z" />
    <glyph glyph-name="Zcaron" unicode="&#x17d;" horiz-adv-x="1243" 
d="M584 1628l-262 334h131l180 -236l190 236h129l-270 -334h-98zM82 0v115l913 1216h-850v119h1010v-119l-907 -1208h905v-123h-1071z" />
    <glyph glyph-name="zcaron" unicode="&#x17e;" horiz-adv-x="1167" 
d="M557 1341l-262 334h131l180 -235l191 235h129l-271 -334h-98zM76 102l856 951h-803v110h963v-104l-852 -946h856v-113l-1020 -2v104z" />
    <glyph glyph-name="uni0192" unicode="&#x192;" horiz-adv-x="1054" 
d="M582 164q0 -152 -31 -254q-30 -84 -108.5 -117t-233.5 -33h-113v119h103q103 0 161 21q55 20 77 83t22 193v529h-326v114h326v328q0 165 35 248q31 84 110 118.5t221 34.5h111v-110h-98q-102 0 -160 -21q-54 -23 -74 -85t-20 -195v-318h356v-114h-356z" />
    <glyph glyph-name="Aringacute" unicode="&#x1fa;" 
d="M918 2296h147l-315 -391h-115zM195 0h-136l529 1372q-60 23 -93.5 76.5t-33.5 126.5q0 102 61.5 162.5t159.5 60.5q105 0 166 -58t61 -165q0 -73 -34 -125t-95 -76l551 -1374h-135l-170 430h-670zM682 1454q56 0 91.5 32t35.5 89q0 60 -33.5 94.5t-93.5 34.5
q-55 0 -88 -35t-33 -94q0 -55 32 -88t89 -33zM684 1294l-283 -749h580z" />
    <glyph glyph-name="aringacute" unicode="&#x1fb;" horiz-adv-x="1357" 
d="M936 2298h147l-315 -391h-115zM702 1341q-101 0 -161 60.5t-60 159.5q0 102 61.5 162.5t159.5 60.5q105 0 166.5 -58t61.5 -165q0 -101 -62.5 -160.5t-165.5 -59.5zM702 1440q56 0 91.5 32t35.5 89q0 60 -33.5 94.5t-93.5 34.5q-54 0 -87 -34.5t-33 -94.5q0 -55 31.5 -88
t88.5 -33zM1065 346q-42 -106 -121 -188q-82 -88 -195.5 -137.5t-248.5 -49.5q-183 0 -281 82t-98 221q0 88 40 159t107 114q54 31 103 49q120 42 346 76l176 28q82 14 125 46t43 90q0 254 -359 254q-191 0 -299.5 -88.5t-119.5 -229.5h-129q9 117 75 219q140 205 469 205
q251 0 369.5 -99.5t118.5 -277.5v-819h-107zM530 80q221 0 383 162q73 74 112.5 159.5t39.5 169.5v109q-39 -35 -113 -55.5t-209 -42.5q-162 -25 -243.5 -48t-139.5 -61q-100 -65 -100 -184q0 -97 69.5 -153t200.5 -56z" />
    <glyph glyph-name="AEacute" unicode="&#x1fc;" horiz-adv-x="1998" 
d="M1100 2028h147l-315 -392h-115zM997 430h-608l-229 -430h-144l791 1450h1085v-117h-925l94 -545h702v-116h-684l95 -553h747v-119h-852zM852 1294l-401 -749h526z" />
    <glyph glyph-name="aeacute" unicode="&#x1fd;" horiz-adv-x="2295" 
d="M1386 1720h148l-315 -391h-115zM2157 346q-46 -183 -188.5 -279t-350.5 -96q-221 0 -359 97.5t-188 281.5q-34 -97 -117 -190q-182 -189 -446 -189q-188 0 -287.5 83t-99.5 222q0 88 40 158t107 113q54 31 103 49q120 42 346 76l174 26q84 15 127 44.5t43 86.5
q0 115 -96 189t-267 74q-125 0 -219 -43q-90 -44 -140 -115.5t-56 -161.5h-129q9 117 75 219q140 205 469 205q181 0 293 -65.5t152 -180.5q73 118 195.5 182t283.5 64q178 0 303 -78q122 -77 185 -209t63 -301v-63h-1006q5 -217 122 -339t331 -122q155 0 258 66t141 196
h138zM1622 1090q-196 0 -316 -118t-137 -321h877q-11 203 -121.5 321t-302.5 118zM530 80q221 0 373 162q141 154 141 329q0 11 5 93q-40 -28 -110 -45.5t-196 -38.5q-51 -7 -178 -33q-138 -26 -207 -74q-98 -61 -98 -184q0 -97 69.5 -153t200.5 -56z" />
    <glyph glyph-name="Oslashacute" unicode="&#x1fe;" horiz-adv-x="1509" 
d="M977 2050h147l-315 -391h-115zM754 -29q-149 0 -260 43l-91 -198h-116l114 245q-270 174 -270 613v80q0 222 76 387q77 162 216 247t331 85q155 0 270 -56l94 207h115l-119 -258q128 -90 196 -245.5t68 -366.5v-80q0 -238 -80 -389q-77 -155 -216.5 -234.5t-327.5 -79.5z
M266 678q0 -352 193 -496l514 1125q-94 47 -219 47q-233 0 -360.5 -159.5t-127.5 -444.5v-72zM754 92q228 0 358.5 152t130.5 434v70q0 342 -184 501l-512 -1118q92 -39 207 -39z" />
    <glyph glyph-name="oslashacute" unicode="&#x1ff;" 
d="M915 1774h148l-315 -392h-115zM692 -29q-112 0 -198 27l-86 -182h-113l100 219q-136 71 -208 205.5t-72 324.5v23q0 195 75 327q76 137 205 209t297 72q123 0 221 -37l84 178h115l-104 -223q124 -75 193 -210.5t69 -315.5v-23q0 -179 -72 -317q-74 -134 -203.5 -205.5
t-302.5 -71.5zM248 567q0 -144 52 -250.5t149 -166.5l415 901q-68 32 -170 32q-134 0 -229 -59q-104 -61 -160.5 -172t-56.5 -266v-19zM692 88q213 0 331 127.5t118 351.5v19q0 136 -49 242.5t-136 172.5l-411 -892q65 -21 147 -21z" />
    <glyph glyph-name="uni0218" unicode="&#x218;" horiz-adv-x="1318" 
d="M672 -29q-196 0 -328 60q-123 60 -183 170.5t-71 277.5h139q16 -391 445 -391q135 0 229 43q87 41 130.5 110.5t43.5 151.5q0 147 -135 215q-38 19 -95.5 36t-89.5 24t-116 24q-234 44 -336 103q-155 82 -155 286q0 109 57 195q58 92 168 144.5t266 52.5q249 0 388 -114
t151 -315h-133q-11 153 -113.5 234.5t-292.5 81.5q-169 0 -264.5 -79t-95.5 -198q0 -139 133 -202q19 -9 43.5 -18t43 -14.5t52 -13.5t48.5 -11.5t56.5 -12t53.5 -10.5q117 -24 197 -47t145 -60q155 -94 155 -299q0 -113 -59 -213q-134 -211 -477 -211zM557 -543
q111 46 131 172q-10 -6 -31 -6q-45 0 -65.5 19.5t-20.5 72.5q0 103 103 103q54 0 80 -35t26 -111q0 -100 -54 -176t-153 -108z" />
    <glyph glyph-name="uni0219" unicode="&#x219;" horiz-adv-x="1198" 
d="M616 -29q-230 0 -371.5 104t-164.5 304h139q12 -97 68 -166q115 -127 331 -127q136 0 207 35q148 67 148 211q0 81 -55 123q-50 37 -128 56t-204 36q-213 31 -310 78q-145 69 -145 237q0 91 45 162q98 172 397 172q219 0 350 -96.5t152 -263.5h-133q-13 120 -111 185.5
t-258 65.5q-123 0 -188 -32q-125 -57 -125 -187q0 -81 55 -123q35 -26 93.5 -44.5t107 -27.5t131.5 -20q203 -29 311 -78q144 -70 144 -239q0 -100 -51 -180q-108 -185 -435 -185zM502 -543q111 46 131 172q-10 -6 -31 -6q-45 0 -65.5 19.5t-20.5 72.5q0 103 102 103
q55 0 81 -35t26 -111q0 -100 -54 -176t-153 -108z" />
    <glyph glyph-name="uni0237" unicode="&#x237;" horiz-adv-x="495" 
d="M-127 -317h55q106 0 162 20q55 20 76.5 84t21.5 195v1181h125v-1192q0 -180 -30 -254q-30 -86 -108.5 -118.5t-235.5 -32.5h-66v117z" />
    <glyph glyph-name="uni0245" unicode="&#x245;" 
d="M684 1294l-489 -1294h-136l559 1450h132l581 -1450h-137z" />
    <glyph glyph-name="circumflex" unicode="&#x2c6;" horiz-adv-x="1060" 
d="M528 1595l-190 -252h-127l264 343h107l264 -343h-127z" />
    <glyph glyph-name="caron" unicode="&#x2c7;" horiz-adv-x="1060" 
d="M477 1341l-262 334h131l180 -235l191 235h129l-271 -334h-98z" />
    <glyph glyph-name="breve" unicode="&#x2d8;" horiz-adv-x="1060" 
d="M524 1335q-128 0 -205 47q-137 89 -147 308h104q7 -117 66.5 -187t183.5 -71q117 1 182.5 73t71.5 185h105q-3 -90 -43 -179q-40 -83 -120 -129.5t-198 -46.5z" />
    <glyph glyph-name="dotaccent" unicode="&#x2d9;" horiz-adv-x="1067" 
d="M512 1341q-59 0 -86 26t-27 87q0 115 113 115q111 0 111 -117q0 -111 -111 -111z" />
    <glyph glyph-name="ring" unicode="&#x2da;" horiz-adv-x="1060" 
d="M520 1341q-101 0 -161 60.5t-60 159.5q0 102 61.5 162.5t159.5 60.5q105 0 166.5 -58t61.5 -165q0 -101 -62.5 -160.5t-165.5 -59.5zM520 1440q56 0 91.5 32t35.5 89q0 60 -33.5 94.5t-93.5 34.5q-55 0 -88 -35t-33 -94q0 -55 32 -88t89 -33z" />
    <glyph glyph-name="ogonek" unicode="&#x2db;" horiz-adv-x="1060" 
d="M510 -451q-123 0 -191.5 54t-68.5 151q0 82 63.5 154.5t212.5 142.5l82 -51q-143 -77 -195.5 -128t-52.5 -110q0 -55 42.5 -87.5t113.5 -32.5q134 0 186 114h125q-84 -207 -317 -207z" />
    <glyph glyph-name="tilde" unicode="&#x2dc;" horiz-adv-x="1060" 
d="M147 1348q0 111 50 172t151 61q86 0 197 -68q109 -67 162 -67q54 0 79.5 30.5t26.5 100.5h94q0 -234 -202 -234q-82 0 -193 68q-35 22 -56.5 34t-51.5 23t-56 11q-55 0 -79.5 -32t-26.5 -99h-95z" />
    <glyph glyph-name="hungarumlaut" unicode="&#x2dd;" horiz-adv-x="1060" 
d="M336 1348h-107l252 342h150zM627 1348h-109l275 342h149z" />
    <glyph glyph-name="uni03BC" unicode="&#x3bc;" horiz-adv-x="1368" 
d="M647 -27q-242 0 -342 195v-576h-125v1571h129v-667q0 -189 87.5 -297.5t267.5 -108.5q117 0 208 60q91 62 140 167t49 242v604h129v-1163h-111l-10 283q-43 -145 -150 -227.5t-272 -82.5z" />
    <glyph glyph-name="pi" unicode="&#x3c0;" horiz-adv-x="1452" 
d="M954 1327h-479v-1327h-129v1327h-287v123h1336v-123h-310v-911q0 -111 19 -189q20 -62 72 -85t159 -23h43v-119h-51q-152 0 -231 33q-78 30 -110 116t-32 257v921z" />
    <glyph glyph-name="uni0E3F" unicode="&#xe3f;" horiz-adv-x="1421" 
d="M791 0v-246h-107v246h-489v1450h489v236h107v-236q269 0 386 -91t117 -274q0 -278 -254 -342q146 -33 215.5 -115.5t69.5 -228.5q0 -199 -127 -299t-405 -100h-2zM684 797v542h-360v-542h360zM791 797h2q190 0 281 66.5t91 211.5q0 134 -86.5 199t-287.5 65v-542z
M684 115v573h-360v-573h360zM1192 408q0 148 -98 214t-303 66v-573q214 1 307.5 74t93.5 219z" />
    <glyph glyph-name="Wgrave" unicode="&#x1e80;" horiz-adv-x="2033" 
d="M664 1976h153l256 -344h-117zM997 1241l-458 -1241h-123l-344 1450h133l287 -1241l456 1241h105l432 -1255l344 1255h131l-406 -1450h-124z" />
    <glyph glyph-name="wgrave" unicode="&#x1e81;" horiz-adv-x="1837" 
d="M575 1688h154l256 -345h-117zM911 975l-395 -975h-121l-329 1163h131l274 -993l395 993h95l364 -991l317 991h130l-377 -1163h-121z" />
    <glyph glyph-name="Wacute" unicode="&#x1e82;" horiz-adv-x="2033" 
d="M1225 2028h147l-315 -392h-115zM997 1241l-458 -1241h-123l-344 1450h133l287 -1241l456 1241h105l432 -1255l344 1255h131l-406 -1450h-124z" />
    <glyph glyph-name="wacute" unicode="&#x1e83;" horiz-adv-x="1837" 
d="M1137 1739h147l-315 -391h-115zM911 975l-395 -975h-121l-329 1163h131l274 -993l395 993h95l364 -991l317 991h130l-377 -1163h-121z" />
    <glyph glyph-name="Wdieresis" unicode="&#x1e84;" horiz-adv-x="2033" 
d="M821 1630q-53 0 -77.5 23t-24.5 80q0 104 102 104q53 0 78 -25t25 -79q0 -103 -103 -103zM1180 1630q-53 0 -78 23t-25 80q0 104 105 104q52 0 76 -25t24 -79t-25.5 -78.5t-76.5 -24.5zM997 1241l-458 -1241h-123l-344 1450h133l287 -1241l456 1241h105l432 -1255
l344 1255h131l-406 -1450h-124z" />
    <glyph glyph-name="wdieresis" unicode="&#x1e85;" horiz-adv-x="1837" 
d="M733 1341q-53 0 -77.5 23t-24.5 80q0 104 102 104q53 0 78 -25t25 -79q0 -103 -103 -103zM1092 1341q-53 0 -78 23t-25 80q0 104 105 104q52 0 76 -25t24 -79t-25.5 -78.5t-76.5 -24.5zM911 975l-395 -975h-121l-329 1163h131l274 -993l395 993h95l364 -991l317 991h130
l-377 -1163h-121z" />
    <glyph glyph-name="Ygrave" unicode="&#x1ef2;" horiz-adv-x="1298" 
d="M301 1950h154l256 -344h-117zM569 0v569l-508 881h148l430 -756l457 756h147l-541 -887v-563h-133z" />
    <glyph glyph-name="ygrave" unicode="&#x1ef3;" horiz-adv-x="1234" 
d="M289 1667h153l256 -344h-116zM92 -420v115h70q91 0 144.5 10.5t90.5 38.5q67 48 144 221l26 53l-512 1145h138l438 -989l430 989h137l-539 -1222q-55 -125 -96.5 -192.5t-91.5 -102.5q-50 -37 -120.5 -51.5t-188.5 -14.5h-70z" />
    <glyph glyph-name="figuredash" unicode="&#x2012;" horiz-adv-x="1427" 
d="M1276 582h-1126v127h1126v-127z" />
    <glyph glyph-name="endash" unicode="&#x2013;" horiz-adv-x="1120" 
d="M969 582h-819v127h819v-127z" />
    <glyph glyph-name="emdash" unicode="&#x2014;" horiz-adv-x="1529" 
d="M1378 582h-1228v127h1228v-127z" />
    <glyph glyph-name="uni2015" unicode="&#x2015;" horiz-adv-x="2144" 
d="M1993 582h-1843v127h1843v-127z" />
    <glyph glyph-name="uni2016" unicode="&#x2016;" horiz-adv-x="1034" 
d="M205 -266v1874h131v-1874h-131zM698 -266v1874h129v-1874h-129z" />
    <glyph glyph-name="underscoredbl" unicode="&#x2017;" horiz-adv-x="1275" 
d="M1190 0h-1102v100h1102v-100zM1190 -287h-1102v101h1102v-101z" />
    <glyph glyph-name="quoteleft" unicode="&#x2018;" horiz-adv-x="587" 
d="M299 1004q-61 0 -89 37t-28 122q0 213 189 301l30 -61q-120 -63 -129 -205q17 10 41 10q48 0 70.5 -20.5t22.5 -77.5q0 -106 -107 -106z" />
    <glyph glyph-name="quoteright" unicode="&#x2019;" horiz-adv-x="587" 
d="M190 1069q122 66 134 207q-27 -10 -43 -10q-48 0 -70.5 20.5t-22.5 75.5q0 108 107 108q61 0 89 -37t28 -122q0 -216 -191 -303z" />
    <glyph glyph-name="quotesinglbase" unicode="&#x201a;" horiz-adv-x="604" 
d="M176 -199q62 26 102.5 77t47.5 120q-13 -8 -39 -8q-46 0 -68 21t-22 77q0 107 104 107q61 0 88 -36t27 -120q0 -108 -55.5 -186t-157.5 -115z" />
    <glyph glyph-name="uni201B" unicode="&#x201b;" horiz-adv-x="587" 
d="M367 1008q-189 88 -189 303q0 159 121 159q52 0 76 -25t24 -79q0 -56 -22.5 -78t-69.5 -22q-18 0 -41 10q12 -143 131 -207z" />
    <glyph glyph-name="quotedblleft" unicode="&#x201c;" horiz-adv-x="950" 
d="M299 1004q-61 0 -89 37t-28 122q0 213 189 301l30 -61q-120 -63 -129 -205q17 10 41 10q48 0 70.5 -20.5t22.5 -77.5q0 -106 -107 -106zM662 1004q-61 0 -89 37t-28 122q0 214 188 301l31 -61q-119 -66 -131 -205q20 10 43 10q48 0 70 -20.5t22 -77.5q0 -106 -106 -106z
" />
    <glyph glyph-name="quotedblright" unicode="&#x201d;" horiz-adv-x="950" 
d="M190 1069q123 66 132 207q-23 -10 -41 -10q-48 0 -70.5 20.5t-22.5 75.5q0 108 107 108q61 0 88 -37t27 -122q0 -215 -189 -303zM553 1069q119 64 131 207q-27 -10 -43 -10q-46 0 -69 20.5t-23 75.5q0 108 106 108q61 0 89 -37t28 -122q0 -216 -188 -303z" />
    <glyph glyph-name="quotedblbase" unicode="&#x201e;" horiz-adv-x="972" 
d="M170 -199q62 25 101 76t46 121q-13 -8 -36 -8q-47 0 -70 21t-23 77q0 107 107 107q59 0 86 -36t27 -120q0 -108 -54.5 -186t-156.5 -115zM553 -199q62 26 101.5 76.5t45.5 120.5q-13 -8 -36 -8q-47 0 -70 21t-23 77q0 107 107 107q59 0 86 -36t27 -120q0 -108 -54.5 -186
t-156.5 -115z" />
    <glyph glyph-name="uni201F" unicode="&#x201f;" horiz-adv-x="964" 
d="M365 1008q-189 88 -189 303q0 159 119 159q54 0 79 -25t25 -79q0 -56 -23.5 -78t-70.5 -22q-18 0 -41 10q12 -143 131 -207zM739 1008q-188 87 -188 303q0 159 119 159q54 0 79 -25t25 -79q0 -56 -23.5 -78t-70.5 -22q-8 0 -21 3.5t-18 4.5q9 -139 129 -205z" />
    <glyph glyph-name="dagger" unicode="&#x2020;" horiz-adv-x="1148" 
d="M639 971v-1014h-129v1014h-373v125h373v401h129v-401h373v-125h-373z" />
    <glyph glyph-name="daggerdbl" unicode="&#x2021;" horiz-adv-x="1148" 
d="M639 377v-420h-131v420h-371v125h371v469h-371v125h371v401h131v-401h373v-125h-373v-469h373v-125h-373z" />
    <glyph glyph-name="bullet" unicode="&#x2022;" horiz-adv-x="649" 
d="M324 453q-140 0 -140 139t140 139q70 0 104.5 -32t34.5 -107q0 -139 -139 -139z" />
    <glyph glyph-name="ellipsis" unicode="&#x2026;" horiz-adv-x="1478" 
d="M299 -18q-56 0 -80 24.5t-24 87.5q0 60 24 85.5t80 25.5q58 0 81 -25t23 -86t-24.5 -86.5t-79.5 -25.5zM741 -18q-57 0 -81.5 24.5t-24.5 87.5q0 60 24 85.5t82 25.5q56 0 80.5 -25.5t24.5 -85.5q0 -61 -25 -86.5t-80 -25.5zM1180 -18q-56 0 -80.5 24.5t-24.5 87.5
q0 60 24.5 85.5t80.5 25.5q58 0 81 -25t23 -86t-24.5 -86.5t-79.5 -25.5z" />
    <glyph glyph-name="perthousand" unicode="&#x2030;" horiz-adv-x="2238" 
d="M375 907q-128 0 -205.5 73t-77.5 198v14q0 130 82 204t203 74q129 0 207 -75t78 -203v-14q0 -123 -77.5 -197t-209.5 -74zM98 0q6 9 32 41.5t72 91t91 117.5q50 64 175.5 224.5t195.5 250.5q58 76 123.5 161t137.5 178t105 136l191 250h149q-18 -26 -194 -250
q-58 -77 -187 -243.5t-180 -233.5q-58 -74 -367 -475l-188 -248h-156zM377 999q85 0 133.5 51t48.5 132v10q0 84 -51.5 135t-130.5 51q-80 0 -131 -49t-51 -137v-10q0 -84 49 -133.5t133 -49.5zM1085 -27q-130 0 -207 72.5t-77 200.5v12q0 130 82 205.5t204 75.5
q128 0 206.5 -75.5t78.5 -205.5v-12q0 -125 -78.5 -199t-208.5 -74zM1851 -27q-130 0 -206 72.5t-76 200.5v12q0 130 81.5 205.5t202.5 75.5q128 0 206.5 -75.5t78.5 -205.5v-12q0 -125 -78.5 -199t-208.5 -74zM1085 68q85 0 135 50.5t50 131.5v8q0 85 -51.5 135.5
t-131.5 50.5t-131 -49t-51 -137v-8q0 -85 48.5 -133.5t131.5 -48.5zM1851 68q87 0 136 50t49 132v8q0 85 -51.5 135.5t-131.5 50.5t-131 -49t-51 -137v-8q0 -85 48.5 -133.5t131.5 -48.5z" />
    <glyph glyph-name="uni2032" unicode="&#x2032;" horiz-adv-x="329" 
d="M59 1042l84 408h129l-125 -408h-88z" />
    <glyph glyph-name="uni2033" unicode="&#x2033;" horiz-adv-x="561" 
d="M57 1042l84 408h129l-123 -408h-90zM299 1042l84 408h129l-125 -408h-88z" />
    <glyph glyph-name="uni2034" unicode="&#x2034;" horiz-adv-x="935" 
d="M244 1450v-127q0 -18 -1 -61.5t-1 -69.5q-12 -196 -17 -225h-84q-1 5 -3 20.5t-4 33t-3 36.5q-10 137 -10 266v127h123zM528 1450v-127q0 -18 -1 -61.5t-1 -69.5q-3 -170 -16 -225h-84q-7 59 -8 90q-10 137 -10 266v127h120zM815 1450v-127q0 -18 -1 -61.5t-1 -69.5
q-13 -205 -16 -225h-84q-1 5 -3.5 20t-4.5 33t-3 37q-8 109 -8 266v127h121z" />
    <glyph glyph-name="guilsinglleft" unicode="&#x2039;" horiz-adv-x="806" 
d="M528 174l-372 424v27l358 438h135l-366 -447l385 -442h-140z" />
    <glyph glyph-name="guilsinglright" unicode="&#x203a;" horiz-adv-x="806" 
d="M139 174l387 442l-368 447h135l360 -438v-27l-372 -424h-142z" />
    <glyph glyph-name="exclamdbl" unicode="&#x203c;" horiz-adv-x="1118" 
d="M389 1464v-370q0 -128 -4 -340q-10 -350 -18 -402q-30 6 -45 6q-22 0 -46 -6q-1 7 -2 25t-3 49t-5 61q-16 290 -16 607v370h139zM866 1464v-370q0 -128 -4 -340q-10 -350 -18 -402q-30 6 -45 6q-21 0 -45 -6q-1 8 -2.5 25t-4 49t-4.5 61q-16 290 -16 607v370h139z
M319 -18q-59 0 -84.5 25t-25.5 89q0 59 27 86t83 27q59 0 86 -26.5t27 -86.5q0 -59 -27.5 -86.5t-85.5 -27.5zM797 -18q-60 0 -85.5 25.5t-25.5 88.5q0 59 27.5 86t83.5 27q59 0 85.5 -26.5t26.5 -86.5q0 -59 -27 -86.5t-85 -27.5z" />
    <glyph glyph-name="uni203D" unicode="&#x203d;" horiz-adv-x="1419" 
d="M743 332q-6 2 -51 2q-39 0 -45 -2q-3 32 -6 188q-4 290 -4 574v264q-166 -18 -244 -110.5t-78 -258.5v-26h-131v32q0 231 132.5 354.5t400.5 123.5q173 0 291 -56q221 -112 221 -350q0 -192 -125 -285q-32 -25 -71.5 -48t-87.5 -46.5t-73 -38.5q-61 -34 -93.5 -79
t-33.5 -117zM754 1094q0 -77 -6 -416q27 28 60 51t88 53t73 41q62 39 95.5 94t33.5 144q0 83 -35 143q-70 147 -309 158v-268zM698 -18q-60 0 -87 25.5t-27 88.5q0 60 26.5 86.5t85.5 26.5t86 -26.5t27 -86.5q0 -114 -111 -114z" />
    <glyph glyph-name="fraction" unicode="&#x2044;" horiz-adv-x="1722" 
d="M946 860l504 639l131 -104l-592 -570zM817 645l-526 -686l-135 117l622 604z" />
    <glyph glyph-name="uni2070" unicode="&#x2070;" horiz-adv-x="772" 
d="M385 707q-295 0 -295 352v41q0 173 75.5 267.5t219.5 94.5q141 0 220 -94t79 -266v-41q0 -172 -78.5 -263t-220.5 -91zM385 803q92 0 143.5 67.5t51.5 190.5v39q0 127 -49.5 196.5t-145.5 69.5q-190 0 -190 -266v-41q0 -256 190 -256z" />
    <glyph glyph-name="uni2074" unicode="&#x2074;" horiz-adv-x="712" 
d="M541 893v-172h-88v172h-408v74l408 483h88v-475h123v-82h-123zM453 1317l-289 -342h289v342z" />
    <glyph glyph-name="uni2075" unicode="&#x2075;" horiz-adv-x="741" 
d="M373 707q-144 0 -211.5 61.5t-67.5 169.5v6h107v-6q0 -68 42.5 -106.5t129.5 -38.5q93 0 143.5 46t50.5 132q0 85 -48.5 124.5t-131.5 39.5q-124 0 -186 -97l-6 -4l-84 23l47 393h458q0 -50 -21.5 -71t-74.5 -21h-282l-33 -228q79 82 205 82q118 0 186 -60.5t68 -178.5
q0 -127 -76.5 -196.5t-214.5 -69.5z" />
    <glyph glyph-name="uni2076" unicode="&#x2076;" horiz-adv-x="761" 
d="M674 950q0 -106 -76 -174.5t-205 -68.5q-155 0 -229 87.5t-74 264.5v41q0 174 76 268t227 94q115 0 181.5 -48t78.5 -138h-108q-21 97 -150 100q-211 0 -211 -278v-60q61 138 228 138q123 0 192.5 -55.5t69.5 -170.5zM393 793q92 0 138.5 43t46.5 114q0 75 -47.5 110.5
t-131.5 35.5q-86 0 -139.5 -36.5t-64.5 -101.5q18 -81 65 -123t133 -42z" />
    <glyph glyph-name="uni2077" unicode="&#x2077;" horiz-adv-x="630" 
d="M156 721q20 99 80 240q99 216 241 397h-426v92h535v-80q-54 -68 -121 -180q-153 -254 -197 -469h-112z" />
    <glyph glyph-name="uni2078" unicode="&#x2078;" horiz-adv-x="743" 
d="M369 707q-148 0 -219.5 49t-71.5 155q0 68 39 115t106 66q-121 36 -121 165q0 96 72 149.5t199 53.5q128 0 201 -53.5t73 -149.5q0 -63 -35 -104t-94 -59q68 -18 108 -64t40 -119q0 -204 -297 -204zM393 1128q73 0 115.5 32.5t42.5 90.5q0 60 -46 93.5t-130 33.5
q-83 0 -128.5 -34.5t-45.5 -94.5q0 -57 37 -89t108 -32h47zM371 791q196 0 196 129q0 66 -42.5 99t-131.5 34h-47q-76 0 -122 -38t-46 -95q0 -129 193 -129z" />
    <glyph glyph-name="uni2079" unicode="&#x2079;" horiz-adv-x="749" 
d="M362 705q-243 0 -270 200h107q24 -111 161 -114q211 0 211 278v61q-27 -67 -85 -103t-142 -36q-123 0 -192.5 55.5t-69.5 170.5q0 107 73.5 175t204.5 68q155 0 230.5 -87.5t75.5 -264.5v-41q0 -174 -75.5 -268t-228.5 -94zM356 1071q90 0 142.5 39t60.5 107
q-35 157 -197 157q-91 0 -137.5 -43t-46.5 -114q0 -74 47.5 -110t130.5 -36z" />
    <glyph glyph-name="uni207A" unicode="&#x207a;" horiz-adv-x="722" 
d="M397 1030v-221h-84v221h-217v86h217v209h84v-209h224v-86h-224z" />
    <glyph glyph-name="uni207B" unicode="&#x207b;" horiz-adv-x="722" 
d="M96 1028v90h525v-90h-525z" />
    <glyph glyph-name="uni207C" unicode="&#x207c;" horiz-adv-x="722" 
d="M111 1163v86h495v-86h-495zM111 893v88h495v-88h-495z" />
    <glyph glyph-name="uni207D" unicode="&#x207d;" horiz-adv-x="532" 
d="M123 1098q0 238 103 374t278 150v-96q-136 -12 -210.5 -120t-74.5 -314v-50q0 -203 76 -309t209 -117v-98q-175 11 -278 141t-103 371v68z" />
    <glyph glyph-name="uni207E" unicode="&#x207e;" horiz-adv-x="532" 
d="M29 616q133 11 208.5 116.5t75.5 309.5v50q0 206 -73.5 314t-210.5 120v96q175 -14 278 -150t103 -374v-68q0 -241 -103 -371t-278 -141v98z" />
    <glyph glyph-name="uni2080" unicode="&#x2080;" horiz-adv-x="772" 
d="M385 -14q-295 0 -295 352v41q0 173 75.5 267.5t219.5 94.5q141 0 220 -94t79 -266v-41q0 -172 -78.5 -263t-220.5 -91zM385 82q92 0 143.5 67.5t51.5 190.5v39q0 127 -49.5 196.5t-145.5 69.5q-190 0 -190 -266v-41q0 -256 190 -256z" />
    <glyph glyph-name="uni2081" unicode="&#x2081;" horiz-adv-x="512" 
d="M59 0v94h158v465q-53 -43 -125 -43v82q117 3 139 131h80v-635h152v-94h-404z" />
    <glyph glyph-name="uni2082" unicode="&#x2082;" horiz-adv-x="706" 
d="M76 0v47q0 126 117 207q41 29 125 73t94 50q57 32 86.5 67.5t29.5 83.5q0 64 -38 95.5t-125 31.5q-172 0 -172 -170v-26h-103v28q0 122 72 187t205 65q131 0 197.5 -55.5t66.5 -153.5q0 -71 -39 -122q-61 -73 -223 -154q-73 -35 -118 -72.5t-61 -89.5h447v-92h-561z" />
    <glyph glyph-name="uni2083" unicode="&#x2083;" horiz-adv-x="729" 
d="M367 -14q-152 0 -221.5 57.5t-69.5 183.5v19h104v-17q0 -78 44 -116.5t143 -38.5q178 0 178 133q0 65 -35.5 93t-114.5 28h-110v86h110q142 0 142 121q0 118 -170 118q-84 0 -128 -40.5t-44 -110.5v-8h-105v10q0 109 72.5 172t204.5 63t201 -53t69 -145q0 -127 -117 -164
q129 -39 129 -176q0 -97 -74.5 -156t-207.5 -59z" />
    <glyph glyph-name="uni2084" unicode="&#x2084;" horiz-adv-x="712" 
d="M541 172v-172h-88v172h-408v74l408 483h88v-475h123v-82h-123zM453 596l-289 -342h289v342z" />
    <glyph glyph-name="uni2085" unicode="&#x2085;" horiz-adv-x="741" 
d="M373 -14q-144 0 -211.5 61.5t-67.5 169.5v6h107v-6q0 -68 42.5 -106.5t129.5 -38.5q93 0 143.5 46t50.5 132q0 85 -48.5 124.5t-131.5 39.5q-124 0 -186 -97l-6 -4l-84 23l47 393h458q0 -50 -21.5 -71t-74.5 -21h-282l-33 -227q79 82 205 82q118 0 186 -61t68 -179
q0 -127 -76.5 -196.5t-214.5 -69.5z" />
    <glyph glyph-name="uni2086" unicode="&#x2086;" horiz-adv-x="761" 
d="M674 229q0 -106 -76 -174.5t-205 -68.5q-155 0 -229 87.5t-74 264.5v41q0 174 76 268t227 94q115 0 181.5 -48t78.5 -138h-108q-21 97 -150 100q-211 0 -211 -278v-60q61 138 228 138q123 0 192.5 -55.5t69.5 -170.5zM393 72q92 0 138.5 43t46.5 114q0 75 -47.5 110.5
t-131.5 35.5q-86 0 -139.5 -36t-64.5 -101q18 -82 65 -124t133 -42z" />
    <glyph glyph-name="uni2087" unicode="&#x2087;" horiz-adv-x="630" 
d="M156 0q20 99 80 240q99 216 241 397h-426v92h535v-80q-54 -68 -121 -180q-153 -254 -197 -469h-112z" />
    <glyph glyph-name="uni2088" unicode="&#x2088;" horiz-adv-x="743" 
d="M369 -14q-148 0 -219.5 49t-71.5 155q0 68 39 115t106 66q-121 36 -121 166q0 96 72 149t199 53q128 0 201 -53t73 -149q0 -63 -35 -104.5t-94 -59.5q68 -18 108 -64t40 -119q0 -204 -297 -204zM393 408q73 0 115.5 32t42.5 90q0 60 -46 93.5t-130 33.5
q-83 0 -128.5 -34.5t-45.5 -94.5q0 -57 37 -88.5t108 -31.5h47zM371 70q196 0 196 129q0 66 -42.5 99t-131.5 34h-47q-76 0 -122 -38t-46 -95q0 -129 193 -129z" />
    <glyph glyph-name="uni2089" unicode="&#x2089;" horiz-adv-x="749" 
d="M362 -16q-243 0 -270 200h107q24 -111 161 -114q211 0 211 278v62q-27 -67 -85 -103.5t-142 -36.5q-123 0 -192.5 55.5t-69.5 170.5q0 107 73.5 175t204.5 68q155 0 230.5 -87.5t75.5 -264.5v-41q0 -174 -75.5 -268t-228.5 -94zM356 350q90 0 142.5 39t60.5 107
q-35 157 -197 157q-91 0 -137.5 -43t-46.5 -114q0 -74 47.5 -110t130.5 -36z" />
    <glyph glyph-name="uni208A" unicode="&#x208a;" horiz-adv-x="722" 
d="M397 309v-221h-84v221h-217v86h217v209h84v-209h224v-86h-224z" />
    <glyph glyph-name="uni208B" unicode="&#x208b;" horiz-adv-x="722" 
d="M96 307v90h525v-90h-525z" />
    <glyph glyph-name="uni208C" unicode="&#x208c;" horiz-adv-x="722" 
d="M111 442v86h495v-86h-495zM111 172v88h495v-88h-495z" />
    <glyph glyph-name="uni208D" unicode="&#x208d;" horiz-adv-x="532" 
d="M123 377q0 238 103 374t278 150v-96q-136 -12 -210.5 -120t-74.5 -314v-49q0 -203 76 -309t209 -117v-99q-175 11 -278 141t-103 371v68z" />
    <glyph glyph-name="uni208E" unicode="&#x208e;" horiz-adv-x="532" 
d="M29 -104q133 11 208.5 116.5t75.5 309.5v49q0 206 -73.5 314t-210.5 120v96q175 -14 278 -150t103 -374v-68q0 -241 -103 -371t-278 -141v99z" />
    <glyph glyph-name="colonmonetary" unicode="&#x20a1;" horiz-adv-x="1480" 
d="M647 -20q-115 12 -205 59l-75 -275h-93l88 322q-231 172 -231 586v84q0 338 162.5 523.5t454.5 193.5l55 206h92l-57 -209q112 -9 209 -47l71 256h92l-82 -299q198 -126 232 -407h-129q-24 185 -137 280l-322 -1161q202 0 323.5 110.5t145.5 297.5h131
q-27 -247 -183.5 -388t-422.5 -141h-29l-55 -207h-92zM1016 1307q-88 48 -209 51l-330 -1190q88 -58 203 -70zM262 678q0 -296 141 -449l312 1127q-218 -19 -335.5 -174t-117.5 -432v-72z" />
    <glyph glyph-name="uni20A2" unicode="&#x20a2;" horiz-adv-x="1480" 
d="M1370 479q-30 -239 -187 -373.5t-419 -134.5q-308 0 -470.5 176t-162.5 525v84q0 347 169.5 532t473.5 185q248 0 400 -121.5t184 -356.5h-133q-31 175 -145 267t-306 92q-244 0 -377 -155t-133 -449v-74q0 -531 418 -584v713h100l13 -189q64 193 309 193h63v-123h-75
q-117 0 -179 -33q-62 -31 -87 -97.5t-25 -184.5v-283q188 10 299.5 114t138.5 277h131z" />
    <glyph glyph-name="franc" unicode="&#x20a3;" horiz-adv-x="1232" 
d="M324 451v-451h-129v1450h958v-119h-829v-375h704v-118h-704v-269h704v-118h-704z" />
    <glyph glyph-name="lira" unicode="&#x20a4;" horiz-adv-x="1474" 
d="M1049 -25q-54 0 -109 12t-119 41t-99 47.5t-109 60.5q-17 9 -25 14q-44 -82 -117.5 -129.5t-167.5 -47.5q-242 0 -242 189q0 85 63 137.5t169 52.5q96 0 244 -67q6 31 6 88q0 78 -31 176h-342v94h307q-27 69 -80 184h-227v93h192q-34 119 -34 200q0 188 108.5 293
t298.5 105q183 0 293 -95.5t131 -259.5l-141 -2q-13 108 -85.5 175t-195.5 67q-130 0 -206 -74.5t-76 -206.5q0 -83 39 -202h415v-93h-383q54 -126 70 -184h313v-94h-286q20 -73 20 -162q0 -85 -18 -145q10 -5 50.5 -26.5t53.5 -28t48.5 -24.5t52.5 -24.5t48 -18.5t52 -17
t47 -9t49 -4q126 0 177.5 59.5t51.5 194.5v27h134v-47q0 -180 -80 -264.5t-260 -84.5zM305 61q140 0 203 132q-135 71 -217 71q-58 0 -90.5 -27t-32.5 -75q0 -45 37 -73t100 -28z" />
    <glyph glyph-name="uni20A6" unicode="&#x20a6;" horiz-adv-x="1658" 
d="M1303 1450h120v-479h172v-94h-172v-281h172v-94h-172v-502h-135l-344 502h-532v-502h-121v502h-234v94h234v281h-234v94h234v479h145l328 -479h539v479zM412 971h211l-211 309v-309zM688 877h-276v-281h469zM827 877l193 -281h283v281h-476zM1305 170l-2 47v285h-218
l205 -301z" />
    <glyph glyph-name="peseta" unicode="&#x20a7;" horiz-adv-x="3233" 
d="M324 498v-498h-129v1450h477q248 0 384.5 -102t162.5 -285h77q111 0 123 4l37.5 3t25.5 5.5t18 10t10 18t6.5 27.5t3.5 40q4 18 8 138l4 141h100v-383h357v-115h-357v-374q0 -135 25.5 -222t87.5 -139q61 -53 170 -76.5t285 -23.5h256q310 0 432 71q96 56 96 170
q0 62 -31.5 98.5t-93.5 57.5q-26 9 -63.5 17t-59.5 11.5t-79.5 11t-69.5 9.5q-190 27 -275 74q-125 69 -125 235q0 82 41 156q98 168 385 168q221 0 339.5 -92t139.5 -256h-133q-14 114 -100 176.5t-246 62.5q-112 0 -180 -30q-117 -57 -117 -180q0 -121 125 -164
q86 -30 277 -56q186 -25 276 -73q125 -66 125 -226q0 -163 -129 -252q-150 -106 -520 -106h-283q-204 0 -334.5 31.5t-207.5 99.5q-72 66 -104 173t-32 265v383h-284q-8 -217 -143.5 -336t-395.5 -118h-362zM684 612q195 -2 302.5 94t107.5 273q0 164 -106 260t-316 96h-348
v-723h360z" />
    <glyph glyph-name="uni20A8" unicode="&#x20a8;" horiz-adv-x="2592" 
d="M1989 -41q-157 0 -263 33q-106 29 -197 90t-192 162q-8 8 -18 16q-7 9 -45 47q-114 114 -191 172q-85 64 -171.5 91.5t-206.5 27.5h-381v-598h-129v1450h559q272 0 397 -105t125 -307q0 -308 -299 -381q101 -26 188.5 -86t198.5 -176l18 -18q5 -6 11.5 -13.5t12.5 -13.5
t11 -10.5t9 -7.5l4 -4q104 -104 167 -144q84 -58 176.5 -84t213.5 -26q185 0 270.5 68.5t85.5 183.5q0 71 -43 114q-76 68 -272 95q-229 32 -330 77q-158 67 -158 250q0 91 45 162q98 172 385 172q212 0 333 -95.5t142 -264.5h-133q-14 122 -102 186.5t-240 64.5
q-118 0 -178 -32q-63 -29 -93 -78.5t-30 -108.5q0 -71 43 -114q75 -68 273 -95q221 -31 329 -77q158 -71 158 -250q0 -106 -49 -191q-110 -182 -434 -182zM324 1333v-620h419q192 0 296 79.5t104 239.5q0 150 -94 225.5t-297 75.5h-428z" />
    <glyph glyph-name="uni20A9" unicode="&#x20a9;" horiz-adv-x="2170" 
d="M1321 551h-518l-205 -551h-119l-135 551h-307v94h285l-58 232h-227v94h205l-117 479h127l115 -479h479l178 479h88l172 -479h502l129 479h127l-133 -479h217v-94h-244l-65 -232h309v-94h-336l-154 -551h-116zM1067 1257l-106 -286h208zM811 877h-422l55 -232h281z
M1204 877h-280l-86 -232h448zM1759 877h-442l82 -232h297zM690 551h-223l88 -369zM1671 551h-237l135 -379z" />
    <glyph glyph-name="uni20AA" unicode="&#x20aa;" horiz-adv-x="1667" 
d="M580 0v1057q78 0 101.5 -32.5t23.5 -135.5v-770h331q178 0 255 107.5t77 330.5v907h125v-915q0 -269 -108 -409t-345 -140h-460zM311 1337v-1337h-125v1450h430q182 0 293 -66q102 -64 147.5 -183.5t45.5 -299.5v-340q0 -95 -24.5 -128.5t-100.5 -33.5v496q0 123 -29 233
q-27 102 -107 155.5t-227 53.5h-303z" />
    <glyph glyph-name="Euro" unicode="&#x20ac;" horiz-adv-x="1488" 
d="M1401 449q-39 -227 -185.5 -352.5t-381.5 -125.5q-259 0 -402 124.5t-180 381.5h-197v101h187q-2 31 -2 96v80q0 48 4 118h-189v99h203q42 246 188.5 374t393.5 128q223 0 357.5 -110t176.5 -319h-141q-33 158 -125 234t-270 76q-373 0 -451 -383h645l-43 -99h-616
q-6 -117 -6 -120v-74q0 -34 4 -100h516l-43 -101h-461q32 -195 142.5 -290t308.5 -95q185 0 290 95t136 262h141z" />
    <glyph glyph-name="uni20AE" unicode="&#x20ae;" horiz-adv-x="1198" 
d="M655 508v-508h-133v453l-317 -127v98l317 127v250l-317 -127v98l317 127v432h-477v119h1108v-119h-498v-377l328 131v-98l-328 -131v-250l328 131v-98z" />
    <glyph glyph-name="uni20B1" unicode="&#x20b1;" horiz-adv-x="1458" 
d="M399 375v-375h-129v713h-229v88h229v231h-229v88h229v330h373q229 0 367 -88.5t184 -241.5h236v-88h-213q6 -31 6 -94v-41q0 -65 -6 -96h213v-88h-232q-46 -158 -182 -248.5t-359 -89.5h-258zM399 1337v-217h662q-99 217 -416 217h-246zM1100 938q0 55 -10 94h-691v-231
h693q8 41 8 96v41zM657 487q156 -1 259 59t149 167h-666v-226h258z" />
    <glyph glyph-name="uni2105" unicode="&#x2105;" horiz-adv-x="1472" 
d="M657 1122q-14 -101 -88 -158t-194 -57q-132 0 -207.5 72.5t-75.5 198.5v14q0 131 80 204.5t205 73.5q115 0 188 -54.5t90 -155.5h-112q-13 55 -57 86.5t-109 31.5q-80 0 -131 -49t-51 -137v-10q0 -84 49 -133.5t133 -49.5q69 0 113 33t55 90h112zM98 0q6 9 32 41.5t72 91
t91 117.5q50 64 175.5 224.5t195.5 250.5q58 76 123.5 161t137.5 178t105 136l191 250h149q-18 -26 -194 -250q-58 -77 -187 -243.5t-180 -233.5q-58 -74 -367 -475l-188 -248h-156zM1085 -27q-133 0 -208.5 72.5t-75.5 200.5v12q0 131 81 206t205 75q129 0 207 -75t78 -206
v-12q0 -126 -77 -199.5t-210 -73.5zM1085 68q85 0 135 50.5t50 131.5v8q0 85 -51.5 135.5t-131.5 50.5t-131 -49t-51 -137v-8q0 -85 48.5 -133.5t131.5 -48.5z" />
    <glyph glyph-name="uni2116" unicode="&#x2116;" horiz-adv-x="2492" 
d="M1993 629q-192 0 -299 110t-107 305v17q0 134 53 229q54 96 144.5 146.5t208.5 50.5t209 -51q92 -52 143 -148t51 -227v-17q0 -192 -110 -303.5t-293 -111.5zM319 1245v-1245h-124v1450h131l876 -1227v1227h127v-1450h-119zM1993 739q137 0 209.5 82t72.5 226v14
q0 146 -77 232.5t-205 86.5t-204.5 -84.5t-76.5 -234.5v-14q0 -144 72.5 -226t208.5 -82zM2363 289h-739v114h739v-114z" />
    <glyph glyph-name="uni2117" unicode="&#x2117;" horiz-adv-x="1722" 
d="M862 -29q-206 0 -383 80q-172 86 -265 247t-93 398v33q0 223 96 395q97 167 264 258t379 91q317 0 524 -195q218 -205 218 -545v-37q0 -238 -99 -397q-97 -160 -264 -244t-377 -84zM862 70q187 0 330 73q148 73 228.5 215t80.5 344v23q0 207 -84 348q-85 146 -228 223.5
t-329 77.5q-190 0 -330 -80q-148 -81 -228.5 -226.5t-80.5 -344.5v-21q0 -204 82 -344q79 -141 222.5 -214.5t336.5 -73.5zM705 584v-248h-97v774h318q142 0 216.5 -69.5t74.5 -188.5v-2q0 -125 -74 -195.5t-217 -70.5h-221zM922 670q198 -3 198 180q0 82 -47.5 128
t-146.5 46h-221v-354h217z" />
    <glyph glyph-name="uni2120" unicode="&#x2120;" horiz-adv-x="1413" 
d="M299 811q-239 0 -252 221h96q9 -145 158 -145q71 0 109.5 29t38.5 79q0 19 -5 33.5t-12 25t-22 19.5t-26.5 14t-35 11t-37 8.5t-43.5 7.5q-47 10 -78 21t-59.5 30.5t-42.5 50.5t-14 76q0 75 58 124.5t159 49.5q112 0 171.5 -49.5t65.5 -138.5h-94q-5 56 -38.5 85.5
t-104.5 29.5q-63 0 -95 -29t-32 -74q0 -36 25.5 -58t51 -29t86.5 -18l15 -3q95 -15 145.5 -56t51.5 -131q0 -79 -64 -131.5t-176 -52.5zM776 1311v-484h-84v623h78l215 -295l213 295h78v-623h-84v482l-193 -265h-28z" />
    <glyph glyph-name="trademark" unicode="&#x2122;" horiz-adv-x="1347" 
d="M311 1370v-543h-86v543h-180v80h453v-80h-187zM713 1309v-482h-84v623h76l215 -295l215 295h77v-623h-84v484l-194 -267h-29z" />
    <glyph glyph-name="uni2126" unicode="&#x2126;" horiz-adv-x="1615" 
d="M610 0h-581v119h458q-94 106 -153 194q-172 248 -172 516q0 184 78 334q81 148 224.5 230t334.5 82q193 0 336 -82q146 -84 225.5 -229t79.5 -335q0 -141 -47 -274q-88 -228 -279 -436h461v-119h-571l-62 98q111 135 172 219q193 268 193 514q0 152 -66 275
q-67 118 -181.5 183t-260.5 65q-144 0 -264 -66q-115 -67 -177.5 -184t-62.5 -273q0 -136 55 -274q95 -210 314 -459z" />
    <glyph glyph-name="uni2153" unicode="&#x2153;" horiz-adv-x="1722" 
d="M946 860l504 639l131 -104l-592 -570zM209 721v94h158v465q-53 -43 -125 -43v82q117 3 139 131h80v-635h151v-94h-403zM1288 -14q-152 0 -221.5 57.5t-69.5 183.5v19h105v-17q0 -79 43.5 -117t142.5 -38q178 0 178 133q0 65 -35 93t-114 28h-111v86h111q141 0 141 121
q0 118 -170 118q-84 0 -128 -40.5t-44 -110.5v-8h-104v10q0 109 72 172t204 63t201.5 -53t69.5 -145q0 -127 -117 -164q129 -39 129 -176q0 -97 -75 -156t-208 -59zM817 645l-526 -686l-135 117l622 604z" />
    <glyph glyph-name="uni2154" unicode="&#x2154;" horiz-adv-x="1722" 
d="M946 860l504 639l131 -104l-592 -570zM123 721v47q0 126 117 207q41 29 125 73t94 50q57 32 86.5 67.5t29.5 83.5q0 64 -38 95.5t-125 31.5q-172 0 -172 -170v-26h-103v28q0 122 72 187t205 65q131 0 197.5 -55.5t66.5 -153.5q0 -72 -39 -123q-37 -45 -90 -79t-133 -74
q-150 -71 -178 -162h446v-92h-561zM1288 -14q-152 0 -221.5 57.5t-69.5 183.5v19h105v-17q0 -79 43.5 -117t142.5 -38q178 0 178 133q0 65 -35 93t-114 28h-111v86h111q141 0 141 121q0 118 -170 118q-84 0 -128 -40.5t-44 -110.5v-8h-104v10q0 109 72 172t204 63t201.5 -53
t69.5 -145q0 -127 -117 -164q129 -39 129 -176q0 -97 -75 -156t-208 -59zM817 645l-526 -686l-135 117l622 604z" />
    <glyph glyph-name="uni2155" unicode="&#x2155;" horiz-adv-x="1722" 
d="M946 860l504 639l131 -104l-592 -570zM209 721v94h158v465q-53 -43 -125 -43v82q117 3 139 131h80v-635h151v-94h-403zM1296 -14q-144 0 -211 61t-67 170v6h106v-6q0 -68 42.5 -106.5t129.5 -38.5q93 0 144 46t51 132q0 85 -48.5 124.5t-131.5 39.5q-125 0 -187 -97
l-6 -4l-84 23l47 393h459q0 -50 -21.5 -71t-74.5 -21h-283l-33 -227q79 82 205 82q118 0 186 -61t68 -179q0 -127 -76.5 -196.5t-214.5 -69.5zM817 645l-526 -686l-135 117l622 604z" />
    <glyph glyph-name="uni2156" unicode="&#x2156;" horiz-adv-x="1722" 
d="M946 860l504 639l131 -104l-592 -570zM123 721v47q0 126 117 207q41 29 125 73t94 50q57 32 86.5 67.5t29.5 83.5q0 64 -38 95.5t-125 31.5q-172 0 -172 -170v-26h-103v28q0 122 72 187t205 65q131 0 197.5 -55.5t66.5 -153.5q0 -72 -39 -123q-37 -45 -90 -79t-133 -74
q-150 -71 -178 -162h446v-92h-561zM1296 -14q-144 0 -211 61t-67 170v6h106v-6q0 -68 42.5 -106.5t129.5 -38.5q93 0 144 46t51 132q0 85 -48.5 124.5t-131.5 39.5q-125 0 -187 -97l-6 -4l-84 23l47 393h459q0 -50 -21.5 -71t-74.5 -21h-283l-33 -227q79 82 205 82
q118 0 186 -61t68 -179q0 -127 -76.5 -196.5t-214.5 -69.5zM817 645l-526 -686l-135 117l622 604z" />
    <glyph glyph-name="uni2157" unicode="&#x2157;" horiz-adv-x="1722" 
d="M946 860l504 639l131 -104l-592 -570zM416 707q-152 0 -221.5 57.5t-69.5 183.5v19h104v-17q0 -78 44 -116.5t143 -38.5q178 0 178 133q0 65 -35.5 93t-114.5 28h-110v86h110q142 0 142 120q0 119 -170 119q-84 0 -128 -40.5t-44 -110.5v-9h-105v11q0 109 72.5 172
t204.5 63t201 -53t69 -145q0 -127 -117 -164q129 -39 129 -176q0 -97 -74.5 -156t-207.5 -59zM1296 -14q-144 0 -211 61t-67 170v6h106v-6q0 -68 42.5 -106.5t129.5 -38.5q93 0 144 46t51 132q0 85 -48.5 124.5t-131.5 39.5q-125 0 -187 -97l-6 -4l-84 23l47 393h459
q0 -50 -21.5 -71t-74.5 -21h-283l-33 -227q79 82 205 82q118 0 186 -61t68 -179q0 -127 -76.5 -196.5t-214.5 -69.5zM817 645l-526 -686l-135 117l622 604z" />
    <glyph glyph-name="uni2158" unicode="&#x2158;" horiz-adv-x="1722" 
d="M946 860l504 639l131 -104l-592 -570zM596 893v-172h-88v172h-408v74l408 483h88v-475h123v-82h-123zM508 1317l-289 -342h289v342zM1296 -14q-144 0 -211 61t-67 170v6h106v-6q0 -68 42.5 -106.5t129.5 -38.5q93 0 144 46t51 132q0 85 -48.5 124.5t-131.5 39.5
q-125 0 -187 -97l-6 -4l-84 23l47 393h459q0 -50 -21.5 -71t-74.5 -21h-283l-33 -227q79 82 205 82q118 0 186 -61t68 -179q0 -127 -76.5 -196.5t-214.5 -69.5zM817 645l-526 -686l-135 117l622 604z" />
    <glyph glyph-name="uni2159" unicode="&#x2159;" horiz-adv-x="1722" 
d="M946 860l504 639l131 -104l-592 -570zM209 721v94h158v465q-53 -43 -125 -43v82q117 3 139 131h80v-635h151v-94h-403zM1583 229q0 -106 -75.5 -174.5t-204.5 -68.5q-155 0 -229.5 88t-74.5 264v41q0 173 76.5 267.5t227.5 94.5q115 0 181.5 -48t78.5 -138h-109
q-21 97 -149 100q-211 0 -211 -278v-60q61 138 227 138q123 0 192.5 -55.5t69.5 -170.5zM817 645l-526 -686l-135 117l622 604zM1303 72q91 0 137.5 43t46.5 114q0 146 -178 146q-86 0 -140 -36t-65 -101q18 -81 65.5 -123.5t133.5 -42.5z" />
    <glyph glyph-name="uni215A" unicode="&#x215a;" horiz-adv-x="1722" 
d="M946 860l504 639l131 -104l-592 -570zM418 707q-144 0 -211.5 61.5t-67.5 169.5v6h107v-6q0 -68 42.5 -106.5t129.5 -38.5q93 0 143.5 46t50.5 132q0 85 -48.5 124.5t-131.5 39.5q-124 0 -186 -97l-6 -4l-84 23l47 393h459q0 -50 -21.5 -71t-75.5 -21h-282l-33 -228
q79 82 205 82q118 0 186 -60.5t68 -178.5q0 -127 -76.5 -196.5t-214.5 -69.5zM1583 229q0 -106 -75.5 -174.5t-204.5 -68.5q-155 0 -229.5 88t-74.5 264v41q0 173 76.5 267.5t227.5 94.5q115 0 181.5 -48t78.5 -138h-109q-21 97 -149 100q-211 0 -211 -278v-60
q61 138 227 138q123 0 192.5 -55.5t69.5 -170.5zM817 645l-526 -686l-135 117l622 604zM1303 72q91 0 137.5 43t46.5 114q0 146 -178 146q-86 0 -140 -36t-65 -101q18 -81 65.5 -123.5t133.5 -42.5z" />
    <glyph glyph-name="uni215B" unicode="&#x215b;" horiz-adv-x="1722" 
d="M946 860l504 639l131 -104l-592 -570zM209 721v94h158v465q-53 -43 -125 -43v82q117 3 139 131h80v-635h151v-94h-403zM1294 -14q-148 0 -219 49t-71 155q0 68 39 115t106 66q-121 36 -121 166q0 96 71.5 149t198.5 53q129 0 202 -53t73 -149q0 -63 -35 -104.5t-94 -59.5
q68 -18 107.5 -64t39.5 -119q0 -204 -297 -204zM817 645l-526 -686l-135 117l622 604zM1319 408q73 0 115.5 32t42.5 90q0 60 -46.5 93.5t-130.5 33.5q-83 0 -128.5 -34.5t-45.5 -94.5q0 -56 37.5 -88t108.5 -32h47zM1296 70q197 0 197 129q0 66 -42.5 99t-131.5 34h-47
q-76 0 -122 -38t-46 -95q0 -129 192 -129z" />
    <glyph glyph-name="uni215C" unicode="&#x215c;" horiz-adv-x="1722" 
d="M946 860l504 639l131 -104l-592 -570zM416 707q-152 0 -221.5 57.5t-69.5 183.5v19h104v-17q0 -78 44 -116.5t143 -38.5q178 0 178 133q0 65 -35.5 93t-114.5 28h-110v86h110q142 0 142 120q0 119 -170 119q-84 0 -128 -40.5t-44 -110.5v-9h-105v11q0 109 72.5 172
t204.5 63t201 -53t69 -145q0 -127 -117 -164q129 -39 129 -176q0 -97 -74.5 -156t-207.5 -59zM1294 -14q-148 0 -219 49t-71 155q0 68 39 115t106 66q-121 36 -121 166q0 96 71.5 149t198.5 53q129 0 202 -53t73 -149q0 -63 -35 -104.5t-94 -59.5q68 -18 107.5 -64
t39.5 -119q0 -204 -297 -204zM817 645l-526 -686l-135 117l622 604zM1319 408q73 0 115.5 32t42.5 90q0 60 -46.5 93.5t-130.5 33.5q-83 0 -128.5 -34.5t-45.5 -94.5q0 -56 37.5 -88t108.5 -32h47zM1296 70q197 0 197 129q0 66 -42.5 99t-131.5 34h-47q-76 0 -122 -38
t-46 -95q0 -129 192 -129z" />
    <glyph glyph-name="uni215D" unicode="&#x215d;" horiz-adv-x="1722" 
d="M946 860l504 639l131 -104l-592 -570zM418 707q-144 0 -211.5 61.5t-67.5 169.5v6h107v-6q0 -68 42.5 -106.5t129.5 -38.5q93 0 143.5 46t50.5 132q0 85 -48.5 124.5t-131.5 39.5q-124 0 -186 -97l-6 -4l-84 23l47 393h459q0 -50 -21.5 -71t-75.5 -21h-282l-33 -228
q79 82 205 82q118 0 186 -60.5t68 -178.5q0 -127 -76.5 -196.5t-214.5 -69.5zM1294 -14q-148 0 -219 49t-71 155q0 68 39 115t106 66q-121 36 -121 166q0 96 71.5 149t198.5 53q129 0 202 -53t73 -149q0 -63 -35 -104.5t-94 -59.5q68 -18 107.5 -64t39.5 -119
q0 -204 -297 -204zM817 645l-526 -686l-135 117l622 604zM1319 408q73 0 115.5 32t42.5 90q0 60 -46.5 93.5t-130.5 33.5q-83 0 -128.5 -34.5t-45.5 -94.5q0 -56 37.5 -88t108.5 -32h47zM1296 70q197 0 197 129q0 66 -42.5 99t-131.5 34h-47q-76 0 -122 -38t-46 -95
q0 -129 192 -129z" />
    <glyph glyph-name="uni215E" unicode="&#x215e;" horiz-adv-x="1722" 
d="M946 860l504 639l131 -104l-592 -570zM354 721q20 99 80 240q97 213 242 397h-426v92h534v-80q-50 -63 -120 -180q-153 -254 -197 -469h-113zM1294 -14q-148 0 -219 49t-71 155q0 68 39 115t106 66q-121 36 -121 166q0 96 71.5 149t198.5 53q129 0 202 -53t73 -149
q0 -63 -35 -104.5t-94 -59.5q68 -18 107.5 -64t39.5 -119q0 -204 -297 -204zM817 645l-526 -686l-135 117l622 604zM1319 408q73 0 115.5 32t42.5 90q0 60 -46.5 93.5t-130.5 33.5q-83 0 -128.5 -34.5t-45.5 -94.5q0 -56 37.5 -88t108.5 -32h47zM1296 70q197 0 197 129
q0 66 -42.5 99t-131.5 34h-47q-76 0 -122 -38t-46 -95q0 -129 192 -129z" />
    <glyph glyph-name="uni215F" unicode="&#x215f;" horiz-adv-x="1722" 
d="M946 860l504 639l131 -104l-592 -570zM209 721v94h158v465q-53 -43 -125 -43v82q117 3 139 131h80v-635h151v-94h-403zM817 645l-526 -686l-135 117l622 604z" />
    <glyph glyph-name="arrowleft" unicode="&#x2190;" horiz-adv-x="1789" 
d="M305 686q53 -35 129 -111q165 -165 228 -325h-146q-40 98 -100 174q-68 93 -151.5 171t-162.5 122v61q75 42 162 123q86 78 151.5 168.5t94.5 175.5h143q-39 -101 -92 -174q-112 -162 -252 -262h1346v-123h-1350z" />
    <glyph glyph-name="arrowup" unicode="&#x2191;" horiz-adv-x="1789" 
d="M1384 905q-92 36 -174 92q-161 114 -262 256v-1253h-123v1251q-41 -62 -112 -127q-161 -154 -324 -221v146q79 32 176 98q205 153 291 309h62q54 -88 122 -162q78 -85 168.5 -150t175.5 -95v-144z" />
    <glyph glyph-name="arrowright" unicode="&#x2192;" horiz-adv-x="1789" 
d="M1116 250q39 100 94 174q116 163 263 264h-1352v123h1343q-79 63 -125 113q-143 143 -219 321h146q38 -93 98 -176q66 -92 148 -169t161 -122v-61q-83 -50 -164 -123q-188 -173 -249 -344h-144z" />
    <glyph glyph-name="arrowdown" unicode="&#x2193;" horiz-adv-x="1789" 
d="M854 -6q-52 85 -123 162q-78 85 -167.5 150t-174.5 95v144q87 -34 172 -92q174 -124 262 -254v1251h123v-1251q58 77 113 127q165 158 325 221v-146q-93 -38 -176 -98q-93 -67 -171 -148.5t-122 -160.5h-61z" />
    <glyph glyph-name="uni2196" unicode="&#x2196;" horiz-adv-x="1789" 
d="M1386 154l-954 952q13 -78 10 -170q0 -216 -71 -383l-103 102q33 73 56 193q37 245 -15 426l43 43q88 -24 201 -27q243 -9 418 68l100 -101q-83 -36 -186 -57q-194 -34 -365 -6l953 -952z" />
    <glyph glyph-name="uni2197" unicode="&#x2197;" horiz-adv-x="1789" 
d="M1384 555q-42 89 -57 186q-35 193 -6 369l-952 -956l-88 88l952 952q-78 -13 -170 -10q-216 3 -385 73l104 103q91 -41 193 -55q244 -37 426 12l43 -43q-26 -93 -29 -201q-10 -243 70 -416z" />
    <glyph glyph-name="uni2198" unicode="&#x2198;" horiz-adv-x="1789" 
d="M1401 182q-93 26 -201 29q-243 10 -416 -70l-102 101q89 42 186 57q193 35 369 6l-956 952l88 89l952 -953q-13 78 -10 170q3 222 73 385l103 -104q-41 -91 -55 -193q-36 -240 12 -426z" />
    <glyph glyph-name="uni2199" unicode="&#x2199;" horiz-adv-x="1789" 
d="M971 139q-94 43 -193 56q-238 39 -426 -13l-43 43q26 97 29 201q5 115 -13.5 226t-56.5 190l101 102q42 -89 57 -186q35 -192 6 -369l952 957l89 -89l-953 -952q78 13 170 10q214 0 385 -73z" />
    <glyph glyph-name="partialdiff" unicode="&#x2202;" horiz-adv-x="1417" 
d="M705 -31q-185 0 -316 70q-134 68 -204 194t-70 299v23q0 183 75 315q76 127 206 192.5t300 65.5q153 0 266 -62.5t179 -174.5q-62 182 -219.5 343t-442.5 351h201q322 -224 470 -463t148 -534v-8q0 -300 -151.5 -455.5t-441.5 -155.5zM709 88q224 0 343 121t119 354v6
q0 130 -57 226q-57 105 -161.5 163t-247.5 58q-130 0 -236 -53q-106 -52 -163.5 -155t-57.5 -253v-20q0 -207 122.5 -327t338.5 -120z" />
    <glyph glyph-name="uni2206" unicode="&#x2206;" horiz-adv-x="1738" 
d="M16 0l854 1477l852 -1477h-1706zM870 1235l-643 -1120h1289z" />
    <glyph glyph-name="product" unicode="&#x220f;" horiz-adv-x="1452" 
d="M967 1327h-488v-1327h-131v1327h-289v123h1336v-123h-299v-1327h-129v1327z" />
    <glyph glyph-name="summation" unicode="&#x2211;" horiz-adv-x="1122" 
d="M1040 0h-964v133l504 617l-484 575v125h916v-117h-764l495 -583l-520 -631h817v-119z" />
    <glyph glyph-name="minus" unicode="&#x2212;" horiz-adv-x="1200" 
d="M137 664v118h930v-118h-930z" />
    <glyph glyph-name="radical" unicode="&#x221a;" horiz-adv-x="1495" 
d="M594 0l-338 881h-190v120h280l320 -847l626 1298h142l-707 -1452h-133z" />
    <glyph glyph-name="infinity" unicode="&#x221e;" horiz-adv-x="1687" 
d="M434 453q-135 0 -219 82t-84 217q0 86 39 153q38 71 107.5 109.5t158.5 38.5q81 0 154 -37q105 -52 256 -191q32 30 119 101q152 127 290 127q137 0 218 -82t81 -217q0 -134 -83 -217.5t-216 -83.5q-83 0 -155 34q-28 14 -55.5 31t-57 39.5t-48 37t-50.5 41.5t-43 36
q-35 -31 -117 -97q-154 -122 -295 -122zM436 567q58 0 121 29q84 42 207 152l-98 86q-131 104 -230 104q-82 0 -134 -53.5t-52 -132.5t52 -132t134 -53zM1255 567q82 0 132.5 53t50.5 132q0 80 -50 133t-133 53q-65 0 -118 -31q-85 -44 -209 -159q12 -10 44 -37.5t52 -42.5
q124 -101 231 -101z" />
    <glyph glyph-name="integral" unicode="&#x222b;" horiz-adv-x="731" 
d="M-74 -264h90q106 0 162 20q54 20 75 83.5t21 195.5v1208q0 166 35 246q34 84 113 118.5t221 34.5h96v-108h-84q-103 0 -159 -23q-54 -20 -75.5 -83t-21.5 -195v-1208q0 -180 -30 -254q-30 -87 -108.5 -119.5t-235.5 -32.5h-99v117z" />
    <glyph glyph-name="approxequal" unicode="&#x2248;" horiz-adv-x="1220" 
d="M387 1069q69 0 158 -29q19 -7 61.5 -23.5t65.5 -24.5t56.5 -18.5t61 -15t52.5 -4.5q60 0 108 29t74 80v-137q-22 -35 -73.5 -61.5t-108.5 -26.5q-87 0 -166 28q-28 10 -78.5 29t-78.5 29t-66 19t-68 9q-57 0 -107 -28.5t-79 -79.5v135q21 37 73.5 63.5t114.5 26.5z
M199 510q21 37 73 63.5t111 26.5q71 0 160 -29q23 -8 79 -29t83 -30t67 -18t70 -9q115 0 182 103v-131q-23 -36 -71 -62t-111 -26q-85 0 -164 28q-23 8 -78 28.5t-81 29t-65.5 17.5t-70.5 9q-57 0 -108 -30t-76 -76v135z" />
    <glyph glyph-name="notequal" unicode="&#x2260;" horiz-adv-x="1220" 
d="M557 414l-70 -248h-92l70 248h-291v114h324l118 418h-442v115h475l64 221h92l-64 -221h308v-115h-340l-119 -418h459v-114h-492z" />
    <glyph glyph-name="equivalence" unicode="&#x2261;" horiz-adv-x="1220" 
d="M174 1014v114h875v-114h-875zM174 678v115h875v-115h-875zM174 346v115h875v-115h-875z" />
    <glyph glyph-name="lessequal" unicode="&#x2264;" horiz-adv-x="1220" 
d="M201 860v111l803 317v-129l-660 -246l660 -245v-133zM203 240v114h803v-114h-803z" />
    <glyph glyph-name="greaterequal" unicode="&#x2265;" horiz-adv-x="1220" 
d="M215 668l659 245l-659 246v129l803 -317v-111l-803 -325v133zM213 240v114h803v-114h-803z" />
    <glyph glyph-name="uni22A0" unicode="&#x22a0;" horiz-adv-x="1794" 
d="M176 1450h1442v-1450h-1442v1450zM305 123h1182v1206h-1182v-1206zM901 651l-340 -350l-78 80l340 350l-334 342l80 78l332 -340l328 338l78 -78l-330 -340l336 -344l-80 -78z" />
    <glyph glyph-name="house" unicode="&#x2302;" horiz-adv-x="1687" 
d="M180 0v825l664 637l663 -637v-825h-1327z" />
    <glyph glyph-name="filledbox" unicode="&#x25a0;" horiz-adv-x="1794" 
d="M176 1450h1442v-1450h-1442v1450z" />
    <glyph glyph-name="uni25A1" unicode="&#x25a1;" horiz-adv-x="1794" 
d="M176 0v1450h1442v-1450h-1442zM305 1329v-1206h1182v1206h-1182z" />
    <glyph glyph-name="uni25AA" unicode="&#x25aa;" horiz-adv-x="1513" 
d="M180 1153h1153v-1153h-1153v1153z" />
    <glyph glyph-name="uni25AB" unicode="&#x25ab;" horiz-adv-x="1513" 
d="M180 1153h1153v-1153h-1153v1153zM309 123h897v907h-897v-907z" />
    <glyph glyph-name="triagup" unicode="&#x25b2;" horiz-adv-x="1738" 
d="M16 0l854 1477l852 -1477h-1706z" />
    <glyph glyph-name="triagrt" unicode="&#x25ba;" horiz-adv-x="1738" 
d="M176 1591l1477 -852l-1477 -852v1704z" />
    <glyph glyph-name="triagdn" unicode="&#x25bc;" horiz-adv-x="1738" 
d="M1722 1452l-852 -1477l-854 1477h1706z" />
    <glyph glyph-name="triaglf" unicode="&#x25c4;" horiz-adv-x="1738" 
d="M1563 -113l-1477 852l1477 852v-1704z" />
    <glyph glyph-name="lozenge" unicode="&#x25ca;" horiz-adv-x="1617" 
d="M43 727l754 754l759 -758l-755 -754zM803 137l583 586l-589 588l-582 -584z" />
    <glyph glyph-name="circle" unicode="&#x25cb;" horiz-adv-x="1800" 
d="M899 -20q-219 0 -383 96q-169 96 -262.5 263t-93.5 382q0 319 209 534q215 209 530 209q161 0 297.5 -54.5t235.5 -156.5q208 -208 208 -532q0 -319 -208 -533q-214 -208 -533 -208zM899 104q173 0 313 82q139 80 219 221t80 314q0 178 -79 313q-81 143 -219.5 224
t-313.5 81q-170 0 -309 -79q-142 -85 -221.5 -223.5t-79.5 -315.5q0 -178 80 -315q79 -142 217 -222t313 -80z" />
    <glyph glyph-name="uni25CE" unicode="&#x25ce;" horiz-adv-x="1812" 
d="M905 -20q-223 0 -387 96q-170 96 -264 264.5t-94 386.5q0 328 209 537q213 213 536 213t537 -211q211 -211 211 -539q0 -325 -209 -537q-210 -210 -539 -210zM905 244q135 0 246 63q110 65 171.5 174.5t61.5 245.5q0 138 -61 248q-66 113 -174 177.5t-244 64.5
q-127 0 -243 -64q-109 -67 -171.5 -178t-62.5 -248q0 -139 64 -246q65 -112 172.5 -174.5t240.5 -62.5zM907 381q-106 0 -180 45q-79 45 -123.5 123.5t-44.5 175.5q0 105 47 178q44 80 123.5 125t177.5 45t178 -45q79 -45 124.5 -124t45.5 -179q0 -102 -45 -176
q-48 -80 -126 -124t-177 -44zM907 608q49 0 80 33.5t31 83.5q0 54 -30.5 86.5t-80.5 32.5t-80 -32.5t-30 -86.5q0 -50 30.5 -83.5t79.5 -33.5z" />
    <glyph glyph-name="uni25CF" unicode="&#x25cf;" horiz-adv-x="1800" 
d="M899 -20q-219 0 -383 96q-169 96 -262.5 263t-93.5 382q0 319 209 534q215 209 530 209q161 0 297.5 -54.5t235.5 -156.5q208 -208 208 -532q0 -319 -208 -533q-214 -208 -533 -208z" />
    <glyph glyph-name="uni25E2" unicode="&#x25e2;" horiz-adv-x="1738" 
d="M508 -145l-440 1646l1646 -440z" />
    <glyph glyph-name="uni25E3" unicode="&#x25e3;" horiz-adv-x="1738" 
d="M29 1061l1648 440l-442 -1646z" />
    <glyph glyph-name="uni25E4" unicode="&#x25e4;" horiz-adv-x="1738" 
d="M35 334l1206 1204l442 -1644z" />
    <glyph glyph-name="uni25E5" unicode="&#x25e5;" horiz-adv-x="1738" 
d="M66 -115l442 1647l1204 -1208z" />
    <glyph glyph-name="uni2605" unicode="&#x2605;" horiz-adv-x="1785" 
d="M1268 172l-381 277l-379 -277l147 446l-379 275l465 -2l148 444l145 -444l467 -2l-381 -273z" />
    <glyph glyph-name="sun" unicode="&#x263c;" horiz-adv-x="1843" 
d="M860 1444h111l-35 -289h-41zM508 1323l96 55l111 -268l-29 -20zM1227 1378l94 -55l-176 -233l-31 20zM262 1038l57 95l234 -177l-21 -30zM1507 1133l62 -93l-271 -114l-20 32zM561 723q0 95 47 178q50 84 130.5 131t176.5 47q101 0 177 -49q84 -47 131 -128t47 -179
q0 -100 -49 -176q-48 -81 -129.5 -128.5t-176.5 -47.5t-178 47q-81 51 -128.5 130.5t-47.5 174.5zM197 672v108l288 -35v-38zM1634 780v-108l-291 35v38zM324 319l-62 95l270 112l21 -30zM1569 416l-58 -97l-233 179l20 28zM604 74l-96 55l178 236l29 -21zM1321 129l-94 -55
l-113 270l31 21zM971 8h-111l35 289h41z" />
    <glyph glyph-name="uni263E" unicode="&#x263e;" horiz-adv-x="1556" 
d="M1065 1231q-136 0 -246 -70q-112 -68 -176.5 -185.5t-64.5 -256.5q0 -135 65 -256q67 -118 178 -186t244 -68q62 0 143 24q-163 -116 -362 -116q-248 0 -426 178q-84 84 -130 193t-46 231q0 249 176 428q179 176 426 176q198 0 362 -117q-84 25 -143 25z" />
    <glyph glyph-name="spade" unicode="&#x2660;" horiz-adv-x="1789" 
d="M961 578q0 -153 79 -340q28 -62 74 -150l45 -88h-516q3 5 28.5 55.5t43.5 85.5q116 238 116 437q-25 -74 -69 -132q-97 -139 -268 -139q-89 0 -170 43q-79 43 -125.5 115.5t-46.5 157.5q0 113 49 211q47 92 146 191t276 241l278 221h2l279 -221q172 -136 264 -234
q101 -103 145.5 -198.5t44.5 -210.5q0 -90 -43 -158q-44 -73 -114.5 -114.5t-157.5 -41.5q-100 0 -168 39q-129 69 -192 230z" />
    <glyph glyph-name="club" unicode="&#x2663;" horiz-adv-x="1789" 
d="M1294 260q-112 0 -197 65.5t-128 172.5q12 -103 51 -201q14 -37 29.5 -73.5t33 -72.5t28.5 -57t29 -55t21 -39h-516q1 1 25 47t39 76q100 199 120 377q-43 -107 -131.5 -173.5t-201.5 -66.5q-97 0 -179 49q-81 48 -128.5 129t-47.5 178q0 96 47 179q50 81 131.5 127.5
t176.5 46.5q26 0 84 -13q-41 90 -41 172q0 100 47 177q48 80 128.5 126t176.5 46q103 0 176 -47q80 -45 127 -125t47 -177q0 -88 -37 -176q46 17 92 17q100 0 177 -47q81 -48 127.5 -128.5t46.5 -177.5q0 -93 -48 -178q-48 -84 -127.5 -131t-177.5 -47z" />
    <glyph glyph-name="heart" unicode="&#x2665;" horiz-adv-x="1789" 
d="M608 279q-137 152 -266 325q-99 145 -143.5 263t-44.5 235q0 103 49 188q51 87 133.5 137t183.5 50q96 0 180 -41q79 -43 129 -115.5t60 -163.5q18 141 117 230.5t249 89.5q104 0 189 -52q88 -52 139 -137t51 -186q0 -122 -47 -236q-47 -118 -147 -258t-271 -329
l-280 -314z" />
    <glyph glyph-name="diamond" unicode="&#x2666;" horiz-adv-x="1789" 
d="M895 1493l651 -754l-651 -759l-653 759z" />
    <glyph glyph-name="uni267B" unicode="&#x267b;" horiz-adv-x="1642" 
d="M690 1384h334q27 -1 37 -1.5t31.5 -4.5t33 -12t27 -23t27.5 -38l49 -84l76 43l-109 -289l-295 55l70 41l-125 215q-22 42 -64 66q-22 12 -45 19.5t-35 8.5l-12 2v2zM455 1278q19 33 57 53q54 28 111 25q59 -4 106.5 -28.5t65.5 -57.5l-199 -346l-258 149zM1501 748
q17 -30 17 -74q0 -62 -33 -109q-31 -48 -77.5 -77t-84.5 -29l-199 344l256 147zM311 254l-166 289q-19 33 -26.5 54t-4.5 53t23 69l49 84l-73 43l303 53l100 -287l-70 43l-61 -104q-59 -98 -63 -111q-25 -48 -25 -86q0 -25 4.5 -50t8.5 -38l5 -12h-4zM1483 500l-168 -291
q-17 -26 -25.5 -37.5t-27 -28.5t-42 -23.5t-55.5 -6.5h-98v-84l-195 233l195 236v-86h248q49 0 88 22q22 14 41.5 31t27.5 27l9 10zM530 113q-38 0 -75 22q-57 37 -78 84q-26 53 -28.5 108t16.5 85h397v-299h-232z" />
    <glyph glyph-name="uni267C" unicode="&#x267c;" horiz-adv-x="1642" 
d="M1509 719q0 -140 -52 -265t-148 -218q-96 -96 -221 -148.5t-265 -52.5q-285 0 -489 201q-96 93 -149.5 218.5t-53.5 264.5q0 285 203 491q204 201 489 201q140 0 265 -52.5t221 -148.5q200 -203 200 -491zM707 1243l22 -4q72 -18 100 -72l99 -166l-56 -32l230 -43l82 223
l-58 -31l-36 64q-24 40 -51 51.5t-72 11.5h-260v-2zM444 1004l201 -117l152 268q-11 22 -52 45q-92 47 -167 2q-32 -18 -43 -43zM1253 907l-200 -116l155 -269q26 0 64 23q86 60 86 149q0 28 -17 58zM426 369q-4 6 -6 22q-23 63 10 121l96 168l56 -35l-80 221l-232 -39
l58 -34l-39 -66q-17 -28 -18.5 -53t3.5 -38.5t21 -45.5l129 -221h2zM1327 557l-14 -16q-16 -20 -45.5 -34.5t-67.5 -14.5h-190v61l-154 -178l154 -182v67h75q34 0 57 11.5t32 23t26 39.5l129 221zM766 260v232h-309q-16 -26 -13 -68q2 -43 23.5 -83.5t58.5 -64.5
q37 -16 60 -16h180z" />
    <glyph glyph-name="uni267D" unicode="&#x267d;" horiz-adv-x="1642" 
d="M1509 719q0 -140 -52 -265t-148 -218q-96 -96 -221 -148.5t-265 -52.5q-285 0 -489 201q-96 93 -149.5 218.5t-53.5 264.5q0 285 203 491q204 201 489 201q140 0 265 -52.5t221 -148.5q200 -203 200 -491zM1475 719q0 276 -191 467q-190 190 -461 190q-134 0 -254 -49.5
t-211 -140.5q-192 -192 -192 -467q0 -269 192 -461q91 -91 211 -140.5t254 -49.5q271 0 461 190q191 191 191 461zM707 1245h260q45 0 72 -11.5t51 -51.5l36 -64l58 31l-82 -223l-230 43l56 32l-99 166q-21 34 -49 50q-17 10 -35.5 16.5t-28.5 8.5l-9 1v2zM535 1159
q11 25 43 43q40 24 86 21q45 -5 83 -23.5t50 -44.5l-152 -268l-201 117zM1341 752q17 -30 17 -58q0 -47 -25 -86q-26 -38 -61 -62t-64 -24l-155 269l200 116zM424 369l-129 221q-16 32 -21 45.5t-3.5 38.5t18.5 53l39 66l-58 34l232 39l80 -221l-56 35l-96 -168
q-18 -30 -18 -68q0 -19 3.5 -38t6.5 -28l4 -9h-2zM1329 555l-129 -221q-17 -28 -26 -39.5t-32 -23t-57 -11.5h-75v-67l-154 182l154 178v-61h190q41 0 70 16q17 10 31.5 22.5t20.5 19.5l5 7zM586 260q-23 0 -60 16q-36 21 -59 66q-20 40 -22 83.5t12 66.5h309v-232h-180z
" />
    <glyph glyph-name="uni26AC" unicode="&#x26ac;" horiz-adv-x="1511" 
d="M756 -20q-171 0 -307 77q-137 80 -214 216.5t-77 304.5q0 176 80 307q80 137 215.5 214t302.5 77t305 -78q138 -80 216.5 -214.5t78.5 -305.5q0 -177 -80 -308q-79 -136 -215 -213t-305 -77zM756 98q134 0 241 64q108 62 169 170.5t61 245.5q0 135 -62 247
q-62 110 -168.5 171t-240.5 61q-137 0 -244 -64q-106 -65 -165.5 -173.5t-59.5 -241.5q0 -132 59 -244q63 -111 169 -173.5t241 -62.5z" />
    <glyph glyph-name="uni2E18" unicode="&#x2e18;" horiz-adv-x="1419" 
d="M721 1038q60 0 86.5 -25.5t26.5 -88.5q0 -60 -27 -86.5t-86 -26.5q-56 0 -83.5 27t-27.5 86q0 114 111 114zM700 -453q-172 0 -290 56q-111 57 -166.5 147.5t-55.5 202.5q0 192 125 285q32 25 71.5 48t87.5 46.5t73 38.5q62 34 94.5 79.5t32.5 116.5l2 121q8 -2 51 -2
q39 0 45 2q4 -36 4 -129q8 -191 8 -633v-264q167 18 243.5 110t76.5 259v26h131v-32q0 -231 -132.5 -354.5t-400.5 -123.5zM319 -41q0 -126 84 -208.5t261 -92.5v268q0 78 1.5 154t3.5 151t3 111q-26 -28 -62.5 -52t-85.5 -50t-73 -41q-64 -39 -98 -94.5t-34 -145.5z" />
    <glyph glyph-name="uni3008" unicode="&#x3008;" horiz-adv-x="845" 
d="M610 -408l-473 971l471 977h142l-469 -973l475 -975h-146z" />
    <glyph glyph-name="uni3009" unicode="&#x3009;" horiz-adv-x="845" 
d="M88 -408l477 975l-469 973h142l471 -977l-473 -971h-148z" />
    <glyph glyph-name="I.alt" horiz-adv-x="524" 
d="M197 0v1450h131v-1450h-131z" />
    <glyph glyph-name="Iacute.alt" horiz-adv-x="524" 
d="M485 2028h148l-316 -392h-114zM197 0v1450h131v-1450h-131z" />
    <glyph glyph-name="Ibreve.alt" horiz-adv-x="524" 
d="M260 1624q-128 0 -205 47q-137 89 -147 307h104q7 -117 66.5 -187t183.5 -71q117 1 182.5 73t71.5 185h105q-3 -89 -43 -178q-40 -83 -120 -129.5t-198 -46.5zM197 0v1450h131v-1450h-131z" />
    <glyph glyph-name="Icircumflex.alt" horiz-adv-x="524" 
d="M262 1884l-190 -252h-127l264 342h106l265 -342h-127zM197 0v1450h131v-1450h-131z" />
    <glyph glyph-name="Idieresis.alt" horiz-adv-x="524" 
d="M82 1630q-53 0 -77.5 23t-24.5 80q0 104 102 104q53 0 77.5 -25t24.5 -79t-25.5 -78.5t-76.5 -24.5zM440 1630q-53 0 -77.5 23t-24.5 80q0 104 104 104q52 0 76.5 -25t24.5 -79q0 -103 -103 -103zM197 0v1450h131v-1450h-131z" />
    <glyph glyph-name="Idotaccent.alt" horiz-adv-x="524" 
d="M260 1630q-59 0 -86 26t-27 87q0 115 113 115q111 0 111 -117q0 -111 -111 -111zM197 0v1450h131v-1450h-131z" />
    <glyph glyph-name="Igrave.alt" horiz-adv-x="524" 
d="M-76 1976h154l256 -344h-117zM197 0v1450h131v-1450h-131z" />
    <glyph glyph-name="Imacron.alt" horiz-adv-x="524" 
d="M-25 1767h586v-106h-586v106zM197 0v1450h131v-1450h-131z" />
    <glyph glyph-name="Iogonek.alt" horiz-adv-x="524" 
d="M547 -244q-84 -207 -318 -207q-123 0 -191.5 54t-68.5 151q0 151 228 273v1423h131v-1450q-143 -77 -195.5 -128t-52.5 -110q0 -55 42.5 -87.5t113.5 -32.5q134 0 186 114h125z" />
    <glyph glyph-name="Itilde.alt" horiz-adv-x="524" 
d="M-121 1636q0 111 50 172.5t151 61.5q85 0 196 -68q109 -67 162 -67q55 0 80.5 30.5t26.5 100.5h94q0 -234 -203 -234q-81 0 -192 68q-105 67 -164 67q-55 0 -80 -32t-27 -99h-94zM197 0v1450h131v-1450h-131z" />
    <glyph glyph-name="g.alt" horiz-adv-x="1255" 
d="M596 -541q-271 0 -393.5 74t-122.5 219q0 214 262 281q-207 33 -207 196q0 83 67 142.5t195 79.5q-262 64 -262 333v4q0 154 97.5 258t295.5 132q81 11 150 14q115 8 186 25q60 17 82.5 49t22.5 92v31h137v-27q0 -62 -23 -113q-26 -44 -91 -68t-189 -30h2
q103 -11 176 -66q70 -52 105.5 -127t35.5 -157v-8q0 -182 -133.5 -288t-367.5 -106h-62q-168 0 -237.5 -36t-69.5 -105q0 -124 219 -121h315q424 0 424 -305q0 -107 -59 -186q-127 -187 -530 -187h-25zM621 500q179 0 275.5 79t96.5 216v2q0 112 -51 178q-91 119 -295 119
q-67 0 -88 -4q-143 -17 -220 -95.5t-75 -201.5v-2q0 -139 92.5 -215t264.5 -76zM623 -428q171 0 274 35q193 66 193 219q0 203 -310 203h-178q-196 -1 -294.5 -64t-98.5 -180v-2q0 -100 93 -155.5t286 -55.5h35z" />
    <glyph glyph-name="gbreve.alt" horiz-adv-x="1431" 
d="M692 1366q-128 0 -205 47q-137 89 -147 307h104q7 -117 66.5 -187t183.5 -71q117 1 182.5 73t71.5 185h105q-3 -89 -43 -178q-40 -83 -120 -129.5t-198 -46.5zM700 -489q-238 0 -373.5 88.5t-170.5 269.5h137q30 -124 128.5 -187t280.5 -63q152 0 244 51q178 96 178 320
v303q-54 -145 -175.5 -232.5t-297.5 -87.5q-159 0 -278 70q-123 69 -190.5 202.5t-67.5 319.5v23q0 177 67 323q68 136 193.5 210.5t294.5 74.5q171 0 287 -85t169 -232l17 284h106v-1161q0 -136 -55 -252q-127 -239 -494 -239zM680 88q138 0 242 66q100 64 154 173t54 244
v11q0 139 -51 260q-55 116 -152.5 178.5t-230.5 62.5q-215 0 -331.5 -132.5t-116.5 -364.5v-17q0 -224 117.5 -352.5t314.5 -128.5z" />
    <glyph glyph-name="gcircumflex.alt" horiz-adv-x="1431" 
d="M694 1626l-190 -252h-127l264 342h107l264 -342h-127zM700 -489q-238 0 -373.5 88.5t-170.5 269.5h137q30 -124 128.5 -187t280.5 -63q152 0 244 51q178 96 178 320v303q-54 -145 -175.5 -232.5t-297.5 -87.5q-159 0 -278 70q-123 69 -190.5 202.5t-67.5 319.5v23
q0 177 67 323q68 136 193.5 210.5t294.5 74.5q171 0 287 -85t169 -232l17 284h106v-1161q0 -136 -55 -252q-127 -239 -494 -239zM680 88q138 0 242 66q100 64 154 173t54 244v11q0 139 -51 260q-55 116 -152.5 178.5t-230.5 62.5q-215 0 -331.5 -132.5t-116.5 -364.5v-17
q0 -224 117.5 -352.5t314.5 -128.5z" />
    <glyph glyph-name="gcommaaccent.alt" horiz-adv-x="1431" 
d="M688 1370q-56 0 -82 35t-26 111q0 99 54.5 175.5t151.5 108.5l19 -71q-116 -46 -131 -173q12 7 31 7q44 0 65 -19.5t21 -70.5q0 -103 -103 -103zM700 -489q-238 0 -373.5 88.5t-170.5 269.5h137q30 -124 128.5 -187t280.5 -63q152 0 244 51q178 96 178 320v303
q-54 -145 -175.5 -232.5t-297.5 -87.5q-159 0 -278 70q-123 69 -190.5 202.5t-67.5 319.5v23q0 177 67 323q68 136 193.5 210.5t294.5 74.5q171 0 287 -85t169 -232l17 284h106v-1161q0 -136 -55 -252q-127 -239 -494 -239zM680 88q138 0 242 66q100 64 154 173t54 244v11
q0 139 -51 260q-55 116 -152.5 178.5t-230.5 62.5q-215 0 -331.5 -132.5t-116.5 -364.5v-17q0 -224 117.5 -352.5t314.5 -128.5z" />
    <glyph glyph-name="gdotaccent.alt" horiz-adv-x="1431" 
d="M694 1372q-59 0 -85.5 26t-26.5 87q0 114 112 114q111 0 111 -116q0 -111 -111 -111zM700 -489q-238 0 -373.5 88.5t-170.5 269.5h137q30 -124 128.5 -187t280.5 -63q152 0 244 51q178 96 178 320v303q-54 -145 -175.5 -232.5t-297.5 -87.5q-159 0 -278 70
q-123 69 -190.5 202.5t-67.5 319.5v23q0 177 67 323q68 136 193.5 210.5t294.5 74.5q171 0 287 -85t169 -232l17 284h106v-1161q0 -136 -55 -252q-127 -239 -494 -239zM680 88q138 0 242 66q100 64 154 173t54 244v11q0 139 -51 260q-55 116 -152.5 178.5t-230.5 62.5
q-215 0 -331.5 -132.5t-116.5 -364.5v-17q0 -224 117.5 -352.5t314.5 -128.5z" />
    <glyph glyph-name="g.alt2" horiz-adv-x="1431" 
d="M700 -489q-238 0 -373.5 88.5t-170.5 269.5h137q30 -124 128.5 -187t280.5 -63q152 0 244 51q178 96 178 320v303q-54 -145 -175.5 -232.5t-297.5 -87.5q-159 0 -278 70q-123 69 -190.5 202.5t-67.5 319.5v23q0 177 67 323q68 136 193.5 210.5t294.5 74.5q171 0 287 -85
t169 -232l17 284h106v-1161q0 -136 -55 -252q-127 -239 -494 -239zM680 88q138 0 242 66q100 64 154 173t54 244v11q0 139 -51 260q-55 116 -152.5 178.5t-230.5 62.5q-215 0 -331.5 -132.5t-116.5 -364.5v-17q0 -224 117.5 -352.5t314.5 -128.5z" />
    <glyph glyph-name="i.dot" horiz-adv-x="497" 
d="M250 1335q-53 0 -78 24t-25 81q0 106 105 106q52 0 77 -26t25 -82q0 -103 -104 -103zM184 0v1163h129v-1163h-129z" />
    <glyph glyph-name="zero.inf" horiz-adv-x="772" 
d="M385 -362q-295 0 -295 352v41q0 173 75.5 267.5t219.5 94.5q141 0 220 -94t79 -266v-41q0 -172 -78.5 -263t-220.5 -91zM385 -266q92 0 143.5 67.5t51.5 190.5v39q0 127 -49.5 196.5t-145.5 69.5q-190 0 -190 -266v-41q0 -256 190 -256z" />
    <glyph glyph-name="one.inf" horiz-adv-x="512" 
d="M59 -348v94h158v465q-53 -43 -125 -43v82q117 3 139 131h80v-635h152v-94h-404z" />
    <glyph glyph-name="two.inf" horiz-adv-x="706" 
d="M76 -348v47q0 126 117 207q41 29 125 73t94 50q57 32 86.5 67.5t29.5 83.5q0 64 -38 95.5t-125 31.5q-172 0 -172 -170v-26h-103v28q0 122 72 187t205 65q131 0 197.5 -55.5t66.5 -153.5q0 -72 -39 -123q-37 -45 -90 -79t-133 -74q-73 -35 -118 -72.5t-61 -89.5h447v-92
h-561z" />
    <glyph glyph-name="three.inf" horiz-adv-x="729" 
d="M367 -362q-152 0 -221.5 57.5t-69.5 183.5v19h104v-17q0 -78 44 -116.5t143 -38.5q178 0 178 133q0 65 -35.5 93t-114.5 28h-110v86h110q142 0 142 120q0 119 -170 119q-84 0 -128 -40.5t-44 -110.5v-9h-105v11q0 109 72.5 172t204.5 63t201 -53t69 -145
q0 -127 -117 -164q129 -39 129 -176q0 -97 -74.5 -156t-207.5 -59z" />
    <glyph glyph-name="four.inf" horiz-adv-x="712" 
d="M541 -176v-172h-88v172h-408v74l408 483h88v-475h123v-82h-123zM453 248l-289 -342h289v342z" />
    <glyph glyph-name="five.inf" horiz-adv-x="741" 
d="M373 -362q-144 0 -211.5 61.5t-67.5 169.5v6h107v-6q0 -68 42.5 -106.5t129.5 -38.5q93 0 143.5 46t50.5 132q0 85 -48.5 124.5t-131.5 39.5q-124 0 -186 -97l-6 -4l-84 23l47 393h458q0 -50 -21.5 -71t-74.5 -21h-282l-33 -228q79 82 205 82q118 0 186 -60.5t68 -178.5
q0 -127 -76.5 -196.5t-214.5 -69.5z" />
    <glyph glyph-name="six.inf" horiz-adv-x="761" 
d="M674 -119q0 -106 -76 -174.5t-205 -68.5q-155 0 -229 87.5t-74 264.5v41q0 174 76 268t227 94q115 0 181.5 -48t78.5 -138h-108q-21 97 -150 100q-211 0 -211 -278v-60q61 137 228 137q123 0 192.5 -55t69.5 -170zM393 -276q92 0 138.5 43t46.5 114q0 75 -47.5 110.5
t-131.5 35.5q-86 0 -139.5 -36.5t-64.5 -101.5q18 -81 65 -123t133 -42z" />
    <glyph glyph-name="seven.inf" horiz-adv-x="630" 
d="M156 -348q19 97 80 239q100 219 241 398h-426v92h535v-80q-54 -68 -121 -180q-153 -254 -197 -469h-112z" />
    <glyph glyph-name="eight.inf" horiz-adv-x="743" 
d="M369 -362q-148 0 -219.5 49t-71.5 155q0 68 39 115t106 66q-121 36 -121 165q0 96 72 149.5t199 53.5q128 0 201 -53.5t73 -149.5q0 -63 -35 -104t-94 -59q68 -18 108 -64t40 -119q0 -204 -297 -204zM393 59q73 0 115.5 32.5t42.5 90.5q0 60 -46 93.5t-130 33.5
q-83 0 -128.5 -34.5t-45.5 -94.5q0 -57 37 -89t108 -32h47zM371 -279q196 0 196 129q0 131 -174 134h-47q-76 0 -122 -38.5t-46 -95.5q0 -129 193 -129z" />
    <glyph glyph-name="nine.inf" horiz-adv-x="749" 
d="M362 -365q-243 0 -270 201h107q24 -112 161 -115q106 0 158.5 71.5t52.5 207.5v61q-27 -67 -85 -103t-142 -36q-123 0 -192.5 55t-69.5 170q0 107 73.5 175.5t204.5 68.5q155 0 230.5 -87.5t75.5 -264.5v-41q0 -175 -75.5 -269t-228.5 -94zM356 2q90 0 142.5 38.5
t60.5 106.5q-36 158 -197 158q-91 0 -137.5 -43.5t-46.5 -114.5q0 -74 47.5 -109.5t130.5 -35.5z" />
    <glyph glyph-name="underscore" horiz-adv-x="1275" 
d="M1190 0h-1102v129h1102v-129z" />
    <glyph glyph-name="backslash.cap" horiz-adv-x="679" 
d="M193 1450l430 -1450h-140l-430 1450h140z" />
    <glyph glyph-name="periodcentered.cap" horiz-adv-x="604" 
d="M303 600q-60 0 -87.5 27t-27.5 90q0 119 115 119t115 -121q0 -115 -115 -115z" />
    <glyph glyph-name="bullet.cap" horiz-adv-x="649" 
d="M324 453q-140 0 -140 139t140 139q70 0 104.5 -32t34.5 -107q0 -139 -139 -139z" />
    <glyph glyph-name="uni2016.cap" horiz-adv-x="1034" 
d="M205 -266v1874h131v-1874h-131zM698 -266v1874h129v-1874h-129z" />
    <glyph glyph-name="exclamdown.cap" horiz-adv-x="659" 
d="M322 1485q60 0 86 -26.5t26 -88.5q0 -59 -27 -87t-85 -28q-111 0 -111 115t111 115zM252 0v371q0 128 4 340q6 152 20 401q20 -4 46 -4q25 0 45 4q6 -51 8 -135q16 -290 16 -606v-371h-139z" />
    <glyph glyph-name="uni2E18.cap" horiz-adv-x="1419" 
d="M721 1470q60 0 86.5 -25.5t26.5 -88.5q0 -59 -27.5 -87t-85.5 -28q-111 0 -111 115q0 114 111 114zM700 -20q-174 0 -290 55q-111 57 -166.5 147t-55.5 201q0 192 125 285q32 26 70.5 48t89.5 47.5t72 37.5q127 70 127 196l2 123q16 -4 51 -4q33 0 45 4q4 -32 4 -121
q8 -191 8 -641v-264q166 17 243 109.5t77 259.5v26h131v-32q0 -231 -132 -354t-401 -123zM319 391q0 -126 84 -208.5t261 -92.5v266q0 79 1.5 155.5t3.5 151.5t3 111q-26 -28 -62.5 -52t-85.5 -50t-73 -41q-64 -39 -98 -94.5t-34 -145.5z" />
    <glyph glyph-name="questiondown.cap" horiz-adv-x="1419" 
d="M778 1470q60 0 86.5 -25.5t26.5 -88.5q0 -59 -27.5 -86t-83.5 -27q-59 0 -85.5 26.5t-26.5 86.5q0 114 110 114zM723 1124q24 -8 63 -8q42 0 66 8v-147q0 -90 -37 -148q-22 -35 -59.5 -65.5t-66.5 -46.5t-83 -43q-42 -20 -110 -64q-59 -38 -90 -89.5t-31 -129.5
q0 -83 37 -147q82 -150 338 -150q206 0 302.5 93.5t96.5 275.5v26h133v-32q0 -231 -132 -354t-400 -123q-175 0 -291 55q-111 57 -166 147.5t-55 202.5q0 115 38 180q24 44 64.5 81t74 57t87.5 47q23 11 61.5 33.5t44.5 25.5q113 70 113 188z" />
    <glyph glyph-name="slash.cap" horiz-adv-x="679" 
d="M57 0l428 1450h142l-428 -1450h-142z" />
    <glyph glyph-name="uni3008.cap" horiz-adv-x="845" 
d="M614 -270l-473 972l471 975h133l-469 -972l478 -975h-140z" />
    <glyph glyph-name="uni3009.cap" horiz-adv-x="845" 
d="M92 -270l475 975l-469 972h135l469 -975l-471 -972h-139z" />
    <glyph glyph-name="braceleft.cap" horiz-adv-x="854" 
d="M551 -268q-131 0 -195 37q-116 63 -116 231q0 73 61 262q61 181 61 248q0 78 -47 121t-125 43h-127v119h125q78 0 120 40.5t42 112.5q0 63 -49 223q-49 172 -49 236q0 71 24 133q55 137 287 137h180v-110h-133q-128 0 -177.5 -49.5t-49.5 -137.5q0 -52 49 -213
q49 -156 49 -233q0 -167 -145 -199q75 -19 114 -77t39 -134q0 -79 -57 -256q-59 -172 -59 -237q0 -89 50 -138t179 -49h141v-110h-192z" />
    <glyph glyph-name="braceright.cap" horiz-adv-x="854" 
d="M109 -268v110h143q128 0 177.5 49t49.5 138q0 60 -57 237t-57 256q0 76 38.5 134t112.5 77q-143 32 -143 199q0 64 49 233q49 149 49 213q0 46 -18 95q-40 92 -211 92h-133v110h182q130 0 194 -37q117 -66 117 -233q0 -76 -49 -236q-49 -172 -49 -223q0 -73 41.5 -113
t120.5 -40h125v-119h-129q-78 0 -124 -43t-46 -121q0 -67 61 -248q61 -189 61 -262q0 -72 -24 -133q-54 -135 -289 -135h-192z" />
    <glyph glyph-name="bracketleft.cap" horiz-adv-x="835" 
d="M727 -268h-504v1943h504v-112h-375v-1719h375v-112z" />
    <glyph glyph-name="bracketright.cap" horiz-adv-x="835" 
d="M111 -268v112h372v1717h-372v112h503v-1941h-503z" />
    <glyph glyph-name="parenleft.cap" horiz-adv-x="886" 
d="M778 -270q-175 21 -307 127q-291 234 -291 829v29q0 301 80 516q161 396 518 446v-123q-127 -21 -233 -116q-230 -210 -230 -725v-23q0 -272 64 -452q60 -174 163 -269.5t236 -115.5v-123z" />
    <glyph glyph-name="parenright.cap" horiz-adv-x="886" 
d="M109 -147q121 14 233 112q229 209 229 725v23q0 272 -61 452q-60 174 -163.5 270t-237.5 117v125q164 -23 301 -133q297 -237 297 -829v-29q0 -306 -78 -516q-77 -202 -209.5 -311.5t-310.5 -128.5v123z" />
    <glyph glyph-name="parenleft.inf" horiz-adv-x="532" 
d="M123 29q0 238 103 374t278 150v-96q-136 -12 -210.5 -120t-74.5 -314v-50q0 -203 76 -309t209 -117v-98q-175 11 -278 141t-103 371v68z" />
    <glyph glyph-name="parenright.inf" horiz-adv-x="532" 
d="M29 -453q133 11 208.5 116.5t75.5 309.5v50q0 206 -73.5 314t-210.5 120v96q175 -14 278 -150t103 -374v-68q0 -241 -103 -371t-278 -141v98z" />
    <glyph glyph-name="emdash.cap" horiz-adv-x="1325" 
d="M1174 655h-1024v129h1024v-129z" />
    <glyph glyph-name="endash.cap" horiz-adv-x="956" 
d="M805 655h-655v129h655v-129z" />
    <glyph glyph-name="figuredash.cap" horiz-adv-x="1529" 
d="M1378 655h-1228v129h1228v-129z" />
    <glyph glyph-name="uni2015.cap" horiz-adv-x="1427" 
d="M1276 655h-1126v129h1126v-129z" />
    <glyph glyph-name="hyphen.cap" horiz-adv-x="1200" 
d="M1053 655h-903v129h903v-129z" />
    <glyph glyph-name="guillemotleft.cap" horiz-adv-x="1308" 
d="M535 281l-373 426v24l360 438h133l-368 -444l389 -444h-141zM1034 281l-383 428v26l361 434h133l-367 -440l396 -448h-140z" />
    <glyph glyph-name="guillemotright.cap" horiz-adv-x="1308" 
d="M141 281l398 448l-367 440h133l361 -434v-26l-383 -428h-142zM641 281l389 444l-368 444h131l362 -438v-24l-373 -426h-141z" />
    <glyph glyph-name="guilsinglleft.cap" horiz-adv-x="821" 
d="M535 281l-373 421v27l360 440h135l-368 -448l387 -440h-141z" />
    <glyph glyph-name="guilsinglright.cap" horiz-adv-x="821" 
d="M145 281l387 440l-368 448h135l360 -440v-27l-372 -421h-142z" />
    <glyph glyph-name="periodcentered.smcp" horiz-adv-x="2144" 
d="M1993 655h-1843v129h1843v-129z" />
    <glyph glyph-name="space_dotbelowcomb" horiz-adv-x="1067" 
d="M512 -428q-59 0 -86 26t-27 87q0 116 113 116q111 0 111 -116q0 -113 -111 -113z" />
    <glyph glyph-name="uni00200326" horiz-adv-x="1067" 
d="M397 -514q111 46 131 172q-10 -6 -30 -6q-45 0 -65.5 19.5t-20.5 72.5q0 102 102 102q55 0 81 -34.5t26 -110.5q0 -100 -54 -176.5t-153 -108.5z" />
    <glyph glyph-name="uni00200326.alt" horiz-adv-x="1062" 
d="M522 1339q-56 0 -82 35t-26 111q0 99 55 175.5t152 108.5l18 -71q-116 -46 -131 -172q10 6 31 6q44 0 65 -19.5t21 -70.5q0 -103 -103 -103z" />
    <glyph glyph-name="plus.inf" horiz-adv-x="722" 
d="M397 -39v-221h-84v221h-217v86h217v209h84v-209h224v-86h-224z" />
    <glyph glyph-name="minus.inf" horiz-adv-x="722" 
d="M96 -41v90h525v-90h-525z" />
    <glyph glyph-name="equal.inf" horiz-adv-x="722" 
d="M111 94v86h495v-86h-495zM111 -176v88h495v-88h-495z" />
    <glyph glyph-name="at.cap" horiz-adv-x="1779" 
d="M897 -123q-206 0 -383 80q-371 170 -371 711v67q0 257 99 441q98 185 271 282.5t398 95.5q356 -3 549 -225q176 -203 176 -520v-23q0 -231 -78 -354t-215 -123q-86 0 -144.5 41.5t-78.5 118.5q-69 -174 -264 -174q-158 0 -235.5 102.5t-77.5 284.5v68q0 180 86.5 287.5
t242.5 107.5q98 0 161 -48t91 -130l19 168h69v-566q0 -81 36 -121t98 -40q182 0 182 376v19q0 175 -62 323q-135 320 -555 320q-194 0 -344 -84q-153 -86 -234 -246t-81 -387v-55q0 -243 82 -395q160 -293 565 -293q139 0 255.5 51.5t188.5 142.5l113 -47
q-89 -119 -239 -187.5t-320 -68.5zM872 395q115 0 175.5 69.5t60.5 194.5v113q0 275 -219 275q-113 0 -175.5 -80t-62.5 -219v-64q0 -134 55.5 -211.5t165.5 -77.5z" />
    <glyph glyph-name="registered.cap" horiz-adv-x="1722" 
d="M864 -29q-206 0 -383 80q-360 178 -360 645v33q0 223 96 395q97 167 264 258t379 91q317 0 524 -195q218 -205 218 -545v-37q0 -233 -99 -399q-97 -160 -263 -243t-376 -83zM864 70q185 0 330 71q148 75 227.5 217t79.5 344v23q0 207 -84 348q-85 146 -228 223.5
t-329 77.5q-190 0 -330 -80q-148 -81 -228.5 -226.5t-80.5 -344.5v-21q0 -204 82 -344q83 -141 226 -214.5t335 -73.5zM676 641v-305h-96v774h325q283 0 283 -223q0 -159 -139 -199q65 -17 91.5 -60t26.5 -130v-125q0 -23 17 -37h-105q-12 9 -12 39v121q0 90 -34 117.5
t-138 27.5h-219zM899 727q98 -2 144.5 36t46.5 122q0 73 -43 106t-144 33h-227v-297h223z" />
    <glyph glyph-name="bar.cap" horiz-adv-x="540" 
d="M205 -266v1874h131v-1874h-131z" />
    <glyph glyph-name="brokenbar.cap" horiz-adv-x="540" 
d="M205 1608h131v-791h-131v791zM336 -266h-131v848h131v-848z" />
    <glyph glyph-name="Aumlaut" 
d="M272 1270q-53 0 -77.5 23.5t-24.5 80.5q0 105 104 105q101 0 101 -107q0 -102 -103 -102zM1090 1270q-53 0 -78 23.5t-25 80.5q0 105 105 105q98 0 98 -107q0 -102 -100 -102zM1026 430h-670l-161 -430h-136l559 1450h132l581 -1450h-135zM684 1294l-283 -749h580z" />
    <glyph glyph-name="Oumlaut" horiz-adv-x="1509" 
d="M188 1348q-73 0 -73 75q0 74 75 74q74 0 74 -76q0 -73 -76 -73zM1319 1348q-76 0 -76 75q0 74 76 74q74 0 74 -76q0 -73 -74 -73zM752 -29q-299 0 -460 178t-161 525v82q0 343 165 530t458 187q185 0 325 -82q144 -85 221.5 -245t77.5 -390v-82q0 -238 -80 -389
q-79 -156 -218 -235t-328 -79zM754 92q228 0 358.5 152t130.5 434v72q0 290 -128.5 447t-360.5 157q-234 0 -361 -157.5t-127 -444.5v-74q0 -284 126.5 -435t361.5 -151z" />
    <glyph glyph-name="Uumlaut" horiz-adv-x="1445" 
d="M563 1249q-44 0 -65 25t-21 82q0 106 86 106t86 -108q0 -105 -86 -105zM870 1249q-45 0 -66.5 25t-21.5 82q0 106 88 106q84 0 84 -108q0 -105 -84 -105zM723 -31q-287 0 -419 161.5t-132 504.5v815h135v-813q0 -283 97.5 -412t320.5 -129q218 0 316 129.5t98 411.5v813
h133v-815q0 -340 -135 -503t-414 -163z" />
    <glyph glyph-name="cordinal" horiz-adv-x="954" 
d="M885 950q-24 -154 -130.5 -237.5t-267.5 -83.5q-192 0 -297.5 110t-105.5 305v17q0 134 53 229q52 96 143 146.5t207 50.5q158 0 264 -83.5t132 -236.5v-2h-125q-25 101 -95.5 158t-173.5 57q-128 0 -205 -84.5t-77 -234.5v-12q0 -143 73.5 -226.5t206.5 -83.5
q114 0 183 55t90 158h125v-2z" />
    <glyph glyph-name="caronSlovak" horiz-adv-x="1060" 
d="M547 1688h127l-135 -353h-99z" />
    <glyph glyph-name="altcedilla" horiz-adv-x="1060" 
d="M524 -510q-143 0 -216 56t-91 163h123q7 -61 55.5 -94t128.5 -33q174 0 174 119q0 57 -39.5 85t-136.5 28h-69v86h88q268 3 268 -195q0 -100 -71.5 -157.5t-213.5 -57.5z" />
    <glyph glyph-name="doublegrave" horiz-adv-x="1060" 
d="M150 1686h151l246 -343h-109zM461 1686h151l230 -343h-105z" />
    <glyph glyph-name="invertedbreve" horiz-adv-x="1060" 
d="M530 1694q167 0 257 -92t98 -259h-107q-8 134 -66.5 196t-183.5 63q-119 -2 -182.5 -64.5t-73.5 -194.5h-102q8 167 100 259t260 92z" />
    <glyph glyph-name="onethirdemdash" horiz-adv-x="956" 
d="M805 582h-655v127h655v-127z" />
    <glyph glyph-name="threequarteremdash" horiz-adv-x="1325" 
d="M1174 582h-1024v127h1024v-127z" />
    <glyph glyph-name="onethirdemdash.cap" horiz-adv-x="1200" 
d="M1053 655h-903v129h903v-129z" />
    <glyph glyph-name="threequarteremdash.cap" horiz-adv-x="1120" 
d="M969 655h-819v129h819v-129z" />
    <glyph glyph-name="onesixteenth" horiz-adv-x="2260" 
d="M946 860l504 639l131 -104l-592 -570zM207 721v94h158v465q-49 -39 -125 -43v84q118 3 139 129h80v-635h151v-94h-403zM2122 229q0 -106 -76 -174.5t-205 -68.5q-155 0 -229 87.5t-74 264.5v41q0 174 76 268t227 94q115 0 181.5 -48t78.5 -138h-108q-21 97 -150 100
q-211 0 -211 -278v-60q61 138 228 138q123 0 192.5 -55.5t69.5 -170.5zM1016 0v94h158v465q-53 -43 -125 -43v82q117 3 139 131h80v-635h151v-94h-403zM817 645l-526 -686l-135 117l622 604zM1841 72q91 0 137.5 43t46.5 114q0 146 -178 146q-86 0 -140 -36t-65 -101
q18 -81 65.5 -123.5t133.5 -42.5z" />
    <glyph glyph-name="threesixteenths" horiz-adv-x="2260" 
d="M946 860l504 639l131 -104l-592 -570zM416 707q-152 0 -221.5 57.5t-69.5 183.5v19h104v-17q0 -78 44 -116.5t143 -38.5q178 0 178 133q0 65 -35.5 93t-114.5 28h-110v86h110q142 0 142 120q0 119 -170 119q-84 0 -128 -40.5t-44 -110.5v-9h-105v11q0 109 72.5 172
t204.5 63t201 -53t69 -145q0 -127 -117 -164q129 -39 129 -176q0 -97 -74.5 -156t-207.5 -59zM2122 229q0 -106 -76 -174.5t-205 -68.5q-155 0 -229 87.5t-74 264.5v41q0 174 76 268t227 94q115 0 181.5 -48t78.5 -138h-108q-21 97 -150 100q-211 0 -211 -278v-60
q61 138 228 138q123 0 192.5 -55.5t69.5 -170.5zM1016 0v94h158v465q-53 -43 -125 -43v82q117 3 139 131h80v-635h151v-94h-403zM817 645l-526 -686l-135 117l622 604zM1841 72q91 0 137.5 43t46.5 114q0 146 -178 146q-86 0 -140 -36t-65 -101q18 -81 65.5 -123.5
t133.5 -42.5z" />
    <glyph glyph-name="fivesixteenths" horiz-adv-x="2260" 
d="M946 860l504 639l131 -104l-592 -570zM418 707q-144 0 -211.5 61.5t-67.5 169.5v6h107v-6q0 -68 42.5 -106.5t129.5 -38.5q93 0 143.5 46t50.5 132q0 85 -48.5 124.5t-131.5 39.5q-124 0 -186 -97l-6 -4l-84 23l47 393h459q0 -50 -21.5 -71t-75.5 -21h-282l-33 -228
q79 82 205 82q118 0 186 -60.5t68 -178.5q0 -127 -76.5 -196.5t-214.5 -69.5zM2122 229q0 -106 -76 -174.5t-205 -68.5q-155 0 -229 87.5t-74 264.5v41q0 174 76 268t227 94q115 0 181.5 -48t78.5 -138h-108q-21 97 -150 100q-211 0 -211 -278v-60q61 138 228 138
q123 0 192.5 -55.5t69.5 -170.5zM1016 0v94h158v465q-53 -43 -125 -43v82q117 3 139 131h80v-635h151v-94h-403zM817 645l-526 -686l-135 117l622 604zM1841 72q91 0 137.5 43t46.5 114q0 146 -178 146q-86 0 -140 -36t-65 -101q18 -81 65.5 -123.5t133.5 -42.5z" />
    <glyph glyph-name="sevensixteenths" horiz-adv-x="2260" 
d="M946 860l504 639l131 -104l-592 -570zM354 721q20 99 80 240q97 213 242 397h-426v92h534v-80q-50 -63 -120 -180q-153 -254 -197 -469h-113zM2122 229q0 -106 -76 -174.5t-205 -68.5q-155 0 -229 87.5t-74 264.5v41q0 174 76 268t227 94q115 0 181.5 -48t78.5 -138h-108
q-21 97 -150 100q-211 0 -211 -278v-60q61 138 228 138q123 0 192.5 -55.5t69.5 -170.5zM1016 0v94h158v465q-53 -43 -125 -43v82q117 3 139 131h80v-635h151v-94h-403zM817 645l-526 -686l-135 117l622 604zM1841 72q91 0 137.5 43t46.5 114q0 146 -178 146q-86 0 -140 -36
t-65 -101q18 -81 65.5 -123.5t133.5 -42.5z" />
    <glyph glyph-name="ninesixteenths" horiz-adv-x="2260" 
d="M946 860l504 639l131 -104l-592 -570zM424 705q-243 0 -270 200h106q24 -111 162 -114q211 0 211 278v61q-27 -67 -85 -103t-142 -36q-123 0 -193 55.5t-70 170.5q0 106 74 174.5t205 68.5q155 0 230 -87t75 -265v-41q0 -175 -75 -268.5t-228 -93.5zM418 1071
q90 0 142.5 39t60.5 107q-35 157 -197 157q-91 0 -137.5 -43t-46.5 -114q0 -74 47.5 -110t130.5 -36zM2122 229q0 -106 -76 -174.5t-205 -68.5q-155 0 -229 87.5t-74 264.5v41q0 174 76 268t227 94q115 0 181.5 -48t78.5 -138h-108q-21 97 -150 100q-211 0 -211 -278v-60
q61 138 228 138q123 0 192.5 -55.5t69.5 -170.5zM1016 0v94h158v465q-53 -43 -125 -43v82q117 3 139 131h80v-635h151v-94h-403zM817 645l-526 -686l-135 117l622 604zM1841 72q91 0 137.5 43t46.5 114q0 146 -178 146q-86 0 -140 -36t-65 -101q18 -81 65.5 -123.5
t133.5 -42.5z" />
    <glyph glyph-name="elevensixteenths" horiz-adv-x="2787" 
d="M1473 860l503 639l131 -104l-591 -570zM209 721v94h158v465q-49 -40 -127 -43v84q116 3 141 129h80v-635h151v-94h-403zM735 721v94h158v465q-49 -40 -127 -43v84q116 3 141 129h80v-635h152v-94h-404zM2648 229q0 -106 -76 -174.5t-205 -68.5q-155 0 -229 87.5
t-74 264.5v41q0 174 76 268t227 94q115 0 182 -48t79 -138h-109q-21 97 -149 100q-211 0 -211 -278v-60q61 138 227 138q123 0 192.5 -55.5t69.5 -170.5zM1542 0v94h158v465q-53 -43 -125 -43v82q117 3 139 131h80v-635h152v-94h-404zM1343 645l-526 -686l-135 117l623 604z
M2367 72q92 0 138.5 43t46.5 114q0 146 -178 146q-86 0 -140 -36t-65 -101q18 -82 65 -124t133 -42z" />
    <glyph glyph-name="thirteensixteenths" horiz-adv-x="2893" 
d="M1579 860l504 639l131 -104l-592 -570zM1038 707q-152 0 -221 57.5t-69 183.5v19h104v-17q0 -79 43.5 -117t142.5 -38q179 0 179 133q0 65 -35.5 93t-114.5 28h-111v86h111q141 0 141 120q0 119 -170 119q-84 0 -128 -40.5t-44 -110.5v-9h-104v11q0 109 72 172t204 63
t201.5 -53t69.5 -145q0 -127 -117 -164q129 -39 129 -176q0 -97 -75 -156t-208 -59zM209 721v94h158v465q-49 -40 -127 -43v84q116 3 141 129h80v-635h151v-94h-403zM2755 229q0 -106 -76 -174.5t-205 -68.5q-155 0 -229 87.5t-74 264.5v41q0 174 76 268t227 94
q115 0 181.5 -48t78.5 -138h-108q-21 97 -150 100q-211 0 -211 -278v-60q61 138 227 138q123 0 193 -55.5t70 -170.5zM1649 0v94h157v465q-53 -43 -125 -43v82q118 3 140 131h80v-635h151v-94h-403zM1450 645l-526 -686l-136 117l623 604zM2474 72q91 0 137.5 43t46.5 114
q0 146 -178 146q-86 0 -140 -36t-65 -101q18 -81 65.5 -123.5t133.5 -42.5z" />
    <glyph glyph-name="fifteensixteenths" horiz-adv-x="2893" 
d="M1579 860l504 639l131 -104l-592 -570zM209 721v94h158v465q-49 -40 -127 -43v84q116 3 141 129h80v-635h151v-94h-403zM1034 707q-144 0 -211 61t-67 170v6h106v-6q0 -68 42.5 -106.5t129.5 -38.5q93 0 144 46t51 132q0 85 -48.5 124.5t-131.5 39.5q-125 0 -187 -97
l-6 -4l-84 23l47 393h459q0 -50 -21.5 -71t-74.5 -21h-283l-33 -228q79 82 205 82q118 0 186 -60.5t68 -178.5q0 -127 -76.5 -196.5t-214.5 -69.5zM2755 229q0 -106 -76 -174.5t-205 -68.5q-155 0 -229 87.5t-74 264.5v41q0 174 76 268t227 94q115 0 181.5 -48t78.5 -138
h-108q-21 97 -150 100q-211 0 -211 -278v-60q61 138 227 138q123 0 193 -55.5t70 -170.5zM1649 0v94h157v465q-53 -43 -125 -43v82q118 3 140 131h80v-635h151v-94h-403zM1450 645l-526 -686l-136 117l623 604zM2474 72q91 0 137.5 43t46.5 114q0 146 -178 146
q-86 0 -140 -36t-65 -101q18 -81 65.5 -123.5t133.5 -42.5z" />
    <glyph glyph-name="mediumblackcircle" horiz-adv-x="1511" 
d="M756 -20q-171 0 -307 77q-137 80 -214 216.5t-77 304.5q0 176 80 307q80 137 215.5 214t302.5 77t305 -78q138 -80 216.5 -214.5t78.5 -305.5q0 -177 -80 -308q-79 -136 -215 -213t-305 -77z" />
    <glyph glyph-name="ballotboxwithx" horiz-adv-x="1513" 
d="M180 1153h1153v-1153h-1153v1153zM309 123h897v907h-897v-907zM764 500l-215 -219l-70 73l213 217l-213 213l72 72l211 -213l211 215l69 -76l-206 -211l211 -213l-70 -71z" />
    <glyph glyph-name="ttfautohint" horiz-adv-x="753" 
 />
    </font>
</defs>
</svg>
